<svg width="65" height="91" viewBox="0 0 65 91" fill="none" xmlns="http://www.w3.org/2000/svg">
<path d="M36.0844 0.0633798L36.0697 0.0488281H2.66913C1.23893 0.0488281 0.0800781 1.20078 0.0800781 2.62252V87.4751C0.0800781 88.8968 1.23893 90.0488 2.66913 90.0488H62.1654C63.5956 90.0488 64.7544 88.8968 64.7544 87.4751V28.5639H36.0918V0.0633798H36.0844Z" fill="#EFF3F5"/>
<path d="M36.084 28.564H64.7539L36.084 0.0634766V28.564Z" fill="#DBDFE0"/>
<path opacity="0.1" d="M64.7539 57.0567V28.5635H36.084L64.7539 57.0567Z" fill="#C2C2C2"/>
<rect x="0.0800781" y="57.6838" width="64.5423" height="22.6021" fill="#F7A84B"/>
<path d="M31.7072 63.5239L26.2725 77.282H22.686L28.1647 64.7196H20.9844V61.9636H31.7072V63.5239Z" fill="#EFF3F5"/>
<path d="M44.8863 77.282H32.4766V75.2989L40.3756 64.778H33.0486V61.9709H44.8642V63.903L37.1412 74.4896H44.8863V77.282Z" fill="#EFF3F5"/>
</svg>
