<svg width="65" height="90" viewBox="0 0 65 90" fill="none" xmlns="http://www.w3.org/2000/svg">
<path d="M36.0043 0.0145962L35.9897 0H2.58905C1.15885 0 0 1.152 0 2.57374V87.4263C0 88.848 1.15885 90 2.58905 90H62.0853C63.5155 90 64.6744 88.848 64.6744 87.4263V28.5151H36.0117V0.0145962H36.0043Z" fill="#EFF3F5"/>
<path d="M36.0039 28.5079H64.6666L36.0039 0.0146484V28.5079Z" fill="#DBDFE0"/>
<path opacity="0.1" d="M64.674 57.0085V28.5154L64.6666 28.5081H36.0039L64.674 57.0085Z" fill="#C2C2C2"/>
<rect y="58.3279" width="64.5423" height="22.6021" fill="#48B8F7"/>
<path d="M11.957 77.2339V61.9155H17.4138C22.8852 61.9155 25.6209 64.4017 25.6209 69.3815C25.6209 71.7656 24.8728 73.6686 23.384 75.0976C21.8878 76.5194 19.9001 77.2339 17.4138 77.2339H11.957ZM15.4262 64.7298V74.4414H17.1424C18.646 74.4414 19.8268 73.9894 20.6849 73.0926C21.543 72.1958 21.9684 70.9709 21.9684 69.4252C21.9684 67.967 21.5431 66.815 20.6923 65.9839C19.8415 65.1454 18.6533 64.7298 17.1204 64.7298H15.4262Z" fill="#EFF3F5"/>
<path d="M34.1201 77.5033C31.9125 77.5033 30.1157 76.7887 28.7295 75.3597C27.3433 73.9307 26.6465 72.0715 26.6465 69.7821C26.6465 67.3615 27.3506 65.4002 28.7588 63.9055C30.167 62.4109 32.0373 61.6599 34.3696 61.6599C36.5699 61.6599 38.3448 62.3744 39.7017 63.8035C41.0585 65.2325 41.7406 67.1209 41.7406 69.4613C41.7406 71.8673 41.0364 73.8067 39.6283 75.2795C38.2201 76.7668 36.3791 77.5033 34.1201 77.5033ZM34.2669 64.6346C33.0494 64.6346 32.0813 65.0867 31.3625 65.9981C30.6437 66.9021 30.2916 68.1052 30.2916 69.5998C30.2916 71.1163 30.6511 72.3194 31.3625 73.2016C32.0813 74.0838 33.0201 74.5285 34.1789 74.5285C35.3744 74.5285 36.3205 74.0983 37.0246 73.238C37.7287 72.3777 38.0807 71.1893 38.0807 69.6655C38.0807 68.076 37.7433 66.8438 37.0612 65.9616C36.3791 65.0721 35.4551 64.6346 34.2669 64.6346Z" fill="#EFF3F5"/>
<path d="M54.7695 76.6865C53.6474 77.226 52.1732 77.4957 50.3616 77.4957C47.9999 77.4957 46.137 76.8031 44.7875 75.4251C43.4306 74.0471 42.7559 72.2025 42.7559 69.9058C42.7559 67.456 43.5186 65.4729 45.0368 63.9491C46.5624 62.4253 48.5354 61.667 50.963 61.667C52.4666 61.667 53.7354 61.8566 54.7695 62.2357V65.5604C53.7354 64.948 52.5619 64.6417 51.2491 64.6417C49.8042 64.6417 48.638 65.0938 47.7433 65.9978C46.8558 66.9019 46.4084 68.1268 46.4084 69.6725C46.4084 71.1526 46.8265 72.3337 47.6626 73.2159C48.4987 74.0982 49.6282 74.5356 51.0511 74.5356C52.4079 74.5356 53.6474 74.2075 54.7695 73.5513V76.6865Z" fill="#EFF3F5"/>
</svg>
