<svg width="65" height="90" viewBox="0 0 65 90" fill="none" xmlns="http://www.w3.org/2000/svg">
<path d="M36.0844 0.0145962L36.0698 0H2.66913C1.23893 0 0.0800781 1.15195 0.0800781 2.5737V87.4263C0.0800781 88.848 1.23893 90 2.66913 90H62.1654C63.5956 90 64.7544 88.848 64.7544 87.4263V28.5151V28.5078H36.0917V0.0145962H36.0844Z" fill="#EFF3F5"/>
<path d="M36.084 28.5078H64.7467L36.084 0.0146484V28.5078Z" fill="#DBDFE0"/>
<path opacity="0.1" d="M64.754 57.0013V28.5081H64.7467H36.084L64.754 57.0013Z" fill="#C2C2C2"/>
<rect x="0.0800781" y="57.5984" width="64.5423" height="22.6021" fill="#09A6FF"/>
<path d="M4.86328 77.2261V61.9077H10.32C15.7915 61.9077 18.5272 64.394 18.5272 69.3737C18.5272 71.7579 17.7791 73.6608 16.2902 75.0898C14.794 76.5116 12.8064 77.2261 10.32 77.2261H4.86328ZM8.33976 64.7221V74.4264H10.056C11.5596 74.4264 12.7404 73.9743 13.5985 73.0775C14.4566 72.1807 14.882 70.9632 14.882 69.4175C14.882 67.9593 14.4566 66.8073 13.6058 65.9761C12.755 65.1376 11.5669 64.7221 10.034 64.7221H8.33976Z" fill="#EFF3F5"/>
<path d="M27.0245 77.4954C24.8168 77.4954 23.0199 76.7809 21.6338 75.3519C20.2476 73.9228 19.5508 72.0636 19.5508 69.7743C19.5508 67.3537 20.2549 65.3924 21.6631 63.8977C23.0713 62.4031 24.9416 61.6521 27.2739 61.6521C29.4742 61.6521 31.2491 62.3666 32.606 63.803C33.9628 65.232 34.6449 67.1204 34.6449 69.4608C34.6449 71.8668 33.9408 73.8062 32.5326 75.279C31.1244 76.759 29.2908 77.4954 27.0245 77.4954ZM27.1785 64.6195C25.961 64.6195 24.9929 65.0716 24.2741 65.983C23.5553 66.887 23.2033 68.09 23.2033 69.5847C23.2033 71.1012 23.5627 72.297 24.2741 73.1865C24.9929 74.0687 25.9317 74.5134 27.0905 74.5134C28.286 74.5134 29.2322 74.0832 29.9362 73.2302C30.6403 72.3699 30.9924 71.1814 30.9924 69.6576C30.9924 68.0682 30.655 66.836 29.9729 65.9538C29.2908 65.0643 28.3594 64.6195 27.1785 64.6195Z" fill="#EFF3F5"/>
<path d="M47.6738 76.6788C46.5517 77.2184 45.0775 77.4881 43.2659 77.4881C40.9042 77.4881 39.0412 76.7955 37.6917 75.4175C36.3348 74.0395 35.6602 72.1949 35.6602 69.8982C35.6602 67.4485 36.4229 65.4653 37.9411 63.9415C39.4593 62.4177 41.4396 61.6594 43.8673 61.6594C45.3708 61.6594 46.6397 61.849 47.6738 62.2281V65.5455C46.6397 64.9331 45.4662 64.6269 44.1533 64.6269C42.7084 64.6269 41.5423 65.0789 40.6475 65.983C39.76 66.8871 39.3126 68.1119 39.3126 69.6576C39.3126 71.1377 39.7307 72.3189 40.5668 73.2011C41.4029 74.0833 42.5324 74.5207 43.9553 74.5207C45.3121 74.5207 46.5517 74.1926 47.6738 73.5364V76.6788Z" fill="#EFF3F5"/>
<path d="M62.3703 77.2261H58.2557L55.6007 72.2391C55.498 72.0568 55.3953 71.7141 55.2926 71.211H55.2486C55.1973 71.4443 55.08 71.8016 54.8966 72.2755L52.2342 77.2188H48.0977L53.0043 69.5633L48.5157 61.9077H52.7403L54.9406 66.5011C55.1093 66.8656 55.2706 67.2958 55.4026 67.7915H55.4467C55.5347 67.4926 55.696 67.0479 55.9307 66.4573L58.3804 61.9077H62.2457L57.625 69.505L62.3703 77.2261Z" fill="#EFF3F5"/>
</svg>
