<svg width="66" height="91" viewBox="0 0 66 91" fill="none" xmlns="http://www.w3.org/2000/svg">
<path d="M36.6332 0.0633798L36.6186 0.0488281H3.21791C1.78771 0.0488281 0.628906 1.20078 0.628906 2.62252V87.4751C0.628906 88.8968 1.78771 90.0488 3.21791 90.0488H62.7142C64.1444 90.0488 65.3032 88.8968 65.3032 87.4751V28.5639H36.6406V0.0633798H36.6332Z" fill="#EFF3F5"/>
<rect x="0.628906" y="57.6477" width="64.5423" height="22.6021" fill="#ED5858"/>
<path d="M36.6328 28.5637H65.2955L36.6328 0.0632324V28.5637Z" fill="#DBDFE0"/>
<path opacity="0.1" d="M65.2955 57.0567V28.5635H36.6328L65.2955 57.0567Z" fill="#C2C2C2"/>
<path d="M25.8585 77.2822H16.6172V61.9639H25.4991V64.7709H20.0863V68.1758H25.1251V70.9755H20.0863V74.4752H25.8585V77.2822Z" fill="#EFF3F5"/>
<path d="M40.425 77.2822H36.3104L33.6554 72.2952C33.5527 72.1129 33.45 71.7703 33.3473 71.2672H33.3033C33.252 71.5005 33.1347 71.8578 32.9513 72.3317L30.2889 77.2749H26.1523L31.059 69.6194L26.5704 61.9639H30.795L32.9953 66.5572C33.164 66.9217 33.3254 67.3519 33.4574 67.8477H33.5014C33.5894 67.5488 33.7507 67.104 33.9854 66.5134L36.4351 61.9639H40.3003L35.6797 69.5538L40.425 77.2822Z" fill="#EFF3F5"/>
<path d="M50.9327 77.2822H41.6914V61.9639H50.5806V64.7709H45.1679V68.1758H50.2066V70.9755H45.1679V74.4752H50.94V77.2822H50.9327Z" fill="#EFF3F5"/>
</svg>
