<svg width="65" height="90" viewBox="0 0 65 90" fill="none" xmlns="http://www.w3.org/2000/svg">
<path d="M36.0668 0.0145851L36.0521 0H2.6515C1.2213 0 0.0625 1.15198 0.0625 2.57372V87.4263C0.0625 88.848 1.2213 90 2.6515 90H62.1478C63.578 90 64.7368 88.848 64.7368 87.4263V28.5151H36.0741V0.0145851H36.0668Z" fill="#EFF3F5"/>
<path d="M36.0664 28.5078H64.7291L36.0664 0.0146484V28.5078Z" fill="#DBDFE0"/>
<path opacity="0.1" d="M64.7364 57.0085V28.5154L64.7291 28.5081H36.0664L64.7364 57.0085Z" fill="#C2C2C2"/>
<path d="M30.9563 76.2059C29.4528 77.0663 27.5825 77.4964 25.3455 77.4964C22.8665 77.4964 20.9156 76.8184 19.4854 75.4476C18.0552 74.0842 17.3438 72.2031 17.3438 69.8117C17.3438 67.4057 18.1211 65.4444 19.6834 63.9279C21.2456 62.4114 23.3212 61.6531 25.9176 61.6531C27.5531 61.6531 28.9907 61.8791 30.2375 62.3239V65.5611C29.0493 64.8757 27.5971 64.533 25.8736 64.533C24.436 64.533 23.2625 64.9997 22.3531 65.9256C21.4436 66.8516 20.9962 68.0983 20.9962 69.644C20.9962 71.2189 21.3996 72.4365 22.2137 73.2968C23.0278 74.1571 24.128 74.5873 25.5068 74.5873C26.3356 74.5873 26.9957 74.4706 27.4871 74.2373V71.248H24.3994V68.492H30.9563V76.2059Z" fill="#EFF3F5"/>
<rect x="0.0625" y="58.3284" width="64.5423" height="22.6021" fill="#5766EB"/>
<path d="M29.4219 62V64.6685H28.1311V74.6426H29.4219V77.3111H23.3711V74.6426H24.6619V64.6685H23.3711V62H29.4219Z" fill="#EFF3F5"/>
<path d="M21.9664 64.807H16.5316V68.5692H21.5263V71.3689H16.5316V77.3184H13.0625V62H21.9664V64.807Z" fill="#EFF3F5"/>
<path d="M52.589 77.4026H43.3477V62.0842H52.2295V64.8912H46.8168V68.2962H51.8555V71.0959H46.8168V74.5955H52.589V77.4026Z" fill="#EFF3F5"/>
<path d="M31.3475 75.8423L31.3475 62.0842H34.89V74.6466H42.0703V77.4026H31.3475V75.8423Z" fill="#EFF3F5"/>
</svg>
