<svg width="65" height="91" viewBox="0 0 65 91" fill="none" xmlns="http://www.w3.org/2000/svg">
<path d="M36.0844 0.479429L36.0697 0.464844H2.66908C1.23888 0.464844 0.0800781 1.61682 0.0800781 3.03856V87.8911C0.0800781 89.3129 1.23888 90.4648 2.66908 90.4648H62.1653C63.5955 90.4648 64.7544 89.3129 64.7544 87.8911V28.9799H36.0917V0.479429H36.0844Z" fill="#EFF3F5"/>
<path d="M36.084 28.9727H64.7466L36.084 0.479492V28.9727Z" fill="#DBDFE0"/>
<path opacity="0.1" d="M64.754 57.4734V28.9802L64.7466 28.9729H36.084L64.754 57.4734Z" fill="#C2C2C2"/>
<path d="M30.9739 76.6708C29.4703 77.5311 27.6001 77.9613 25.3631 77.9613C22.8841 77.9613 20.9331 77.2832 19.5029 75.9125C18.0727 74.5491 17.3613 72.668 17.3613 70.2765C17.3613 67.8705 18.1387 65.9093 19.7009 64.3927C21.2632 62.8762 23.3388 62.1179 25.9351 62.1179C27.5707 62.1179 29.0082 62.344 30.2551 62.7887V66.0259C29.0669 65.3406 27.6147 64.9979 25.8911 64.9979C24.4536 64.9979 23.2801 65.4645 22.3707 66.3905C21.4612 67.3164 21.0138 68.5632 21.0138 70.1089C21.0138 71.6837 21.4172 72.9013 22.2313 73.7616C23.0454 74.622 24.1456 75.0522 25.5244 75.0522C26.3532 75.0522 27.0133 74.9355 27.5047 74.7022V71.7129H24.417V68.9569H30.9739V76.6708Z" fill="#EFF3F5"/>
<rect x="0.0800781" y="58.7932" width="64.5423" height="22.6021" fill="#957BCC"/>
<path d="M29.8313 76.9843C28.3278 77.8446 26.4575 78.2748 24.2205 78.2748C21.7415 78.2748 19.7906 77.5967 18.3604 76.2333C16.9302 74.8699 16.2188 72.9888 16.2188 70.5973C16.2188 68.1913 16.9962 66.23 18.5584 64.7135C20.1206 63.197 22.1962 62.4387 24.7926 62.4387C26.4282 62.4387 27.8657 62.6648 29.1125 63.1095V66.3467C27.9244 65.6614 26.4722 65.3187 24.7486 65.3187C23.3111 65.3187 22.1376 65.7853 21.2281 66.7113C20.326 67.6372 19.8713 68.884 19.8713 70.4296C19.8713 72.0045 20.2746 73.2221 21.0887 74.0824C21.9029 74.9428 23.003 75.3729 24.3819 75.3729C25.2107 75.3729 25.8707 75.2563 26.3622 75.023V72.0337H23.2744V69.2777H29.8313V76.9843Z" fill="#EFF3F5"/>
<path d="M38.1544 62.3806V65.0491H36.8635V75.0232H38.1544V77.6917H32.1035V75.0232H33.3944V65.0491H32.1035V62.3806H38.1544Z" fill="#EFF3F5"/>
<path d="M48.6988 65.1877H43.2641V68.9498H48.2587V71.7495H43.2641V77.699H39.7949V62.3806H48.6988V65.1877Z" fill="#EFF3F5"/>
</svg>
