<svg width="65" height="91" viewBox="0 0 65 91" fill="none" xmlns="http://www.w3.org/2000/svg">
<path d="M36.0844 0.430845L36.0697 0.41626H2.6691C1.2389 0.41626 0.0800781 1.56824 0.0800781 2.98998V87.8425C0.0800781 89.2643 1.2389 90.4163 2.6691 90.4163H62.1654C63.5956 90.4163 64.7544 89.2643 64.7544 87.8425V28.9313H36.0917V0.430845H36.0844Z" fill="#EFF3F5"/>
<path d="M36.084 28.9241H64.7466L36.084 0.430908V28.9241Z" fill="#DBDFE0"/>
<path opacity="0.1" d="M64.754 57.4248V28.9316L64.7466 28.9243H36.084L64.754 57.4248Z" fill="#C2C2C2"/>
<rect x="0.0800781" y="58.7437" width="64.5423" height="22.6021" fill="#38C1BA"/>
<path d="M22.0401 71.5688C22.0401 73.6175 21.5634 75.1924 20.6026 76.2787C19.6491 77.3651 18.2629 77.9119 16.4513 77.9119C15.6446 77.9119 14.8965 77.7734 14.207 77.4963V74.2591C14.8011 74.7111 15.4685 74.9299 16.202 74.9299C17.7862 74.9299 18.5783 73.7633 18.5783 71.4302V62.3311H22.0401V71.5688Z" fill="#EFF3F5"/>
<path d="M28.3109 72.3707V77.6494H24.8418V62.3311H30.2766C34.1564 62.3311 36.1 63.9569 36.1 67.2087C36.1 68.7471 35.5426 69.9939 34.4278 70.9417C33.313 71.8895 31.8241 72.3707 29.9612 72.3707H28.3109ZM28.3109 64.9777V69.7533H29.6751C31.5234 69.7533 32.4475 68.9513 32.4475 67.34C32.4475 65.7651 31.5234 64.9777 29.6751 64.9777H28.3109Z" fill="#EFF3F5"/>
<path d="M50.3215 76.6215C48.818 77.4818 46.9477 77.912 44.7108 77.912C42.2318 77.912 40.2808 77.2339 38.8506 75.8705C37.4204 74.5071 36.709 72.626 36.709 70.2345C36.709 67.8285 37.4864 65.8672 39.0486 64.3507C40.6109 62.8342 42.6865 62.0759 45.2828 62.0759C46.9184 62.0759 48.3559 62.302 49.6028 62.7467V65.9839C48.4146 65.2986 46.9624 64.9559 45.2388 64.9559C43.8013 64.9559 42.6278 65.4225 41.7183 66.3485C40.8162 67.2744 40.3615 68.5212 40.3615 70.0668C40.3615 71.6417 40.7649 72.8593 41.579 73.7196C42.3931 74.58 43.4933 75.0101 44.8721 75.0101C45.7009 75.0101 46.361 74.8935 46.8524 74.6602V71.6709H43.7646V68.9149H50.3215V76.6215Z" fill="#EFF3F5"/>
</svg>
