<svg width="66" height="91" viewBox="0 0 66 91" fill="none" xmlns="http://www.w3.org/2000/svg">
<path d="M36.6332 0.846139L36.6185 0.831543H3.21795C1.78776 0.831543 0.628906 1.98354 0.628906 3.40528V88.2579C0.628906 89.6796 1.78776 90.8315 3.21795 90.8315H62.7142C64.1444 90.8315 65.3032 89.6796 65.3032 88.2579V29.3466H36.6406V0.846139H36.6332Z" fill="#EFF3F5"/>
<path d="M36.6328 29.3392H65.2955L36.6328 0.845947V29.3392Z" fill="#DBDFE0"/>
<path opacity="0.1" d="M65.2311 57.7671V29.2739V29.2666H36.5684L65.2311 57.7671Z" fill="#C2C2C2"/>
<rect x="0.628906" y="57.7014" width="64.5423" height="22.6021" fill="#F1786B"/>
<path d="M18.7172 72.7865V78.0652H15.248V62.7468H20.6828C24.5627 62.7468 26.5063 64.3727 26.5063 67.6318C26.5063 69.1702 25.9489 70.4097 24.8341 71.3648C23.7193 72.3126 22.2303 72.7938 20.3674 72.7938H18.7172V72.7865ZM18.7172 65.4008V70.1763H20.0814C21.9296 70.1763 22.8538 69.3743 22.8538 67.763C22.8538 66.1882 21.9296 65.4008 20.0814 65.4008H18.7172Z" fill="#EFF3F5"/>
<path d="M28.1914 78.0652V62.7468H33.6481C39.1195 62.7468 41.8553 65.233 41.8553 70.2128C41.8553 72.5969 41.1072 74.4999 39.6183 75.9289C38.1221 77.3506 36.1345 78.0652 33.6481 78.0652H28.1914ZM31.6605 65.5611V75.2654H33.3768C34.8803 75.2654 36.0612 74.8134 36.9193 73.9166C37.7774 73.0198 38.2028 71.8022 38.2028 70.2565C38.2028 68.7983 37.7774 67.6463 36.9266 66.8152C36.0759 65.9767 34.8877 65.5611 33.3548 65.5611H31.6605Z" fill="#EFF3F5"/>
<path d="M52.7477 65.5612H47.3129V69.3233H52.3076V72.1231H47.3129V78.0725H43.8438V62.7542H52.7477V65.5612Z" fill="#EFF3F5"/>
</svg>
