<svg width="66" height="91" viewBox="0 0 66 91" fill="none" xmlns="http://www.w3.org/2000/svg">
<path d="M36.6333 0.163999L36.6186 0.149414H3.21795C1.78776 0.149414 0.628906 1.30139 0.628906 2.72313V87.5757C0.628906 88.9974 1.78776 90.1494 3.21795 90.1494H62.7142C64.1444 90.1494 65.3032 88.9974 65.3032 87.5757V28.6645H36.6406V0.163999H36.6333Z" fill="#EFF3F5"/>
<path d="M36.6328 28.6573H65.3028L36.6328 0.164062V28.6573Z" fill="#DBDFE0"/>
<path opacity="0.1" d="M64.9591 57.1577V28.6645L64.9517 28.6572H36.2891L64.9591 57.1577Z" fill="#C2C2C2"/>
<rect x="0.664062" y="59.2061" width="64.5423" height="22.6021" fill="#37C49C"/>
<path d="M15.7856 72.1041V77.3828H12.3164V62.0645H17.7512C21.6311 62.0645 23.5747 63.6903 23.5747 66.9421C23.5747 68.4805 23.0172 69.7273 21.9024 70.6751C20.7876 71.6229 19.2987 72.1041 17.4358 72.1041H15.7856ZM15.7856 64.7111V69.4867H17.1498C18.998 69.4867 19.9221 68.6847 19.9221 67.0734C19.9221 65.4985 18.998 64.7111 17.1498 64.7111H15.7856Z" fill="#EFF3F5"/>
<path d="M39.1158 77.3828H35.61L29.2585 67.7587C28.8844 67.1973 28.6277 66.7744 28.4883 66.4901H28.4443C28.503 67.0296 28.5323 67.8608 28.5323 68.969V77.3828H25.2539V62.0644H28.9944L35.1039 71.3896C35.3826 71.8125 35.6393 72.2281 35.874 72.6364H35.918C35.8594 72.2791 35.83 71.5792 35.83 70.5293V62.0571H39.1085V77.3828H39.1158Z" fill="#EFF3F5"/>
<path d="M54.718 76.3546C53.2145 77.2149 51.3442 77.6451 49.1073 77.6451C46.6283 77.6451 44.6773 76.967 43.2471 75.5963C41.8169 74.2329 41.1055 72.3518 41.1055 69.9604C41.1055 67.5544 41.8829 65.5931 43.4451 64.0766C45.0073 62.56 47.083 61.8018 49.6793 61.8018C51.3149 61.8018 52.7524 62.0278 53.9993 62.4725V65.7097C52.8111 65.0244 51.3589 64.6817 49.6353 64.6817C48.1978 64.6817 47.0243 65.1483 46.1148 66.0743C45.2127 67.0002 44.758 68.247 44.758 69.7927C44.758 71.3676 45.1614 72.5851 45.9755 73.4455C46.7896 74.3058 47.8824 74.736 49.2686 74.736C50.0974 74.736 50.7575 74.6193 51.2489 74.386V71.3967H48.1685V68.6407H54.7254V76.3546H54.718Z" fill="#EFF3F5"/>
</svg>
