<svg width="66" height="91" viewBox="0 0 66 91" fill="none" xmlns="http://www.w3.org/2000/svg">
<path d="M36.3695 0.846139L36.3549 0.831543H2.95419C1.52399 0.831543 0.365234 1.98354 0.365234 3.40528V88.2579C0.365234 89.6796 1.52399 90.8315 2.95419 90.8315H62.4504C63.8806 90.8315 65.0395 89.6796 65.0395 88.2579V29.3466H36.3769V0.846139H36.3695Z" fill="#EFF3F5"/>
<rect x="0.0800781" y="58.4304" width="64.5423" height="22.6021" fill="#F1936B"/>
<path d="M36.3691 29.3394H65.0318L36.3691 0.846191V29.3394Z" fill="#DBDFE0"/>
<path opacity="0.1" d="M65.0318 57.8401V29.3469V29.3396H36.3691L65.0318 57.8401Z" fill="#C2C2C2"/>
<path d="M18.7036 72.7865V78.0652H15.2344V62.7468H20.6692C24.549 62.7468 26.4927 64.3727 26.4927 67.6245C26.4927 69.1629 25.9352 70.4097 24.8204 71.3575C23.7056 72.3053 22.2168 72.7865 20.3538 72.7865H18.7036ZM18.7036 65.4008V70.1763H20.0678C21.916 70.1763 22.8401 69.3743 22.8401 67.763C22.8401 66.1882 21.916 65.4008 20.0678 65.4008H18.7036Z" fill="#EFF3F5"/>
<path d="M31.643 72.7865V78.0652H28.1738V62.7468H33.6086C37.4885 62.7468 39.432 64.3727 39.432 67.6245C39.432 69.1629 38.8747 70.4097 37.7599 71.3575C36.6451 72.3053 35.1561 72.7865 33.2932 72.7865H31.643ZM31.643 65.4008V70.1763H33.0072C34.8555 70.1763 35.7795 69.3743 35.7795 67.763C35.7795 66.1882 34.8555 65.4008 33.0072 65.4008H31.643Z" fill="#EFF3F5"/>
<path d="M51.9339 65.5609H47.5406V78.065H44.0568V65.5609H39.6855V62.7539H51.9339V65.5609Z" fill="#EFF3F5"/>
</svg>
