<svg width="65" height="91" viewBox="0 0 65 91" fill="none" xmlns="http://www.w3.org/2000/svg">
<path d="M36.0044 0.47944L35.9897 0.464844H2.58905C1.15885 0.464844 0 1.61684 0 3.03859V87.8912C0 89.3129 1.15885 90.4648 2.58905 90.4648H62.0853C63.5155 90.4648 64.6744 89.3129 64.6744 87.8912V28.9799H36.0117V0.47944H36.0044Z" fill="#EFF3F5"/>
<path d="M36.0039 28.9727H64.6665L36.0039 0.479492V28.9727Z" fill="#DBDFE0"/>
<path opacity="0.1" d="M64.6739 57.4731V28.98L64.6665 28.9727H36.0039L64.6739 57.4731Z" fill="#C2C2C2"/>
<rect x="0.0683594" y="58.064" width="64.5423" height="22.6021" fill="#17A97F"/>
<path d="M25.3313 77.6982H21.3487L18.9505 73.7538C18.7745 73.4549 18.5984 73.1851 18.437 72.9518C18.2757 72.7185 18.107 72.5143 17.9383 72.3466C17.7696 72.1789 17.5936 72.0477 17.4102 71.9602C17.2268 71.8727 17.0289 71.829 16.8162 71.829H15.8773V77.6909H12.4082V62.3726H17.909C21.6495 62.3726 23.5198 63.7579 23.5198 66.5357C23.5198 67.068 23.4391 67.5637 23.2704 68.0158C23.1091 68.4678 22.8743 68.8761 22.5736 69.2407C22.2729 69.6052 21.9062 69.9188 21.4808 70.1812C21.0554 70.4437 20.5787 70.6478 20.058 70.8009V70.8447C20.2853 70.9176 20.5126 71.0342 20.7253 71.1946C20.938 71.355 21.1507 71.5446 21.3487 71.7561C21.5468 71.9675 21.7375 72.2008 21.9208 72.4414C22.1042 72.6893 22.2729 72.9299 22.4196 73.1632L25.3313 77.6982ZM15.8773 64.9681V69.2261H17.3809C18.129 69.2261 18.7231 69.0147 19.1778 68.5845C19.6325 68.147 19.8673 67.6148 19.8673 66.9732C19.8673 65.6316 19.0605 64.9681 17.4469 64.9681H15.8773Z" fill="#EFF3F5"/>
<path d="M39.751 77.698H35.9664L34.8736 74.2931H29.3949L28.3094 77.698H24.5469L30.1576 62.3796H34.2722L39.751 77.698ZM34.0742 71.6392L32.4166 66.4918C32.2919 66.1053 32.2113 65.646 32.1599 65.1138H32.0719C32.0353 65.5658 31.9472 66.0032 31.8005 66.448L30.121 71.6392H34.0742Z" fill="#EFF3F5"/>
<path d="M54.0232 77.6982H50.0407L47.6424 73.7538C47.4663 73.4549 47.2903 73.1851 47.1289 72.9518C46.9675 72.7185 46.7989 72.5143 46.6302 72.3466C46.4615 72.1789 46.2854 72.0477 46.1021 71.9602C45.9187 71.8727 45.7207 71.829 45.508 71.829H44.5766V77.6909H41.1074V62.3726H46.6082C50.3487 62.3726 52.219 63.7579 52.219 66.5357C52.219 67.068 52.1382 67.5637 51.9696 68.0158C51.8082 68.4678 51.5735 68.8761 51.2728 69.2407C50.9721 69.6052 50.6054 69.9188 50.18 70.1812C49.7546 70.4437 49.2779 70.6478 48.7572 70.8009V70.8447C48.9846 70.9176 49.2119 71.0342 49.4246 71.1946C49.6372 71.355 49.8499 71.5446 50.048 71.7561C50.246 71.9675 50.4367 72.2008 50.6201 72.4414C50.8034 72.6893 50.9721 72.9299 51.1188 73.1632L54.0232 77.6982ZM44.5692 64.9681V69.2261H46.0728C46.8209 69.2261 47.4149 69.0147 47.8697 68.5845C48.3244 68.147 48.5591 67.6148 48.5591 66.9732C48.5591 65.6316 47.7523 64.9681 46.1388 64.9681H44.5692Z" fill="#EFF3F5"/>
</svg>
