<svg width="65" height="91" viewBox="0 0 65 91" fill="none" xmlns="http://www.w3.org/2000/svg">
<path d="M36.0044 0.430856L35.9897 0.41626H2.58905C1.15885 0.41626 0 1.56826 0 2.99V87.8426C0 89.2643 1.15885 90.4163 2.58905 90.4163H62.0853C63.5155 90.4163 64.6743 89.2643 64.6743 87.8426V28.9314H36.0117V0.430856H36.0044Z" fill="#EFF3F5"/>
<path d="M36.0039 28.9244H64.6739L36.0039 0.431152V28.9244Z" fill="#DBDFE0"/>
<path opacity="0.1" d="M64.6739 57.4248V28.9316V28.9243H36.0039L64.6739 57.4248Z" fill="#C2C2C2"/>
<rect y="58.7437" width="64.5423" height="22.6021" fill="#42BBC2"/>
<path d="M13.1563 77.0587V73.6393C13.7797 74.1569 14.4545 74.5506 15.1879 74.8058C15.9214 75.0683 16.6548 75.1995 17.4029 75.1995C17.843 75.1995 18.2244 75.1631 18.5471 75.0829C18.8698 75.0027 19.1411 74.8933 19.3612 74.7548C19.5812 74.6162 19.7426 74.4485 19.8526 74.2663C19.9626 74.0767 20.0139 73.8725 20.0139 73.6538C20.0139 73.3549 19.9259 73.0851 19.7572 72.8518C19.5885 72.6185 19.3539 72.3998 19.0531 72.2029C18.7598 72.0061 18.4004 71.8092 17.997 71.6269C17.5863 71.4447 17.1462 71.2551 16.6768 71.0582C15.4739 70.5624 14.5792 69.95 13.9851 69.2355C13.3983 68.5137 13.0977 67.646 13.0977 66.6326C13.0977 65.8379 13.259 65.1452 13.5817 64.5765C13.9044 64.0005 14.3445 63.5339 14.8945 63.1621C15.4519 62.7903 16.09 62.5205 16.8235 62.3455C17.5569 62.1705 18.327 62.083 19.1412 62.083C19.9406 62.083 20.652 62.1268 21.2754 62.2288C21.8915 62.3236 22.4636 62.4694 22.9917 62.6736V65.867C22.735 65.6921 22.4563 65.5316 22.1482 65.4004C21.8475 65.2619 21.5322 65.1525 21.2094 65.065C20.8867 64.9776 20.564 64.9119 20.2486 64.8682C19.9259 64.8244 19.6252 64.8026 19.3392 64.8026C18.9431 64.8026 18.5837 64.839 18.2684 64.9119C17.9457 64.9848 17.6742 65.0942 17.4542 65.2254C17.2342 65.364 17.0582 65.5244 16.9408 65.714C16.8162 65.9035 16.7575 66.115 16.7575 66.3483C16.7575 66.6034 16.8235 66.8367 16.9628 67.0409C17.1022 67.245 17.2929 67.4346 17.5423 67.6169C17.7916 67.7992 18.0997 67.9741 18.4517 68.1491C18.8111 68.3241 19.2145 68.5064 19.6692 68.6886C20.2853 68.9438 20.8354 69.2136 21.3268 69.5052C21.8182 69.7969 22.2362 70.1177 22.5883 70.4822C22.9403 70.8468 23.2044 71.2624 23.3951 71.729C23.5784 72.1956 23.6738 72.7352 23.6738 73.3549C23.6738 74.2079 23.5124 74.9298 23.1824 75.5057C22.8597 76.089 22.4122 76.5556 21.8548 76.9129C21.2974 77.2702 20.6447 77.5326 19.9039 77.6857C19.1631 77.8389 18.3784 77.9191 17.5569 77.9191C16.7135 77.9191 15.9067 77.8461 15.1439 77.7076C14.3738 77.5618 13.7137 77.3431 13.1563 77.0587Z" fill="#EFF3F5"/>
<path d="M38.4541 62.3308L33.144 77.6492H29.2128L23.9688 62.3308H27.7093L30.9217 72.9902C31.0904 73.5662 31.2004 74.0766 31.2298 74.514H31.2958C31.3471 74.0401 31.4571 73.5152 31.6332 72.9465L34.8236 62.3308H38.4541Z" fill="#EFF3F5"/>
<path d="M51.9114 76.6212C50.4078 77.4816 48.5376 77.9117 46.3006 77.9117C43.8216 77.9117 41.8706 77.2264 40.4404 75.8703C39.0102 74.5069 38.2988 72.6257 38.2988 70.2343C38.2988 67.8283 39.0763 65.867 40.6385 64.3505C42.2007 62.8339 44.2763 62.0757 46.8727 62.0757C48.5082 62.0757 49.9457 62.3017 51.1926 62.7465V65.9837C50.0044 65.2983 48.5523 64.9556 46.8287 64.9556C45.3912 64.9556 44.2176 65.4223 43.3082 66.3482C42.3987 67.2815 41.9513 68.5209 41.9513 70.0739C41.9513 71.6488 42.3547 72.8664 43.1688 73.7267C43.983 74.5871 45.0831 75.0172 46.462 75.0172C47.2907 75.0172 47.9508 74.9006 48.4422 74.6672V71.678H45.3618V68.9219H51.9187V76.6212H51.9114Z" fill="#EFF3F5"/>
</svg>
