<svg width="65" height="91" viewBox="0 0 65 91" fill="none" xmlns="http://www.w3.org/2000/svg">
<path d="M36.0043 0.846128L35.9896 0.831543H2.58903C1.15883 0.831543 0 1.98352 0 3.40526V88.2578C0 89.6796 1.15883 90.8315 2.58903 90.8315H62.0853C63.5155 90.8315 64.6743 89.6796 64.6743 88.2578V29.3466H36.0116V0.846128H36.0043Z" fill="#EFF3F5"/>
<path d="M36.0039 29.3394H64.6665L36.0039 0.846191V29.3394Z" fill="#DBDFE0"/>
<path opacity="0.1" d="M64.6665 57.8398V29.3467V29.3394H36.0039L64.6665 57.8398Z" fill="#C2C2C2"/>
<rect y="59.1599" width="64.5423" height="22.6021" fill="#FFC35A"/>
<path d="M25.0394 65.5539H20.6461V78.0579H17.1623V65.5539H12.791V62.7468H25.0394V65.5539Z" fill="#EFF3F5"/>
<path d="M31.3047 62.7468V65.4153H30.0139V75.3894H31.3047V78.0579H25.2539V75.3894H26.5448V65.4153H25.2539V62.7468H31.3047Z" fill="#EFF3F5"/>
<path d="M41.8512 65.5539H36.4164V69.316H41.4111V72.1158H36.4164V78.0652H32.9473V62.7468H41.8512V65.5539Z" fill="#EFF3F5"/>
<path d="M52.7183 65.5539H47.2836V69.316H52.2783V72.1158H47.2836V78.0652H43.8145V62.7468H52.7183V65.5539Z" fill="#EFF3F5"/>
</svg>
