<svg width="66" height="90" viewBox="0 0 66 90" fill="none" xmlns="http://www.w3.org/2000/svg">
<path d="M36.6332 0.0145962L36.6186 0H3.21791C1.78771 0 0.628906 1.152 0.628906 2.57374V87.4263C0.628906 88.848 1.78771 90 3.21791 90H62.7142C64.1444 90 65.3032 88.848 65.3032 87.4263V28.5151H36.6406V0.0145962H36.6332Z" fill="#EFF3F5"/>
<path d="M36.6328 28.5079H65.2955L36.6328 0.0146484V28.5079Z" fill="#DBDFE0"/>
<path opacity="0.1" d="M65.2955 57.0085V28.5154V28.5081H36.6328L65.2955 57.0085Z" fill="#C2C2C2"/>
<rect x="0.65625" y="58.3281" width="64.5423" height="22.6021" fill="#0888FF"/>
<path d="M26.0277 64.7299H21.6344V77.2339H18.1506V64.7299H13.7793V61.9229H26.0277V64.7299Z" fill="#EFF3F5"/>
<path d="M40.0442 77.2339H35.9296L33.2746 72.2468C33.1719 72.0646 33.0692 71.7219 32.9665 71.2188H32.9225C32.8711 71.4522 32.7538 71.8094 32.5704 72.2833L29.9081 77.2266H25.7715L30.6782 69.5711L26.1895 61.9155H30.4141L32.6144 66.5088C32.7831 66.8734 32.9372 67.3036 33.0765 67.7994H33.1205C33.2085 67.5004 33.3699 67.0557 33.6046 66.4651L36.0543 61.9155H39.9195L35.2988 69.5054L40.0442 77.2339Z" fill="#EFF3F5"/>
<path d="M52.4788 64.7299H48.0856V77.2339H44.6018V64.7299H40.2305V61.9229H52.4788V64.7299Z" fill="#EFF3F5"/>
</svg>
