<svg width="65" height="90" viewBox="0 0 65 90" fill="none" xmlns="http://www.w3.org/2000/svg">
<path d="M36.0044 0.0145851L35.9897 0H2.58905C1.15885 0 0 1.15198 0 2.57372V87.4263C0 88.848 1.15885 90 2.58905 90H62.0853C63.5155 90 64.6743 88.848 64.6743 87.4263V28.5151H36.0117V0.0145851H36.0044Z" fill="#EFF3F5"/>
<path d="M36.0039 28.5078H64.6739L36.0039 0.0146484V28.5078Z" fill="#DBDFE0"/>
<path opacity="0.1" d="M64.3302 57.0083V28.5151L64.3228 28.5078H35.6602L64.3302 57.0083Z" fill="#C2C2C2"/>
<rect x="0.0351562" y="59.0566" width="64.5423" height="22.6021" fill="#37C49C"/>
<path d="M15.1567 71.9547V77.2334H11.6875V61.915H17.1223C21.0022 61.915 22.9458 63.5409 22.9458 66.7927C22.9458 68.3311 22.3883 69.5779 21.2735 70.5257C20.1587 71.4735 18.6698 71.9547 16.8069 71.9547H15.1567ZM15.1567 64.5617V69.3373H16.5209C18.3691 69.3373 19.2932 68.5353 19.2932 66.9239C19.2932 65.3491 18.3691 64.5617 16.5209 64.5617H15.1567Z" fill="#EFF3F5"/>
<path d="M38.4869 77.2334H34.9811L28.6296 67.6093C28.2555 67.0479 27.9988 66.625 27.8594 66.3407H27.8154C27.8741 66.8802 27.9034 67.7114 27.9034 68.8196V77.2334H24.625V61.915H28.3655L34.475 71.2402C34.7537 71.6631 35.0104 72.0787 35.2451 72.487H35.2891C35.2305 72.1297 35.2011 71.4297 35.2011 70.3798V61.9077H38.4796V77.2334H38.4869Z" fill="#EFF3F5"/>
<path d="M54.0891 76.2052C52.5856 77.0655 50.7153 77.4957 48.4784 77.4957C45.9994 77.4957 44.0484 76.8176 42.6182 75.4469C41.188 74.0835 40.4766 72.2024 40.4766 69.811C40.4766 67.4049 41.254 65.4437 42.8162 63.9272C44.3784 62.4106 46.4541 61.6523 49.0504 61.6523C50.686 61.6523 52.1235 61.8784 53.3704 62.3231V65.5603C52.1822 64.875 50.73 64.5323 49.0064 64.5323C47.5689 64.5323 46.3954 64.9989 45.4859 65.9249C44.5838 66.8508 44.1291 68.0976 44.1291 69.6433C44.1291 71.2181 44.5325 72.4357 45.3466 73.2961C46.1607 74.1564 47.2535 74.5866 48.6397 74.5866C49.4685 74.5866 50.1286 74.4699 50.62 74.2366V71.2473H47.5395V68.4913H54.0965V76.2052H54.0891Z" fill="#EFF3F5"/>
<rect x="9" y="61" width="46" height="19" fill="#37C49C"/>
<path d="M14.4247 62.2139L16.9806 67.3904L19.5366 62.2139H23.8324L19.4722 69.9358L23.9506 77.7861H19.6118L16.9806 72.5134L14.3495 77.7861H10L14.4891 69.9358L10.1181 62.2139H14.4247Z" fill="white"/>
<path d="M38.0571 74.8984V77.7861H30.1528V74.8984H38.0571ZM31.4952 62.2139V77.7861H27.7257V62.2139H31.4952Z" fill="white"/>
<path d="M50.2304 73.6471C50.2304 73.4046 50.1947 73.1872 50.1231 72.9947C50.0515 72.795 49.919 72.6096 49.7257 72.4385C49.5324 72.2674 49.2532 72.0963 48.888 71.9251C48.53 71.7469 48.0575 71.5615 47.4704 71.369C46.7831 71.1408 46.1208 70.8841 45.4836 70.5989C44.8464 70.3066 44.2772 69.9679 43.776 69.5829C43.2749 69.1907 42.8775 68.7344 42.584 68.2139C42.2904 67.6863 42.1436 67.0731 42.1436 66.3743C42.1436 65.7041 42.294 65.1016 42.5947 64.5668C42.8954 64.025 43.3142 63.5651 43.8512 63.1872C44.3953 62.8021 45.0326 62.5098 45.7628 62.3102C46.4931 62.1034 47.2914 62 48.1577 62C49.3033 62 50.3128 62.1996 51.1863 62.5989C52.0669 62.9911 52.7542 63.5508 53.2482 64.2781C53.7494 64.9982 54 65.8503 54 66.8342H50.2519C50.2519 66.4421 50.1696 66.0963 50.0049 65.7968C49.8474 65.4973 49.6076 65.262 49.2854 65.0909C48.9632 64.9198 48.5587 64.8342 48.0718 64.8342C47.5993 64.8342 47.2019 64.9055 46.8797 65.0481C46.5576 65.1907 46.3141 65.3832 46.1495 65.6257C45.9848 65.861 45.9024 66.1212 45.9024 66.4064C45.9024 66.6417 45.9669 66.8556 46.0958 67.0481C46.2318 67.2335 46.4215 67.4082 46.6649 67.5722C46.9155 67.7362 47.2162 67.893 47.5671 68.0428C47.925 68.1925 48.326 68.3387 48.7699 68.4813C49.6004 68.7451 50.3378 69.041 50.9822 69.369C51.6337 69.6898 52.1815 70.057 52.6254 70.4706C53.0764 70.877 53.4165 71.3405 53.6456 71.861C53.8819 72.3815 54 72.9697 54 73.6257C54 74.3244 53.864 74.9447 53.5919 75.4866C53.3198 76.0285 52.9296 76.4884 52.4213 76.8663C51.913 77.2371 51.3044 77.5187 50.5956 77.7112C49.8868 77.9037 49.0956 78 48.2222 78C47.4203 78 46.6292 77.9002 45.8488 77.7005C45.0755 77.4938 44.3739 77.18 43.7438 76.7594C43.1138 76.3316 42.609 75.7861 42.2296 75.123C41.8573 74.4528 41.6711 73.6578 41.6711 72.738H45.4514C45.4514 73.1943 45.5122 73.5793 45.634 73.893C45.7557 74.2068 45.9347 74.4599 46.1709 74.6524C46.4072 74.8378 46.6972 74.9733 47.0408 75.0588C47.3845 75.1373 47.7783 75.1765 48.2222 75.1765C48.7019 75.1765 49.0885 75.1087 49.382 74.9733C49.6756 74.8307 49.8904 74.6453 50.0264 74.4171C50.1624 74.1818 50.2304 73.9251 50.2304 73.6471Z" fill="white"/>
</svg>
