<svg width="65" height="91" viewBox="0 0 65 91" fill="none" xmlns="http://www.w3.org/2000/svg">
<path d="M36.0043 0.0629361L35.9896 0.0483398H2.58905C1.15885 0.0483398 0 1.20034 0 2.62208V87.4746C0 88.8964 1.15885 90.0483 2.58905 90.0483H62.0853C63.5155 90.0483 64.6743 88.8964 64.6743 87.4746V28.5634H36.0116V0.0629361H36.0043Z" fill="#EFF3F5"/>
<path d="M36.0039 28.5564H64.6665L36.0039 0.0632324V28.5564Z" fill="#DBDFE0"/>
<path opacity="0.1" d="M64.6739 57.0569V28.5637L64.6665 28.5564H36.0039L64.6739 57.0569Z" fill="#C2C2C2"/>
<rect x="0.107422" y="57.6477" width="64.5423" height="22.6021" fill="#F7984B"/>
<path d="M29.0913 77.2825H16.6816V75.2993L24.5808 64.7784H17.2537V61.9714H29.0694V63.9035L21.3463 74.4901H29.0913V77.2825Z" fill="#EFF3F5"/>
<path d="M35.5469 61.9639V64.6324H34.2561V74.6064H35.5469V77.2749H29.4961V74.6064H30.7869V64.6324H29.4961V61.9639H35.5469Z" fill="#EFF3F5"/>
<path d="M40.6586 72.0035V77.2822H37.1895V61.9639H42.6242C46.5041 61.9639 48.4477 63.5898 48.4477 66.8415C48.4477 68.3799 47.8903 69.6267 46.7755 70.5745C45.6607 71.5224 44.1717 72.0035 42.3088 72.0035H40.6586ZM40.6586 64.6178V69.3934H42.0228C43.871 69.3934 44.7952 68.5914 44.7952 66.9801C44.7952 65.4052 43.871 64.6178 42.0228 64.6178H40.6586Z" fill="#EFF3F5"/>
</svg>
