<svg width="24" height="24" viewBox="0 0 24 24" fill="none" xmlns="http://www.w3.org/2000/svg">
  <path d="M7.36731 17.5408C7.36731 16.6642 7.36731 15.838 7.36731 15.0189C7.36731 14.8608 7.36013 14.7099 7.3745 14.5519C7.41042 14.0202 7.63315 13.7975 8.17202 13.7975C9.84611 13.7975 11.5274 13.8046 13.2015 13.8046C13.3308 13.8046 13.4601 13.8046 13.6254 13.8046C13.6254 13.0071 13.6326 12.2311 13.6254 11.4624C13.6182 10.7798 13.5966 10.0972 13.5895 9.41465C13.5823 8.76082 13.8194 8.52372 14.466 8.52372C15.2061 8.52372 15.9461 8.52372 16.7221 8.52372C16.7221 7.65434 16.7221 6.7706 16.7221 5.88685C16.7149 4.27024 16.7005 2.65363 16.6934 1.03702C16.6934 0.929248 16.7005 0.821474 16.7077 0.7137C16.7652 0.20357 17.0095 -0.0263484 17.4621 0.00239129C17.8573 0.031131 18.0944 0.325713 18.1016 0.792733C18.1016 0.850213 18.1016 0.907693 18.1016 1.01547C18.3171 1.01547 18.5111 1.01547 18.7123 1.01547C20.1277 1.00828 21.536 1.0011 22.9514 0.993912C23.3394 0.993912 23.7633 0.979542 23.9358 1.41064C24.1154 1.84173 23.8783 2.1938 23.5837 2.50275C23.2891 2.80451 23.0089 3.11347 22.7071 3.40805C22.5419 3.5733 22.5491 3.717 22.7 3.86788C22.9945 4.15528 23.2819 4.44268 23.5981 4.70852C23.9142 4.98155 24.0651 5.31924 23.9717 5.64975C23.8783 5.98744 23.6196 6.15269 23.1167 6.15269C21.6222 6.15269 20.1278 6.13114 18.6261 6.12395C18.4608 6.12395 18.2956 6.12395 18.1088 6.12395C18.1088 6.93585 18.1088 7.71901 18.1088 8.53809C18.6908 8.53809 19.2871 8.53809 19.8763 8.53809C20.0918 8.53809 20.3074 8.51654 20.5229 8.51654C20.9468 8.50935 21.227 8.74645 21.2773 9.16318C21.2989 9.30688 21.2989 9.45058 21.2989 9.59428C21.2989 13.2442 21.2989 16.8942 21.2989 20.5513C21.2989 21.1045 21.2917 21.6506 21.2845 22.2038C21.2773 22.8146 21.0762 23.0157 20.4511 23.0157C19.4955 23.0229 18.5327 23.0229 17.5771 23.0229C13.6829 23.0301 9.79582 23.0301 5.90159 23.0301C4.69452 23.0301 3.48026 23.0445 2.2732 23.0445C2.0792 23.0445 1.88521 23.0373 1.70558 23.0014C1.38945 22.9295 1.20264 22.7283 1.19546 22.3978C1.1739 21.0471 1.15234 19.6963 1.15234 18.3383C1.15234 17.821 1.48285 17.548 2.05765 17.548C3.68863 17.548 5.31242 17.548 6.9434 17.548C7.07992 17.5408 7.20924 17.5408 7.36731 17.5408ZM14.9546 9.8673C14.9546 13.8046 14.9546 17.7132 14.9546 21.6147C16.6287 21.6147 18.274 21.6147 19.9338 21.6147C19.9338 17.6917 19.9338 13.7903 19.9338 9.8673C18.2668 9.8673 16.6215 9.8673 14.9546 9.8673ZM13.6038 21.6147C13.6038 19.452 13.6038 17.3253 13.6038 15.1985C11.9729 15.1985 10.3634 15.1985 8.76119 15.1985C8.76119 17.354 8.76119 19.4736 8.76119 21.6147C10.385 21.6147 11.98 21.6147 13.6038 21.6147ZM2.59652 18.9203C2.59652 19.84 2.59652 20.7237 2.59652 21.6075C4.20594 21.6075 5.78663 21.6075 7.36013 21.6075C7.36013 20.7022 7.36013 19.8184 7.36013 18.9203C5.76507 18.9203 4.19157 18.9203 2.59652 18.9203ZM18.1016 4.71571C19.2727 4.71571 20.408 4.71571 21.5935 4.71571C21.457 4.55045 21.3564 4.43549 21.2558 4.32054C20.7457 3.73856 20.7457 3.53019 21.263 2.94103C21.4067 2.77578 21.5432 2.61052 21.7156 2.40216C20.4726 2.40216 19.2943 2.40216 18.1016 2.40216C18.1016 3.18532 18.1016 3.94692 18.1016 4.71571Z" fill="#454E57"/>
  <path d="M11.8662 4.94545C11.1477 6.46147 10.1921 7.7835 9.09996 9.01212C7.20314 11.1604 4.94706 12.8273 2.33893 14.0057C2.12339 14.0991 1.87192 14.1853 1.64918 14.1565C1.43363 14.1278 1.15342 13.9841 1.05283 13.8045C0.95943 13.6392 0.995352 13.3087 1.1175 13.1578C1.28993 12.9351 1.56296 12.7555 1.82881 12.6405C4.79618 11.3472 7.20313 9.357 9.11433 6.76324C9.66757 6.01601 10.1202 5.20411 10.616 4.41377C10.5944 4.38503 10.5729 4.35629 10.5441 4.32755C10.2783 4.36347 10.0196 4.39221 9.75379 4.43532C9.32269 4.49999 8.89878 4.29162 8.81975 3.96112C8.73353 3.61624 8.99218 3.17796 9.41609 3.05581C9.96933 2.90493 10.5298 2.78997 11.0974 2.67501C12.247 2.43791 12.3116 2.47384 12.8433 3.53721C13.066 3.97549 13.2888 4.40658 13.5115 4.84486C13.569 4.95982 13.6408 5.07478 13.6768 5.20411C13.7989 5.5921 13.6193 6.02319 13.3031 6.15971C13.0014 6.28903 12.5918 6.12378 12.3907 5.78609C12.247 5.5418 12.1176 5.28314 11.9739 5.03886C11.9667 4.99575 11.9308 4.98138 11.8662 4.94545Z" fill="#454E57"/>
</svg>
