<svg width="24" height="24" viewBox="0 0 24 14" fill="none" xmlns="http://www.w3.org/2000/svg">
  <path
    d="M11.3933 8.75C9.12421 8.75 4.60547 9.92 4.60547 12.25V14H18.1812V12.25C18.1812 9.92 13.6624 8.75 11.3933 8.75ZM6.87459 12C7.68914 11.42 9.65754 10.75 11.3933 10.75C13.1291 10.75 15.0976 11.42 15.9121 12H6.87459ZM11.3933 7C13.2648 7 14.7873 5.43 14.7873 3.5C14.7873 1.57 13.2648 0 11.3933 0C9.52179 0 7.99936 1.57 7.99936 3.5C7.99936 5.43 9.52179 7 11.3933 7ZM11.3933 2C12.1982 2 12.8479 2.67 12.8479 3.5C12.8479 4.33 12.1982 5 11.3933 5C10.5885 5 9.93876 4.33 9.93876 3.5C9.93876 2.67 10.5885 2 11.3933 2ZM18.22 8.81C19.3449 9.65 20.1206 10.77 20.1206 12.25V14H23.9994V12.25C23.9994 10.23 20.6055 9.08 18.22 8.81ZM17.2115 7C19.083 7 20.6054 5.43 20.6054 3.5C20.6054 1.57 19.083 0 17.2115 0C16.6879 0 16.203 0.130006 15.757 0.350006C16.3679 1.24001 16.7267 2.33 16.7267 3.5C16.7267 4.67 16.3679 5.76001 15.757 6.65001C16.203 6.87001 16.6879 7 17.2115 7Z"
    fill="#454E57" />
  <path d="M6.18663 4.75977L7.27269 6.15977L2.68609 10.9498L0 7.94977L1.14424 6.76978L2.68609 8.36977L6.18663 4.75977Z"
    fill="#454E57" />
</svg>