<svg width="208" height="170" viewBox="0 0 208 170" fill="none" xmlns="http://www.w3.org/2000/svg">
  <g clip-path="url(#clip0_6859_98300)">
    <path d="M197.919 108.639C197.792 109.289 197.387 110.011 196.855 110.462C196.471 110.789 195.249 111.45 195.109 110.515C195.07 110.254 195.347 109.045 195.449 108.795C195.75 108.066 196.071 108.543 196.556 108.639C197.054 108.737 197.522 108.27 197.919 108.639Z" fill="#375A64"/>
    <path d="M194.597 32.9006C194.77 33.5253 194.889 34.1411 195.024 34.7239C194.554 35.4381 193.626 35.1739 192.938 35.5564C192.614 35.7367 192.525 36.3945 192.213 36.4941C191.963 36.5743 191.769 36.2282 191.532 36.2337C190.921 36.2482 190.622 37.4857 189.871 37.1715C189.442 37.4845 189.888 38.6839 189.36 38.7852C188.985 38.8577 188.778 38.2644 188.55 37.9001C188.275 37.4582 187.881 37.216 187.87 36.858C187.859 36.4869 188.481 35.866 188.678 35.6086C188.92 35.2918 189.395 34.701 189.7 34.6183C190.267 34.4656 190.844 34.6853 191.276 34.463C191.649 34.2684 191.671 33.5499 191.872 33.3688C192.043 33.2149 192.238 33.2569 192.384 33.161C192.779 32.8993 193.206 31.9981 192.98 31.0773C192.838 30.4959 192.05 29.8593 192.555 29.1489C193.309 29.2477 194.304 30.1566 194.428 31.0773C194.477 31.4366 194.314 31.7958 194.342 32.1707C194.357 32.3861 194.521 32.6177 194.597 32.9006Z" fill="#375A64"/>
    <path d="M194.768 27.2221C194.672 27.4876 194.48 27.4325 194.3 27.5864C194.126 27.7366 193.919 28.2141 193.704 28.2642C193.362 28.343 192.978 27.8536 192.638 27.9524C192.24 28.0682 192.473 28.4431 192.34 28.8889C191.991 28.7981 191.418 28.3218 191.404 27.8472C191.394 27.5487 191.711 27.3646 191.788 27.0147C191.914 26.4188 191.587 26.119 191.404 25.5557C191.391 25.4718 191.444 25.4663 191.446 25.3992C191.862 25.2928 192.679 26.2517 193.618 26.4409C194.225 26.563 194.733 26.4973 194.768 27.2221Z" fill="#375A64"/>
    <path d="M193.194 80.0946C193.237 80.5276 192.62 80.4772 192.555 80.1973C192.567 79.8618 193.117 79.7566 193.194 80.0946Z" fill="#375A64"/>
    <path d="M190.212 22.8469C190.633 23.1192 191.655 23.7375 190.935 24.3059C190.5 24.1086 190.046 23.4347 190.212 22.8469Z" fill="#375A64"/>
    <path d="M188.254 77.8031C188.741 77.4782 189.273 76.7653 190.127 77.1241C189.94 77.7726 189.298 77.7594 188.892 78.0623C188.482 78.3685 188.134 78.888 187.615 78.9474C187.575 78.8549 187.519 78.7854 187.444 78.7383C187.442 78.1568 187.916 78.0241 188.254 77.8031Z" fill="#375A64"/>
    <path d="M187.104 68.0085C187.604 68.0098 188.075 67.8202 188.422 68.0611C188.358 69.3636 186.706 68.3733 185.614 68.5824C185.38 68.6261 185.311 68.8466 185.059 68.7372C185.073 68.2969 185.462 67.8512 185.868 67.8007C186.18 67.7613 186.647 68.0073 187.104 68.0085Z" fill="#375A64"/>
    <path d="M187.529 69.6227C187.577 70.3437 186.772 70.4235 186.549 70.9791C186.902 71.6407 187.04 72.5653 187.444 73.165C187.427 73.5624 187.509 74.0819 187.315 74.2592C186.458 74.4602 185.997 72.5759 185.654 71.9164C184.999 72.0665 185.597 74.6303 184.719 74.3122C184.287 74.1553 184.724 73.4228 184.633 72.8545C184.553 72.3545 184.153 72.2518 184.122 71.8625C184.097 71.5414 184.411 71.2009 184.505 70.8734C184.64 70.401 184.554 69.4921 185.016 69.4683C185.243 69.4556 185.549 70.0541 185.697 70.0922C186.206 70.2262 186.81 69.4582 187.529 69.6227Z" fill="#375A64"/>
    <path d="M185.953 77.3849C185.796 77.7794 184.92 77.5898 184.847 77.228C184.995 76.8179 185.879 76.9413 185.953 77.3849Z" fill="#375A64"/>
    <path d="M185.143 78.6344C185.094 78.712 185.037 78.782 184.975 78.8439C184.651 78.7171 184.305 78.6212 184.208 78.2187C184.447 77.79 185.133 78.1449 185.143 78.6344Z" fill="#375A64"/>
    <path d="M183.994 77.3319C183.778 77.7073 183.029 77.3018 182.76 77.6962C182.316 77.6831 181.871 77.6763 181.78 77.228C181.908 76.8467 182.311 77.1084 182.631 77.0719C183.146 77.0151 183.857 76.5732 183.994 77.3319Z" fill="#375A64"/>
    <path d="M177.99 97.2828C177.987 96.8226 177.752 96.4176 177.691 95.9294C177.67 95.753 177.713 95.5252 177.691 95.303C177.663 94.9807 177.533 94.7126 177.563 94.5218C177.623 94.1774 177.951 94.1405 178.033 93.8449C178.167 93.3593 177.87 93.2817 177.862 92.6989C177.857 92.2875 178.117 92.0873 178.289 91.553C178.368 91.3057 178.371 90.8438 178.458 90.6678C178.569 90.446 179.04 90.2577 179.225 90.1483C179.878 89.7564 180.401 89.0278 181.057 88.8971C181.223 88.8645 181.449 88.9226 181.568 88.8971C181.954 88.8144 182.439 88.4187 182.973 88.2724C183.49 88.1291 183.947 88.1829 184.336 87.9064C184.764 87.6053 185.368 86.816 185.528 86.344C185.722 85.7718 185.665 85.2892 186.039 85.0941C186.223 84.9995 186.402 85.1021 186.593 85.0428C186.79 84.9796 187.213 84.7336 187.359 84.5737C187.657 84.2488 187.705 83.7161 188.041 83.3756C188.274 83.141 188.711 82.7793 189.021 82.5956C189.203 82.4836 189.54 82.3679 189.701 82.3861C190.302 82.4489 190.582 83.4744 191.234 83.2712C191.468 83.1991 191.706 82.5926 191.917 82.2296C192.224 81.6982 192.447 80.9827 192.981 80.8237C193.412 80.6943 193.894 81.026 194.131 80.5628C194.184 80.2337 193.929 80.0382 194.131 79.8329C194.628 79.8711 195.466 80.6901 196.217 80.7176C196.621 80.7337 197.372 80.1786 197.453 80.9271C197.488 81.2584 197.15 81.5256 197.07 81.8649C197.013 82.1041 197.153 82.2334 197.027 82.49C196.68 82.6571 196.314 82.7449 196.303 83.2186C196.29 83.8133 196.99 84.0919 197.409 84.418C197.698 84.6403 197.937 84.9809 198.091 85.0941C198.222 85.1887 198.43 85.2336 198.517 85.3019C198.794 85.5216 198.989 86.0191 199.37 86.0322C199.802 86.045 200.234 85.3702 200.476 84.7281C200.76 83.9782 200.775 83.0681 200.901 82.2805C200.944 82.0171 201.097 81.7605 201.157 81.4993C201.322 80.7872 201.544 79.8244 202.051 79.5721C202.559 80.2307 202.733 81.5124 202.648 82.5952C202.988 82.9107 203.586 82.8056 203.669 83.5329C203.698 83.784 203.567 84.105 203.584 84.3646C203.613 84.8036 203.88 85.1878 203.926 85.5627C204.011 86.257 203.832 86.8296 204.095 87.3343C204.427 87.9713 205.079 87.9501 205.501 88.6384C205.493 89.0655 205.632 89.2381 205.713 89.5736C205.753 89.7331 205.716 89.9922 205.757 90.0961C205.893 90.4443 206.262 90.4787 206.395 90.7717C206.461 90.9164 206.443 91.1891 206.523 91.449C206.64 91.8316 206.92 92.117 207.119 92.4911C207.312 92.8529 207.627 93.2465 207.673 93.534C207.759 94.0527 207.451 94.4085 207.374 94.8352C207.283 95.353 207.374 96.0215 207.206 96.5542C207.008 97.1801 206.52 97.7972 206.14 98.5852C205.828 99.2333 205.403 99.9636 204.947 100.408C204.678 100.671 204.359 100.824 204.095 101.087C203.688 101.493 203.353 102.021 202.989 102.493C202.605 102.988 202.141 103.367 201.838 103.793C201.401 104.413 201.183 105.413 200.434 105.513C199.995 105.572 199.601 105.525 199.198 105.722C198.568 106.028 198.15 106.593 197.837 106.607C197.508 106.62 197.203 106.135 196.899 106.086C196.558 106.032 196.29 106.402 195.792 106.398C195.589 106.397 195.487 106.25 195.197 106.137C194.588 105.902 193.919 105.911 193.834 105.097C193.786 104.652 194.065 104.452 194.046 104.054C194.027 103.656 193.709 103.557 193.577 103.221C193.661 102.862 193.674 102.409 193.364 102.178C193.354 101.854 193.421 101.623 193.535 101.449C193.288 101.578 192.962 101.658 192.682 101.867C192.372 102.096 192.148 102.622 191.79 102.544C191.453 102.399 191.711 101.99 191.662 101.658C191.624 101.406 191.153 100.328 190.937 100.148C190.691 99.9416 189.79 99.5276 189.49 99.4695C188.174 99.218 187.335 100.079 186.295 100.201C186.028 100.231 185.738 100.146 185.487 100.201C184.631 100.384 183.677 101.215 183.144 101.763C182.263 101.869 181.37 101.542 180.461 101.868C179.558 102.19 179.042 103.11 177.652 102.856C177.376 102.566 176.887 102.423 176.885 101.919C176.881 101.521 177.366 101.265 177.523 100.981C177.691 100.677 177.978 99.9615 177.991 99.5221C178 99.176 177.801 98.7621 177.82 98.3253C177.835 97.9851 177.993 97.6212 177.99 97.2828Z" fill="#375A64"/>
    <path d="M177.266 75.5616C177.499 75.5222 177.672 75.3123 177.905 75.3029C178.401 75.2792 178.892 75.7512 179.479 75.6655C179.607 75.8343 179.52 75.9739 179.523 76.2406C180.021 76.5655 180.838 76.5061 181.098 77.1245C180.725 77.6084 180.171 77.2611 179.693 77.1758C179.26 77.1008 178.8 77.1377 178.33 77.0719C177.734 76.9875 177.195 76.585 176.628 76.4998C176.282 76.4472 175.93 76.56 175.605 76.4998C175.222 76.4273 173.794 75.7682 173.774 75.3029C173.753 74.8228 174.417 74.6871 175.008 74.7804C175.773 74.9026 176.284 75.7292 177.266 75.5616Z" fill="#375A64"/>
    <path d="M178.415 71.9681C178.093 71.8574 177.791 71.9181 177.65 71.8112C177.359 71.5919 177.402 70.968 177.308 70.6131C177.214 70.2538 176.861 70.0621 176.671 69.5714C176.393 68.861 176.274 67.2706 177.01 67.1234C177.307 67.0628 177.612 67.3419 177.819 67.2799C178.23 67.1561 178.158 66.5063 178.501 66.2366C178.691 66.0865 179.04 66.1497 179.31 66.0288C179.589 65.9037 179.799 65.5792 179.991 65.2997C180.17 65.0397 180.309 64.6029 180.545 64.415C180.809 64.2013 181.055 64.1966 181.268 63.9977C181.827 63.4769 181.845 62.7504 182.29 62.1218C182.669 61.5904 183.267 62.6337 183.313 63.06C183.525 63.3912 183.941 63.4726 184.122 63.8412C183.871 64.7577 183.164 64.837 183.313 66.1327C183.338 66.3443 183.455 66.7366 183.569 67.0191C183.691 67.324 184.051 67.6532 184.037 67.8516C184.009 68.241 183.368 68.224 183.227 68.6329C183.098 69.0116 183.237 69.0366 183.185 69.6219C183.006 70.0469 182.525 70.1491 182.375 70.6652C182.195 71.2844 182.402 72.0856 181.993 72.5411C181.709 72.5224 181.4 72.8409 181.057 72.7998C180.684 72.7582 180.328 72.1314 179.735 72.1221C179.509 72.1199 179.243 72.2989 179.011 72.2786C178.83 72.2637 178.683 72.0589 178.415 71.9681Z" fill="#375A64"/>
    <path d="M175.66 70.809C176.743 70.809 176.743 72.8655 175.66 72.8655C174.576 72.8655 174.576 70.809 175.66 70.809Z" fill="#375A64"/>
    <path d="M174.071 70.5604C174.204 70.5825 174.676 71.3841 174.668 71.6033C174.653 71.9706 174.202 71.9507 174.071 72.4363C173.871 73.1849 174.162 74.0327 173.816 74.4169C173.623 74.5603 173.273 74.5174 172.965 74.52C172.192 73.8554 171.581 73.0636 170.92 72.1759C170.68 71.8536 170.388 71.5732 170.238 71.2377C170.017 70.7407 169.938 70.1936 169.686 69.7279C169.462 69.319 169.052 69.0268 168.833 68.5824C168.655 68.2163 168.638 67.7362 168.451 67.3838C168.275 67.0568 167.978 66.916 167.768 66.6539C167.633 66.483 167.555 66.2162 167.429 66.0292C166.893 65.245 165.864 64.8361 165.812 63.6851C166.03 63.3801 166.255 63.7996 166.662 63.8942C166.926 63.9548 167.238 63.8679 167.429 63.9459C167.816 64.105 168.082 64.8442 168.493 65.2479C168.723 65.4744 169.024 65.6305 169.259 65.8727C169.511 66.1318 169.696 66.5029 169.898 66.6539C170.175 66.8617 170.559 66.9983 170.92 67.2803C171.412 67.6629 172.291 68.0611 172.411 68.844C172.44 69.0374 172.336 69.3661 172.367 69.5188C172.426 69.7924 172.709 69.9107 172.878 70.1439C173.088 70.4345 173.131 70.8683 173.432 70.926C173.732 71.0287 173.746 70.5091 174.071 70.5604Z" fill="#375A64"/>
    <path d="M153.971 59.6216C154.338 59.7688 155.562 61.5878 155.206 62.5917C155.105 62.8772 154.683 63.2444 154.269 63.1639C153.426 63.0006 153.587 60.7057 153.843 59.7777C153.867 59.7031 153.911 59.6505 153.971 59.6216Z" fill="#375A64"/>
    <path d="M125.652 85.9809C125.69 85.5615 125.934 84.8731 126.206 84.6246C126.599 84.2679 127.13 84.3048 127.526 84.0525C127.853 83.8434 128.306 83.4973 128.548 83.1147C128.753 82.7899 128.764 82.4192 128.932 82.1766C129.046 82.0095 129.304 81.965 129.442 81.761C129.565 81.5769 129.539 81.235 129.741 81.0323C130.332 80.7227 130.502 82.0477 130.594 82.9578C130.62 83.242 130.741 83.5461 130.719 83.6869C130.658 84.1025 130.284 84.1882 130.167 84.4711C130.137 85.6124 129.771 86.6044 129.442 87.5421C129.159 88.353 128.995 89.2407 128.761 89.9392C128.676 90.1932 128.498 90.3917 128.421 90.6152C128.114 91.5016 128.001 92.8936 127.441 93.2723C127.24 93.4076 126.462 93.6405 126.248 93.6367C125.727 93.6273 125.275 93.1485 125.142 92.5959C125.07 92.2998 125.141 91.9907 125.099 91.6577C125.047 91.2395 124.844 90.8829 124.886 90.407C124.981 89.3467 125.825 88.8322 125.866 87.959C125.897 87.3016 125.593 86.648 125.652 85.9809Z" fill="#375A64"/>
    <path d="M105.127 11.8555C105.176 12.7288 104.035 12.6198 103.891 13.3666C103.826 13.7046 104.024 14.1559 103.977 14.46C103.89 15.0071 103.458 14.8481 102.912 15.1373C102.634 15.2849 102.364 15.8265 102.061 15.8659C101.78 15.9028 101.609 15.6658 101.422 15.7107C101.143 15.7752 101.236 16.1946 100.825 16.2829C100.498 16.3524 99.9264 15.9249 99.8885 16.4394C99.864 16.7693 100.403 16.9483 100.74 16.9076C101.008 16.8762 101.204 16.651 101.464 16.6472C101.968 16.6417 102.297 17.1048 102.614 17.1167C103.345 17.1417 104.062 16.2905 104.829 16.3868C105.175 16.43 105.381 16.7299 105.638 16.6998C106.048 16.6523 106.398 16.0721 106.702 15.8659C106.573 14.9889 106.714 13.831 107.384 13.7823C107.844 13.7496 108.535 14.745 108.618 13.7823C108.655 13.3641 108.255 12.9942 107.98 13.001C107.735 13.0074 107.413 13.5944 107.213 13.1062C107.215 12.6287 107.652 12.7551 107.895 12.6367C108.076 12.5485 108.204 12.308 108.406 12.2198C109.419 11.7847 110.823 12.6473 111.216 11.5951C110.318 10.6574 108.788 11.9369 107.767 11.8555C107.332 11.8211 106.757 11.4254 106.618 10.9178C106.573 10.7575 106.61 10.5416 106.575 10.2417C106.536 9.90923 106.395 9.5606 106.405 9.35533C106.448 8.41464 108.363 8.23736 108.363 7.06425C107.997 6.63547 106.925 6.70757 106.575 7.16816C106.449 7.33399 106.455 7.66904 106.277 8.00198C105.895 8.71364 104.662 8.79762 104.275 9.66833C104.189 9.86173 104.04 10.3906 104.105 10.71C104.205 11.2032 105.097 11.3372 105.127 11.8555ZM94.9909 62.7995C93.764 62.5798 92.5088 63.1851 91.6689 63.6321C91.184 63.8912 90.6903 64.2861 90.2637 64.3098C89.8592 64.334 89.4613 64.0469 89.0722 63.9981C88.5648 63.9336 87.914 63.993 87.4108 64.102C86.9217 64.2085 86.4797 64.636 86.0481 64.6741C85.2219 64.7505 84.437 63.764 83.9188 63.2682C83.6018 62.9658 83.2789 62.7181 82.9823 62.4352C82.664 62.1303 82.2511 61.9458 82.0028 61.654C81.6675 61.257 81.6674 60.5661 81.4921 60.039C81.2846 59.4181 80.6534 58.9617 80.1718 58.3722C79.8115 57.9315 78.9845 57.2729 78.8941 56.7058C78.8487 56.4162 78.9953 56.0824 78.9791 55.7681C78.9566 55.3113 78.6758 55.0526 78.6812 54.7261C78.69 54.2684 79.1307 53.9143 79.2349 53.5279C79.2886 53.3307 79.2628 53.0516 79.3199 52.7993C79.4394 52.2704 79.7257 51.9574 79.6611 51.1843C79.6353 50.8764 79.419 50.5947 79.4053 50.1952C79.3965 49.9217 79.5523 49.769 79.5332 49.5179C79.5007 49.0734 79.0287 48.9865 78.9791 48.4763C78.9295 47.9487 79.3911 47.5131 79.6611 46.9134C79.7827 46.6449 79.8494 46.2331 79.959 46.0283C80.1977 45.5851 80.5872 45.3705 80.7688 44.9341C80.9021 44.6117 80.9451 44.1342 81.0667 43.8924C81.2238 43.582 81.5354 43.4149 81.8333 43.0073C82.0753 42.6744 82.174 42.2719 82.344 42.1222C82.5582 41.9326 82.8777 41.8868 83.111 41.7578C83.8992 41.3185 84.4758 40.7527 84.8566 39.8294C84.7403 38.9918 84.9157 38.6376 85.1974 38.0591C85.4577 37.5239 85.6481 37.012 86.0922 36.7041C86.6246 36.3359 87.1246 36.3016 87.4966 35.6111C87.6828 35.2655 87.9624 34.6679 87.9657 34.3091C87.9699 33.7934 87.5333 33.133 87.1566 33.0579C86.7717 32.9833 86.1801 33.4159 85.9643 32.9027C85.8956 32.7382 85.9902 32.3543 85.9643 32.1728C85.9152 31.8318 85.676 31.5913 85.6665 31.3398C85.646 30.8504 86.0597 30.3415 86.1772 29.7774C86.3368 29.0089 86.1826 28.4215 86.1343 27.5372C86.73 26.3887 88.0528 26.9583 89.3713 27.0677C89.5692 27.0847 89.7958 27.0096 90.01 27.0164C90.7919 27.0385 91.4069 27.3269 91.6701 26.4952C91.7693 26.1822 91.8576 25.018 91.798 24.7236C91.7281 24.375 91.169 23.4712 90.9032 23.2659C90.4808 22.9368 89.8675 23.0802 89.6259 22.4847C89.8225 21.4562 90.7645 22.3125 91.3294 22.0678C91.6177 21.9427 91.5852 21.3324 91.8414 21.2336C92.0155 21.1666 92.238 21.4482 92.48 21.4427C92.6862 21.4376 93.4341 20.9782 93.6294 20.8162C93.9015 20.5915 93.9852 20.1245 94.2252 19.9311C94.3877 19.8009 94.6014 19.8166 94.7789 19.7233C95.1413 19.5324 95.5996 19.1448 95.8433 18.7856C96.1949 18.2698 96.3532 17.6307 96.7798 17.5361C97.351 17.4085 98.6425 17.6744 98.7391 16.9101C98.8304 16.1828 98.2154 15.6106 98.4412 14.8264C98.62 14.2068 99.0745 14.3162 99.719 13.9413C100.03 14.211 99.9394 14.9817 99.9739 15.4524C100.37 15.4562 101.175 15.3091 101.251 14.879C101.347 14.3425 100.675 13.7963 100.528 13.4727C100.368 13.1215 100.334 12.5044 100.017 12.431C99.3686 12.2783 98.7383 13.5244 97.9297 13.5244C97.3985 13.5244 96.8348 13.0231 96.6948 12.5349C96.6153 12.2563 96.6873 11.9929 96.6519 11.7011C96.6003 11.2749 96.3915 10.833 96.482 10.2434C96.8077 9.55933 97.5593 9.44906 98.1005 9.09662C98.305 8.96387 98.4692 8.67971 98.6962 8.5758C99.0782 8.40319 99.6423 8.57708 100.017 8.31497C100.253 8.15084 100.187 7.86626 100.358 7.53375C100.464 7.32466 100.724 7.20251 100.868 6.96162C100.968 6.79451 100.98 6.54174 101.081 6.38821C101.451 5.82541 102.127 5.61759 102.401 5.03443C102.522 4.77657 102.191 4.68072 102.274 4.30452C102.411 3.94148 102.943 4.20825 103.253 4.14803C103.676 4.06787 104.068 3.43763 104.53 3.31548C105.013 3.18782 105.53 3.26544 105.978 3.05508C106.246 2.92869 106.493 2.63139 106.745 2.58558C106.835 2.56989 107.086 2.64496 107.213 2.63817C107.375 2.63054 107.551 2.50797 107.767 2.48167C108.08 2.4435 108.468 2.57498 108.875 2.58558C109.548 2.60382 110.188 2.33832 110.748 2.63817C111.041 2.79467 111.008 3.20097 111.386 3.3668C111.577 3.45078 111.828 3.33415 112.11 3.3668C112.528 3.41558 112.963 3.76802 113.516 3.8363C113.712 3.86005 113.916 3.80619 114.111 3.8363C114.72 3.92706 115.389 4.31894 115.986 4.56493C116.485 4.77148 117.542 5.02807 117.561 5.60656C117.585 6.29193 116.642 6.49169 116.241 6.49169C115.571 6.49169 114.684 6.01287 113.985 6.28388C113.996 7.4625 115.035 8.35441 115.987 8.21106C116.07 7.65717 115.449 7.96508 115.517 7.42984C115.942 7.03796 116.451 7.69279 117.051 7.58634C117.285 7.50873 117.246 7.09437 117.306 6.80512C117.812 6.42893 118.446 5.87673 119.222 6.2843C119.26 6.19227 119.317 6.12229 119.393 6.07648C119.443 5.50435 118.882 5.20577 119.18 4.66927C119.328 4.29986 120.122 4.42752 120.244 4.72186C120.306 5.0743 120.048 5.03613 120.073 5.34658C120.224 5.76221 120.571 5.82795 120.755 5.81608C121.174 5.78851 121.256 5.33089 121.65 5.08617C121.809 4.98735 122.042 4.97718 122.246 4.87836C122.487 4.7613 122.691 4.52464 122.885 4.46145C123.027 4.41564 123.241 4.46145 123.438 4.40886C123.69 4.34312 123.955 4.09586 124.162 4.09713C124.419 4.09713 124.603 4.46018 124.929 4.51404C125.106 4.54288 125.308 4.3902 125.567 4.35754C125.776 4.32997 125.992 4.38765 126.163 4.35754C126.57 4.28502 126.85 4.02334 127.186 4.04454C127.424 4.06023 127.831 4.45212 127.994 4.25363C128.27 3.91943 127.627 3.67089 127.826 3.36723C128.478 3.42745 129.172 3.40922 129.827 3.52373C130.8 3.69337 131.716 4.28289 132.594 4.30495C132.511 3.58141 131.833 3.78922 131.529 3.47241C131.437 3.37486 131.056 2.6123 131.061 2.37819C131.064 2.26113 131.543 1.25852 131.658 1.12832C132.033 0.696989 133.264 0.699532 133.616 1.28354C133.856 1.68348 133.777 2.28573 134.126 2.27385C134.428 2.26325 134.588 1.35819 134.936 1.33613C135.225 1.31789 135.371 1.91632 135.66 1.90954C136.013 1.90063 136.258 1.09651 136.725 1.07572C136.976 1.06385 137.06 1.2335 137.448 1.28354C137.715 1.07403 137.359 0.797928 137.491 0.502319C137.968 0.0786262 139.055 0.400956 139.663 0.138004C139.833 -0.109257 139.446 -0.284417 139.621 -0.539311C140.146 -0.987602 141.027 -1.02874 141.921 -1.21535C142.467 -1.32987 142.982 -1.79427 143.41 -1.84177C143.858 -1.89055 144.285 -1.52072 144.688 -1.52878C144.934 -1.53386 145.219 -1.62463 145.455 -1.73659C145.695 -1.8511 145.858 -2.13526 146.095 -2.20609C146.468 -2.31806 146.94 -2.15223 147.372 -2.20609C147.829 -2.2625 148.233 -2.47965 148.564 -2.41391C148.873 -2.35368 149.122 -1.94992 149.416 -1.89309C150.313 -1.72217 151.238 -2.05765 152.056 -1.78918C152.202 -1.74041 152.35 -1.55507 152.525 -1.47619C153.072 -1.23147 153.445 -1.30781 153.548 -0.487146C153.978 -0.300534 154.231 0.182534 154.739 0.346668C155.079 0.455666 155.421 0.294078 155.804 0.294078C156.307 0.294078 156.951 0.317829 157.379 0.397987C157.623 0.444215 157.824 0.663907 158.061 0.711408C158.233 0.745337 158.461 0.68893 158.657 0.711408C158.923 0.74152 159.163 0.875965 159.38 0.867907C159.826 0.850942 160.165 0.364058 160.53 0.294502C160.726 0.258028 160.986 0.379749 161.168 0.398411C161.886 0.472207 162.713 0.283899 163.298 0.451425C163.611 0.540489 164.145 0.961638 164.491 1.28397C164.741 1.51808 164.893 1.89003 165.129 2.06519C165.354 2.23102 165.921 2.52832 166.152 2.48252C166.424 2.42993 166.436 2.05883 166.705 1.91039C167.55 1.68009 169.049 2.2395 169.729 1.85779C169.992 1.70935 169.941 1.36836 170.155 1.18048C171.433 1.10414 172.706 1.24495 173.902 1.28439C174.323 1.29881 174.758 1.15291 175.138 1.23307C175.56 1.32256 175.867 1.83956 176.286 2.0143C176.566 2.13008 177.058 2.06943 177.479 2.17079C177.762 2.23823 177.993 2.44605 178.202 2.48252C178.657 2.56141 179.092 2.4206 179.524 2.37861C180.501 2.28234 181.756 2.21957 182.718 2.69161C183.23 2.94269 183.445 3.45078 183.995 3.52415C184.782 3.6306 186 3.44527 186.806 3.52415C186.998 3.54408 187.178 3.64121 187.317 3.62806C187.586 3.60431 187.751 3.32439 188.083 3.31633C188.505 3.30446 189.176 4.12003 189.788 3.99365C190.052 3.77523 189.576 3.47156 189.829 3.26374C190.069 3.0203 190.396 3.2612 190.766 3.26374C190.968 3.26629 191.215 3.13863 191.405 3.15983C191.873 3.20946 192.317 3.72433 192.895 3.88846C193.354 4.01994 193.986 4.06871 194.557 3.99365C194.965 3.93851 195.316 3.77014 195.706 3.83715C195.894 3.86896 196.062 4.03563 196.259 4.09756C196.441 4.15396 196.618 4.1001 196.77 4.14887C196.912 4.19595 197.053 4.35924 197.197 4.40928C197.988 4.68665 199.042 4.82364 199.88 5.13919C200.373 5.32453 200.876 5.69817 201.285 5.71132C201.487 5.71938 201.666 5.60487 201.924 5.60741C203.21 5.61801 204.724 6.27328 204.605 7.74369C203.1 8.14745 201.84 6.47558 200.262 6.96246C200.01 7.04008 199.73 7.3781 199.752 7.6911C199.81 8.59871 201.68 8.52237 201.837 9.41047C201.531 9.69081 201.196 9.42616 200.943 9.46306C200.559 9.51819 199.912 10.0144 199.666 10.2956C199.377 10.626 199.125 11.4717 198.814 11.5463C198.433 11.6371 197.853 11.0874 197.281 11.2333C197.071 11.2872 196.87 11.607 196.685 11.6502C196.215 11.7596 195.617 11.3372 195.323 12.015C195.478 12.4912 195.384 13.1541 195.706 13.4213C195.913 13.5948 196.174 13.4608 196.429 13.5774C196.728 13.7144 196.894 14.1606 197.152 14.4112C197.364 14.6152 197.59 14.6207 197.707 14.8794C197.734 15.2633 197.582 15.3057 197.621 15.5568C197.688 15.9936 198.246 16.0924 198.26 16.3897C198.279 16.7659 197.908 16.6858 197.835 17.067C197.809 17.3092 198.065 17.3737 198.09 17.6922C198.107 17.9051 197.95 18.1273 197.963 18.3695C197.982 18.7169 198.205 18.948 198.175 19.2546C198.151 19.5176 197.963 19.7229 197.791 19.828C196.976 19.1876 196.242 18.3046 195.364 17.4839C194.466 16.6421 193.042 15.6081 192.895 13.8378C192.89 13.5668 193.365 13.3535 193.448 12.9527C193.482 12.7881 193.395 12.554 193.406 12.328C193.436 11.7164 193.849 11.1286 193.833 10.7655C193.812 10.3668 193.205 9.62634 192.895 9.51438C192.648 9.67342 192.892 9.98896 192.852 10.2443C192.803 10.5585 192.491 10.9428 192.213 10.9733C191.408 11.0586 191.318 9.70395 190.041 10.0882C189.711 10.1879 189.247 10.7973 189.36 11.5467C189.395 11.7745 189.908 12.0192 189.871 12.328C189.836 12.6278 188.711 12.716 188.466 12.6923C187.779 12.6248 187.425 11.9963 186.805 12.015C186.501 12.0239 186.235 12.3267 185.995 12.3793C184.654 12.6791 182.664 11.5718 182.207 13.004C182.141 13.2067 182.178 13.471 182.121 13.6817C182.038 13.9829 181.842 14.2195 181.78 14.4116C181.728 14.5724 181.737 14.8892 181.652 15.1403C181.575 15.3676 180.77 16.257 181.482 16.4953C181.652 16.5505 181.732 16.4058 181.951 16.4427C182.317 16.503 182.926 17.2214 183.356 17.224C183.613 17.2252 183.969 16.8703 184.165 16.8597C184.559 16.8363 184.844 17.1476 185.144 17.3279C185.431 17.5001 185.868 17.8618 186.082 17.8487C186.484 17.8237 186.292 17.4831 186.678 17.3279C187.414 17.5951 187.759 18.5498 188.466 19.3077C188.722 19.5812 189.101 19.8166 189.446 20.1928C189.638 20.4031 190.231 20.9676 190.256 21.2344C190.278 21.4829 190.09 21.5898 190.042 21.8078C189.972 22.1246 190.134 22.3579 189.957 22.589C189.277 22.2816 189.124 21.4617 188.636 20.7658C188.456 20.5066 188.274 20.1987 187.999 19.828C187.874 19.6609 187.422 19.0744 187.146 19.2033C186.61 19.4519 187.439 20.4447 187.572 20.6619C187.855 21.1208 188.23 21.7391 188.255 22.2247C188.271 22.5352 188.089 23.0993 188.084 23.6307C188.081 23.9899 188.158 24.316 188.127 24.6197C188.094 24.9251 187.917 25.2737 187.828 25.6105C187.728 25.9917 187.706 26.4485 187.616 26.7034C187.451 27.1729 186.894 27.7255 186.507 27.745C186.153 27.7633 186.002 27.4121 185.656 27.4333C185.132 27.4634 185.035 28.0542 184.72 28.5263C184.747 29.0394 184.878 29.2154 184.805 29.5683C184.69 30.1209 184.062 30.2168 184.081 30.7664C184.099 31.2754 184.655 31.3742 184.932 31.6002C185.313 31.9094 185.977 32.5973 186.338 33.1627C186.575 33.5334 186.917 34.2268 186.892 34.6204C186.86 35.1361 185.647 35.8529 185.145 35.662C184.669 35.4818 184.832 34.9253 184.72 34.4126C184.633 34.0181 184.381 33.8485 184.253 33.5274C184.184 33.3591 184.216 33.0919 184.124 32.9027C183.867 32.3726 183.418 32.6622 182.888 32.3289C182.541 32.1109 182.641 31.6516 182.505 31.2347C182.322 30.674 181.55 30.4098 180.931 30.5586C180.475 30.6663 180.333 31.1346 179.908 31.2347C179.284 30.7821 180.036 29.665 179.269 29.5679C178.682 29.4928 178.293 30.5989 177.949 30.9225C177.716 31.1397 177.295 31.1842 177.268 31.4946C177.218 32.0693 177.764 31.9523 178.204 32.1724C178.603 32.3721 178.649 32.9248 179.014 32.9536C179.318 32.9786 179.52 32.5694 179.823 32.5367C180.346 32.4803 180.771 32.7683 181.1 33.0062C180.887 33.6373 179.741 34.1004 179.737 34.9334C179.736 35.416 180.195 35.4992 180.547 35.8185C180.844 36.0883 181.236 36.85 181.654 37.3814C181.834 37.6104 182.127 37.7614 182.209 37.9022C182.405 38.2466 182.374 38.6665 182.591 38.8925C182.627 39.1779 182.484 39.2475 182.506 39.5172C182.611 39.8922 183.082 39.8213 183.187 40.195C183.1 41.0933 183.405 41.9389 182.804 42.2787C182.527 43.8899 182.214 45.1504 181.314 46.0287C180.504 46.8167 179.435 47.0496 178.46 47.4351C178.207 47.5352 178.005 47.8613 177.78 47.9559C177.213 48.1913 176.204 48.0479 176.162 48.8936C176.139 49.3109 176.595 49.562 176.63 49.987C176.684 50.6393 176.206 51.2954 175.863 51.3416C175.616 51.3743 175.083 51.1639 175.053 50.6117C175.02 49.9908 175.683 49.7368 175.735 49.3623C175.826 48.6994 175.267 48.0534 174.629 48.1124C174.066 48.1637 172.787 49.545 172.756 50.3C172.731 50.8641 173.67 52.0389 173.99 52.3837C175.186 53.673 176.456 54.4461 176.246 57.5927C175.948 58.39 175.184 58.5597 174.586 58.999C174.131 59.3332 173.904 60.3698 173.138 60.458C172.83 60.3291 173.01 59.7408 172.925 59.4685C172.809 59.0953 172.199 58.9121 171.818 58.5308C171.507 58.2174 171.376 57.7241 171.137 57.4362C170.839 57.0774 170.394 57.0023 170.029 56.7589C169.8 56.6062 169.622 56.0697 169.39 56.0828C169.015 56.1015 169.145 56.5434 169.051 57.2797C168.956 58.0045 168.524 58.5609 168.667 59.4159C168.727 59.7658 169.084 60.0487 169.263 60.405C169.558 60.9958 169.6 61.6837 169.902 62.0204C170.101 62.2431 170.442 62.2915 170.668 62.4887C171.12 62.8835 171.915 63.7385 172.074 64.208C172.259 64.7564 172.08 65.4024 172.202 65.9796C172.344 66.6463 173.057 67.1243 172.629 67.8028C172.221 67.7104 171.865 67.3842 171.52 67.1255C170.935 66.6823 170.666 66.3006 170.285 65.5627C170.174 65.3468 170.008 65.1364 169.945 64.9379C169.796 64.471 169.828 63.9421 169.69 63.3751C169.57 62.8873 169.108 62.1159 168.752 61.707C168.453 61.3626 167.923 61.1616 167.9 60.6654C167.869 59.9664 168.094 59.1445 168.071 58.3209C168.066 58.1432 167.967 57.9642 167.944 57.7487C167.899 57.3488 167.976 56.8594 167.9 56.4976C167.83 56.1647 167.632 55.8648 167.517 55.5611C167.404 55.2613 167.287 54.9602 167.178 54.5708C167.005 53.9686 166.811 52.8069 166.411 52.7476C165.984 52.6844 165.562 53.7264 165.005 53.7379C164.719 53.7434 164.339 53.463 164.282 53.1119C164.228 52.7921 164.416 52.4698 164.409 52.1228C164.394 51.4243 163.988 51.1546 163.685 50.6639C163.562 50.4654 163.53 50.1863 163.429 50.0392C163.235 49.7563 162.866 49.5985 162.62 49.3105C162.387 49.034 162.131 48.637 162.024 48.3728C161.859 47.9652 161.806 47.4359 161.556 47.3825C161.316 47.3312 161.039 47.7519 160.789 47.852C160.53 47.9559 159.892 48.0903 159.639 48.1124C158.784 48.1849 158.091 47.9058 158.192 49.1544C158.059 49.7147 157.575 49.7211 157.255 49.987C156.847 50.3263 156.55 51.0066 156.105 51.5494C155.889 51.8153 155.576 51.9812 155.382 52.2272C155.219 52.4324 155.169 52.7611 154.998 52.9571C154.543 53.4821 153.862 53.5267 153.551 54.2595C153.533 55.1252 153.885 55.78 153.806 56.6019C153.769 56.9768 153.54 57.3098 153.507 57.6966C153.48 58.0278 153.619 58.3845 153.551 58.7382C153.513 58.9274 153.341 59.0275 153.209 59.259C153.091 59.4668 153.043 59.7429 152.955 59.8837C152.811 60.1085 152.576 60.265 152.442 60.4576C152.226 60.7706 152.181 60.9941 151.974 61.031C151.041 61.1951 150.811 59.0236 150.399 58.1135C150.209 57.6953 149.822 57.3178 149.632 56.8114C149.414 56.2274 149.347 55.4946 149.035 54.8317C148.771 54.2659 148.406 53.6993 148.227 53.1123C148.075 52.6165 147.944 51.9956 147.801 51.4455C147.649 50.8641 147.485 50.1329 147.46 49.6748C147.425 48.9988 147.567 48.5819 147.119 48.3202C146.709 48.4385 146.526 48.9449 146.055 48.9449C145.601 48.9449 144.38 47.9818 144.736 47.1216C144.439 46.6059 143.689 46.3235 143.117 45.7157C142.79 45.3671 142.494 44.5371 141.925 44.4663C141.768 44.4463 141.564 44.5545 141.414 44.5702C141.053 44.6083 140.414 44.5307 140.008 44.5702C139.497 44.6202 138.866 44.761 138.22 44.6741C137.803 44.6189 137.286 44.5201 136.857 44.4663C136.312 44.3975 135.587 44.2398 135.283 43.8928C135.093 43.6795 135.017 42.9971 134.685 42.9038C134.29 42.7918 134.073 43.1655 133.706 43.2681C132.925 43.4865 132.274 43.0722 131.746 42.6434C131.373 42.3397 131.031 42.182 130.767 41.9661C130.12 41.4359 130.004 39.8417 129.021 39.8298C128.679 39.826 128.135 40.0877 128.084 40.5601C128.051 40.8918 128.408 41.5072 128.553 41.7587C129.031 42.5819 129.908 42.8911 130.172 43.9976C130.348 44.0816 130.707 43.808 130.895 44.0502C131.06 44.5252 130.893 45.4061 131.278 45.6131C133.048 45.9706 133.554 44.7843 134.345 43.9463C134.804 44.3131 134.653 44.6342 134.813 45.0392C134.976 45.4549 135.232 45.781 135.537 45.9256C135.75 46.0257 136.025 45.9324 136.347 46.0809C136.548 46.1742 137.387 47.1462 137.412 47.4885C137.433 47.7947 136.861 48.8381 136.686 49.1023C136.518 49.3601 136.257 49.4942 136.176 49.727C136.115 49.9072 136.135 50.2898 136.09 50.4043C136.012 50.6121 135.63 50.8831 135.409 51.1329C135.176 51.3984 134.905 51.605 134.685 51.8103C134.416 52.063 134.249 52.41 133.961 52.5402C133.395 52.7955 132.856 52.6861 132.386 53.061C132.078 53.3057 132.078 53.8579 131.706 54.1539C131.316 54.4631 130.65 54.4657 130.086 54.7799C129.724 54.9814 129.507 55.372 129.194 55.5086C129.065 55.5637 128.906 55.5166 128.767 55.5611C128.484 55.6494 128.222 55.8954 127.957 55.9768C127.747 56.0425 127.524 56.0094 127.318 56.082C126.663 56.3135 126.061 57.1291 125.402 56.6541C125.091 55.7766 125.041 54.6718 124.678 53.8931C124.493 53.4957 124.13 53.3736 123.997 52.9562C123.979 52.6212 124.309 52.7128 124.337 52.4354C124.229 51.8726 123.794 51.6092 123.528 51.1321C123.398 50.8993 123.338 50.5676 123.188 50.2996C122.68 49.3958 121.679 48.9263 121.484 47.799C121.431 47.4923 121.492 47.2519 121.442 47.0177C121.358 46.6322 121.145 46.2272 120.93 45.9248C120.768 45.6932 120.436 45.5354 120.25 45.1949C120.126 44.9701 120.099 44.6529 119.994 44.4137C119.57 43.4467 118.957 42.5929 118.29 41.9131C117.943 41.9746 117.57 42.0038 117.397 42.2787C117.57 42.9602 117.835 43.5307 118.12 44.1019C118.381 44.6215 118.75 45.1817 118.929 45.7687C118.996 45.9854 118.984 46.2696 119.057 46.4973C119.325 47.3235 120.167 47.5771 120.335 48.5297C120.448 49.1676 120.31 49.6095 120.463 50.2478C120.609 50.8607 121.349 51.2224 121.656 51.8103C121.905 52.2904 121.907 52.9694 122.082 53.4257C122.336 54.0937 123.049 54.3834 123.572 54.8321C124.041 55.2358 124.376 55.858 124.763 56.2906C124.991 56.5434 125.304 56.5892 125.36 56.8645C125.432 57.2169 125.239 57.3352 125.189 57.6444C125.516 58.0613 125.834 58.8307 126.382 58.8951C126.607 58.9214 126.89 58.6441 127.234 58.5817C127.407 58.5516 127.6 58.6148 127.744 58.5817C127.971 58.5317 128.169 58.2844 128.427 58.2174C128.862 58.1029 129.366 58.1491 129.917 58.0609C130.437 57.9778 130.795 57.44 131.194 57.5927C131.632 58.1809 131.318 58.8476 131.194 59.4159C131.151 59.6157 131.151 59.8222 131.111 59.9893C130.881 60.9165 130.278 61.6035 130.002 62.4373C129.917 62.6927 129.932 63.0061 129.833 63.2703C129.516 64.1054 128.854 64.929 128.341 65.6144C128.052 65.9999 127.797 66.3481 127.489 66.656C127.184 66.9635 126.811 67.1311 126.467 67.4373C125.785 68.0476 125.075 68.9225 124.594 69.73C124.407 70.043 124.319 70.4035 124.125 70.6682C123.847 71.0469 123.418 71.234 123.188 71.6059C123.006 71.8994 122.886 72.4308 122.677 72.9597C122.443 73.5556 121.953 73.9581 122.038 74.7825C122.07 75.0981 122.301 75.2944 122.379 75.6168C122.511 76.1715 122.41 76.6389 122.336 77.2305C122.576 77.9447 122.75 78.7395 123.188 79.2103C123.24 80.2642 123.116 81.2872 123.188 82.1791C123.233 82.7474 123.413 83.1661 123.231 83.6894C123.069 84.1508 122.451 84.9626 122.081 85.2519C121.679 85.5691 121.064 85.6518 120.633 86.0352C120.333 86.3007 120.084 86.7664 119.781 87.0781C119.279 87.59 118.59 88.0684 118.546 88.588C118.52 88.887 118.739 89.3391 118.801 89.6287C118.967 90.3981 119.129 91.5046 118.844 92.3367C118.535 93.238 116.974 93.0509 116.8 94.0035C116.747 94.2928 116.904 94.5243 116.885 94.8377C116.869 95.1032 116.584 96.0609 116.459 96.3476C116.271 96.7789 115.842 96.9723 115.565 97.3379C115.217 97.7998 115.04 98.4678 114.67 98.9517C114.168 99.612 113.489 100.308 112.839 100.879C112.273 101.379 111.258 101.897 110.37 101.973C109.853 102.018 109.298 101.824 108.751 101.922C108.551 101.956 108.334 102.181 108.069 102.234C107.916 102.264 107.759 102.201 107.602 102.234C107.334 102.289 107.083 102.549 106.835 102.547C106.283 102.539 105.575 101.734 105.558 100.933C105.551 100.624 105.774 100.33 105.771 100.046C105.766 99.7138 105.433 99.2965 105.174 98.6917C104.925 98.1102 104.827 97.4512 104.578 96.9749C104.313 96.4672 103.964 96.2263 103.769 95.8276C103.377 95.0269 103.348 94.0786 103.216 93.1179C103.173 92.8049 102.997 92.4652 102.959 92.0759C102.913 91.5975 103.007 91.0656 102.917 90.6699C102.849 90.365 102.572 90.0546 102.405 89.6796C102.105 89.0044 101.894 88.1218 101.64 87.5972C101.4 87.1052 100.916 86.5925 100.873 86.0348C100.844 85.6556 100.912 84.9495 100.958 84.5758C101.004 84.2098 101.226 83.9206 101.299 83.535C101.347 83.2784 101.29 82.9841 101.341 82.7012C101.558 81.509 102.632 81.0756 102.492 79.6272C102.432 79.0127 102.077 78.7099 102.023 78.0118C101.999 77.6856 102.157 77.3989 102.151 77.074C102.144 76.6347 101.839 75.9811 101.682 75.5638C101.251 74.4144 100.987 73.3634 100.363 72.491C100.024 72.0152 99.5782 71.6793 99.2982 71.2399C99.0691 70.8824 98.7908 70.2127 98.7866 69.9383C98.7824 69.641 98.9737 69.4552 99.0424 69.1566C99.1316 68.7724 99.1382 68.0454 99.2553 67.4377C99.309 67.159 99.5553 66.4838 99.5115 66.0317C99.4686 65.5962 98.9382 64.7611 98.4887 64.6258C97.8938 64.4455 97.2823 64.8582 96.5307 64.7819C95.877 64.278 95.9254 62.9666 94.9909 62.7995ZM118.54 81.448C118.737 81.0654 118.984 79.989 118.54 79.7286C118.511 79.7286 118.483 79.7286 118.455 79.7286C118.265 80.1616 118.063 81.2062 118.54 81.448ZM117.944 70.5605C118.088 70.2 118.425 69.8187 118.37 69.3636C118.247 68.3597 116.712 68.8542 116.539 69.5714C116.422 70.0541 116.609 70.4366 116.453 70.926C116.621 71.3116 117.041 71.3879 117.561 71.3421C117.848 71.1881 117.813 70.8917 117.944 70.5605ZM115.347 75.9272C115.515 75.5447 115.078 75.2944 115.006 74.8843C114.922 74.4038 115.101 73.8397 114.75 73.5819C114.708 73.5819 114.665 73.5819 114.623 73.5819C114.314 74.4356 114.751 75.8445 115.347 75.9272ZM144.389 24.2007C144.23 23.8071 143.769 24.3165 143.965 24.6702C144.253 24.6927 144.356 24.4887 144.389 24.2007ZM134.468 26.337C135.158 26.1737 134.476 24.8246 133.956 24.9823C133.278 25.1897 133.997 26.4472 134.468 26.337ZM131.316 33.0558C131.529 31.2499 130.379 31.1142 130.167 29.8266C130.264 29.8423 130.214 29.6765 130.295 29.6701C130.574 29.5055 130.997 29.933 131.145 29.5149C131.149 28.8978 130.509 28.4376 129.867 28.7336C129.683 28.5784 129.658 28.2273 129.612 27.8998C129.13 27.5487 127.935 26.7802 127.951 26.0766C127.965 25.4976 128.576 25.1728 129.271 25.1914C129.565 24.9191 129.376 24.0828 129.101 23.889C128 23.5942 127.413 23.7931 126.716 24.4102C126.382 24.7062 126.008 24.9102 125.821 25.0875C125.649 25.2508 125.419 25.6965 125.439 25.9201C125.466 26.2424 125.843 26.4315 125.993 26.8578C126.069 27.0775 126.053 27.3523 126.121 27.5351C126.307 28.0377 126.783 28.3625 127.142 28.7845C127.396 29.0831 128.108 29.7303 128.122 30.0866C128.135 30.3839 127.904 30.4496 127.825 30.7639C127.744 31.0718 127.652 31.7992 127.697 32.0659C127.79 32.6381 128.274 32.658 128.717 32.8997C129.157 33.1394 129.581 33.5626 130.038 33.5758C130.526 33.5928 131.044 33.4019 131.316 33.0558ZM121.308 29.3058C122.463 29.0509 121.935 27.8574 121.35 27.4312C120.907 27.1076 120.377 26.8264 119.86 26.4409C119.56 26.2174 118.42 25.7949 118.413 25.3479C118.404 24.8585 119.261 24.6982 118.924 23.8368C118.341 23.6633 116.955 23.9365 117.051 24.7219C117.106 25.1757 117.546 24.9242 117.646 25.3992C117.229 25.5808 116.721 26.057 116.284 25.9731C115.762 25.8734 115.628 25.0892 115.347 24.618C114.942 24.6341 114.675 24.1379 114.197 24.2011C113.697 24.2681 113.431 25.1575 113.175 25.6088C113.039 25.8454 112.823 25.968 112.749 26.1809C112.705 26.3098 112.753 26.5151 112.707 26.7017C112.561 27.2806 112.151 27.4923 112.195 28.0037C112.235 28.4546 112.636 28.6573 112.665 29.0454C112.636 29.4453 112.111 29.2375 112.153 29.7227C112.915 30.492 112.958 29.3596 113.346 29.2019C113.658 29.0742 114.27 29.3071 114.666 29.2019C114.985 29.1162 115.236 28.7442 115.602 28.5771C115.826 28.4745 116.103 28.3837 116.412 28.3676C117.767 28.2994 118.642 29.3779 119.819 29.4093C120.207 29.4203 120.905 29.3948 121.308 29.3058ZM118.582 35.4525C118.606 34.8935 118.408 34.4724 118.37 33.6818C117.583 33.1016 116.996 34.22 116.198 34.0974C115.708 34.0224 115.356 33.3239 114.836 33.4214C114.548 33.474 114.406 33.9278 114.111 33.9935C113.502 34.1305 113.224 33.3977 112.578 33.6818C111.666 32.8323 111.259 31.4484 111.045 29.8792C110.548 29.0818 109.79 29.7303 109.427 30.2435C109.203 30.241 108.923 30.0925 108.874 30.4C108.706 31.3632 109.987 31.4654 109.98 32.1194C109.976 32.5443 109.48 32.5049 109.257 32.7954C109.019 33.1046 109.177 33.3794 108.874 33.5766C108.034 33.7005 107.755 33.1385 107.766 32.2229C107.404 31.5494 106.946 31.0587 106.617 30.5039C106.495 30.2986 106.313 29.9789 106.276 29.6701C106.246 29.4267 106.37 29.1175 106.319 28.8376C106.226 28.3405 105.469 27.9656 104.998 27.692C104.495 27.3985 103.865 27.1212 103.508 26.7543C103.255 26.4935 103.136 26.0414 102.912 25.8692C102.721 25.7233 102.485 25.7534 102.315 25.6088C102.082 25.409 102.12 25.0756 101.804 24.9828C101.644 24.9102 101.397 25.1774 101.293 25.3483C101.086 26.485 101.842 26.5626 102.187 27.0664C102.425 27.4125 102.543 27.9333 102.784 28.1607C103.041 28.4041 103.391 28.3592 103.72 28.525C103.949 28.6395 104.097 28.9868 104.316 29.1497C104.723 29.4521 105.376 29.5047 105.424 30.0874C105.171 30.2978 104.598 29.7808 104.402 30.2965C104.352 30.6345 104.622 30.8084 104.615 31.1291C104.605 31.6422 104.139 32.2038 103.72 32.1194C103.678 31.814 103.943 31.5646 103.933 31.233C103.915 30.5701 102.826 29.5581 102.273 29.2545C102.014 29.1111 101.699 29.1035 101.463 28.9415C101.045 28.6535 100.313 27.9456 100.058 27.5355C99.7531 27.0418 99.4932 26.1291 98.8233 26.1805C98.55 26.2017 98.3242 26.5079 98.0996 26.6504C97.8951 26.7776 97.6697 26.8964 97.461 27.066C97.2127 27.2675 97.0102 27.4711 96.779 27.4829C96.2445 27.5105 95.7908 26.9977 95.3317 27.1186C95.1767 27.1593 95.048 27.329 94.863 27.5355C94.8563 27.8392 94.9372 28.0339 94.9059 28.3681C94.7672 28.6615 94.3552 28.6429 94.0544 28.838C93.6132 29.1221 93.2212 29.7061 92.8616 30.14C92.6304 30.4191 92.4221 30.649 92.393 30.8686C92.3701 31.0408 92.5121 31.3674 92.4788 31.599C92.4409 31.8501 92.0551 32.3709 91.7968 32.588C91.6464 32.7144 91.446 32.7314 91.286 32.8484C90.9503 33.0919 90.7999 33.4091 90.5195 33.4731C89.7754 33.6428 88.4223 33.2904 88.4331 34.2544C88.4398 34.8986 89.1505 34.9016 89.583 34.8791C90.185 34.8503 90.697 35.036 91.0302 34.9317C91.2602 34.8609 91.5118 34.5449 91.7539 34.4109C91.9068 34.3269 92.0647 34.3252 92.1797 34.2544C92.4346 34.0979 92.5788 33.8438 92.7767 33.7331C93.1662 33.516 93.8907 33.3463 94.3089 33.3162C94.883 33.2755 95.4833 33.3887 96.2253 33.3162C96.4899 33.2912 96.7511 33.0834 97.0352 33.0558C97.4989 33.0113 98.1084 33.2798 98.4825 33.2649C98.7416 33.2543 99.0312 32.9464 99.334 32.9519C99.6773 32.9587 100.039 33.2573 100.101 33.5257C100.136 33.678 100.029 33.9214 100.058 34.1505C100.107 34.5292 100.373 34.6857 100.356 34.9317C100.334 35.2578 99.6694 35.6934 99.7594 36.0777C99.8185 36.3249 100.295 36.5828 100.526 36.755C100.768 36.9352 101.177 37.185 101.462 37.2232C101.703 37.2558 101.916 37.1413 102.144 37.1719C102.511 37.2206 103.105 37.4929 103.337 37.6927C103.737 38.0375 103.681 38.5897 104.146 38.7856C104.344 38.87 104.701 38.8225 104.954 38.8912C105.575 39.0554 106.035 39.6843 106.488 39.6199C107.201 39.5185 106.876 38.6966 106.957 38.11C107.139 36.78 109.263 36.8406 109.682 37.744C109.993 37.8454 110.265 37.7597 110.619 37.9009C110.823 37.9824 110.976 38.2559 111.172 38.3178C111.321 38.3636 111.537 38.2915 111.726 38.3178C112.542 38.4311 113.282 39.1741 113.983 39.0465C114.428 38.9659 114.751 38.4544 115.175 38.4217C115.989 38.3602 116.511 39.1635 117.39 38.7861C118.036 38.5087 117.892 37.6893 118.113 36.8589C118.269 36.2812 118.565 35.8876 118.582 35.4525ZM164.489 17.6892C164.658 17.0263 164.396 16.3566 164.063 15.9185C163.572 16.0224 163.927 16.6472 163.893 17.0132C163.845 17.5302 163.396 17.8894 163.424 18.4195C163.261 18.6537 162.981 18.7457 162.957 19.1482C163.228 19.3772 163.346 18.9684 163.553 18.7313C163.879 18.3576 164.377 18.1367 164.489 17.6892ZM153.332 -0.385357C152.864 -0.385357 152.687 -0.159304 152.396 0.0315487C152.235 0.135458 151.91 0.193562 152.013 0.499774C152.422 0.439125 153.235 0.213072 153.332 -0.385357ZM135.362 6.02177C136.363 6.30721 136.833 4.92458 136.171 4.1459C136.016 3.96438 135.493 3.89313 135.278 3.46986C135.017 2.9605 135.053 2.28064 134.425 2.42823C134.418 2.48846 134.433 2.5754 134.382 2.58346C134.323 3.72264 135.679 4.00934 135.66 4.92755C135.65 5.40893 135.234 5.46024 135.362 6.02177Z" fill="#375A64"/>
    <path d="M121.35 4.04199C121.227 3.47877 122.1 3.56952 121.947 4.09458C121.811 4.2515 121.438 4.23793 121.35 4.04199Z" fill="#375A64"/>
    <path d="M116.114 35.1921C116.133 34.762 116.935 34.6038 117.092 34.9843C117.039 35.4024 116.278 35.6904 116.114 35.1921Z" fill="#375A64"/>
    <path d="M101.507 32.3798C101.951 31.9404 102.94 32.2377 103.552 32.2233C103.437 32.6219 103.419 33.1389 103.168 33.3692C102.47 33.2148 101.819 33.0045 101.507 32.3798Z" fill="#375A64"/>
    <path d="M98.3979 29.6188C98.9828 28.8715 99.5969 29.2663 99.3777 30.7117C99.2377 31.143 98.6291 31.7194 98.355 31.0773C98.4483 30.5726 98.4087 30.2002 98.3979 29.6188Z" fill="#375A64"/>
    <path d="M99.2494 27.952C99.2978 28.3926 99.1474 28.5899 98.9515 28.7332C98.3904 28.6123 98.817 27.3799 99.2494 27.952Z" fill="#375A64"/>
    <path d="M90.9886 17.3775C91.0378 17.0802 90.8474 16.7104 90.6045 16.5437C90.4646 16.4474 90.2508 16.4924 90.0938 16.3872C89.6788 16.1081 89.528 15.5266 89.2851 15.3981C89.316 14.8273 89.1568 14.4142 89.2851 14.0431C89.3622 13.8183 89.9217 13.183 90.2217 13.054C90.5937 12.8937 90.9828 13.0371 91.2015 12.6897C91.2994 12.6728 91.3648 12.6974 91.4144 12.741C91.4123 13.0697 91.1865 13.1236 91.1586 13.4184C91.2111 13.8917 91.8931 13.5956 91.9673 14.0431C91.9027 14.53 91.5448 14.6258 91.5415 14.9808C91.5402 15.29 92.0577 15.8765 92.3085 16.2833C92.4955 16.5844 92.8226 16.8079 92.99 17.1171C93.1363 17.3868 93.1683 17.7079 93.2879 17.8457C93.5116 18.1048 94.017 18.1481 94.0549 18.523C94.104 19.0205 93.5495 19.2165 93.6291 19.7725C93.0442 20.334 92.0689 20.0435 91.1161 20.1894C90.6849 20.2564 90.2096 20.7814 89.7534 20.3459C89.648 19.996 90.1321 19.9485 90.1792 19.6172C90.1459 19.3093 89.8276 19.353 89.7534 19.096C89.8771 18.691 90.2633 18.6083 90.2225 18.0018C90.4596 17.6854 90.9166 17.8054 90.9886 17.3775Z" fill="#375A64"/>
    <path d="M87.7947 16.1268C88.3633 15.7018 89.3569 16.0267 89.4119 16.5437C89.454 16.9343 89.1099 16.9911 88.9862 17.4292C88.8753 17.8275 89.0078 18.3012 88.8591 18.576C88.7291 18.814 88.375 18.7996 88.1342 18.8878C87.5989 19.0837 86.5644 19.8535 86.1328 18.9917C86.1953 18.5302 86.5611 18.4382 86.6869 18.0552C86.6944 17.7541 86.4319 17.5951 86.474 17.274C86.5257 16.8809 86.7677 17.0161 87.1127 16.8571C87.3635 16.7396 87.471 16.3689 87.7947 16.1268Z" fill="#375A64"/>
    <path d="M58.7092 4.82321C58.7984 5.28635 57.5886 5.89156 57.4736 5.29313C57.3819 4.81431 58.4005 4.21588 58.7092 4.82321Z" fill="#375A64"/>
    <path d="M57.3032 122.233C57.0903 122.233 56.8774 122.233 56.6646 122.233C56.7795 122.148 57.1882 122.148 57.3032 122.233Z" fill="#375A64"/>
    <path d="M55.3867 1.12577C55.4417 1.05325 55.5879 1.05325 55.6429 1.12577C55.6009 1.24792 55.5675 1.38109 55.3867 1.33359C55.3867 1.26403 55.3867 1.19406 55.3867 1.12577Z" fill="#375A64"/>
    <path d="M51.5977 9.40748C51.6064 9.69418 50.7515 10.1692 50.6599 9.6153C50.6449 9.51775 50.664 9.32308 50.8307 9.19966C51.0577 9.02874 51.5889 9.12587 51.5977 9.40748Z" fill="#375A64"/>
    <path d="M33.8815 57.7988C33.8591 57.8764 33.8182 57.9303 33.7966 58.0079C33.3441 57.9879 33.7528 57.2801 33.8815 57.7988Z" fill="#375A64"/>
    <path d="M16.5918 21.3884C16.8905 21.175 17.1767 21.7094 16.9759 21.9618C16.6464 22.0394 16.5627 21.5788 16.5918 21.3884Z" fill="#375A64"/>
    <path d="M63.0091 23.3155C62.8104 23.2549 62.5392 23.2668 62.2855 23.2116C62.068 23.1641 61.8101 23.0852 61.6047 23.0551C61.079 22.9788 60.5099 23.1658 60.1991 22.7947C60.7057 21.9711 61.3789 21.1598 62.0305 20.4506C62.2238 20.239 62.6404 20.0939 62.5413 19.6694C62.1788 19.2801 61.7335 19.6932 61.3914 19.9298C61.0323 20.1771 60.6045 20.5338 60.1987 20.6071C59.4942 20.7348 58.5598 20.3544 57.9844 20.8149C57.9049 21.2085 58.6393 21.0558 58.5373 21.6488C58.2556 21.7056 57.989 21.7332 57.7715 21.4923C57.5737 21.2738 57.6866 20.9464 57.5587 20.8149C57.3404 20.594 56.5201 20.5333 56.153 20.6071C55.7056 20.6966 55.3102 21.024 55.2582 21.4923C55.796 21.8002 56.6821 21.1754 56.8767 21.9618C56.5821 22.6107 55.8885 22.9669 55.9818 23.8364C56.0185 24.1714 56.3442 24.6201 56.5788 24.6702C56.8142 24.7202 56.9467 24.4348 57.1746 24.4611C57.4154 24.4886 57.3608 24.8254 57.6432 24.7741C58.0532 24.5595 58.2798 23.8559 58.7497 23.8885C59.3134 24.7253 58.2411 25.1329 57.6432 25.3988C56.9613 25.7016 56.0755 25.8619 55.556 26.1291C55.284 26.2687 54.2537 27.4867 54.1087 26.5448C54.0042 25.8662 54.6183 26.0621 54.7474 25.5031C54.0879 25.3466 53.4738 25.8505 52.8739 26.1296C52.0178 26.5257 50.5672 26.7768 50.361 27.9528C50.3201 28.1882 50.4447 28.6289 50.3189 28.7854C50.2168 28.9118 49.6061 28.9338 49.339 29.0458C48.9283 29.218 48.57 29.5861 48.3163 29.6705C48.1246 29.735 47.8422 29.7163 47.7205 29.7757C47.3818 29.9364 47.2568 30.4967 46.869 30.8686C46.7098 31.0213 46.357 31.1316 46.2303 31.2855C46.0099 31.554 45.9808 32.2262 45.5917 32.3272C45.3442 32.3535 45.1434 32.0998 44.9097 32.275C44.8818 32.9392 45.1009 33.843 44.8676 34.5152C44.3631 35.0173 43.8094 35.374 43.1641 35.8172C42.8071 36.0632 42.4875 36.1264 42.0564 36.3911C41.751 36.5777 41.4714 37.0226 41.1198 37.2762C40.3066 37.8615 39.3251 38.5549 39.3313 40.0372C39.3326 40.3582 39.468 40.7039 39.5013 41.0788C39.5217 41.2998 39.4796 41.5157 39.5013 41.7566C39.5517 42.3011 39.8746 42.9941 39.5013 43.3703C38.9281 43.0823 38.199 42.9848 37.7978 42.4852C37.6882 41.9707 38.0194 41.547 37.969 41.0788C37.9282 40.7026 37.4958 40.0329 37.2441 39.9846C36.985 39.9346 36.7463 40.2713 36.4784 40.245C36.1601 40.2149 35.8643 39.678 35.4557 39.6203C34.8566 39.535 34.4158 39.7874 33.7522 39.6729C33.1102 40.0927 32.9219 40.84 32.1349 40.7658C31.8574 40.7408 31.6037 40.4821 31.2834 40.4015C30.9359 40.3133 30.4089 40.1636 30.0477 40.1937C29.3228 40.2526 28.797 40.8909 28.1746 41.2866C27.6251 41.6365 26.8473 42.0721 26.684 42.7982C26.5949 43.1888 26.6699 43.7389 26.5561 44.1002C26.4807 44.3382 26.3162 44.5502 26.2149 44.7763C25.7375 45.8429 25.3417 47.2531 25.7042 48.788C25.7579 49.0153 26.232 50.2991 26.4278 50.5587C26.6474 50.8466 27.2935 51.2792 27.6626 51.2873C27.9743 51.2949 28.3405 51.0939 28.6425 51.0269C28.9929 50.9506 29.432 50.9438 29.7502 50.8191C30.6705 50.4586 30.4889 48.9356 31.4104 48.4224C31.8124 48.2002 32.2782 48.1552 32.986 48.1107C33.211 48.3427 33.316 48.7473 33.2847 49.0997C33.261 49.3656 33.0548 49.6061 32.9439 49.9853C32.8473 50.3182 32.8269 50.7075 32.7311 50.9756C32.604 51.3267 32.3211 51.5833 32.2203 51.9133C32.1536 52.1279 32.1903 52.3947 32.1353 52.5893C32.0374 52.9329 31.662 53.1746 31.8366 53.5271C32.7486 53.9703 33.8517 53.4007 34.6474 53.5797C34.9828 53.6547 35.6756 54.1454 35.669 54.7778C35.6648 55.2515 35.3698 55.562 35.3278 56.0802C35.2761 56.7325 35.0536 57.5312 35.0299 58.0588C34.9924 58.9231 36.0664 60.4147 36.8184 60.4028C37.6283 60.3897 38.1003 59.4176 39.0755 59.9346C39.3992 60.1055 39.7413 60.7477 40.0983 60.7158C40.3933 60.6895 40.8382 60.058 41.0352 59.6216C41.2748 59.0889 41.2923 58.6402 41.716 58.3717C42.173 58.0825 42.5363 58.222 43.1212 57.9548C43.3824 57.8365 43.6095 57.6325 43.8448 57.4336C44.0515 57.2601 44.2685 56.8051 44.5268 57.1206C44.8668 57.5362 44.1106 57.7704 44.3989 58.2148C44.9893 58.5978 45.2913 57.5032 45.7196 57.4862C45.8562 57.4811 46.3282 57.8111 46.5711 58.0074C46.9035 58.2746 47.0165 58.6491 47.3797 58.7361C47.613 58.7929 47.9884 58.6266 48.3163 58.6835C48.7508 58.7598 49.0099 59.2162 49.339 59.2043C49.7402 59.1911 49.9327 58.6572 50.276 58.5796C51.0275 58.4112 51.3071 58.6822 51.6387 59.2573C52.0099 59.3362 52.0224 58.7327 52.3623 58.9456C52.1765 59.3994 52.4261 59.6085 52.5752 59.9872C52.6719 60.2307 52.6556 60.4028 52.746 60.508C52.9493 60.7447 53.3418 60.7447 53.6396 60.9762C53.9538 61.218 54.1312 61.668 54.4912 62.1744C54.8624 62.6926 55.486 63.2292 55.9818 63.2673C56.4497 63.3042 56.8304 63.1053 57.2175 63.1634C58.0982 63.2962 58.6456 63.8344 59.2617 64.4146C59.6059 64.7377 59.9166 64.963 60.0275 65.351C60.105 65.6216 60.0675 65.9851 60.1554 66.2892C60.3437 66.9372 61.1169 67.2502 60.8373 68.3728C60.9652 68.7015 61.2523 68.8199 61.561 69.0497C61.8085 69.2355 62.0172 69.6219 62.2846 69.6749C62.4575 69.7092 62.6462 69.6113 62.7954 69.6219C63.2795 69.6639 63.6119 69.8929 64.031 70.0918C64.2914 70.2144 64.6247 70.2627 64.798 70.4061C65.0142 70.5838 65.0421 71.1835 65.3088 71.3417C65.4829 71.4451 65.8704 71.3022 66.1603 71.3417C66.6173 71.4074 67.2381 71.7492 67.6509 71.7598C67.9017 71.7662 68.1092 71.6335 68.3316 71.6547C69.3748 71.7531 69.9664 73.279 70.9729 73.7383C71.285 73.8817 71.7795 73.782 71.9945 73.8948C72.3719 74.0946 72.6902 75.5073 72.7181 76.1333C72.8039 78.0266 71.6158 78.6339 70.9296 79.8851C70.7863 80.1472 70.7071 80.5611 70.5038 80.9271C70.0952 81.6625 69.6402 81.8152 69.6952 83.1669C69.7102 83.538 69.8652 83.8998 69.8652 84.3128C69.8652 84.8167 69.8298 85.4758 69.7373 85.9279C69.6673 86.2727 69.434 86.5526 69.3965 86.866C69.3586 87.1828 69.4727 87.4288 69.4394 87.6998C69.4027 88.0001 69.1574 88.4234 68.9703 88.8445C68.5766 89.7339 68.4908 90.7794 67.6926 91.1356C67.2239 91.346 66.5882 91.2289 66.0753 91.4486C65.8679 91.5381 65.6054 91.7722 65.3504 91.9168C64.6097 92.3388 63.5536 92.9084 63.3491 93.844C63.1674 94.6778 63.6028 95.342 63.477 96.2929C63.3445 96.5762 63.1662 96.8591 62.9662 97.178C62.7825 97.474 62.6908 97.8214 62.4975 98.1161C62.2413 98.508 61.8439 98.6819 61.6889 99.2104C61.636 99.3893 61.6693 99.6022 61.6039 99.8864C61.5789 99.9916 61.4223 100.154 61.3477 100.355C61.2789 100.54 61.2823 100.777 61.2198 100.929C61.0252 101.41 60.4466 102.503 60.027 102.648C59.143 102.951 58.2106 102.189 57.5999 102.334C57.6882 102.856 57.9978 102.802 58.1969 103.168C58.3131 103.384 58.3765 103.67 58.5368 103.897C58.7281 104.168 58.8972 104.268 58.9205 104.574C58.9689 105.216 58.5602 105.862 58.2815 106.085C58.0265 106.289 57.4974 106.409 57.0458 106.501C56.7309 106.566 55.9177 106.57 55.7685 106.816C55.549 107.177 55.8847 108.071 55.7264 108.429C55.4081 109.191 54.552 108.409 54.1079 108.637C54.07 109.03 54.1883 109.443 54.4487 109.626C54.7166 109.818 55.1228 109.569 55.3002 109.94C55.2132 110.458 54.7574 110.525 54.6616 111.034C54.6737 111.531 54.7982 111.661 54.7466 111.97C54.6358 112.64 53.785 112.612 53.8096 113.325C53.8463 114.392 55.4827 113.955 55.5131 114.993C55.5302 115.622 55.0444 115.629 54.8745 116.242C54.7828 116.571 54.927 116.647 54.8745 116.919C54.8036 117.289 54.4487 117.395 54.4487 117.804C54.4475 118.303 55.0444 118.851 55.3423 119.263C55.6339 119.667 56.0081 120.243 56.4072 120.514C57.005 120.918 57.8953 120.827 58.1536 121.556C58.0719 121.994 57.7265 122.111 57.387 122.232C57.3591 122.232 57.3299 122.232 57.302 122.232C57.187 122.147 56.7784 122.147 56.6634 122.232C56.4646 122.232 56.2655 122.232 56.0676 122.232C55.4977 121.911 54.8061 121.703 54.1083 121.399C53.8567 121.29 53.573 121.029 53.2993 120.88C53.0939 120.765 52.8627 120.72 52.7027 120.618C52.3361 120.382 51.9232 119.619 51.5529 119.316C51.3283 119.131 50.9755 119.034 50.8292 118.846C50.6897 118.668 50.613 118.283 50.4884 118.066C50.351 117.827 50.0981 117.651 49.9344 117.388C49.5807 116.813 49.1291 116.04 49.1257 115.616C49.1224 115.2 49.4507 114.917 49.3386 114.525C49.2345 114.155 48.5804 114.235 48.4871 113.794C48.43 113.528 48.6754 113.079 48.6571 112.702C48.6475 112.482 48.3121 112.183 48.4446 111.866C48.5971 111.502 48.8854 111.897 49.1261 111.711C48.9458 110.959 49.1403 109.749 48.5296 109.522C48.2154 109.846 48.8499 110.574 48.3163 110.773C47.8013 110.494 47.9205 109.664 47.8055 109.055C47.7305 108.652 47.5668 108.29 47.5505 107.856C47.5422 107.629 47.6239 107.364 47.5926 107.129C47.5022 106.426 46.8636 105.851 46.8257 105.148C46.8086 104.808 46.9956 104.522 47.0385 104.159C47.0685 103.913 47.0106 103.636 47.0385 103.377C47.0764 103.046 47.226 102.742 47.2518 102.44C47.3022 101.867 47.2506 100.886 47.1669 100.407C47.0615 99.8063 46.6711 99.2948 46.6128 98.6378C46.5923 98.3999 46.6773 98.0038 46.6557 97.6997C46.6353 97.4168 46.5082 97.1369 46.4857 96.8133C46.464 96.5164 46.5461 96.2335 46.5707 95.8755C46.6157 95.222 46.4665 94.4929 46.4857 93.8436C46.4911 93.6527 46.5728 93.5107 46.5707 93.3236C46.5653 92.7859 46.419 92.2438 46.3999 91.7086C46.3666 90.7195 46.489 90.0185 46.3578 89.1041C46.2586 88.4119 46.1362 87.3516 45.932 86.9178C45.7041 86.4326 44.808 85.6089 44.3564 85.3015C44.0586 85.0992 43.7015 85.0292 43.377 84.8332C42.6833 84.4176 41.339 83.5376 41.0348 82.6987C40.9465 82.4548 40.9582 82.1337 40.864 81.8644C40.6791 81.3305 40.2887 80.8686 40.0121 80.3533C39.4863 79.3702 39.0614 78.1386 38.5215 77.1241C38.2482 76.6088 38.0115 76.0243 37.7128 75.6142C37.5374 75.372 36.9763 75.146 36.9042 74.78C36.8088 74.2986 36.5172 73.6374 36.5634 73.2701C36.6247 72.7714 37.4162 72.3689 37.4149 71.9163C37.4137 71.5295 36.9921 71.3048 36.9042 70.9786C36.6892 70.1817 37.03 69.7143 37.2871 69.0502C37.372 68.833 37.4549 68.4823 37.5428 68.3215C37.6987 68.0348 38.0161 67.9542 38.2236 67.6442C38.3398 67.4707 38.4127 67.109 38.5644 66.8626C38.8881 66.3367 39.4109 66.1395 39.5442 65.6644C39.6525 65.2776 39.7163 63.3428 39.5859 62.6956C39.5117 62.322 39.2268 62.0094 39.118 61.6536C38.9256 61.025 38.8806 60.3384 38.3515 60.3515C38.0244 60.3596 37.7945 60.8015 37.5845 61.0806C37.5341 61.4513 37.5608 61.8525 37.2437 61.9657C36.7596 62.1404 36.5738 61.3418 36.0089 61.1328C35.7844 61.0488 35.4261 61.0539 35.2853 60.9767C34.8737 60.7502 34.7399 60.0122 34.3058 59.7255C33.9425 59.4872 33.6313 59.5703 33.411 59.2047C33.3193 58.9536 33.3914 58.4998 33.3689 58.1631C32.9023 57.8289 32.5065 56.5837 31.9632 56.2885C31.6029 56.0925 31.0513 56.1108 30.6005 55.9242C30.3889 55.8364 30.2252 55.7231 30.0035 55.6642C29.7303 55.5891 29.4495 55.5849 29.2378 55.4547C28.3946 54.9432 27.9397 53.2845 26.8957 53.3201C26.4503 53.3345 26.0216 53.8435 25.6179 53.8409C25.2167 53.8384 24.5448 53.449 24.0415 53.1636C23.5187 52.8663 22.9404 52.7047 22.5088 52.435C22.1605 52.2165 21.9185 51.8183 21.6139 51.6525C21.3806 51.5261 21.0399 51.504 20.8482 51.3933C20.5762 51.2356 20.2925 50.8988 19.9534 50.6108C19.6317 50.3386 19.2843 49.9229 19.2714 49.5705C19.2576 49.1629 19.578 48.8156 19.6126 48.4237C19.7221 47.1831 18.9747 46.2912 18.5048 45.5588C18.1565 45.0142 17.7478 44.5523 17.3983 44.0485C17.4179 43.7143 17.4179 43.6536 17.3983 43.3198C17.1338 43.0056 16.9113 42.5399 16.6318 42.0691C16.3789 41.6442 15.8864 41.1916 15.8231 40.7153C15.7444 40.1301 16.0048 39.616 15.8231 39.0477C15.5198 38.1045 14.45 38.5307 14.5875 39.7776C14.6262 40.1212 15.022 40.5826 15.1411 40.9236C15.2636 41.2705 15.2403 41.7035 15.354 42.1217C15.464 42.5229 15.794 42.869 15.9077 43.3198C16.0881 44.0328 16.0831 44.8013 16.2485 45.247C16.3947 45.6432 16.9338 46.0181 16.6313 46.4969C16.2281 46.5995 16.0731 46.1063 15.8227 45.8196C15.6827 45.6605 15.1766 45.3577 15.0991 44.9871C15.0345 44.6804 15.2582 44.2677 15.1841 43.8928C15.0378 43.1574 13.8247 43.1392 13.8205 42.3825C13.8184 41.9075 14.3279 41.8511 14.3325 41.3922C14.3358 40.8897 13.7722 40.4651 13.6505 40.0389C13.5397 39.6483 13.5214 39.0261 13.4806 38.476C13.4406 37.9603 13.4922 37.3631 13.3943 36.9645C13.3072 36.6069 12.8673 36.1145 12.5857 35.9228C12.2124 35.6692 11.9166 35.7744 11.7341 35.402C11.575 35.0771 11.4708 34.3986 11.4363 34.0487C11.375 33.4222 11.4225 32.7373 11.3934 32.0689C11.3654 31.3992 11.3096 30.7575 11.3934 30.0378C11.6042 29.5339 11.9883 29.2854 12.2032 28.7871C12.3528 28.4397 12.3741 28.0109 12.5432 27.6415C12.8552 26.9612 13.5347 26.3327 13.9917 25.6618C14.4842 24.9395 14.9383 24.2477 15.2265 23.4216C15.3299 23.1285 15.6073 22.4788 15.5673 22.1195C15.5115 21.6182 14.7395 21.2051 14.8008 20.6092C14.8395 20.2398 15.2699 20.2449 15.3978 19.8806C15.4636 19.6927 15.5228 19.1677 15.5257 18.9429C15.5323 18.4407 15.3149 17.917 15.3978 17.3804C15.4678 16.9224 16.0248 16.7371 15.739 16.2349C15.4548 15.7378 14.9453 16.503 14.6312 16.1823C14.3429 15.8863 14.6891 15.5288 14.7162 14.9842C14.727 14.767 14.6129 14.5198 14.6312 14.3595C14.657 14.1266 15.0282 13.7347 14.9291 13.5778C14.6987 13.2216 14.4408 12.3165 13.9492 12.0154C13.3247 11.6311 12.6482 11.8903 11.7783 11.7024C11.2446 11.5879 10.9922 10.9776 10.5006 11.0263C10.1973 11.0552 10.0231 11.4801 9.60571 11.7024C9.19244 11.9233 8.65293 11.8483 8.24299 11.9628C7.83638 12.0773 7.64099 12.4204 7.22022 12.3797C6.86986 12.347 6.86736 11.9602 6.4545 11.9115C6.29327 11.8915 5.9879 12.0336 5.73086 12.068C5.07262 12.1519 3.88447 12.1931 3.21748 12.0154C2.60799 11.8534 2.23138 11.6167 1.55731 11.2342C1.05072 10.9474 0.110851 10.5933 0.151678 10.1399C0.177508 9.84771 1.04238 9.53896 1.3865 9.4113C1.94142 9.20475 2.28345 8.87055 2.70714 8.83747C2.87045 8.82559 3.08541 8.96131 3.30288 8.94307C3.52118 8.92314 3.7899 8.67715 4.06944 8.62965C4.66393 8.52829 5.50256 8.66655 5.43173 7.95234C4.98013 7.51549 3.13791 8.27551 3.08958 7.32761C3.06042 6.75378 3.78865 6.58032 4.32523 6.44248C4.8135 6.31609 5.55422 6.10319 5.98541 6.12948C6.47158 6.1596 7.11107 6.82503 7.39103 6.07816C7.52643 5.54717 7.22523 5.101 7.13482 4.67094C7.49644 4.06064 8.16175 4.13698 8.66835 4.04622C9.24701 3.94231 9.71902 3.81593 10.2869 3.52498C10.7847 3.26967 11.3138 3.09875 11.9045 3.00417C12.4832 2.91213 13.0444 2.64536 13.566 2.58726C13.9951 2.53976 14.3888 2.58175 14.8004 2.48335C15.1649 2.39641 15.5502 2.14915 15.951 2.17163C16.2189 2.18647 16.448 2.42567 16.7167 2.48335C16.9692 2.53722 17.2587 2.46766 17.5266 2.53594C17.732 2.58853 17.917 2.75818 18.1224 2.79635C18.4448 2.85573 18.791 2.74121 19.1018 2.79635C19.388 2.8464 19.6309 3.06482 19.9104 3.10808C20.5666 3.21198 21.3169 3.06609 21.9547 3.21326C22.1968 3.26839 22.4151 3.41471 22.6784 3.47366C22.9279 3.5288 23.202 3.46561 23.4449 3.52498C23.7836 3.60769 24.0665 3.99957 24.4248 4.04622C25.0838 4.1302 25.8237 3.69632 26.5111 3.62889C27.009 3.58181 27.5218 3.65391 28.0447 3.52498C28.52 3.40793 28.9804 3.18315 29.4074 3.16067C29.6394 3.14879 29.8344 3.24761 30.046 3.21326C30.2664 3.17678 30.531 2.85276 30.7697 2.90026C31.0867 2.96218 31.0309 3.45288 31.3667 3.57757C31.7379 3.34219 32.1078 3.59327 32.5161 3.57757C32.9139 3.56061 33.2701 3.3371 33.7088 3.42107C34.4841 3.56994 35.5673 4.49833 36.1776 3.99448C36.3314 3.86724 36.2947 3.64713 36.4338 3.31716C36.6222 2.86845 36.9929 2.34127 36.9025 1.7017C36.0489 1.71867 35.2336 2.22931 34.2617 2.27511C33.2797 1.52273 34.5241 1.05578 35.2411 0.712666C35.8327 0.428508 36.3005 -0.20173 37.0308 -0.328965C37.6266 -0.434146 38.2815 -0.16865 38.9889 -0.0685582C39.4017 -0.0104542 39.8146 -0.104183 40.0533 -0.0172391C40.4716 0.136715 40.6865 0.64311 41.0332 0.764407C41.1823 0.816998 41.4277 0.811485 41.6289 0.869589C42.0118 0.977314 42.3546 1.225 42.7367 0.869589C43.0366 0.935327 43.072 1.32594 43.3757 1.39083C43.6586 1.20379 43.8769 0.729206 44.3123 0.609606C44.5014 0.557015 44.7006 0.648624 44.908 0.609606C45.2555 0.541323 45.7179 -0.0337799 45.9308 0.504424C45.8437 0.880616 45.3792 0.937024 45.1209 1.23433C44.8918 1.49855 44.5389 2.10504 44.5681 2.38029C44.6189 2.87736 45.2276 2.68523 45.2488 3.31802C45.1584 3.68233 44.8122 3.51904 44.5252 3.68233C44.2627 3.83119 44.1648 4.13868 43.8865 4.20357C43.1124 4.38212 42.47 3.96522 41.8006 3.99533C41.7693 4.35074 42.1318 4.55728 42.3113 4.67137C42.9187 5.06198 43.4137 5.00812 44.2698 4.98479C44.7085 4.97292 45.213 5.14511 45.5904 4.82787C45.8291 4.62811 45.8162 4.18745 46.0162 3.94274C46.257 3.64967 46.8119 3.35067 47.166 3.42192C47.3593 3.46136 47.6314 3.74298 47.6347 3.94274C47.6414 4.41605 47.0873 4.26507 47.081 4.77655C47.4414 5.04077 48.3929 4.4873 48.4437 4.04665C48.48 3.72559 48.1338 3.54025 48.1459 3.21368C48.1663 2.66784 48.7724 2.67717 48.6995 2.11946C48.4071 1.83785 48.1017 2.17968 47.8047 2.11946C47.3864 2.03379 47.0098 1.42094 46.8252 1.02482C47.0102 0.744899 47.3977 0.931509 47.6768 0.973497C47.9897 0.443351 48.5725 0.236806 49.3803 0.139684C49.6673 0.10533 50.0502 -0.0337803 50.1897 0.296182C50.2585 0.78943 49.5932 1.08546 49.7211 1.65123C50.2943 1.82597 50.4822 0.880192 50.9567 0.504C51.1654 0.338171 51.4641 0.227901 51.7653 0.0883662C52.0278 -0.0342035 52.3173 -0.336599 52.5319 -0.328541C52.7673 -0.320907 52.8094 -0.0838254 53.0427 0.0357755C53.2522 0.143501 53.5267 -0.0380215 53.5963 0.296182C53.1026 1.34205 51.2625 0.740657 50.7851 1.80646C50.8917 2.52067 50.4968 3.20223 50.828 3.68233C51.0646 4.02459 51.5979 3.79175 51.7216 4.15056C51.8882 4.63065 51.2054 4.63066 51.3817 5.19219C51.8324 5.52215 52.369 4.87749 52.786 4.62005C53.2335 4.34268 53.7992 4.01484 53.8505 3.36933C53.6259 2.84046 52.7869 3.24973 52.659 2.69329C52.589 2.39047 52.916 1.71316 52.9985 1.59907C53.4426 0.990038 54.9936 0.123144 56.1076 0.244441C56.3197 0.267768 56.5334 0.425963 56.7463 0.453531C57.4787 0.545564 58.3431 0.0667363 58.9185 0.453531C59.3809 0.123144 59.9358 0.498063 60.5786 0.400516C61.0744 0.758471 60.9377 1.51976 61.6864 1.85948C61.8897 1.95151 62.1434 1.88577 62.41 1.96338C62.6079 2.02149 62.8216 2.30522 63.0487 2.43331C63.3715 2.61228 63.6186 2.57157 63.6873 2.84894C63.7552 3.12122 63.4528 3.29766 63.4745 3.57927C63.6582 3.76461 63.5045 4.04368 63.6024 4.3079C63.7861 4.79055 64.2498 4.75535 64.7089 4.98522C65.0317 5.14681 65.7195 5.6426 65.6887 6.02685C65.6683 6.28471 65.0421 6.73682 64.8372 6.86066C64.6918 6.94718 63.9736 7.37215 63.7307 7.32889C63.3286 7.25636 63.1716 6.26054 62.6229 6.28726C62.3842 6.29913 62.1597 6.47514 62.1538 6.86108C62.1451 7.54518 62.7796 7.57105 62.7925 8.16312C62.8096 8.87097 62.4763 8.91932 61.9838 9.35998C61.631 9.18524 61.3344 8.93926 60.8761 8.89176C60.604 9.28746 61.3235 9.42954 61.089 9.93339C60.4049 10.1107 59.8833 9.69673 59.2584 9.46516C59.0626 9.39264 58.781 9.42148 58.6198 9.30866C58.3777 9.13774 58.3069 8.63135 58.1082 8.37094C57.8782 8.06854 57.4187 7.63976 57.0433 7.64231C56.5176 7.64358 55.756 8.44346 55.3398 7.69362C55.6281 6.50058 56.9937 7.38614 57.8949 6.96499C58.2302 6.80849 58.3456 6.3742 58.6198 6.18335C59.1705 5.79952 60.0654 5.74523 59.9825 4.98522C59.9404 4.60224 59.503 4.60775 59.2588 4.41139C58.9255 4.14546 58.6706 3.20774 58.1944 3.16194C57.949 3.13819 57.7728 3.39223 57.5124 3.42235C56.9617 3.48554 56.3488 3.15134 55.8522 3.42235C55.621 3.58436 55.7768 3.84307 55.5964 4.15098C55.4481 4.40333 55.0974 4.47458 54.9578 4.72438C54.7945 5.01745 54.8278 5.38219 54.6166 5.60952C54.2671 5.98825 53.5276 6.0489 53.0843 6.23424C52.8864 6.31694 52.6369 6.6011 52.4457 6.59983C52.094 6.59728 51.9436 6.02091 51.5508 6.23424C51.5166 6.79195 52.0328 7.01843 52.3594 7.27587C52.7131 7.55452 53.0852 7.83231 53.2114 8.3175C52.8648 9.21705 52.3123 8.27042 51.7637 8.26618C51.1596 8.26067 50.2776 9.67383 49.7627 8.52659C49.8906 7.91883 50.438 7.82425 50.5714 7.22455C49.9702 7.34967 49.4465 7.96888 48.74 8.16227C48.4429 8.24243 48.1538 8.22292 47.888 8.3175C47.3785 8.50029 47.0227 8.96089 46.4836 9.20391C46.2728 9.29891 46.0212 9.26964 45.8016 9.35913C45.2875 9.56949 44.6714 9.94611 44.1415 10.2973C43.5995 10.6565 42.9875 11.034 42.6509 11.3915C42.4688 11.5836 41.9959 12.2677 42.0122 12.4849C42.0334 12.7953 42.5113 12.898 42.523 13.2148C42.5121 13.4069 42.2467 13.8213 42.438 14.0999C42.6121 14.354 42.9616 14.1487 43.3316 14.2038C43.9823 14.3026 44.4081 14.96 44.9068 15.2985C45.2842 15.5534 45.8445 15.8574 46.2703 15.9232C46.8552 16.0127 47.5101 15.7141 47.5897 16.2879C47.6672 16.8389 47.039 17.0361 46.994 17.3821C47.3089 17.8911 46.7798 18.1345 46.7811 18.5807C46.7823 18.9425 47.1443 19.4845 47.4618 19.5172C47.8909 19.5617 48.5187 19.0002 48.6975 18.4755C48.9091 17.8508 48.8191 17.0034 49.2082 16.5483C51.1921 16.6153 52.871 15.4461 52.7431 12.9548C52.7302 12.7088 52.6161 12.392 52.6581 12.121C52.7206 11.7185 53.286 11.3805 53.211 10.8715C53.7667 10.6624 53.7434 9.57204 54.3187 9.41257C54.8007 9.27982 55.3456 9.82948 55.9789 9.77689C56.1855 9.75992 56.453 9.53344 56.6609 9.56907C57.0771 9.64032 57.3274 10.2676 57.6403 10.5585C57.9165 10.8177 58.2082 10.735 58.279 11.0793C58.1961 11.6634 57.8607 11.6778 57.8949 12.2249C57.9261 12.7024 58.3315 13.0642 58.5339 13.1113C58.8447 13.1825 59.2888 12.9785 59.5984 12.7983C60.1683 12.4679 60.6565 11.4738 61.1319 11.5997C61.5072 11.6998 61.8005 13.1584 61.8555 13.6834C61.9147 14.2462 61.793 14.6767 61.8134 15.1946C61.8684 16.0733 62.7729 15.9838 63.2182 16.4444C63.3524 16.584 63.4053 16.9402 63.517 17.1217C63.7332 17.4742 63.9944 17.4742 64.0277 17.8504C64.1073 18.7499 63.3611 18.8263 63.4307 19.8301C63.277 20.2195 62.8887 20.1962 62.92 20.7153C62.9695 21.5376 63.9352 20.9074 64.1977 21.5491C64.3397 21.8939 64.1739 22.1501 64.0698 22.642C64.3997 23.1234 64.3977 23.8919 63.8148 23.8928C63.4653 23.8885 63.3674 23.4233 63.0091 23.3155ZM16.9755 21.9618C17.1767 21.7094 16.8905 21.1754 16.5913 21.3883C16.5626 21.5788 16.6463 22.0394 16.9755 21.9618ZM46.7002 26.7013C46.5228 26.4896 45.9441 26.5499 45.5496 26.5974C45.2709 26.6317 44.9397 26.7042 44.9105 26.9617C45.3538 27.2102 46.5611 27.3892 46.7002 26.7013ZM44.4847 25.8157C44.8193 25.4934 44.6706 24.8356 44.3148 24.7215C44.1748 24.6765 43.989 24.8474 43.7607 24.8267C43.5199 24.8046 43.2791 24.5349 43.08 24.5137C42.74 24.478 42.3951 24.6833 42.2701 24.878C42.2572 25.1897 42.4575 25.2398 42.4409 25.5553C42.0268 25.9171 42.2463 27.1271 42.6538 27.1708C43.0862 27.217 43.3095 25.8331 43.8882 25.7122C44.099 25.6673 44.206 25.8581 44.4847 25.8157ZM43.889 27.8994C43.2837 27.6364 42.7246 28.0784 42.2288 28.1598C41.933 28.2086 41.3944 28.086 41.4623 28.628C41.5173 29.07 42.0751 28.9096 42.3992 28.7845C43.0716 28.5241 43.4966 28.3006 43.889 27.8994ZM42.0159 23.9403C42.8641 23.4983 41.8485 22.1369 41.4623 22.0131C40.7719 21.7921 39.79 22.6327 38.9922 22.8986C38.5427 23.0483 38.1149 23.0619 38.0124 23.5246C38.4156 24.3402 39.2126 23.3456 39.8009 23.472C40.0987 23.5365 40.2729 24.0348 40.5674 24.0968C40.7682 24.1387 41.9351 23.9823 42.0159 23.9403ZM41.4189 24.7741C41.2427 24.52 40.2874 24.8042 40.0133 25.0345C39.825 25.1935 39.6971 25.5816 39.5026 25.8683C39.3013 26.1643 39.0768 26.3929 38.9068 26.6495C38.7531 26.8807 37.8903 28.4028 38.5656 28.5767C38.8539 28.6501 39.4463 27.9189 39.5026 27.639C39.695 26.6839 40.0466 26.0023 40.652 25.5553C41.0028 25.2962 41.3619 25.3292 41.4189 24.7741ZM36.0956 18.9404C36.5709 18.9191 36.8925 17.2015 36.0956 17.4292C35.5623 17.5815 35.4332 18.9692 36.0956 18.9404ZM33.7967 58.0079C33.8184 57.9302 33.8592 57.8764 33.8817 57.7988C33.7526 57.2801 33.3439 57.9879 33.7967 58.0079ZM15.7827 14.4087C15.7923 14.3103 15.7344 14.2929 15.7406 14.1996C15.6107 14.1983 15.4598 14.1695 15.4844 14.3565C15.5461 14.5062 15.7111 14.5325 15.7827 14.4087ZM60.5403 6.22957C60.7499 6.26096 60.8682 6.17953 60.8382 5.91785C60.6486 5.75499 60.3724 5.96917 60.5403 6.22957ZM55.6431 1.12576C55.5881 1.05323 55.4419 1.05323 55.3869 1.12576C55.3869 1.19404 55.3869 1.26402 55.3869 1.33357C55.5677 1.38107 55.601 1.2479 55.6431 1.12576ZM39.4605 5.13662C39.6025 5.02466 39.8196 4.87325 39.7154 4.61539C39.2455 4.34565 38.4506 4.55092 37.757 4.45889C37.3637 3.7786 36.7055 3.67342 36.6496 4.77188C37.442 5.55862 38.6423 4.40502 39.4605 5.13662ZM31.8374 10.5021C32.0795 10.3995 32.4149 10.4521 32.4761 10.1365C32.2774 9.94187 32.0732 9.67892 31.8374 9.66831C31.5287 9.65517 31.3804 9.98937 31.0709 10.1896C30.7105 10.4224 30.2118 10.4788 30.1773 10.8669C30.8359 11.0242 31.4296 10.673 31.8374 10.5021ZM31.6241 6.75039C31.8962 6.69398 32.1757 6.8437 32.349 6.54257C32.1457 5.39576 30.8488 6.0964 30.0919 6.17826C29.9327 6.5044 29.7198 6.76523 29.6661 7.22031C30.2531 7.40141 30.9617 6.88823 31.6241 6.75039ZM44.3998 59.9872C44.7364 59.9202 44.6385 58.9744 44.2298 59.2043C43.9211 59.3795 44.0815 60.0491 44.3998 59.9872Z" fill="#375A64"/>
    <path d="M15.741 14.1996C15.7343 14.2929 15.7926 14.3103 15.783 14.4087C15.711 14.5325 15.5464 14.5062 15.4852 14.3565C15.4602 14.1695 15.6106 14.1983 15.741 14.1996Z" fill="#375A64"/>
    <path d="M14.4632 17.2736C14.3728 17.6142 14.1266 17.7643 13.8662 17.8983C13.7846 17.8233 13.7137 17.7363 13.6533 17.6379C13.6717 17.1434 14.247 16.7791 14.4632 17.2736Z" fill="#375A64"/>
    <path d="M28.8382 29.0085C28.8382 26.3391 26.0832 24.6477 23.274 25.9858C22.6395 26.2882 22.1146 26.7997 21.7959 27.4282C21.0889 28.8218 21.4013 30.4136 22.0421 31.7347L24.2284 37.3754C24.5434 38.1885 25.6753 38.1838 25.9836 37.3678L28.127 31.6978C28.8694 29.9708 28.8382 29.0085 28.8382 29.0085ZM26.199 31.3313C24.3105 32.4489 22.3966 30.383 23.4319 28.3439C23.5694 28.0724 23.7802 27.8451 24.0314 27.6962C25.9198 26.5783 27.8337 28.6446 26.7985 30.6837C26.661 30.9552 26.4502 31.1829 26.199 31.3313Z" fill="#FF4F5B"/>
    <path d="M110.996 53.7994C110.996 51.13 108.241 49.4386 105.432 50.7767C104.798 51.0786 104.273 51.5906 103.954 52.2191C103.247 53.6127 103.56 55.2044 104.2 56.5256L106.387 62.1663C106.702 62.9794 107.833 62.9747 108.142 62.1587L110.285 56.4887C111.028 54.7617 110.996 53.7994 110.996 53.7994ZM108.357 56.1222C106.469 57.2398 104.555 55.1739 105.59 53.1348C105.728 52.8637 105.939 52.636 106.19 52.4871C108.078 51.3692 109.992 53.4355 108.957 55.4746C108.82 55.746 108.608 55.9734 108.357 56.1222Z" fill="#FF4F5B"/>
    <path d="M163.459 25.6266C163.459 22.9572 160.704 21.2658 157.894 22.6039C157.26 22.9063 156.735 23.4178 156.416 24.0463C155.71 25.4399 156.022 27.0317 156.663 28.3528L158.849 33.9935C159.164 34.8066 160.296 34.8015 160.604 33.9859L162.747 28.3159C163.489 26.5889 163.459 25.6266 163.459 25.6266ZM160.819 27.9494C158.931 29.0674 157.017 27.0011 158.052 24.962C158.19 24.6905 158.401 24.4632 158.652 24.3143C160.541 23.1964 162.455 25.2627 161.419 27.3018C161.281 27.5733 161.071 27.801 160.819 27.9494Z" fill="#FF4F5B"/>
    <path d="M108.703 162.029L106.453 157.598L98.2734 161.836L101.498 168.354L102.022 168.124C104.343 167.082 113.751 162.66 115.027 161.413C116.45 160.021 108.703 162.029 108.703 162.029Z" fill="#FF4F5B"/>
    <g opacity="0.5">
      <g opacity="0.5">
        <path opacity="0.5" d="M104.432 166.752C103.967 166.117 103.264 165.667 102.501 165.517C101.737 165.367 100.949 165.488 100.286 165.903L101.448 168.231L104.432 166.752Z" fill="white"/>
      </g>
    </g>
    <g opacity="0.4">
      <g opacity="0.4">
        <path opacity="0.4" d="M112.551 161.172C112.551 161.172 115.344 160.625 115.244 161.191C115.145 161.756 105.802 166.589 101.498 168.354L101.418 168.161L112.363 162.619C112.363 162.618 112.084 161.439 112.551 161.172Z" fill="white"/>
      </g>
    </g>
    <path d="M101.288 168.222C101.289 168.226 101.34 168.206 101.436 168.165C101.561 168.11 101.698 168.049 101.852 167.981C102.265 167.79 102.773 167.555 103.372 167.277C104.651 166.673 106.407 165.815 108.326 164.825C110.245 163.833 111.963 162.898 113.197 162.204C113.771 161.876 114.257 161.597 114.652 161.372C114.798 161.285 114.927 161.209 115.044 161.138C115.133 161.084 115.179 161.054 115.177 161.05C115.175 161.047 115.126 161.07 115.033 161.118C114.913 161.183 114.781 161.253 114.631 161.333C114.231 161.55 113.74 161.817 113.159 162.133C111.916 162.809 110.193 163.732 108.275 164.723C106.357 165.713 104.608 166.582 103.338 167.204C102.745 167.494 102.243 167.74 101.834 167.94C101.682 168.016 101.548 168.083 101.426 168.144C101.334 168.192 101.286 168.219 101.288 168.222Z" fill="#1A2E35"/>
    <path d="M112.425 162.749C112.458 162.737 112.3 162.363 112.342 161.882C112.376 161.401 112.59 161.058 112.56 161.041C112.541 161.019 112.269 161.357 112.231 161.873C112.188 162.389 112.404 162.768 112.425 162.749Z" fill="#1A2E35"/>
    <path d="M109.389 162.751C109.419 162.754 109.463 162.551 109.487 162.298C109.511 162.044 109.505 161.837 109.475 161.834C109.444 161.831 109.4 162.034 109.376 162.287C109.352 162.54 109.358 162.748 109.389 162.751Z" fill="#1A2E35"/>
    <path d="M108.548 162.737C108.577 162.748 108.662 162.594 108.739 162.392C108.815 162.19 108.854 162.017 108.826 162.006C108.797 161.995 108.712 162.149 108.635 162.351C108.558 162.553 108.519 162.726 108.548 162.737Z" fill="#1A2E35"/>
    <path d="M107.737 162.167C107.751 162.195 107.954 162.121 108.192 162.002C108.429 161.882 108.611 161.763 108.597 161.735C108.583 161.707 108.38 161.781 108.142 161.9C107.905 162.02 107.724 162.139 107.737 162.167Z" fill="#1A2E35"/>
    <path d="M107.316 161.687C107.319 161.717 107.575 161.705 107.863 161.582C108.151 161.461 108.34 161.284 108.322 161.261C108.302 161.234 108.094 161.362 107.82 161.478C107.547 161.594 107.311 161.655 107.316 161.687Z" fill="#1A2E35"/>
    <path d="M109.303 161.88C109.308 161.892 109.523 161.813 109.828 161.605C109.98 161.501 110.152 161.363 110.325 161.19C110.409 161.1 110.502 161.016 110.578 160.89C110.612 160.827 110.645 160.748 110.625 160.656C110.607 160.565 110.52 160.496 110.439 160.484C109.804 160.479 109.444 161.027 109.389 161.388C109.354 161.575 109.373 161.731 109.396 161.833C109.421 161.936 109.448 161.987 109.455 161.985C109.477 161.982 109.385 161.756 109.466 161.405C109.506 161.232 109.6 161.036 109.767 160.875C109.925 160.723 110.181 160.571 110.415 160.594C110.53 160.614 110.547 160.731 110.483 160.835C110.425 160.937 110.33 161.029 110.252 161.117C110.088 161.289 109.925 161.43 109.782 161.54C109.495 161.76 109.295 161.864 109.303 161.88Z" fill="#1A2E35"/>
    <path d="M109.453 161.837C109.463 161.839 109.472 161.662 109.328 161.434C109.256 161.323 109.144 161.204 108.989 161.117C108.837 161.047 108.636 160.945 108.415 161.071C108.301 161.15 108.312 161.322 108.376 161.402C108.433 161.491 108.514 161.55 108.585 161.595C108.73 161.688 108.872 161.75 108.995 161.79C109.242 161.868 109.404 161.864 109.404 161.851C109.407 161.833 109.251 161.809 109.022 161.714C108.907 161.667 108.775 161.6 108.641 161.507C108.512 161.431 108.362 161.254 108.482 161.161C108.607 161.08 108.808 161.144 108.941 161.209C109.082 161.282 109.19 161.383 109.264 161.48C109.412 161.677 109.433 161.842 109.453 161.837Z" fill="#1A2E35"/>
    <path d="M100.317 165.857C100.328 165.875 100.54 165.713 100.932 165.566C101.319 165.418 101.905 165.307 102.527 165.437C103.149 165.568 103.645 165.905 103.943 166.196C104.246 166.489 104.378 166.723 104.395 166.711C104.401 166.707 104.374 166.646 104.312 166.543C104.25 166.439 104.147 166.297 103.999 166.14C103.707 165.826 103.199 165.463 102.55 165.326C101.901 165.191 101.293 165.32 100.903 165.491C100.706 165.576 100.556 165.666 100.459 165.736C100.361 165.806 100.313 165.851 100.317 165.857Z" fill="#1A2E35"/>
    <path d="M99.4346 161.952C99.4071 161.966 99.7577 162.748 100.218 163.699C100.678 164.651 101.073 165.411 101.101 165.397C101.128 165.383 100.778 164.601 100.317 163.649C99.8579 162.698 99.4626 161.938 99.4346 161.952Z" fill="#1A2E35"/>
    <path d="M105.056 165.407C105.065 165.435 105.643 165.248 106.31 164.91C106.979 164.573 107.475 164.218 107.458 164.193C107.441 164.165 106.924 164.475 106.261 164.808C105.6 165.144 105.045 165.376 105.056 165.407Z" fill="#1A2E35"/>
    <path d="M103.451 166.234C103.441 166.265 103.552 166.327 103.669 166.424C103.788 166.519 103.871 166.616 103.899 166.599C103.925 166.585 103.875 166.446 103.739 166.335C103.603 166.224 103.459 166.205 103.451 166.234Z" fill="#1A2E35"/>
    <path d="M102.465 165.781C102.455 165.811 102.551 165.87 102.679 165.914C102.807 165.957 102.919 165.969 102.929 165.939C102.939 165.909 102.843 165.85 102.714 165.806C102.586 165.763 102.474 165.752 102.465 165.781Z" fill="#1A2E35"/>
    <path d="M101.425 165.879C101.445 165.904 101.553 165.847 101.695 165.828C101.836 165.805 101.955 165.829 101.968 165.799C101.982 165.772 101.854 165.689 101.679 165.715C101.504 165.741 101.404 165.857 101.425 165.879Z" fill="#1A2E35"/>
    <path d="M100.727 166.033C100.73 166.064 100.799 166.082 100.88 166.074C100.962 166.066 101.026 166.034 101.023 166.002C101.02 165.971 100.951 165.953 100.869 165.961C100.787 165.969 100.724 166.001 100.727 166.033Z" fill="#1A2E35"/>
    <path d="M55.1624 165.528L57.1122 160.952L48.7155 157.179L45.7935 163.843L46.2992 164.111C48.5593 165.283 57.8728 169.908 59.6286 170.126C61.5878 170.369 55.1624 165.528 55.1624 165.528Z" fill="#FF4F5B"/>
    <g opacity="0.5">
      <g opacity="0.5">
        <path opacity="0.5" d="M48.8668 165.144C49.0569 164.376 48.9542 163.537 48.5855 162.84C48.2168 162.143 47.6266 161.598 46.892 161.337L45.8545 163.725L48.8668 165.144Z" fill="white"/>
      </g>
    </g>
    <g opacity="0.4">
      <g opacity="0.4">
        <path opacity="0.4" d="M58.2469 168.02C58.2469 168.02 60.429 169.878 59.9355 170.157C59.442 170.435 49.8575 166.122 45.7935 163.843L45.8897 163.658L57.0273 168.786C57.0268 168.786 57.749 167.821 58.2469 168.02Z" fill="white"/>
      </g>
    </g>
    <path d="M45.7603 163.593C45.7588 163.597 45.806 163.625 45.8978 163.674C46.0191 163.738 46.1516 163.808 46.3014 163.886C46.7079 164.091 47.2083 164.343 47.798 164.64C49.0663 165.267 50.8295 166.11 52.7964 166.997C54.7639 167.884 56.5625 168.647 57.8705 169.182C58.4828 169.428 59.0023 169.635 59.4241 169.804C59.5817 169.864 59.7216 169.917 59.8493 169.966C59.947 170.002 59.9991 170.019 60.0005 170.016C60.002 170.012 59.9529 169.988 59.8577 169.945C59.7324 169.891 59.595 169.831 59.4403 169.764C59.022 169.586 58.5074 169.367 57.9005 169.108C56.6003 168.555 54.8081 167.78 52.8416 166.894C50.8761 166.007 49.1085 165.176 47.8323 164.568C47.2363 164.284 46.7315 164.043 46.321 163.847C46.1678 163.776 46.0323 163.712 45.9086 163.654C45.8128 163.611 45.7623 163.59 45.7603 163.593Z" fill="#1A2E35"/>
    <path d="M56.9672 168.918C56.9967 168.936 57.1813 168.576 57.5741 168.305C57.962 168.027 58.3587 167.979 58.3523 167.945C58.3572 167.916 57.9276 167.915 57.5107 168.212C57.0904 168.504 56.9387 168.913 56.9672 168.918Z" fill="#1A2E35"/>
    <path d="M55.0452 166.524C55.0624 166.55 55.2445 166.457 55.4522 166.315C55.6599 166.174 55.8146 166.038 55.7974 166.012C55.7802 165.986 55.5981 166.08 55.3904 166.221C55.1832 166.363 55.0285 166.498 55.0452 166.524Z" fill="#1A2E35"/>
    <path d="M54.5253 165.852C54.5352 165.882 54.7065 165.852 54.9083 165.784C55.1106 165.717 55.2663 165.638 55.257 165.609C55.2471 165.579 55.0758 165.609 54.874 165.677C54.6717 165.744 54.5155 165.823 54.5253 165.852Z" fill="#1A2E35"/>
    <path d="M54.4459 164.853C54.4332 164.881 54.6183 164.995 54.8594 165.106C55.1004 165.218 55.3062 165.286 55.3189 165.257C55.3317 165.229 55.1466 165.115 54.9055 165.003C54.6644 164.892 54.4587 164.824 54.4459 164.853Z" fill="#1A2E35"/>
    <path d="M54.5451 164.217C54.5245 164.239 54.6959 164.433 54.9708 164.582C55.2458 164.732 55.4992 164.77 55.5051 164.74C55.5129 164.709 55.2841 164.625 55.0234 164.482C54.7617 164.341 54.5662 164.193 54.5451 164.217Z" fill="#1A2E35"/>
    <path d="M55.6544 165.907C55.649 165.918 55.8444 166.037 56.1955 166.146C56.3703 166.201 56.5844 166.249 56.8255 166.276C56.9472 166.285 57.0695 166.306 57.2143 166.286C57.2836 166.273 57.3651 166.249 57.422 166.175C57.48 166.103 57.477 165.991 57.4358 165.919C57.0381 165.415 56.3939 165.478 56.0845 165.663C55.9191 165.754 55.812 165.867 55.7492 165.95C55.6868 166.035 55.6652 166.089 55.6706 166.092C55.6863 166.108 55.8007 165.892 56.1199 165.734C56.2765 165.657 56.4852 165.607 56.713 165.637C56.9286 165.665 57.2065 165.772 57.3366 165.971C57.394 166.074 57.3165 166.162 57.1962 166.176C57.0822 166.195 56.9516 166.178 56.8358 166.172C56.6006 166.151 56.3904 166.112 56.2166 166.069C55.8675 165.982 55.6613 165.89 55.6544 165.907Z" fill="#1A2E35"/>
    <path d="M55.7823 165.997C55.7872 166.007 55.9277 165.902 56.0101 165.644C56.0494 165.517 56.0686 165.353 56.0372 165.176C55.9949 165.012 55.9453 164.789 55.7096 164.695C55.5776 164.655 55.4538 164.772 55.4332 164.874C55.4013 164.974 55.4077 165.076 55.4185 165.16C55.4391 165.333 55.4813 165.485 55.529 165.607C55.6252 165.851 55.7308 165.976 55.7411 165.968C55.7563 165.959 55.6763 165.821 55.6031 165.58C55.5668 165.46 55.5344 165.313 55.5201 165.149C55.4966 164.999 55.5363 164.769 55.6826 164.804C55.8236 164.852 55.9016 165.05 55.9365 165.197C55.9699 165.354 55.961 165.503 55.934 165.623C55.8786 165.865 55.7661 165.985 55.7823 165.997Z" fill="#1A2E35"/>
    <path d="M46.9469 161.332C46.9405 161.352 47.1973 161.417 47.5572 161.634C47.9147 161.845 48.3694 162.238 48.664 162.811C48.9581 163.384 49.0145 163.988 48.9812 164.408C48.9502 164.831 48.8559 165.083 48.8756 165.089C48.882 165.092 48.9119 165.032 48.9507 164.917C48.99 164.803 49.0332 164.631 49.0592 164.415C49.1137 163.986 49.0686 163.356 48.7622 162.758C48.4548 162.161 47.9726 161.763 47.5955 161.564C47.406 161.462 47.2435 161.4 47.1286 161.368C47.0142 161.335 46.9489 161.326 46.9469 161.332Z" fill="#1A2E35"/>
    <path d="M49.361 158.168C49.333 158.155 48.9593 158.926 48.5262 159.89C48.0927 160.855 47.7642 161.647 47.7922 161.66C47.8202 161.673 48.1938 160.902 48.6274 159.938C49.0605 158.973 49.3889 158.181 49.361 158.168Z" fill="#1A2E35"/>
    <path d="M50.2855 164.786C50.2703 164.811 50.7775 165.149 51.457 165.461C52.1361 165.776 52.7194 165.942 52.7283 165.914C52.7386 165.883 52.1754 165.67 51.5032 165.358C50.8295 165.049 50.3017 164.758 50.2855 164.786Z" fill="#1A2E35"/>
    <path d="M48.6414 164.043C48.612 164.055 48.6351 164.182 48.6351 164.335C48.6375 164.489 48.6169 164.616 48.6464 164.627C48.6734 164.639 48.7485 164.511 48.746 164.334C48.7455 164.157 48.6685 164.031 48.6414 164.043Z" fill="#1A2E35"/>
    <path d="M48.3617 162.979C48.3327 162.99 48.3484 163.103 48.3966 163.231C48.4447 163.36 48.5065 163.455 48.5355 163.444C48.564 163.433 48.5488 163.32 48.5007 163.191C48.4525 163.063 48.3907 162.968 48.3617 162.979Z" fill="#1A2E35"/>
    <path d="M47.6312 162.22C47.6243 162.252 47.7362 162.301 47.8403 162.401C47.9469 162.498 48.0043 162.607 48.0348 162.598C48.0642 162.592 48.0461 162.439 47.9154 162.317C47.7858 162.195 47.6341 162.19 47.6312 162.22Z" fill="#1A2E35"/>
    <path d="M47.0726 161.767C47.0509 161.789 47.08 161.855 47.1381 161.914C47.1962 161.973 47.2607 162.003 47.2824 161.981C47.304 161.959 47.275 161.893 47.2169 161.834C47.1593 161.774 47.0943 161.745 47.0726 161.767Z" fill="#1A2E35"/>
    <path d="M95.2709 79.9011C95.6313 80.0045 96.0575 80.115 96.5657 80.2225C97.0017 80.3134 97.45 80.3249 97.8909 80.2624C98.4251 80.187 99.1312 80.057 99.4965 79.8636C99.9477 79.6246 100.451 80.0685 100.245 80.4904C100.04 80.9123 98.8115 81.6026 97.174 81.6826C95.537 81.763 97.614 83.3201 98.3608 83.9014C99.1076 84.4828 101.336 86.3918 101.342 86.7671C101.352 87.3175 100.774 87.429 100.041 86.8306C99.2991 86.2253 96.9869 84.5962 96.7046 85.0126C96.4262 85.4225 100.268 88.3292 100.268 88.3292C100.268 88.3292 101.188 88.8151 100.878 89.3074C100.317 90.1952 96.4562 86.7991 96.0962 86.4667C95.8463 86.2358 95.5232 86.6772 95.8046 86.9106C96.0943 87.1511 99.7037 89.7188 99.141 90.6286C98.7094 91.3264 95.9396 87.8648 94.9001 87.7559C93.8607 87.6464 97.2629 90.1637 96.8239 90.8125C96.6604 91.0545 96.5058 91.2119 94.7568 89.4794C93.9078 88.6386 92.5443 86.9361 91.3448 85.3775L91.3271 85.3955C91.3271 85.3955 84.0906 79.0538 80.2568 71.8448C80.2568 71.8448 76.3331 60.0366 75.6958 54.0072L84.1451 52.2187C84.1451 52.2187 86.0021 63.9415 87.5522 67.7409C89.1038 71.5409 95.2709 79.9011 95.2709 79.9011Z" fill="#FFBF9D"/>
    <path d="M45.2822 160.623L55.8104 165.596L74.6839 131.35C77.1448 122.317 79.5149 90.5131 79.5149 90.5131L65.8644 91.5743C65.8644 91.5743 63.7614 114.406 60.4583 126.172L45.2822 160.623Z" fill="#1A2E35"/>
    <path d="M57.4712 162.244C57.456 162.276 56.8447 162.022 55.869 161.586C54.8934 161.151 53.5529 160.532 52.0799 159.834C50.6059 159.137 49.2777 158.492 48.3217 158.013C47.3657 157.534 46.7814 157.222 46.7957 157.189C46.8099 157.156 47.4207 157.41 48.3964 157.845C49.372 158.281 50.7129 158.9 52.1879 159.598C53.6624 160.296 54.9911 160.942 55.9471 161.42C56.9031 161.899 57.4864 162.211 57.4712 162.244Z" fill="#375A64"/>
    <path d="M59.6319 77.7126C59.3781 77.7266 56.5837 86.1378 59.2725 91.7207C59.5431 92.2821 61.6515 95.3612 61.6515 95.3612C69.0903 104.296 76.6258 121.627 78.7302 126.18C83.0472 135.519 98.9584 166.241 98.9584 166.241L109.178 160.284L94.2349 121.172L80.6732 85.8734L59.6319 77.7126Z" fill="#1A2E35"/>
    <path d="M66.1461 100.585C66.1623 100.577 66.3052 100.857 66.5502 101.37C66.8114 101.921 67.1585 102.654 67.5793 103.542C68.4469 105.377 69.6696 107.9 71.0247 110.686C72.3804 113.472 73.579 116.011 74.4053 117.867C74.8188 118.795 75.1458 119.55 75.3613 120.076C75.5784 120.601 75.6908 120.895 75.6746 120.903C75.6584 120.91 75.5155 120.63 75.2705 120.118C75.0093 119.567 74.6621 118.833 74.2414 117.945C73.3737 116.11 72.1511 113.587 70.7954 110.8C69.4403 108.015 68.2417 105.477 67.4153 103.62C67.0019 102.692 66.6749 101.937 66.4593 101.411C66.2423 100.886 66.1299 100.592 66.1461 100.585Z" fill="#375A64"/>
    <path d="M108.415 158.465C108.446 158.529 106.085 159.8 103.141 161.304C100.197 162.809 97.7842 163.976 97.7528 163.912C97.7213 163.847 100.082 162.576 103.027 161.072C105.97 159.568 108.383 158.401 108.415 158.465Z" fill="#375A64"/>
    <path d="M19.2658 164.683C19.4342 166.324 18.2642 167.792 16.6532 167.964C15.0422 168.135 13.5991 166.944 13.4307 165.304C13.2623 163.663 14.4323 162.195 16.0433 162.023C17.6548 161.852 19.0974 163.043 19.2658 164.683Z" fill="#1A2E35"/>
    <path d="M16.9555 165.036L18.8964 161.352L17.9846 160.705L16.0913 164.556L16.9555 165.036Z" fill="#375A64"/>
    <path d="M36.8696 115.757L49.1674 86.7427L51.2312 87.9088L39.2864 116.669L36.8696 115.757Z" fill="#1A2E35"/>
    <path d="M24.1377 164.553L10.8319 158.511C10.1479 158.201 9.84053 157.385 10.1459 156.688L27.7265 116.558C29.3414 112.872 33.5867 111.216 37.2079 112.86L39.8765 114.072C43.4977 115.716 45.1244 120.038 43.509 123.724L25.9284 163.854C25.6235 164.551 24.8217 164.864 24.1377 164.553Z" fill="#FF4F5B"/>
    <path d="M46.0137 94.1836L48.2011 95.2043L51.5051 87.9079L49.1674 86.7427L46.0137 94.1836Z" fill="#1A2E35"/>
    <path d="M25.8891 164.219C25.8891 164.219 25.9171 164.132 25.9838 163.967C26.0555 163.793 26.1562 163.55 26.2858 163.237C26.5608 162.588 26.959 161.647 27.4696 160.44C28.512 158.006 30.0135 154.502 31.8676 150.175C33.7339 145.841 35.9548 140.686 38.4201 134.963C39.656 132.102 40.9527 129.098 42.2976 125.984C42.634 125.206 42.9732 124.421 43.3155 123.629C43.6749 122.859 43.8173 122.001 43.7613 121.147C43.6317 119.435 42.5294 117.813 40.9365 117.108C39.3506 116.385 37.4297 116.65 36.1006 117.708C35.4431 118.242 34.9168 118.928 34.601 119.718C34.2583 120.509 33.918 121.294 33.5807 122.072C32.2309 125.185 30.9293 128.187 29.689 131.047C27.2045 136.762 24.9665 141.91 23.0859 146.237C21.2009 150.55 19.6739 154.044 18.6138 156.469C18.084 157.667 17.671 158.601 17.3863 159.245C17.2468 159.554 17.1383 159.793 17.0612 159.964C16.9866 160.126 16.9424 160.206 16.9424 160.206C16.9424 160.206 16.9704 160.119 17.0371 159.953C17.1088 159.779 17.2095 159.537 17.3391 159.224C17.6141 158.574 18.0123 157.634 18.5229 156.427C19.5654 153.994 21.0669 150.49 22.9204 146.163C24.7867 141.829 27.0076 136.674 29.4734 130.95C30.7093 128.088 32.0065 125.084 33.3514 121.969C33.6878 121.191 34.0275 120.405 34.3698 119.614C34.6953 118.796 35.2536 118.062 35.9449 117.503C37.3438 116.387 39.3687 116.108 41.0396 116.87C42.7184 117.612 43.8801 119.323 44.0147 121.126C44.0756 122.022 43.9194 122.937 43.5467 123.732C43.204 124.524 42.8637 125.308 42.5269 126.087C41.1776 129.198 39.876 132.2 38.6362 135.06C36.1516 140.775 33.9141 145.922 32.0336 150.249C30.1486 154.561 28.6215 158.055 27.5614 160.481C27.0316 161.679 26.6187 162.613 26.3334 163.258C26.194 163.566 26.0855 163.806 26.0084 163.977C25.9333 164.139 25.8891 164.219 25.8891 164.219Z" fill="#1A2E35"/>
    <path d="M27.5824 134.46C27.5549 134.526 26.0789 133.957 24.2852 133.188C22.4916 132.419 21.0598 131.742 21.0873 131.676C21.1148 131.61 22.5908 132.179 24.3844 132.948C26.1781 133.717 27.6099 134.394 27.5824 134.46Z" fill="#1A2E35"/>
    <path d="M78.6784 39.9736C78.6784 39.9736 84.897 40.1755 86.1702 52.2192L86.5341 59.5397L83.6455 60.7698L78.2017 40.211" fill="#FF4F5B"/>
    <path d="M66.812 39.8082C66.812 39.8082 64.0752 39.8996 61.3525 45.2467C59.1891 49.4955 57.751 85.8389 57.751 85.8389L83.6453 86.6602C83.6453 86.6602 83.4258 78.291 83.6453 67.9504C84.0082 50.8606 84.1118 43.1892 79.5149 39.9731C76.6975 38.0022 72.1135 37.9507 66.812 39.8082Z" fill="#FF4F5B"/>
    <path d="M83.8883 66.9187C83.8176 66.9202 83.6757 63.2347 83.5707 58.6874C83.4661 54.1387 83.4381 50.4512 83.5088 50.4492C83.5795 50.4477 83.7214 54.1322 83.8265 58.6809C83.9311 63.2282 83.959 66.9167 83.8883 66.9187Z" fill="#1A2E35"/>
    <path d="M48.2389 88.934C48.5276 87.5709 49.3064 85.9099 50.4362 87.119C51.5665 88.3282 52.8819 88.8241 53.3297 88.7061C53.7775 88.5881 53.7795 87.9108 53.3066 87.7194C52.9241 87.5644 52.3663 87.1051 51.9608 86.7427C51.6264 86.4437 51.3416 86.0903 51.1241 85.6949C50.8717 85.2336 50.6753 84.8327 50.5167 84.4878C50.5167 84.4878 52.7017 74.2716 54.5135 70.5941C56.3249 66.9167 63.827 57.8242 63.827 57.8242L56.9749 52.4832C52.9089 56.9149 46.6947 67.6554 46.6947 67.6554C43.8405 75.3213 43.8552 85.0416 43.8552 85.0416L43.8802 85.0431C43.7698 85.617 43.6696 86.0863 43.5822 86.4937C43.0863 88.8016 44.4964 91.8667 46.7394 92.4721L48.2389 88.934Z" fill="#FFBF9D"/>
    <path d="M47.1801 91.6693C47.1713 91.6943 46.8634 91.5828 46.5521 91.178C46.2374 90.7801 45.9924 90.0977 45.9497 89.3355C45.9099 88.5762 45.9801 87.9068 45.9811 87.4245C45.9914 86.9421 45.9629 86.6432 46.0003 86.6362C46.0322 86.6292 46.126 86.9251 46.1618 87.419C46.207 87.9119 46.1662 88.5907 46.205 89.319C46.2463 90.0438 46.4471 90.6796 46.6999 91.0715C46.9474 91.4694 47.2052 91.6323 47.1801 91.6693Z" fill="#BF5445"/>
    <path d="M46.7923 92.4351C46.7987 92.4656 46.4888 92.5076 46.0995 92.2477C45.7008 91.9962 45.3679 91.4369 45.0973 90.8276C44.5341 89.5859 44.4482 88.4672 44.514 88.4637C44.5881 88.4502 44.7841 89.5184 45.3301 90.7196C45.5986 91.3229 45.882 91.8443 46.207 92.0997C46.5237 92.3666 46.7987 92.3951 46.7923 92.4351Z" fill="#BF5445"/>
    <path d="M66.4753 39.9736C65.9312 40.2215 58.8583 41.9885 55.1212 48.6157L50.7969 55.3204L63.1477 63.1207L69.6393 46.4188L66.4753 39.9736Z" fill="#FF4F5B"/>
    <path d="M51.2502 55.5643C51.2546 55.5563 51.3395 55.5983 51.4967 55.6852C51.6774 55.7887 51.9027 55.9177 52.1782 56.0751C52.7954 56.442 53.636 56.9414 54.6602 57.5507C56.7716 58.8354 59.6351 60.5774 62.7992 62.5024L62.8139 62.5114L62.8483 62.5423C62.8301 62.5149 62.7953 62.5054 62.7717 62.5084C62.7535 62.5114 62.7575 62.5114 62.7575 62.5114C62.7673 62.5044 62.7825 62.4904 62.7992 62.4734C62.8321 62.4379 62.8655 62.3949 62.8974 62.3504C62.9617 62.2609 63.0221 62.1645 63.081 62.0675C63.1984 61.8725 63.3089 61.6726 63.4164 61.4726C63.6305 61.0723 63.8318 60.6709 64.0262 60.275C64.4146 59.4822 64.7755 58.7094 65.1153 57.9716C65.7934 56.495 66.3841 55.1554 66.8746 54.0282C67.3469 52.923 67.7343 52.0168 68.0191 51.3509C68.1438 51.056 68.2455 50.8151 68.327 50.6216C68.3987 50.4552 68.4394 50.3692 68.4478 50.3722C68.4556 50.3752 68.4316 50.4677 68.3751 50.6401C68.3186 50.8126 68.2307 51.0655 68.1114 51.3884C67.8728 52.0348 67.5104 52.963 67.0405 54.1007C66.5706 55.2384 65.9966 56.587 65.3289 58.0721C64.9945 58.8144 64.6375 59.5907 64.2506 60.3884C64.0567 60.7873 63.8554 61.1912 63.6398 61.5966C63.5318 61.7991 63.4198 62.002 63.2986 62.2039C63.2377 62.3049 63.1753 62.4049 63.1036 62.5044C63.0678 62.5543 63.03 62.6038 62.9838 62.6538C62.9603 62.6788 62.9337 62.7048 62.8954 62.7313C62.8714 62.7448 62.8483 62.7608 62.8021 62.7673C62.7471 62.7763 62.6887 62.7523 62.648 62.7043L62.6823 62.7348L62.6676 62.7258C59.5183 60.7753 56.6685 59.0098 54.5674 57.7087C53.5604 57.0704 52.734 56.547 52.1271 56.1626C51.8615 55.9882 51.6445 55.8452 51.4702 55.7307C51.3219 55.6288 51.2458 55.5718 51.2502 55.5643Z" fill="#1A2E35"/>
    <path d="M73.9838 44.102C76.5989 44.102 78.639 41.7961 78.3665 39.1483C78.2183 37.7092 78.0926 36.5371 78.0926 36.5371C78.0926 36.5371 81.5763 35.9857 81.619 32.4397C81.6622 28.8937 81.0582 20.7519 81.0582 20.7519C77.0261 18.9879 72.3723 19.5833 68.895 22.3085L68.3789 22.7129L69.5883 39.9356C69.7528 42.283 71.6716 44.102 73.9838 44.102Z" fill="#FFBF9D"/>
    <path d="M80.2759 26.5683C80.021 26.4518 79.9071 26.1469 80.0215 25.8875C80.1359 25.6281 80.4354 25.5121 80.6903 25.6286C80.9451 25.745 81.059 26.0499 80.9446 26.3094C80.8302 26.5688 80.5307 26.6848 80.2759 26.5683Z" fill="#1A2E35"/>
    <path d="M81.0342 25.7635C81.0008 25.839 80.5942 25.6921 80.1376 25.8405C79.6785 25.9825 79.4261 26.3389 79.3569 26.2959C79.3235 26.2774 79.3417 26.1549 79.4507 25.9955C79.5567 25.8375 79.7659 25.6496 80.0517 25.5591C80.3369 25.4686 80.6139 25.5021 80.7897 25.5706C80.9679 25.6386 81.0509 25.729 81.0342 25.7635Z" fill="#1A2E35"/>
    <path d="M75.9027 26.2574C76.1403 26.4064 76.2149 26.7233 76.0686 26.9657C75.9223 27.2081 75.611 27.2836 75.3728 27.1347C75.1347 26.9857 75.0606 26.6688 75.2069 26.4264C75.3532 26.1844 75.665 26.1084 75.9027 26.2574Z" fill="#1A2E35"/>
    <path d="M76.0358 26.3769C76.0108 26.4559 75.5909 26.3549 75.153 26.5539C74.712 26.7463 74.4994 27.1287 74.4258 27.0937C74.3909 27.0792 74.3958 26.9553 74.4867 26.7848C74.5751 26.6159 74.7631 26.4059 75.0371 26.284C75.3111 26.162 75.59 26.1645 75.7716 26.213C75.9563 26.2605 76.0486 26.3409 76.0358 26.3769Z" fill="#1A2E35"/>
    <path d="M77.8144 30.4947C77.8109 30.4567 78.1075 30.3953 78.5902 30.3273C78.7158 30.3133 78.8141 30.2843 78.8234 30.2158C78.846 30.1388 78.7974 30.0024 78.7335 29.8499C78.6098 29.527 78.4851 29.2001 78.354 28.8577C77.8301 27.4441 77.4623 26.2764 77.5325 26.2489C77.6032 26.2219 78.0849 27.3456 78.6088 28.7592C78.7325 29.1041 78.8514 29.4335 78.9682 29.7594C79.0144 29.9074 79.1013 30.0798 79.037 30.2903C79.0021 30.3958 78.9034 30.4722 78.8209 30.4942C78.7379 30.5197 78.6672 30.5197 78.6069 30.5227C78.1203 30.5412 77.8178 30.5332 77.8144 30.4947Z" fill="#1A2E35"/>
    <path d="M76.2555 31.0346C75.7557 30.7317 77.6318 31.7789 78.608 31.7304C78.608 31.7304 78.0477 32.6417 77.0436 32.2678C76.0012 31.8794 76.2555 31.0346 76.2555 31.0346Z" fill="white"/>
    <path d="M78.098 36.4856C78.098 36.4856 75.8968 36.668 73.5571 35.1719C73.5571 35.1719 74.6305 37.7238 78.1058 37.4043L78.098 36.4856Z" fill="#BF5445"/>
    <path d="M68.3704 26.1434C68.2933 26.1194 65.7744 25.9455 66.1923 28.9346C66.6106 31.9238 69.4378 30.5057 69.4309 30.4187C69.4241 30.3328 68.3704 26.1434 68.3704 26.1434Z" fill="#FFBF9D"/>
    <path d="M68.3846 29.5005C68.3704 29.4925 68.3385 29.5445 68.258 29.5975C68.1789 29.6489 68.038 29.6969 67.8769 29.6609C67.5504 29.59 67.219 29.1266 67.1296 28.5897C67.084 28.3188 67.1036 28.0514 67.1684 27.8235C67.2273 27.5915 67.3452 27.4191 67.4974 27.3681C67.6476 27.3091 67.7714 27.3881 67.8195 27.4671C67.8706 27.545 67.8602 27.6075 67.8765 27.61C67.8858 27.6165 67.9324 27.551 67.8917 27.4306C67.871 27.3731 67.8269 27.3076 67.7498 27.2601C67.6712 27.2121 67.5632 27.1971 67.4561 27.2251C67.2322 27.2741 67.0579 27.5155 66.9867 27.766C66.9033 28.0194 66.8748 28.3208 66.9259 28.6247C67.029 29.2246 67.4105 29.7439 67.8524 29.8074C68.0665 29.8324 68.23 29.7439 68.309 29.6604C68.3896 29.574 68.3959 29.5045 68.3846 29.5005Z" fill="#BF5445"/>
    <path d="M66.8659 22.8204C66.9013 23.8011 67.6942 24.8133 68.0325 25.7315L68.1067 26.3344L69.0666 29.8114L70.4935 29.1581L69.8056 23.4442C69.8056 23.4442 69.5154 21.2328 71.4053 21.3093C73.2952 21.3858 75.9785 23.3817 79.6032 22.6084C80.1899 22.4829 80.8032 22.377 81.2775 22.0036C81.7518 21.6302 82.072 21.0104 81.9664 20.4095C81.8608 19.8087 81.2451 19.3098 80.6633 19.4573C81.4572 19.3838 82.046 18.4381 81.772 17.6758C81.498 16.9135 80.4492 16.5776 79.7957 17.043C80.1624 16.6426 80.539 16.2257 80.7138 15.7083C80.8886 15.191 80.8062 14.5411 80.3765 14.2117C79.9533 13.8878 79.3425 13.9733 78.8691 14.2152C78.1513 14.5816 77.6082 15.252 76.8678 15.5679C76.119 15.8873 75.272 15.8033 74.4648 15.8903C73.5721 15.9862 72.6844 16.3122 72.02 16.927C71.3557 17.5413 70.9418 18.4656 71.0473 19.3733C69.947 19.3038 68.7416 19.3658 67.8931 20.0666C67.8931 20.0671 66.803 21.0608 66.8659 22.8204Z" fill="#1A2E35"/>
    <path d="M75.6954 24.5959C75.6517 24.7353 75.1367 24.6788 74.6029 24.8993C74.0643 25.1072 73.724 25.5051 73.5993 25.4331C73.5404 25.3981 73.5512 25.2357 73.6793 25.0222C73.8041 24.8108 74.0594 24.5574 74.4168 24.4149C74.7738 24.2725 75.1303 24.281 75.363 24.3499C75.5987 24.4179 75.7151 24.5294 75.6954 24.5959Z" fill="#1A2E35"/>
    <path d="M80.5889 23.9185C80.5452 24.059 80.1843 24.0685 79.7959 24.204C79.4031 24.3254 79.1046 24.5319 78.9887 24.4439C78.9361 24.3999 78.9499 24.2724 79.0574 24.1185C79.163 23.9655 79.3702 23.7966 79.6388 23.7081C79.9078 23.6201 80.1725 23.6336 80.3458 23.6951C80.5216 23.7566 80.6061 23.8515 80.5889 23.9185Z" fill="#1A2E35"/>
    <path d="M69.8991 27.549C70.1623 26.9402 70.805 26.5558 71.026 25.9295C71.1492 25.5806 71.1257 25.1982 71.0982 24.8283C71.0098 23.6336 70.8993 22.4405 70.7667 21.2498C70.755 21.1438 70.7383 21.0284 70.6622 20.9554C70.5399 20.8389 70.341 20.8949 70.1932 20.9739C69.5029 21.3413 69.03 22.0581 68.8405 22.8269C68.6505 23.5956 68.7207 24.4124 68.9205 25.1787C69.1199 25.945 69.4449 26.6708 69.7675 27.3926" fill="#1A2E35"/>
    <g opacity="0.3">
      <path opacity="0.3" d="M58.6757 67.2386C58.6227 66.2993 59.696 65.7005 60.6196 65.664C61.5432 65.6275 62.6234 66.1644 63.3771 65.62C64.5909 64.7432 65.3048 62.6503 65.7443 61.3557C66.8721 58.0321 67.4319 55.6898 67.9538 52.2142C66.1827 55.8662 64.5487 59.2353 62.7776 62.8868L60.8352 61.6241C60.405 61.9085 59.2188 63.4561 59.0037 64.3119C58.7886 65.1676 58.8029 66.0634 58.7125 66.9416" fill="black"/>
    </g>
  </g>
  <defs>
    <clipPath id="clip0_6859_98300">
      <rect width="208" height="170" fill="white"/>
    </clipPath>
  </defs>
</svg>
