<svg width="48" height="34" viewBox="0 0 48 34" fill="none" xmlns="http://www.w3.org/2000/svg">
<path d="M46.9968 5.44643C46.4448 3.38111 44.8186 1.75483 42.7533 1.20293C39.0097 0.199707 23.9998 0.199707 23.9998 0.199707C23.9998 0.199707 8.98997 0.199707 5.24625 1.20293C3.18141 1.75483 1.55475 3.38111 1.00275 5.44643C0 9.18968 0 16.9998 0 16.9998C0 16.9998 0 24.8099 1.00275 28.5528C1.55475 30.6181 3.18141 32.2448 5.24625 32.7967C8.98997 33.7995 23.9998 33.7995 23.9998 33.7995C23.9998 33.7995 39.0097 33.7995 42.7533 32.7967C44.8186 32.2448 46.4448 30.6181 46.9968 28.5528C48 24.8099 48 16.9998 48 16.9998C48 16.9998 48 9.18968 46.9968 5.44643Z" fill="#ED1F24"/>
<path d="M19.1953 24.2005L31.6658 17.0004L19.1953 9.80029V24.2005Z" fill="white"/>
</svg>
