<svg width="180" height="165" viewBox="0 0 180 165" fill="none" xmlns="http://www.w3.org/2000/svg">
  <g clip-path="url(#clip0_6504_96464)">
    <path d="M156.499 132.705C153.182 131.765 151.883 133.53 151.883 133.53C151.883 133.53 152.944 127.212 149.55 111.627C146.157 96.0427 130.239 82.251 127.915 77.9816C125.679 73.8725 123.133 56.8357 121.923 47.9496C121.335 43.6367 118.756 39.8276 114.921 37.7204C110.588 35.3399 105.777 33.4827 105.777 33.4827C106.239 33.2058 102.392 27.2682 98.9418 27.2627C95.8138 27.258 79.6294 21.2627 70.26 30.6876C68.9607 31.9948 67.0145 38.1273 67.0145 38.1273C67.0145 38.1273 63.7652 41.5232 60.9798 44.0747C58.1944 46.6262 47.9819 73.0961 43.9217 80.0097C39.8615 86.9233 40.7864 101.673 40.7864 101.673C31.2699 103.977 23.6423 108.377 20.8009 119.209C17.9591 130.041 27.2708 137.811 27.2708 137.811L160 137.746C159.76 135.181 158.167 133.178 156.499 132.705Z" fill="#FF4F5B"/>
    <g opacity="0.5">
      <g opacity="0.5">
        <path opacity="0.5" d="M95.7441 30.5195C96.2102 30.3828 102.446 30.6464 104.152 39.1586L97.6219 39.4907L95.7441 30.5195Z" fill="black"/>
      </g>
    </g>
    <g opacity="0.5">
      <g opacity="0.5">
        <path opacity="0.5" d="M145.096 117.475C140.742 108.072 124.782 112.482 121.323 110.245C119.818 109.272 117.583 108.608 115.542 106.561L115.974 111.873L117.788 137.949L148.445 137.816C148.445 137.816 149.45 126.878 145.096 117.475Z" fill="black"/>
      </g>
    </g>
    <g opacity="0.5">
      <g opacity="0.5">
        <path opacity="0.5" d="M67.4948 85.7539C66.9503 86.1594 55.6525 90.6194 55.6525 91.0249C55.6525 91.4304 54.1552 106.432 54.1552 106.432L34.8261 109.136L26.6588 113.464L23.4684 119.739L21.4861 126.3L26.2439 134.719L28.8679 137.838L76.0705 137.973V102.783C76.0705 102.783 68.7928 85.7539 68.1438 85.7539" fill="black"/>
      </g>
    </g>
    <g opacity="0.5">
      <g opacity="0.5">
        <path opacity="0.5" d="M67.3579 42.24C67.3579 42.24 69.3574 37.8155 69.6798 37.5262C69.8326 37.3895 70.1394 36.0157 70.42 34.6081C70.633 33.5385 71.0393 32.4305 71.6776 31.5715C72.2534 30.7968 73.0259 30.2456 73.8776 29.7422L77.6765 38.3625L74.6915 42.5938L67.3579 42.24Z" fill="black"/>
      </g>
    </g>
    <path d="M107.056 39.4904L98.0503 38.1016L71.5876 40.3386C71.5876 40.3386 62.124 61.9349 62.6891 62.5331C62.9753 62.8361 70.4872 86.6083 70.4872 86.6083L69.9621 106.174C69.9621 106.174 67.2783 109.465 66.8203 111.816C65.3768 119.226 114.883 121.001 116.098 116.597V44.8053L107.056 39.4904Z" fill="#375A64"/>
    <path d="M71.5887 40.3398C71.5887 40.3398 63.245 41.1795 60.9635 46.7291C58.6821 52.2787 51.6669 83.979 51.6669 83.979C51.6669 83.979 50.625 90.8687 53.5399 94.568C56.0232 97.7194 63.6151 97.0438 68.1702 94.9859C75.7483 91.5622 81.7538 68.7331 81.7538 68.7331L85.0307 60.8294L72.7292 56.8297L67.1399 68.8348L71.5887 40.3398Z" fill="#375A64"/>
    <path d="M101.598 38.7285C102.054 38.8418 116.498 40.8519 119.122 43.2299C121.745 45.6079 121.432 66.7932 121.432 66.7932C121.432 66.7932 119.127 93.5032 116.96 95.2394C114.792 96.9756 105.302 103.379 99.977 91.267C98.4242 87.7352 95.0134 83.4137 92.8844 78.9414C88.7996 70.3604 85.9983 61.8704 85.9983 61.8704L98.1277 56.2302L107.538 72.053L105.834 49.347L101.598 38.7285Z" fill="#375A64"/>
    <path d="M70.2857 21.528C69.1486 14.9349 73.3022 8.58106 79.8294 6.92605L80.4779 6.76154C87.5758 5.39369 92.711 10.6151 93.892 17.6975L99.7749 45.8027C99.8734 46.2745 99.7004 46.7616 99.3251 47.0672L85.4858 58.3339L82.2502 43.6208C82.2502 43.6208 75.26 44.2879 73.4602 37.6345C72.5908 34.4219 71.3431 27.6604 70.2857 21.528Z" fill="#FFBF9D"/>
    <path d="M82.1758 43.6287C82.1758 43.6287 86.5342 42.7968 90.3254 38.8359C90.3254 38.8359 89.4896 44.1646 82.6272 45.2641L82.1758 43.6287Z" fill="#FF9A6C"/>
    <path d="M76.7388 25.4947C76.6041 25.3793 75.9121 26.0015 74.8504 26.1032C73.7917 26.2198 72.9589 25.7545 72.8569 25.8951C72.8061 25.9579 72.9533 26.1758 73.317 26.3878C73.675 26.5989 74.2681 26.7805 74.9287 26.7125C75.5893 26.6437 76.1208 26.3476 76.4156 26.069C76.7178 25.7878 76.8051 25.546 76.7388 25.4947Z" fill="#1A2E35"/>
    <path d="M86.8937 24.3097C86.7379 24.223 86.1822 24.9691 85.1631 25.2763C84.1487 25.5981 83.2397 25.3054 83.1674 25.463C83.1304 25.5344 83.3172 25.7194 83.7166 25.8553C84.1095 25.9921 84.7267 26.0536 85.3611 25.8579C85.995 25.6609 86.4572 25.266 86.6909 24.9353C86.9298 24.6011 86.9681 24.3469 86.8937 24.3097Z" fill="#1A2E35"/>
    <path d="M81.2261 31.6711C81.2157 31.6117 80.5456 31.6642 79.4709 31.7959C79.2001 31.8356 78.9372 31.8471 78.8463 31.6796C78.7357 31.5061 78.7732 31.1959 78.8227 30.8588C78.9079 30.1622 78.9966 29.4319 79.0895 28.6666C79.4425 25.5523 79.6262 23.0187 79.4997 23.0059C79.3732 22.9931 78.9845 25.5066 78.6316 28.6205C78.5511 29.3866 78.4732 30.1174 78.4004 30.816C78.3772 31.1391 78.2924 31.5202 78.5278 31.8788C78.6492 32.0565 78.8795 32.1497 79.0598 32.1518C79.2423 32.1604 79.3912 32.1253 79.5238 32.1001C80.5865 31.8903 81.2373 31.7305 81.2261 31.6711Z" fill="#1A2E35"/>
    <path d="M86.2851 20.474C86.0591 20.2659 85.1747 20.8697 83.9933 21.3039C82.8206 21.7615 81.7559 21.8957 81.727 22.2004C81.718 22.3439 81.999 22.505 82.4901 22.5679C82.9777 22.632 83.6731 22.5747 84.3794 22.3081C85.0848 22.0397 85.6421 21.6226 85.9627 21.2526C86.2864 20.8812 86.3879 20.5753 86.2851 20.474Z" fill="#1A2E35"/>
    <path d="M76.4199 22.9492C76.2288 22.6791 75.3113 22.8022 74.2487 22.6637C73.1826 22.556 72.3129 22.2274 72.0701 22.4471C71.9621 22.5552 72.0693 22.8133 72.4295 23.094C72.7841 23.3731 73.4047 23.6479 74.1364 23.7329C74.868 23.8167 75.5304 23.6902 75.9345 23.4987C76.3446 23.3073 76.503 23.0795 76.4199 22.9492Z" fill="#1A2E35"/>
    <path d="M94.1511 22.8947C94.2531 22.8165 98.421 20.3671 99.4479 24.9672C100.475 29.5673 95.6114 29.6421 95.574 29.5118C95.5365 29.3818 94.1511 22.8947 94.1511 22.8947Z" fill="#FFBF9D"/>
    <path d="M96.1954 27.5342C96.2127 27.515 96.2888 27.5722 96.439 27.6047C96.5854 27.6359 96.8234 27.6274 97.045 27.4842C97.4948 27.1983 97.7345 26.336 97.5718 25.5019C97.4905 25.0805 97.3127 24.7015 97.0898 24.4041C96.8733 24.0986 96.6017 23.9118 96.3452 23.9225C96.0874 23.9199 95.9458 24.105 95.9178 24.2468C95.8843 24.3891 95.9342 24.4746 95.9114 24.4878C95.9011 24.5024 95.7948 24.4327 95.7896 24.2344C95.7883 24.1387 95.8184 24.0182 95.9075 23.9063C95.9988 23.7917 96.152 23.7101 96.3276 23.6909C96.6904 23.6366 97.0846 23.8922 97.3299 24.2186C97.5951 24.5421 97.8042 24.966 97.8959 25.4391C98.0732 26.3727 97.7887 27.3453 97.1621 27.6846C96.8548 27.841 96.5613 27.803 96.3969 27.7252C96.2286 27.6436 96.1812 27.5457 96.1954 27.5342Z" fill="#FF9A6C"/>
    <path d="M81.669 22.7831C81.6738 22.8087 81.4904 22.8728 81.1849 22.8369C80.8849 22.804 80.4597 22.6433 80.1451 22.281C79.8322 21.9177 79.7358 21.4759 79.7487 21.1764C79.759 20.8708 79.8507 20.7007 79.8756 20.7093C79.9096 20.7174 79.8769 20.8947 79.9071 21.1704C79.9346 21.443 80.0443 21.8216 80.3151 22.1361C80.5866 22.4489 80.9473 22.6143 81.2146 22.6822C81.4844 22.7536 81.666 22.7485 81.669 22.7831Z" fill="#FF9A6C"/>
    <path d="M95.9399 15.5252C95.9614 15.6175 95.9911 15.7059 96.0105 15.7991C96.8368 19.765 95.7549 24.9108 95.7549 24.9108C92.8081 25.621 92.2499 19.9304 92.2499 19.9304C88.3029 19.3548 88.4225 13.6514 87.3281 13.0369C86.2336 12.422 83.9005 10.946 77.1828 16.5118C74.5738 18.6732 70.6402 19.5091 68.3885 19.5086C68.3226 19.5091 68.2568 19.5142 68.1909 19.5129C68.1767 19.5125 68.1591 19.5142 68.1449 19.5138C68.1199 19.5133 68.1005 19.5039 68.0764 19.5026C67.3534 19.4796 66.6351 19.3655 65.94 19.1202C65.1529 18.8424 64.3937 18.398 63.9293 17.7088C63.4654 17.0195 63.3595 16.0525 63.8308 15.3675C63.1103 14.7949 62.4828 14.0671 62.2018 13.1941C61.9212 12.3215 62.0369 11.2913 62.6472 10.6037C63.2575 9.91659 64.3963 9.69524 65.1425 10.2337C64.5293 9.11109 65.2011 7.50566 66.435 7.145C67.5974 6.80528 68.8055 7.46378 70.0161 7.51719C71.198 7.56976 72.332 7.03902 73.3047 6.37027C74.2773 5.70151 75.1428 4.88576 76.137 4.24863C78.2101 2.92052 80.8178 2.44192 83.2322 2.94659C85.6466 3.45125 87.5738 4.05377 88.9317 6.09935C90.4014 5.25283 92.4422 5.98098 93.7975 6.99843C93.7975 6.99843 95.6645 8.05134 95.8181 11.7383C95.9537 15.0064 95.9399 15.5252 95.9399 15.5252Z" fill="#1A2E35"/>
    <path d="M65.4257 9.10454C65.4446 9.08403 65.6744 9.32974 66.1707 9.66518C66.6639 10.0015 67.4519 10.3942 68.4981 10.6241C69.5427 10.8531 70.8373 10.901 72.2377 10.6865C73.6403 10.4741 75.1324 9.98311 76.687 9.44683C78.2428 8.91011 79.7409 8.40075 81.1633 8.15974C82.5823 7.91659 83.9001 7.93197 84.9713 8.13837C86.0443 8.34562 86.8586 8.72594 87.3638 9.06053C87.6156 9.23103 87.8045 9.37076 87.9207 9.48101C88.0408 9.5857 88.1011 9.64339 88.0959 9.64895C88.0787 9.66989 87.8329 9.44041 87.3178 9.13403C86.8056 8.82678 85.9982 8.47681 84.9425 8.29306C83.8881 8.11017 82.5944 8.11145 81.1991 8.36143C79.8016 8.60928 78.3164 9.11992 76.7601 9.65707C75.2039 10.1934 73.6971 10.6839 72.2683 10.889C70.8429 11.0958 69.5242 11.0309 68.4629 10.7775C67.3998 10.5232 66.6053 10.0993 66.1207 9.73612C65.8793 9.55152 65.699 9.40067 65.5901 9.28316C65.4769 9.1712 65.4201 9.1101 65.4257 9.10454Z" fill="#375A64"/>
    <path d="M87.8122 11.0322C87.7971 11.0536 87.5328 10.842 86.9884 10.5844C86.4436 10.3348 85.5953 10.0724 84.5168 10.0515C83.4421 10.0297 82.1548 10.2293 80.8138 10.7113C79.4658 11.1835 78.0598 11.8988 76.5238 12.5359C75.756 12.8551 74.9843 13.1231 74.2191 13.3145C73.4521 13.5025 72.6938 13.6012 71.9699 13.6299C70.5195 13.6901 69.2168 13.4713 68.1692 13.1654C67.1204 12.8534 66.3216 12.4633 65.794 12.1612C65.5276 12.0133 65.3313 11.8817 65.2 11.7903C65.0679 11.6997 65.0008 11.6497 65.0051 11.6433C65.018 11.6236 65.2973 11.8103 65.8361 12.0851C66.3724 12.3616 67.1725 12.7252 68.2131 13.0141C69.2525 13.2966 70.5367 13.4953 71.9613 13.4252C72.6723 13.3914 73.416 13.2901 74.167 13.1034C74.9176 12.9124 75.6776 12.647 76.4394 12.3304C77.9625 11.6992 79.378 10.9856 80.7462 10.5181C82.1118 10.0395 83.4262 9.85151 84.5228 9.89467C85.6233 9.93612 86.4857 10.2288 87.0276 10.5066C87.2966 10.6523 87.4993 10.7758 87.6245 10.8771C87.7523 10.9728 87.8169 11.0258 87.8122 11.0322Z" fill="#375A64"/>
    <path d="M95.8926 11.3586C95.9077 11.3761 95.6245 11.6457 95.0516 11.8987C94.4866 12.1517 93.6112 12.3555 92.6566 12.2162C91.6908 12.0795 90.9557 11.5902 90.404 11.3658C89.8514 11.1189 89.4744 11.0791 89.4778 11.0441C89.4757 11.0176 89.8763 11.0026 90.4629 11.2197C91.0517 11.418 91.7834 11.8709 92.6893 11.9961C93.5957 12.1286 94.4315 11.9602 94.9927 11.753C95.5591 11.5462 95.8711 11.3265 95.8926 11.3586Z" fill="#375A64"/>
    <path d="M96.0032 12.5608C96.0148 12.5818 95.7015 12.7907 95.1321 13.0027C94.5653 13.2151 93.7321 13.4009 92.8003 13.3851C91.8685 13.3659 91.0426 13.1492 90.4844 12.9155C89.9237 12.6826 89.6181 12.4621 89.631 12.4416C89.6491 12.4087 89.9792 12.5788 90.54 12.7681C91.0999 12.9591 91.9025 13.1437 92.8046 13.1625C93.7067 13.1774 94.5158 13.0228 95.0822 12.8531C95.6502 12.6847 95.9864 12.5271 96.0032 12.5608Z" fill="#375A64"/>
    <path d="M78.2045 21.4908C78.2609 21.4707 78.3887 22.0241 78.0776 22.6095C77.7728 23.1983 77.2426 23.4111 77.2271 23.3539C77.1927 23.2983 77.6127 23.0283 77.8791 22.5069C78.1568 21.9907 78.1387 21.4946 78.2045 21.4908Z" fill="#FF9A6C"/>
    <path d="M64.7481 74.0528C64.7481 74.0528 64.8058 73.9549 64.9022 73.7485C65.002 73.5366 65.144 73.2349 65.3278 72.8443C65.6979 72.0397 66.2359 70.8701 66.9232 69.3766C68.2935 66.364 70.2569 62.0464 72.6455 56.7938L72.6787 56.7207L72.7553 56.7463C76.4651 57.9945 80.6273 59.3953 85.1149 60.9054L85.2199 60.9409L85.179 61.0435C83.3348 65.6701 81.3168 70.7334 79.2135 76.0103C77.99 79.096 76.766 82.0941 75.6431 85.0157C75.0664 86.4711 74.4669 87.8954 73.7314 89.2196C73.0023 90.543 72.133 91.7711 71.0936 92.7865C70.0736 93.8146 68.9421 94.6927 67.7285 95.3491C66.5165 96.0093 65.2245 96.4306 63.9484 96.6477C62.6702 96.8657 61.4127 96.884 60.2175 96.8208C59.0215 96.758 57.8693 96.5943 56.8209 96.2448C55.7738 95.8995 54.8446 95.3504 54.1375 94.6513C53.4304 93.9509 52.9407 93.1347 52.6037 92.3356C51.9327 90.7259 51.7278 89.2277 51.6056 88.0214C51.5002 86.8078 51.5256 85.8605 51.5613 85.2221C51.5974 84.5828 51.6555 84.2503 51.6555 84.2503C51.6555 84.2503 51.656 84.3349 51.6452 84.4982C51.6327 84.6614 51.6168 84.9046 51.6065 85.2238C51.5854 85.8613 51.5742 86.8061 51.6926 88.0129C51.8268 89.2119 52.045 90.7011 52.719 92.2861C53.0573 93.0736 53.5428 93.8693 54.2374 94.55C54.9324 95.229 55.8414 95.7606 56.8709 96.0952C57.9016 96.4336 59.0395 96.5913 60.2261 96.649C61.4148 96.7071 62.6564 96.6845 63.9166 96.4653C65.1737 96.2473 66.4429 95.8294 67.6338 95.1769C68.8264 94.5282 69.9397 93.6603 70.9468 92.6416C71.9694 91.6387 72.8228 90.4294 73.5437 89.1171C74.2702 87.8052 74.865 86.3886 75.4387 84.9362C76.5581 82.015 77.7821 79.0127 79.0052 75.9287C81.1128 70.653 83.1352 65.5914 84.9828 60.9665L85.0469 61.1041C80.5632 59.5829 76.4045 58.1719 72.698 56.9143L72.8078 56.8668C70.405 62.1199 68.4153 66.4285 67.0149 69.4189C66.3142 70.9141 65.7603 72.079 65.3752 72.8674C65.1819 73.2614 65.0326 73.5618 64.9258 73.7609C64.8247 73.9605 64.7515 74.0592 64.7481 74.0528Z" fill="#1A2E35"/>
    <path d="M68.3128 66.6725C68.2978 66.6686 68.3283 66.4909 68.3963 66.173C68.4794 65.8102 68.5823 65.3615 68.7041 64.8307C68.9726 63.6996 69.3574 62.1408 69.7903 60.4212C70.5719 57.3514 71.1034 55.2652 71.3741 54.2012C71.5071 54.2208 70.8731 57.0364 70.0077 60.4751C69.5747 62.195 69.1654 63.7479 68.8573 64.8692C68.7032 65.4298 68.5745 65.8824 68.4807 66.1939C68.3869 66.5063 68.3279 66.6763 68.3128 66.6725Z" fill="#1A2E35"/>
    <path d="M78.135 31.6553C78.135 31.6553 76.8219 30.3011 75.6548 31.6553C74.4876 33.0095 74.6175 36.2892 76.8297 39.618C79.0418 42.9472 78.1651 55.457 78.1651 55.457L91.246 50.6056L92.1472 54.5874C92.1472 54.5874 94.8384 53.1384 96.516 50.6056C98.1936 48.0733 95.6406 44.8454 95.1302 42.8203C94.6197 40.7952 89.8783 37.5792 88.4925 35.4636C87.1071 33.3479 83.6787 29.0316 78.135 31.6553Z" fill="#FAFAFA"/>
    <path d="M86.8497 61.1552C86.8497 61.1552 83.17 53.3528 82.6587 51.923C82.1474 50.4936 79.9718 45.7115 80.252 44.7774C80.5163 43.8962 81.7962 44.7859 81.7962 44.7859C81.7962 44.7859 79.2342 39.8709 80.0157 38.8312C80.6437 37.9958 81.3964 38.7304 81.3964 38.7304C81.3964 38.7304 79.7971 35.9011 81.1537 35.0507C81.853 34.6123 83.0426 36.3135 83.0426 36.3135C83.0426 36.3135 84.1654 35.0811 85.1846 36.6314C86.2037 38.1817 90.4541 45.1107 90.4541 45.1107C90.4541 45.1107 90.2036 41.8306 90.8023 39.8525C91.206 38.5193 93.1608 37.7608 93.2782 41.8139C93.354 44.4351 96.4308 56.7633 96.4308 56.7633L86.8497 61.1552Z" fill="#FFBF9D"/>
    <path d="M86.8454 61.1606C86.8454 61.1606 86.9043 61.1282 87.0158 61.0739C87.1355 61.0171 87.2994 60.9389 87.5099 60.8389C87.9515 60.6316 88.588 60.3334 89.4057 59.9496C91.0562 59.1826 93.4362 58.0763 96.3955 56.7011L96.3546 56.7862C95.57 53.6253 94.6366 49.8422 93.7599 45.5673C93.5529 44.4956 93.3256 43.3995 93.2051 42.2496C93.1496 41.6651 93.147 41.1031 93.0463 40.5301L92.9495 40.1096C92.9155 39.9699 92.8578 39.8391 92.8135 39.7024C92.6973 39.4481 92.5621 39.1815 92.3362 39.0332C92.121 38.8747 91.8343 38.8627 91.5916 38.9943C91.3476 39.1217 91.1522 39.3494 91.0222 39.6028C90.8961 39.8545 90.826 40.1545 90.764 40.4502C90.699 40.7463 90.6564 41.0497 90.6207 41.3548C90.4834 42.5765 90.483 43.8405 90.5609 45.108C90.5652 45.1691 90.5187 45.2216 90.4576 45.2259C90.4154 45.2289 90.3762 45.2071 90.3551 45.1738C89.5008 43.7995 88.5992 42.3492 87.6842 40.8775C87.0094 39.7913 86.3418 38.717 85.6829 37.6564C85.5181 37.3914 85.3541 37.1269 85.1906 36.8637C85.0305 36.5958 84.8536 36.3612 84.6242 36.1864C84.3987 36.0155 84.1189 35.9219 83.8452 35.9847C83.5741 36.0338 83.3137 36.1992 83.12 36.3928C83.077 36.4377 83.0055 36.4389 82.9603 36.3962C82.956 36.3924 82.9509 36.386 82.9474 36.3817C82.6272 35.9505 82.264 35.5206 81.828 35.2412C81.6115 35.1117 81.358 35.0288 81.1816 35.169C80.9746 35.3061 80.8446 35.5202 80.7689 35.7548C80.6531 36.2428 80.74 36.774 80.8889 37.265C81.0378 37.7589 81.2436 38.2392 81.4837 38.6845C81.5113 38.7358 81.4919 38.7995 81.4402 38.8268C81.3994 38.8486 81.3499 38.8401 81.3176 38.8106C81.0856 38.599 80.7413 38.4662 80.4654 38.5914C80.3273 38.6499 80.2072 38.7559 80.1082 38.8824C80.0174 38.9943 79.9843 39.1486 79.9722 39.308C79.946 39.9579 80.159 40.6164 80.357 41.2365C80.7835 42.4821 81.3223 43.65 81.8758 44.7486C81.8995 44.7952 81.8801 44.8524 81.8332 44.8755C81.8018 44.8909 81.7643 44.8866 81.7368 44.8691C81.4441 44.6798 81.1063 44.5063 80.7813 44.4892C80.6204 44.4832 80.4775 44.5392 80.4009 44.6674C80.3669 44.7324 80.3273 44.8042 80.3281 44.8824L80.3144 44.9973L80.3251 45.1225C80.3949 45.7977 80.6372 46.4545 80.845 47.0822C81.2888 48.3398 81.7729 49.5115 82.2192 50.6157C83.0456 52.8519 83.9386 54.7205 84.6337 56.2807C85.3391 57.8263 85.8942 59.0429 86.2773 59.8821C86.4623 60.2911 86.6057 60.6077 86.7068 60.8312C86.7516 60.9333 86.7864 61.0132 86.8135 61.0756C86.8346 61.1277 86.8462 61.1585 86.8454 61.1606C86.845 61.1628 86.8299 61.1384 86.8002 61.0825C86.7696 61.0218 86.73 60.9436 86.6797 60.8436C86.5725 60.6231 86.4206 60.3103 86.2243 59.9065C85.8301 59.0719 85.259 57.863 84.533 56.3264C83.825 54.7765 82.913 52.9023 82.0755 50.6738C81.6232 49.5726 81.1325 48.4022 80.6811 47.1395C80.4689 46.5027 80.2223 45.8596 80.1431 45.1349C80.1289 45.046 80.1306 44.9507 80.1478 44.8503C80.1508 44.7503 80.1969 44.658 80.2455 44.5691C80.3514 44.382 80.5894 44.2905 80.7861 44.3038C81.1885 44.3281 81.5242 44.5106 81.8465 44.714L81.7075 44.8349C81.1459 43.7282 80.6023 42.5612 80.1663 41.2997C79.9649 40.666 79.742 40.0143 79.7665 39.2922C79.7798 39.1148 79.8169 38.9165 79.9443 38.7554C80.057 38.6106 80.202 38.4777 80.385 38.3995C80.5679 38.3204 80.7826 38.3174 80.969 38.3734C81.1562 38.4332 81.318 38.5273 81.4661 38.6606L81.2999 38.7866C81.0486 38.3221 80.8403 37.8384 80.6845 37.3248C80.5317 36.8158 80.4293 36.2595 80.561 35.6971C80.6458 35.4228 80.808 35.1561 81.0602 34.9895C81.1863 34.8985 81.3731 34.8527 81.5255 34.8899C81.6843 34.9121 81.816 34.9848 81.9434 35.0553C82.4314 35.3706 82.7904 35.8031 83.1295 36.2556L82.9573 36.2445C83.191 36.0116 83.4699 35.8334 83.8048 35.7676C84.1383 35.6899 84.4994 35.8091 84.758 36.0091C85.0214 36.2078 85.2207 36.4795 85.3778 36.7419C85.5418 37.0051 85.7062 37.2697 85.871 37.535C86.5308 38.5961 87.1992 39.6712 87.8744 40.7579C88.7894 42.2308 89.6915 43.6824 90.5458 45.058L90.3401 45.1238C90.2617 43.8393 90.2635 42.5718 90.4042 41.3292C90.4408 41.019 90.4847 40.71 90.5518 40.4057C90.6168 40.1024 90.6844 39.7981 90.8307 39.5037C90.9788 39.2187 91.1961 38.9606 91.4931 38.8046C91.784 38.6396 92.1898 38.6533 92.4597 38.8593C92.742 39.0512 92.884 39.346 93.0106 39.622C93.0584 39.7665 93.119 39.9084 93.1543 40.0545L93.2542 40.4929C93.3566 41.0758 93.3592 41.6757 93.4117 42.2317C93.5275 43.3607 93.7517 44.4614 93.9553 45.5293C94.8182 49.7999 95.7353 53.5873 96.5005 56.7507C96.5096 56.7853 96.4911 56.8212 96.4592 56.8358C93.4689 58.1878 91.0631 59.2753 89.395 60.0295C88.5768 60.3957 87.9403 60.6812 87.4987 60.8786C87.2904 60.9705 87.1281 61.0419 87.0098 61.094C86.8996 61.1414 86.8441 61.1641 86.8454 61.1606Z" fill="#FF9A6C"/>
    <path d="M87.7177 45.7726C87.6622 45.7999 86.5682 43.7044 85.274 41.093C83.9798 38.4808 82.9757 36.3421 83.0312 36.3147C83.0868 36.2878 84.1808 38.3825 85.475 40.9947C86.7692 43.6061 87.7732 45.7457 87.7177 45.7726Z" fill="#FF9A6C"/>
    <path d="M85.5572 47.7315C85.5008 47.7572 84.5251 45.7624 83.3781 43.2767C82.2308 40.7902 81.3463 38.7544 81.4027 38.7288C81.4591 38.7031 82.4343 40.6974 83.5821 43.184C84.7291 45.6697 85.6135 47.7059 85.5572 47.7315Z" fill="#FF9A6C"/>
    <path d="M84.3183 50.4022C84.2938 50.418 84.0799 50.1433 83.779 49.6694C83.4782 49.1959 83.0969 48.519 82.7392 47.7409C82.382 46.9623 82.1182 46.232 81.9564 45.6957C81.7941 45.159 81.727 44.8189 81.755 44.8107C81.8195 44.7919 82.2318 46.1085 82.9432 47.649C83.6478 49.1912 84.3751 50.3663 84.3183 50.4022Z" fill="#FF9A6C"/>
    <path d="M77.8965 38.6859C77.6336 38.2265 77.0913 38.0043 76.5783 38.1458C75.4219 38.4645 73.4701 39.0538 72.9356 39.5316C72.1617 40.223 70.4897 42.0579 70.4914 43.2915C70.4919 43.6701 70.1088 44.3504 69.9771 44.9867C69.8403 45.6482 69.9548 46.2588 69.9548 46.2588C69.9548 46.2588 70.1983 47.0891 71.0333 47.8241C71.5278 48.2596 73.4318 52.7404 73.4318 52.7404L74.5422 57.2427L79.5668 58.9977L83.711 60.4006L81.5517 54.283L78.1664 55.4612L78.5085 47.6327L79.4988 45.7773L79.2299 44.603L78.4151 44.3539C78.8021 43.9761 78.8881 43.5304 78.555 42.989L77.8475 42.3946C78.7216 42.0754 79.0908 41.5083 78.6346 40.537C78.3717 40.2494 77.9047 40.2076 77.3685 40.2486C77.7812 39.8785 77.9753 39.3696 77.8965 38.6859Z" fill="#FFBF9D"/>
    <path d="M77.674 53.2214C77.6679 53.2261 77.6172 53.1718 77.5276 53.0637C77.4381 52.9556 77.309 52.7932 77.1549 52.5744C77.0017 52.3556 76.8218 52.0787 76.6682 51.7262C76.5193 51.3753 76.3988 50.9331 76.4547 50.4412C76.5072 49.9502 76.7345 49.4468 77.0598 48.9823C77.383 48.5123 77.8091 48.0794 78.2257 47.6149C78.6371 47.15 79.0542 46.6312 79.25 46.0005C79.3485 45.6903 79.3873 45.348 79.2827 45.0455C79.1867 44.751 78.8971 44.4989 78.5902 44.5083C78.2765 44.5203 78.0097 44.7779 77.7471 45.0091C77.4816 45.2433 77.2204 45.4745 76.963 45.7014C76.4487 46.1539 75.9525 46.5906 75.4787 47.0077C74.5267 47.8277 73.6797 48.5961 73.2661 49.443C72.825 50.278 72.8809 51.0813 73.0109 51.5813C73.1379 52.0919 73.282 52.3539 73.2597 52.3633C73.2528 52.3667 73.2153 52.303 73.1503 52.1778C73.0888 52.0514 73.0019 51.8616 72.9266 51.6035C72.8517 51.3463 72.7837 51.0185 72.7974 50.6322C72.8099 50.2476 72.9098 49.8088 73.1241 49.3729C73.5372 48.482 74.401 47.6794 75.3414 46.8543C75.8126 46.4342 76.3058 45.9941 76.8171 45.5382C77.0736 45.3104 77.3344 45.0784 77.5987 44.8433C77.8577 44.6228 78.1405 44.3126 78.5825 44.2852C79.0223 44.2788 79.3701 44.6062 79.4931 44.9719C79.6188 45.3437 79.5663 45.7287 79.4596 46.0638C79.2431 46.7475 78.7998 47.2829 78.3798 47.7504C77.952 48.2183 77.5307 48.6375 77.2122 49.0875C76.8911 49.5323 76.6708 50.0032 76.6122 50.4592C76.5507 50.9155 76.6514 51.3347 76.7844 51.6783C76.9221 52.0231 77.0874 52.3022 77.2281 52.5261C77.5134 52.9727 77.689 53.2107 77.674 53.2214Z" fill="#FF9A6C"/>
    <path d="M74.159 48.0824C74.1547 48.0845 74.1379 48.0619 74.1082 48.0144C74.0768 47.9679 74.0372 47.8948 73.9899 47.7948C73.9477 47.6931 73.8939 47.5653 73.8677 47.4017C73.8479 47.2406 73.8263 47.0337 73.9735 46.8295L73.9765 46.8252L73.986 46.8201C74.8128 46.3594 76.0049 45.6954 77.451 44.8895C77.8164 44.6869 78.2124 44.4814 78.4612 44.134C78.5821 43.9617 78.6669 43.7558 78.6647 43.5472C78.6647 43.3396 78.5713 43.1379 78.4095 42.9883C78.0803 42.6781 77.5711 42.6016 77.0977 42.7289C76.6195 42.8469 76.1508 43.0973 75.6611 43.3092C74.2688 43.9365 72.9436 44.5335 71.7325 45.0788C71.445 45.224 71.1842 45.4022 71.0198 45.6415C70.8554 45.88 70.7973 46.1688 70.8085 46.4479C70.8347 47.0119 71.0564 47.5217 71.2311 47.9837C71.5978 48.9071 71.9731 49.6216 72.2429 50.1087C72.5141 50.5954 72.6781 50.8574 72.6634 50.8668C72.657 50.8711 72.6083 50.8104 72.5223 50.6907C72.4375 50.5702 72.3148 50.3908 72.1676 50.1523C71.8732 49.6763 71.4734 48.9678 71.0844 48.0431C70.9006 47.5816 70.6617 47.0705 70.6226 46.4552C70.6058 46.1518 70.666 45.8142 70.8567 45.5317C71.0469 45.2493 71.3383 45.0514 71.6374 44.8967C72.8468 44.3267 74.1724 43.7395 75.5685 43.1063C76.0575 42.8956 76.5223 42.6439 77.0456 42.5144C77.5591 42.3764 78.1676 42.4563 78.5576 42.8332C78.7538 43.0144 78.8786 43.2815 78.8748 43.5468C78.8743 43.8122 78.7685 44.054 78.6277 44.2515C78.3325 44.6519 77.9068 44.8566 77.5419 45.0557C76.0781 45.83 74.8717 46.4675 74.0351 46.9102L74.0476 46.9008C73.9369 47.0406 73.9301 47.2431 73.946 47.391C73.9623 47.5457 74.0062 47.6726 74.0394 47.7747C74.1156 47.9768 74.1706 48.0768 74.159 48.0824Z" fill="#FF9A6C"/>
    <path d="M70.4962 44.42C70.4828 44.4127 70.556 44.2456 70.7071 43.9516C70.8611 43.6606 71.0836 43.2333 71.4551 42.7624C71.8187 42.2877 72.3928 41.8129 73.1206 41.4907C73.8441 41.1565 74.6863 40.9416 75.5527 40.6967C75.9874 40.5762 76.4117 40.4583 76.8227 40.3442C77.2268 40.2357 77.6443 40.0951 78.0708 40.1583C78.2791 40.1887 78.4827 40.2681 78.6398 40.4053C78.7982 40.5429 78.8933 40.7284 78.9359 40.9113C79.0254 41.2817 78.9027 41.648 78.7078 41.8881C78.3062 42.3838 77.7704 42.4906 77.4506 42.5334C77.1162 42.571 76.932 42.5487 76.932 42.5368C76.9312 42.5184 77.1158 42.5107 77.4364 42.4479C77.745 42.3821 78.2404 42.2488 78.5808 41.7937C78.7465 41.5732 78.8369 41.2634 78.7555 40.9548C78.6871 40.6416 78.4069 40.3985 78.042 40.3613C77.6813 40.3109 77.2923 40.4386 76.8825 40.554C76.472 40.6694 76.048 40.7886 75.6134 40.9108C74.744 41.1561 73.9099 41.3634 73.2063 41.677C72.4966 41.9804 71.9478 42.4137 71.5781 42.8615C71.2024 43.3051 70.9597 43.717 70.7832 43.9935C70.6094 44.2738 70.5104 44.4272 70.4962 44.42Z" fill="#FF9A6C"/>
    <path d="M75.6119 40.5798C75.6089 40.5631 75.8104 40.5225 76.1671 40.4379C76.5127 40.3456 77.061 40.2213 77.5043 39.7615C77.7165 39.5367 77.8917 39.2128 77.8564 38.8585C77.8301 38.5116 77.5908 38.1274 77.2005 38.0714C76.8071 38.0056 76.3896 38.2214 75.9377 38.3778C75.488 38.5368 75.0189 38.6842 74.5433 38.8432C74.0699 39.0034 73.603 39.1641 73.1881 39.3623C72.7981 39.5679 72.5025 39.9264 72.2391 40.2593C71.9753 40.5982 71.745 40.9404 71.5122 41.2519C71.2789 41.5741 71.0181 41.8143 70.8933 42.1083C70.6144 42.6852 70.5615 43.2227 70.5357 43.5808C70.5137 43.9436 70.5357 44.1458 70.5167 44.1479C70.5051 44.15 70.4535 43.9496 70.4487 43.5791C70.4487 43.2125 70.475 42.6608 70.7504 42.0412C70.8197 41.8874 70.9092 41.7318 71.025 41.5848C71.1399 41.4395 71.2514 41.3041 71.362 41.1443C71.5854 40.8327 71.81 40.4858 72.0751 40.1354C72.3432 39.7914 72.6363 39.414 73.0887 39.1683C73.5281 38.9551 73.9933 38.7949 74.4719 38.6325C74.9487 38.4752 75.414 38.3214 75.8646 38.1727C76.2988 38.0317 76.7425 37.7885 77.2362 37.8697C77.4772 37.909 77.6937 38.0565 77.8236 38.2402C77.9588 38.4235 78.0259 38.6368 78.0414 38.844C78.0728 39.2709 77.8568 39.6328 77.6179 39.8709C77.1153 40.3571 76.5381 40.4537 76.1844 40.5229C75.8181 40.5819 75.6141 40.593 75.6119 40.5798Z" fill="#FF9A6C"/>
    <path d="M103.229 65.2738C103.225 65.2755 103.191 65.2238 103.127 65.1208C103.06 65.0088 102.968 64.8563 102.849 64.6606C102.603 64.2439 102.25 63.6453 101.796 62.877C100.884 61.3121 99.5704 59.0601 97.9427 56.2697L98.043 56.3014C94.6779 57.8743 90.5488 59.8041 85.9253 61.9655L85.9795 61.8377C87.3567 65.7669 89.0274 70.0277 91.0304 74.3727C93.1767 79.0493 95.4723 83.3866 97.669 87.2692C98.7712 89.2075 99.8239 91.051 100.854 92.7432C101.889 94.4255 103.021 95.9156 104.369 96.9266C105.04 97.4283 105.756 97.806 106.473 98.0411C107.192 98.2761 107.905 98.3846 108.573 98.4107C109.913 98.4517 111.061 98.1787 111.923 97.8056C112.793 97.4377 113.371 96.9625 113.712 96.6078C114.059 96.2549 114.202 96.0322 114.216 96.0434C114.216 96.0434 114.182 96.0989 114.106 96.2015C114.025 96.2997 113.927 96.4672 113.744 96.639C113.41 97.0069 112.834 97.4996 111.958 97.8847C111.09 98.2752 109.93 98.565 108.568 98.535C107.89 98.5145 107.164 98.4098 106.428 98.1752C105.693 97.9402 104.96 97.559 104.273 97.0522C102.894 96.0305 101.742 94.5255 100.695 92.8397C99.6543 91.145 98.5978 89.3075 97.4887 87.3692C95.2804 83.4891 92.9757 79.1484 90.826 74.4646C88.82 70.1127 87.1514 65.843 85.7815 61.9048L85.751 61.8163L85.8362 61.777C90.4688 59.634 94.6051 57.7205 97.9767 56.1608L98.0417 56.1309L98.077 56.1924C99.6789 58.9973 100.971 61.2613 101.869 62.8342C102.308 63.6111 102.649 64.2166 102.887 64.6379C102.997 64.8379 103.083 64.9943 103.146 65.1088C103.204 65.2165 103.232 65.2721 103.229 65.2738Z" fill="#1A2E35"/>
    <path d="M79.0279 36.7538C79.0287 36.779 78.764 36.8175 78.3492 36.7205C77.939 36.6273 77.3791 36.3671 76.9453 35.8727C76.5119 35.3778 76.329 34.7911 76.2928 34.3749C76.2532 33.9536 76.3281 33.6989 76.3531 33.7032C76.3892 33.7062 76.3729 33.9604 76.4495 34.3523C76.5231 34.7411 76.7163 35.2723 77.1144 35.7265C77.5129 36.1804 78.016 36.4436 78.3935 36.5696C78.7739 36.6991 79.03 36.7179 79.0279 36.7538Z" fill="#E1E1E1"/>
    <path d="M86.3699 34.4672C86.3828 34.4587 86.4767 34.5805 86.635 34.8078C86.7956 35.0338 87.0095 35.3731 87.2574 35.8017C87.7545 36.6581 88.3566 37.8952 88.8399 39.3293C89.3202 40.7646 89.5858 42.1132 89.7058 43.0944C89.7665 43.5849 89.8005 43.984 89.8087 44.2601C89.8195 44.5361 89.8177 44.6891 89.8022 44.6904C89.7657 44.693 89.7093 44.0857 89.5488 43.117C89.3895 42.1483 89.102 40.8202 88.6269 39.3998C88.1487 37.9806 87.5759 36.747 87.1179 35.8774C86.6613 35.0061 86.3394 34.4869 86.3699 34.4672Z" fill="#E1E1E1"/>
    <path d="M79.8943 38.1762C79.8943 38.2018 79.6223 38.2321 79.1867 38.1723C78.7525 38.1142 78.1581 37.9437 77.5736 37.6091C76.9904 37.2724 76.5458 36.8451 76.279 36.4998C76.01 36.1541 75.9011 35.9054 75.9235 35.8921C75.9794 35.8481 76.5519 36.7763 77.6859 37.4164C78.8093 38.0745 79.905 38.1056 79.8943 38.1762Z" fill="#E1E1E1"/>
    <path d="M91.8623 142.387L106.62 149.029C106.62 149.029 110.701 150.526 111.767 150.281C112.966 150.006 114.922 149.275 114.315 145.659C113.708 142.044 106.709 137.646 106.709 137.646L91.8623 142.387Z" fill="#FF4F5B"/>
    <path d="M89.9239 131.098L68.7627 137.939C67.5 138.361 65.9993 139.687 66.4482 141.362L74.7123 164.994C74.7123 164.994 77.2592 165.804 76.7867 150.458L94.7153 144.592L89.9239 131.098Z" fill="#FF4F5B"/>
    <path d="M76.7512 157.745C76.7232 157.827 75.763 157.263 74.4684 157.29C73.1773 157.338 72.2244 157.9 72.1939 157.818C72.1814 157.794 72.4022 157.639 72.7994 157.459C73.1954 157.282 73.7837 157.087 74.4624 157.068C75.1411 157.051 75.7406 157.222 76.1409 157.392C76.5433 157.565 76.7637 157.722 76.7512 157.745Z" fill="white"/>
    <path d="M70.3117 137.655C70.3139 137.644 70.4645 137.659 70.6948 137.794C70.922 137.928 71.2173 138.202 71.4148 138.637C71.6175 139.069 71.701 139.632 71.7342 140.239C71.769 140.849 71.7535 141.529 71.6149 142.228C71.4785 142.927 71.2177 143.571 70.8665 144.086C70.517 144.601 70.094 144.986 69.6959 145.236C69.2991 145.492 68.9302 145.611 68.6754 145.666C68.4189 145.722 68.2722 145.713 68.2717 145.703C68.2575 145.658 68.8601 145.626 69.6076 145.105C69.9778 144.85 70.3703 144.47 70.6944 143.973C71.0189 143.478 71.2638 142.86 71.395 142.185C71.5289 141.51 71.5508 140.848 71.528 140.249C71.5065 139.648 71.4415 139.111 71.2694 138.699C71.1037 138.286 70.8463 138.013 70.6466 137.866C70.4439 137.717 70.3053 137.674 70.3117 137.655Z" fill="white"/>
    <path d="M83.0373 148.568C83.0236 148.575 82.9199 148.406 82.7434 148.094C82.5669 147.782 82.3203 147.326 82.0225 146.76C81.426 145.626 80.6298 144.047 79.7931 142.281C78.9569 140.515 78.2386 138.899 77.7398 137.72C77.4902 137.131 77.2939 136.652 77.1644 136.318C77.0344 135.984 76.9694 135.797 76.9836 135.791C76.9978 135.785 77.0899 135.961 77.2444 136.284C77.4144 136.649 77.6292 137.109 77.8848 137.657C78.4443 138.858 79.1811 140.439 79.9958 142.187C80.8325 143.924 81.5891 145.495 82.1641 146.689C82.4266 147.234 82.6466 147.692 82.8213 148.054C82.9732 148.379 83.0511 148.561 83.0373 148.568Z" fill="white"/>
    <path d="M138.611 113.822C135.568 111.254 134.959 110.801 129.025 110.347C123.091 109.894 113.33 111.165 113.33 111.165C113.33 111.165 94.7892 116.843 85.9639 115.786C77.139 114.729 69.056 109.824 69.056 109.824C69.056 109.824 48.0764 109.29 45.1855 110.045C42.2947 110.801 36.8168 112.765 35.7516 116.088C34.6864 119.412 33.9255 123.34 36.9687 127.117C40.0119 130.894 55.3407 137.845 55.3407 137.845L69.7627 137.622L79.364 134.625L85.6669 147.917C85.6669 147.917 130.241 133.915 132.22 133.764C134.198 133.613 143.023 128.326 143.023 125.607C143.023 122.887 141.654 116.391 138.611 113.822Z" fill="#1A2E35"/>
    <path d="M88.9185 129.914C88.9172 129.918 88.8806 129.91 88.8109 129.89C88.7287 129.865 88.6271 129.834 88.5019 129.796C88.2148 129.703 87.8202 129.576 87.3201 129.415C86.2945 129.083 84.8187 128.577 83.0029 127.929C79.3723 126.633 74.398 124.72 69.023 122.331C63.648 119.937 58.8988 117.524 55.5078 115.697C53.8126 114.783 52.45 114.026 51.5174 113.487C51.0638 113.224 50.7053 113.016 50.4449 112.865C50.333 112.798 50.2422 112.743 50.1686 112.698C50.107 112.66 50.0765 112.638 50.0782 112.635C50.0803 112.632 50.1143 112.647 50.1798 112.679C50.2559 112.718 50.3506 112.766 50.4668 112.826C50.7324 112.969 51.0973 113.164 51.56 113.412C52.5051 113.927 53.8789 114.662 55.5823 115.558C58.99 117.349 63.7453 119.737 69.1142 122.128C74.4832 124.514 79.4429 126.448 83.0572 127.781C84.8643 128.447 86.3315 128.976 87.348 129.333C87.8421 129.511 88.232 129.652 88.5157 129.754C88.6379 129.8 88.7373 129.838 88.8178 129.868C88.8858 129.895 88.9198 129.91 88.9185 129.914Z" fill="#375A64"/>
    <path d="M122.461 115.18C122.465 115.181 122.458 115.231 122.438 115.329C122.414 115.439 122.383 115.583 122.345 115.765C122.254 116.163 122.125 116.726 121.96 117.451L121.955 117.474L121.932 117.484C118.257 118.932 110.025 122.112 100.46 125.774C90.8923 129.437 82.6415 132.567 78.9398 133.943L78.9631 133.876C79.3427 134.518 79.6375 135.016 79.8454 135.368C79.9379 135.529 80.011 135.656 80.067 135.755C80.1156 135.842 80.1384 135.888 80.135 135.89C80.1316 135.892 80.1014 135.851 80.0459 135.768C79.9844 135.673 79.9047 135.549 79.8036 135.393C79.5863 135.046 79.279 134.556 78.883 133.924L78.8538 133.878L78.9063 133.857C82.5804 132.41 90.8118 129.23 100.38 125.567C109.945 121.904 118.196 118.774 121.898 117.398L121.87 117.43C122.054 116.71 122.197 116.149 122.298 115.754C122.347 115.575 122.385 115.433 122.414 115.324C122.442 115.227 122.458 115.179 122.461 115.18Z" fill="#375A64"/>
    <path d="M150.943 129.643L147.685 110.673L138.795 94.0243L127.73 83.728L124.422 70.014L122.711 53.6485L121.543 47.3311C120.999 44.3919 118.856 41.9955 115.981 41.111L103.911 37.3984C103.911 37.3984 104.154 40.3645 103.148 46.8473C102.141 53.3306 102.503 63.9016 102.503 63.9016C102.503 63.9016 110.612 79.9125 110.598 88.02C110.58 99.0465 112.905 104.034 115.555 106.69C117.596 108.737 119.831 109.402 121.336 110.375C124.795 112.612 140.755 108.202 145.109 117.605C149.463 127.008 148.562 135.755 148.562 135.755L152.474 135.684L150.943 129.643Z" fill="#FF4F5B"/>
    <path d="M71.8468 30.1289C71.8468 30.1289 70.4752 33.7923 70.597 36.9267C70.6542 38.4065 69.7827 39.638 68.9396 40.741C67.9205 42.0742 66.2205 43.9134 64.4611 46.923C63.8796 47.9174 63.8719 49.2856 63.349 50.6364C61.1906 56.2112 67.9699 66.7408 67.7548 67.392C67.5396 68.0432 54.806 89.6259 57.2518 98.8333C59.6976 108.041 56.0312 110.376 56.0312 110.376C56.0312 110.376 48.568 111.219 43.2378 110.803C37.9076 110.386 24.3885 111.996 23.0879 121.529C21.7873 131.063 28.7302 137.772 28.7302 137.772H27.39C27.39 137.772 19.3001 129.89 20.3649 123.672C21.4297 117.454 24.7586 110.956 24.7586 110.956L36.6126 106.1L44.2384 105.243L43.3751 92.8145L45.3893 81.3859L54.7414 58.4542L59.0577 48.9404L60.7633 44.4104L67.8666 38.8586L70.1046 32.1792L71.8468 30.1289Z" fill="#FF4F5B"/>
    <path d="M119.869 88.9274C119.861 88.9283 119.839 88.8163 119.805 88.6026C119.769 88.3676 119.722 88.0557 119.663 87.6655C119.543 86.8515 119.377 85.6725 119.137 84.2226C118.895 82.7731 118.574 81.051 118.067 79.1772C117.563 77.3052 116.847 75.2831 115.798 73.3055C114.733 71.3385 113.38 69.6544 111.944 68.349C110.501 67.0504 108.997 66.1094 107.634 65.5535C106.275 64.9902 105.095 64.7377 104.276 64.6565C103.456 64.5676 102.996 64.5723 102.996 64.5463C102.996 64.5386 103.111 64.5352 103.329 64.5352C103.547 64.5458 103.872 64.5151 104.284 64.5706C105.113 64.6262 106.311 64.8565 107.695 65.4082C109.082 65.9526 110.614 66.8914 112.082 68.1973C113.543 69.5104 114.918 71.2103 115.995 73.2012C117.055 75.1985 117.769 77.2398 118.265 79.1251C118.764 81.0122 119.07 82.7428 119.292 84.1982C119.513 85.6546 119.655 86.8374 119.748 87.6548C119.79 88.0471 119.823 88.3608 119.848 88.5971C119.87 88.8124 119.876 88.9261 119.869 88.9274Z" fill="#1A2E35"/>
    <path d="M121.588 72.4717C121.57 72.479 121.444 72.1863 121.19 71.6722C120.939 71.1577 120.533 70.4309 119.938 69.598C118.768 67.9366 116.674 65.8744 113.772 64.6578C110.867 63.4446 107.918 63.3976 105.903 63.7266C104.887 63.8856 104.08 64.1053 103.534 64.2856C102.986 64.4646 102.688 64.5796 102.68 64.5616C102.677 64.5544 102.749 64.5185 102.888 64.4565C103.029 64.3984 103.231 64.2976 103.505 64.2035C104.047 63.9967 104.854 63.7519 105.878 63.5711C107.908 63.1985 110.906 63.2186 113.859 64.4527C116.811 65.6898 118.919 67.8054 120.068 69.5079C120.653 70.3617 121.04 71.1069 121.269 71.6359C121.393 71.8961 121.462 72.1107 121.518 72.2513C121.571 72.3927 121.595 72.4688 121.588 72.4717Z" fill="#1A2E35"/>
    <path d="M130.041 86.7129C130.048 86.7133 130.05 86.7868 130.047 86.9257C130.042 87.0646 130.036 87.2697 130.019 87.5334C129.989 88.0607 129.93 88.823 129.816 89.7618C129.581 91.6266 129.133 94.2568 127.808 96.8566C127.137 98.1471 126.293 99.2671 125.392 100.152C124.489 101.036 123.545 101.694 122.686 102.117C121.829 102.543 121.082 102.77 120.557 102.869C120.298 102.934 120.089 102.943 119.951 102.966C119.811 102.982 119.738 102.987 119.737 102.979C119.718 102.917 120.936 102.859 122.613 101.977C123.448 101.544 124.366 100.884 125.246 100.007C126.123 99.1291 126.948 98.0245 127.609 96.7553C128.915 94.1944 129.386 91.5942 129.659 89.7413C129.792 88.8093 129.875 88.0504 129.933 87.5261C129.961 87.2851 129.983 87.086 130.002 86.9223C130.02 86.7847 130.033 86.7125 130.041 86.7129Z" fill="#1A2E35"/>
    <path d="M149.338 117.259C149.313 117.263 149.262 116.858 149.089 116.147C148.923 115.434 148.567 114.425 147.92 113.288C147.278 112.148 146.285 110.919 144.982 109.776C143.673 108.639 142.039 107.608 140.183 106.846C138.318 106.099 136.446 105.643 134.725 105.356C133.004 105.068 131.434 104.927 130.115 104.833C128.796 104.74 127.726 104.689 126.987 104.65C126.636 104.629 126.353 104.612 126.135 104.6C125.941 104.586 125.839 104.575 125.839 104.567C125.84 104.559 125.942 104.556 126.137 104.555C126.355 104.557 126.638 104.56 126.99 104.563C127.731 104.576 128.803 104.603 130.126 104.676C131.449 104.75 133.025 104.875 134.76 105.154C136.492 105.431 138.383 105.884 140.269 106.64C142.149 107.412 143.801 108.462 145.119 109.622C146.432 110.789 147.426 112.045 148.059 113.21C148.697 114.373 149.033 115.403 149.174 116.126C149.269 116.484 149.279 116.774 149.312 116.964C149.336 117.157 149.345 117.258 149.338 117.259Z" fill="#1A2E35"/>
    <path d="M103.183 64.8357C103.169 64.831 103.237 64.5788 103.372 64.1276C103.519 63.6409 103.715 62.9969 103.951 62.2179C104.438 60.6056 105.088 58.3716 105.737 55.8863C106.385 53.3997 106.909 51.1328 107.272 49.4885C107.447 48.6936 107.591 48.0369 107.7 47.5403C107.802 47.0805 107.866 46.8271 107.881 46.8301C107.896 46.8331 107.862 47.0912 107.786 47.5566C107.711 48.0219 107.589 48.6932 107.427 49.5201C107.104 51.1747 106.603 53.4506 105.954 55.9414C105.304 58.431 104.628 60.662 104.102 62.264C103.839 63.0653 103.617 63.7109 103.455 64.1537C103.294 64.5976 103.198 64.8404 103.183 64.8357Z" fill="#1A2E35"/>
    <path d="M52.5721 102.197C52.5682 102.198 52.5566 102.167 52.5376 102.105C52.5161 102.03 52.4903 101.939 52.4589 101.828C52.3973 101.583 52.2846 101.227 52.189 100.756C51.9713 99.8212 51.7302 98.4482 51.5998 96.7342C51.4669 95.0215 51.4832 92.964 51.7871 90.7095C52.0875 88.4562 52.7029 86.0119 53.6975 83.5784C54.711 81.1516 56.0022 78.9821 57.3824 77.1681C58.7613 75.3512 60.2052 73.8748 61.5114 72.7484C62.8163 71.6194 63.9594 70.8101 64.7754 70.2964C65.1761 70.0281 65.5088 69.8529 65.7257 69.7212C65.8264 69.6644 65.909 69.6178 65.977 69.5794C66.0343 69.5486 66.0648 69.5345 66.0665 69.5375C66.0687 69.5409 66.042 69.5614 65.9886 69.5986C65.9232 69.6422 65.8449 69.6952 65.7489 69.7593C65.5402 69.9029 65.2157 70.0896 64.8236 70.3682C64.0248 70.9024 62.9011 71.7279 61.6164 72.8659C60.3305 74.0013 58.9081 75.4794 57.5477 77.2908C56.1859 79.0988 54.9103 81.255 53.9049 83.6625C52.9185 86.0769 52.3014 88.5007 51.9919 90.7372C51.6795 92.9747 51.6459 95.019 51.7582 96.724C51.868 98.4299 52.084 99.8011 52.2747 100.739C52.3564 101.21 52.4559 101.569 52.5028 101.818C52.5256 101.93 52.5445 102.023 52.56 102.099C52.5716 102.163 52.5755 102.196 52.5721 102.197Z" fill="#1A2E35"/>
    <path d="M66.2688 68.5997C66.27 68.6074 66.1448 68.6364 65.9059 68.6856C65.6679 68.739 65.3124 68.7932 64.8623 68.8988C63.9576 69.0889 62.6562 69.4099 61.0917 69.9363C59.5277 70.4611 57.7059 71.2217 55.8218 72.3161C53.9376 73.4044 52.0086 74.8569 50.291 76.6828C48.5918 78.525 47.3106 80.5727 46.4563 82.5619C45.602 84.5536 45.1432 86.4706 44.9818 88.0991C44.8144 89.728 44.8768 91.0626 44.996 91.9706C45.0326 92.4287 45.1213 92.7757 45.1492 93.0158C45.1867 93.2551 45.2026 93.3816 45.1953 93.3833C45.1875 93.385 45.157 93.2615 45.1049 93.0248C45.0623 92.7864 44.9594 92.4407 44.9095 91.9817C44.7632 91.072 44.6754 89.7289 44.8239 88.0829C44.9668 86.4377 45.4135 84.4976 46.2661 82.4811C47.1186 80.4672 48.4081 78.3938 50.1266 76.5311C51.8614 74.686 53.8136 73.2254 55.718 72.1383C57.6225 71.0448 59.4628 70.2948 61.0414 69.7863C62.6209 69.2761 63.9327 68.9778 64.8451 68.8129C65.2991 68.7197 65.658 68.6796 65.8986 68.6403C66.1401 68.6065 66.2675 68.592 66.2688 68.5997Z" fill="#1A2E35"/>
    <path d="M54.4737 71.6224C54.4604 71.6412 54.1518 71.4588 53.7507 71.0473C53.3501 70.6387 52.8818 69.9777 52.5819 69.1512C52.2849 68.3235 52.2234 67.5176 52.2716 66.9493C52.3181 66.3784 52.4394 66.0429 52.4622 66.0489C52.4997 66.0566 52.4347 66.4002 52.43 66.9553C52.4231 67.5095 52.5074 68.2791 52.7928 69.0756C53.082 69.8704 53.5089 70.5178 53.8687 70.9417C54.228 71.3686 54.4978 71.5929 54.4737 71.6224Z" fill="#1A2E35"/>
    <path d="M27.3878 108.781C27.3822 108.776 27.4412 108.709 27.5591 108.586C27.696 108.448 27.869 108.272 28.0824 108.056C28.1991 107.94 28.3269 107.813 28.4651 107.676C28.6092 107.542 28.7749 107.406 28.9479 107.255C29.3 106.958 29.6847 106.6 30.159 106.265C30.3923 106.092 30.6359 105.91 30.8894 105.721C31.145 105.534 31.4286 105.366 31.7131 105.177C32.2765 104.79 32.9212 104.447 33.5913 104.071C34.956 103.366 36.5135 102.697 38.2118 102.175C39.9165 101.673 41.5868 101.371 43.116 101.205C43.8833 101.148 44.6115 101.078 45.2967 101.09C45.6388 101.09 45.9689 101.073 46.2861 101.088C46.6025 101.105 46.9067 101.122 47.1977 101.138C47.7795 101.155 48.2999 101.241 48.7582 101.293C48.9867 101.323 49.2006 101.345 49.3956 101.377C49.5871 101.415 49.764 101.45 49.9258 101.482C50.2241 101.545 50.4664 101.595 50.6575 101.635C50.824 101.672 50.9105 101.695 50.9092 101.703C50.9079 101.711 50.818 101.702 50.6484 101.679C50.456 101.65 50.2116 101.613 49.9112 101.568C49.7489 101.542 49.5716 101.513 49.3797 101.482C49.1847 101.456 48.9712 101.441 48.7427 101.417C48.2852 101.376 47.767 101.301 47.1882 101.295C46.899 101.284 46.5964 101.272 46.2822 101.26C45.9672 101.25 45.6393 101.27 45.2997 101.274C44.6197 101.271 43.8975 101.347 43.1371 101.409C41.6213 101.585 39.9665 101.89 38.2764 102.389C36.5927 102.906 35.046 103.563 33.6868 104.253C33.0197 104.621 32.3759 104.955 31.8125 105.333C31.528 105.517 31.2436 105.68 30.9875 105.862C30.7327 106.046 30.4878 106.222 30.2537 106.391C29.776 106.715 29.3869 107.063 29.0288 107.349C28.8524 107.495 28.6833 107.625 28.5356 107.755C28.3932 107.886 28.2619 108.008 28.1414 108.119C27.9167 108.322 27.7338 108.487 27.5901 108.618C27.4631 108.73 27.3934 108.787 27.3878 108.781Z" fill="#1A2E35"/>
    <path d="M60.5234 56.2243C60.5156 56.2256 60.4958 56.1363 60.4653 55.9649C60.4304 55.794 60.3947 55.5393 60.3641 55.209C60.303 54.5501 60.2815 53.5835 60.4455 52.4071C60.7433 50.0513 61.8687 46.8976 63.7917 43.8308C64.7226 42.2822 65.6445 40.8318 66.3486 39.4426C67.0566 38.0547 67.5795 36.7497 68.0069 35.6497C68.4325 34.5485 68.7743 33.6546 69.0273 33.0439C69.1534 32.7384 69.2537 32.5021 69.326 32.3436C69.3975 32.1846 69.4383 32.1026 69.4452 32.1055C69.4526 32.1085 69.4254 32.1961 69.3678 32.3602C69.3006 32.5461 69.2145 32.7828 69.1087 33.0751C68.8737 33.7234 68.5505 34.6152 68.1554 35.7053C67.7465 36.8138 67.2365 38.1316 66.5337 39.5349C65.8339 40.9412 64.9129 42.4005 63.9849 43.9449C62.071 46.9993 60.9391 50.1021 60.603 52.4301C60.4209 53.5916 60.4179 54.5475 60.4519 55.2034C60.4829 55.8602 60.5479 56.2209 60.5234 56.2243Z" fill="#1A2E35"/>
    <path d="M99.3983 27.325C99.4 27.3173 99.4633 27.3262 99.583 27.3497C99.7004 27.3792 99.8829 27.3985 100.101 27.4779C100.548 27.6023 101.172 27.8723 101.87 28.3245C103.275 29.2201 104.841 30.9755 106.006 33.2074C107.184 35.4474 107.669 37.7067 107.92 39.3211C108.044 40.133 108.112 40.7936 108.147 41.2509C108.182 41.7081 108.189 41.9615 108.175 41.9628C108.158 41.9641 108.122 41.7132 108.06 41.2598C107.999 40.8065 107.907 40.1509 107.764 39.3467C107.474 37.7464 106.968 35.5171 105.808 33.3104C104.655 31.1046 103.136 29.3658 101.781 28.4548C100.43 27.5185 99.3751 27.3814 99.3983 27.325Z" fill="#1A2E35"/>
    <path d="M102.655 51.7873C102.647 51.7869 102.644 51.7002 102.645 51.5348C102.644 51.3694 102.651 51.1254 102.666 50.8118C102.695 50.1845 102.758 49.2777 102.865 48.1607C102.973 47.0432 103.122 45.7151 103.314 44.2439C103.41 43.508 103.516 42.7367 103.636 41.9376C103.76 41.1428 103.832 40.3189 103.781 39.472C103.681 37.7794 103.156 36.2068 102.398 34.9475C101.642 33.6861 100.715 32.6956 99.822 32.0319C98.9259 31.3627 98.063 31.0346 97.4571 30.8846C96.8485 30.7329 96.4965 30.7154 96.499 30.6923C96.4995 30.6846 96.5868 30.6863 96.7538 30.6966C96.9204 30.7047 97.1665 30.7342 97.4773 30.8004C98.0975 30.9265 98.9892 31.2384 99.9162 31.9054C100.842 32.5682 101.794 33.5613 102.576 34.8433C103.359 36.1222 103.903 37.7298 104.004 39.4596C104.057 40.3228 103.981 41.1723 103.852 41.9701C103.737 42.7675 103.625 43.5366 103.518 44.2712C103.315 45.739 103.15 47.0637 103.022 48.1773C102.895 49.2909 102.808 50.1934 102.752 50.8177C102.727 51.1104 102.706 51.3485 102.69 51.5369C102.675 51.7014 102.662 51.7878 102.655 51.7873Z" fill="#1A2E35"/>
    <path d="M68.4809 67.9587C68.4775 67.9604 68.4564 67.9322 68.4189 67.8745C68.3755 67.8052 68.3221 67.7202 68.2567 67.6164C68.1095 67.3707 67.9081 67.0352 67.6533 66.6109C67.139 65.7323 66.3918 64.4606 65.5784 62.8291C64.7741 61.198 63.8901 59.1939 63.3568 56.8334C62.8408 54.4878 62.6699 51.7457 63.4722 49.0481C63.6684 48.3759 63.9383 47.7353 64.2374 47.1226C64.5477 46.5145 64.9014 45.9415 65.2789 45.4022C66.0333 44.3211 66.8545 43.3549 67.5982 42.4109C68.3449 41.47 69.0103 40.5414 69.5177 39.6069C70.0277 38.6753 70.3733 37.7391 70.5304 36.8537C70.7008 35.9691 70.619 35.144 70.681 34.4175C70.7331 33.6864 70.9388 33.0843 71.1295 32.6112C71.3261 32.1382 71.5486 31.7976 71.744 31.6075C71.9386 31.4143 72.084 31.375 72.084 31.375C72.0909 31.3865 71.9549 31.4408 71.7772 31.6382C71.5981 31.8327 71.392 32.1728 71.2108 32.6433C71.0352 33.1142 70.8454 33.712 70.8067 34.4256C70.7567 35.1371 70.851 35.9695 70.6875 36.8797C70.5373 37.7861 70.1925 38.745 69.6821 39.6936C69.1742 40.6453 68.5072 41.5879 67.7617 42.5362C67.0198 43.4874 66.2042 44.4544 65.4605 45.5252C64.7104 46.5906 64.0781 47.7905 63.6873 49.1109C62.8993 51.759 63.059 54.4652 63.5587 56.789C64.0751 59.1268 64.938 61.1262 65.7213 62.7599C66.5132 64.3944 67.2384 65.6768 67.7295 66.5677C67.9683 67.0006 68.1577 67.3429 68.2958 67.5937C68.3535 67.7023 68.4004 67.7907 68.4387 67.8629C68.4701 67.9245 68.4843 67.9565 68.4809 67.9587Z" fill="#1A2E35"/>
    <g opacity="0.3">
      <g opacity="0.3">
        <g opacity="0.3">
          <path opacity="0.3" d="M64.8327 70.0332C60.6391 71.531 56.9826 74.385 54.3466 77.9531C51.7105 81.5213 50.0785 85.7803 49.4386 90.1595C49.3305 90.8988 49.3964 91.8795 50.1181 92.0906C50.5747 92.2239 51.068 91.9256 51.3159 91.5222C51.5642 91.1188 51.627 90.6338 51.6963 90.1663C52.9048 82.0122 57.9183 74.4936 65.0066 70.2041" fill="black"/>
        </g>
      </g>
    </g>
    <path d="M104.259 30.9044C104.264 30.9724 103.376 30.9224 102.493 31.4723C101.598 32.0035 101.239 32.812 101.181 32.7765C101.157 32.7671 101.207 32.5517 101.391 32.2479C101.573 31.9449 101.909 31.5676 102.376 31.2822C102.844 30.9989 103.335 30.8732 103.69 30.8502C104.045 30.8254 104.262 30.8788 104.259 30.9044Z" fill="#FAFAFA"/>
    <path d="M106.754 50.651C106.706 50.7023 106.016 50.0105 104.93 49.5524C103.848 49.0806 102.868 49.0559 102.874 48.9866C102.862 48.9332 103.887 48.8563 105.018 49.3481C106.154 49.8289 106.8 50.6224 106.754 50.651Z" fill="#FAFAFA"/>
    <path d="M121.745 48.3619C121.726 48.3687 121.658 48.1704 121.465 47.8525C121.275 47.5354 120.933 47.1085 120.396 46.7162C119.862 46.3214 119.133 45.9843 118.272 45.7821C117.413 45.5706 116.436 45.483 115.41 45.3796C113.357 45.1715 111.499 44.9707 110.155 44.8147C109.518 44.7356 108.984 44.6698 108.566 44.6181C108.191 44.5668 107.984 44.5309 107.986 44.516C107.988 44.5006 108.197 44.5074 108.575 44.5322C108.995 44.5656 109.531 44.6079 110.171 44.6583C111.519 44.7745 113.379 44.9506 115.432 45.1587C116.457 45.2621 117.445 45.3561 118.322 45.5834C119.2 45.8014 119.952 46.1667 120.491 46.591C121.034 47.0128 121.369 47.4713 121.541 47.8102C121.63 47.9786 121.682 48.1174 121.712 48.2127C121.741 48.3084 121.752 48.3597 121.745 48.3619Z" fill="#FAFAFA"/>
    <path d="M124.163 69.4118C124.143 69.4187 124.038 69.1093 123.805 68.5713C123.575 68.032 123.18 67.2752 122.568 66.4244C121.96 65.5719 121.1 64.6506 120.006 63.7977C118.911 62.9465 117.571 62.1811 116.066 61.6273C113.03 60.5347 110.043 60.4817 107.95 60.6325C106.897 60.7082 106.048 60.8231 105.463 60.9146C105.191 60.9573 104.968 60.9919 104.79 61.0197C104.635 61.0423 104.553 61.0509 104.552 61.0432C104.55 61.0355 104.629 61.0124 104.781 60.9757C104.932 60.9406 105.156 60.8829 105.448 60.8291C106.029 60.7112 106.879 60.5719 107.938 60.4757C110.04 60.2838 113.062 60.3099 116.143 61.4184C117.672 61.9807 119.03 62.7636 120.133 63.6366C121.237 64.5113 122.097 65.4583 122.697 66.3338C123.301 67.2077 123.678 67.9846 123.885 68.5384C124.002 68.8102 124.055 69.0353 124.105 69.1819C124.151 69.3306 124.171 69.4093 124.163 69.4118Z" fill="#FAFAFA"/>
    <path d="M121.694 102.661C121.686 102.661 121.679 102.584 121.672 102.438C121.666 102.268 121.659 102.058 121.651 101.803C121.649 101.527 121.629 101.19 121.608 100.799C121.592 100.407 121.563 99.9625 121.52 99.4711C121.375 97.5041 121.023 94.7996 120.526 91.8289C120.024 88.8577 119.505 86.1785 119.147 84.235C118.967 83.2637 118.826 82.4766 118.736 81.9313C118.697 81.6792 118.664 81.4715 118.638 81.3023C118.618 81.1583 118.611 81.0818 118.619 81.0801C118.626 81.0784 118.648 81.1523 118.682 81.2938C118.72 81.4604 118.766 81.6655 118.822 81.9146C118.942 82.4877 119.105 83.2624 119.303 84.2047C119.701 86.14 120.245 88.8159 120.747 91.7917C121.245 94.7671 121.574 97.4832 121.679 99.46C121.711 99.9535 121.729 100.401 121.733 100.794C121.743 101.187 121.75 101.525 121.739 101.802C121.73 102.058 121.723 102.268 121.717 102.439C121.71 102.585 121.702 102.661 121.694 102.661Z" fill="#FAFAFA"/>
    <g opacity="0.3">
      <g opacity="0.3">
        <g opacity="0.3">
          <path opacity="0.3" d="M119.792 87.0226C119.835 88.1716 120.168 89.2746 120.346 90.4108C120.524 91.547 121.197 92.7923 122.346 92.9294C123.312 93.0448 124.212 92.2735 124.541 91.3642C124.87 90.4552 124.751 89.4506 124.566 88.5024C123.764 84.3954 121.809 80.6107 119.785 76.9417C118.006 73.7167 116.111 70.4738 113.373 67.9975C110.635 65.5211 106.889 63.8871 103.237 64.4943C103.237 64.4943 108.686 64.6614 112.128 68.0184C115.569 71.3759 119.721 85.118 119.792 87.0226Z" fill="black"/>
        </g>
      </g>
    </g>
    <g opacity="0.3">
      <g opacity="0.3">
        <g opacity="0.3">
          <path opacity="0.3" d="M103.7 63.7611C106.643 55.1198 109.296 44.9381 107.391 37.2207C110.715 40.9961 111.434 46.8999 110.183 51.5748C108.933 56.2497 105.882 60.431 103.237 64.4927" fill="black"/>
        </g>
      </g>
    </g>
    <path d="M135.895 112.066C135.854 112.069 135.833 111.578 135.666 110.813C135.501 110.049 135.151 109.015 134.529 107.994C133.902 106.975 133.138 106.191 132.53 105.694C131.922 105.195 131.494 104.951 131.514 104.916C131.522 104.903 131.634 104.954 131.832 105.058C132.033 105.159 132.307 105.333 132.628 105.571C133.273 106.045 134.078 106.834 134.72 107.878C135.359 108.925 135.694 109.997 135.821 110.783C135.886 111.176 135.916 111.498 135.914 111.721C135.916 111.943 135.91 112.066 135.895 112.066Z" fill="#FAFAFA"/>
    <path d="M151.018 121.77C151.042 121.77 151.058 122.077 150.942 122.556C150.829 123.033 150.553 123.673 150.07 124.257C149.584 124.839 149.003 125.23 148.553 125.431C148.102 125.635 147.796 125.677 147.79 125.654C147.779 125.618 148.065 125.522 148.481 125.291C148.897 125.061 149.433 124.67 149.897 124.115C150.357 123.558 150.642 122.961 150.79 122.512C150.94 122.062 150.98 121.765 151.018 121.77Z" fill="#FAFAFA"/>
    <path d="M134.544 86.4962C134.552 86.4936 134.583 86.5641 134.635 86.7013C134.684 86.8397 134.77 87.0397 134.846 87.3085C135.016 87.8401 135.21 88.6289 135.33 89.622C135.582 91.5919 135.407 94.4661 134.072 97.2462C132.733 100.026 130.59 101.967 128.889 103.011C128.036 103.542 127.296 103.888 126.773 104.091C126.514 104.201 126.303 104.26 126.164 104.309C126.024 104.355 125.949 104.376 125.947 104.368C125.94 104.35 126.229 104.238 126.738 104.011C127.248 103.785 127.97 103.421 128.803 102.878C130.465 101.812 132.553 99.8832 133.869 97.1501C135.183 94.4165 135.382 91.5915 135.173 89.6387C135.074 88.6546 134.906 87.8674 134.762 87.332C134.62 86.7961 134.526 86.5026 134.544 86.4962Z" fill="#FAFAFA"/>
    <g opacity="0.3">
      <g opacity="0.3">
        <g opacity="0.3">
          <path opacity="0.3" d="M138.192 104.427C137.544 103.861 136.711 103.551 135.879 103.32C134.97 103.069 134.031 102.895 133.176 102.497C132.322 102.099 131.538 101.426 131.284 100.523C131.066 99.7491 131.262 98.9282 131.393 98.1347C131.814 95.5845 131.543 92.9244 130.614 90.5096C130.557 90.3605 130.487 90.2007 130.347 90.1242C130.146 90.0152 129.882 90.131 129.751 90.3169C129.62 90.5032 129.588 90.7382 129.556 90.963C129.157 93.7974 128.261 96.6284 126.488 98.8855C124.715 101.143 122.293 103.019 119.411 102.971L119.253 103.437C120.661 104.311 122.354 104.624 124.014 104.687C125.673 104.751 127.333 104.584 128.993 104.581C132.472 104.576 135.95 105.305 139.131 106.704C139.277 105.859 138.841 104.992 138.192 104.427Z" fill="black"/>
        </g>
      </g>
    </g>
    <path d="M45.9318 111.248C45.8887 111.254 45.8207 110.599 45.5307 109.586C45.3895 109.079 45.1717 108.49 44.8864 107.856C44.5894 107.228 44.2176 106.558 43.7584 105.899C43.2914 105.246 42.7844 104.67 42.2912 104.177C41.789 103.694 41.3061 103.29 40.874 102.985C40.0145 102.368 39.418 102.081 39.4382 102.043C39.4451 102.029 39.5971 102.093 39.8678 102.221C40.0042 102.284 40.1682 102.365 40.3502 102.476C40.5331 102.585 40.7479 102.699 40.9652 102.856C41.4145 103.149 41.9164 103.547 42.4354 104.03C42.9454 104.523 43.467 105.105 43.9426 105.772C44.4104 106.442 44.784 107.128 45.0758 107.772C45.3559 108.421 45.5612 109.026 45.6847 109.545C45.7592 109.802 45.7936 110.041 45.8341 110.249C45.8767 110.456 45.8978 110.637 45.9103 110.786C45.9387 111.083 45.9473 111.246 45.9318 111.248Z" fill="#FAFAFA"/>
    <path d="M57.1515 94.0783C57.1562 94.1022 56.8171 94.1975 56.2499 94.221C55.6852 94.2458 54.8916 94.1702 54.0696 93.8881C53.2484 93.6031 52.5787 93.1736 52.1514 92.8061C51.7214 92.4386 51.5149 92.1549 51.5334 92.1391C51.579 92.0801 52.5327 93.136 54.1432 93.6779C55.7442 94.2445 57.1524 94.0039 57.1515 94.0783Z" fill="#FAFAFA"/>
    <path d="M53.3916 83.8062C53.355 83.8276 53.1571 83.4652 52.7077 82.9926C52.4861 82.7537 52.1883 82.5029 51.8354 82.2585C51.4756 82.0234 51.0564 81.8008 50.5899 81.6299C50.1203 81.4666 49.6542 81.3735 49.2256 81.3277C48.7965 81.2931 48.4061 81.2987 48.0821 81.3427C47.4326 81.4235 47.0479 81.5777 47.0332 81.538C47.0272 81.5239 47.1193 81.4769 47.2923 81.4038C47.4636 81.326 47.727 81.2487 48.0584 81.1867C48.3902 81.1209 48.7952 81.0983 49.2424 81.1231C49.6887 81.1594 50.1763 81.25 50.6652 81.4201C51.1515 81.5974 51.5858 81.8358 51.9529 82.0897C52.3139 82.3533 52.6118 82.6268 52.8252 82.887C53.0413 83.1443 53.1949 83.3699 53.2771 83.5383C53.3645 83.7049 53.4054 83.7989 53.3916 83.8062Z" fill="#FAFAFA"/>
    <path d="M44.8584 90.2224C44.8468 90.2925 43.8014 90.0118 42.5352 90.2737C41.2647 90.5168 40.4095 91.1762 40.3716 91.1159C40.3548 91.0954 40.5438 90.9027 40.9122 90.6715C41.2789 90.4399 41.8358 90.187 42.4909 90.0553C43.1463 89.9259 43.7584 89.9455 44.1866 90.019C44.6165 90.0917 44.8657 90.1972 44.8584 90.2224Z" fill="#FAFAFA"/>
    <path d="M53.4834 73.088C53.4834 73.1137 53.1838 73.147 52.7018 73.0897C52.2211 73.0342 51.5613 72.8645 50.902 72.5218C50.2435 72.177 49.7283 71.7334 49.4094 71.3723C49.0883 71.0108 48.9463 70.7467 48.9674 70.7322C49.0207 70.6835 49.7201 71.6659 51.0061 72.3244C52.2818 73.0021 53.4933 73.0162 53.4834 73.088Z" fill="#FAFAFA"/>
    <path d="M62.0785 71.6309C62.02 71.6625 61.7411 71.1818 61.2083 70.7827C60.682 70.375 60.1423 70.2319 60.1578 70.1673C60.1595 70.1101 60.7689 70.1631 61.3447 70.6062C61.9244 71.0434 62.134 71.6142 62.0785 71.6309Z" fill="#FAFAFA"/>
    <path d="M66.9117 68.5356C66.9109 68.5433 66.8411 68.5408 66.7086 68.5296C66.5769 68.5147 66.3794 68.5057 66.1306 68.4604C65.6301 68.3878 64.9113 68.2297 64.0566 67.9284C62.3566 67.3426 60.0937 66.0362 58.4083 63.8223C56.7251 61.6054 56.08 59.0863 55.9789 57.3023C55.9216 56.4036 55.9655 55.6738 56.0318 55.1764C56.0559 54.9264 56.1015 54.7358 56.123 54.6059C56.1484 54.4764 56.1652 54.4089 56.173 54.4102C56.1919 54.4132 56.1566 54.6879 56.1187 55.1849C56.0791 55.6814 56.0602 56.4045 56.1368 57.2903C56.2775 59.0492 56.9364 61.5144 58.5874 63.6885C60.2405 65.8598 62.447 67.1648 64.1121 67.781C64.9488 68.0972 65.6546 68.2771 66.1465 68.3754C66.638 68.4749 66.9143 68.5168 66.9117 68.5356Z" fill="#FAFAFA"/>
    <path d="M63.1272 49.3743C63.1117 49.3966 62.9662 49.3342 62.7837 49.1598C62.6017 48.988 62.3973 48.6923 62.2888 48.3214C62.1816 47.9501 62.1963 47.5916 62.2583 47.3501C62.3194 47.1061 62.4093 46.9766 62.4343 46.9869C62.4975 47.0057 62.2978 47.58 62.5044 48.2599C62.6934 48.944 63.1702 49.3252 63.1272 49.3743Z" fill="#FAFAFA"/>
    <path d="M69.8994 38.3242C69.908 38.346 69.7234 38.4455 69.3907 38.4575C69.061 38.4725 68.5932 38.3579 68.1848 38.055C67.7772 37.7507 67.5358 37.3366 67.4575 37.0183C67.3757 36.6982 67.4205 36.494 67.4437 36.4961C67.4816 36.4948 67.4958 36.6901 67.6077 36.9692C67.7166 37.2482 67.9515 37.6016 68.3187 37.8772C68.6879 38.1498 69.0955 38.275 69.3954 38.3003C69.6971 38.3289 69.8899 38.2879 69.8994 38.3242Z" fill="#FAFAFA"/>
    <path d="M26.1665 115.811C26.1574 115.834 25.8966 115.763 25.5355 115.526C25.1753 115.291 24.7337 114.866 24.4178 114.285C24.104 113.702 23.99 113.102 23.9917 112.674C23.9913 112.245 24.0756 111.99 24.0993 111.994C24.1363 111.999 24.1096 112.258 24.1497 112.666C24.188 113.073 24.3192 113.63 24.6149 114.179C24.9136 114.727 25.3087 115.143 25.6298 115.399C25.9504 115.657 26.1824 115.778 26.1665 115.811Z" fill="#FAFAFA"/>
    <path d="M22.7638 127.134C22.7655 127.191 22.0472 127.201 21.2489 126.858C20.448 126.521 19.9604 125.997 20.0025 125.959C20.046 125.909 20.5762 126.334 21.3371 126.654C22.0946 126.98 22.7702 127.068 22.7638 127.134Z" fill="#FAFAFA"/>
    <path d="M89.2774 0.00031245C89.3454 0.0268063 88.7119 1.32842 88.5062 3.06889C88.2828 4.80766 88.5815 6.22251 88.5088 6.23191C88.4829 6.23747 88.3741 5.89262 88.2927 5.31531C88.2109 4.73928 88.1752 3.92738 88.2832 3.04154C88.3934 2.15614 88.6254 1.37714 88.8449 0.837858C89.0644 0.297299 89.2537 -0.0112252 89.2774 0.00031245Z" fill="#1A2E35"/>
    <path d="M92.6994 2.47275C92.7312 2.53856 91.4246 3.01587 90.1774 4.13289C88.9165 5.2358 88.2894 6.46947 88.2274 6.43058C88.2038 6.41904 88.3277 6.09685 88.6204 5.62295C88.9113 5.14948 89.389 4.53414 90.0285 3.96666C90.6693 3.40089 91.3394 3.00049 91.8464 2.7676C92.3538 2.53386 92.6903 2.44839 92.6994 2.47275Z" fill="#1A2E35"/>
    <path d="M72.6295 1.50842C72.6174 1.54688 72.3403 1.21913 71.6809 1.23409C71.3637 1.25246 70.9639 1.35672 70.6041 1.63576C70.2417 1.90284 69.9258 2.35879 69.9172 2.93225C69.8953 3.49589 70.1427 4.11336 70.5985 4.60179C70.8288 4.84322 71.1111 5.05304 71.433 5.20175C71.7592 5.34661 72.1203 5.44105 72.4982 5.47267C73.2552 5.54147 74.0648 5.3778 74.83 5.05517C75.6004 4.73127 76.3324 4.25438 77.0723 3.75014C77.8121 3.24548 78.5416 2.7421 79.3154 2.36734C80.0836 1.98745 80.9091 1.75969 81.7036 1.73661C82.4976 1.70627 83.2452 1.82677 83.9226 1.993C84.5983 2.16521 85.2211 2.3605 85.759 2.62501C86.2957 2.88781 86.736 3.22668 87.0299 3.60485C87.3239 3.9826 87.4715 4.37788 87.5266 4.70606C87.5856 5.03637 87.546 5.29918 87.5034 5.46711C87.4603 5.63676 87.4074 5.71453 87.4074 5.71453C87.3747 5.71196 87.5696 5.36071 87.4405 4.72187C87.3747 4.40907 87.2215 4.03474 86.9314 3.68177C86.643 3.32923 86.214 3.01173 85.6893 2.76603C85.1647 2.51861 84.5462 2.33358 83.8787 2.17205C83.2108 2.01651 82.4787 1.90626 81.7126 1.9413C80.9457 1.9695 80.1611 2.19 79.4122 2.56262C78.6595 2.93011 77.9408 3.42709 77.1992 3.93303C76.4577 4.43812 75.7118 4.92356 74.9156 5.25516C74.122 5.58633 73.2785 5.75427 72.4793 5.67607C72.0807 5.63975 71.6973 5.53634 71.3508 5.37866C71.0044 5.21457 70.7052 4.9868 70.4625 4.72614C69.9826 4.20011 69.7257 3.53563 69.7593 2.92456C69.7765 2.62202 69.8578 2.33187 70.0037 2.09642C70.147 1.86054 70.3351 1.67636 70.5292 1.53534C70.9196 1.24904 71.3444 1.15247 71.6792 1.14648C72.0188 1.15033 72.274 1.24605 72.4212 1.34177C72.4999 1.38151 72.546 1.43364 72.5821 1.45971C72.6157 1.4892 72.6316 1.50543 72.6295 1.50842Z" fill="#1A2E35"/>
    <path d="M70.2874 20.1837C70.2921 20.1598 70.5555 20.2226 71.038 20.2444C71.5191 20.2675 72.2237 20.2201 73.05 19.9786C73.875 19.7359 74.8107 19.2894 75.7412 18.6351C76.6742 17.9826 77.5901 17.1182 78.5408 16.2011C79.4923 15.2832 80.4129 14.4077 81.3602 13.7385C82.3036 13.068 83.2556 12.6057 84.0987 12.3557C84.9431 12.1061 85.6644 12.06 86.1529 12.0937C86.3978 12.113 86.5863 12.1352 86.712 12.1655C86.8385 12.1907 86.9035 12.2074 86.9022 12.2147C86.9086 12.2745 85.8026 11.9668 84.1456 12.5057C83.327 12.7693 82.4017 13.2364 81.4807 13.9043C80.5571 14.5705 79.6481 15.4422 78.6966 16.3605C77.745 17.2784 76.8167 18.1471 75.8595 18.8026C74.9058 19.4594 73.9426 19.9009 73.0935 20.1295C72.2426 20.3572 71.5191 20.3807 71.0319 20.3307C70.7879 20.3034 70.6003 20.2743 70.4755 20.2397C70.3502 20.2102 70.2857 20.191 70.2874 20.1837Z" fill="#1A2E35"/>
    <path d="M96.3385 8.55264C96.2985 8.56888 96.1547 8.08302 95.677 7.45058C95.2122 6.82328 94.3459 6.06521 93.1744 5.7631C92.0012 5.46611 90.874 5.71566 90.1617 6.04214C89.4357 6.36775 89.0742 6.72414 89.0471 6.69081C89.038 6.68098 89.1185 6.58398 89.2889 6.43313C89.4589 6.28186 89.7284 6.08615 90.0938 5.89984C90.8121 5.52465 91.9909 5.23365 93.2303 5.54688C94.4677 5.86608 95.359 6.68568 95.8062 7.35828C96.0355 7.69672 96.1767 7.9967 96.252 8.21078C96.3278 8.4253 96.351 8.54879 96.3385 8.55264Z" fill="#1A2E35"/>
    <path d="M122.851 49.6354C122.836 49.6349 122.819 49.4281 122.803 49.0551C122.791 48.6384 122.774 48.1086 122.755 47.4753C122.743 46.7937 122.729 46.0036 122.713 45.134C122.709 44.6934 122.702 44.2293 122.615 43.7725C122.528 43.3149 122.321 42.8747 121.907 42.6013C121.708 42.4534 121.481 42.3214 121.297 42.118C121.104 41.9188 121.022 41.6189 121.037 41.3684C121.042 41.1146 121.09 40.8834 121.082 40.6689C121.08 40.4544 120.999 40.2715 120.853 40.1369C120.551 39.8694 120.111 39.7801 119.763 39.5523C119.4 39.319 119.218 38.9609 119.065 38.6699C118.91 38.3725 118.781 38.1041 118.599 37.9251C118.419 37.7426 118.222 37.6285 118.05 37.5798C117.694 37.482 117.509 37.6533 117.502 37.6255C117.487 37.6328 117.666 37.4174 118.071 37.4956C118.263 37.5362 118.483 37.6478 118.686 37.8362C118.896 38.0255 119.043 38.3076 119.204 38.5956C119.366 38.8827 119.546 39.2041 119.863 39.3964C120.177 39.6006 120.613 39.669 120.993 39.9856C121.18 40.1467 121.295 40.41 121.296 40.6599C121.306 40.9086 121.259 41.1445 121.256 41.371C121.249 41.5988 121.307 41.8043 121.463 41.9701C121.614 42.1385 121.829 42.2671 122.04 42.4218C122.254 42.5726 122.456 42.7756 122.579 43.0085C122.71 43.2392 122.782 43.4879 122.831 43.7302C122.92 44.2187 122.921 44.6866 122.92 45.1267C122.917 45.9984 122.915 46.7907 122.914 47.474C122.904 48.1081 122.896 48.6384 122.89 49.0555C122.88 49.4294 122.867 49.6354 122.851 49.6354Z" fill="#1A2E35"/>
    <path d="M124.444 51.6456C124.436 51.6511 124.331 51.5144 124.249 51.2196C124.164 50.9268 124.148 50.473 124.265 49.9449C124.368 49.4129 124.629 48.8219 124.813 48.157C124.99 47.5053 125.094 46.6848 124.609 46.0563C124.494 45.896 124.361 45.7405 124.251 45.5619C124.139 45.3854 124.066 45.1726 124.048 44.9687C124.011 44.5572 124.111 44.1906 124.14 43.8513C124.208 43.1736 123.97 42.5676 123.684 42.142C123.392 41.71 123.045 41.4493 122.797 41.2964C122.543 41.1472 122.385 41.0934 122.392 41.0742C122.395 41.0643 122.563 41.09 122.839 41.2207C123.109 41.3549 123.489 41.6079 123.814 42.0523C124.133 42.489 124.408 43.1317 124.346 43.8692C124.319 44.2286 124.23 44.591 124.267 44.9465C124.289 45.3067 124.541 45.5926 124.792 45.9272C125.049 46.2678 125.179 46.6968 125.18 47.0942C125.19 47.4946 125.11 47.8689 125.013 48.2121C124.81 48.8992 124.539 49.4693 124.42 49.9812C124.288 50.4884 124.28 50.9162 124.335 51.202C124.386 51.4879 124.463 51.637 124.444 51.6456Z" fill="#1A2E35"/>
    <path d="M47.3307 61.977C47.323 61.9766 47.3208 61.9176 47.3238 61.8052C47.3255 61.6929 47.3397 61.5275 47.3699 61.3164C47.4288 60.8938 47.5696 60.2874 47.8398 59.5729C48.1105 58.8572 48.4871 58.0376 48.9334 57.1308C49.1654 56.6821 49.4512 56.2138 49.866 55.8253C50.2706 55.4463 50.7694 55.1335 50.9407 54.6152C51.1103 54.1037 51.0315 53.4939 51.263 52.9585C51.4735 52.429 51.7971 52.0004 52.0678 51.5812C52.6209 50.7548 53.1223 50.0053 53.5526 49.3626C53.9645 48.7609 54.3067 48.2614 54.5696 47.8776C54.8141 47.5298 54.9552 47.3413 54.9681 47.3499C54.9811 47.3584 54.8644 47.5627 54.6428 47.9251C54.3953 48.3191 54.073 48.8314 53.6852 49.4489C53.2669 50.0988 52.7788 50.8573 52.2409 51.6936C51.9723 52.1179 51.6586 52.5461 51.4679 53.0371C51.2553 53.52 51.3401 54.0926 51.1524 54.6874C50.9411 55.301 50.3933 55.6266 50.0158 55.9852C49.6263 56.3458 49.3483 56.7889 49.1163 57.2265C48.6657 58.1158 48.2719 58.9337 47.9875 59.6306C47.7013 60.3293 47.5399 60.919 47.4555 61.3318C47.3716 61.7441 47.3496 61.9783 47.3307 61.977Z" fill="#1A2E35"/>
    <path d="M37.5641 96.2492C37.5538 96.2219 37.8077 96.3001 38.0375 96.015C38.1425 95.8792 38.2338 95.6702 38.223 95.4271C38.2092 95.186 38.078 94.9198 37.8942 94.657C37.7109 94.3942 37.4759 94.1041 37.3102 93.7408C37.1385 93.3828 37.0331 92.9657 36.9969 92.5217C36.9668 92.0782 37.0107 91.6025 37.1652 91.1406C37.3059 90.6748 37.5973 90.2351 37.9101 89.8505C38.0616 89.6535 38.2024 89.4578 38.2975 89.2489C38.393 89.0412 38.4356 88.8181 38.4433 88.5938C38.4554 88.1425 38.3409 87.7007 38.2669 87.2708C38.1839 86.8418 38.1658 86.4068 38.2256 86.0162C38.2867 85.6248 38.4085 85.2731 38.5574 84.9731C38.8556 84.3689 39.2554 83.98 39.5511 83.757C39.7004 83.6454 39.8235 83.5685 39.9117 83.5258C39.9991 83.4813 40.046 83.4613 40.0498 83.4681C40.0606 83.4861 39.8812 83.5865 39.6062 83.8241C39.3346 84.0616 38.9675 84.4535 38.7003 85.0406C38.4261 85.6218 38.2807 86.3978 38.47 87.2341C38.5471 87.6554 38.6714 88.1041 38.6628 88.5998C38.6564 88.8459 38.609 89.1036 38.5006 89.3399C38.3934 89.5762 38.2415 89.7847 38.0883 89.9851C37.7707 90.3774 37.5125 90.7676 37.3735 91.2086C37.2255 91.641 37.1798 92.0888 37.2027 92.508C37.2315 92.9277 37.324 93.3234 37.4794 93.6648C37.6274 94.0096 37.843 94.29 38.0263 94.5703C38.2075 94.8489 38.3435 95.1395 38.3478 95.4232C38.3465 95.7044 38.2316 95.9274 38.1034 96.0706C37.9704 96.215 37.8159 96.2702 37.7143 96.2727C37.6123 96.2796 37.5641 96.2492 37.5641 96.2492Z" fill="#1A2E35"/>
    <path d="M138.721 83.8625C138.698 83.8599 138.748 83.6287 138.695 83.2202C138.639 82.8202 138.457 82.2177 137.936 81.6985C137.68 81.4366 137.342 81.2255 136.927 81.0879C136.721 81.0131 136.5 80.9426 136.28 80.8315C136.061 80.7217 135.841 80.5512 135.711 80.3084C135.451 79.8085 135.575 79.2466 135.578 78.7321C135.583 78.4714 135.555 78.2103 135.444 77.9843C135.329 77.7586 135.129 77.5821 134.886 77.4685C133.877 77.0083 132.699 77.4672 131.713 77.0138C131.471 76.9083 131.264 76.7343 131.116 76.5305C130.97 76.3233 130.891 76.0904 130.846 75.8677C130.756 75.4186 130.789 75.0016 130.777 74.6341C130.769 74.2661 130.721 73.9354 130.601 73.6769C130.481 73.4196 130.294 73.2406 130.121 73.1389C129.763 72.9291 129.509 73.0372 129.512 73.0094C129.497 73.0103 129.757 72.8607 130.163 73.0632C130.357 73.1624 130.569 73.3444 130.713 73.6226C130.857 73.8999 130.917 74.2516 130.935 74.6281C130.957 75.005 130.935 75.4152 131.027 75.8297C131.107 76.2442 131.36 76.6467 131.799 76.8275C132.229 77.0189 132.755 77.0296 133.289 77.0228C133.827 77.0108 134.424 77.0134 134.983 77.2681C135.259 77.3963 135.506 77.6108 135.643 77.8855C135.778 78.162 135.804 78.4624 135.798 78.7359C135.785 79.2795 135.681 79.8072 135.894 80.2127C136.106 80.6195 136.587 80.7601 136.993 80.9161C137.416 81.0639 137.792 81.3071 138.051 81.5904C138.588 82.157 138.751 82.7959 138.783 83.2125C138.796 83.4249 138.783 83.5898 138.765 83.6997C138.743 83.8078 138.729 83.8637 138.721 83.8625Z" fill="#1A2E35"/>
    <path d="M102.042 94.6589C98.6007 90.5314 96.4467 85.3019 92.6822 78.5156C92.6822 78.5156 85.5685 109.203 94.643 109.925C98.8525 110.26 101.319 107.62 99.9663 100.232C99.0651 95.3071 102.042 94.6589 102.042 94.6589Z" fill="#FF4F5B"/>
    <path d="M96.7092 85.7754C96.7169 85.7767 96.7105 85.8566 96.6915 86.007C96.667 86.1818 96.636 86.3984 96.5986 86.663C96.5133 87.2642 96.3976 88.08 96.2568 89.0739C95.9827 91.1109 95.6371 93.9308 95.403 97.0571C95.1827 100.18 95.057 103.036 95.4551 105.049C95.6376 106.056 95.9246 106.838 96.1617 107.359C96.3959 107.882 96.574 108.149 96.5516 108.162C96.5452 108.166 96.4983 108.101 96.4152 107.973C96.3279 107.848 96.2147 107.654 96.0826 107.396C95.8187 106.882 95.5041 106.095 95.2989 105.079C94.8556 103.042 94.9585 100.168 95.1792 97.0404C95.4138 93.9069 95.7852 91.0853 96.0998 89.0513C96.256 88.0338 96.4053 87.2142 96.5125 86.6484C96.5667 86.3869 96.611 86.172 96.6468 85.9989C96.6803 85.8511 96.7014 85.7737 96.7092 85.7754Z" fill="#1A2E35"/>
    <path d="M95.48 105.501C95.5114 105.545 94.5607 106.077 93.2459 106.187C91.9316 106.308 90.9017 105.951 90.9249 105.902C90.9391 105.833 91.9596 106.083 93.2261 105.965C94.4936 105.86 95.4537 105.436 95.48 105.501Z" fill="#FAFAFA"/>
    <path d="M100.106 95.9141C100.08 95.9761 99.0786 95.5607 97.7784 95.2975C96.4796 95.0257 95.395 95.0121 95.395 94.9445C95.3899 94.8894 96.4955 94.8022 97.8236 95.0796C99.1531 95.3492 100.133 95.8654 100.106 95.9141Z" fill="#FAFAFA"/>
    <path d="M96.2675 85.7029C96.2193 85.7542 95.4494 84.9662 94.2426 84.3971C93.0419 83.8142 91.9414 83.7074 91.9517 83.6377C91.9453 83.5843 93.0935 83.5933 94.3399 84.1962C95.591 84.7885 96.3136 85.6747 96.2675 85.7029Z" fill="#FAFAFA"/>
    <g opacity="0.3">
      <g opacity="0.3">
        <path opacity="0.3" d="M96.6621 86.041C96.6621 86.041 93.0861 108.168 97.5121 108.721C97.5121 108.721 98.848 109.161 99.5969 106.652C100.346 104.144 99.383 101.205 99.157 99.5477C98.9311 97.8902 99.6227 96.3522 100.288 95.5976C101.134 94.6378 102.06 94.5075 102.041 94.5438C101.966 94.6925 96.7086 86.1299 96.6621 86.041Z" fill="black"/>
      </g>
    </g>
    <path d="M76.2084 29.0049C76.2205 29.31 75.4566 29.5869 74.5068 29.5113C73.5565 29.4382 72.8455 29.0459 72.9054 28.7464C72.9652 28.443 73.7157 28.3349 74.5946 28.4019C75.4725 28.4729 76.1972 28.6959 76.2084 29.0049Z" fill="#FF9A6C"/>
    <path d="M90.0062 27.0802C90.1448 27.349 88.9303 28.2314 87.1907 28.778C85.4524 29.3305 83.9483 29.307 83.9048 29.0079C83.8566 28.6989 85.2067 28.2412 86.8512 27.7174C88.4973 27.2016 89.8659 26.8003 90.0062 27.0802Z" fill="#FF9A6C"/>
  </g>
  <defs>
    <clipPath id="clip0_6504_96464">
      <rect width="180" height="165" fill="white"/>
    </clipPath>
  </defs>
</svg>
