<svg width="24" height="24" viewBox="0 0 24 24" fill="none" xmlns="http://www.w3.org/2000/svg">
<mask id="mask0_10789_153133" style="mask-type:alpha" maskUnits="userSpaceOnUse" x="0" y="0" width="24" height="24">
<path d="M0 0H24V24H0V0Z" fill="#D9D9D9"/>
</mask>
<g mask="url(#mask0_10789_153133)">
<path d="M12 23C9.39375 22.3583 7.24237 20.8961 5.54588 18.6132C3.84863 16.3311 3 13.7967 3 11.01V4.3L12 1L21 4.3V11.01C21 13.7967 20.1518 16.3311 18.4553 18.6132C16.758 20.8961 14.6062 22.3583 12 23ZM12 20.69C13.95 20.085 15.5625 18.875 16.8375 17.06C18.1125 15.245 18.75 13.2283 18.75 11.01V5.8125L12 3.3375L5.25 5.8125V11.01C5.25 13.2283 5.8875 15.245 7.1625 17.06C8.4375 18.875 10.05 20.085 12 20.69Z" fill="white"/>
</g>
<mask id="mask1_10789_153133" style="mask-type:alpha" maskUnits="userSpaceOnUse" x="6" y="5" width="12" height="12">
<rect x="6" y="5" width="12" height="12" fill="#D9D9D9"/>
</mask>
<g mask="url(#mask1_10789_153133)">
<path d="M10.25 16V15.25L11.25 14.5V11.75L7 13V12L11.25 9.5V6.75C11.25 6.54167 11.323 6.36467 11.469 6.219C11.6147 6.073 11.7917 6 12 6C12.2083 6 12.3853 6.073 12.531 6.219C12.677 6.36467 12.75 6.54167 12.75 6.75V9.5L17 12V13L12.75 11.75V14.5L13.75 15.25V16L12 15.5L10.25 16Z" fill="white"/>
</g>
</svg>
