<svg width="215" height="191" viewBox="0 0 215 191" fill="none" xmlns="http://www.w3.org/2000/svg">
<path d="M127.365 9.56193C130.087 9.60166 132.809 9.6709 135.531 9.6743C147.969 9.68792 160.406 9.66409 172.842 9.72197C173.693 9.72538 174.544 10.2838 175.394 10.5846C175.373 15.6319 175.353 20.6804 175.332 25.7277C175.329 31.7614 175.327 37.7939 175.323 43.8276C175.341 46.0579 175.36 48.2881 175.378 50.5184C175.363 53.3389 175.347 56.1582 175.332 58.9787C175.329 60.1012 175.327 61.2237 175.323 62.3451C175.323 63.7423 175.323 65.1406 175.323 66.5378C175.334 67.6535 175.344 68.7681 175.355 69.8838C175.339 71.2844 175.323 72.6861 175.306 74.0867C175.322 75.2092 175.338 76.3317 175.354 77.4542C175.339 88.1085 175.324 98.7627 175.309 109.417C175.305 110.42 175.301 111.424 175.297 112.427C175.313 116.344 175.328 120.261 175.344 124.178C175.336 125.297 175.329 126.416 175.321 127.536C175.321 131.455 175.32 135.374 175.32 139.294C175.331 140.41 175.343 141.527 175.354 142.643C175.34 150.208 175.327 157.774 175.314 165.338C175.31 168.311 175.311 168.313 172.31 168.314C152.555 168.327 132.802 168.337 113.047 168.348C109.983 168.37 106.917 168.39 103.852 168.412C102.803 168.382 101.753 168.328 100.702 168.328C85.0715 168.322 69.4426 168.289 53.8136 168.365C51.7718 168.376 51.1838 167.75 51.2099 165.74C51.2962 159.155 51.1963 152.566 51.1691 145.98C51.1816 144.887 51.1941 143.794 51.2065 142.701C51.1907 141.268 51.1748 139.836 51.16 138.405C51.177 137.312 51.1929 136.219 51.2088 135.126C51.2077 133.565 51.2054 132.005 51.2043 130.444C51.2065 129.48 51.2099 128.517 51.2122 127.554C51.202 125.989 51.1907 124.425 51.1804 122.86C51.1941 121.9 51.2077 120.941 51.2213 119.98C51.2043 118.415 51.1872 116.851 51.1702 115.286C51.1861 114.327 51.202 113.369 51.219 112.41C51.2088 110.847 51.1975 109.284 51.1884 107.722C51.1952 106.624 51.202 105.524 51.2088 104.425C51.1997 95.991 51.1918 87.5569 51.1827 79.1227C51.1884 78.0251 51.1952 76.9276 51.2009 75.8289C51.185 74.3999 51.1691 72.9698 51.1532 71.5409C51.1668 70.4479 51.1804 69.3549 51.1929 68.2619C51.1748 66.8295 51.1555 65.3983 51.1373 63.9659C51.1566 62.8729 51.177 61.7799 51.1963 60.688C51.1975 59.1262 51.1986 57.5656 51.1997 56.0039C51.2122 55.0357 51.2247 54.0687 51.2372 53.1005C51.2236 49.9986 51.2088 46.8955 51.1952 43.7935C51.1929 41.5803 51.1918 39.3659 51.1895 37.1526C51.1384 31.0236 51.0862 24.8946 51.0352 18.7645C51.0545 16.0382 51.0749 13.312 51.0942 10.5857C51.7264 10.2838 52.3574 9.72197 52.9908 9.7197C64.435 9.67997 75.8803 9.70722 87.3256 9.72084C87.4868 9.6516 87.6469 9.58237 87.8069 9.51313C88.6638 9.32359 89.5196 9.1329 90.3765 8.94336C91.1642 9.21689 91.9496 9.71856 92.7407 9.72764C98.9776 9.79347 105.216 9.7844 111.453 9.75716C116.006 9.73786 120.558 9.655 125.11 9.60052C125.861 9.5869 126.614 9.57442 127.365 9.56193ZM102.975 151.146C100.31 150.713 97.6541 150.056 94.9767 149.952C93.8337 149.908 92.0904 149.524 91.3106 151.309C91.1449 151.687 90.1597 152.016 89.7126 151.872C89.2915 151.735 88.9487 150.98 88.808 150.435C88.5707 149.513 88.5208 148.543 88.3914 147.594C87.5924 148.386 87.3393 149.179 86.9568 149.902C86.5334 150.701 85.9909 151.438 85.4994 152.201C83.5 153.5 82.3543 152.776 81.9276 152.206C81.2534 151.308 81.1581 149.523 81.5542 148.367C82.4542 145.738 83.8094 143.266 84.9649 140.723C85.1589 140.297 85.2815 139.838 85.437 139.395C85.269 139.299 85.0999 139.204 84.9319 139.109C82.2567 141.924 79.5804 144.742 76.9052 147.557C77.0584 147.714 77.2117 147.872 77.3649 148.029C78.6826 146.874 79.9992 145.721 81.317 144.567C81.4452 144.68 81.5723 144.794 81.7006 144.906C81.1796 146.476 80.5327 148.016 80.1729 149.622C79.8131 151.228 80.3533 152.716 81.8447 153.534C83.3713 154.373 84.7764 153.957 85.8717 152.588C86.4142 152.076 86.9568 151.563 87.4993 151.05C89.6331 153.435 89.4044 153.197 92.1851 151.309C92.4916 151.101 94.6232 150.978 95 151C98.144 151.173 99.5 151.309 102.972 151.838C105.925 152.124 108.877 152.611 111.833 152.639C114.653 152.666 117.083 149.161 116.382 146.469C116.29 146.116 115.936 145.83 115.442 145.159C115.82 149.414 114.021 151.899 111.034 151.735C108.346 151.59 105.662 151.347 102.975 151.146ZM112.873 34.1358C121.842 34.1358 130.81 34.1494 139.779 34.1211C141.086 34.1165 142.635 34.2924 143.607 33.6637C144.165 33.3016 143.774 31.4913 143.833 30.3347C143.98 27.4552 143.986 27.4518 140.999 27.4518C122.641 27.4507 104.285 27.4427 85.9273 27.4575C81.4373 27.4609 82.0717 26.9569 81.9049 31.5492C81.8311 33.5615 82.4554 34.1982 84.4984 34.1778C93.9552 34.0802 103.414 34.1347 112.873 34.1358ZM112.873 50.1393C98.4339 50.1393 83.9944 50.1597 69.555 50.1109C67.8695 50.1053 67.0046 50.5343 67.2929 52.3526C67.5551 54.0085 68.8615 53.4671 69.7876 53.4683C86.5402 53.4978 103.293 53.4898 120.045 53.4898C132.101 53.4898 144.159 53.4751 156.214 53.5091C157.685 53.5137 158.677 53.3366 158.512 51.4866C158.361 49.8034 157.174 50.1507 156.192 50.1495C141.752 50.1348 127.313 50.1393 112.873 50.1393ZM113.044 92.6167C99.0309 92.6167 85.0193 92.6167 71.0066 92.6167C70.236 92.6167 69.3824 92.4181 68.7196 92.6871C68.1305 92.9254 67.3985 93.6495 67.344 94.2193C67.1351 96.386 68.8501 95.9604 70.1032 95.9604C98.6881 95.9729 127.274 95.9695 155.859 95.9683C156.21 95.9683 156.561 95.9468 156.91 95.9695C158.091 96.0467 158.474 95.4757 158.52 94.3339C158.596 92.4408 157.347 92.6167 156.133 92.6167C141.769 92.6201 127.407 92.619 113.044 92.6167ZM112.935 45.9523C127.366 45.9523 141.798 45.9557 156.229 45.9489C158.277 45.9478 159.151 45.0738 158.353 43.5631C158.032 42.9548 156.656 42.6404 155.759 42.6392C127.316 42.5916 98.8731 42.5995 70.43 42.6006C69.8694 42.6006 69.1918 42.419 68.7775 42.6676C68.1793 43.0274 67.4529 43.6471 67.3406 44.2578C66.9955 46.1339 68.4358 45.9546 69.6389 45.9546C84.0705 45.9512 98.502 45.9523 112.935 45.9523ZM108.647 110.722C121.815 110.722 134.983 110.72 148.15 110.724C149.374 110.724 150.553 110.872 150.532 108.991C150.511 107.224 149.4 107.373 148.26 107.373C122.065 107.372 95.8688 107.371 69.6719 107.369C69.3915 107.369 69.0011 107.262 68.8512 107.405C68.2849 107.94 67.4575 108.501 67.3451 109.157C67.0432 110.911 68.4472 110.72 69.5629 110.72C82.5904 110.723 95.6191 110.723 108.647 110.722ZM112.766 60.6891C126.988 60.6891 141.211 60.6891 155.435 60.6891C155.995 60.6891 156.68 60.881 157.086 60.629C157.659 60.2737 158.363 59.6177 158.416 59.0366C158.57 57.3602 157.175 57.6973 156.192 57.6973C127.396 57.6837 98.5996 57.6859 69.8035 57.6893C69.3155 57.6893 68.5323 57.5736 68.3938 57.8085C67.9648 58.5417 67.7798 59.4179 67.5006 60.2397C68.2259 60.3895 68.9511 60.6698 69.6764 60.671C84.0398 60.6948 98.4032 60.6891 112.766 60.6891ZM106.453 114.923C102.039 114.923 97.6246 114.923 93.2118 114.923C85.2248 114.923 77.2378 114.955 69.2519 114.898C67.6493 114.887 67.05 115.488 67.3111 117.014C67.6005 118.705 68.9659 118.24 69.9897 118.242C94.3002 118.263 118.611 118.259 142.921 118.259C143.272 118.259 143.725 118.393 143.952 118.223C144.516 117.803 145.292 117.313 145.418 116.729C145.799 114.972 144.552 114.904 143.235 114.905C130.973 114.926 118.713 114.918 106.453 114.923ZM110.239 125.464C123.616 125.464 136.993 125.464 150.37 125.464C150.931 125.464 151.615 125.657 152.021 125.403C152.593 125.047 153.316 124.379 153.347 123.809C153.448 121.966 151.911 122.48 150.914 122.479C123.879 122.455 96.8449 122.459 69.8103 122.46C69.3904 122.46 68.8456 122.305 68.5766 122.509C68.0647 122.896 67.3689 123.501 67.3837 123.997C67.3985 124.493 68.1101 125.113 68.6606 125.405C69.0998 125.637 69.757 125.462 70.3165 125.462C83.6244 125.462 96.9312 125.462 110.239 125.464ZM104.558 133.011C116.327 133.011 128.095 132.994 139.864 133.032C141.37 133.036 142.31 132.781 142.125 130.972C141.953 129.287 140.726 129.685 139.764 129.685C116.437 129.668 93.1107 129.671 69.7831 129.672C69.5027 129.672 69.2224 129.686 68.9421 129.679C67.6504 129.646 67.2657 130.365 67.2668 131.544C67.2679 133.194 68.4143 133.01 69.4619 133.01C81.1615 133.012 92.8599 133.012 104.558 133.011ZM103.486 103.172C113.578 103.172 123.672 103.172 133.764 103.172C135.166 103.172 136.588 103.307 137.96 103.103C138.545 103.016 139.326 102.297 139.486 101.719C139.806 100.562 139.004 100.107 137.893 100.174C137.614 100.191 137.333 100.172 137.052 100.172C114.694 100.172 92.3355 100.174 69.9772 100.176C69.4869 100.176 68.8547 100.013 68.5391 100.255C68.0193 100.651 67.4609 101.287 67.3916 101.877C67.3474 102.253 68.0874 102.878 68.6038 103.117C69.068 103.331 69.7048 103.173 70.2655 103.173C81.3374 103.172 92.4116 103.172 103.486 103.172ZM90.0667 68.2392C96.9323 68.2392 103.798 68.2494 110.664 68.2289C111.712 68.2255 113.016 68.6001 113.067 66.7671C113.115 65.0328 112.085 64.8807 110.752 64.8818C97.0208 64.8966 83.2896 64.8932 69.5584 64.8875C68.3666 64.8875 67.3133 64.9102 67.2577 66.5696C67.1998 68.3016 68.2849 68.2471 69.4698 68.2448C76.3354 68.2335 83.2011 68.2392 90.0667 68.2392ZM153.431 159.923C157.792 159.89 161.455 156.153 161.374 151.818C161.292 147.422 157.682 143.911 153.251 143.921C148.83 143.93 145.228 147.489 145.185 151.891C145.14 156.3 148.895 159.957 153.431 159.923ZM67.3428 155.398C89.5117 155.398 111.441 155.398 133.37 155.398C131.482 154.171 68.8592 154.307 67.3428 155.398ZM152.349 141.814C150.175 141.059 147.213 142.308 144.962 145.15C143.651 146.806 142.462 148.621 142.967 151.327C144.317 148.989 145.119 146.729 146.65 145.2C148.163 143.688 150.413 142.915 152.349 141.814ZM154.139 162.154C157.021 162.454 159.235 161.259 161.075 159.282C163.341 156.847 164.116 154.678 163.237 152.348C162.029 157.648 159.068 160.807 154.139 162.154Z" fill="white"/>
<path d="M85.5 152H82C82.3333 152.333 82.2 153 83 153C83.8 153 85.3333 152.333 85.5 152Z" fill="white"/>
<path d="M177.455 26.1211C182.793 26.675 188.135 27.1914 193.468 27.7929C199.37 28.4581 205.265 29.1811 211.156 29.937C211.752 30.013 212.295 30.4942 212.863 30.7882C212.28 35.5121 211.67 40.2314 211.12 44.9587C209.361 60.0497 207.606 75.1406 205.89 90.2361C205.155 96.7011 204.523 103.176 203.845 109.648C203.657 110.707 203.469 111.765 203.28 112.824C203.251 113.105 203.221 113.387 203.19 113.667C203.139 114.367 203.089 115.068 203.038 115.767C203.03 115.979 203.021 116.191 203.013 116.402C202.849 117.451 202.683 118.5 202.519 119.549C202.467 119.973 202.416 120.398 202.364 120.821C202.144 122.78 201.923 124.74 201.702 126.699C201.621 127.397 201.539 128.096 201.457 128.794C201.271 130.339 201.085 131.883 200.9 133.427C200.83 133.993 200.758 134.557 200.688 135.122C200.453 137.223 200.218 139.323 199.983 141.423C199.933 141.845 199.883 142.266 199.833 142.687C199.607 144.648 199.381 146.609 199.156 148.571C199.086 149.273 199.018 149.976 198.95 150.678C198.763 152.222 198.574 153.767 198.386 155.31C198.292 156.149 198.198 156.987 198.103 157.825C197.917 159.51 197.732 161.194 197.546 162.878C197.464 163.578 197.383 164.277 197.301 164.977C197.172 165.955 197.042 166.935 196.913 167.913C196.778 169.182 196.642 170.452 196.506 171.721C196.345 172.974 196.184 174.227 196.023 175.48C195.601 178.884 195.105 182.281 194.788 185.694C194.644 187.248 194.142 187.646 192.553 187.448C182.69 186.22 172.812 185.107 162.939 183.959C145.068 181.879 127.199 179.789 109.326 177.732C102.724 176.972 96.1134 176.292 89.5055 175.575C89.3749 175.505 89.241 175.496 89.1025 175.547L89.1706 175.351C90.3124 174.849 91.4554 174.351 92.5961 173.846C93.5495 173.424 94.5006 172.994 95.4529 172.567C97.1236 172.418 98.7932 172.269 100.464 172.121C101.206 172.252 101.948 172.498 102.691 172.499C128.043 172.519 153.397 172.498 178.749 172.554C180.681 172.559 181.338 171.991 181.246 170.05C180.899 162.723 180.615 155.392 180.406 148.06C180.076 136.458 179.826 124.855 179.542 113.252C181.343 113.379 183.153 113.653 184.941 113.549C185.532 113.515 186.336 112.576 186.522 111.907C186.626 111.531 185.734 110.494 185.172 110.389C183.335 110.046 181.443 109.993 179.571 109.83L179.577 109.796C179.285 99.1708 178.993 88.5472 178.701 77.9225C181.756 78.1904 184.809 78.5002 187.868 78.7136C190.406 78.8918 190.49 78.7613 190.516 75.7603C186.619 75.3336 182.686 74.9023 178.752 74.4721C178.727 74.3643 178.695 74.2576 178.659 74.1532C178.672 72.882 178.686 71.6119 178.698 70.3407C182.293 70.7073 185.884 71.1284 189.488 71.3872C190.068 71.4292 191.065 70.873 191.228 70.3816C191.509 69.5269 191.584 68.3794 190.083 68.2239C186.281 67.8301 182.485 67.3965 178.685 66.9788C178.548 66.8324 178.412 66.6871 178.276 66.5407C178.279 65.3002 178.284 64.0607 178.287 62.8202C181.815 63.1857 185.349 63.4921 188.867 63.9382C191.893 64.3218 192.335 64.0222 192.098 60.9486C187.544 60.4208 182.927 59.8862 178.31 59.3516C178.285 59.2427 178.256 59.1348 178.22 59.0293C178.239 56.2065 178.257 53.3838 178.275 50.561L178.252 50.5315C178.684 48.9528 179.186 47.3887 179.522 45.7906C179.769 44.6182 179.012 44.1733 177.933 44.1631C177.909 44.0541 177.879 43.9485 177.843 43.843C177.711 37.9364 177.584 32.0288 177.455 26.1211Z" fill="#F7F7F7"/>
<path d="M47.8411 19.3175C48.2668 19.3129 48.6924 19.3073 49.118 19.3027C48.9897 25.3761 48.8604 31.4484 48.7321 37.5206C48.6958 37.633 48.6674 37.7476 48.647 37.8645C46.2022 38.4093 43.7585 38.9621 41.3115 39.4967C36.8452 40.4716 36.8975 40.4557 37.7782 44.9061C38.1028 46.5427 38.8349 46.974 40.4035 46.5586C43.0231 45.8651 45.6755 45.2965 48.3133 44.6745C48.3326 47.4939 48.3507 50.3132 48.37 53.1337C48.3473 53.2517 48.3224 53.3698 48.2951 53.4867C41.5782 55.1665 34.8681 56.8735 28.1387 58.4977C26.99 58.7746 26.3828 59.0584 26.6881 60.4238C27.0093 61.863 27.7119 61.9435 28.9604 61.6155C33.9669 60.3035 39.0063 59.1185 44.0139 57.8167C48.0579 56.7645 48.0454 56.7191 47.9353 60.6962C47.9319 60.8358 47.9478 60.9754 47.9535 61.115C47.916 61.2308 47.8865 61.3488 47.8638 61.468C47.1703 61.5486 46.4587 61.5554 45.7868 61.7211C40.5544 63.0104 35.3346 64.3486 30.1011 65.6278C28.9797 65.9013 28.0921 66.0954 28.4939 67.6492C28.8719 69.1111 29.6891 69.1179 30.8615 68.8103C35.1257 67.6912 39.3672 66.4563 43.6791 65.5619C48.3564 64.5915 47.9036 64.1908 47.8843 68.6366C42.8437 70.0032 37.8077 71.3879 32.7604 72.7283C30.0568 73.4456 30.0477 73.4116 31.0204 76.4602C31.723 76.3092 32.4607 76.1753 33.186 75.9903C36.7681 75.0744 40.3524 74.163 43.9265 73.2164C48.5868 71.9815 47.7866 72.2312 47.9058 76.2253C47.7481 76.4874 47.5892 76.7508 47.4314 77.0129C42.6122 78.1071 37.785 79.1717 32.9862 80.3521C32.6174 80.4429 32.1418 81.444 32.2644 81.8594C32.4346 82.4371 33.0929 83.2293 33.5991 83.2725C34.5298 83.3519 35.5014 82.9535 36.4548 82.7526C40.1277 81.9763 43.7994 81.2 47.4722 80.4236C47.4825 81.8231 47.4927 83.2225 47.5029 84.622C47.3678 91.3661 47.2316 98.1115 47.0966 104.856C47.0829 104.976 47.0591 105.093 47.0228 105.207C44.6597 105.807 42.2615 106.304 39.9585 107.081C39.4035 107.269 38.861 108.401 38.8905 109.073C38.9075 109.472 40.0198 109.99 40.7076 110.138C41.2615 110.256 41.9176 109.901 42.5259 109.749C46.5608 108.738 46.5608 108.737 46.6902 112.848C46.6528 112.962 46.6199 113.076 46.5915 113.192C45.0865 113.48 43.5815 113.763 42.0787 114.06C41.0323 114.267 40.2389 114.56 40.5805 115.992C40.9154 117.396 41.6996 117.553 42.8925 117.333C46.5495 116.658 46.5518 116.673 46.6721 120.41C46.6448 120.527 46.6153 120.642 46.5824 120.758C45.9729 120.892 45.3634 121.027 44.7528 121.158C42.098 121.726 41.8086 122.454 43.334 124.732C46.4156 124.295 46.4144 124.295 46.2317 127.316C46.2101 127.662 46.2113 128.011 46.2022 128.358C44.1456 129.011 43.4362 130.327 44.847 131.483C46.4871 132.825 46.1704 134.321 46.192 135.917C46.2169 137.029 46.2419 138.142 46.2657 139.255C46.1125 140.361 45.8447 141.463 45.8231 142.571C45.6449 151.578 45.5019 160.585 45.3748 169.594C45.3339 172.511 45.3702 172.519 48.2077 172.52C61.8414 172.525 75.475 172.527 89.1097 172.53C87.4265 173.219 85.7422 173.907 84.059 174.596C81.1193 175.179 78.1797 175.762 75.2389 176.346C74.2503 176.576 73.2617 176.807 72.2731 177.037C72.0109 177.103 71.7488 177.168 71.4877 177.233C70.8714 177.339 70.2449 177.406 69.6399 177.557C60.8925 179.742 52.1371 181.902 43.4101 184.166C41.8075 184.581 41.0992 184.214 40.7553 182.625C40.2071 180.097 39.5477 177.593 38.9053 175.087C36.9962 167.642 35.0724 160.199 33.1542 152.757C33.0396 152.459 32.925 152.159 32.8103 151.861L32.8693 151.826C32.4483 150.243 32.0272 148.661 31.6072 147.078C31.4949 146.249 31.4585 145.402 31.2588 144.597C29.0853 135.835 26.8913 127.079 24.6928 118.325C19.1041 96.0673 13.5199 73.8077 7.91069 51.556C6.20138 44.7744 4.41716 38.0109 2.66699 31.2395C4.7588 30.5426 6.81769 29.7186 8.94922 29.1704C21.794 25.871 34.6558 22.634 47.512 19.3765L47.6834 19.381L47.8411 19.3175Z" fill="#F7F7F7"/>
<path d="M196.505 171.724C196.64 170.455 196.776 169.185 196.911 167.916C197.04 166.938 197.17 165.958 197.299 164.98C197.381 164.281 197.463 163.581 197.544 162.881C197.73 161.197 197.915 159.512 198.102 157.828C198.196 156.989 198.29 156.152 198.384 155.313C198.573 153.769 198.76 152.225 198.947 150.681C199.015 149.978 199.084 149.276 199.153 148.574C199.378 146.613 199.604 144.652 199.83 142.691C199.88 142.27 199.93 141.848 199.98 141.427C201.514 139.473 201.053 137.294 200.685 135.126C200.755 134.561 200.827 133.997 200.897 133.431C201.083 131.887 201.269 130.343 201.455 128.798C201.537 128.1 201.619 127.401 201.701 126.703C202.02 125.852 202.34 125.002 202.659 124.15C203.083 124.436 203.508 124.722 203.932 125.007C203.315 131.258 202.719 137.51 202.072 143.758C201.454 149.728 200.789 155.693 200.133 161.659C199.385 168.459 198.621 175.257 197.869 182.057C197.638 184.137 197.312 186.217 197.24 188.304C197.189 189.783 196.62 190.357 195.207 190.198C191.393 189.768 187.578 189.328 183.762 188.906C178.701 188.346 173.634 187.832 168.577 187.242C160.742 186.327 152.917 185.334 145.081 184.429C138.286 183.645 131.479 182.96 124.683 182.19C119.62 181.615 114.563 180.975 109.503 180.364C102.989 179.576 96.4714 178.818 89.9621 177.985C87.4209 177.659 84.9 177.165 82.3701 176.747C84.1941 176.323 86.018 175.898 87.842 175.474C88.2835 175.434 88.725 175.396 89.1665 175.356L89.0984 175.552C89.2323 175.561 89.3674 175.57 89.5013 175.58C96.1082 176.297 102.72 176.977 109.322 177.737C127.195 179.795 145.064 181.886 162.935 183.964C172.808 185.112 182.686 186.225 192.549 187.453C194.138 187.65 194.64 187.253 194.784 185.699C195.101 182.286 195.597 178.889 196.019 175.485C196.182 174.23 196.343 172.977 196.505 171.724Z" fill="#DBDBDB"/>
<path d="M2.66579 31.2383C4.41596 38.0097 6.20018 44.7732 7.90949 51.5548C13.5187 73.8076 19.1017 96.0661 24.6916 118.323C26.8901 127.079 29.084 135.834 31.2576 144.595C31.4573 145.401 31.4937 146.249 31.6049 147.078C31.0124 147.431 30.4211 147.781 29.8297 148.133C27.4269 138.429 25.0559 128.718 22.6123 119.024C20.735 111.578 18.7249 104.167 16.8499 96.721C12.7525 80.4507 8.70853 64.1669 4.63161 47.8921C3.46029 43.2148 2.31394 38.5284 1.02231 33.8828C0.552419 32.2019 1.16418 31.5277 2.66579 31.2383Z" fill="#DBDBDB"/>
<path d="M203.933 125.005C203.509 124.719 203.084 124.433 202.66 124.148C202.561 123.039 202.462 121.93 202.363 120.823C202.414 120.398 202.465 119.974 202.517 119.55C202.681 118.501 202.847 117.453 203.013 116.404C203.022 116.192 203.03 115.98 203.039 115.768C203.09 115.068 203.14 114.369 203.191 113.669C203.22 113.387 203.25 113.106 203.28 112.825C203.469 111.766 203.657 110.709 203.846 109.65C204.524 103.179 205.155 96.7027 205.89 90.2377C207.605 75.1422 209.362 60.0513 211.12 44.9603C211.67 40.233 212.281 35.5126 212.863 30.7898C214.434 30.6763 214.551 31.7047 214.424 32.8465C214.115 35.617 213.746 38.3819 213.439 41.1524C212.778 47.1089 212.152 53.0676 211.491 59.0241C210.892 64.4278 210.253 69.827 209.653 75.2296C209.131 79.9376 208.655 84.6513 208.132 89.3604C207.509 94.9695 206.837 100.574 206.227 106.186C205.842 109.718 205.589 113.265 205.17 116.793C204.841 119.539 204.351 122.267 203.933 125.005Z" fill="#DBDBDB"/>
<path d="M125.108 9.59941C120.556 9.65388 116.004 9.73674 111.452 9.75604C105.214 9.78328 98.976 9.79235 92.7392 9.72652C91.9481 9.71858 91.1627 9.21577 90.375 8.94224C91.8846 8.45532 93.3725 7.88556 94.9059 7.49739C103.476 5.3284 112.056 3.19233 120.642 1.08691C121.418 0.896225 122.269 1.00519 123.085 0.974541C123.76 3.84836 124.434 6.72445 125.108 9.59941Z" fill="#EEF1F2"/>
<path d="M33.1531 152.757C35.0712 160.2 36.9951 167.642 38.9041 175.087C39.5465 177.593 40.206 180.097 40.7542 182.624C41.0981 184.212 41.8063 184.581 43.4089 184.166C52.136 181.901 60.8913 179.741 69.6388 177.557C70.2437 177.406 70.8703 177.339 71.4866 177.233C71.7488 177.167 72.0109 177.103 72.272 177.037C73.2606 176.806 74.2492 176.576 75.2378 176.346C76.2139 176.61 77.1899 176.876 78.1672 177.14C74.3513 178.239 70.5559 179.413 66.7162 180.418C61.5792 181.762 56.4092 182.976 51.2529 184.244C48.067 185.027 44.864 185.748 41.7008 186.614C40.1946 187.027 39.4921 186.572 39.1311 185.109C36.7669 175.536 34.3641 165.974 31.9852 156.405C31.6504 155.059 31.3836 153.697 31.084 152.341C31.6787 152.17 32.2735 151.998 32.8682 151.826L32.8092 151.86C32.9238 152.159 33.0385 152.457 33.1531 152.757Z" fill="#DBDBDB"/>
<path d="M48.7324 37.5207C48.8607 31.4484 48.9901 25.3762 49.1183 19.3028C49.1104 19.1779 49.1138 19.0531 49.1285 18.9294C49.7641 18.8738 50.3997 18.8193 51.0353 18.7637C51.0864 24.8927 51.1386 31.0217 51.1897 37.1507C50.3714 37.2744 49.5519 37.3981 48.7324 37.5207Z" fill="#DBDBDB"/>
<path d="M177.456 26.1215C177.584 32.0292 177.712 37.9369 177.841 43.8457C177.002 43.8389 176.163 43.8332 175.324 43.8264C175.328 37.7928 175.33 31.7602 175.333 25.7266C176.032 25.7459 176.73 25.7663 177.43 25.7856C177.443 25.8979 177.452 26.0092 177.456 26.1215Z" fill="#DCE2E3"/>
<path d="M177.428 25.7851C176.729 25.7658 176.031 25.7453 175.332 25.726C175.352 20.6787 175.373 15.6314 175.393 10.5829C176.514 10.5386 177.008 11.0176 177.032 12.1968C177.124 16.7266 177.29 21.2553 177.428 25.7851Z" fill="#DBDBDB"/>
<path d="M125.109 9.59964C124.434 6.72468 123.76 3.84973 123.086 0.974773C125.355 0.512828 125.709 2.1268 126.068 3.73055C126.502 5.67367 126.934 7.61793 127.366 9.56105C126.614 9.57353 125.861 9.58602 125.109 9.59964Z" fill="#DBDBDB"/>
<path d="M78.1667 177.138C77.1906 176.874 76.2145 176.608 75.2373 176.344C78.177 175.761 81.1166 175.177 84.0574 174.594C85.3195 174.887 86.5816 175.178 87.8438 175.471C86.0198 175.896 84.1959 176.32 82.3719 176.745C80.9702 176.876 79.5685 177.008 78.1667 177.138Z" fill="#DBDBDB"/>
<path d="M51.0357 18.7652C50.4001 18.8208 49.7645 18.8753 49.1289 18.9309C49.1391 16.7835 49.2152 14.6349 49.1357 12.4909C49.0812 11.0177 49.6998 10.457 51.0959 10.5864C51.0743 13.3115 51.055 16.0389 51.0357 18.7652Z" fill="#DBDBDB"/>
<path d="M32.8685 151.826C32.2737 151.997 31.679 152.17 31.0843 152.341C30.6666 150.938 30.2478 149.537 29.8301 148.134C30.4214 147.782 31.0127 147.43 31.6052 147.078C32.0263 148.66 32.4474 150.243 32.8685 151.826Z" fill="#DBDBDB"/>
<path d="M87.8064 9.51172C87.6464 9.58095 87.4864 9.65019 87.3252 9.71943C87.4852 9.65019 87.6453 9.58095 87.8064 9.51172Z" fill="#EEF1F2"/>
<path d="M47.8412 19.3166L47.6812 19.3802C47.6812 19.3802 47.5086 19.3756 47.5098 19.3756C47.5994 19.236 47.7107 19.2167 47.8412 19.3166Z" fill="#5DB9D8"/>
<path d="M179.538 113.254C179.822 124.857 180.073 136.46 180.403 148.062C180.612 155.394 180.896 162.725 181.243 170.053C181.335 171.995 180.677 172.561 178.746 172.557C153.394 172.5 128.041 172.521 102.688 172.501C101.945 172.5 101.203 172.255 100.462 172.123C101.835 171.693 103.203 171.248 104.582 170.837C107.401 169.997 110.225 169.177 113.048 168.349C132.803 168.338 152.556 168.326 172.311 168.315C175.311 168.313 175.309 168.312 175.315 165.339C175.328 157.774 175.342 150.208 175.355 142.644C176.912 142.817 178.133 142.637 177.868 140.558C177.642 138.79 176.279 139.49 175.321 139.294C175.321 135.375 175.322 131.456 175.322 127.537C176.802 127.518 176.952 126.347 176.856 125.379C176.813 124.934 175.876 124.577 175.344 124.178C175.328 120.262 175.313 116.345 175.298 112.428C176.711 112.554 178.123 112.68 179.535 112.806C179.535 112.954 179.537 113.104 179.538 113.254Z" fill="#E2E2E2"/>
<path d="M112.873 34.1345C103.414 34.1345 93.9546 34.0801 84.4967 34.1765C82.4537 34.197 81.8294 33.5602 81.9032 31.5479C82.0701 26.9557 81.4356 27.4596 85.9257 27.4562C104.283 27.4426 122.639 27.4494 140.997 27.4505C143.984 27.4505 143.98 27.4539 143.831 30.3334C143.772 31.49 144.164 33.3003 143.605 33.6624C142.635 34.2912 141.084 34.1153 139.777 34.1198C130.809 34.1482 121.84 34.1357 112.873 34.1345Z" fill="#D7D7D7"/>
<path d="M89.1084 172.53C75.4748 172.527 61.8412 172.526 48.2064 172.52C45.3689 172.519 45.3326 172.511 45.3734 169.594C45.5006 160.586 45.6436 151.578 45.8218 142.571C45.8433 141.463 46.1112 140.361 46.2644 139.256C47.8954 138.972 49.5264 138.688 51.1574 138.404C51.1733 139.837 51.1892 141.269 51.2051 142.701C50.4662 142.817 49.6751 142.808 49.0077 143.092C48.5514 143.286 47.9624 143.901 47.9794 144.305C48.0066 144.973 48.3256 146.002 48.7955 146.188C49.4538 146.45 50.364 146.08 51.1676 145.982C51.196 152.569 51.2947 159.157 51.2085 165.742C51.1824 167.752 51.7703 168.377 53.8122 168.367C69.4411 168.291 85.0712 168.324 100.7 168.33C101.75 168.33 102.801 168.384 103.851 168.413C103.609 168.638 103.403 168.998 103.121 169.072C100.121 169.865 97.0988 170.576 94.1092 171.401C93.3794 171.603 92.7427 172.141 92.0628 172.525C91.0776 172.527 90.0936 172.528 89.1084 172.53Z" fill="#DBDBDB"/>
<path d="M112.873 50.1378C127.313 50.1378 141.752 50.1333 156.192 50.148C157.173 50.1492 158.361 49.8018 158.512 51.485C158.678 53.3351 157.686 53.511 156.215 53.5076C144.159 53.4747 132.101 53.4883 120.046 53.4883C103.293 53.4883 86.5403 53.4963 69.7877 53.4667C68.8616 53.4656 67.5552 54.007 67.293 52.3511C67.0047 50.5328 67.8696 50.1038 69.5551 50.1094C83.9934 50.1594 98.434 50.1378 112.873 50.1378Z" fill="#D8D8D8"/>
<path d="M113.043 92.6162C127.406 92.6173 141.769 92.6184 156.131 92.615C157.345 92.615 158.593 92.438 158.518 94.3323C158.473 95.4741 158.089 96.0462 156.909 95.9678C156.56 95.9451 156.209 95.9667 155.858 95.9667C127.273 95.9678 98.6868 95.9724 70.1018 95.9588C68.8487 95.9576 67.1338 96.3844 67.3426 94.2177C67.3971 93.6479 68.1292 92.9238 68.7182 92.6854C69.3822 92.4176 70.2346 92.615 71.0052 92.615C85.0191 92.615 99.0307 92.6151 113.043 92.6162Z" fill="#D8D8D8"/>
<path d="M112.934 45.9505C98.5025 45.9505 84.071 45.9505 69.6394 45.9516C68.4363 45.9516 66.996 46.1321 67.3411 44.2548C67.4534 43.643 68.1787 43.0245 68.778 42.6647C69.1923 42.415 69.871 42.5977 70.4305 42.5977C98.8736 42.5977 127.317 42.5898 155.76 42.6363C156.656 42.6374 158.033 42.953 158.353 43.5602C159.15 45.0709 158.276 45.9448 156.23 45.946C141.797 45.9528 127.366 45.9505 112.934 45.9505Z" fill="#D8D8D8"/>
<path d="M108.647 110.722C95.6193 110.722 82.5906 110.723 69.5631 110.721C68.4474 110.721 67.0434 110.912 67.3453 109.158C67.4588 108.501 68.2851 107.941 68.8514 107.406C69.0012 107.264 69.3917 107.371 69.672 107.371C95.8678 107.372 122.064 107.373 148.261 107.374C149.4 107.374 150.511 107.225 150.532 108.992C150.553 110.873 149.374 110.726 148.15 110.726C134.983 110.72 121.815 110.721 108.647 110.722Z" fill="#D9D9D9"/>
<path d="M112.765 60.6877C98.4015 60.6877 84.0392 60.6945 69.6758 60.6684C68.9505 60.6672 68.2253 60.3869 67.5 60.2371C67.7792 59.4165 67.9642 58.5402 68.3932 57.8059C68.5306 57.571 69.3149 57.6867 69.8029 57.6867C98.599 57.6833 127.395 57.681 156.191 57.6947C157.174 57.6947 158.569 57.3576 158.416 59.034C158.362 59.6162 157.658 60.2711 157.086 60.6264C156.679 60.8783 155.995 60.6865 155.434 60.6865C141.211 60.6877 126.988 60.6877 112.765 60.6877Z" fill="#D6D6D6"/>
<path d="M106.453 114.92C118.713 114.918 130.973 114.926 143.233 114.905C144.551 114.903 145.797 114.971 145.417 116.729C145.291 117.314 144.515 117.804 143.951 118.224C143.724 118.393 143.271 118.259 142.92 118.259C118.61 118.259 94.2991 118.265 69.9885 118.242C68.9647 118.241 67.5993 118.705 67.3099 117.014C67.0488 115.489 67.6481 114.887 69.2507 114.899C77.2366 114.954 85.2236 114.924 93.2106 114.924C97.6257 114.922 102.039 114.922 106.453 114.92Z" fill="#D8D8D8"/>
<path d="M110.239 125.462C96.9324 125.462 83.6246 125.462 70.3178 125.461C69.7571 125.461 69.1011 125.636 68.6619 125.403C68.1114 125.111 67.3998 124.492 67.385 123.996C67.3702 123.5 68.0649 122.895 68.5779 122.508C68.848 122.303 69.3917 122.459 69.8116 122.459C96.8462 122.459 123.881 122.454 150.915 122.477C151.912 122.478 153.451 121.963 153.349 123.807C153.317 124.377 152.594 125.046 152.022 125.402C151.617 125.654 150.931 125.462 150.372 125.462C136.993 125.463 123.616 125.463 110.239 125.462Z" fill="#D6D6D6"/>
<path d="M104.558 133.011C92.8596 133.011 81.1611 133.012 69.4627 133.008C68.4151 133.008 67.2687 133.192 67.2676 131.542C67.2664 130.363 67.6512 129.643 68.9428 129.677C69.2232 129.684 69.5035 129.67 69.7839 129.67C93.1104 129.67 116.437 129.666 139.765 129.683C140.726 129.684 141.953 129.286 142.125 130.97C142.309 132.779 141.369 133.036 139.864 133.03C128.095 132.995 116.326 133.011 104.558 133.011Z" fill="#D7D7D7"/>
<path d="M103.486 103.171C92.4118 103.171 81.3376 103.171 70.2634 103.171C69.7027 103.171 69.066 103.329 68.6018 103.115C68.0865 102.876 67.3453 102.251 67.3896 101.875C67.4588 101.285 68.0172 100.648 68.5371 100.253C68.8537 100.013 69.4859 100.174 69.9751 100.174C92.3335 100.172 114.692 100.171 137.05 100.171C137.331 100.171 137.612 100.189 137.891 100.172C139.004 100.105 139.804 100.56 139.484 101.718C139.324 102.296 138.543 103.014 137.958 103.101C136.587 103.307 135.164 103.17 133.762 103.17C123.671 103.171 113.578 103.171 103.486 103.171Z" fill="#D6D6D6"/>
<path d="M90.0661 68.2382C83.2004 68.2382 76.3348 68.2325 69.4692 68.2439C68.2843 68.2461 67.1992 68.2995 67.2571 66.5686C67.3127 64.9092 68.3649 64.8854 69.5577 64.8865C83.289 64.8922 97.0202 64.8956 110.751 64.8809C112.084 64.8797 113.114 65.0318 113.067 66.7661C113.017 68.6003 111.713 68.2246 110.663 68.228C103.797 68.2484 96.9317 68.2382 90.0661 68.2382Z" fill="#D8D8D8"/>
<path d="M153.431 159.922C148.894 159.956 145.14 156.299 145.184 151.89C145.228 147.487 148.83 143.929 153.25 143.92C157.681 143.911 161.292 147.421 161.374 151.817C161.454 156.151 157.79 159.889 153.431 159.922ZM158.183 151.902C158.213 149.126 156.072 146.9 153.372 146.899C150.658 146.898 148.436 149.072 148.379 151.784C148.319 154.648 150.522 156.924 153.34 156.909C156.072 156.894 158.153 154.744 158.183 151.902Z" fill="#B6B6B6"/>
<path d="M178.698 77.9261C178.989 88.5508 179.281 99.1744 179.573 109.799C178.151 109.672 176.73 109.545 175.309 109.418C175.323 98.7636 175.338 88.1093 175.353 77.4551C176.465 77.4573 177.579 77.4607 178.691 77.463C178.693 77.6174 178.695 77.7717 178.698 77.9261Z" fill="#E2E2E2"/>
<path d="M47.9543 61.1158C47.9475 60.9762 47.9316 60.8355 47.935 60.6959C48.0451 56.7188 48.0576 56.7642 44.0136 57.8164C39.0048 59.1193 33.9654 60.3031 28.9601 61.6152C27.7116 61.9421 27.0102 61.8615 26.6878 60.4234C26.3825 59.058 26.9897 58.7754 28.1384 58.4974C34.8678 56.872 41.5779 55.165 48.2948 53.4863C48.33 56.7676 48.3538 56.7892 51.1981 56.0026C51.197 57.5644 51.1959 59.125 51.1947 60.6868C50.1165 60.8298 49.0348 60.9728 47.9543 61.1158Z" fill="#D7D7D7"/>
<path d="M67.3428 155.397C68.858 154.306 131.482 154.17 133.37 155.397C111.441 155.397 89.5116 155.397 67.3428 155.397Z" fill="#BEBEBE"/>
<path d="M47.8846 68.6374C47.9039 64.1927 48.3567 64.5923 43.6794 65.5627C39.3675 66.4571 35.126 67.6931 30.8618 68.8111C29.6894 69.1186 28.8733 69.1118 28.4942 67.65C28.0913 66.095 28.98 65.9021 30.1014 65.6285C35.336 64.3494 40.5559 63.0112 45.7871 61.7219C46.459 61.5561 47.1707 61.5493 47.8641 61.4688C47.93 62.3813 47.9958 63.2938 48.0673 64.296C49.2704 64.1666 50.2034 64.0656 51.1364 63.9657C51.1545 65.3981 51.1738 66.8294 51.1931 68.2617C50.1171 68.4138 49.0411 68.5659 47.9652 68.7191C47.9663 68.718 47.8846 68.6374 47.8846 68.6374Z" fill="#D8D8D8"/>
<path d="M47.9058 76.2273C47.7855 72.2332 48.5868 71.9835 43.9265 73.2184C40.3524 74.165 36.7681 75.0764 33.186 75.9923C32.4619 76.1773 31.7241 76.3113 31.0204 76.4622C30.0478 73.4125 30.0568 73.4477 32.7604 72.7303C37.8078 71.3899 42.8437 70.0052 47.8843 68.6387C47.8843 68.6387 47.966 68.7193 47.9649 68.7181C47.7662 72.0221 47.7662 72.0221 50.951 71.5602C51.018 71.55 51.0861 71.5477 51.1531 71.5409C51.169 72.9698 51.1849 74.3999 51.2007 75.8289C50.1032 75.9617 49.0045 76.0945 47.9058 76.2273Z" fill="#D8D8D8"/>
<path d="M46.6917 112.85C46.5611 108.739 46.5611 108.739 42.5262 109.75C41.9178 109.902 41.2607 110.257 40.7079 110.139C40.0201 109.993 38.9078 109.473 38.8908 109.075C38.8613 108.403 39.4038 107.27 39.9588 107.083C42.2617 106.305 44.66 105.808 47.0231 105.209C47.0231 106.218 47.0231 107.227 47.0231 108.438C48.6439 108.159 49.9151 107.94 51.1863 107.721C51.1965 109.284 51.2078 110.847 51.218 112.408C49.7108 112.557 48.2012 112.703 46.6917 112.85Z" fill="#D8D8D8"/>
<path d="M46.672 120.412C46.5517 116.675 46.5494 116.659 42.8924 117.335C41.6995 117.555 40.9153 117.398 40.5804 115.994C40.2388 114.563 41.0322 114.27 42.0786 114.062C43.5814 113.765 45.0875 113.484 46.5925 113.195C46.6686 114.121 46.7446 115.048 46.8309 116.111C48.4687 115.8 49.8193 115.544 51.17 115.287C51.187 116.852 51.204 118.416 51.2211 119.981C49.7047 120.124 48.1883 120.267 46.672 120.412Z" fill="#D8D8D8"/>
<path d="M47.5033 84.6236C47.4931 83.2241 47.4829 81.8247 47.4727 80.4252C47.4772 80.2731 47.4817 80.121 47.4863 79.9689C48.7189 79.6863 49.9504 79.4037 51.183 79.1211C51.1921 87.5553 51.2 95.9895 51.2091 104.424C50.805 104.411 50.401 104.399 49.9958 104.386C49.956 97.0325 50.0843 89.6743 49.9163 81.8326C48.7813 83.1469 48.1423 83.8858 47.5033 84.6236Z" fill="#D8D8D8"/>
<path d="M46.2017 128.36C46.2108 128.012 46.2097 127.664 46.2312 127.318C46.414 124.295 46.4151 124.295 43.3336 124.733C41.8093 122.455 42.0987 121.727 44.7523 121.159C45.363 121.029 45.9725 120.893 46.582 120.76C46.6852 124.107 46.6841 124.103 49.9824 123.126C50.3729 123.01 50.7803 122.948 51.1787 122.862C51.1889 124.427 51.2003 125.991 51.2116 127.556C49.567 127.849 47.9224 128.143 46.2778 128.436C46.2778 128.435 46.2017 128.36 46.2017 128.36Z" fill="#D8D8D8"/>
<path d="M92.0615 172.524C92.7414 172.141 93.3781 171.603 94.1079 171.4C97.0987 170.575 100.12 169.865 103.12 169.071C103.401 168.997 103.609 168.638 103.85 168.412C106.915 168.392 109.98 168.37 113.044 168.35C110.222 169.178 107.398 169.999 104.578 170.839C103.199 171.25 101.832 171.694 100.458 172.125C98.7875 172.273 97.1179 172.422 95.4472 172.571C94.3202 172.555 93.1908 172.539 92.0615 172.524Z" fill="#CDCDCD"/>
<path d="M85.874 152.59C84.7765 153.957 83.3714 154.373 81.8448 153.535C80.3534 152.717 79.8131 151.229 80.1729 149.623C80.5316 148.018 81.1797 146.477 81.6995 144.907C81.712 144.669 81.7268 144.431 81.7404 144.194C81.5996 144.319 81.4589 144.443 81.317 144.568C79.9993 145.722 78.6827 146.875 77.3649 148.029C77.2117 147.873 77.0585 147.715 76.9053 147.558C79.5805 144.742 82.2568 141.925 84.932 139.109C85.1 139.205 85.2691 139.3 85.4371 139.395C85.2816 139.839 85.1579 140.297 84.9649 140.723C83.8095 143.266 82.4543 145.738 81.5542 148.368C81.1581 149.524 81.2535 151.308 81.9276 152.207C82.3544 152.777 83.3952 153.522 85.5006 152.203C85.6255 152.331 85.7492 152.46 85.874 152.59Z" fill="#3880FF"/>
<path d="M46.1921 135.918C46.1717 134.323 46.4872 132.827 44.8471 131.484C43.4363 130.329 44.1445 129.012 46.2023 128.359L46.2783 128.433C46.2772 129.441 46.2772 130.45 46.2772 131.763C48.1613 131.259 49.6833 130.852 51.2042 130.444C51.2054 132.005 51.2077 133.566 51.2088 135.126C49.5369 135.391 47.8651 135.654 46.1921 135.918Z" fill="#D8D8D8"/>
<path d="M48.3702 53.1329C48.3509 50.3135 48.3328 47.4942 48.3135 44.6737C48.4508 44.5421 48.587 44.4104 48.7243 44.2799C49.5484 44.1176 50.3724 43.9553 51.1964 43.793C51.21 46.8949 51.2247 49.998 51.2384 53.1C50.2827 53.1102 49.327 53.1215 48.3702 53.1329Z" fill="#DBDBDB"/>
<path d="M102.973 151.838C99.8305 151.637 99.0235 151.422 95.8796 151.25C95.5027 151.229 92.781 151.042 92.4746 151.25C89.6927 153.139 89.6337 153.434 87.4999 151.05C86.9562 151.563 86.4148 152.076 85.8723 152.588C85.7486 152.46 85.6237 152.33 85.5 152.2C85.9903 151.436 86.534 150.699 86.9573 149.9C87.3398 149.177 87.5929 148.385 88.392 147.592C88.5214 148.542 88.5713 149.511 88.8085 150.433C88.9481 150.978 89.2909 151.733 89.7131 151.87C90.1603 152.014 91.1455 151.685 91.3112 151.307C92.0909 149.522 93.8343 149.906 94.9772 149.95C97.6547 150.055 100.311 150.712 102.976 151.144C102.973 151.377 102.973 151.607 102.973 151.838Z" fill="#3880FF"/>
<path d="M178.273 50.563C178.255 53.3857 178.237 56.2085 178.218 59.0312C177.257 59.0131 176.295 58.996 175.332 58.9779C175.347 56.1574 175.363 53.3381 175.377 50.5176C176.342 50.5323 177.307 50.5471 178.273 50.563Z" fill="#E2E2E2"/>
<path d="M152.348 141.814C150.413 142.915 148.162 143.688 146.649 145.2C145.118 146.729 144.317 148.989 142.966 151.327C142.461 148.621 143.651 146.806 144.962 145.15C147.214 142.308 150.175 141.058 152.348 141.814Z" fill="#C2C2C2"/>
<path d="M102.974 151.838C102.974 151.608 102.975 151.377 102.975 151.146C105.661 151.347 108.347 151.59 111.037 151.736C114.023 151.9 115.822 149.415 115.445 145.16C115.939 145.831 116.293 146.117 116.385 146.47C117.086 149.162 114.656 152.666 111.836 152.64C108.878 152.611 105.927 152.125 102.974 151.838Z" fill="#3880FF"/>
<path d="M154.139 162.153C159.068 160.807 162.03 157.647 163.237 152.348C164.116 154.679 163.341 156.847 161.075 159.281C159.235 161.259 157.022 162.454 154.139 162.153Z" fill="#BEBEBE"/>
<path d="M178.273 50.5635C177.307 50.5488 176.342 50.534 175.378 50.5181C175.359 48.2879 175.341 46.0564 175.324 43.8262C176.163 43.8318 177.002 43.8387 177.841 43.8443C177.877 43.9488 177.907 44.0554 177.931 44.1644C178.037 46.288 178.144 48.4104 178.25 50.5329C178.25 50.534 178.273 50.5635 178.273 50.5635Z" fill="#C2C2C2"/>
<path d="M46.1924 135.919C47.8642 135.655 49.5372 135.391 51.2091 135.127C51.1932 136.22 51.1773 137.314 51.1603 138.406C49.5281 138.69 47.8972 138.973 46.2662 139.256C46.2423 138.144 46.2174 137.031 46.1924 135.919Z" fill="#C2C2C2"/>
<path d="M51.1965 43.7924C50.3725 43.9547 49.5485 44.117 48.7256 44.2793C48.6995 42.141 48.6745 40.0015 48.6484 37.8632C48.6689 37.7463 48.6972 37.6316 48.7336 37.5193C49.553 37.3967 50.3725 37.273 51.192 37.1504C51.192 39.3659 51.1942 41.5792 51.1965 43.7924Z" fill="#C1C1C1"/>
<path d="M51.2044 130.444C49.6835 130.851 48.1614 131.257 46.2773 131.762C46.2773 130.45 46.2773 129.441 46.2785 128.432C47.9242 128.14 49.5688 127.847 51.2135 127.553C51.2101 128.516 51.2066 129.48 51.2044 130.444Z" fill="#C2C2C2"/>
<path d="M51.1702 115.285C49.8196 115.542 48.4689 115.798 46.8311 116.109C46.7437 115.046 46.6688 114.119 46.5928 113.193C46.6211 113.078 46.6541 112.962 46.6915 112.849C48.2011 112.703 49.7106 112.557 51.219 112.41C51.2031 113.368 51.1861 114.327 51.1702 115.285Z" fill="#C2C2C2"/>
<path d="M51.1798 122.861C50.7802 122.948 50.3739 123.01 49.9835 123.126C46.6852 124.104 46.6863 124.106 46.583 120.759C46.6148 120.643 46.6454 120.528 46.6727 120.411C48.189 120.268 49.7054 120.123 51.2218 119.98C51.207 120.941 51.1934 121.901 51.1798 122.861Z" fill="#C1C1C1"/>
<path d="M49.995 104.387C50.3991 104.399 50.8043 104.412 51.2083 104.424C51.2015 105.524 51.1947 106.623 51.1868 107.722C49.9156 107.942 48.6444 108.159 47.0225 108.439C47.0225 107.228 47.0225 106.219 47.0225 105.21C47.0576 105.094 47.0826 104.977 47.0951 104.857C48.0621 104.7 49.0291 104.543 49.995 104.387Z" fill="#C2C2C2"/>
<path d="M178.695 70.3425C178.681 71.6137 178.668 72.8838 178.655 74.155C177.539 74.1323 176.423 74.1084 175.306 74.0857C175.322 72.6851 175.337 71.2834 175.353 69.8828C176.466 69.8862 177.578 69.8908 178.69 69.8942C178.691 70.044 178.694 70.1938 178.695 70.3425Z" fill="#E2E2E2"/>
<path d="M175.308 109.418C176.729 109.545 178.151 109.672 179.572 109.799C179.572 109.799 179.568 109.832 179.567 109.833C179.555 110.824 179.544 111.816 179.534 112.807C178.122 112.681 176.709 112.555 175.297 112.429C175.3 111.425 175.304 110.421 175.308 109.418Z" fill="#C2C2C2"/>
<path d="M51.1828 79.1219C49.9502 79.4045 48.7187 79.6871 47.4861 79.9697C47.468 78.9845 47.4498 77.9994 47.4316 77.0142C47.5894 76.752 47.7483 76.4887 47.9061 76.2265C49.0048 76.0937 50.1034 75.9609 51.2021 75.8281C51.1953 76.9268 51.1885 78.0243 51.1828 79.1219Z" fill="#C2C2C2"/>
<path d="M178.284 62.8235C178.281 64.0641 178.277 65.3035 178.273 66.5441C177.29 66.5418 176.306 66.5407 175.323 66.5384C175.323 65.1412 175.323 63.7429 175.323 62.3457C176.307 62.3616 177.29 62.3763 178.274 62.3922C178.278 62.5352 178.281 62.6794 178.284 62.8235Z" fill="#E2E2E2"/>
<path d="M51.1532 71.5407C51.0862 71.5475 51.0182 71.5498 50.9512 71.56C47.7664 72.022 47.7664 72.022 47.965 68.718C49.0421 68.5659 50.1181 68.4138 51.1941 68.2617C51.1805 69.3547 51.1668 70.4477 51.1532 71.5407Z" fill="#C1C1C1"/>
<path d="M51.1374 63.9657C50.2045 64.0667 49.2715 64.1666 48.0684 64.296C47.9969 63.2938 47.9311 62.3812 47.8652 61.4687C47.8868 61.3484 47.9163 61.2303 47.9549 61.1146C49.0366 60.9716 50.1171 60.8286 51.1976 60.6855C51.1772 61.7797 51.1567 62.8727 51.1374 63.9657Z" fill="#C2C2C2"/>
<path d="M175.306 74.0859C176.423 74.1086 177.539 74.1313 178.655 74.1552C178.691 74.2596 178.722 74.3663 178.748 74.4752C178.729 75.4718 178.71 76.4672 178.691 77.4626C177.579 77.4603 176.466 77.4569 175.353 77.4546C175.336 76.3321 175.322 75.2096 175.306 74.0859Z" fill="#C2C2C2"/>
<path d="M175.323 66.5371C176.306 66.5394 177.29 66.5405 178.273 66.5428C178.409 66.6892 178.546 66.8345 178.682 66.9809C178.685 67.9525 178.689 68.9229 178.692 69.8944C177.58 69.891 176.467 69.8876 175.355 69.8831C175.344 68.7674 175.333 67.6517 175.323 66.5371Z" fill="#C2C2C2"/>
<path d="M51.1681 145.981C50.3656 146.081 49.4554 146.45 48.7959 146.188C48.326 146.001 48.0082 144.972 47.9799 144.305C47.9628 143.901 48.5519 143.286 49.0082 143.092C49.6755 142.808 50.4678 142.817 51.2055 142.701C51.1942 143.795 51.1817 144.888 51.1681 145.981Z" fill="#C2C2C2"/>
<path d="M178.274 62.3915C177.29 62.3756 176.307 62.3608 175.323 62.3449C175.327 61.2224 175.329 60.0999 175.332 58.9785C176.295 58.9955 177.257 59.0137 178.219 59.0319C178.253 59.1385 178.283 59.2464 178.307 59.3553C178.296 60.3666 178.286 61.379 178.274 62.3915Z" fill="#C1C1C1"/>
<path d="M48.3697 53.1345C49.3253 53.1231 50.2821 53.1118 51.2378 53.1016C51.2253 54.0697 51.2128 55.0367 51.2004 56.0049C48.3561 56.7903 48.3311 56.7699 48.2959 53.4875C48.3231 53.3706 48.3481 53.2525 48.3697 53.1345Z" fill="#C2C2C2"/>
<path d="M175.319 139.293C176.277 139.488 177.639 138.789 177.866 140.556C178.132 142.636 176.911 142.816 175.353 142.642C175.342 141.526 175.331 140.409 175.319 139.293Z" fill="#C2C2C2"/>
<path d="M175.343 124.178C175.875 124.575 176.812 124.933 176.856 125.379C176.951 126.347 176.801 127.517 175.321 127.536C175.328 126.417 175.336 125.297 175.343 124.178Z" fill="#C2C2C2"/>
<path d="M178.274 62.3908C178.286 61.3784 178.296 60.3659 178.307 59.3535C182.925 59.8881 187.542 60.4227 192.095 60.9505C192.333 64.024 191.891 64.3237 188.864 63.94C185.347 63.4951 181.811 63.1887 178.285 62.8221C178.281 62.6791 178.278 62.5349 178.274 62.3908Z" fill="#D7D7D7"/>
<path d="M178.691 69.894C178.687 68.9225 178.684 67.952 178.681 66.9805C182.48 67.3981 186.277 67.8317 190.079 68.2256C191.58 68.3811 191.505 69.5285 191.224 70.3832C191.061 70.8747 190.065 71.4308 189.484 71.3888C185.881 71.1289 182.29 70.7089 178.694 70.3423C178.694 70.1937 178.692 70.0438 178.691 69.894Z" fill="#D8D8D8"/>
<path d="M178.69 77.4619C178.71 76.4665 178.728 75.47 178.747 74.4746C182.682 74.9048 186.616 75.3361 190.513 75.7628C190.486 78.7638 190.403 78.8932 187.865 78.7161C184.806 78.5016 181.753 78.1929 178.697 77.925C178.695 77.7707 178.693 77.6163 178.69 77.4619Z" fill="#D8D8D8"/>
<path d="M179.534 112.806C179.546 111.815 179.556 110.823 179.567 109.832C181.439 109.997 183.331 110.049 185.168 110.392C185.73 110.496 186.622 111.533 186.518 111.909C186.332 112.579 185.528 113.517 184.937 113.551C183.149 113.656 181.339 113.38 179.538 113.254C179.538 113.105 179.535 112.956 179.534 112.806Z" fill="#D8D8D8"/>
<path d="M92.0618 172.523C93.1911 172.538 94.3204 172.553 95.4498 172.569C94.4975 172.996 93.5475 173.426 92.593 173.848C91.4523 174.353 90.3094 174.851 89.1675 175.353C88.726 175.392 88.2845 175.431 87.843 175.47C86.5809 175.177 85.3188 174.885 84.0566 174.593C85.7398 173.904 87.4242 173.216 89.1074 172.527C90.0937 172.527 91.0778 172.526 92.0618 172.523Z" fill="#DCE2E3"/>
<path d="M178.251 50.5326C178.144 48.4101 178.037 46.2877 177.932 44.1641C179.01 44.1743 179.767 44.6192 179.521 45.7917C179.185 47.3897 178.682 48.9538 178.251 50.5326Z" fill="#D6D6D6"/>
<path d="M200.686 135.123C201.053 137.291 201.515 139.47 199.981 141.425C200.216 139.324 200.451 137.224 200.686 135.123Z" fill="#DBDBDB"/>
<path d="M199.831 142.689C199.605 144.651 199.379 146.612 199.153 148.573C199.379 146.611 199.605 144.651 199.831 142.689Z" fill="#74BED8"/>
<path d="M198.101 157.828C197.915 159.512 197.73 161.197 197.544 162.881C197.73 161.197 197.916 159.512 198.101 157.828Z" fill="#74BED8"/>
<path d="M202.364 120.822C202.463 121.931 202.561 123.04 202.66 124.148C202.34 124.999 202.021 125.849 201.702 126.7C201.922 124.741 202.144 122.781 202.364 120.822Z" fill="#DBDBDB"/>
<path d="M198.948 150.68C198.76 152.223 198.572 153.768 198.385 155.312C198.572 153.768 198.759 152.223 198.948 150.68Z" fill="#74BED8"/>
<path d="M201.455 128.797C201.269 130.342 201.083 131.885 200.896 133.43C201.084 131.886 201.27 130.342 201.455 128.797Z" fill="#74BED8"/>
<path d="M196.504 171.725C196.343 172.978 196.182 174.231 196.021 175.484C196.182 174.231 196.343 172.978 196.504 171.725Z" fill="#74BED8"/>
<path d="M197.3 164.979C197.171 165.957 197.042 166.936 196.912 167.915C197.042 166.936 197.171 165.958 197.3 164.979Z" fill="#74BED8"/>
<path d="M203.845 109.648C203.656 110.707 203.468 111.765 203.279 112.824C203.468 111.765 203.656 110.707 203.845 109.648Z" fill="#74BED8"/>
<path d="M203.013 116.402C202.847 117.451 202.682 118.5 202.517 119.549C202.682 118.5 202.847 117.451 203.013 116.402Z" fill="#74BED8"/>
<path d="M203.189 113.666C203.138 114.366 203.088 115.065 203.037 115.766C203.088 115.067 203.139 114.366 203.189 113.666Z" fill="#74BED8"/>
<path d="M89.5025 175.578C89.3686 175.569 89.2335 175.56 89.0996 175.551C89.2381 175.501 89.3731 175.51 89.5025 175.578Z" fill="#63AFC9"/>
<path d="M48.6467 37.8652C48.6729 40.0036 48.699 42.1419 48.7239 44.2814C48.5866 44.413 48.4504 44.5447 48.3131 44.6764C45.6742 45.2972 43.0217 45.867 40.4032 46.5605C38.8347 46.9759 38.1026 46.5446 37.778 44.9079C36.8972 40.4587 36.845 40.4735 41.3112 39.4985C43.7583 38.9628 46.202 38.41 48.6467 37.8652Z" fill="#D6D6D6"/>
<path d="M49.9955 104.387C49.0285 104.543 48.0626 104.7 47.0967 104.857C47.2317 98.1125 47.3679 91.3672 47.503 84.623C48.142 83.8841 48.781 83.1452 49.916 81.832C50.084 89.676 49.9557 97.0342 49.9955 104.387Z" fill="#DBDBDB"/>
<path d="M47.4316 77.0137C47.4498 77.9989 47.468 78.984 47.4861 79.9692C47.4816 80.1213 47.477 80.2723 47.4736 80.4243C43.8008 81.2007 40.1291 81.9782 36.4562 82.7534C35.5028 82.9554 34.5312 83.3526 33.6005 83.2732C33.0943 83.2301 32.436 82.4378 32.2658 81.8601C32.1432 81.4447 32.6188 80.4425 32.9876 80.3528C37.7841 79.1724 42.6113 78.1078 47.4316 77.0137Z" fill="#D6D6D6"/>
<path d="M72.2717 177.037C72.0096 177.103 71.7474 177.168 71.4863 177.233C71.7485 177.168 72.0096 177.102 72.2717 177.037Z" fill="#63AFC9"/>
<path d="M33.1535 152.758C33.0388 152.459 32.9242 152.161 32.8096 151.861C32.9242 152.16 33.0388 152.458 33.1535 152.758Z" fill="#5DB9D8"/>
<path d="M158.183 151.903C158.154 154.744 156.073 156.895 153.34 156.91C150.522 156.925 148.319 154.649 148.379 151.785C148.436 149.074 150.658 146.899 153.372 146.9C156.072 146.903 158.212 149.127 158.183 151.903Z" fill="#FBFBFB"/>
<path d="M81.3164 144.567C81.4571 144.442 81.5979 144.318 81.7398 144.193C81.7261 144.431 81.7114 144.668 81.6989 144.906C81.5718 144.794 81.4447 144.68 81.3164 144.567Z" fill="#FDFDFD"/>
</svg>
