<svg width="165" height="174" viewBox="0 0 165 174" fill="none" xmlns="http://www.w3.org/2000/svg">
<g clip-path="url(#clip0_7612_103372)">
<path d="M17.6475 162.057C16.1585 162.131 14.6695 162.197 13.1805 162.29C11.8055 162.377 11.5841 162.237 11.4768 160.88C11.0297 155.117 10.5825 149.339 10.1353 143.545C9.28128 132.462 8.42945 121.38 7.57986 110.297C7.24897 105.992 6.9136 101.69 6.57376 97.3901C6.47986 95.8873 6.41949 94.3778 6.29876 92.875C6.01035 89.2975 5.6951 85.72 5.38657 82.1359C5.09815 77.9067 4.83657 73.6776 4.52133 69.4484C3.79246 59.6248 3.05018 49.8033 2.29449 39.9841C1.57457 30.4441 0.839008 20.9286 0.0877886 11.4374C-0.126846 8.77752 -0.173802 8.77753 2.55608 8.55144C3.10608 8.50489 3.64937 8.4384 4.19266 8.37855C4.73596 8.31871 5.1384 8.37855 5.60791 8.37855C12.3689 7.88205 19.1276 7.3789 25.8841 6.86909C29.05 6.62971 32.2091 6.33712 35.3683 6.06449C40.2445 5.72536 45.1207 5.39953 49.9969 5.04045C53.5786 4.77447 57.1671 4.47524 60.7286 4.18931C63.036 4.08291 65.3433 4.02306 67.6506 3.85017C74.2171 3.3581 80.7835 2.81949 87.3567 2.30082C92.2061 1.95504 97.0622 1.63585 101.912 1.26348C106.761 0.8911 111.456 0.458879 116.225 0.0399539C117.164 -0.0464908 117.687 0.219493 117.754 1.27678C117.955 4.73457 118.23 8.19236 118.479 11.6435C118.526 12.8072 118.519 13.9709 118.62 15.1279C119.022 19.6829 119.478 24.2378 119.874 28.7928C120.135 31.8051 120.343 34.8173 120.545 37.8296C120.545 37.9094 120.545 37.9826 120.545 38.0557C120.746 40.9549 120.913 43.8608 121.141 46.76C121.282 48.4623 121.524 50.1513 121.718 51.847L121.973 56.9805C122.054 58.0577 122.127 59.1349 122.208 60.2122C122.355 62.1007 122.496 63.9825 122.644 65.871C122.993 70.4769 123.344 75.0851 123.697 79.6955L124.059 84.563L124.542 89.2177C124.542 89.8827 124.542 90.6141 124.542 91.3123L124.784 93.4069C124.898 95.1358 125.005 96.8714 125.132 98.6069C125.233 99.9368 125.354 101.22 125.461 102.524L126.668 119.573C126.863 122.319 127.037 125.066 127.252 127.812C127.587 132.061 127.963 136.31 128.305 140.559C128.553 143.685 128.781 146.817 129.016 149.942C129.026 150.012 129.026 150.084 129.016 150.155C129.087 150.605 129.118 151.062 129.11 151.518C129.043 152.249 128.882 152.967 128.761 153.692L119.096 154.357H118.62L116.285 154.597C115.977 154.597 115.662 154.597 115.346 154.597C110.03 154.982 104.711 155.372 99.3896 155.767L84.9622 156.864C80.8976 157.177 76.8329 157.529 72.7683 157.822L59.5079 158.799L47.039 159.75L40.0097 160.222L37.1994 160.461L31.5183 160.914L17.6475 162.057ZM112.355 121.887L106.198 128.896C104.776 130.498 103.34 132.094 101.918 133.704C100.852 134.907 100.791 134.92 99.5909 133.903C98.0146 132.573 96.4317 131.243 94.8622 129.88C94.3122 129.408 93.836 129.361 93.3665 129.966C93.1557 130.248 92.9151 130.507 92.6488 130.738C91.8439 131.403 92.0652 131.921 92.7628 132.513C95.2646 134.634 97.7598 136.769 100.221 138.943C100.845 139.489 101.261 139.442 101.771 138.837C102.851 137.56 103.977 136.31 105.057 135.033C107.07 132.686 109.021 130.326 111 127.978C112.006 126.894 113.052 125.844 114.012 124.72C114.347 124.321 114.783 123.483 114.622 123.29C114.072 122.619 113.582 121.595 112.355 121.887ZM105.259 121.049C105.606 121.292 105.991 121.479 106.399 121.601C106.933 121.618 107.468 121.583 107.995 121.495C107.754 121.083 107.606 120.444 107.251 120.298C105.533 119.488 103.735 118.86 101.885 118.423C91.6427 116.687 82.9165 126.642 85.9213 136.51C86.9033 139.88 89.0993 142.776 92.0925 144.647C95.0858 146.518 98.6678 147.235 102.159 146.66C105.65 146.086 108.806 144.261 111.03 141.532C113.253 138.803 114.388 135.359 114.22 131.855C114.143 131.37 114.026 130.892 113.871 130.425C112.73 131.356 112.71 131.409 112.623 132.872C112.241 139.635 107.452 144.615 100.771 145.194C97.5992 145.436 94.4499 144.498 91.9375 142.563C89.4251 140.628 87.7299 137.835 87.1823 134.728C86.4311 130.266 87.853 126.529 90.9317 123.323C91.2201 123.131 91.5219 122.958 91.797 122.745C93.5772 121.349 95.6913 120.432 97.9341 120.085C100.419 119.782 102.94 120.114 105.259 121.049ZM18.0634 109.519L27.9232 108.794L45.0268 107.524C50.7325 107.081 56.4427 106.655 62.1573 106.247C68.261 105.802 74.3646 105.383 80.4683 104.917C84.7744 104.598 89.0738 104.252 93.3732 103.907C99.1862 103.463 105.015 103.036 110.859 102.623C112.583 102.497 114.307 102.384 116.024 102.238C117.063 102.145 117.647 101.333 117.11 100.589C116.922 100.387 116.692 100.228 116.436 100.121C116.181 100.014 115.905 99.9629 115.628 99.9701C113.126 100.09 110.624 100.316 108.123 100.509C103.702 100.854 99.2823 101.22 94.8622 101.546C88.9128 101.992 82.9701 102.397 77.0207 102.843C72.6811 103.169 68.3415 103.561 64.0018 103.873C56.7646 104.392 49.5207 104.858 42.2835 105.376C35.3213 105.875 28.3591 106.414 21.3969 106.952C19.8341 107.072 18.2713 107.212 16.7018 107.391C15.9171 107.478 15.6957 108.056 15.7762 108.761C15.8567 109.466 16.3329 109.625 16.9567 109.565C17.3256 109.546 17.6811 109.539 18.0299 109.519H18.0634ZM15.5146 85.6535C18.1238 85.474 20.3908 85.321 22.6646 85.1548L40.6201 83.8249L54.9402 82.741C60.4134 82.3287 65.8933 81.9032 71.3664 81.4975C77.3561 81.0587 83.3457 80.6397 89.3286 80.2009C93.9477 79.8639 98.5646 79.5137 103.179 79.1502C106.855 78.8576 110.557 78.5318 114.206 78.2326C115.172 78.1594 115.548 77.6541 115.353 76.7497C115.159 75.8454 114.494 76.0116 113.857 76.0847C107.365 76.5724 100.87 77.0512 94.3726 77.5211L75.8268 78.8709C71.6415 79.1901 67.4561 79.5359 63.2707 79.8218C57.2811 80.254 51.2914 80.653 45.3085 81.0919C38.4604 81.5906 31.6122 82.1292 24.7707 82.6479L15.0317 83.3661C14.361 83.4193 13.9049 83.6985 13.8982 84.4366C13.876 84.5927 13.8891 84.7517 13.9365 84.9021C13.9839 85.0526 14.0645 85.1907 14.1723 85.3065C14.2801 85.4223 14.4126 85.5129 14.56 85.5718C14.7075 85.6306 14.8663 85.6563 15.025 85.6469C15.1879 85.6586 15.3514 85.6608 15.5146 85.6535ZM111.389 58.1441V58.0776C108.498 58.3237 105.607 58.5897 102.71 58.8025C96.8073 59.2347 90.8981 59.6137 84.989 60.0592C78.5768 60.5446 72.1646 61.1099 65.7524 61.582C56.5232 62.2469 47.2872 62.872 38.0512 63.5769C30.0024 64.1554 22.014 64.7937 13.9988 65.3922C13.1738 65.452 12.4762 65.5983 12.5232 66.6224C12.5701 67.6464 13.328 67.7528 14.1195 67.7063C18.0366 67.4602 21.9469 67.2208 25.864 66.9283C31.3774 66.516 36.8841 66.0505 42.4043 65.5983C48.1927 65.1462 53.9811 64.7206 59.7695 64.2684L76.5378 63.005L93.2055 61.7682C99.3829 61.316 105.567 60.8771 111.751 60.4382C112.257 60.4685 112.763 60.3867 113.234 60.1989C113.425 60.0647 113.585 59.8902 113.701 59.6879C113.817 59.4856 113.886 59.2605 113.904 59.0285C113.904 58.7293 113.388 58.2904 113.026 58.184C112.482 58.0965 111.929 58.0831 111.382 58.1441H111.389ZM13.8244 52.9375C15.2799 52.8511 17.0439 52.7646 18.8079 52.625C25.3006 52.1263 31.7933 51.5876 38.2927 51.1155C44.5104 50.6633 50.7414 50.3176 56.9591 49.8454C65.2561 49.2204 73.5463 48.5155 81.8366 47.8506C91.7768 47.0992 101.717 46.401 111.657 45.6894C112.388 45.6362 112.999 45.4833 112.999 44.5723C112.999 43.6613 112.402 43.3488 111.57 43.402C107.619 43.668 103.662 43.9206 99.7116 44.2199C95.6 44.5324 91.5018 44.8848 87.3902 45.224C81.2866 45.6828 75.1829 46.0951 69.0792 46.5539C64.8134 46.8731 60.5475 47.2521 56.2817 47.558C50.1378 48.0035 43.9939 48.3825 37.85 48.8281C30.9213 49.3268 23.9927 49.8654 17.0573 50.404C15.4543 50.5237 13.8512 50.6833 12.2549 50.8628C11.4097 50.9626 11.3762 51.6009 11.4232 52.2725C11.4768 53.0439 11.9732 53.117 12.5835 53.0505C12.8921 53.0372 13.2073 53.0173 13.8244 52.9375ZM112.999 66.8019L112.905 67.0014C107.271 67.4469 101.643 67.919 96.0091 68.3313C85.8409 69.0827 75.6591 69.7743 65.4908 70.519C54.3791 71.3347 43.2695 72.1748 32.1622 73.0392C26.2933 73.4848 20.4311 73.9702 14.5622 74.4223C13.6902 74.4888 13.1 74.7548 13.2207 75.7523C13.3414 76.7497 14.0256 76.7697 14.7835 76.6965C15.9573 76.5835 17.1244 76.4305 18.2982 76.3441C24.3347 75.9185 30.4317 75.5262 36.4951 75.0873C42.2433 74.6684 47.9915 74.1896 53.7396 73.7574C61.6475 73.1722 69.5488 72.627 77.45 72.0351C85.3512 71.4433 93.2457 70.8914 101.147 70.2265L113.348 69.2955C114.461 69.2091 115.091 68.3779 114.528 67.6065C114.219 67.2208 113.522 67.0879 112.999 66.8285V66.8019ZM11.1079 35.2097C13.8378 34.957 16.1384 34.7176 18.4457 34.5447C26.4945 33.9595 34.4896 33.4143 42.5116 32.8225C50.5335 32.2307 58.6091 31.6056 66.6579 31.0005C72.3323 30.5749 78.0067 30.1693 83.6811 29.7437C89.3555 29.3181 95.0299 28.8793 100.704 28.447C103.91 28.2076 107.116 27.9616 110.329 27.7289C111.107 27.669 111.604 27.3631 111.57 26.512C111.537 25.6609 110.953 25.4215 110.229 25.4414C109.913 25.4414 109.605 25.4946 109.29 25.5212C104.635 25.8736 99.9799 26.2327 95.3183 26.5652C89.2817 26.9974 83.2451 27.3964 77.2085 27.8419C71.6549 28.2475 66.1012 28.7197 60.5475 29.1319C53.7329 29.644 46.925 30.1227 40.1171 30.6215C34.1654 31.0648 28.2183 31.5081 22.2756 31.9514C18.5933 32.2307 14.8975 32.5498 11.2488 32.8491C10.35 32.9222 9.9073 33.4608 10.1488 34.2588C10.3164 34.7176 10.9134 35.0235 11.1079 35.2097ZM108.867 16.5243V16.4911C103.823 16.89 98.8061 17.3223 93.7286 17.6813C87.511 18.1335 81.2866 18.4992 75.0622 18.9514C69.4683 19.357 63.8811 19.8425 58.2939 20.2813C53.1695 20.6737 48.0451 21.0261 42.9207 21.4184C39.0439 21.7176 35.1805 22.0834 31.3036 22.3627C24.4555 22.868 17.6073 23.3268 10.7591 23.8056C10.0213 23.8522 9.41767 24.0649 9.41767 24.9427C9.41767 25.8204 10.028 26.1396 10.8262 26.1064C12.3152 26.0354 13.8043 25.9424 15.2933 25.8271C23 25.2353 30.7201 24.6235 38.4067 24.045C46.0933 23.4665 53.9945 22.9146 61.7951 22.3494C69.5957 21.7841 77.4433 21.1391 85.2707 20.554C93.2122 19.9688 101.16 19.4235 109.102 18.8517C109.416 18.824 109.728 18.7728 110.034 18.6987C110.805 18.5258 110.993 17.9806 110.906 17.2824C110.819 16.5842 110.329 16.4379 109.712 16.4911C109.417 16.4977 109.142 16.511 108.867 16.5243ZM18.3786 118.602C18.5665 118.602 18.9555 118.529 19.3512 118.503C23.7713 118.157 28.1847 117.798 32.6116 117.472C38.6482 117.02 44.6847 116.607 50.6878 116.142C55.0274 115.816 59.3671 115.437 63.7067 115.118C67.8585 114.819 72.0104 114.606 76.1555 114.287C82.2994 113.821 88.4299 113.256 94.5738 112.804C100.718 112.352 106.935 111.973 113.119 111.547C114.334 111.467 115.541 111.348 116.748 111.188C117.573 111.082 117.835 110.523 117.761 109.745C117.687 108.967 117.09 108.967 116.547 109C114.273 109.127 111.999 109.226 109.732 109.393C105.386 109.718 101.013 110.097 96.7067 110.423C90.6701 110.875 84.5732 111.288 78.5098 111.753C74.2037 112.072 69.9043 112.418 65.5982 112.764C59.6957 113.207 53.7888 113.651 47.8774 114.094L34.0268 115.125L17.5939 116.321C17.4358 116.308 17.2767 116.331 17.1288 116.388C16.9809 116.445 16.8479 116.534 16.74 116.65C16.6321 116.765 16.5521 116.903 16.5059 117.054C16.4598 117.204 16.4488 117.363 16.4738 117.518C16.4613 117.666 16.4816 117.814 16.5334 117.953C16.5851 118.092 16.667 118.218 16.7732 118.322C16.8794 118.426 17.0073 118.505 17.148 118.555C17.2886 118.605 17.4386 118.623 17.5872 118.609L18.3786 118.602ZM81.9707 36.3135L81.803 36.5795C74.425 37.1248 67.1006 37.6833 59.7494 38.2153C51.8884 38.7938 44.0274 39.3391 36.1664 39.9176C28.1177 40.5094 20.136 41.1345 12.114 41.7396C11.4433 41.7928 10.7055 41.7396 10.7323 42.7503C10.7591 43.7611 11.3091 44.1334 12.2616 44.0802L15.3134 43.8541L29.2713 42.8235L46.6366 41.4935C51.363 41.1345 56.0939 40.782 60.8293 40.4363L75.2634 39.3856C77.5707 39.2127 79.878 39.0465 82.1787 38.8204C83.3323 38.7074 83.9091 38.069 83.5201 37.2711C83.2585 36.8455 82.5006 36.6526 81.9707 36.3135ZM81.0317 87.5154L62.9622 88.8453C58.6225 89.1778 54.2829 89.5435 49.9366 89.8627C43.9 90.3016 37.8097 90.7006 31.7463 91.1328C26.8969 91.4852 22.0475 91.8576 17.1982 92.2233C16.572 92.2072 15.9484 92.3087 15.3604 92.5226C15.1599 92.665 14.9952 92.8513 14.8789 93.0669C14.7626 93.2825 14.6979 93.5217 14.6896 93.766C14.6896 94.052 15.3201 94.5374 15.6823 94.5507C16.8979 94.5729 18.1137 94.5285 19.3244 94.4177C23.7847 94.0852 28.2451 93.7128 32.6988 93.387C38.7353 92.9548 44.7719 92.5691 50.7683 92.1236C58.5577 91.5428 66.3404 90.9444 74.1164 90.3282C76.8933 90.1088 79.6701 89.8561 82.4469 89.6632C82.6182 89.6793 82.7909 89.6538 82.95 89.5889C83.1091 89.5239 83.2499 89.4216 83.3602 89.2906C83.4705 89.1597 83.547 89.0041 83.583 88.8373C83.619 88.6705 83.6136 88.4975 83.5671 88.3333C83.4866 87.4888 82.9299 87.3691 82.2256 87.4489C81.8164 87.5154 81.4274 87.5154 81.0317 87.5553V87.5154Z" fill="white"/>
<path d="M17.6477 162.057L31.5318 160.914L37.1458 160.641C37.6086 160.641 38.0781 160.641 38.541 160.641C41.1099 160.641 40.9422 160.375 40.9757 162.982L40.9288 165.981C40.8684 165.675 40.7812 165.375 40.7477 165.063C40.5733 163.281 40.4257 163.108 38.5678 163.241C34.2281 163.553 29.8952 163.946 25.5556 164.272C22.0007 164.538 18.4458 164.757 14.8842 165.003C13.9385 165.063 13.6903 164.498 13.6099 163.673C13.5294 162.849 13.8446 162.536 14.6294 162.45C15.6422 162.403 16.6416 162.21 17.6477 162.057Z" fill="#DBDBDB"/>
<path d="M40.9277 166.014C40.9277 165.016 40.9613 164.019 40.9747 163.015H41.2094V168.388C41.2094 169.292 41.8802 169.312 42.5509 169.325L74.9338 169.784C74.9338 169.857 74.9741 169.93 74.9875 169.997H64.5844L64.5375 170.343L66.932 171.54C65.0338 172.624 63.3771 171.799 61.5662 171.872L62.1631 172.597C57.8503 172.597 53.5375 172.597 49.2247 172.564C48.4962 172.486 47.7772 172.336 47.0783 172.118C47.0783 171.413 47.0783 170.715 47.0783 170.017C46.6355 169.819 46.1689 169.678 45.6899 169.598C44.4625 169.538 43.2283 169.598 41.9942 169.598C41.8407 169.581 41.6923 169.533 41.5575 169.459C41.4228 169.384 41.3044 169.283 41.2095 169.162C41.1145 169.041 41.0449 168.903 41.0045 168.755C40.9642 168.607 40.9541 168.453 40.9747 168.301C40.9613 167.53 40.9411 166.772 40.9277 166.014ZM61.9149 170.669V170.163C61.3985 170.117 60.882 170.017 60.3588 170.017C56.4015 170.017 52.4375 170.11 48.4735 170.11C47.7692 170.11 47.454 170.416 47.5948 170.981C47.6954 171.413 48.0979 172.072 48.4131 172.098C50.479 172.258 52.5582 172.284 54.6375 172.318C54.9729 172.318 55.5027 172.258 55.6101 172.052C56.3814 170.629 57.7832 170.822 59.0174 170.722C59.9818 170.658 60.949 170.644 61.9149 170.682V170.669Z" fill="#DBDBDB"/>
<path d="M41.9941 169.591C43.2283 169.591 44.4624 169.538 45.6899 169.591C46.3876 169.669 47.0767 169.81 47.749 170.01C47.6813 170.192 47.6297 170.378 47.5948 170.569C47.4941 171.393 49.721 171.958 45.5826 172.085C44.6033 172.038 43.6509 172.038 43.2752 170.755C43.1076 170.303 42.4301 169.97 41.9941 169.591Z" fill="#DBDBDB"/>
<path d="M41.1892 168.388V163.015C41.1892 162.563 41.1891 162.104 41.2294 161.685C41.3434 160.747 41.0081 160.222 40.002 160.249L47.0312 159.776L59.5806 158.872L72.841 157.895C76.9056 157.582 80.9702 157.23 85.0349 156.937L99.4623 155.84C104.783 155.441 110.102 155.051 115.419 154.67C115.734 154.67 116.05 154.67 116.358 154.67C116.358 154.736 116.358 154.803 116.358 154.876C116.184 156.678 115.493 158.473 116.358 160.275C116.137 159.936 115.748 159.61 115.728 159.258C115.667 158.287 115.151 158.101 114.319 158.161C109.47 158.526 104.62 158.872 99.7709 159.231L82.7611 160.508L68.441 161.572L54.4831 162.609C50.6465 162.895 46.8166 163.221 42.9867 163.487C41.8398 163.56 41.4239 164.099 41.4172 165.203C41.4105 166.306 41.2696 167.31 41.1892 168.388Z" fill="#DBDBDB"/>
<path d="M18.0292 109.519C17.6804 109.519 17.3249 109.519 16.9694 109.579C16.3457 109.639 15.8695 109.486 15.789 108.774C15.7085 108.063 15.9298 107.491 16.7146 107.404C18.2707 107.225 19.8335 107.085 21.4097 106.965C28.3719 106.427 35.3341 105.888 42.2963 105.389C49.5335 104.871 56.7774 104.405 64.0146 103.887C68.3542 103.574 72.6938 103.182 77.0335 102.856C82.9829 102.41 88.9255 102.005 94.8749 101.559C99.2951 101.233 103.715 100.894 108.135 100.522C110.637 100.329 113.139 100.103 115.641 99.9833C115.918 99.9761 116.194 100.028 116.449 100.134C116.705 100.241 116.935 100.4 117.123 100.602C117.66 101.346 117.076 102.158 116.037 102.251C114.319 102.397 112.596 102.51 110.872 102.637C105.059 103.08 99.2302 103.508 93.3859 103.92C89.0865 104.239 84.7871 104.585 80.481 104.931C74.3774 105.383 68.2737 105.802 62.1701 106.261C56.4644 106.677 50.7542 107.103 45.0396 107.537L27.889 108.794L18.0292 109.519Z" fill="#DBDBDB"/>
<path d="M15.5147 85.6534C15.3539 85.6627 15.1927 85.6627 15.0318 85.6534C14.8731 85.6629 14.7143 85.6372 14.5669 85.5783C14.4194 85.5195 14.287 85.4289 14.1791 85.3131C14.0713 85.1972 13.9908 85.0591 13.9434 84.9087C13.896 84.7583 13.8829 84.5993 13.905 84.4432C13.905 83.7051 14.3544 83.4258 15.0385 83.3726L24.7775 82.6545C31.619 82.1358 38.4672 81.5972 45.3154 81.0985C51.2983 80.6596 57.2879 80.2606 63.2776 79.8284C67.4629 79.5292 71.6483 79.1967 75.8337 78.8775L94.3727 77.4811C100.874 77.0023 107.369 76.5235 113.857 76.0448C114.495 75.9982 115.199 75.8719 115.353 76.7097C115.507 77.5476 115.172 78.1195 114.206 78.1926C110.531 78.4918 106.828 78.8176 103.179 79.1102C98.5648 79.4782 93.9479 79.8284 89.3288 80.1609C83.3458 80.5997 77.3562 81.0187 71.3666 81.4576C65.8934 81.8632 60.4135 82.2888 54.9404 82.701L40.6202 83.7849L22.6647 85.1148C20.3843 85.321 18.1172 85.4739 15.5147 85.6534Z" fill="#DBDBDB"/>
<path d="M111.381 58.1441C111.926 58.0836 112.477 58.0971 113.018 58.184C113.38 58.2904 113.883 58.7293 113.896 59.0285C113.878 59.2604 113.809 59.4856 113.693 59.6879C113.577 59.8901 113.417 60.0646 113.226 60.1988C112.756 60.3867 112.249 60.4685 111.743 60.4382C105.559 60.897 99.375 61.3359 93.1976 61.7681L76.55 63.0249L59.7817 64.2883C53.9933 64.7205 48.2049 65.1461 42.4165 65.6182C36.8964 66.0438 31.3897 66.5093 25.8762 66.9482C21.9592 67.2407 18.0488 67.4801 14.1317 67.7262C13.3403 67.7727 12.5823 67.6863 12.5354 66.6423C12.4884 65.5983 13.2061 65.4719 14.011 65.4121C22.0262 64.8136 30.0415 64.1753 38.0634 63.5968C47.2994 62.9318 56.5354 62.3134 65.7647 61.6019C72.1769 61.1298 78.5891 60.5645 85.0013 60.0791C90.9104 59.6336 96.8195 59.2546 102.722 58.8223C105.62 58.6096 108.51 58.3436 111.401 58.0975L111.381 58.1441Z" fill="#DBDBDB"/>
<path d="M13.8237 52.9375C13.2067 52.9907 12.8914 53.0106 12.5762 53.0505C11.9658 53.117 11.4695 53.0505 11.4158 52.2725C11.3689 51.6075 11.4158 50.9426 12.2475 50.8628C13.8439 50.6832 15.4469 50.5237 17.05 50.404C23.9719 49.8653 30.9006 49.3267 37.8426 48.828C43.9865 48.3825 50.1305 48.0035 56.2744 47.5579C60.5402 47.2521 64.8061 46.893 69.0719 46.5538C75.1756 46.1017 81.2792 45.6894 87.3829 45.2239C91.4945 44.9114 95.5926 44.559 99.7042 44.2198C103.655 43.9206 107.612 43.6679 111.563 43.4019C112.394 43.3487 112.944 43.6812 112.991 44.5723C113.038 45.4633 112.401 45.6362 111.65 45.6894C101.71 46.4009 91.7695 47.0991 81.8292 47.8505C73.539 48.4822 65.2487 49.1804 56.9518 49.8454C50.7341 50.3175 44.503 50.6633 38.2853 51.1155C31.7859 51.5876 25.2933 52.1262 18.8006 52.6249C17.0433 52.7912 15.2792 52.8776 13.8237 52.9375Z" fill="#DBDBDB"/>
<path d="M112.999 66.8285C113.522 67.0878 114.219 67.2208 114.528 67.6331C115.091 68.4044 114.461 69.2356 113.347 69.3221L101.147 70.2264C93.2456 70.8382 85.3444 71.4433 77.4431 72.0418C69.5419 72.6336 61.6407 73.1788 53.7328 73.764C47.9846 74.1829 42.2364 74.6617 36.4883 75.0939C30.4517 75.5328 24.3547 75.9251 18.2913 76.3507C17.1175 76.4371 15.9505 76.5901 14.7767 76.7031C14.0187 76.7763 13.3212 76.743 13.2139 75.7589C13.1066 74.7748 13.6901 74.5021 14.5553 74.429C20.4242 73.9768 26.2864 73.4914 32.1553 73.0458C43.2627 72.1947 54.3722 71.3546 65.484 70.5257C75.6523 69.7809 85.834 69.0893 96.0023 68.3379C101.636 67.9257 107.264 67.4535 112.898 67.008L112.999 66.8285Z" fill="#DBDBDB"/>
<path d="M11.1079 35.2097C10.9134 35.0235 10.3165 34.7176 10.1756 34.2721C9.92075 33.4741 10.3768 32.9422 11.2756 32.8624C14.9512 32.5631 18.6201 32.244 22.3025 31.9647C28.2451 31.5214 34.1923 31.0781 40.1439 30.6348C46.9519 30.136 53.7598 29.6573 60.5744 29.1452C66.1281 28.733 71.6817 28.2608 77.2354 27.8552C83.272 27.4097 89.3086 27.0107 95.3451 26.5785C100.007 26.246 104.662 25.9135 109.316 25.5345C109.632 25.5345 109.94 25.468 110.256 25.4547C111.007 25.4547 111.597 25.6409 111.597 26.5253C111.597 27.4097 111.134 27.6823 110.356 27.7422C107.143 27.9749 103.937 28.2209 100.731 28.4603C95.0567 28.9036 89.3823 29.3359 83.708 29.757C78.0336 30.1826 72.3592 30.5882 66.6848 31.0138C58.636 31.6189 50.5872 32.2506 42.5384 32.8358C34.4897 33.4209 26.4945 33.9729 18.4726 34.558C16.1384 34.7176 13.8378 34.9836 11.1079 35.2097Z" fill="#DBDBDB"/>
<path d="M108.867 16.5242C109.142 16.5242 109.417 16.5242 109.692 16.471C110.309 16.4178 110.798 16.5375 110.885 17.2623C110.973 17.9871 110.785 18.5058 110.013 18.6787C109.707 18.7528 109.395 18.8039 109.081 18.8316C101.14 19.4035 93.1915 19.9487 85.2501 20.5339C77.4293 21.1191 69.6086 21.7508 61.7744 22.3293C53.9403 22.9078 46.2001 23.4464 38.4129 24.0316C30.6257 24.6167 22.986 25.2219 15.2994 25.8137C13.8104 25.9245 12.3214 26.0176 10.8324 26.093C10.0342 26.1262 9.42383 25.8735 9.42383 24.9293C9.42383 23.985 10.0074 23.8387 10.7653 23.7922C17.6135 23.3134 24.4616 22.8546 31.3098 22.3492C35.1866 22.07 39.05 21.6843 42.9269 21.405C48.0513 21.0127 53.1757 20.6602 58.3 20.2679C63.8939 19.8423 69.4812 19.3569 75.0684 18.938C81.2927 18.4858 87.5171 18.1201 93.7348 17.6679C98.7854 17.3088 103.829 16.8766 108.873 16.4776L108.867 16.5242Z" fill="#DBDBDB"/>
<path d="M18.3779 118.602H17.5864C17.4378 118.616 17.2879 118.598 17.1472 118.548C17.0066 118.499 16.8786 118.419 16.7724 118.315C16.6662 118.211 16.5844 118.085 16.5326 117.946C16.4809 117.808 16.4605 117.659 16.473 117.512C16.448 117.356 16.459 117.197 16.5052 117.047C16.5513 116.896 16.6313 116.758 16.7392 116.643C16.8472 116.528 16.9801 116.438 17.128 116.381C17.276 116.324 17.435 116.302 17.5931 116.315L34.026 115.118L47.8766 114.114C53.788 113.67 59.695 113.227 65.5974 112.784C69.9035 112.458 74.2029 112.119 78.509 111.773C84.5456 111.321 90.6425 110.909 96.7059 110.443C101.046 110.117 105.385 109.738 109.732 109.412C111.999 109.246 114.272 109.146 116.546 109.02C117.116 109.02 117.686 109.02 117.76 109.765C117.834 110.51 117.572 111.095 116.747 111.208C115.54 111.367 114.333 111.487 113.119 111.567C106.935 111.993 100.75 112.358 94.573 112.824C88.3955 113.289 82.2986 113.841 76.1547 114.307C72.0096 114.626 67.8577 114.839 63.7059 115.138C59.3663 115.457 55.0266 115.803 50.687 116.162C44.6504 116.607 38.6138 117.02 32.6108 117.492C28.184 117.818 23.7706 118.157 19.3504 118.522C18.9547 118.529 18.5657 118.582 18.3779 118.602Z" fill="#DBDBDB"/>
<path d="M81.9702 36.3135C82.5001 36.626 83.2648 36.8189 83.4995 37.2843C83.9087 38.0823 83.3318 38.7206 82.158 38.8337C79.8574 39.0598 77.5501 39.226 75.2428 39.3989L60.8087 40.4495C56.1001 40.7953 51.3759 41.1566 46.6361 41.5334L29.2709 42.8633L15.3129 43.894L12.2611 44.1201C11.3087 44.1866 10.752 43.7876 10.7318 42.7902C10.7117 41.7927 11.4495 41.8326 12.1136 41.7794C20.1623 41.1743 28.144 40.5493 36.166 39.9575C44.027 39.3789 51.8879 38.8337 59.7489 38.2552C67.127 37.7232 74.4513 37.1646 81.8026 36.6194L81.9702 36.3135Z" fill="#DBDBDB"/>
<path d="M81.0311 87.5553C81.4269 87.5553 81.8159 87.5154 82.2049 87.4688C82.9159 87.389 83.4726 87.5088 83.5464 88.3533C83.5929 88.5175 83.5984 88.6905 83.5623 88.8573C83.5263 89.0241 83.4498 89.1797 83.3395 89.3106C83.2292 89.4415 83.0885 89.5439 82.9293 89.6088C82.7702 89.6737 82.5976 89.6992 82.4263 89.6832C79.6494 89.9026 76.8726 90.1553 74.0958 90.3481C66.3153 90.9555 58.5326 91.5539 50.7476 92.1435C44.711 92.589 38.6744 92.9747 32.6781 93.4069C28.2244 93.7328 23.7641 94.1052 19.3037 94.4376C18.0931 94.5485 16.8772 94.5928 15.6616 94.5706C15.2994 94.5706 14.6757 94.0719 14.6689 93.786C14.6772 93.5416 14.742 93.3024 14.8583 93.0868C14.9746 92.8712 15.1393 92.685 15.3397 92.5425C15.9277 92.3287 16.5513 92.2271 17.1775 92.2433C22.0269 91.8775 26.8763 91.5052 31.7256 91.1527C37.7622 90.7205 43.8525 90.3215 49.9159 89.8827C54.2622 89.5635 58.6354 89.2177 62.9415 88.8653L81.0311 87.5154V87.5553Z" fill="#DBDBDB"/>
<path d="M74.9482 169.97C74.9482 169.904 74.9147 169.831 74.8945 169.758C75.8336 169.758 76.7659 169.711 77.7049 169.718C91.4012 169.886 105.098 170.052 118.794 170.216C123.227 170.27 127.661 170.369 132.095 170.422C140.38 170.52 148.653 170.604 156.912 170.675C159.118 170.675 159.172 170.622 159.199 168.481C159.279 161.239 159.34 154.005 159.447 146.77C159.581 137.354 159.755 127.938 159.896 118.522C160.066 107.883 160.223 97.2237 160.366 86.5445C160.46 79.5846 160.542 72.6202 160.614 65.6514C160.688 60.1256 160.775 54.6064 160.835 49.0806C160.943 39.0796 161.041 29.0786 161.13 19.0777C161.13 17.1293 161.023 17.0096 159.118 16.9963C154.799 16.9963 150.479 16.9963 146.16 16.9165C138.708 16.8035 131.249 16.6505 123.798 16.5375C122.51 16.5375 122.342 16.7769 122.456 18.1002C122.718 21.784 122.966 25.4746 123.254 29.1584C123.449 31.6387 123.704 34.1124 123.925 36.586V36.8454C123.431 36.7436 122.932 36.6681 122.429 36.6193C121.557 36.5594 120.746 36.6525 120.632 37.7763C120.404 34.764 120.196 31.7518 119.961 28.7395C119.565 24.1845 119.109 19.6296 118.707 15.0746C118.606 13.9176 118.613 12.7539 118.566 11.5902H118.767C118.848 12.3217 118.935 13.0465 118.995 13.7779C119.216 16.3713 119.216 16.3713 121.846 16.2649C122.791 16.2649 123.73 16.2183 124.67 16.2649L158.803 16.737C161.627 16.737 161.627 16.737 161.667 19.5631L161.707 19.8025C161.707 20.1815 161.707 20.5605 161.707 20.9395C161.627 22.8413 161.513 24.7431 161.479 26.6515C161.312 36.9185 161.137 47.1855 161.01 57.4591C160.876 68.0386 160.815 78.6181 160.688 89.2043C160.567 99.0058 160.399 108.807 160.259 118.609L160.218 125.558C160.171 126.176 160.077 126.794 160.071 127.413C160.037 130.738 160.071 134.062 160.004 137.341C159.856 148.388 159.7 159.437 159.534 170.489C159.527 170.544 159.527 170.6 159.534 170.655C158.82 170.818 158.093 170.922 157.361 170.968C148.829 170.908 140.291 170.808 131.752 170.722H123.549C122.879 170.662 122.208 170.555 121.537 170.549C117.613 170.509 113.69 170.509 109.766 170.456C99.9598 170.327 90.1514 170.188 80.3409 170.037L74.9482 169.97Z" fill="#DBDBDB"/>
<path d="M90.9309 123.323C87.8321 126.529 86.4303 130.266 87.1815 134.727C87.7332 137.826 89.4264 140.611 91.9326 142.541C94.4387 144.472 97.579 145.41 100.744 145.174C107.451 144.595 112.213 139.615 112.596 132.852C112.683 131.389 112.703 131.336 113.843 130.405C113.999 130.872 114.115 131.35 114.192 131.835C114.36 135.339 113.225 138.783 111.002 141.512C108.779 144.241 105.622 146.066 102.131 146.64C98.6402 147.214 95.0582 146.498 92.0649 144.627C89.0717 142.756 86.8757 139.86 85.8937 136.49C82.8888 126.622 91.6151 116.667 101.857 118.403C103.707 118.84 105.506 119.468 107.223 120.278C107.578 120.424 107.726 121.063 107.968 121.475C107.44 121.563 106.906 121.598 106.371 121.581C105.962 121.459 105.577 121.27 105.231 121.023C104.794 120.708 104.324 120.44 103.829 120.225C102.178 119.654 100.423 119.437 98.6801 119.588C96.9377 119.739 95.2475 120.256 93.7212 121.102C92.7275 121.761 91.7939 122.504 90.9309 123.323Z" fill="white"/>
<path d="M129.096 149.928C128.861 146.803 128.633 143.671 128.385 140.546C128.043 136.297 127.667 132.048 127.332 127.799C127.117 125.052 126.943 122.306 126.748 119.56H126.963L130.021 119.772C130.108 120.797 130.189 121.814 130.276 122.838C130.35 124.002 130.43 125.165 130.504 126.329V126.588C129.914 126.588 129.33 126.588 128.74 126.588C128.592 126.582 128.444 126.608 128.308 126.665C128.171 126.721 128.049 126.808 127.95 126.917C127.851 127.027 127.778 127.157 127.736 127.298C127.694 127.438 127.684 127.587 127.707 127.732C127.707 128.444 128.069 128.856 128.774 128.849C129.478 128.843 130.115 128.729 130.752 128.663V129.135C130.667 129.506 130.618 129.885 130.605 130.266C130.712 132.413 130.833 134.568 131.007 136.716C131.1 137.24 131.248 137.752 131.45 138.245C131.685 141.018 131.933 143.791 132.121 146.564C132.181 147.368 132.308 148.04 133.321 148.067L132.362 148.532C131.487 148.683 130.621 148.878 129.766 149.117C129.538 149.217 129.324 149.649 129.096 149.928Z" fill="#DBDBDB"/>
<path d="M111.013 127.991C109.034 130.339 107.062 132.699 105.07 135.047C103.99 136.323 102.864 137.574 101.784 138.85C101.274 139.455 100.858 139.515 100.234 138.957C97.7727 136.782 95.2776 134.648 92.7758 132.526C92.1051 131.935 91.8569 131.409 92.6618 130.751C92.9242 130.515 93.1603 130.252 93.366 129.966C93.8356 129.361 94.3118 129.408 94.8618 129.88C96.4313 131.21 98.0142 132.54 99.5904 133.903C100.791 134.92 100.851 134.907 101.918 133.703C103.34 132.094 104.775 130.498 106.197 128.896L109.296 128.437L111.013 127.991Z" fill="white"/>
<path d="M124.125 84.5363L123.763 79.6689C123.414 75.0585 123.063 70.4503 122.71 65.8443L122.757 65.8044L122.958 65.8377L125.789 66.2832C125.956 69.0029 126.111 71.7226 126.312 74.4356C126.4 74.9303 126.541 75.4141 126.734 75.8786V76.3241C126.734 76.7563 126.694 77.1819 126.734 77.6075C126.875 79.0571 127.043 80.5 127.204 81.9497V82.2223C126.667 82.2223 126.124 82.2223 125.587 82.189C124.541 82.1491 124.112 82.6678 124.186 83.6652C124.186 83.9312 124.186 84.2039 124.219 84.4699L124.125 84.5363Z" fill="#DBDBDB"/>
<path d="M126.962 119.56H126.748L125.514 102.51H125.755L128.572 102.703C128.74 104.279 128.901 105.848 129.069 107.418V107.637C129.162 109.718 129.196 111.8 129.37 113.874C129.471 115.078 129.786 116.261 130.008 117.458V117.931C127.861 116.893 126.989 117.359 126.962 119.56Z" fill="#DBDBDB"/>
<path d="M122.04 56.9271C121.953 55.2115 121.872 53.5026 121.785 51.7937V48.0499H124.367L124.857 51.807L125.32 56.5481C125.555 58.9353 125.796 61.3225 126.031 63.7097V63.9624L125.575 63.7164H122.751C122.59 61.4555 122.436 59.188 122.275 56.9271C122.664 56.9271 123.214 57.0269 123.402 56.8207C123.767 56.4441 123.98 55.9468 123.999 55.4243C123.999 55.1451 123.281 54.6995 122.925 54.7594C122.57 54.8192 122.328 55.4243 122.201 55.8034C122.157 56.1859 122.182 56.5732 122.275 56.9471L122.04 56.9271Z" fill="#DBDBDB"/>
<path d="M125.782 102.51H125.513C125.406 101.18 125.285 99.9035 125.185 98.5936C125.057 96.858 124.95 95.1225 124.836 93.3936L127.881 93.613L128.364 98.0749L128.834 100.389V101.579C128.438 101.14 128.129 100.455 127.64 100.296C125.963 99.7506 125.346 100.529 125.782 102.51Z" fill="#DBDBDB"/>
<path d="M124.623 91.299C124.623 90.6007 124.623 89.9025 124.623 89.2043C124.549 87.6417 124.468 86.079 124.395 84.5164H127.225C127.306 86.2785 127.366 88.034 127.493 89.7895C127.589 90.2277 127.74 90.6522 127.943 91.0529L128.164 91.2857L130.445 91.6846C129.351 91.9107 128.245 91.9373 128.144 93.3936C127.835 91.3189 127.809 91.2923 125.676 91.2524C125.313 91.2524 124.971 91.2857 124.623 91.299Z" fill="#DBDBDB"/>
<path d="M121.785 48.0766V51.8203C121.591 50.1247 121.349 48.4357 121.208 46.7334C120.98 43.8341 120.813 40.9283 120.611 38.0291L121.282 39.1927C122.389 39.0797 122.912 39.5984 123.113 40.6556C123.322 41.5066 123.577 42.3457 123.878 43.1692L124.354 45.2771L124.629 45.7027L124.562 45.7559C124.019 45.7559 123.469 45.7559 122.925 45.7559C121.517 45.7559 121.289 46.0618 121.584 47.4382C121.631 47.6178 121.718 47.8505 121.785 48.0766Z" fill="#DBDBDB"/>
<path d="M111.013 127.991L109.296 128.437C109.725 127.639 110.55 126.808 110.496 126.043C110.389 124.613 111.013 123.716 111.838 122.791C112.039 122.512 112.204 122.208 112.328 121.887C113.555 121.595 114.045 122.619 114.608 123.303C114.769 123.496 114.333 124.334 113.998 124.733C113.065 125.857 112.019 126.908 111.013 127.991Z" fill="white"/>
<path d="M118.713 154.377H119.189L119.404 155.74C119.766 155.335 119.981 154.889 120.236 154.862C120.725 154.816 121.644 154.936 121.678 155.122C121.946 156.538 122.959 156.359 123.938 156.312C123.844 156.837 123.757 157.369 123.663 157.901C121.818 157.123 120.041 157.708 118.257 158.127V157.655C118.398 156.551 118.552 155.467 118.713 154.377Z" fill="#DBDBDB"/>
<path d="M112.354 121.887C112.23 122.208 112.066 122.512 111.864 122.791C111.013 123.716 110.389 124.613 110.523 126.043C110.577 126.808 109.752 127.639 109.322 128.437L106.224 128.896L112.354 121.887Z" fill="white"/>
<path d="M128.868 153.679C128.989 152.954 129.15 152.236 129.217 151.504C129.225 151.048 129.194 150.592 129.123 150.141C129.136 150.275 129.183 150.403 129.258 150.514C129.334 150.625 129.436 150.716 129.555 150.779C129.675 150.841 129.808 150.874 129.944 150.873C130.079 150.872 130.212 150.837 130.33 150.773L131.94 150.214L132.611 150.135C132.296 151.737 132.477 152.03 133.832 152.05L132.356 152.715L128.868 153.931V153.679Z" fill="#DBDBDB"/>
<path d="M118.713 154.377C118.552 155.467 118.397 156.551 118.236 157.635L116.352 158.3V154.796C116.352 154.723 116.352 154.656 116.352 154.59L118.713 154.377Z" fill="#DBDBDB"/>
<path d="M124.622 91.299C124.971 91.299 125.293 91.2524 125.662 91.2591C127.795 91.299 127.821 91.3256 128.13 93.4002L127.909 93.613L124.864 93.3936L124.622 91.299Z" fill="#DBDBDB"/>
<path d="M128.868 153.679V153.932L125.863 154.171C124.233 154.297 123.851 154.69 123.918 156.292C122.938 156.339 121.906 156.518 121.657 155.102C121.657 154.916 120.705 154.796 120.215 154.843C119.96 154.843 119.746 155.315 119.384 155.72L119.169 154.357L128.868 153.679Z" fill="#DBDBDB"/>
<path d="M121.308 39.1927L120.638 38.0291C120.638 37.9559 120.638 37.8828 120.638 37.803C120.752 36.6792 121.563 36.5861 122.435 36.6459C122.938 36.6948 123.437 36.7702 123.931 36.872C123.931 38.7339 123.931 38.7339 122.026 39.0265C121.784 39.0674 121.544 39.1229 121.308 39.1927Z" fill="#DBDBDB"/>
<path d="M131.926 150.214L130.317 150.773C130.198 150.837 130.065 150.872 129.93 150.873C129.795 150.874 129.661 150.841 129.542 150.779C129.422 150.716 129.32 150.625 129.245 150.514C129.169 150.403 129.123 150.275 129.109 150.141C129.119 150.071 129.119 149.999 129.109 149.928C129.337 149.649 129.519 149.217 129.78 149.124C130.635 148.885 131.501 148.69 132.376 148.539L131.926 150.214Z" fill="#DBDBDB"/>
<path d="M90.9307 123.323C91.8029 122.51 92.7456 121.773 93.7477 121.122C95.274 120.276 96.9642 119.759 98.7067 119.608C100.449 119.457 102.204 119.674 103.856 120.245C104.35 120.46 104.82 120.728 105.257 121.043C102.936 120.117 100.416 119.792 97.9331 120.098C95.6903 120.446 93.5762 121.362 91.7959 122.758C91.5209 122.958 91.2191 123.131 90.9307 123.323Z" fill="white"/>
<path d="M122.04 56.9272H122.261C122.422 59.1881 122.577 61.4556 122.738 63.7165V65.7845L122.691 65.8244C122.543 63.9359 122.402 62.0541 122.255 60.1656C122.194 59.1083 122.121 58.0311 122.04 56.9272Z" fill="#DBDBDB"/>
<path d="M40.0225 160.222C41.0286 160.222 41.364 160.721 41.2499 161.658C41.1963 162.104 41.2499 162.563 41.2097 162.988H41.0018C40.9682 160.382 41.1359 160.648 38.567 160.648C38.1042 160.648 37.6347 160.648 37.1719 160.648L37.239 160.468L40.0225 160.222Z" fill="#DBDBDB"/>
<path d="M37.2123 160.461L37.1453 160.641L31.5312 160.914L37.2123 160.461Z" fill="#DBDBDB"/>
<path d="M124.38 84.5164C124.454 86.079 124.534 87.6417 124.608 89.2044L124.125 84.5497L124.199 84.4832L124.38 84.5164Z" fill="#DBDBDB"/>
<path d="M160.205 118.622C160.346 108.821 160.513 99.0191 160.634 89.2176C160.761 78.6315 160.822 68.052 160.956 57.4725C161.083 47.1989 161.258 36.9319 161.425 26.6649C161.425 24.7565 161.573 22.8547 161.653 20.9529C161.718 20.9496 161.783 20.9496 161.848 20.9529C161.848 25.0291 161.848 29.112 161.848 33.1882C161.848 34.2587 162.056 35.3293 162.17 36.4066H162.525C162.633 36.2158 162.702 36.0055 162.727 35.7881C162.624 35.2481 162.711 34.6894 162.973 34.2053C163.235 33.7212 163.658 33.341 164.169 33.1283C164.37 33.0419 164.497 32.8025 164.658 32.6362C164.658 37.537 164.658 42.4377 164.658 47.3385C164.605 53.5958 164.511 59.853 164.424 66.1103C164.348 71.3945 164.269 76.6809 164.189 81.9696C164.147 82.5095 164.075 83.0467 163.974 83.5788L163.257 74.7481L162.063 75.6259C161.197 74.4223 161.264 74.1231 162.452 73.5113C161.238 71.5164 161.244 71.4366 162.7 69.5215C162.99 69.2034 163.248 68.8583 163.471 68.4909C163.664 68.1738 163.731 67.7969 163.659 67.4336C162.861 65.8044 163.122 64.1088 163.176 62.4065C163.122 61.7096 163.251 61.0107 163.552 60.3784C164.611 58.8622 164.061 57.2863 164.041 55.7236C163.874 56.3553 163.981 57.0535 163.766 57.6188C163.619 58.0044 163.008 58.2172 162.606 58.5032C162.411 58.0909 162.029 57.6653 162.056 57.2597C162.15 55.4975 162.385 53.7421 162.532 51.9799C162.531 51.6919 162.464 51.4078 162.338 51.1487C161.271 51.2618 161.714 50.4838 161.7 50.0582C161.66 48.7948 161.7 47.5313 161.7 46.2679H161.15V60.0525C161.15 67.6796 161.15 75.3067 161.15 82.9338C161.15 87.7148 161.023 92.4959 160.996 97.2836C160.996 98.5005 162.244 98.0483 162.847 98.4672C163.069 98.1281 163.518 97.7624 163.471 97.4565C163.176 95.2821 164.222 92.8417 162.204 90.9997C162.118 90.8683 162.058 90.7215 162.029 90.5675C161.63 89.3409 161.603 88.0249 161.953 86.7834C162.302 85.542 163.012 84.4298 163.994 83.5854C163.907 95.1424 163.853 106.699 163.726 118.25C163.612 128.517 163.431 138.784 163.27 149.057C163.203 153.49 163.122 157.923 163.028 162.357C162.986 162.819 162.915 163.279 162.814 163.733C162.814 160.814 162.814 157.895 162.814 154.976C162.814 153.712 162.888 152.482 161.539 151.77C161.318 151.651 161.11 151.498 160.869 151.365C160.688 151.595 160.552 151.857 160.466 152.136C160.329 153.293 160.262 154.456 160.265 155.621C160.249 156.198 160.461 156.758 160.855 157.183C161.848 157.848 161.627 158.646 161.452 159.411H159.963C160.064 159.916 160.158 160.422 160.272 160.92C160.295 160.996 160.334 161.066 160.386 161.126C160.7 161.544 160.918 162.025 161.023 162.535C161.129 163.045 161.12 163.572 160.996 164.079C160.796 165.222 160.711 166.383 160.741 167.543C160.727 167.739 160.769 167.935 160.862 168.108C161.486 169.146 162.136 170.17 162.78 171.194C162.78 174 162.78 174.02 159.936 173.993C151.239 173.918 142.538 173.834 133.832 173.741C129.17 173.687 124.508 173.601 119.847 173.508C119.302 173.472 118.76 173.404 118.224 173.302L141.518 173.056C141.907 173.056 142.289 172.989 142.672 172.949V172.504H137.588V172.112C140.076 171.367 142.846 173.129 145.516 171.36C145.17 171.288 144.821 171.235 144.469 171.201C140.868 171.114 137.259 171.048 133.65 170.948C132.98 170.948 132.309 170.808 131.638 170.735C140.177 170.821 148.715 170.921 157.247 170.981C157.979 170.936 158.705 170.831 159.42 170.669C159.326 172.218 158.91 173.495 156.999 173.661C157.713 173.748 158.433 173.779 159.152 173.754C160.58 173.754 161.164 173.308 161.164 171.945C161.07 170.919 160.868 169.904 160.56 168.92C160.411 168.454 160.305 167.975 160.245 167.49C160.198 166.2 160.245 164.91 160.245 163.627H159.789C159.749 164.179 159.688 164.737 159.661 165.289C159.574 167.031 159.494 168.767 159.413 170.509C159.57 159.457 159.726 148.408 159.883 137.361C159.923 134.036 159.916 130.711 159.95 127.433C159.95 126.814 160.05 126.196 160.097 125.578C160.097 130.465 160.097 135.353 160.144 140.247C160.144 141.337 160.352 142.428 160.466 143.571C162.036 143.099 162.391 142.109 161.493 140.812C161.177 140.439 161.004 139.968 161.004 139.482C161.004 138.995 161.177 138.525 161.493 138.152C161.764 137.734 161.948 137.266 162.032 136.775C162.116 136.285 162.099 135.783 161.982 135.299C161.761 133.597 160.922 131.822 161.982 130.099C163.082 130.192 163.122 129.521 162.774 128.523L162.586 129.315L162.318 129.115L162.217 128.45C162.167 127.765 162.008 127.092 161.747 126.455C161.297 125.701 161.021 124.857 160.94 123.984C160.859 123.111 160.974 122.232 161.278 121.408C162.385 120.617 163.391 117.904 163.035 116.634C162.874 116.049 162.593 115.863 162.036 116.308C161.724 116.496 161.388 116.641 161.036 116.74C161.033 115.193 161.579 113.693 162.579 112.505C162.95 112.018 163.217 111.461 163.364 110.869C163.431 110.257 163.431 109.639 163.364 109.027V100.994C162.982 101.147 162.774 101.36 162.8 101.533C163.163 103.96 161.338 106.413 162.888 108.847C162.961 108.96 162.888 109.153 162.888 109.306C162.776 109.511 162.65 109.709 162.512 109.898C162.277 110.177 162.002 110.43 161.747 110.689C161.479 110.383 161.077 110.117 160.983 109.765C160.829 109.086 160.76 108.392 160.775 107.697C160.775 105.995 160.775 104.299 160.775 102.603H160.305C160.305 107.258 160.305 111.913 160.305 116.567C160.307 117.254 160.274 117.939 160.205 118.622ZM164.021 52.0664H164.236V37.6434L163.21 39.0464L162.539 37.7165L162.25 37.7631C162.25 38.5411 162.049 39.3856 162.297 40.0771C162.743 41.072 162.842 42.1855 162.579 43.2423C162.533 43.4616 162.533 43.688 162.579 43.9073C162.72 44.918 162.854 45.9421 163.042 46.9462C163.344 48.695 163.693 50.3774 164.021 52.0664ZM162.68 145.56C162.017 145.917 161.407 146.365 160.869 146.89C160.553 147.309 160.627 148.013 160.527 148.592C160.92 148.695 161.329 148.729 161.734 148.692C163.122 148.299 163.397 147.395 162.713 145.56H162.68ZM147.394 171.247C148.843 173.382 149.084 173.468 150.372 172.358C150.553 172.198 150.761 171.892 150.714 171.693C150.66 171.576 150.578 171.475 150.475 171.399C150.372 171.322 150.251 171.272 150.124 171.254C149.312 171.22 148.454 171.247 147.427 171.247H147.394ZM153.712 171.52H153.457C153.532 172.197 153.717 172.857 154.007 173.475C154.208 173.767 154.973 173.687 155.349 173.741L153.712 171.52ZM163.263 122.412L162.74 122.279C162.503 122.556 162.345 122.891 162.281 123.248C162.218 123.606 162.251 123.974 162.378 124.314L162.753 124.407C162.961 123.742 163.129 123.077 163.297 122.412H163.263Z" fill="#DBDBDB"/>
<path d="M131.691 170.735C132.362 170.808 133.032 170.935 133.703 170.948C137.312 171.048 140.92 171.114 144.522 171.2C144.874 171.235 145.223 171.288 145.568 171.36C142.886 173.129 140.129 171.36 137.64 172.111V172.504H142.698V172.949C142.315 172.989 141.933 173.049 141.544 173.056L118.25 173.302H112.374C111.749 173.127 111.113 172.998 110.469 172.916C109.852 172.87 109.201 173.122 108.598 173.022C105.083 172.411 101.381 173.608 97.9867 171.912C97.2221 171.533 96.4441 171.2 95.666 170.848L95.7935 170.562C96.0886 170.622 96.377 170.715 96.6788 170.748C98.3386 171.006 100.011 171.174 101.689 171.254C103.473 171.254 105.257 170.921 107.055 170.888C112.542 170.788 118.028 170.768 123.515 170.715L131.691 170.735Z" fill="#DBDBDB"/>
<path d="M123.501 170.708C118.015 170.762 112.528 170.782 107.042 170.881C105.258 170.915 103.473 171.26 101.676 171.247C99.9978 171.168 98.3253 170.999 96.6655 170.742C96.3636 170.708 96.0752 170.615 95.7801 170.556L95.6527 170.841C96.4307 171.194 97.2088 171.506 97.9734 171.905C101.367 173.601 105.07 172.404 108.584 173.016C109.188 173.116 109.839 172.863 110.456 172.91C111.099 172.992 111.736 173.121 112.361 173.295C102.286 173.215 92.2096 173.129 82.1307 173.036C77.7039 172.989 73.2703 172.903 68.8435 172.81C68.2589 172.768 67.6769 172.697 67.0996 172.597C70.3996 172.597 73.6996 172.597 76.9996 172.597C79.4478 172.597 81.849 172.324 84.0155 170.988C84.5521 170.797 85.1269 170.735 85.6923 170.808C86.1752 170.808 86.6581 170.848 87.1411 170.875V170.423C86.5374 170.369 85.9338 170.303 85.3368 170.276C83.6533 170.183 81.9831 170.11 80.2929 170.037C90.1035 170.179 99.9118 170.318 109.718 170.456C113.642 170.509 117.565 170.509 121.489 170.549C122.16 170.542 122.831 170.635 123.501 170.708ZM92.4667 172.198L92.5271 171.852C91.0581 170.855 89.2337 170.689 88.2209 171.779L92.4667 172.198Z" fill="#DBDBDB"/>
<path d="M80.3061 170.024C81.9896 170.097 83.6597 170.17 85.35 170.263C85.9469 170.263 86.5506 170.356 87.1542 170.409V170.861C86.6713 170.861 86.1884 170.775 85.7054 170.795C85.14 170.722 84.5653 170.784 84.0286 170.974C81.8622 172.304 79.4609 172.557 77.0128 172.584C73.7128 172.617 70.4128 172.584 67.1128 172.584H62.1829L61.5859 171.859C63.3902 171.786 65.0469 172.61 66.9518 171.526L64.5573 170.329L64.6042 169.984H74.967L80.3061 170.024Z" fill="#DBDBDB"/>
<path d="M164.98 21.5381C164.865 21.2664 164.714 21.0114 164.531 20.78L161.848 20.9729C161.848 25.0491 161.848 29.1319 161.848 33.2081C161.848 34.2787 162.056 35.3493 162.17 36.4265H162.525C162.633 36.2357 162.701 36.0255 162.726 35.8081C162.623 35.2681 162.71 34.7093 162.973 34.2252C163.235 33.7411 163.657 33.361 164.168 33.1483C164.37 33.0618 164.497 32.8224 164.658 32.6562C164.732 31.9912 164.859 31.2731 164.866 30.5815C164.899 27.9815 164.906 25.3882 164.866 22.7882C164.862 22.5635 164.891 22.3394 164.953 22.1233L164.98 21.5381Z" fill="#DBDBDB"/>
<path d="M162.794 171.194C162.123 170.17 161.499 169.146 160.875 168.108C160.782 167.935 160.74 167.739 160.755 167.543C160.724 166.383 160.81 165.222 161.01 164.079C161.133 163.572 161.142 163.045 161.037 162.535C160.931 162.025 160.713 161.544 160.399 161.126C160.347 161.066 160.308 160.996 160.285 160.92C160.171 160.422 160.077 159.916 159.977 159.411H161.466C161.64 158.646 161.861 157.868 160.869 157.183C160.474 156.758 160.263 156.198 160.278 155.621C160.275 154.456 160.342 153.293 160.48 152.136C160.565 151.857 160.701 151.595 160.882 151.365C161.097 151.498 161.305 151.651 161.553 151.77C162.894 152.482 162.841 153.712 162.827 154.975C162.827 157.895 162.827 160.814 162.827 163.733L162.794 171.194Z" fill="#DBDBDB"/>
<path d="M118.27 3.46444C121.14 2.91918 121.261 2.66649 121.415 5.7386C121.543 8.3386 121.818 10.9253 122.039 13.5186C122.079 13.9841 122.18 14.4429 122.254 14.9017C122.327 15.3606 122.254 15.6731 122.254 16.0521L121.798 16.3115C119.168 16.4178 119.168 16.4178 118.947 13.8245C118.887 13.093 118.799 12.3682 118.719 11.6368C118.571 8.91046 118.422 6.18634 118.27 3.46444Z" fill="#DBDBDB"/>
<path d="M118.257 158.107C120.041 157.689 121.819 157.103 123.663 157.881C124.877 158.467 125.709 157.436 126.728 157.163C127.976 157.077 129.224 156.997 130.471 156.897C132.691 156.731 132.778 156.638 132.879 154.397C137.138 152.961 141.377 151.451 145.677 150.121C147.112 149.676 148.702 149.729 150.204 149.456C150.419 149.423 150.624 149.343 150.804 149.221C150.984 149.099 151.134 148.938 151.244 148.751C151.259 148.529 151.225 148.306 151.144 148.098C151.063 147.89 150.937 147.702 150.774 147.548C150.355 147.141 149.845 146.838 149.285 146.664C148.384 146.401 147.458 146.234 146.522 146.165C142.001 145.859 137.668 146.929 133.349 148.06C132.336 148.06 132.208 147.362 132.148 146.557C131.933 143.784 131.685 141.011 131.477 138.238C131.24 135.202 131.017 132.165 130.806 129.129C131.142 129.022 131.488 128.952 131.839 128.922C135.294 128.922 138.741 128.976 142.196 129.015C144.979 129.015 147.769 129.082 150.553 129.095C150.71 129.122 150.872 129.111 151.024 129.064C151.177 129.017 151.316 128.936 151.431 128.826C151.546 128.716 151.633 128.58 151.686 128.431C151.738 128.281 151.754 128.122 151.733 127.965C151.746 127.808 151.723 127.65 151.668 127.503C151.612 127.356 151.525 127.222 151.412 127.112C151.299 127.002 151.163 126.917 151.013 126.865C150.863 126.812 150.704 126.793 150.546 126.808C150.15 126.808 149.761 126.808 149.366 126.808C143.638 126.728 137.91 126.646 132.181 126.562C131.636 126.522 131.094 126.446 130.558 126.336C130.485 125.172 130.404 124.008 130.33 122.845C130.33 122.412 130.33 121.987 130.33 121.561C130.33 120.105 130.592 119.826 132.041 119.826C133.489 119.826 134.784 119.912 136.159 119.939C141.024 120.036 145.889 120.132 150.754 120.225C150.912 120.248 151.073 120.235 151.225 120.187C151.377 120.139 151.516 120.058 151.631 119.949C151.747 119.84 151.836 119.706 151.892 119.558C151.948 119.41 151.97 119.252 151.955 119.094C151.955 118.316 151.559 117.97 150.801 117.931C149.587 117.864 148.373 117.738 147.159 117.718C141.471 117.618 135.756 117.545 130.089 117.465C130.008 116.694 129.914 115.922 129.841 115.151C129.604 112.651 129.38 110.148 129.17 107.644V107.424C129.13 106.493 129.13 105.556 129.042 104.625C128.888 103.016 129.089 102.743 130.706 102.743C136.072 102.743 141.451 102.743 146.844 102.743C148.185 102.743 149.527 102.889 150.835 102.929C151.572 102.929 152.176 102.723 152.176 101.839C152.176 100.954 151.619 100.648 150.835 100.622C148.822 100.549 146.756 100.422 144.717 100.409C139.459 100.369 134.2 100.376 128.935 100.369C128.781 99.5977 128.62 98.8263 128.466 98.055C128.432 97.1972 128.466 96.346 128.372 95.4949C128.231 93.8857 128.419 93.633 130.035 93.6197C132.047 93.6197 134.106 93.6197 136.139 93.6197C136.81 93.6197 137.413 93.5332 137.574 92.7286C137.735 91.924 137.299 91.3322 136.233 91.3189C133.55 91.279 130.914 91.3189 128.251 91.2857L128.03 91.0529C127.936 89.4969 127.835 87.9476 127.741 86.3982C127.634 84.656 127.741 84.5031 129.492 84.523C133.335 84.5762 137.178 84.6627 141.015 84.7425L150.405 84.942C150.761 84.942 151.197 85.0484 151.445 84.8821C151.847 84.6228 152.357 84.1839 152.377 83.7982C152.351 83.5534 152.265 83.3185 152.127 83.1136C151.989 82.9087 151.804 82.7398 151.586 82.6213C150.987 82.4415 150.358 82.3761 149.735 82.4284C144.791 82.4284 139.848 82.4284 134.911 82.3752C132.369 82.3752 129.834 82.0893 127.299 81.943C127.138 80.0678 126.981 78.1926 126.829 76.3174V75.8719C126.675 73.5445 126.487 71.2172 126.373 68.8898C126.232 66.0571 126.259 66.0372 129.103 66.0638C136.476 66.1303 143.854 66.2056 151.237 66.2898C151.981 66.2898 152.713 66.23 152.713 65.2259C152.713 64.3282 152.116 64.029 151.317 63.9891C151.042 63.9891 150.767 63.9891 150.492 63.9891L126.145 63.7364C125.91 61.3492 125.669 58.962 125.434 56.5748L124.971 51.8336C124.971 50.9825 124.971 50.1247 124.924 49.2735C124.877 48.4224 125.233 48.1165 126.011 48.1099H127.305L150.814 48.3492C151.24 48.4224 151.676 48.395 152.089 48.2694C152.291 48.1645 152.469 48.0176 152.609 47.8385C152.749 47.6595 152.848 47.4527 152.9 47.2321C152.864 47.005 152.776 46.7891 152.644 46.6003C152.511 46.4115 152.338 46.2547 152.136 46.1416C151.689 46.0042 151.217 45.9656 150.754 46.0285L125.514 45.7293H124.689L124.414 45.3037C124.26 43.3088 124.099 41.2475 123.945 39.2193L124.173 38.9733C126.292 38.9733 128.405 39.0066 130.525 39.0398L151.586 39.4255C152.424 39.4255 153.088 39.1994 153.075 38.202C153.061 37.2045 152.344 37.1247 151.592 37.1114C148.064 37.0316 144.536 36.9385 141.008 36.8787C135.321 36.7856 129.633 36.7014 123.945 36.626C123.71 34.1524 123.455 31.6787 123.274 29.1984C122.986 25.5145 122.738 21.824 122.476 18.1401C122.382 16.8102 122.55 16.5575 123.817 16.5775C131.269 16.6905 138.728 16.8435 146.18 16.9565C150.499 17.0163 154.819 17.0097 159.138 17.0363C161.07 17.0363 161.197 17.1693 161.15 19.1176C161.056 29.1186 160.958 39.1196 160.855 49.1206C160.795 54.6464 160.708 60.1656 160.634 65.6914C160.553 72.6602 160.471 79.6245 160.386 86.5844C160.238 97.2238 160.082 107.883 159.916 118.562C159.775 127.978 159.601 137.394 159.467 146.81C159.36 154.045 159.299 161.279 159.219 168.521C159.219 170.662 159.138 170.735 156.931 170.715C148.646 170.64 140.373 170.555 132.114 170.462C127.681 170.409 123.247 170.309 118.814 170.256C105.117 170.083 91.4211 169.917 77.7248 169.758C76.7858 169.758 75.8534 169.758 74.9144 169.797L42.5114 169.305C41.8407 169.305 41.2035 169.305 41.1699 168.368C41.2504 167.284 41.3913 166.207 41.3913 165.129C41.3913 164.052 41.8138 163.487 42.9608 163.414C46.7907 163.148 50.6205 162.822 54.4571 162.536L68.415 161.499L82.7352 160.435L99.7449 159.158C104.594 158.799 109.444 158.453 114.293 158.088C115.125 158.028 115.635 158.214 115.702 159.185C115.702 159.537 116.111 159.85 116.332 160.202C117.781 160.222 117.828 158.999 118.257 158.107Z" fill="#F7F7F7"/>
<path d="M61.915 170.682C60.9588 170.632 60.0006 170.632 59.0443 170.682C57.8102 170.815 56.4083 170.622 55.637 172.012C55.5297 172.218 54.9998 172.284 54.6644 172.278C52.5852 172.245 50.5059 172.218 48.44 172.058C48.1248 172.058 47.7224 171.393 47.6217 170.941C47.4809 170.376 47.7961 170.07 48.5004 170.07C52.4644 170.07 56.4285 170.004 60.3858 169.977C60.909 169.977 61.4254 170.077 61.9419 170.123L61.915 170.682Z" fill="#DBDBDB"/>
<path d="M118.257 158.107C117.828 158.998 117.781 160.222 116.352 160.222C115.487 158.42 116.178 156.625 116.352 154.823V158.327L118.237 157.662L118.257 158.107Z" fill="#DBDBDB"/>
<path d="M123.918 36.6127C129.605 36.6925 135.293 36.7767 140.981 36.8654C144.509 36.9252 148.037 37.0183 151.565 37.0981C152.316 37.0981 153.034 37.2045 153.047 38.1886C153.061 39.1728 152.377 39.4255 151.558 39.4122L130.497 39.0265C128.378 38.9932 126.265 38.9866 124.146 38.96C124.058 38.295 123.978 37.5636 123.897 36.8654C123.897 36.7856 123.904 36.6991 123.918 36.6127Z" fill="#DBDBDB"/>
<path d="M160.204 118.622C160.312 117.935 160.384 117.242 160.419 116.548C160.419 111.893 160.419 107.238 160.419 102.583H160.888C160.888 104.279 160.888 105.975 160.888 107.677C160.873 108.372 160.943 109.067 161.096 109.745C161.183 110.097 161.592 110.363 161.861 110.669C162.116 110.41 162.391 110.157 162.625 109.878C162.764 109.689 162.889 109.491 163.001 109.286L163.464 109.053C163.531 109.666 163.531 110.283 163.464 110.895C163.317 111.488 163.05 112.045 162.679 112.531C161.679 113.72 161.133 115.219 161.136 116.767L161.378 121.422C161.074 122.245 160.959 123.125 161.04 123.998C161.121 124.87 161.397 125.714 161.847 126.469C162.108 127.105 162.266 127.778 162.317 128.464C162.236 129.009 162.163 129.554 162.082 130.099C160.995 131.822 161.834 133.597 162.082 135.299C162.199 135.783 162.216 136.285 162.132 136.775C162.047 137.266 161.864 137.734 161.592 138.152C161.277 138.525 161.104 138.996 161.104 139.482C161.104 139.968 161.277 140.439 161.592 140.812C162.491 142.109 162.136 143.099 160.566 143.571C160.452 142.448 160.258 141.357 160.244 140.247C160.204 135.353 160.211 130.465 160.197 125.578L160.204 118.622Z" fill="#DBDBDB"/>
<path d="M161.613 17.515C161.563 17.3616 161.53 17.2034 161.513 17.0429C161.206 16.8107 160.851 16.6494 160.473 16.5708C158.562 16.4245 156.643 16.3447 154.725 16.3115C148.46 16.2117 142.196 16.1452 135.945 16.0654H122.255L121.799 16.3248C122.745 16.3248 123.684 16.2782 124.623 16.3248L158.756 16.7969C161.58 16.7969 161.58 16.7969 161.62 19.623L161.801 17.9805L161.613 17.515Z" fill="#DBDBDB"/>
<path d="M159.48 170.502C159.561 168.76 159.641 167.025 159.728 165.282C159.728 164.73 159.815 164.172 159.856 163.62H160.312C160.312 164.903 160.278 166.193 160.312 167.483C160.372 167.969 160.477 168.447 160.627 168.913C160.935 169.898 161.137 170.912 161.231 171.939C161.231 173.269 160.62 173.727 159.218 173.747C158.499 173.773 157.779 173.742 157.065 173.654C158.977 173.488 159.393 172.211 159.487 170.662C159.478 170.609 159.476 170.556 159.48 170.502Z" fill="#DBDBDB"/>
<path d="M164.209 20.4608C164.139 20.3401 164.077 20.2158 164.021 20.0884C163.256 19.9022 162.411 20.0219 161.646 19.8158C161.646 20.1948 161.646 20.5738 161.646 20.9529C161.711 20.9496 161.776 20.9496 161.841 20.9529L164.443 20.7667C164.355 20.6725 164.277 20.57 164.209 20.4608Z" fill="#DBDBDB"/>
<path d="M133.348 148.073C137.668 146.943 142 145.872 146.521 146.178C147.457 146.247 148.384 146.414 149.285 146.677C149.844 146.851 150.354 147.154 150.774 147.561C150.936 147.715 151.062 147.903 151.143 148.111C151.224 148.319 151.258 148.542 151.243 148.765C151.134 148.952 150.984 149.112 150.804 149.234C150.624 149.356 150.419 149.436 150.203 149.47C148.701 149.729 147.111 149.676 145.676 150.135C141.377 151.465 137.138 152.974 132.878 154.41L132.617 154.37L132.355 152.681L133.831 152.016L146.005 148.18L145.897 147.774C141.323 147.648 136.977 148.911 132.61 150.101L131.939 150.181L132.402 148.505L133.348 148.073Z" fill="#DBDBDB"/>
<path d="M130.035 117.438C135.723 117.518 141.437 117.591 147.105 117.691C148.319 117.691 149.533 117.837 150.747 117.904C151.505 117.944 151.914 118.29 151.901 119.068C151.916 119.225 151.894 119.384 151.838 119.532C151.782 119.68 151.693 119.813 151.578 119.922C151.462 120.031 151.323 120.112 151.171 120.16C151.019 120.208 150.858 120.221 150.7 120.198C145.831 120.114 140.966 120.019 136.105 119.912C134.73 119.912 133.355 119.799 131.987 119.799C130.618 119.799 130.296 120.078 130.276 121.535C130.276 121.96 130.276 122.386 130.276 122.818C130.189 121.794 130.109 120.777 130.021 119.753C130.021 119.141 130.021 118.522 130.021 117.911L130.035 117.438Z" fill="#DBDBDB"/>
<path d="M130.504 126.329C131.039 126.44 131.582 126.515 132.127 126.555C137.855 126.648 143.583 126.73 149.311 126.801C149.707 126.801 150.096 126.801 150.492 126.801C150.65 126.786 150.809 126.805 150.959 126.858C151.108 126.911 151.244 126.995 151.357 127.105C151.471 127.215 151.558 127.349 151.614 127.496C151.669 127.644 151.691 127.801 151.679 127.958C151.7 128.115 151.684 128.275 151.631 128.424C151.579 128.574 151.492 128.709 151.377 128.819C151.262 128.929 151.123 129.011 150.97 129.057C150.817 129.104 150.656 129.115 150.498 129.089C147.715 129.089 144.925 129.035 142.141 129.009C138.687 128.969 135.239 128.929 131.785 128.916C131.434 128.946 131.087 129.015 130.752 129.122C130.752 128.969 130.752 128.809 130.752 128.65C130.672 127.985 130.584 127.26 130.504 126.562V126.329Z" fill="#DBDBDB"/>
<path d="M130.498 126.588C130.578 127.287 130.665 127.985 130.746 128.676C130.075 128.743 129.404 128.856 128.767 128.862C128.13 128.869 127.707 128.457 127.701 127.745C127.678 127.6 127.687 127.452 127.729 127.311C127.771 127.17 127.844 127.04 127.943 126.93C128.042 126.821 128.164 126.735 128.301 126.678C128.438 126.621 128.585 126.595 128.734 126.602C129.324 126.568 129.907 126.588 130.498 126.588Z" fill="#DBDBDB"/>
<path d="M130.035 117.931C130.035 118.542 130.035 119.161 130.035 119.772L126.977 119.56C126.99 117.359 127.862 116.893 130.035 117.931Z" fill="#DBDBDB"/>
<path d="M130.753 129.142C130.99 132.174 131.213 135.211 131.423 138.252C131.222 137.759 131.073 137.246 130.981 136.722C130.806 134.575 130.685 132.42 130.578 130.272C130.6 129.891 130.658 129.512 130.753 129.142Z" fill="#DBDBDB"/>
<path d="M126.031 63.7164L150.379 63.9691C150.654 63.9691 150.929 63.9691 151.204 63.9691C152.002 64.009 152.592 64.3082 152.599 65.2059C152.599 66.21 151.868 66.2765 151.123 66.2699C143.75 66.1989 136.372 66.1236 128.989 66.0438C126.145 66.0438 126.118 66.0438 126.259 68.8699C126.373 71.1972 126.561 73.5246 126.715 75.8519C126.522 75.3875 126.381 74.9037 126.293 74.409C126.091 71.6959 125.937 68.9763 125.77 66.2566C125.843 65.4852 125.924 64.7139 125.998 63.9425L126.031 63.7164Z" fill="#DBDBDB"/>
<path d="M127.211 81.9496C129.746 82.0959 132.282 82.3486 134.824 82.3818C139.76 82.4616 144.704 82.415 149.647 82.435C150.271 82.3826 150.899 82.4481 151.498 82.6278C151.716 82.7463 151.902 82.9152 152.039 83.1202C152.177 83.3251 152.263 83.56 152.29 83.8048C152.29 84.1905 151.76 84.6294 151.357 84.8887C151.109 85.0549 150.687 84.9552 150.318 84.9486L140.927 84.7491C137.091 84.6693 133.248 84.5828 129.404 84.5296C127.654 84.5296 127.546 84.6626 127.654 86.4048C127.748 87.9542 127.848 89.5035 127.942 91.0595C127.739 90.6588 127.588 90.2343 127.493 89.7961C127.365 88.0406 127.305 86.2851 127.224 84.523C127.224 83.7583 127.224 82.9936 127.224 82.2222L127.211 81.9496Z" fill="#DBDBDB"/>
<path d="M127.184 82.1956C127.184 82.967 127.184 83.7317 127.184 84.4964H124.354L124.172 84.4498C124.172 84.1838 124.172 83.9112 124.139 83.6452C124.065 82.6478 124.494 82.1291 125.541 82.169C126.104 82.1956 126.647 82.1956 127.184 82.1956Z" fill="#DBDBDB"/>
<path d="M126.018 63.9691C125.944 64.7405 125.863 65.5118 125.789 66.2832L122.959 65.8377H123.898C125.709 65.8377 125.91 65.5517 125.535 63.7563L126.018 63.9691Z" fill="#DBDBDB"/>
<path d="M126.742 76.3241C126.898 78.1993 127.055 80.0745 127.211 81.9497C127.05 80.5 126.882 79.0571 126.742 77.6075C126.701 77.1819 126.742 76.7563 126.742 76.3241Z" fill="#DBDBDB"/>
<path d="M122.757 65.8044V63.7363H125.581C125.272 63.7962 124.97 63.8693 124.655 63.9092C123.065 64.1154 123.045 64.1353 123.005 65.8044H122.757Z" fill="#DBDBDB"/>
<path d="M128.867 100.389C134.132 100.389 139.391 100.389 144.649 100.429C146.662 100.429 148.727 100.568 150.766 100.642C151.578 100.642 152.162 100.928 152.108 101.858C152.054 102.789 151.477 102.969 150.766 102.949C149.425 102.909 148.084 102.769 146.776 102.763C141.41 102.736 136.03 102.736 130.638 102.763C129.021 102.763 128.82 103.035 128.974 104.645C129.062 105.576 129.062 106.513 129.102 107.444C128.934 105.875 128.773 104.306 128.605 102.73C128.686 102.357 128.773 101.978 128.86 101.606L128.867 100.389Z" fill="#DBDBDB"/>
<path d="M128.867 101.579C128.78 101.952 128.693 102.331 128.612 102.703L125.795 102.51C125.359 100.515 125.976 99.7506 127.673 100.296C128.15 100.455 128.458 101.14 128.867 101.579Z" fill="#DBDBDB"/>
<path d="M129.096 107.637C129.324 110.137 129.547 112.64 129.766 115.144C129.84 115.916 129.934 116.687 130.015 117.458C129.793 116.261 129.478 115.078 129.377 113.874C129.223 111.8 129.19 109.718 129.096 107.637Z" fill="#DBDBDB"/>
<path d="M124.656 45.7026H125.481L150.64 45.962C151.103 45.8991 151.575 45.9377 152.021 46.075C152.223 46.1881 152.397 46.3449 152.529 46.5337C152.662 46.7225 152.75 46.9385 152.786 47.1656C152.734 47.3861 152.634 47.593 152.494 47.772C152.354 47.951 152.177 48.098 151.975 48.2029C151.562 48.3285 151.125 48.3558 150.7 48.2827L127.191 48.0433H125.896C125.118 48.0433 124.763 48.4024 124.81 49.207C124.857 50.0116 124.843 50.9159 124.857 51.7671C124.696 50.517 124.535 49.2602 124.367 48.01L124.589 45.7093L124.656 45.7026Z" fill="#DBDBDB"/>
<path d="M124.589 45.7559L124.367 48.0567H121.785C121.718 47.8306 121.631 47.6178 121.584 47.3917C121.315 46.0152 121.543 45.7293 122.925 45.7094C123.502 45.7226 124.045 45.7492 124.589 45.7559Z" fill="#DBDBDB"/>
<path d="M122.261 56.9272C122.168 56.5533 122.143 56.166 122.187 55.7834C122.315 55.3778 122.63 54.7727 122.912 54.7395C123.193 54.7062 123.965 55.1451 123.985 55.4044C123.966 55.9269 123.754 56.4242 123.388 56.8008C123.2 57.007 122.65 56.8806 122.261 56.9072V56.9272Z" fill="#DBDBDB"/>
<path d="M128.15 91.2922C130.833 91.2922 133.469 91.2922 136.132 91.3255C137.225 91.3255 137.668 91.8575 137.473 92.7352C137.279 93.613 136.689 93.6196 136.038 93.6263C134.026 93.6263 131.967 93.6263 129.934 93.6263C128.318 93.6263 128.13 93.8922 128.271 95.5014C128.345 96.3526 128.331 97.2037 128.365 98.0615L127.882 93.5997L128.103 93.3869C128.204 91.9306 129.31 91.904 130.404 91.6779L128.15 91.2922Z" fill="#DBDBDB"/>
<path d="M123.898 36.8654C123.978 37.5303 124.059 38.2618 124.146 38.96L123.911 39.1927V43.1825C123.611 42.3589 123.355 41.5199 123.147 40.6689C122.945 39.6116 122.422 39.093 121.315 39.206C121.535 39.1357 121.759 39.078 121.986 39.0331C123.871 38.7272 123.871 38.7272 123.898 36.8654Z" fill="#DBDBDB"/>
<path d="M123.904 43.1692V39.1794C124.059 41.1743 124.22 43.2357 124.374 45.2638C124.226 44.5723 124.065 43.8674 123.904 43.1692Z" fill="#DBDBDB"/>
<path d="M132.355 152.681L132.616 154.337L126.727 157.143C125.708 157.416 124.876 158.473 123.662 157.861C123.756 157.329 123.843 156.797 123.937 156.272L128.887 153.912L132.355 152.681Z" fill="#DBDBDB"/>
<path d="M132.61 150.135C136.976 148.944 141.33 147.681 145.897 147.807L146.005 148.213L133.831 152.05C132.476 152.016 132.295 151.737 132.61 150.135Z" fill="#DBDBDB"/>
<path d="M128.867 153.918L123.917 156.279C123.877 154.676 124.232 154.284 125.862 154.158L128.867 153.918Z" fill="#DBDBDB"/>
<path d="M163.974 83.5854C162.991 84.4298 162.281 85.5419 161.932 86.7834C161.582 88.0249 161.609 89.3409 162.009 90.5675C162.038 90.7214 162.097 90.8683 162.183 90.9997C164.195 92.8417 163.155 95.2821 163.451 97.4565C163.491 97.7624 163.048 98.1214 162.827 98.4672C162.223 98.0483 160.976 98.4672 160.976 97.2836C160.976 92.4959 161.116 87.7148 161.13 82.9338C161.13 75.3067 161.13 67.6796 161.13 60.0525V46.2878H161.68C161.68 47.5513 161.68 48.8147 161.68 50.0781C161.68 50.497 161.251 51.2817 162.317 51.1686C162.444 51.4278 162.51 51.7118 162.512 51.9998C162.364 53.762 162.129 55.5175 162.035 57.2796C162.035 57.6852 162.391 58.1108 162.585 58.5231C162.988 58.2372 163.598 58.0244 163.746 57.6387C163.96 57.0668 163.853 56.3753 164.021 55.7436C164.021 57.2996 164.591 58.8755 163.531 60.3983C163.231 61.0306 163.101 61.7295 163.155 62.4264C163.102 64.1154 162.84 65.8243 163.638 67.4535C163.711 67.8168 163.644 68.1938 163.451 68.5108C163.228 68.8782 162.969 69.2234 162.679 69.5415C161.224 71.4632 161.217 71.5364 162.431 73.5312C161.244 74.143 161.177 74.4422 162.042 75.6458L163.236 74.7681L163.954 83.5987L163.974 83.5854Z" fill="#DBDBDB"/>
<path d="M164.021 52.0663C163.692 50.3773 163.35 48.695 163.041 46.9993C162.854 45.9952 162.719 45.0044 162.579 43.9605C162.532 43.7412 162.532 43.5148 162.579 43.2955C162.841 42.2386 162.742 41.1252 162.297 40.1303C162.049 39.4653 162.25 38.5942 162.25 37.8162L162.538 37.7697L163.209 39.0996L164.235 37.6965V52.1129L164.021 52.0663Z" fill="#DBDBDB"/>
<path d="M161.378 121.428L161.137 116.774C161.488 116.675 161.824 116.529 162.136 116.341C162.693 115.896 162.975 116.082 163.136 116.667C163.491 117.924 162.485 120.637 161.378 121.428Z" fill="#DBDBDB"/>
<path d="M163.491 109.047L163.028 109.28C163.028 109.127 163.089 108.934 163.028 108.821C161.479 106.414 163.303 103.96 162.941 101.506C162.941 101.333 163.122 101.12 163.505 100.968L163.491 109.047Z" fill="#DBDBDB"/>
<path d="M162.713 145.56C163.383 147.395 163.122 148.299 161.747 148.685C161.348 148.72 160.947 148.686 160.56 148.585C160.66 148.007 160.56 147.302 160.902 146.883C161.441 146.361 162.05 145.915 162.713 145.56Z" fill="#DBDBDB"/>
<path d="M147.427 171.247C148.453 171.247 149.312 171.247 150.157 171.247C150.284 171.266 150.405 171.315 150.508 171.392C150.611 171.469 150.693 171.57 150.747 171.686C150.794 171.865 150.586 172.171 150.405 172.351C149.117 173.468 148.876 173.382 147.427 171.247Z" fill="#DBDBDB"/>
<path d="M153.746 171.52L155.355 173.734C155.007 173.681 154.242 173.734 154.014 173.468C153.724 172.851 153.538 172.19 153.464 171.513L153.746 171.52Z" fill="#DBDBDB"/>
<path d="M163.297 122.412C163.129 123.077 162.961 123.742 162.787 124.407L162.411 124.314C162.284 123.974 162.251 123.606 162.315 123.248C162.378 122.891 162.537 122.556 162.773 122.279L163.297 122.412Z" fill="#DBDBDB"/>
<path d="M162.082 130.073C162.163 129.528 162.236 128.982 162.317 128.437L162.417 129.102L162.686 129.301L162.874 128.51C163.222 129.494 163.182 130.166 162.082 130.073Z" fill="#DBDBDB"/>
<path d="M92.4537 172.198L88.208 171.779C89.2208 170.688 91.0452 170.855 92.5141 171.852L92.4537 172.198Z" fill="#DBDBDB"/>
<path d="M126.729 157.163L132.618 154.357L132.879 154.397C132.779 156.638 132.691 156.731 130.471 156.897C129.224 156.997 127.976 157.077 126.729 157.163Z" fill="#DBDBDB"/>
<path d="M122.973 65.8177C123.013 64.1486 123.033 64.1287 124.623 63.9225C124.938 63.8826 125.24 63.8095 125.548 63.7496C125.937 65.545 125.723 65.8177 123.912 65.831L122.973 65.8177Z" fill="#DBDBDB"/>
<path d="M132.892 161.326H151.673V140.712H131.551L132.892 161.326Z" fill="#F7F7F7"/>
<path d="M133.426 156.285L106.68 158.381L106.891 161.033L133.637 158.937L133.426 156.285Z" fill="#F7F7F7"/>
<g clip-path="url(#clip1_7612_103372)">
<path d="M138.662 146.098L131.955 154.038L127.593 150.426L126.158 152.125L132.235 157.17L140.376 147.532L138.662 146.098ZM132.986 140.371C126.823 140.912 122.264 146.309 122.809 152.419C123.354 158.529 128.799 163.049 134.961 162.508C141.124 161.968 145.684 156.57 145.138 150.461C144.593 144.351 139.149 139.831 132.986 140.371ZM134.764 160.295C129.829 160.728 125.479 157.116 125.042 152.223C124.605 147.331 128.249 143.018 133.184 142.585C138.118 142.152 142.469 145.764 142.906 150.656C143.342 155.549 139.699 159.862 134.764 160.295Z" fill="#8DAF00"/>
<path d="M129.452 153.605L128.111 139.309L117.379 154.27L129.452 153.605Z" fill="white"/>
</g>
<path d="M43.9325 171.892C44.7374 172.158 47.398 172.446 48.6276 172.557L49.6337 170.895L41.585 169.232C42.0321 170.008 43.1276 171.626 43.9325 171.892Z" fill="#DBDBDB"/>
<path d="M106.99 130.584L100.283 138.524L95.9215 134.913L94.4866 136.612L100.563 141.656L108.704 132.018L106.99 130.584ZM101.314 124.858C95.1512 125.398 90.5919 130.796 91.1371 136.905C91.6823 143.015 97.1266 147.535 103.29 146.995C109.453 146.454 114.012 141.057 113.467 134.947C112.921 128.837 107.477 124.317 101.314 124.858ZM103.092 144.781C98.1572 145.214 93.8066 141.602 93.3701 136.71C92.9335 131.817 96.5769 127.504 101.512 127.071C106.447 126.638 110.797 130.251 111.234 135.143C111.67 140.035 108.027 144.348 103.092 144.781Z" fill="#A6CF00"/>
</g>
<defs>
<clipPath id="clip0_7612_103372">
<rect width="165" height="174" fill="white"/>
</clipPath>
<clipPath id="clip1_7612_103372">
<rect width="26.8982" height="26.6703" fill="white" transform="matrix(0.996176 -0.0873705 0.0888819 0.996042 119.391 139.332)"/>
</clipPath>
</defs>
</svg>
