<svg width="64" height="64" viewBox="0 0 64 64" fill="none" xmlns="http://www.w3.org/2000/svg">
<path d="M6 12.7999L53.1059 0.304688L56.7765 28.3428L54.3294 28.9523L53.7176 21.0285L6 12.7999Z" fill="url(#paint0_linear_13663_147813)"/>
<path d="M53.7176 21.0286L6 12.8L11.5059 40.2286L57.6941 49.0667L53.7176 21.0286Z" fill="url(#paint1_linear_13663_147813)"/>
<path d="M6.61182 36.2667L53.7177 21.0286L57.6942 49.0667L14.5648 64L6.61182 36.2667Z" fill="url(#paint2_linear_13663_147813)"/>
<path d="M14.4692 42.9714V20.8069H30.5019V25.6553H20.5086V29.4649H29.6763V34.3134H20.5086V38.1229H30.4584V42.9714H14.4692ZM41.1389 42.9714H32.5796V20.8069H41.0521C43.3404 20.8069 45.3175 21.2506 46.983 22.138C48.6558 23.0182 49.9448 24.2881 50.85 25.9475C51.7624 27.5998 52.2185 29.5803 52.2185 31.8891C52.2185 34.1979 51.766 36.1821 50.8609 37.8415C49.9556 39.4937 48.6739 40.7635 47.0156 41.651C45.3573 42.5312 43.3982 42.9714 41.1389 42.9714ZM38.6188 37.8631H40.9218C42.0225 37.8631 42.9603 37.6864 43.7352 37.3328C44.5173 36.9793 45.111 36.3696 45.5165 35.5038C45.9293 34.638 46.1357 33.4331 46.1357 31.8891C46.1357 30.3451 45.9257 29.1402 45.5057 28.2744C45.093 27.4086 44.4845 26.7989 43.6807 26.4454C42.8841 26.0919 41.9066 25.9151 40.748 25.9151H38.6188V37.8631Z" fill="white"/>
<defs>
<linearGradient id="paint0_linear_13663_147813" x1="-13.6079" y1="21.5484" x2="61.0588" y2="21.5484" gradientUnits="userSpaceOnUse">
<stop stop-color="#1E4C9B"/>
<stop offset="0.885417" stop-color="#C11E25"/>
</linearGradient>
<linearGradient id="paint1_linear_13663_147813" x1="-1.64706" y1="27.1239" x2="59.5168" y2="37.5599" gradientUnits="userSpaceOnUse">
<stop stop-color="#3A7CF5"/>
<stop offset="1" stop-color="#070615"/>
</linearGradient>
<linearGradient id="paint2_linear_13663_147813" x1="3.553" y1="64.9143" x2="59.4406" y2="35.4884" gradientUnits="userSpaceOnUse">
<stop stop-color="#C21F26"/>
<stop offset="1" stop-color="#3C76EC"/>
</linearGradient>
</defs>
</svg>
