<svg width="24" height="24" viewBox="0 0 24 24" fill="none" xmlns="http://www.w3.org/2000/svg">
<mask id="mask0_10789_153130" style="mask-type:alpha" maskUnits="userSpaceOnUse" x="0" y="0" width="24" height="24">
<rect width="24" height="24" fill="#D9D9D9"/>
</mask>
<g mask="url(#mask0_10789_153130)">
<path d="M12 16.4C13.9125 14.7133 15.1406 13.5261 15.6844 12.8382C16.2281 12.1511 16.5 11.4683 16.5 10.79C16.5 10.13 16.2563 9.56167 15.7688 9.085C15.2812 8.60833 14.7 8.37 14.025 8.37C13.6313 8.37 13.2517 8.44773 12.8865 8.6032C12.5205 8.7594 12.225 8.975 12 9.25C11.775 8.975 11.4844 8.7594 11.1281 8.6032C10.7719 8.44773 10.3875 8.37 9.975 8.37C9.3 8.37 8.71875 8.60833 8.23125 9.085C7.74375 9.56167 7.5 10.13 7.5 10.79C7.5 11.1383 7.54688 11.4592 7.64062 11.7525C7.73438 12.0458 7.94063 12.3894 8.25938 12.7832C8.57812 13.1777 9.03263 13.6592 9.62288 14.2275C10.2139 14.7958 11.0063 15.52 12 16.4ZM12 23C9.39375 22.3583 7.24237 20.8961 5.54588 18.6132C3.84863 16.3311 3 13.7967 3 11.01V4.3L12 1L21 4.3V11.01C21 13.7967 20.1518 16.3311 18.4553 18.6132C16.758 20.8961 14.6062 22.3583 12 23ZM12 20.69C13.95 20.085 15.5625 18.875 16.8375 17.06C18.1125 15.245 18.75 13.2283 18.75 11.01V5.8125L12 3.3375L5.25 5.8125V11.01C5.25 13.2283 5.8875 15.245 7.1625 17.06C8.4375 18.875 10.05 20.085 12 20.69Z" fill="white"/>
</g>
</svg>
