<svg width="185" height="26" viewBox="0 0 185 26" fill="none" xmlns="http://www.w3.org/2000/svg">
<path d="M28.4831 0.325133L23.0803 25.4619H17.0696L15.4078 16.2917C14.992 13.9503 14.6407 11.3813 14.321 8.35706H14.2566C13.8098 11.3488 13.4261 13.8854 12.9138 16.3244L11.0279 25.4619H5.08223L0 0.325133H5.97783L7.38432 10.1457C7.80029 13.0722 8.151 16.1937 8.50306 18.9583H8.56697C8.95034 16.064 9.5253 13.1377 10.0695 10.0805L11.8592 0.325133H17.2937L18.9555 10.2757C19.4358 13.1704 19.8185 15.8697 20.1391 18.893H20.2344C20.5551 15.8697 20.9377 13.0397 21.386 10.0805L22.8567 0.325133H28.4831" fill="#5C666D"/>
<path d="M31.2285 0.325133H36.8543V25.4619H31.2285V0.325133Z" fill="#5C666D"/>
<path d="M53.828 5.82114C52.9324 5.36549 51.462 4.78007 49.4803 4.78007C47.3068 4.78007 46.2527 5.85293 46.2527 7.08896C46.2527 8.48793 47.275 9.17033 50.2794 10.5683C54.2116 12.3566 55.8419 14.8286 55.8419 17.9501C55.8419 22.5356 52.4213 25.7866 46.4437 25.7866C43.9504 25.7866 41.4888 25.1367 40.3369 24.4861L41.2971 19.6736C42.6075 20.356 44.6855 20.9746 46.6673 20.9746C49.0335 20.9746 50.1836 19.9336 50.1836 18.4378C50.1836 16.9095 49.0643 16.064 46.5076 14.8938C42.6075 13.0722 40.5939 10.6008 40.5939 7.60955C40.5939 3.34931 43.7906 -0.00011645 49.5122 -0.00011645C51.8777 -0.00011645 53.7005 0.520061 54.8824 1.10542L53.828 5.82114" fill="#5C666D"/>
<path d="M73.1657 25.4619H59.1318V0.325133H72.6862V5.10603H64.7577V10.1457H72.2714V14.8287H64.7577V20.6817H73.1657V25.4619" fill="#5C666D"/>
<path d="M86.9418 15.2836L85.8559 10.2439C85.5364 8.7477 85.1204 6.50357 84.8003 4.97507H84.7378C84.4171 6.50357 84.0012 8.81247 83.7144 10.2439L82.5952 15.2836H86.9418ZM94.8709 25.4619H89.0523L87.6141 19.6089H81.9235L80.5811 25.4619H74.8916L81.4118 0.325133H88.5412L94.8709 25.4619" fill="#5C666D"/>
<path d="M103.467 21.0715C103.819 21.137 104.361 21.137 104.809 21.137C108.486 21.1692 111.106 18.6654 111.106 12.4546C111.106 7.21855 108.74 4.61772 105.193 4.61772C104.393 4.61772 103.85 4.68225 103.467 4.77994V21.0715ZM97.8721 0.682866C99.5672 0.389916 101.9 0.162925 104.361 0.162925C108.453 0.162925 111.138 0.975579 113.216 2.63428C115.614 4.61772 116.989 7.80445 116.989 12.4222C116.989 17.7877 115.165 21.0715 113.12 22.8602C110.915 24.7782 107.558 25.6895 103.274 25.6895C100.877 25.6895 99.0549 25.494 97.8721 25.3317V0.682866" fill="#5C666D"/>
<path d="M138.724 0.325133L131.627 25.4619H125.138L118.265 0.357578H124.466L126.801 10.8283C127.44 13.6583 128.047 16.5522 128.527 19.5757H128.621C129.07 16.5844 129.677 13.6583 130.316 10.8283L132.65 0.325133H138.724" fill="#5C666D"/>
<path d="M185 25.4619H170.966V0.325133H184.521V5.10603H176.593V10.1457H184.104V14.8287H176.593V20.6817H185V25.4619" fill="#5C666D"/>
<path d="M144.172 0.325133H141.054V25.4619H144.172V0.325133Z" fill="#C11E25"/>
<path d="M145.671 0.325133V25.4619H148.789V0.325133H145.671Z" fill="#C11E25"/>
<path fill-rule="evenodd" clip-rule="evenodd" d="M167.917 21.7581L162.607 21.7291L162.173 21.6803L161.744 21.6106L161.314 21.5264L160.889 21.422L160.476 21.3019L160.059 21.1597L159.653 21.0007L159.252 20.8229L158.862 20.6314L158.486 20.4141L158.117 20.1887L157.753 19.9424L157.405 19.6748L157.07 19.3979L156.754 19.0961L156.443 18.7812L156.153 18.4534L155.875 18.1073L155.614 17.7432L155.38 17.3652L155.154 16.9683L154.956 16.5582L154.773 16.1346L154.616 15.6919L154.477 15.2381L154.362 14.7632L154.273 14.2819L154.204 13.7821L154.161 13.2689L154.154 12.7392L154.161 12.2134L154.196 11.6984L154.26 11.2084L154.346 10.7209L154.457 10.2525L154.589 9.8008L154.743 9.35888L154.921 8.93758L155.119 8.52554L155.334 8.13514L155.57 7.75865L155.825 7.39469L156.098 7.04814L156.384 6.72085L156.686 6.40591L157.001 6.10179L157.337 5.8212L157.682 5.5566L158.039 5.31332L158.409 5.07611L158.79 4.85952L159.181 4.66759L159.585 4.48909L159.991 4.32425L160.407 4.17641L160.833 4.0562L161.263 3.94846L161.697 3.85862L162.137 3.7825L162.581 3.73193L167.911 3.70127H167.917V0.377156L167.706 0.381555L162.184 0.426122L161.549 0.501527L160.924 0.603672L160.313 0.736421L159.713 0.898939L159.124 1.08184L158.552 1.29885L157.992 1.53261L157.45 1.80073L156.92 2.08666L156.407 2.40237L155.914 2.74214L155.438 3.09659L154.98 3.47939L154.541 3.88185L154.126 4.30595L153.732 4.7481L153.353 5.21165L153.005 5.69285L152.679 6.19514L152.378 6.71229L152.1 7.24477L151.849 7.80345L151.621 8.36915L151.423 8.95315L151.257 9.55479L151.118 10.1641L151.003 10.7896L150.923 11.4249L150.874 12.0769L150.864 12.7392L150.879 13.4003L150.926 14.0532L151.014 14.6913L151.13 15.3124L151.278 15.924L151.452 16.5218L151.662 17.1085L151.893 17.6742L152.156 18.2253L152.447 18.7631L152.756 19.2802L153.093 19.7769L153.454 20.2574L153.835 20.7177L154.247 21.1597L154.666 21.584L155.113 21.9839L155.576 22.3639L156.055 22.7186L156.553 23.0551L157.067 23.368L157.595 23.6558L158.141 23.9216L158.693 24.1551L159.26 24.3689L159.841 24.556L160.425 24.712L161.025 24.8441L161.628 24.9466L162.241 25.0244L167.739 25.0662L167.917 25.0718V21.7581" fill="#C11E25"/>
<path fill-rule="evenodd" clip-rule="evenodd" d="M167.722 16.5107H167.717L162.631 16.4836L162.427 16.4441L162.23 16.4021L162.035 16.3457L161.842 16.2884L161.656 16.2153L161.472 16.1438L161.298 16.0568L161.132 15.9636L160.963 15.8667L160.807 15.761L160.655 15.6503L160.508 15.5273L160.372 15.4045L160.237 15.2685L160.118 15.1329L160 14.9862L159.893 14.8295L159.792 14.6706L159.698 14.5044L159.61 14.3328L159.532 14.1529L159.47 13.9721L159.415 13.7822L159.367 13.5842L159.331 13.383L159.306 13.1725L159.287 12.9554L159.284 12.7394L159.287 12.5193L159.306 12.306L159.331 12.1017L159.367 11.894L159.415 11.6985L159.47 11.5093L159.532 11.3285L159.61 11.1458L159.698 10.9767L159.792 10.8118L159.893 10.6494L160 10.4962L160.118 10.3539L160.237 10.2107L160.372 10.0746L160.508 9.94606L160.655 9.83441L160.807 9.71996L160.963 9.61413L161.132 9.5127L161.298 9.41941L161.472 9.34067L161.656 9.26223L161.842 9.19354L162.035 9.13293L162.23 9.08581L162.427 9.0378L162.631 9.00155L167.717 8.96863L167.722 8.96768V5.64309L167.587 5.65355L162.327 5.70085L161.951 5.76449L161.585 5.84596L161.229 5.9481L160.881 6.066L160.54 6.1953L160.207 6.33874L159.884 6.50447L159.571 6.67947L159.263 6.86843L158.971 7.07617L158.693 7.28949L158.421 7.51553L158.165 7.7588L157.918 8.00879L157.682 8.27274L157.463 8.54662L157.256 8.82703L157.061 9.12158L156.883 9.41941L156.721 9.73137L156.573 10.0482L156.44 10.3752L156.322 10.7035L156.224 11.0405L156.141 11.3854L156.075 11.729L156.029 12.0836L156.002 12.4378L155.991 12.7999L156.002 13.1725L156.029 13.539L156.074 13.9036L156.141 14.2553L156.221 14.604L156.317 14.9373L156.425 15.2685L156.558 15.5937L156.701 15.9091L156.859 16.2153L157.026 16.5107L157.217 16.796L157.416 17.0757L157.625 17.3406L157.851 17.5994L158.085 17.8403L158.336 18.0722L158.589 18.2941L158.858 18.4988L159.137 18.6938L159.423 18.8739L159.722 19.0401L160.024 19.1929L160.334 19.3317L160.655 19.4584L160.98 19.5661L161.314 19.6599L161.652 19.7318L161.992 19.7922L162.344 19.8344L167.581 19.8586L167.722 19.8623V16.5107" fill="#C11E25"/>
</svg>
