<svg width="120" height="17" viewBox="0 0 120 17" fill="none" xmlns="http://www.w3.org/2000/svg">
  <path d="M18.4755 0.214375L14.971 16.7859H11.0722L9.99425 10.7404C9.72455 9.19682 9.49664 7.50317 9.28927 5.50945H9.24755C8.95773 7.48174 8.70879 9.154 8.3765 10.762L7.15322 16.7859H3.29658L0 0.214375H3.87751L4.78983 6.68863C5.05964 8.61795 5.28713 10.6758 5.5155 12.4983H5.55695C5.80562 10.5903 6.17857 8.66112 6.53159 6.64561L7.69243 0.214375H11.2175L12.2955 6.77434C12.607 8.68266 12.8552 10.4622 13.0632 12.4553H13.125C13.333 10.4622 13.5812 8.59652 13.872 6.64561L14.8259 0.214375H18.4755Z" fill="#A9B0BC"/>
  <path d="M20.2559 0.214375H23.905V16.7859H20.2559V0.214375Z" fill="#A9B0BC"/>
  <path d="M34.915 3.83768C34.3341 3.5373 33.3803 3.15135 32.0949 3.15135C30.6851 3.15135 30.0013 3.85864 30.0013 4.6735C30.0013 5.59577 30.6644 6.04565 32.6132 6.9673C35.1639 8.1462 36.2214 9.77592 36.2214 11.8338C36.2214 14.8567 34.0026 17 30.1252 17C28.5079 17 26.9112 16.5715 26.1641 16.1426L26.7869 12.97C27.6369 13.4198 28.9848 13.8276 30.2702 13.8276C31.8051 13.8276 32.5511 13.1414 32.5511 12.1553C32.5511 11.1478 31.8251 10.5903 30.1667 9.81889C27.6369 8.61797 26.3307 6.98872 26.3307 5.0167C26.3307 2.20812 28.4043 -3.97358e-09 32.1156 -3.97358e-09C33.65 -3.97358e-09 34.8323 0.342929 35.599 0.728832L34.915 3.83768Z" fill="#A9B0BC"/>
  <path d="M47.4595 16.7859H38.3564V0.214375H47.1484V3.3662H42.0056V6.68863H46.8794V9.77589H42.0056V13.6345H47.4595V16.7859Z" fill="#A9B0BC"/>
  <path d="M56.3945 10.0758L55.6901 6.75334C55.4828 5.76698 55.213 4.28753 55.0054 3.27986H54.9649C54.7569 4.28753 54.4871 5.80968 54.301 6.75334L53.5751 10.0758H56.3945ZM61.5377 16.7859H57.7634L56.8306 12.9272H53.1393L52.2686 16.7859H48.5781L52.8074 0.214375H57.4319L61.5377 16.7859Z" fill="#A9B0BC"/>
  <path d="M67.1135 13.8915C67.3416 13.9347 67.6936 13.9347 67.9838 13.9347C70.369 13.9559 72.0687 12.3053 72.0687 8.2108C72.0687 4.7589 70.5338 3.04429 68.2331 3.04429C67.7144 3.04429 67.362 3.08683 67.1135 3.15124V13.8915ZM63.4844 0.450228C64.5839 0.257099 66.0973 0.107455 67.6936 0.107455C70.3474 0.107455 72.0896 0.6432 73.4369 1.7367C74.9927 3.04429 75.8843 5.14516 75.8843 8.18941C75.8843 11.7267 74.7017 13.8915 73.3748 15.0707C71.9445 16.3351 69.7673 16.9359 66.9884 16.9359C65.4334 16.9359 64.2516 16.8071 63.4844 16.7001V0.450228Z" fill="#A9B0BC"/>
  <path d="M89.9829 0.214375L85.3793 16.7859H81.1701L76.7119 0.235765H80.7347L82.2488 7.13866C82.6633 9.00432 83.057 10.9121 83.3684 12.9053H83.4298C83.7208 10.9334 84.1145 9.00432 84.529 7.13866L86.0431 0.214375H89.9829Z" fill="#A9B0BC"/>
  <path d="M120 16.7859H110.896V0.214375H119.689V3.3662H114.546V6.68863H119.419V9.77589H114.546V13.6345H120V16.7859Z" fill="#A9B0BC"/>
  <path d="M93.5167 0.214375H91.4941V16.7859H93.5167V0.214375Z" fill="#A9B0BC"/>
  <path d="M94.4893 0.214375V16.7859H96.5118V0.214375H94.4893Z" fill="#A9B0BC"/>
  <path fill-rule="evenodd" clip-rule="evenodd" d="M108.92 14.344L105.475 14.3249L105.194 14.2927L104.915 14.2468L104.637 14.1913L104.361 14.1224L104.093 14.0433L103.822 13.9495L103.559 13.8447L103.299 13.7275L103.046 13.6012L102.802 13.458L102.563 13.3094L102.327 13.147L102.101 12.9706L101.883 12.788L101.678 12.5891L101.477 12.3814L101.289 12.1654L101.109 11.9372L100.94 11.6972L100.787 11.448L100.641 11.1863L100.513 10.9159L100.394 10.6367L100.292 10.3449L100.202 10.0457L100.127 9.73262L100.07 9.41527L100.025 9.08577L99.9969 8.74747L99.9924 8.39827L99.9969 8.05166L100.019 7.7121L100.061 7.38907L100.117 7.06772L100.189 6.75892L100.275 6.46111L100.374 6.16978L100.49 5.89203L100.618 5.6204L100.758 5.36303L100.911 5.11482L101.076 4.87488L101.253 4.64642L101.439 4.43065L101.635 4.22302L101.839 4.02253L102.057 3.83755L102.281 3.66311L102.512 3.50273L102.752 3.34635L102.999 3.20356L103.253 3.07703L103.515 2.95935L103.779 2.85068L104.049 2.75321L104.325 2.67396L104.604 2.60294L104.885 2.54371L105.17 2.49353L105.458 2.46019L108.916 2.43998H108.92V0.248543L108.783 0.251443L105.201 0.280824L104.789 0.330535L104.384 0.397875L103.987 0.48539L103.598 0.59253L103.216 0.713108L102.845 0.856171L102.482 1.01028L102.131 1.18704L101.786 1.37554L101.453 1.58367L101.134 1.80767L100.825 2.04134L100.528 2.2937L100.244 2.55903L99.9742 2.83861L99.7188 3.13011L99.4729 3.4357L99.2467 3.75294L99.0356 4.08407L98.8401 4.425L98.6598 4.77604L98.4968 5.14436L98.3491 5.51729L98.221 5.9023L98.1134 6.29893L98.0232 6.70062L97.9486 7.11301L97.8967 7.53182L97.8648 7.96167L97.8584 8.39827L97.8679 8.83408L97.8982 9.26453L97.9558 9.68518L98.0308 10.0947L98.127 10.4979L98.24 10.8919L98.3756 11.2788L98.5256 11.6517L98.6965 12.015L98.8848 12.3695L99.0853 12.7105L99.3043 13.0379L99.5381 13.3547L99.7855 13.6581L100.053 13.9495L100.325 14.2292L100.614 14.4929L100.915 14.7434L101.225 14.9772L101.548 15.1991L101.882 15.4054L102.224 15.5951L102.578 15.7703L102.936 15.9243L103.304 16.0652L103.681 16.1885L104.06 16.2914L104.449 16.3784L104.84 16.4461L105.238 16.4973L108.804 16.5249L108.92 16.5286V14.344Z" fill="#A9B0BC"/>
  <path fill-rule="evenodd" clip-rule="evenodd" d="M108.793 10.8847H108.79L105.491 10.8668L105.358 10.8408L105.23 10.8131L105.104 10.7759L104.979 10.7381L104.858 10.6899L104.739 10.6428L104.626 10.5854L104.518 10.524L104.409 10.4601L104.307 10.3904L104.209 10.3175L104.113 10.2364L104.025 10.1554L103.937 10.0657L103.86 9.97638L103.784 9.87966L103.715 9.77635L103.649 9.67156L103.588 9.562L103.531 9.4489L103.48 9.33032L103.44 9.21111L103.404 9.08591L103.373 8.95539L103.35 8.82274L103.333 8.68395L103.322 8.54084L103.319 8.39841L103.322 8.25331L103.333 8.11271L103.35 7.97803L103.373 7.84108L103.404 7.71224L103.44 7.58751L103.48 7.4683L103.531 7.34788L103.588 7.23635L103.649 7.12768L103.715 7.02058L103.784 6.91959L103.86 6.82577L103.937 6.73136L104.025 6.64169L104.113 6.55692L104.209 6.48331L104.307 6.40786L104.409 6.33809L104.518 6.27122L104.626 6.20972L104.739 6.15781L104.858 6.1061L104.979 6.06082L105.104 6.02086L105.23 5.98979L105.358 5.95814L105.491 5.93424L108.79 5.91254L108.793 5.91192V3.72017L108.705 3.72706L105.293 3.75825L105.05 3.8002L104.812 3.85391L104.581 3.92125L104.355 3.99897L104.134 4.08421L103.918 4.17878L103.709 4.28804L103.506 4.4034L103.306 4.52798L103.116 4.66493L102.936 4.80556L102.76 4.95458L102.593 5.11496L102.434 5.27977L102.28 5.45378L102.138 5.63433L102.004 5.81919L101.878 6.01338L101.762 6.20972L101.657 6.41538L101.561 6.62426L101.475 6.83983L101.398 7.05623L101.334 7.27842L101.281 7.50579L101.238 7.7323L101.208 7.96608L101.191 8.1996L101.184 8.43833L101.191 8.68395L101.208 8.92557L101.237 9.16595L101.281 9.39778L101.332 9.62765L101.395 9.84738L101.465 10.0657L101.552 10.2801L101.644 10.4881L101.747 10.6899L101.855 10.8847L101.979 11.0728L102.108 11.2572L102.243 11.4318L102.39 11.6024L102.542 11.7612L102.705 11.9141L102.869 12.0604L103.043 12.1954L103.224 12.3239L103.41 12.4427L103.604 12.5522L103.8 12.6529L104 12.7444L104.209 12.828L104.42 12.899L104.637 12.9608L104.856 13.0082L105.076 13.048L105.304 13.0759L108.701 13.0918L108.793 13.0942V10.8847Z" fill="#A9B0BC"/>
</svg>
