<svg width="278" height="192" viewBox="0 0 278 192" fill="none" xmlns="http://www.w3.org/2000/svg">
<path d="M64.7337 31.5706L11.1152 67.4883L63.9272 146.554L117.546 110.636L64.7337 31.5706Z" fill="#FDFDFD"/>
<path d="M89.8365 106.893L89.2296 110.664L62.5742 106.816L63.1811 103.045L89.8365 106.893Z" fill="#E1E1E1"/>
<path d="M76.4131 93.4395L80.2361 93.9898L75.9974 120.272L72.1697 119.717L76.4131 93.4395Z" fill="#E1E1E1"/>
<path d="M51.8606 60.0378C51.8989 60.0952 46.5277 63.7609 39.8614 68.2259C33.1952 72.6908 27.7618 76.2656 27.7236 76.2081C27.6854 76.1507 33.0566 72.485 39.7228 68.0201C46.3891 63.5504 51.8224 59.9804 51.8606 60.0378Z" fill="#E1E1E1"/>
<path d="M71.5819 55.0785C71.6201 55.136 62.684 61.1897 51.6262 68.5929C40.5635 76.0009 31.5701 81.9589 31.5319 81.9015C31.4936 81.8441 40.425 75.7952 51.4876 68.3823C62.5454 60.9791 71.5437 55.0211 71.5819 55.0785Z" fill="#E1E1E1"/>
<path d="M75.5338 60.9946C75.572 61.052 66.6359 67.1057 55.5781 74.5089C44.5154 81.917 35.522 87.875 35.4838 87.8175C35.4455 87.7601 44.3769 81.7112 55.4395 74.2984C66.4973 66.8999 75.4956 60.9371 75.5338 60.9946Z" fill="#E1E1E1"/>
<path d="M79.4859 66.9145C79.5242 66.9719 70.5881 73.0256 59.5302 80.4289C48.4676 87.8369 39.4741 93.7949 39.4359 93.7374C39.3977 93.68 48.329 87.6311 59.3916 80.2183C70.4495 72.8151 79.4477 66.857 79.4859 66.9145Z" fill="#E1E1E1"/>
<path d="M83.4378 72.8344C83.4761 72.8918 74.54 78.9455 63.4821 86.3488C52.4195 93.7568 43.426 99.7148 43.3878 99.6574C43.3496 99.5999 52.2809 93.551 63.3435 86.1382C74.4014 78.735 83.3996 72.777 83.4378 72.8344Z" fill="#E1E1E1"/>
<path d="M223.153 86.57L182.712 113.66L222.543 173.292L262.984 146.202L223.153 86.57Z" fill="#FDFDFD"/>
<path d="M242.086 143.389L241.627 146.234L221.526 143.333L221.981 140.488L242.086 143.389Z" fill="#E1E1E1"/>
<path d="M231.962 133.242L234.846 133.659L231.649 153.48L228.761 153.063L231.962 133.242Z" fill="#E1E1E1"/>
<path d="M213.444 108.05C213.478 108.101 209.432 110.873 204.402 114.238C199.372 117.608 195.269 120.294 195.235 120.242C195.201 120.191 199.248 117.419 204.277 114.049C209.307 110.684 213.41 107.998 213.444 108.05Z" fill="#E1E1E1"/>
<path d="M228.315 104.309C228.349 104.361 221.615 108.933 213.273 114.52C204.93 120.107 198.141 124.594 198.106 124.543C198.072 124.491 204.805 119.923 213.148 114.331C221.491 108.744 228.28 104.257 228.315 104.309Z" fill="#E1E1E1"/>
<path d="M231.297 108.772C231.331 108.823 224.598 113.396 216.255 118.983C207.912 124.57 201.123 129.057 201.089 129.006C201.054 128.954 207.788 124.385 216.131 118.794C224.473 113.211 231.263 108.725 231.297 108.772Z" fill="#E1E1E1"/>
<path d="M234.28 113.237C234.314 113.288 227.581 117.861 219.238 123.448C210.895 129.035 204.106 133.522 204.071 133.47C204.037 133.419 210.771 128.85 219.113 123.259C227.452 117.672 234.245 113.185 234.28 113.237Z" fill="#E1E1E1"/>
<path d="M237.258 117.702C237.292 117.753 230.559 122.326 222.216 127.913C213.874 133.5 207.084 137.987 207.05 137.935C207.016 137.884 213.749 133.315 222.092 127.724C230.435 122.137 237.224 117.65 237.258 117.702Z" fill="#E1E1E1"/>
<path d="M172.906 37.9887L121.096 10.2402L80.2964 86.6382L132.106 114.387L172.906 37.9887Z" fill="white"/>
<path d="M124.953 86.1934L121.668 87.3187L113.323 64.2222L116.608 63.0918L124.953 86.1934Z" fill="#E1E1E1"/>
<path d="M129.992 69.6211L131.191 72.9365L108.284 80.7934L107.085 77.4781L129.992 69.6211Z" fill="#E1E1E1"/>
<path d="M144.551 39.8358C144.511 39.9115 139.255 37.1765 132.815 33.7249C126.371 30.2732 121.186 27.4171 121.226 27.3414C121.266 27.2657 126.522 30.0007 132.962 33.4524C139.406 36.904 144.592 39.7601 144.551 39.8358Z" fill="#E1E1E1"/>
<path d="M156.987 53.5832C156.947 53.6589 148.25 49.082 137.567 43.3595C126.879 37.6371 118.248 32.934 118.288 32.8583C118.328 32.7827 127.026 37.3596 137.713 43.087C148.396 48.8044 157.028 53.5075 156.987 53.5832Z" fill="#E1E1E1"/>
<path d="M153.934 59.3C153.894 59.3757 145.196 54.7988 134.514 49.0763C123.826 43.3539 115.194 38.6508 115.235 38.5751C115.275 38.4995 123.972 43.0764 134.66 48.8038C145.342 54.5212 153.974 59.2243 153.934 59.3Z" fill="#E1E1E1"/>
<path d="M150.88 65.0168C150.84 65.0925 142.143 60.5156 131.46 54.7931C120.772 49.0707 112.141 44.3676 112.181 44.2919C112.221 44.2162 120.919 48.7932 131.606 54.5206C142.289 60.238 150.921 64.9411 150.88 65.0168Z" fill="#E1E1E1"/>
<path d="M147.826 70.7355C147.786 70.8112 139.089 66.2343 128.406 60.5119C117.719 54.7895 109.087 50.0864 109.127 50.0107C109.167 49.935 117.865 54.5119 128.552 60.2394C139.235 65.9568 147.867 70.6598 147.826 70.7355Z" fill="#E1E1E1"/>
<path d="M212.543 31.7728C211.281 32.0651 210.668 33.5177 210.547 34.807C210.427 36.0963 210.59 37.463 210.05 38.6406C209.44 39.9686 207.985 40.9442 207.934 42.4011C207.904 43.2907 208.432 44.1288 208.406 45.0184C208.363 46.4796 206.878 47.5842 206.801 49.0411C206.745 50.094 207.445 51.0997 207.277 52.1397C207.148 52.9477 206.518 53.5838 206.251 54.3617C205.724 55.9046 206.779 57.6065 208.161 58.4746C209.698 59.4416 211.667 59.6951 213.397 59.1407C215.126 58.5863 216.586 57.2411 217.276 55.5564C218.04 53.6998 217.873 51.6111 217.706 49.6084C217.186 43.3724 216.804 37.1278 216.551 30.8789" fill="#0F1B1E"/>
<path d="M208.878 53.7723C208.852 53.7465 209.221 53.6348 209.453 53.0846C209.564 52.8139 209.624 52.4529 209.599 52.036C209.586 51.6148 209.44 51.1593 209.285 50.6435C209.14 50.1321 208.955 49.539 209.062 48.8815C209.17 48.211 209.65 47.6609 210.084 47.1237C210.303 46.8487 210.526 46.565 210.663 46.2427C210.809 45.9246 210.839 45.555 210.732 45.2112C210.509 44.5107 209.822 43.9907 209.509 43.1827C209.354 42.7744 209.35 42.3317 209.44 41.9278C209.526 41.5238 209.689 41.1542 209.856 40.8018C210.191 40.1012 210.564 39.4609 210.71 38.7775C211.011 37.4151 210.869 36.1129 211.075 35.0428C211.26 33.9727 211.714 33.1647 212.161 32.7521C212.38 32.5372 212.59 32.4255 212.727 32.3481C212.873 32.2837 212.95 32.2579 212.955 32.2622C212.968 32.288 212.637 32.3868 212.221 32.8123C211.809 33.2292 211.393 34.0199 211.23 35.0686C211.144 35.5886 211.131 36.1774 211.109 36.8049C211.088 37.4323 211.066 38.1157 210.908 38.8205C210.757 39.5339 210.38 40.2044 210.054 40.8877C209.732 41.5625 209.436 42.3532 209.719 43.0924C209.994 43.8231 210.684 44.3431 210.942 45.1339C211.071 45.5292 211.028 45.9633 210.86 46.3157C210.702 46.6724 210.47 46.969 210.247 47.244C209.796 47.7856 209.35 48.3056 209.247 48.9073C209.14 49.5046 209.307 50.0848 209.44 50.592C209.582 51.1034 209.723 51.5847 209.727 52.0231C209.74 52.4572 209.667 52.8354 209.534 53.1104C209.406 53.3898 209.225 53.566 209.097 53.6519C208.964 53.7551 208.878 53.7723 208.878 53.7723Z" fill="#375A64"/>
<path d="M205.5 63.9629L201.625 75.1456L185.472 76.0137L182.777 82.0133L199.642 83.7238C203.007 85.1163 206.848 83.4101 208.075 79.9805L212.577 67.3968L205.5 63.9629Z" fill="#FFBF9D"/>
<path d="M235.481 169.397C235.481 169.397 226.272 131.741 226.074 130.52C225.898 129.416 229.417 102.319 229.859 95.3047L217.414 95.9021C217.414 95.9021 217.414 95.945 217.414 96.0181L212.122 96.3963L216.86 173.407H222.585L222.019 147.857C225.551 160.063 230.61 172.496 230.61 172.496L235.481 169.397Z" fill="#FFBF9D"/>
<path d="M222.259 157.011C222.263 156.779 222.19 148.45 222.19 148.45C222.117 148.949 219.993 141.221 220.045 140.749C220.07 140.508 222.259 157.011 222.259 157.011Z" fill="#B66955"/>
<path d="M220.16 136.975C220.143 136.975 220.113 137.138 220.07 137.434C220.027 137.731 219.98 138.165 219.959 138.707C219.942 138.977 219.946 139.274 219.95 139.592C219.959 139.91 219.972 140.249 220.01 140.606C220.079 141.32 220.212 142.093 220.396 142.897C220.783 144.5 221.242 145.91 221.564 146.932C221.718 147.401 221.851 147.801 221.963 148.14C222.062 148.424 222.126 148.578 222.143 148.574C222.16 148.57 222.126 148.407 222.057 148.114C221.984 147.822 221.873 147.401 221.731 146.885C221.448 145.849 221.019 144.427 220.637 142.841C220.452 142.046 220.315 141.285 220.233 140.585C220.19 140.237 220.169 139.901 220.152 139.588C220.139 139.274 220.126 138.982 220.13 138.715C220.13 138.182 220.148 137.748 220.165 137.447C220.178 137.147 220.178 136.979 220.16 136.975Z" fill="#B66955"/>
<path d="M216.231 173.784L216.228 173.167L222.583 172.871L222.601 175.419L222.211 175.446C220.467 175.553 213.334 175.868 212.165 175.496C210.863 175.085 216.231 173.784 216.231 173.784Z" fill="#375A64"/>
<path d="M222.688 175.269C222.688 175.273 222.652 175.277 222.579 175.281C222.485 175.289 222.384 175.292 222.268 175.304C221.957 175.319 221.574 175.339 221.118 175.362C220.149 175.404 218.807 175.438 217.323 175.446C215.84 175.454 214.498 175.427 213.529 175.396C213.077 175.377 212.693 175.362 212.379 175.35C212.263 175.342 212.162 175.339 212.067 175.331C211.995 175.327 211.959 175.323 211.959 175.319C211.959 175.316 211.995 175.316 212.067 175.316C212.162 175.316 212.263 175.319 212.379 175.319C212.69 175.323 213.077 175.331 213.529 175.339C214.498 175.354 215.84 175.373 217.323 175.365C218.803 175.358 220.145 175.331 221.118 175.304C221.57 175.292 221.954 175.281 222.268 175.273C222.384 175.269 222.485 175.269 222.579 175.266C222.652 175.266 222.688 175.266 222.688 175.269Z" fill="#1A2E35"/>
<path d="M214.173 175.485C214.151 175.489 214.13 175.197 213.956 174.906C213.786 174.61 213.551 174.461 213.562 174.441C213.565 174.422 213.837 174.545 214.021 174.863C214.206 175.178 214.191 175.493 214.173 175.485Z" fill="#1A2E35"/>
<path d="M216.032 174.475C216.014 174.487 215.923 174.372 215.833 174.218C215.739 174.065 215.681 173.93 215.696 173.919C215.714 173.907 215.804 174.022 215.895 174.176C215.992 174.329 216.05 174.464 216.032 174.475Z" fill="#1A2E35"/>
<path d="M216.546 174.183C216.531 174.198 216.43 174.129 216.321 174.026C216.213 173.922 216.133 173.826 216.148 173.807C216.162 173.791 216.263 173.861 216.372 173.964C216.48 174.072 216.56 174.168 216.546 174.183Z" fill="#1A2E35"/>
<path d="M216.868 173.551C216.868 173.574 216.72 173.593 216.539 173.597C216.358 173.601 216.209 173.585 216.209 173.562C216.209 173.539 216.358 173.52 216.539 173.516C216.72 173.512 216.868 173.528 216.868 173.551Z" fill="#1A2E35"/>
<path d="M216.976 173.105C216.983 173.124 216.824 173.201 216.607 173.22C216.394 173.239 216.224 173.189 216.227 173.166C216.231 173.143 216.397 173.155 216.6 173.139C216.806 173.12 216.969 173.082 216.976 173.105Z" fill="#1A2E35"/>
<path d="M215.819 173.887C215.819 173.895 215.663 173.918 215.414 173.887C215.287 173.872 215.139 173.841 214.979 173.788C214.9 173.757 214.817 173.738 214.73 173.68C214.69 173.653 214.643 173.611 214.629 173.546C214.611 173.481 214.643 173.408 214.69 173.373C215.077 173.158 215.468 173.388 215.613 173.6C215.692 173.707 215.728 173.814 215.746 173.887C215.764 173.96 215.761 174.002 215.757 174.002C215.743 174.006 215.728 173.834 215.569 173.634C215.49 173.538 215.374 173.442 215.222 173.396C215.077 173.35 214.875 173.339 214.737 173.435C214.672 173.484 214.697 173.565 214.77 173.611C214.838 173.657 214.922 173.684 214.998 173.715C215.153 173.768 215.294 173.807 215.417 173.83C215.663 173.876 215.819 173.876 215.819 173.887Z" fill="#1A2E35"/>
<path d="M215.714 173.911C215.707 173.915 215.649 173.807 215.667 173.612C215.678 173.516 215.71 173.404 215.775 173.297C215.848 173.201 215.938 173.07 216.112 173.074C216.206 173.086 216.253 173.201 216.238 173.274C216.231 173.351 216.199 173.416 216.17 173.466C216.108 173.573 216.043 173.661 215.978 173.727C215.851 173.861 215.75 173.911 215.746 173.903C215.739 173.892 215.826 173.826 215.938 173.688C215.992 173.619 216.054 173.535 216.108 173.427C216.162 173.335 216.202 173.174 216.101 173.155C216 173.143 215.895 173.251 215.833 173.339C215.768 173.431 215.736 173.535 215.717 173.619C215.689 173.796 215.725 173.907 215.714 173.911Z" fill="#1A2E35"/>
<path d="M222.554 173.431C222.554 173.446 222.373 173.412 222.088 173.45C221.806 173.485 221.411 173.607 221.071 173.899C220.731 174.191 220.529 174.57 220.438 174.854C220.344 175.142 220.333 175.334 220.319 175.334C220.315 175.334 220.312 175.284 220.319 175.2C220.326 175.111 220.344 174.989 220.388 174.839C220.471 174.54 220.67 174.141 221.024 173.838C221.379 173.534 221.791 173.415 222.084 173.392C222.232 173.381 222.352 173.389 222.431 173.4C222.511 173.415 222.554 173.427 222.554 173.431Z" fill="#1A2E35"/>
<path d="M219.512 174.733C219.516 174.752 219.103 174.825 218.59 174.825C218.076 174.829 217.664 174.763 217.664 174.74C217.667 174.717 218.08 174.744 218.586 174.74C219.096 174.744 219.508 174.71 219.512 174.733Z" fill="#1A2E35"/>
<path d="M220.749 174.72C220.763 174.736 220.716 174.812 220.673 174.912C220.63 175.012 220.608 175.1 220.586 175.1C220.565 175.1 220.554 174.993 220.604 174.878C220.651 174.762 220.734 174.701 220.749 174.72Z" fill="#1A2E35"/>
<path d="M221.215 174.104C221.23 174.119 221.19 174.188 221.125 174.261C221.06 174.33 220.995 174.376 220.98 174.361C220.966 174.346 221.006 174.277 221.071 174.204C221.132 174.131 221.197 174.085 221.215 174.104Z" fill="#1A2E35"/>
<path d="M221.881 173.815C221.878 173.838 221.794 173.838 221.7 173.872C221.606 173.907 221.541 173.96 221.523 173.945C221.505 173.934 221.559 173.838 221.675 173.795C221.791 173.753 221.889 173.795 221.881 173.815Z" fill="#1A2E35"/>
<path d="M222.355 173.68C222.362 173.7 222.326 173.734 222.275 173.757C222.225 173.78 222.174 173.78 222.167 173.757C222.16 173.738 222.196 173.703 222.247 173.68C222.301 173.661 222.348 173.661 222.355 173.68Z" fill="#1A2E35"/>
<path d="M229.754 172.679L229.488 172.117L235.726 169.098L236.826 171.406L236.445 171.601C234.746 172.453 227.733 175.824 226.407 175.992C224.93 176.183 229.754 172.679 229.754 172.679Z" fill="#375A64"/>
<path d="M236.85 171.23C236.85 171.234 236.814 171.253 236.747 171.288C236.655 171.334 236.556 171.383 236.445 171.441C236.139 171.59 235.762 171.773 235.317 171.991C234.364 172.45 233.034 173.061 231.553 173.711C230.072 174.357 228.718 174.915 227.729 175.308C227.269 175.488 226.876 175.641 226.558 175.763C226.439 175.809 226.336 175.847 226.236 175.882C226.161 175.908 226.125 175.92 226.121 175.916C226.121 175.912 226.157 175.897 226.228 175.866C226.324 175.828 226.427 175.782 226.542 175.733C226.856 175.603 227.245 175.442 227.701 175.255C228.682 174.85 230.032 174.284 231.513 173.638C232.994 172.992 234.325 172.385 235.285 171.941C235.734 171.735 236.115 171.559 236.425 171.414C236.54 171.36 236.643 171.315 236.735 171.273C236.81 171.246 236.85 171.23 236.85 171.23Z" fill="#1A2E35"/>
<path d="M228.412 175.116C228.388 175.128 228.249 174.872 227.948 174.681C227.654 174.486 227.352 174.451 227.356 174.428C227.352 174.409 227.678 174.405 227.995 174.616C228.317 174.818 228.436 175.112 228.412 175.116Z" fill="#1A2E35"/>
<path d="M229.85 173.39C229.838 173.409 229.699 173.344 229.54 173.245C229.381 173.145 229.266 173.05 229.278 173.031C229.29 173.012 229.429 173.077 229.588 173.176C229.746 173.275 229.862 173.371 229.85 173.39Z" fill="#1A2E35"/>
<path d="M230.239 172.908C230.231 172.931 230.1 172.908 229.949 172.862C229.794 172.816 229.679 172.759 229.683 172.739C229.691 172.717 229.818 172.739 229.973 172.785C230.128 172.831 230.247 172.885 230.239 172.908Z" fill="#1A2E35"/>
<path d="M230.294 172.19C230.302 172.209 230.163 172.293 229.985 172.373C229.802 172.453 229.647 172.503 229.639 172.484C229.631 172.465 229.77 172.381 229.949 172.3C230.128 172.22 230.283 172.171 230.294 172.19Z" fill="#1A2E35"/>
<path d="M230.211 171.739C230.227 171.754 230.1 171.895 229.893 172.002C229.687 172.113 229.496 172.14 229.492 172.121C229.484 172.098 229.659 172.037 229.854 171.933C230.048 171.826 230.195 171.719 230.211 171.739Z" fill="#1A2E35"/>
<path d="M229.385 172.953C229.389 172.961 229.242 173.049 228.976 173.129C228.845 173.167 228.682 173.206 228.5 173.225C228.408 173.232 228.317 173.248 228.206 173.236C228.154 173.228 228.091 173.209 228.047 173.16C228.003 173.11 228.003 173.03 228.035 172.976C228.333 172.613 228.821 172.655 229.055 172.785C229.182 172.85 229.262 172.93 229.31 172.988C229.357 173.049 229.373 173.087 229.369 173.087C229.357 173.098 229.27 172.946 229.028 172.835C228.909 172.781 228.75 172.747 228.579 172.77C228.416 172.793 228.206 172.869 228.11 173.014C228.067 173.087 228.126 173.152 228.218 173.16C228.305 173.171 228.404 173.16 228.492 173.152C228.67 173.137 228.829 173.106 228.96 173.076C229.226 173.007 229.381 172.942 229.385 172.953Z" fill="#1A2E35"/>
<path d="M229.29 173.018C229.286 173.025 229.179 172.949 229.115 172.766C229.083 172.674 229.067 172.559 229.091 172.433C229.123 172.315 229.159 172.154 229.337 172.085C229.437 172.055 229.671 172.25 229.687 172.322C229.711 172.395 229.568 172.357 229.564 172.418C229.548 172.54 229.52 172.651 229.484 172.739C229.413 172.915 229.334 173.002 229.326 172.999C229.314 172.991 229.373 172.892 229.429 172.72C229.457 172.632 229.48 172.529 229.488 172.41C229.504 172.303 229.472 172.139 229.361 172.166C229.254 172.2 229.199 172.341 229.171 172.448C229.147 172.559 229.155 172.666 229.175 172.754C229.214 172.922 229.302 173.01 229.29 173.018Z" fill="#1A2E35"/>
<path d="M235.937 169.62C235.941 169.635 235.746 169.681 235.476 169.838C235.206 169.991 234.865 170.274 234.646 170.686C234.428 171.099 234.388 171.531 234.416 171.829C234.444 172.131 234.515 172.311 234.499 172.314C234.495 172.314 234.472 172.272 234.44 172.192C234.408 172.112 234.376 171.99 234.353 171.833C234.309 171.527 234.337 171.076 234.567 170.644C234.793 170.216 235.159 169.926 235.44 169.784C235.583 169.712 235.707 169.666 235.794 169.643C235.889 169.624 235.937 169.616 235.937 169.62Z" fill="#1A2E35"/>
<path d="M233.443 172.12C233.455 172.139 233.07 172.38 232.558 172.606C232.045 172.831 231.605 172.95 231.597 172.931C231.589 172.908 232.014 172.755 232.522 172.533C233.03 172.311 233.431 172.101 233.443 172.12Z" fill="#1A2E35"/>
<path d="M234.678 171.573C234.702 171.581 234.682 171.673 234.686 171.783C234.686 171.894 234.702 171.982 234.678 171.994C234.658 172.001 234.599 171.913 234.599 171.783C234.599 171.653 234.654 171.562 234.678 171.573Z" fill="#1A2E35"/>
<path d="M234.88 170.809C234.9 170.817 234.892 170.897 234.857 170.989C234.821 171.081 234.773 171.149 234.754 171.142C234.734 171.134 234.742 171.054 234.777 170.962C234.813 170.87 234.857 170.802 234.88 170.809Z" fill="#1A2E35"/>
<path d="M235.428 170.264C235.432 170.287 235.349 170.321 235.27 170.394C235.19 170.463 235.146 170.543 235.123 170.535C235.099 170.531 235.115 170.421 235.21 170.333C235.309 170.245 235.424 170.241 235.428 170.264Z" fill="#1A2E35"/>
<path d="M235.845 169.934C235.861 169.95 235.841 169.996 235.797 170.041C235.754 170.083 235.706 170.106 235.69 170.091C235.675 170.076 235.694 170.03 235.738 169.984C235.782 169.942 235.829 169.919 235.845 169.934Z" fill="#1A2E35"/>
<path d="M230.653 82.5583L229.396 67.2154L235.846 67.3315C235.846 67.3315 236.147 65.0708 235.194 60.107C234.61 57.0642 232.589 55.199 230.319 54.0902V54.0515L230.121 53.9999C227.233 52.6461 224.212 52.457 224.212 52.457L216.294 52.5473C216.294 52.5473 210.247 51.7909 206.9 56.1101C205.612 57.7733 201.621 69.158 201.621 69.158L211.123 73.7394L210.217 67.426C210.217 67.426 210.397 72.0031 210.981 73.4514C211.307 74.2594 212.247 76.7692 212.247 76.7692L212.123 84.3375L230.653 82.5583Z" fill="#E1E1E1"/>
<path d="M226.289 64.9889L225.113 70.0001H236.198L235.469 61.5938L226.289 64.9889Z" fill="#E1E1E1"/>
<path d="M236.198 70.0011C236.198 69.9667 235.64 69.9108 234.73 69.8549C233.821 69.8034 232.563 69.7561 231.177 69.7647C229.787 69.7733 228.529 69.8335 227.624 69.9022C226.714 69.9753 226.156 70.0526 226.16 70.0827C226.164 70.1171 226.727 70.1042 227.632 70.0741C228.542 70.0483 229.795 70.014 231.177 70.0054C232.563 70.0011 233.816 70.0183 234.726 70.0269C235.632 70.0397 236.198 70.0354 236.198 70.0011Z" fill="#1A2E35"/>
<path d="M225.808 61.5547C225.774 61.5547 225.761 62.0446 225.77 62.8311C225.778 63.6176 225.808 64.7049 225.851 65.904C225.898 67.103 225.954 68.1904 226.006 68.9726C226.057 69.759 226.109 70.2404 226.143 70.2404C226.177 70.2404 226.19 69.7504 226.182 68.964C226.173 68.1775 226.143 67.0902 226.1 65.8911C226.053 64.692 225.997 63.609 225.946 62.8225C225.894 62.036 225.843 61.5547 225.808 61.5547Z" fill="#1A2E35"/>
<g opacity="0.3">
<path d="M215.723 65.8965C215.723 65.8965 218.186 84.1919 225.113 83.7063C225.113 83.7063 228.233 83.6676 229.233 81.5918V80.7752L215.723 65.8965Z" fill="black"/>
</g>
<path d="M212.255 76.7652C212.243 76.7695 212.174 76.6191 212.067 76.3354C211.959 76.0561 211.818 75.6435 211.65 75.1363C211.32 74.1135 210.912 72.6866 210.59 71.075C210.273 69.4633 210.114 67.9849 210.067 66.9105C210.041 66.3733 210.032 65.9392 210.041 65.6384C210.045 65.3375 210.058 65.1699 210.071 65.1699C210.105 65.1699 210.131 65.8318 210.221 66.8976C210.311 67.9634 210.492 69.429 210.809 71.032C211.127 72.6308 211.509 74.0576 211.801 75.0891C211.938 75.5661 212.054 75.9744 212.148 76.3096C212.23 76.5976 212.268 76.7609 212.255 76.7652Z" fill="#1A2E35"/>
<path d="M215.054 82.0204C214.994 82.0376 214.822 81.6422 214.672 81.1394C214.517 80.6366 214.444 80.2111 214.504 80.1939C214.564 80.1767 214.736 80.5721 214.886 81.0749C215.037 81.5821 215.114 82.0032 215.054 82.0204Z" fill="#1A2E35"/>
<path d="M216.01 81.9515C215.955 81.9644 215.766 81.3756 215.758 80.6149C215.745 79.8542 215.912 79.2568 215.972 79.2697C216.036 79.2826 215.967 79.8757 215.98 80.6106C215.989 81.3455 216.074 81.9386 216.01 81.9515Z" fill="#1A2E35"/>
<path d="M211.324 73.9461C211.298 74.0019 209.084 72.949 206.385 71.5995C203.685 70.25 201.518 69.1068 201.544 69.051C201.569 68.9951 203.784 70.048 206.483 71.3975C209.183 72.747 211.35 73.8902 211.324 73.9461Z" fill="#1A2E35"/>
<path d="M215.221 54.0273C215.272 51.8527 215.281 49.562 215.281 49.562C215.281 49.562 212.496 49.0248 212.011 45.3545C211.547 41.8562 212.843 33.6432 212.843 33.6432C216.912 32.1046 221.139 33.4971 223.924 36.7977L223.233 54.4485C223.152 56.4985 221.328 58.0629 219.139 57.9597C216.925 57.8609 215.174 56.0988 215.221 54.0273Z" fill="#FFBF9D"/>
<path d="M212.628 40.2108C212.611 40.4601 212.809 40.675 213.066 40.6964C213.324 40.7179 213.543 40.5331 213.56 40.2882C213.577 40.0389 213.38 39.824 213.122 39.8025C212.869 39.781 212.646 39.9615 212.628 40.2108Z" fill="#1A2E35"/>
<path d="M212.457 39.5955C212.513 39.66 212.873 39.4064 213.38 39.4193C213.882 39.4279 214.247 39.6944 214.302 39.6342C214.328 39.6084 214.272 39.4967 214.118 39.3763C213.963 39.256 213.697 39.1357 213.38 39.1271C213.066 39.1228 212.8 39.2302 212.646 39.342C212.483 39.458 212.427 39.5654 212.457 39.5955Z" fill="#1A2E35"/>
<path d="M217.74 40.5291C217.723 40.7784 217.92 40.9933 218.178 41.0148C218.435 41.0363 218.654 40.8515 218.671 40.6065C218.688 40.3572 218.491 40.1423 218.233 40.1208C217.976 40.0994 217.757 40.2842 217.74 40.5291Z" fill="#1A2E35"/>
<path d="M217.705 39.9143C217.761 39.9788 218.122 39.7252 218.628 39.7381C219.13 39.7467 219.495 40.0131 219.551 39.953C219.577 39.9272 219.521 39.8154 219.362 39.6908C219.208 39.5705 218.941 39.4501 218.624 39.4415C218.311 39.4372 218.045 39.5447 217.89 39.6564C217.736 39.7768 217.68 39.8842 217.705 39.9143Z" fill="#1A2E35"/>
<path d="M215.783 43.605C215.787 43.575 215.474 43.5148 214.968 43.4374C214.839 43.4202 214.719 43.3902 214.697 43.3042C214.667 43.2097 214.727 43.0721 214.792 42.926C214.92 42.6166 215.053 42.2942 215.195 41.9547C215.757 40.5709 216.169 39.4363 216.113 39.4105C216.058 39.389 215.556 40.4892 214.989 41.8731C214.852 42.2126 214.723 42.5392 214.599 42.8486C214.547 42.9948 214.457 43.1581 214.517 43.3515C214.547 43.4503 214.641 43.5191 214.723 43.5449C214.805 43.5707 214.877 43.575 214.942 43.5793C215.461 43.6222 215.779 43.6351 215.783 43.605Z" fill="#1A2E35"/>
<path d="M215.281 49.5662C215.281 49.5662 217.731 49.7897 220.203 48.3887C220.203 48.3887 218.955 50.8685 215.311 50.4301L215.281 49.5662Z" fill="#B66955"/>
<path d="M219.319 38.4569C219.216 38.6159 218.834 38.5429 218.405 38.4655C217.976 38.3796 217.594 38.3022 217.56 38.1174C217.517 37.9412 217.959 37.6962 218.534 37.8037C219.1 37.9197 219.422 38.3108 219.319 38.4569Z" fill="#1A2E35"/>
<path d="M214.311 37.7176C214.272 37.9024 213.86 37.9669 213.388 37.9926C212.916 38.0098 212.5 37.984 212.444 37.8035C212.388 37.6316 212.787 37.348 213.358 37.3222C213.929 37.2964 214.35 37.5414 214.311 37.7176Z" fill="#1A2E35"/>
<path d="M215.791 44.8128C215.684 44.7827 215.564 44.8429 215.513 44.9417C215.448 45.0578 215.478 45.2125 215.577 45.2985C215.676 45.3844 215.839 45.3844 215.942 45.3028C216.045 45.2211 216.079 45.0621 216.019 44.946C215.959 44.83 215.813 44.7655 215.684 44.8042" fill="#B66955"/>
<path d="M215.908 44.8648C215.929 44.8433 215.826 44.7186 215.607 44.7702C215.504 44.7917 215.371 44.8819 215.332 45.041C215.294 45.1871 215.328 45.3762 215.483 45.4965C215.646 45.6083 215.839 45.5868 215.963 45.5008C216.101 45.4106 216.139 45.2473 216.118 45.1441C216.075 44.9163 215.908 44.8819 215.903 44.912C215.886 44.9421 215.963 45.0195 215.946 45.1527C215.938 45.2172 215.907 45.2773 215.843 45.3117C215.779 45.3461 215.68 45.3461 215.624 45.3031C215.564 45.2601 215.534 45.1656 215.547 45.0968C215.556 45.0238 215.603 44.9722 215.663 44.9378C215.787 44.8605 215.895 44.8948 215.908 44.8648Z" fill="#1A2E35"/>
<path d="M222.237 41.1164C221.804 42.1221 220.744 42.9 220.89 43.9873C220.984 44.6878 221.435 45.3454 221.349 46.0459C221.238 46.9269 220.323 47.5415 220.195 48.4226C220.036 49.5013 221.083 50.3393 221.504 51.3493C222.113 52.8148 221.332 54.4651 221.315 56.0553C221.285 58.4878 223.353 60.7613 225.774 60.9633C226.752 61.045 227.855 60.7484 228.366 59.9061C228.786 59.2098 228.701 58.3288 228.954 57.5552C229.327 56.4034 230.421 55.5654 230.653 54.3749C231.074 52.2088 228.46 50.421 228.632 48.2206C228.705 47.2794 229.284 46.4628 229.529 45.5517C229.851 44.3612 229.555 43.0203 228.761 42.0748C228.117 41.3055 227.181 40.8027 226.632 39.9646C226.01 39.0148 225.988 37.8072 225.752 36.6941C225.181 33.9822 223.147 31.627 220.551 30.6687C217.955 29.7103 214.877 30.1787 212.685 31.8677C212.685 31.8677 212.062 34.6999 214.963 35.1727C217.869 35.6454 219.212 35.0996 219.538 36.2643C219.538 36.2643 219.208 37.6267 220.409 38.9246C221.611 40.2225 222.74 39.9474 222.237 41.1164Z" fill="#0F1B1E"/>
<path d="M226.872 60.7615C226.872 60.7701 226.782 60.7615 226.606 60.7357C226.435 60.7099 226.182 60.6498 225.868 60.538C225.25 60.3102 224.371 59.816 223.624 58.8705C223.25 58.4021 222.903 57.8348 222.667 57.1686C222.426 56.5068 222.289 55.7547 222.276 54.9639C222.259 54.1731 222.371 53.3393 222.585 52.5099C222.693 52.093 222.834 51.6804 222.997 51.2678C223.156 50.8553 223.353 50.4556 223.469 50.0344C223.589 49.6132 223.577 49.1834 223.465 48.7752C223.353 48.3669 223.16 47.9801 222.976 47.5976C222.787 47.2151 222.598 46.8369 222.474 46.4329C222.349 46.0332 222.302 45.5991 222.384 45.1995C222.555 44.3915 223.044 43.7898 223.336 43.1752C223.641 42.5649 223.74 41.9246 223.727 41.3444C223.675 40.1754 223.177 39.3073 222.77 38.8087C222.345 38.3102 222.023 38.1168 222.04 38.0996C222.04 38.0996 222.379 38.2586 222.834 38.7529C223.272 39.2471 223.808 40.1238 223.881 41.3358C223.907 41.9332 223.817 42.6122 223.504 43.2526C223.208 43.8886 222.735 44.4946 222.585 45.2338C222.435 45.9816 222.787 46.7509 223.169 47.4987C223.358 47.8812 223.555 48.2766 223.675 48.715C223.795 49.1491 223.813 49.6433 223.68 50.0903C223.559 50.5415 223.358 50.9455 223.199 51.3495C223.04 51.7535 222.899 52.1618 222.791 52.5657C222.577 53.378 222.465 54.1903 222.478 54.9596C222.482 56.5068 223.014 57.8648 223.74 58.7717C224.452 59.7043 225.293 60.2071 225.894 60.4521C226.508 60.697 226.877 60.7357 226.872 60.7615Z" fill="#375A64"/>
<path d="M226.443 39.0745C226.443 39.0874 226.22 39.1304 225.804 39.1691C225.392 39.2035 224.783 39.2508 224.036 39.1218C223.311 38.9886 222.388 38.6319 221.804 37.768C221.517 37.334 221.405 36.8096 221.221 36.324C221.045 35.8341 220.706 35.4086 220.242 35.1163C219.302 34.519 218.199 34.4459 217.234 34.3299C216.264 34.2181 215.35 34.0118 214.732 33.5477C214.109 33.105 213.792 32.5291 213.706 32.1122C213.659 31.9059 213.663 31.7383 213.672 31.6266C213.689 31.5149 213.697 31.459 213.706 31.459C213.732 31.459 213.676 31.6954 213.788 32.0865C213.891 32.4732 214.212 33.0062 214.818 33.4144C215.414 33.8356 216.285 34.0204 217.251 34.1193C218.208 34.2267 219.354 34.2869 220.358 34.923C220.856 35.2324 221.238 35.718 221.418 36.2381C221.611 36.7495 221.714 37.2523 221.972 37.6477C222.495 38.4471 223.362 38.8124 224.057 38.9585C224.774 39.1046 225.379 39.0831 225.791 39.0745C226.212 39.0703 226.443 39.0574 226.443 39.0745Z" fill="#375A64"/>
<path d="M225.379 35.5759C225.383 35.5888 225.207 35.6404 224.877 35.649C224.551 35.6576 224.062 35.6017 223.521 35.3438C223.25 35.2149 222.976 35.0344 222.723 34.7894C222.465 34.5445 222.255 34.2307 222.057 33.8998C221.671 33.2465 221.298 32.4386 220.495 32.1076C219.71 31.7681 218.843 31.8455 218.092 31.8971C217.332 31.9701 216.62 31.9959 216.041 31.8799C215.457 31.7767 215.019 31.5361 214.775 31.3126C214.65 31.2008 214.569 31.102 214.521 31.0289C214.474 30.9559 214.453 30.9172 214.457 30.9129C214.474 30.9 214.577 31.0504 214.83 31.2438C215.079 31.4372 215.504 31.6435 216.066 31.7251C216.633 31.8154 217.311 31.781 218.075 31.6951C218.83 31.6349 219.723 31.5403 220.585 31.9057C221.015 32.0862 221.362 32.4085 221.611 32.7566C221.864 33.1047 222.045 33.47 222.238 33.7967C222.426 34.1276 222.62 34.4284 222.856 34.6605C223.087 34.8969 223.341 35.0774 223.594 35.2063C224.096 35.4685 224.564 35.5501 224.881 35.5673C225.199 35.5802 225.375 35.5544 225.379 35.5759Z" fill="#375A64"/>
<path d="M228.151 59.8333C228.13 59.8247 228.267 59.5453 228.426 59.0167C228.585 58.4881 228.739 57.6973 228.713 56.7131C228.679 55.7375 228.447 54.5557 227.799 53.4296C227.486 52.8666 227.01 52.3638 226.619 51.7492C226.426 51.4398 226.259 51.096 226.186 50.7135C226.113 50.331 226.156 49.9227 226.28 49.5531C226.52 48.8096 226.954 48.1864 227.044 47.5031C227.16 46.8198 226.812 46.1966 226.486 45.6379C226.319 45.3542 226.156 45.0749 226.027 44.7826C225.898 44.4904 225.817 44.1809 225.782 43.8844C225.718 43.287 225.787 42.7369 225.83 42.247C225.954 41.2671 225.864 40.4591 225.628 39.9649C225.4 39.462 225.1 39.3116 225.121 39.2901C225.126 39.2858 225.143 39.2944 225.173 39.3159C225.203 39.3374 225.254 39.3632 225.31 39.4148C225.426 39.5093 225.576 39.6726 225.705 39.9262C225.975 40.429 226.091 41.2714 225.988 42.2599C225.954 42.7541 225.894 43.2956 225.967 43.8629C226.023 44.4345 226.319 44.9717 226.662 45.5304C226.829 45.8141 227.005 46.1106 227.13 46.4458C227.259 46.7768 227.314 47.1593 227.259 47.5289C227.156 48.281 226.714 48.917 226.49 49.6133C226.375 49.9614 226.34 50.3224 226.4 50.6662C226.465 51.01 226.615 51.3324 226.799 51.6289C227.169 52.222 227.649 52.7334 227.971 53.3222C228.632 54.4869 228.851 55.7031 228.868 56.7045C228.877 57.7102 228.692 58.5139 228.507 59.0382C228.413 59.3003 228.332 59.5023 228.259 59.6313C228.194 59.7688 228.16 59.8376 228.151 59.8333Z" fill="#375A64"/>
<path d="M210.672 139.911C210.672 139.911 207.784 112.474 207.616 102.336C207.449 92.1974 212.169 82.1923 212.169 82.1923L230.657 81.4102C230.657 81.4102 234.314 91.6989 234.378 96.0181C234.507 104.416 232.151 112.706 232.421 119.368L233.039 139.911" fill="#FF4F5B"/>
<path d="M233.657 106.178C233.662 106.187 233.554 106.264 233.357 106.406C233.305 106.444 233.25 106.483 233.19 106.526C233.134 106.573 233.074 106.638 233.009 106.698C232.881 106.823 232.726 106.964 232.597 107.158C232.001 107.888 231.563 109.199 231.151 110.832C230.924 111.645 230.692 112.551 230.215 113.441C230.087 113.66 229.971 113.888 229.804 114.09C229.722 114.193 229.649 114.305 229.563 114.404L229.28 114.687C228.894 115.07 228.404 115.354 227.889 115.581C226.855 116.037 225.688 116.252 224.619 116.789C223.546 117.313 222.74 118.328 222.246 119.497C221.727 120.661 221.409 121.882 220.976 123.025C220.551 124.16 219.967 125.26 219.045 125.956C218.131 126.678 216.998 126.841 216.019 126.906C215.023 126.966 214.101 126.936 213.277 127.061C212.453 127.177 211.723 127.434 211.208 127.843C210.689 128.251 210.389 128.762 210.247 129.201C210.101 129.644 210.127 130.017 210.174 130.254C210.221 130.494 210.29 130.61 210.273 130.615C210.273 130.615 210.191 130.507 210.127 130.262C210.062 130.022 210.019 129.635 210.161 129.171C210.294 128.711 210.595 128.178 211.127 127.744C211.659 127.31 212.41 127.03 213.251 126.902C214.092 126.764 215.023 126.786 216.006 126.717C216.976 126.648 218.058 126.476 218.92 125.788C219.791 125.127 220.354 124.065 220.77 122.943C221.195 121.813 221.512 120.592 222.04 119.402C222.538 118.212 223.392 117.133 224.516 116.591C225.628 116.041 226.795 115.831 227.804 115.392C228.306 115.173 228.774 114.902 229.143 114.546L229.417 114.275C229.503 114.18 229.572 114.073 229.649 113.978C229.812 113.785 229.924 113.561 230.048 113.355C230.52 112.496 230.756 111.597 230.997 110.789C231.43 109.165 231.894 107.837 232.529 107.106C232.666 106.913 232.829 106.771 232.962 106.651C233.031 106.591 233.091 106.53 233.151 106.483C233.215 106.444 233.275 106.406 233.327 106.371C233.541 106.238 233.653 106.174 233.657 106.178Z" fill="#FAFAFA"/>
<path d="M233.769 93.4824C233.778 93.4824 233.786 93.6071 233.795 93.8521C233.799 94.0927 233.769 94.4537 233.666 94.9007C233.451 95.7946 232.799 97.0238 231.576 98.1369C230.971 98.6956 230.246 99.2328 229.409 99.7227C228.581 100.217 227.666 100.685 226.731 101.214C225.8 101.747 224.834 102.344 223.989 103.144C223.13 103.93 222.491 104.966 221.911 106.066C221.328 107.162 220.813 108.275 220.113 109.242C219.766 109.724 219.375 110.166 218.942 110.54C218.504 110.914 218.028 111.219 217.547 111.473C216.577 111.976 215.59 112.289 214.676 112.577C213.758 112.861 212.904 113.114 212.153 113.428C211.401 113.738 210.753 114.09 210.23 114.46C209.706 114.834 209.307 115.22 209.024 115.573C208.453 116.282 208.333 116.793 208.299 116.78C208.29 116.776 208.333 116.66 208.419 116.432C208.518 116.213 208.672 115.886 208.955 115.521C209.234 115.156 209.629 114.748 210.157 114.356C210.685 113.97 211.337 113.604 212.092 113.282C212.848 112.955 213.706 112.693 214.62 112.401C215.53 112.109 216.508 111.791 217.453 111.292C217.925 111.043 218.384 110.746 218.804 110.381C219.221 110.016 219.603 109.586 219.937 109.118C220.62 108.172 221.13 107.068 221.718 105.963C222.298 104.863 222.959 103.797 223.843 102.989C224.71 102.172 225.692 101.571 226.632 101.038C227.576 100.509 228.49 100.049 229.319 99.568C230.147 99.0953 230.868 98.571 231.473 98.0294C232.688 96.9507 233.348 95.7602 233.585 94.8878C233.812 93.9982 233.735 93.4782 233.769 93.4824Z" fill="#FAFAFA"/>
<path d="M207.706 103.789C207.702 103.789 207.689 103.763 207.668 103.708C207.651 103.652 207.612 103.566 207.586 103.45C207.535 103.222 207.5 102.857 207.629 102.418C207.869 101.541 208.818 100.454 210.346 99.9084C211.105 99.6462 211.972 99.4872 212.869 99.2508C213.757 99.0101 214.727 98.6749 215.453 97.9314C215.813 97.5618 216.118 97.1277 216.367 96.6464C216.611 96.1608 216.817 95.6407 217.006 95.1035C217.392 94.0334 217.714 92.8687 218.367 91.8072C219.015 90.7413 220.07 89.9978 221.165 89.6282C222.255 89.2285 223.358 89.048 224.375 88.8116C225.4 88.5882 226.357 88.3002 227.169 87.8575C227.971 87.402 228.606 86.796 229.057 86.1513C229.984 84.862 230.224 83.5426 230.258 82.6702C230.28 81.7849 230.138 81.2992 230.168 81.2949C230.168 81.2949 230.34 81.7677 230.349 82.6702C230.34 83.5555 230.121 84.9093 229.19 86.2416C228.735 86.9078 228.087 87.5395 227.263 88.0166C226.43 88.4764 225.452 88.7773 224.426 89.0093C223.401 89.25 222.306 89.4348 221.246 89.8302C220.178 90.1998 219.186 90.9003 218.56 91.9232C217.929 92.9417 217.607 94.0935 217.216 95.1723C217.023 95.7138 216.813 96.2424 216.56 96.7409C216.298 97.2352 215.98 97.6907 215.599 98.0732C214.83 98.8554 213.818 99.1906 212.916 99.427C212.002 99.6591 211.144 99.8052 210.397 100.054C208.908 100.562 207.964 101.606 207.711 102.44C207.573 102.857 207.59 103.209 207.629 103.437C207.681 103.665 207.719 103.785 207.706 103.789Z" fill="#FAFAFA"/>
<path d="M232.181 126.988C232.19 126.988 232.198 127.079 232.211 127.259C232.22 127.435 232.207 127.702 232.134 128.037C231.984 128.699 231.473 129.606 230.512 130.358C230.04 130.74 229.469 131.088 228.808 131.368C228.151 131.647 227.426 131.87 226.671 132.107C225.915 132.343 225.122 132.593 224.349 132.954C223.572 133.31 222.856 133.83 222.238 134.496C221.611 135.154 221.07 135.872 220.474 136.503C219.877 137.14 219.199 137.664 218.495 138.055C217.083 138.837 215.62 139.104 214.414 139.116C213.2 139.129 212.238 138.876 211.603 138.648C211.286 138.536 211.045 138.425 210.891 138.343C210.732 138.266 210.65 138.218 210.655 138.214C210.659 138.205 210.745 138.24 210.908 138.304C211.071 138.373 211.311 138.472 211.629 138.571C212.264 138.768 213.217 138.996 214.406 138.962C215.59 138.927 217.019 138.648 218.388 137.879C219.07 137.496 219.723 136.985 220.306 136.357C220.894 135.734 221.431 135.016 222.07 134.346C222.697 133.667 223.456 133.121 224.25 132.76C225.044 132.391 225.847 132.146 226.606 131.913C227.366 131.681 228.087 131.467 228.731 131.2C229.374 130.934 229.941 130.598 230.404 130.233C231.353 129.511 231.868 128.652 232.039 128.011C232.215 127.366 232.147 126.988 232.181 126.988Z" fill="#FAFAFA"/>
<path d="M230.074 70.018L226.499 70.104C226.263 71.3116 225.692 72.1368 225.692 72.1368C222.701 66.9409 220.383 59.9785 219.808 57.1807C219.894 56.9014 219.993 56.5919 220.117 56.2481C220.259 55.8484 220.139 55.092 220.07 54.6752C219.971 54.052 219.796 53.2139 219.744 52.8271C219.585 51.6453 219.396 51.4605 218.984 51.5937C218.422 51.7742 219.216 54.9158 218.757 54.9803C218.512 55.019 218.208 53.9402 218.122 53.0592C218.036 52.1782 217.637 49.462 217.345 49.2815C216.92 49.0151 216.547 49.4362 216.654 50.313C216.761 51.2026 216.899 53.8543 216.435 53.8887C215.976 53.9231 215.59 49.4233 215.59 49.4233C215.59 49.4233 215.663 48.4435 215.122 48.4693C214.148 48.5122 214.907 53.2569 214.993 53.7039C215.053 54.0176 214.547 54.0735 214.504 53.734C214.457 53.3858 214.225 49.2342 213.234 49.2686C212.474 49.2944 213.822 53.1796 213.397 54.0778C212.972 54.976 212.676 51.0221 211.946 51.0737C211.676 51.0952 211.479 51.1467 211.972 53.3858C212.238 54.5892 213.023 56.8025 213.706 58.6334C214.856 64.8436 219.903 84.7119 227.812 81.0718C232.237 79.039 234.035 70.018 234.035 70.018H230.074Z" fill="#FFBF9D"/>
<path d="M214.817 54.0048C214.817 54.0048 214.852 54.0091 214.92 53.9919C214.98 53.9748 215.101 53.8974 215.083 53.7427C215.075 53.4762 215.032 53.0894 214.972 52.5866C214.925 52.0795 214.774 51.4735 214.774 50.7558C214.77 50.3948 214.779 50.008 214.8 49.5997C214.813 49.3934 214.817 49.1828 214.865 48.9808C214.899 48.7874 215.028 48.5639 215.178 48.5897L215.195 48.594H215.204C215.358 48.5854 215.474 48.7057 215.525 48.8862C215.581 49.0582 215.594 49.2645 215.581 49.4621V49.4707V49.475C215.68 50.5753 215.792 51.7786 216.04 53.0636C216.075 53.2227 216.109 53.386 216.161 53.5493C216.186 53.6309 216.212 53.7126 216.251 53.7943C216.272 53.8372 216.289 53.8759 216.324 53.9232C216.354 53.9619 216.392 54.0263 216.504 54.0349C216.684 54.022 216.736 53.8845 216.774 53.8071C216.813 53.7169 216.839 53.6309 216.856 53.545C216.894 53.3688 216.912 53.1969 216.925 53.0207C216.972 52.3201 216.946 51.6024 216.894 50.8718C216.877 50.5022 216.787 50.1326 216.852 49.7974C216.882 49.6341 216.95 49.4664 217.062 49.3977C217.118 49.3633 217.178 49.359 217.246 49.3762C217.281 49.3848 217.315 49.402 217.349 49.4192C217.379 49.445 217.371 49.4321 217.397 49.4836C217.538 49.7931 217.615 50.1928 217.693 50.5624C217.77 50.9449 217.834 51.3317 217.894 51.7227C217.954 52.1138 218.01 52.5092 218.057 52.9089C218.096 53.3086 218.152 53.7255 218.255 54.1295C218.306 54.3315 218.362 54.5335 218.448 54.7355C218.491 54.8343 218.538 54.9374 218.624 55.0406C218.654 55.0836 218.757 55.1652 218.881 55.1351C219.002 55.0965 219.036 54.9976 219.057 54.9417C219.126 54.6925 219.105 54.4905 219.105 54.2713C219.096 54.0564 219.079 53.8458 219.062 53.6352C219.032 53.2742 218.997 52.9132 218.984 52.5608C218.98 52.3846 218.98 52.2084 218.997 52.0451C219.006 51.9634 219.023 51.8818 219.049 51.8216C219.062 51.7915 219.079 51.77 219.092 51.7571C219.1 51.7485 219.105 51.7528 219.109 51.7442L219.165 51.727C219.448 51.611 219.542 52.0064 219.62 52.3244C219.684 52.6597 219.727 53.0035 219.796 53.343C219.907 54.022 220.053 54.6925 220.13 55.3371C220.16 55.6595 220.186 55.9904 220.092 56.2611C219.989 56.5706 219.89 56.88 219.791 57.1852L219.783 57.2109L219.791 57.241C220.315 59.5532 221.04 61.6204 221.71 63.4555C222.388 65.2907 223.07 66.8722 223.667 68.1701C224.263 69.4681 224.799 70.4651 225.173 71.1485C225.362 71.4708 225.508 71.7287 225.619 71.9178C225.722 72.0897 225.778 72.1799 225.787 72.1756C225.791 72.1713 225.748 72.0768 225.654 71.8963C225.551 71.7029 225.413 71.4407 225.242 71.1098C224.894 70.4178 224.379 69.4122 223.8 68.11C223.22 66.8078 222.559 65.2219 221.894 63.3868C221.238 61.5516 220.525 59.4801 220.019 57.1938L220.014 57.2496C220.113 56.9488 220.212 56.6479 220.315 56.3385C220.431 55.9861 220.396 55.6466 220.366 55.3114C220.289 54.6409 220.147 53.9877 220.036 53.3043C219.972 52.9691 219.929 52.621 219.86 52.2729C219.821 52.0967 219.783 51.9204 219.684 51.7399C219.637 51.654 219.564 51.5551 219.448 51.4993C219.328 51.4477 219.208 51.4606 219.109 51.4864L219.036 51.5079C219.002 51.5208 218.963 51.5379 218.937 51.5637C218.881 51.611 218.851 51.6669 218.83 51.7185C218.783 51.8216 218.77 51.9161 218.757 52.0107C218.736 52.1998 218.736 52.3846 218.744 52.5651C218.757 52.9304 218.791 53.2914 218.821 53.6524C218.839 53.863 218.856 54.0693 218.864 54.2756C218.873 54.4776 218.877 54.6968 218.834 54.8515C218.821 54.8945 218.804 54.8902 218.826 54.9117C218.826 54.8988 218.83 54.9332 218.83 54.9289V54.9246C218.83 54.9203 218.83 54.9117 218.83 54.9117C218.834 54.9074 218.843 54.8945 218.834 54.8902C218.83 54.8902 218.821 54.8816 218.809 54.8644C218.761 54.8085 218.714 54.7226 218.675 54.6323C218.598 54.4518 218.542 54.2584 218.495 54.0607C218.397 53.6653 218.341 53.2742 218.302 52.8702C218.255 52.4663 218.199 52.0666 218.135 51.6712C218.075 51.2758 218.006 50.8847 217.929 50.5022C217.839 50.1154 217.783 49.7415 217.603 49.3547C217.59 49.316 217.517 49.2301 217.47 49.2043C217.422 49.1742 217.367 49.1527 217.311 49.1355C217.195 49.1054 217.053 49.1183 216.946 49.1871C216.731 49.3289 216.667 49.5524 216.628 49.7458C216.594 49.9478 216.598 50.1455 216.62 50.3346C216.641 50.5194 216.658 50.6999 216.671 50.8804C216.727 51.6024 216.753 52.3158 216.71 52.9992C216.697 53.1668 216.68 53.3387 216.65 53.4977C216.633 53.5794 216.611 53.6524 216.585 53.7212C216.573 53.7556 216.555 53.7857 216.538 53.8028C216.521 53.8372 216.508 53.7943 216.513 53.8544C216.534 53.8114 216.513 53.8329 216.495 53.7986C216.478 53.7771 216.461 53.7384 216.444 53.7083C216.414 53.6395 216.388 53.5622 216.362 53.4891C216.315 53.3387 216.276 53.1797 216.242 53.0207C215.989 51.7571 215.869 50.5495 215.757 49.4621V49.475C215.766 49.2559 215.753 49.0453 215.689 48.8347C215.654 48.7315 215.607 48.6284 215.521 48.5467C215.435 48.4651 215.315 48.4264 215.204 48.4307L215.229 48.435C215.058 48.4049 214.929 48.508 214.86 48.6112C214.787 48.7186 214.753 48.8347 214.727 48.9464C214.68 49.1742 214.68 49.3848 214.671 49.5911C214.654 50.0037 214.654 50.3948 214.663 50.7558C214.676 51.4907 214.843 52.0967 214.899 52.5952C214.972 53.0937 215.028 53.4805 215.053 53.7427C215.079 53.8673 214.98 53.949 214.929 53.9662C214.852 53.9962 214.813 54.0005 214.817 54.0048Z" fill="#B66955"/>
<path d="M186.867 75.9351C186.867 75.9351 185.678 75.8792 184.382 76.2187C182.167 76.8032 178.339 79.124 178.18 81.9949H180.957C180.957 81.9949 179.399 85.3127 179.858 85.0033C181.043 84.2082 183.408 81.8015 183.408 81.8015L186.867 75.9351Z" fill="#FFBF9D"/>
<path d="M224.774 26.0005C224.714 26.0048 224.46 23.7055 224.212 20.8604C223.963 18.0153 223.808 15.7074 223.873 15.7031C223.933 15.6988 224.186 17.9981 224.435 20.8432C224.684 23.6883 224.834 25.9962 224.774 26.0005Z" fill="#667280"/>
<path d="M236.966 15.8441C237.018 15.8785 235.138 18.6075 232.773 21.9382C230.409 25.269 228.448 27.9379 228.396 27.9035C228.345 27.8691 230.224 25.1401 232.589 21.8093C234.954 18.4786 236.915 15.8097 236.966 15.8441Z" fill="#667280"/>
<path d="M242.03 28.213C242.043 28.2731 239.85 28.776 237.138 29.3347C234.421 29.8934 232.211 30.2974 232.198 30.2372C232.185 30.177 234.378 29.6742 237.091 29.1155C239.807 28.5568 242.017 28.1528 242.03 28.213Z" fill="#667280"/>
<path d="M96.0703 87.244L80.8954 165.377L78.9084 175.605L180.215 175.107C184.759 175.085 188.789 171.041 190.253 165.037L208.217 91.271C209.329 86.7111 206.891 81.9707 203.441 81.9707L100.907 82.0781C98.641 82.0824 96.6626 84.1969 96.0703 87.244Z" fill="#375A64"/>
<path d="M170.499 160.086L159.774 73.5259C159.336 69.9803 156.512 67.3329 153.182 67.3458L129.66 67.4231C127.918 67.4274 126.248 68.1709 125.012 69.486L113.846 81.3735L48.4298 81.7173C44.4343 81.7388 41.3616 85.5251 41.8895 89.7842L51.8501 169.786C52.2922 173.328 55.1074 175.971 58.4334 175.962L172.438 175.739C185.137 176.001 186.347 172.249 186.347 172.249C171.795 175.472 170.499 160.095 170.499 160.086Z" fill="#4B7986"/>
<g opacity="0.5">
<path d="M121.339 142.762L117.494 146.897L87.8818 120.216L91.7271 116.082L121.339 142.762Z" fill="white"/>
<path d="M115.884 115.166L120.133 118.995L93.3363 147.812L89.0876 143.987L115.884 115.166Z" fill="white"/>
</g>
<path d="M186.055 76.4351C186.055 76.4351 184.866 76.3792 183.57 76.7187C181.356 77.3032 177.528 79.624 177.369 82.4949H180.146C180.146 82.4949 178.588 85.8127 179.047 85.5033C180.232 84.7082 182.596 82.3015 182.596 82.3015L186.055 76.4351Z" fill="#FFBF9D"/>
<path d="M186.776 31.0456C186.502 30.9296 186.304 30.6588 186.292 30.3408L186.12 26.3525C186.107 26.1033 186.214 25.8583 186.407 25.6993C186.6 25.5402 186.858 25.4801 187.103 25.5359C187.742 25.6864 188.45 25.5488 189.038 25.1535C189.583 24.7881 189.948 24.2552 190.038 23.6836C190.132 23.1163 189.956 22.4846 189.557 21.9559C189.128 21.3886 188.497 21.0104 187.866 20.9374C186.575 20.787 185.18 21.7797 184.82 23.1034C184.704 23.5289 184.266 23.7825 183.837 23.6664C183.403 23.5461 183.159 23.1077 183.275 22.6823C183.837 20.6022 185.982 19.1066 188.051 19.3429C189.124 19.4676 190.141 20.0649 190.836 20.989C191.497 21.8657 191.785 22.9401 191.622 23.9415C191.459 24.9472 190.841 25.8755 189.926 26.4857C189.266 26.9284 188.51 27.1691 187.755 27.1949L187.888 30.272C187.905 30.7147 187.566 31.0886 187.124 31.1058C187.004 31.1144 186.884 31.0929 186.776 31.0456Z" fill="#FF4F5B"/>
<path d="M187.952 32.6784C187.978 33.0394 187.703 33.3531 187.343 33.3789C186.982 33.4047 186.669 33.1296 186.643 32.7686C186.618 32.4076 186.892 32.0939 187.253 32.0681C187.613 32.0423 187.926 32.3173 187.952 32.6784Z" fill="#FF4F5B"/>
<path d="M172.988 25.4207C172.992 25.4207 173.005 25.3305 173.026 25.1585C173.048 24.9737 173.073 24.7159 173.112 24.3893C173.129 24.0497 173.219 23.6372 173.318 23.1558C173.374 22.9151 173.404 22.6487 173.494 22.3779C173.58 22.1072 173.666 21.8149 173.76 21.5098C174.176 20.3021 174.816 18.8538 175.893 17.414C176.962 15.9786 178.468 14.5561 180.399 13.4816C181.352 12.9143 182.438 12.5189 183.579 12.1665C184.738 11.8915 185.965 11.6551 187.248 11.6852C187.888 11.6508 188.536 11.7454 189.197 11.8012C189.527 11.8313 189.849 11.9216 190.18 11.9774C190.51 12.0376 190.845 12.1021 191.167 12.2181C192.493 12.5576 193.78 13.1851 195.003 13.9587C197.467 15.5102 199.539 18.0329 200.677 21.0929C201.247 22.6229 201.518 24.299 201.518 25.9966C201.552 27.6942 201.222 29.4176 200.621 31.0421L200.428 31.5321L200.402 31.5965L200.428 31.6567C201.505 34.1408 202.561 36.5733 203.582 38.9328L203.762 38.7265C201.548 37.8755 199.398 37.046 197.334 36.2553L197.252 36.2252L197.188 36.2854C195.402 38.0173 193.274 39.1863 191.119 39.7923C188.956 40.4026 186.776 40.4327 184.798 40.0802C182.811 39.7278 181.026 38.9671 179.532 37.9916C178.039 37.016 176.837 35.8255 175.914 34.6178C174.996 33.3973 174.391 32.1423 173.936 31.0249C173.533 29.8817 173.288 28.8675 173.168 28.0251C173.116 27.604 173.073 27.2343 173.035 26.9077C173.026 26.5854 173.018 26.3146 173.013 26.0869C173.005 25.8763 173 25.7087 172.996 25.584C172.996 25.4809 172.992 25.4207 172.988 25.4207C172.983 25.4207 172.979 25.4766 172.979 25.5926C172.979 25.7172 172.975 25.8849 172.97 26.0955C172.97 26.3232 172.97 26.5983 172.97 26.9206C173.005 27.2472 173.043 27.6254 173.082 28.0466C173.189 28.8933 173.421 29.9204 173.816 31.0808C174.262 32.2154 174.863 33.4875 175.781 34.7339C176.708 35.963 177.914 37.1793 179.425 38.1806C180.931 39.182 182.742 39.9642 184.759 40.3295C186.772 40.6948 188.987 40.6733 191.188 40.0588C193.385 39.4442 195.557 38.2623 197.381 36.5002L197.239 36.5303C199.299 37.3254 201.449 38.1549 203.664 39.0144L203.985 39.139L203.844 38.8081C202.822 36.4487 201.767 34.0119 200.694 31.5278V31.6524L200.891 31.1496C201.509 29.4907 201.844 27.7243 201.81 25.9923C201.81 24.2603 201.531 22.5455 200.947 20.9812C199.784 17.8567 197.66 15.2867 195.149 13.7137C193.896 12.9272 192.587 12.2955 191.235 11.9516C190.905 11.8399 190.566 11.7754 190.231 11.711C189.896 11.6551 189.566 11.5648 189.231 11.5348C188.562 11.4789 187.905 11.3886 187.253 11.4273C185.948 11.4015 184.704 11.6465 183.528 11.9302C182.369 12.2912 181.27 12.6994 180.309 13.2796C178.356 14.3842 176.841 15.8325 175.769 17.298C174.691 18.7635 174.056 20.2377 173.657 21.4582C173.567 21.7676 173.481 22.0599 173.4 22.3392C173.314 22.6143 173.288 22.8851 173.237 23.1257C173.142 23.6157 173.065 24.0282 173.056 24.3721C173.031 24.703 173.013 24.9566 173.001 25.1457C172.983 25.3348 172.979 25.4207 172.988 25.4207Z" fill="#667280"/>
</svg>
