<svg width="436" height="300" viewBox="0 0 436 300" fill="none" xmlns="http://www.w3.org/2000/svg">
<path d="M101.524 49.3294L17.4316 105.451L100.259 228.991L184.351 172.869L101.524 49.3294Z" fill="#FDFDFD"/>
<path d="M140.894 167.02L139.943 172.912L98.1377 166.901L99.0895 161.008L140.894 167.02Z" fill="#E1E1E1"/>
<path d="M119.842 146.001L125.838 146.861L119.19 187.927L113.187 187.06L119.842 146.001Z" fill="#E1E1E1"/>
<path d="M81.3346 93.8087C81.3945 93.8984 72.9706 99.6261 62.5156 106.603C52.0606 113.579 43.5393 119.165 43.4793 119.075C43.4194 118.985 51.8433 113.257 62.2983 106.281C72.7532 99.2971 81.2746 93.719 81.3346 93.8087Z" fill="#E1E1E1"/>
<path d="M112.265 86.0622C112.325 86.1519 98.3097 95.6108 80.9671 107.178C63.6171 118.753 49.5123 128.063 49.4523 127.973C49.3924 127.883 63.3998 118.432 80.7498 106.849C98.0923 95.2818 112.205 85.9724 112.265 86.0622Z" fill="#E1E1E1"/>
<path d="M118.463 95.3044C118.523 95.3941 104.508 104.853 87.1654 116.421C69.8154 127.996 55.7105 137.305 55.6506 137.215C55.5906 137.126 69.598 127.674 86.9481 116.092C104.291 104.531 118.403 95.2146 118.463 95.3044Z" fill="#E1E1E1"/>
<path d="M124.661 104.554C124.721 104.644 110.706 114.103 93.3636 125.67C76.0136 137.245 61.9088 146.555 61.8488 146.465C61.7889 146.375 75.7963 136.924 93.1463 125.341C110.489 113.774 124.601 104.464 124.661 104.554Z" fill="#E1E1E1"/>
<path d="M130.859 113.803C130.919 113.893 116.904 123.352 99.5614 134.92C82.2114 146.495 68.1065 155.804 68.0466 155.714C67.9866 155.625 81.994 146.173 99.344 134.591C116.687 123.023 130.799 113.714 130.859 113.803Z" fill="#E1E1E1"/>
<path d="M349.98 135.266L286.555 177.595L349.024 270.77L412.449 228.441L349.98 135.266Z" fill="#FDFDFD"/>
<path d="M379.674 224.045L378.954 228.49L347.428 223.958L348.141 219.512L379.674 224.045Z" fill="#E1E1E1"/>
<path d="M363.797 208.19L368.32 208.842L363.306 239.812L358.776 239.161L363.797 208.19Z" fill="#E1E1E1"/>
<path d="M334.754 168.826C334.808 168.907 328.461 173.238 320.573 178.496C312.684 183.761 306.25 187.958 306.196 187.877C306.142 187.797 312.489 183.465 320.378 178.201C328.266 172.943 334.7 168.746 334.754 168.826Z" fill="#E1E1E1"/>
<path d="M358.076 162.984C358.13 163.065 347.569 170.21 334.485 178.939C321.401 187.669 310.753 194.68 310.699 194.599C310.645 194.519 321.205 187.38 334.29 178.644C347.374 169.914 358.022 162.904 358.076 162.984Z" fill="#E1E1E1"/>
<path d="M362.754 169.955C362.807 170.035 352.247 177.18 339.163 185.91C326.078 194.64 315.431 201.65 315.377 201.57C315.323 201.489 325.883 194.351 338.968 185.615C352.052 176.891 362.7 169.881 362.754 169.955Z" fill="#E1E1E1"/>
<path d="M367.431 176.931C367.485 177.012 356.925 184.157 343.84 192.887C330.756 201.616 320.108 208.627 320.054 208.546C320.001 208.466 330.561 201.328 343.645 192.591C356.723 183.861 367.377 176.851 367.431 176.931Z" fill="#E1E1E1"/>
<path d="M372.102 183.909C372.156 183.989 361.596 191.134 348.511 199.864C335.427 208.594 324.779 215.605 324.725 215.524C324.671 215.443 335.232 208.305 348.316 199.569C361.401 190.839 372.048 183.828 372.102 183.909Z" fill="#E1E1E1"/>
<path d="M271.177 59.357L189.921 16L125.933 135.372L207.188 178.729L271.177 59.357Z" fill="white"/>
<path d="M195.97 134.676L190.817 136.434L177.73 100.346L182.883 98.5796L195.97 134.676Z" fill="#E1E1E1"/>
<path d="M203.873 108.782L205.754 113.962L169.827 126.239L167.946 121.059L203.873 108.782Z" fill="#E1E1E1"/>
<path d="M226.706 62.2442C226.643 62.3625 218.4 58.089 208.3 52.6958C198.193 47.3027 190.061 42.8399 190.124 42.7216C190.187 42.6034 198.43 46.8769 208.53 52.27C218.637 57.6632 226.769 62.126 226.706 62.2442Z" fill="#E1E1E1"/>
<path d="M246.211 83.7224C246.148 83.8407 232.507 76.6892 215.753 67.7479C198.991 58.8067 185.454 51.4581 185.517 51.3398C185.58 51.2216 199.22 58.373 215.982 67.3222C232.736 76.2556 246.274 83.6041 246.211 83.7224Z" fill="#E1E1E1"/>
<path d="M241.422 92.656C241.358 92.7743 227.718 85.6228 210.964 76.6815C194.202 67.7403 180.665 60.3917 180.728 60.2734C180.791 60.1551 194.431 67.3066 211.193 76.2558C227.947 85.1891 241.485 92.5377 241.422 92.656Z" fill="#E1E1E1"/>
<path d="M236.633 101.59C236.569 101.708 222.929 94.5564 206.175 85.6151C189.413 76.6738 175.875 69.3253 175.939 69.207C176.002 69.0887 189.642 76.2402 206.404 85.1893C223.158 94.1227 236.696 101.471 236.633 101.59Z" fill="#E1E1E1"/>
<path d="M231.843 110.523C231.78 110.641 218.139 103.49 201.385 94.5482C184.623 85.607 171.086 78.2584 171.149 78.1401C171.212 78.0218 184.853 85.1733 201.615 94.1225C218.369 103.056 231.906 110.404 231.843 110.523Z" fill="#E1E1E1"/>
<path d="M333.341 49.6453C331.362 50.1019 330.399 52.3717 330.211 54.3862C330.022 56.4008 330.278 58.5362 329.43 60.3762C328.474 62.4512 326.193 63.9755 326.112 66.252C326.065 67.642 326.893 68.9515 326.852 70.3415C326.785 72.6247 324.456 74.3505 324.335 76.6269C324.247 78.2722 325.345 79.8435 325.082 81.4686C324.88 82.7311 323.891 83.7249 323.473 84.9403C322.646 87.3511 324.301 90.0103 326.469 91.3668C328.878 92.8777 331.968 93.2739 334.68 92.4076C337.392 91.5414 339.681 89.4395 340.764 86.8072C341.963 83.9062 341.7 80.6426 341.438 77.5133C340.623 67.7696 340.024 58.0124 339.627 48.2485" fill="#0F1B1E"/>
<path d="M327.592 84.0199C327.552 83.9796 328.131 83.805 328.494 82.9455C328.669 82.5224 328.763 81.9584 328.723 81.307C328.703 80.6489 328.474 79.9371 328.232 79.1313C328.003 78.3322 327.713 77.4055 327.882 76.378C328.05 75.3305 328.804 74.4709 329.484 73.6315C329.827 73.2017 330.177 72.7585 330.392 72.2549C330.621 71.758 330.668 71.1805 330.5 70.6433C330.15 69.5487 329.073 68.7361 328.582 67.4737C328.339 66.8357 328.333 66.1441 328.474 65.5129C328.609 64.8816 328.864 64.3041 329.127 63.7535C329.652 62.6589 330.237 61.6583 330.466 60.5906C330.937 58.4619 330.715 56.4272 331.038 54.7551C331.328 53.083 332.041 51.8206 332.741 51.1759C333.085 50.8402 333.414 50.6656 333.63 50.5447C333.859 50.444 333.98 50.4037 333.986 50.4104C334.007 50.4507 333.488 50.6051 332.835 51.2699C332.189 51.9213 331.536 53.1569 331.281 54.7954C331.146 55.6079 331.126 56.5279 331.092 57.5083C331.059 58.4888 331.025 59.5565 330.776 60.6578C330.54 61.7725 329.948 62.8201 329.437 63.8878C328.932 64.9421 328.467 66.1777 328.912 67.3327C329.342 68.4743 330.426 69.2868 330.83 70.5224C331.032 71.1402 330.964 71.8184 330.702 72.3691C330.453 72.9264 330.089 73.3898 329.739 73.8195C329.033 74.6657 328.333 75.4782 328.171 76.4183C328.003 77.3517 328.265 78.2583 328.474 79.0507C328.696 79.8498 328.918 80.6019 328.925 81.2868C328.945 81.9651 328.831 82.556 328.622 82.9858C328.42 83.4223 328.138 83.6976 327.936 83.8319C327.727 83.9931 327.592 84.0199 327.592 84.0199Z" fill="#375A64"/>
<path d="M322.295 99.9419L316.218 117.415L290.884 118.771L286.657 128.146L313.108 130.818C318.385 132.994 324.409 130.328 326.334 124.969L333.394 105.307L322.295 99.9419Z" fill="#FFBF9D"/>
<path d="M369.315 264.686C369.315 264.686 354.872 205.847 354.562 203.94C354.286 202.214 359.805 159.875 360.498 148.916L340.98 149.849C340.98 149.849 340.98 149.917 340.98 150.031L332.681 150.622L340.111 270.951H349.09L348.201 231.029C353.741 250.101 361.676 269.528 361.676 269.528L369.315 264.686Z" fill="#FFBF9D"/>
<path d="M348.578 245.333C348.585 244.97 348.471 231.956 348.471 231.956C348.356 232.735 345.025 220.661 345.105 219.923C345.146 219.546 348.578 245.333 348.578 245.333Z" fill="#B66955"/>
<path d="M345.287 214.026C345.26 214.026 345.213 214.282 345.146 214.745C345.078 215.208 345.004 215.886 344.971 216.733C344.944 217.156 344.95 217.619 344.957 218.116C344.971 218.613 344.991 219.143 345.051 219.701C345.159 220.815 345.368 222.024 345.657 223.28C346.263 225.785 346.983 227.987 347.488 229.585C347.73 230.317 347.939 230.942 348.114 231.472C348.269 231.916 348.37 232.157 348.397 232.151C348.423 232.144 348.37 231.889 348.262 231.432C348.148 230.976 347.973 230.317 347.75 229.512C347.306 227.893 346.633 225.671 346.034 223.193C345.745 221.95 345.529 220.762 345.401 219.667C345.334 219.123 345.3 218.599 345.274 218.109C345.253 217.619 345.233 217.162 345.24 216.746C345.24 215.913 345.267 215.235 345.294 214.765C345.314 214.295 345.314 214.033 345.287 214.026Z" fill="#B66955"/>
<path d="M339.125 271.54L339.119 270.574L349.087 270.113L349.115 274.094L348.502 274.136C345.768 274.304 334.581 274.795 332.748 274.214C330.706 273.572 339.125 271.54 339.125 271.54Z" fill="#375A64"/>
<path d="M349.251 273.86C349.251 273.866 349.195 273.872 349.081 273.878C348.934 273.89 348.775 273.896 348.593 273.914C348.105 273.938 347.504 273.968 346.789 274.004C345.269 274.07 343.164 274.124 340.838 274.136C338.512 274.148 336.407 274.106 334.887 274.058C334.178 274.028 333.576 274.004 333.083 273.986C332.901 273.974 332.742 273.968 332.595 273.956C332.482 273.95 332.425 273.944 332.425 273.938C332.425 273.932 332.482 273.932 332.595 273.932C332.742 273.932 332.901 273.938 333.083 273.938C333.571 273.944 334.178 273.956 334.887 273.968C336.407 273.992 338.512 274.022 340.838 274.01C343.158 273.998 345.263 273.956 346.789 273.914C347.498 273.896 348.1 273.878 348.593 273.866C348.775 273.86 348.934 273.86 349.081 273.854C349.195 273.854 349.251 273.854 349.251 273.86Z" fill="#1A2E35"/>
<path d="M335.897 274.196C335.863 274.202 335.829 273.747 335.556 273.291C335.29 272.829 334.921 272.595 334.938 272.566C334.944 272.536 335.369 272.727 335.659 273.225C335.948 273.717 335.925 274.208 335.897 274.196Z" fill="#1A2E35"/>
<path d="M338.812 272.619C338.784 272.637 338.642 272.457 338.5 272.217C338.353 271.978 338.262 271.768 338.285 271.75C338.313 271.732 338.455 271.912 338.597 272.151C338.75 272.391 338.841 272.601 338.812 272.619Z" fill="#1A2E35"/>
<path d="M339.618 272.164C339.595 272.188 339.436 272.08 339.266 271.918C339.096 271.756 338.971 271.606 338.994 271.576C339.017 271.552 339.175 271.66 339.346 271.822C339.516 271.99 339.641 272.14 339.618 272.164Z" fill="#1A2E35"/>
<path d="M340.123 271.174C340.123 271.21 339.89 271.24 339.607 271.246C339.323 271.252 339.09 271.228 339.09 271.192C339.09 271.156 339.323 271.126 339.607 271.12C339.89 271.114 340.123 271.138 340.123 271.174Z" fill="#1A2E35"/>
<path d="M340.293 270.478C340.304 270.508 340.055 270.628 339.714 270.658C339.38 270.688 339.113 270.61 339.119 270.574C339.124 270.538 339.385 270.556 339.703 270.532C340.026 270.502 340.282 270.442 340.293 270.478Z" fill="#1A2E35"/>
<path d="M338.478 271.702C338.478 271.714 338.234 271.75 337.843 271.702C337.644 271.678 337.411 271.63 337.162 271.546C337.037 271.498 336.906 271.468 336.77 271.378C336.708 271.336 336.634 271.27 336.611 271.168C336.583 271.066 336.634 270.953 336.708 270.899C337.315 270.563 337.928 270.923 338.155 271.252C338.279 271.42 338.336 271.588 338.364 271.702C338.393 271.816 338.387 271.882 338.381 271.882C338.359 271.888 338.336 271.618 338.087 271.306C337.962 271.156 337.78 271.006 337.542 270.935C337.315 270.863 336.997 270.845 336.782 270.994C336.68 271.072 336.719 271.198 336.833 271.27C336.941 271.342 337.071 271.384 337.19 271.432C337.434 271.516 337.655 271.576 337.848 271.612C338.234 271.684 338.478 271.684 338.478 271.702Z" fill="#1A2E35"/>
<path d="M338.313 271.738C338.302 271.744 338.211 271.576 338.239 271.27C338.256 271.12 338.307 270.946 338.41 270.779C338.523 270.629 338.665 270.425 338.937 270.431C339.085 270.449 339.158 270.629 339.136 270.743C339.124 270.862 339.073 270.964 339.028 271.042C338.931 271.21 338.829 271.348 338.727 271.45C338.529 271.66 338.37 271.738 338.364 271.726C338.353 271.708 338.489 271.606 338.665 271.39C338.75 271.282 338.846 271.15 338.931 270.982C339.017 270.839 339.079 270.587 338.92 270.557C338.761 270.539 338.597 270.707 338.5 270.844C338.398 270.988 338.347 271.15 338.319 271.282C338.273 271.558 338.33 271.732 338.313 271.738Z" fill="#1A2E35"/>
<path d="M349.041 270.988C349.041 271.012 348.758 270.958 348.31 271.018C347.867 271.072 347.249 271.264 346.715 271.72C346.182 272.175 345.864 272.769 345.723 273.213C345.575 273.662 345.558 273.962 345.535 273.962C345.53 273.962 345.524 273.884 345.535 273.752C345.547 273.614 345.575 273.423 345.643 273.189C345.774 272.721 346.086 272.097 346.642 271.624C347.198 271.15 347.844 270.964 348.304 270.928C348.536 270.91 348.724 270.922 348.848 270.94C348.973 270.964 349.041 270.982 349.041 270.988Z" fill="#1A2E35"/>
<path d="M344.27 273.021C344.276 273.051 343.629 273.165 342.823 273.165C342.018 273.171 341.371 273.069 341.371 273.033C341.377 272.997 342.023 273.039 342.818 273.033C343.618 273.039 344.264 272.985 344.27 273.021Z" fill="#1A2E35"/>
<path d="M346.21 273.003C346.232 273.027 346.159 273.147 346.091 273.303C346.023 273.459 345.989 273.597 345.955 273.597C345.921 273.597 345.904 273.429 345.983 273.249C346.057 273.069 346.187 272.973 346.21 273.003Z" fill="#1A2E35"/>
<path d="M346.941 272.038C346.964 272.062 346.902 272.169 346.8 272.283C346.698 272.391 346.596 272.463 346.573 272.439C346.551 272.415 346.613 272.307 346.715 272.193C346.811 272.08 346.913 272.008 346.941 272.038Z" fill="#1A2E35"/>
<path d="M347.986 271.588C347.98 271.624 347.85 271.624 347.702 271.678C347.555 271.731 347.453 271.815 347.424 271.791C347.396 271.773 347.481 271.624 347.663 271.558C347.844 271.492 347.997 271.558 347.986 271.588Z" fill="#1A2E35"/>
<path d="M348.728 271.378C348.74 271.408 348.683 271.462 348.604 271.498C348.525 271.534 348.445 271.534 348.434 271.498C348.423 271.468 348.479 271.414 348.559 271.378C348.643 271.348 348.717 271.348 348.728 271.378Z" fill="#1A2E35"/>
<path d="M360.334 269.811L359.917 268.933L369.7 264.216L371.425 267.823L370.828 268.127C368.162 269.459 357.164 274.726 355.084 274.988C352.768 275.287 360.334 269.811 360.334 269.811Z" fill="#375A64"/>
<path d="M371.463 267.547C371.463 267.553 371.407 267.583 371.301 267.637C371.158 267.709 371.002 267.786 370.828 267.876C370.348 268.109 369.756 268.395 369.059 268.736C367.564 269.452 365.478 270.408 363.155 271.423C360.833 272.432 358.709 273.304 357.158 273.919C356.436 274.2 355.819 274.438 355.321 274.63C355.134 274.701 354.972 274.761 354.817 274.815C354.698 274.857 354.642 274.874 354.636 274.868C354.636 274.862 354.692 274.839 354.804 274.791C354.954 274.731 355.116 274.659 355.296 274.582C355.788 274.379 356.399 274.128 357.115 273.835C358.653 273.202 360.77 272.319 363.093 271.309C365.416 270.3 367.502 269.351 369.009 268.658C369.713 268.336 370.311 268.061 370.796 267.834C370.977 267.75 371.139 267.679 371.282 267.613C371.401 267.571 371.463 267.547 371.463 267.547Z" fill="#1A2E35"/>
<path d="M358.229 273.621C358.192 273.639 357.974 273.238 357.501 272.94C357.04 272.635 356.567 272.582 356.573 272.546C356.567 272.516 357.077 272.51 357.575 272.838C358.08 273.155 358.267 273.615 358.229 273.621Z" fill="#1A2E35"/>
<path d="M360.484 270.922C360.465 270.951 360.247 270.85 359.998 270.695C359.749 270.539 359.568 270.39 359.587 270.36C359.605 270.33 359.823 270.432 360.073 270.587C360.322 270.742 360.502 270.892 360.484 270.922Z" fill="#1A2E35"/>
<path d="M361.094 270.169C361.082 270.205 360.876 270.169 360.64 270.098C360.397 270.026 360.216 269.936 360.222 269.907C360.235 269.871 360.434 269.907 360.677 269.978C360.92 270.05 361.107 270.134 361.094 270.169Z" fill="#1A2E35"/>
<path d="M361.181 269.046C361.193 269.076 360.975 269.208 360.695 269.333C360.409 269.458 360.166 269.536 360.153 269.506C360.141 269.476 360.359 269.345 360.639 269.22C360.919 269.094 361.162 269.017 361.181 269.046Z" fill="#1A2E35"/>
<path d="M361.05 268.342C361.075 268.366 360.876 268.587 360.552 268.754C360.228 268.927 359.929 268.969 359.923 268.939C359.91 268.903 360.184 268.808 360.489 268.646C360.795 268.479 361.025 268.312 361.05 268.342Z" fill="#1A2E35"/>
<path d="M359.755 270.241C359.761 270.253 359.531 270.39 359.114 270.515C358.908 270.575 358.653 270.635 358.366 270.665C358.223 270.677 358.08 270.701 357.906 270.683C357.825 270.671 357.725 270.641 357.657 270.563C357.588 270.486 357.588 270.36 357.638 270.277C358.105 269.709 358.871 269.775 359.238 269.978C359.438 270.079 359.562 270.205 359.637 270.294C359.712 270.39 359.737 270.45 359.73 270.45C359.712 270.468 359.575 270.229 359.195 270.056C359.008 269.972 358.759 269.918 358.491 269.954C358.236 269.99 357.906 270.109 357.756 270.336C357.688 270.45 357.781 270.551 357.924 270.563C358.061 270.581 358.217 270.563 358.354 270.551C358.634 270.527 358.883 270.48 359.089 270.432C359.506 270.324 359.749 270.223 359.755 270.241Z" fill="#1A2E35"/>
<path d="M359.606 270.342C359.6 270.354 359.431 270.235 359.332 269.948C359.282 269.805 359.257 269.626 359.294 269.429C359.344 269.244 359.4 268.993 359.68 268.885C359.836 268.838 360.204 269.142 360.228 269.256C360.266 269.369 360.042 269.309 360.035 269.405C360.011 269.596 359.967 269.769 359.911 269.907C359.799 270.181 359.674 270.319 359.662 270.313C359.643 270.301 359.736 270.145 359.824 269.877C359.867 269.739 359.905 269.578 359.917 269.393C359.942 269.226 359.892 268.969 359.718 269.011C359.55 269.065 359.463 269.286 359.419 269.453C359.382 269.626 359.394 269.793 359.425 269.93C359.487 270.193 359.624 270.331 359.606 270.342Z" fill="#1A2E35"/>
<path d="M370.03 265.034C370.037 265.058 369.732 265.129 369.308 265.374C368.885 265.613 368.349 266.055 368.007 266.7C367.664 267.345 367.602 268.019 367.645 268.485C367.689 268.957 367.801 269.238 367.776 269.244C367.77 269.244 367.733 269.178 367.683 269.053C367.633 268.927 367.583 268.736 367.546 268.491C367.477 268.013 367.521 267.309 367.882 266.634C368.237 265.965 368.81 265.511 369.252 265.29C369.476 265.177 369.669 265.105 369.806 265.07C369.956 265.04 370.03 265.028 370.03 265.034Z" fill="#1A2E35"/>
<path d="M366.12 268.939C366.138 268.969 365.534 269.345 364.731 269.697C363.927 270.05 363.236 270.235 363.224 270.205C363.211 270.169 363.878 269.93 364.675 269.584C365.472 269.237 366.101 268.909 366.12 268.939Z" fill="#1A2E35"/>
<path d="M368.056 268.085C368.093 268.097 368.062 268.24 368.068 268.413C368.068 268.587 368.093 268.724 368.056 268.742C368.025 268.754 367.932 268.616 367.932 268.413C367.932 268.21 368.019 268.067 368.056 268.085Z" fill="#1A2E35"/>
<path d="M368.373 266.891C368.404 266.902 368.392 267.028 368.336 267.171C368.28 267.315 368.205 267.422 368.174 267.41C368.143 267.398 368.156 267.273 368.212 267.129C368.268 266.986 368.336 266.879 368.373 266.891Z" fill="#1A2E35"/>
<path d="M369.233 266.037C369.239 266.073 369.109 266.127 368.984 266.24C368.86 266.348 368.791 266.473 368.754 266.461C368.716 266.455 368.741 266.282 368.891 266.145C369.046 266.007 369.227 266.001 369.233 266.037Z" fill="#1A2E35"/>
<path d="M369.887 265.524C369.911 265.547 369.88 265.619 369.812 265.691C369.744 265.756 369.669 265.792 369.644 265.768C369.619 265.744 369.65 265.673 369.719 265.601C369.787 265.535 369.862 265.5 369.887 265.524Z" fill="#1A2E35"/>
<path d="M361.744 128.999L359.772 105.025L369.888 105.207C369.888 105.207 370.359 101.674 368.865 93.9184C367.949 89.164 364.779 86.2496 361.219 84.5171V84.4567L360.909 84.3761C356.379 82.2608 351.641 81.9653 351.641 81.9653L339.223 82.1063C339.223 82.1063 329.74 80.9245 324.49 87.6732C322.47 90.272 316.211 108.061 316.211 108.061L331.113 115.219L329.692 105.354C329.692 105.354 329.975 112.506 330.89 114.769C331.402 116.032 332.876 119.953 332.876 119.953L332.681 131.779L361.744 128.999Z" fill="#E1E1E1"/>
<path d="M354.898 101.547L353.054 109.377H370.439L369.295 96.2417L354.898 101.547Z" fill="#E1E1E1"/>
<path d="M370.44 109.377C370.44 109.323 369.565 109.236 368.138 109.148C366.711 109.068 364.739 108.994 362.565 109.007C360.384 109.021 358.412 109.115 356.992 109.222C355.565 109.336 354.69 109.457 354.697 109.504C354.704 109.558 355.585 109.538 357.005 109.491C358.432 109.451 360.398 109.397 362.565 109.383C364.739 109.377 366.704 109.404 368.131 109.417C369.551 109.437 370.44 109.431 370.44 109.377Z" fill="#1A2E35"/>
<path d="M354.145 96.1812C354.091 96.1812 354.071 96.9467 354.084 98.1756C354.098 99.4044 354.145 101.103 354.212 102.977C354.286 104.85 354.374 106.549 354.454 107.772C354.535 109 354.616 109.753 354.67 109.753C354.724 109.753 354.744 108.987 354.73 107.758C354.717 106.529 354.67 104.83 354.602 102.957C354.528 101.083 354.441 99.391 354.36 98.1621C354.279 96.9333 354.199 96.1812 354.145 96.1812Z" fill="#1A2E35"/>
<g opacity="0.3">
<path d="M338.328 102.964C338.328 102.964 342.191 131.55 353.054 130.792C353.054 130.792 357.947 130.731 359.516 127.488V126.212L338.328 102.964Z" fill="black"/>
</g>
<path d="M332.889 119.947C332.869 119.953 332.761 119.718 332.593 119.275C332.425 118.839 332.203 118.194 331.94 117.402C331.422 115.803 330.782 113.574 330.278 111.056C329.78 108.538 329.531 106.228 329.457 104.549C329.416 103.709 329.403 103.031 329.416 102.561C329.423 102.091 329.443 101.829 329.463 101.829C329.517 101.829 329.558 102.863 329.699 104.529C329.84 106.194 330.123 108.484 330.621 110.989C331.119 113.487 331.718 115.716 332.176 117.328C332.391 118.073 332.573 118.711 332.721 119.235C332.849 119.685 332.909 119.94 332.889 119.947Z" fill="#1A2E35"/>
<path d="M337.278 128.159C337.184 128.186 336.914 127.568 336.679 126.782C336.436 125.997 336.322 125.332 336.416 125.305C336.51 125.278 336.78 125.896 337.015 126.682C337.251 127.474 337.372 128.132 337.278 128.159Z" fill="#1A2E35"/>
<path d="M338.778 128.052C338.691 128.072 338.395 127.152 338.382 125.963C338.362 124.775 338.624 123.842 338.718 123.862C338.818 123.882 338.711 124.808 338.731 125.957C338.745 127.105 338.879 128.032 338.778 128.052Z" fill="#1A2E35"/>
<path d="M331.429 115.541C331.388 115.628 327.915 113.983 323.682 111.875C319.448 109.766 316.049 107.98 316.09 107.892C316.13 107.805 319.603 109.45 323.837 111.559C328.07 113.668 331.469 115.454 331.429 115.541Z" fill="#1A2E35"/>
<path d="M337.54 84.4161C337.621 81.0182 337.634 77.439 337.634 77.439C337.634 77.439 333.266 76.5996 332.506 70.8648C331.779 65.3987 333.811 52.5659 333.811 52.5659C340.192 50.1619 346.822 52.3376 351.19 57.4949L350.106 85.0742C349.978 88.2773 347.118 90.7216 343.685 90.5605C340.212 90.406 337.466 87.6528 337.54 84.4161Z" fill="#FFBF9D"/>
<path d="M333.474 62.8272C333.447 63.2167 333.757 63.5524 334.161 63.586C334.565 63.6196 334.908 63.3308 334.935 62.948C334.962 62.5586 334.652 62.2228 334.248 62.1892C333.851 62.1557 333.501 62.4377 333.474 62.8272Z" fill="#1A2E35"/>
<path d="M333.206 61.8664C333.293 61.9672 333.858 61.571 334.653 61.5911C335.44 61.6045 336.012 62.0209 336.1 61.9269C336.14 61.8866 336.053 61.712 335.81 61.524C335.568 61.3359 335.151 61.1479 334.653 61.1345C334.161 61.1278 333.744 61.2956 333.502 61.4702C333.246 61.6515 333.158 61.8194 333.206 61.8664Z" fill="#1A2E35"/>
<path d="M341.491 63.3237C341.464 63.7132 341.774 64.0489 342.177 64.0825C342.581 64.1161 342.925 63.8273 342.951 63.4446C342.978 63.0551 342.669 62.7193 342.265 62.6858C341.861 62.6522 341.518 62.9409 341.491 63.3237Z" fill="#1A2E35"/>
<path d="M341.437 62.3634C341.525 62.4641 342.09 62.0679 342.884 62.0881C343.672 62.1015 344.244 62.5178 344.331 62.4238C344.372 62.3835 344.284 62.2089 344.035 62.0142C343.793 61.8262 343.376 61.6381 342.878 61.6247C342.386 61.618 341.969 61.7859 341.727 61.9605C341.484 62.1485 341.397 62.3164 341.437 62.3634Z" fill="#1A2E35"/>
<path d="M338.422 68.1322C338.428 68.0851 337.937 67.9911 337.143 67.8703C336.941 67.8434 336.752 67.7964 336.719 67.6621C336.672 67.5144 336.766 67.2995 336.867 67.0711C337.069 66.5877 337.277 66.084 337.499 65.5535C338.381 63.3912 339.027 61.6184 338.94 61.5781C338.852 61.5445 338.065 63.2636 337.176 65.4259C336.961 65.9564 336.759 66.4668 336.564 66.9503C336.483 67.1786 336.342 67.4338 336.436 67.736C336.483 67.8904 336.631 67.9978 336.759 68.0381C336.887 68.0784 337.001 68.0851 337.102 68.0919C337.917 68.159 338.415 68.1792 338.422 68.1322Z" fill="#1A2E35"/>
<path d="M337.634 77.4459C337.634 77.4459 341.477 77.7951 345.354 75.606C345.354 75.606 343.396 79.4806 337.681 78.7957L337.634 77.4459Z" fill="#B66955"/>
<path d="M343.968 60.0872C343.806 60.3357 343.207 60.2215 342.534 60.1006C341.861 59.9663 341.262 59.8455 341.208 59.5567C341.141 59.2814 341.834 58.8986 342.736 59.0665C343.624 59.2478 344.129 59.8589 343.968 60.0872Z" fill="#1A2E35"/>
<path d="M336.113 58.9323C336.053 59.221 335.407 59.3217 334.666 59.362C333.926 59.3889 333.273 59.3486 333.185 59.0666C333.098 58.798 333.724 58.3548 334.619 58.3145C335.514 58.2742 336.174 58.6569 336.113 58.9323Z" fill="#1A2E35"/>
<path d="M338.435 70.0188C338.267 69.9718 338.078 70.0658 337.998 70.2203C337.897 70.4016 337.944 70.6433 338.099 70.7776C338.253 70.9119 338.509 70.9119 338.671 70.7843C338.832 70.6567 338.886 70.4083 338.792 70.227C338.698 70.0457 338.469 69.9449 338.267 70.0054" fill="#B66955"/>
<path d="M338.617 70.0997C338.651 70.0661 338.489 69.8714 338.146 69.952C337.984 69.9856 337.776 70.1266 337.715 70.375C337.655 70.6034 337.709 70.8988 337.951 71.0868C338.207 71.2614 338.509 71.2279 338.705 71.0936C338.92 70.9526 338.981 70.6974 338.947 70.5362C338.88 70.1803 338.617 70.1266 338.61 70.1736C338.583 70.2206 338.705 70.3415 338.678 70.5496C338.664 70.6504 338.617 70.7444 338.516 70.7981C338.415 70.8518 338.26 70.8518 338.173 70.7847C338.079 70.7175 338.032 70.5698 338.052 70.4623C338.065 70.3482 338.139 70.2676 338.233 70.2139C338.429 70.093 338.597 70.1467 338.617 70.0997Z" fill="#1A2E35"/>
<path d="M348.545 64.244C347.865 65.8154 346.203 67.0308 346.432 68.7298C346.58 69.8244 347.286 70.8518 347.152 71.9464C346.977 73.323 345.543 74.2833 345.341 75.6599C345.092 77.3454 346.734 78.6548 347.394 80.2329C348.35 82.5228 347.125 85.1014 347.098 87.586C347.051 91.3868 350.295 94.9392 354.091 95.2548C355.626 95.3824 357.355 94.919 358.156 93.6029C358.816 92.515 358.681 91.1384 359.078 89.9297C359.664 88.13 361.38 86.8205 361.744 84.9604C362.403 81.576 358.304 78.7824 358.574 75.3443C358.688 73.8736 359.597 72.5977 359.98 71.1741C360.485 69.314 360.021 67.2189 358.776 65.7415C357.766 64.5395 356.299 63.7538 355.437 62.4444C354.461 60.9603 354.428 59.0733 354.057 57.3341C353.162 53.0968 349.972 49.4169 345.9 47.9194C341.828 46.4219 337.002 47.1539 333.563 49.7929C333.563 49.7929 332.587 54.2183 337.137 54.9569C341.693 55.6956 343.8 54.8428 344.311 56.6626C344.311 56.6626 343.793 58.7913 345.678 60.8193C347.562 62.8473 349.332 62.4175 348.545 64.244Z" fill="#0F1B1E"/>
<path d="M355.814 94.939C355.814 94.9524 355.673 94.939 355.397 94.8987C355.128 94.8584 354.73 94.7644 354.239 94.5898C353.27 94.2339 351.89 93.4617 350.719 91.9843C350.133 91.2524 349.588 90.3659 349.218 89.3251C348.841 88.291 348.626 87.1158 348.606 85.8802C348.579 84.6446 348.754 83.3419 349.09 82.0458C349.258 81.3945 349.481 80.7498 349.736 80.1051C349.985 79.4605 350.295 78.836 350.477 78.1779C350.665 77.5198 350.645 76.8483 350.47 76.2103C350.295 75.5724 349.992 74.968 349.703 74.3704C349.407 73.7727 349.11 73.1818 348.915 72.5505C348.72 71.926 348.646 71.2478 348.774 70.6233C349.043 69.3608 349.81 68.4207 350.268 67.4604C350.746 66.5069 350.901 65.5063 350.881 64.5998C350.8 62.7732 350.019 61.4168 349.38 60.6378C348.713 59.8588 348.208 59.5566 348.235 59.5298C348.235 59.5298 348.767 59.7782 349.481 60.5505C350.167 61.3227 351.008 62.6926 351.123 64.5863C351.163 65.5197 351.022 66.5807 350.531 67.5813C350.066 68.5751 349.326 69.522 349.09 70.677C348.855 71.8454 349.407 73.0475 350.006 74.2159C350.302 74.8136 350.611 75.4314 350.8 76.1163C350.988 76.7945 351.015 77.5668 350.807 78.2652C350.618 78.9703 350.302 79.6015 350.053 80.2327C349.804 80.864 349.582 81.5019 349.413 82.1331C349.077 83.4023 348.902 84.6715 348.922 85.8735C348.929 88.291 349.763 90.413 350.901 91.8299C352.018 93.2871 353.337 94.0727 354.279 94.4555C355.242 94.8383 355.821 94.8987 355.814 94.939Z" fill="#375A64"/>
<path d="M355.141 61.0541C355.141 61.0743 354.791 61.1414 354.138 61.2018C353.492 61.2556 352.536 61.3294 351.365 61.128C350.228 60.9198 348.78 60.3624 347.865 59.0127C347.414 58.3345 347.239 57.5152 346.95 56.7564C346.674 55.9909 346.142 55.326 345.415 54.8694C343.941 53.936 342.211 53.8218 340.697 53.6405C339.176 53.4659 337.742 53.1436 336.773 52.4184C335.797 51.7267 335.299 50.8269 335.164 50.1755C335.09 49.8532 335.097 49.5913 335.111 49.4167C335.137 49.2421 335.151 49.1548 335.164 49.1548C335.205 49.1548 335.117 49.5241 335.292 50.1352C335.454 50.7396 335.959 51.5723 336.908 52.2102C337.843 52.8683 339.21 53.157 340.724 53.3115C342.225 53.4794 344.022 53.5734 345.597 54.5672C346.378 55.0507 346.977 55.8095 347.259 56.6221C347.562 57.4212 347.724 58.2069 348.128 58.8247C348.949 60.0737 350.308 60.6445 351.399 60.8728C352.523 61.1011 353.472 61.0675 354.118 61.0541C354.777 61.0474 355.141 61.0272 355.141 61.0541Z" fill="#375A64"/>
<path d="M353.472 55.588C353.479 55.6081 353.203 55.6887 352.685 55.7021C352.173 55.7156 351.406 55.6283 350.558 55.2253C350.134 55.0239 349.703 54.7419 349.306 54.3591C348.902 53.9763 348.572 53.4861 348.263 52.969C347.657 51.9483 347.071 50.6859 345.813 50.1688C344.581 49.6383 343.221 49.7592 342.043 49.8398C340.852 49.9539 339.735 49.9942 338.826 49.8129C337.911 49.6517 337.224 49.2757 336.841 48.9265C336.646 48.7519 336.518 48.5975 336.444 48.4833C336.37 48.3691 336.336 48.3087 336.343 48.302C336.37 48.2818 336.531 48.5169 336.928 48.8191C337.319 49.1212 337.985 49.4436 338.867 49.5712C339.755 49.7122 340.819 49.6585 342.017 49.5242C343.201 49.4301 344.601 49.2824 345.954 49.8532C346.627 50.1352 347.172 50.6389 347.563 51.1828C347.96 51.7267 348.242 52.2975 348.545 52.8079C348.841 53.3249 349.144 53.795 349.514 54.1576C349.878 54.527 350.275 54.809 350.672 55.0105C351.46 55.4201 352.193 55.5477 352.691 55.5745C353.189 55.5947 353.465 55.5544 353.472 55.588Z" fill="#375A64"/>
<path d="M357.82 93.4885C357.786 93.4751 358.002 93.0386 358.251 92.2126C358.5 91.3866 358.742 90.151 358.702 88.6133C358.648 87.0889 358.284 85.2422 357.268 83.4828C356.777 82.6032 356.03 81.8175 355.417 80.8572C355.114 80.3737 354.852 79.8365 354.737 79.2388C354.623 78.6412 354.69 78.0033 354.885 77.4257C355.262 76.264 355.942 75.2903 356.083 74.2226C356.265 73.1549 355.72 72.1812 355.208 71.3082C354.946 70.865 354.69 70.4285 354.488 69.9719C354.286 69.5153 354.159 69.0317 354.105 68.5684C354.004 67.635 354.111 66.7754 354.179 66.0099C354.374 64.4788 354.233 63.2164 353.862 62.4441C353.506 61.6585 353.034 61.4234 353.068 61.3899C353.075 61.3831 353.102 61.3966 353.149 61.4302C353.196 61.4637 353.277 61.504 353.364 61.5846C353.546 61.7323 353.782 61.9875 353.984 62.3837C354.408 63.1694 354.589 64.4856 354.428 66.0301C354.374 66.8023 354.28 67.6484 354.394 68.5348C354.482 69.428 354.946 70.2673 355.484 71.1403C355.747 71.5835 356.023 72.0469 356.218 72.5707C356.42 73.0877 356.507 73.6854 356.42 74.2629C356.258 75.4381 355.565 76.4319 355.215 77.5198C355.033 78.0637 354.98 78.6278 355.074 79.165C355.175 79.7022 355.41 80.2058 355.7 80.6692C356.279 81.5959 357.032 82.395 357.537 83.315C358.574 85.1348 358.917 87.0352 358.944 88.5998C358.957 90.1712 358.668 91.4269 358.379 92.2462C358.231 92.6558 358.103 92.9714 357.988 93.1729C357.887 93.3878 357.833 93.4952 357.82 93.4885Z" fill="#375A64"/>
<path d="M330.406 218.613C330.406 218.613 325.876 175.743 325.614 159.902C325.351 144.061 332.755 128.428 332.755 128.428L361.751 127.206C361.751 127.206 367.485 143.282 367.586 150.031C367.788 163.152 364.093 176.106 364.517 186.514L365.486 218.613" fill="#FF4F5B"/>
<path d="M366.455 165.905C366.462 165.919 366.294 166.039 365.984 166.261C365.903 166.321 365.816 166.382 365.722 166.449C365.634 166.523 365.54 166.624 365.439 166.718C365.237 166.912 364.995 167.134 364.793 167.436C363.857 168.578 363.171 170.626 362.525 173.178C362.168 174.447 361.804 175.864 361.057 177.254C360.855 177.596 360.674 177.952 360.411 178.268C360.283 178.429 360.169 178.604 360.034 178.758L359.59 179.201C358.984 179.799 358.217 180.242 357.409 180.598C355.787 181.31 353.957 181.646 352.281 182.485C350.598 183.304 349.333 184.889 348.559 186.715C347.744 188.535 347.246 190.442 346.566 192.229C345.9 194.001 344.985 195.721 343.538 196.808C342.104 197.937 340.327 198.192 338.792 198.292C337.231 198.386 335.784 198.339 334.492 198.534C333.199 198.716 332.055 199.118 331.247 199.756C330.433 200.394 329.962 201.193 329.74 201.878C329.511 202.57 329.551 203.154 329.625 203.524C329.699 203.9 329.807 204.081 329.78 204.088C329.78 204.088 329.652 203.92 329.551 203.537C329.45 203.161 329.383 202.557 329.605 201.831C329.814 201.113 330.285 200.28 331.12 199.602C331.954 198.924 333.132 198.487 334.451 198.286C335.77 198.071 337.231 198.104 338.772 197.997C340.293 197.89 341.99 197.621 343.342 196.547C344.709 195.512 345.59 193.854 346.243 192.101C346.91 190.335 347.408 188.428 348.236 186.568C349.016 184.708 350.356 183.022 352.119 182.176C353.862 181.316 355.693 180.987 357.275 180.302C358.062 179.96 358.796 179.537 359.375 178.98L359.805 178.557C359.94 178.409 360.048 178.241 360.169 178.093C360.425 177.791 360.6 177.442 360.795 177.119C361.535 175.776 361.905 174.373 362.282 173.11C362.962 170.572 363.689 168.497 364.685 167.356C364.901 167.053 365.156 166.832 365.365 166.644C365.473 166.55 365.567 166.456 365.661 166.382C365.762 166.321 365.856 166.261 365.937 166.207C366.274 165.999 366.449 165.898 366.455 165.905Z" fill="#FAFAFA"/>
<path d="M366.63 146.068C366.644 146.068 366.657 146.263 366.671 146.646C366.677 147.022 366.63 147.586 366.469 148.284C366.132 149.681 365.109 151.602 363.191 153.341C362.242 154.214 361.104 155.053 359.792 155.819C358.493 156.591 357.059 157.323 355.592 158.149C354.131 158.982 352.617 159.915 351.291 161.164C349.945 162.393 348.942 164.011 348.033 165.73C347.118 167.443 346.31 169.182 345.213 170.693C344.668 171.445 344.056 172.137 343.376 172.721C342.689 173.305 341.942 173.782 341.188 174.178C339.667 174.964 338.119 175.454 336.686 175.904C335.245 176.347 333.906 176.743 332.728 177.234C331.55 177.717 330.534 178.268 329.713 178.845C328.891 179.429 328.266 180.034 327.821 180.584C326.926 181.692 326.738 182.492 326.684 182.471C326.67 182.465 326.738 182.283 326.872 181.928C327.027 181.585 327.269 181.075 327.714 180.504C328.151 179.933 328.77 179.295 329.598 178.684C330.426 178.08 331.449 177.509 332.634 177.005C333.818 176.495 335.164 176.085 336.598 175.629C338.025 175.172 339.56 174.675 341.04 173.896C341.781 173.507 342.501 173.043 343.16 172.473C343.813 171.902 344.412 171.23 344.937 170.498C346.007 169.021 346.808 167.295 347.731 165.569C348.639 163.85 349.676 162.185 351.062 160.922C352.422 159.647 353.963 158.706 355.437 157.874C356.918 157.048 358.351 156.329 359.65 155.577C360.949 154.838 362.08 154.019 363.029 153.173C364.934 151.488 365.971 149.627 366.341 148.264C366.697 146.874 366.576 146.062 366.63 146.068Z" fill="#FAFAFA"/>
<path d="M325.755 162.172C325.748 162.172 325.728 162.131 325.694 162.044C325.668 161.957 325.607 161.823 325.567 161.641C325.486 161.285 325.432 160.715 325.634 160.03C326.011 158.66 327.498 156.961 329.894 156.108C331.086 155.698 332.445 155.45 333.852 155.081C335.245 154.704 336.766 154.181 337.904 153.019C338.469 152.441 338.947 151.763 339.337 151.011C339.721 150.252 340.044 149.44 340.34 148.6C340.946 146.928 341.451 145.108 342.474 143.45C343.49 141.784 345.146 140.623 346.862 140.045C348.572 139.421 350.302 139.139 351.897 138.769C353.505 138.42 355.006 137.97 356.278 137.279C357.537 136.567 358.533 135.62 359.24 134.613C360.694 132.598 361.071 130.536 361.124 129.173C361.158 127.79 360.936 127.031 360.983 127.024C360.983 127.024 361.252 127.763 361.266 129.173C361.252 130.557 360.909 132.672 359.449 134.754C358.735 135.794 357.719 136.782 356.426 137.527C355.121 138.246 353.586 138.716 351.978 139.078C350.369 139.454 348.653 139.743 346.99 140.361C345.314 140.938 343.759 142.033 342.777 143.631C341.787 145.223 341.283 147.022 340.67 148.708C340.367 149.554 340.037 150.38 339.64 151.159C339.23 151.931 338.732 152.643 338.133 153.241C336.928 154.463 335.339 154.986 333.926 155.356C332.492 155.718 331.146 155.947 329.975 156.336C327.64 157.129 326.159 158.76 325.762 160.063C325.546 160.715 325.573 161.265 325.634 161.621C325.715 161.977 325.775 162.165 325.755 162.172Z" fill="#FAFAFA"/>
<path d="M364.14 198.42C364.153 198.42 364.167 198.561 364.187 198.843C364.201 199.118 364.18 199.535 364.066 200.058C363.83 201.093 363.029 202.509 361.522 203.685C360.781 204.282 359.886 204.826 358.85 205.263C357.82 205.699 356.682 206.048 355.498 206.418C354.313 206.787 353.068 207.177 351.857 207.741C350.638 208.298 349.514 209.111 348.545 210.151C347.562 211.179 346.714 212.3 345.779 213.287C344.843 214.281 343.78 215.1 342.676 215.712C340.462 216.934 338.166 217.35 336.275 217.37C334.37 217.39 332.863 216.994 331.867 216.638C331.369 216.464 330.992 216.289 330.749 216.161C330.5 216.041 330.372 215.967 330.379 215.96C330.386 215.947 330.52 216 330.776 216.101C331.032 216.208 331.409 216.363 331.907 216.517C332.903 216.826 334.397 217.182 336.262 217.128C338.119 217.075 340.361 216.638 342.508 215.436C343.578 214.839 344.601 214.039 345.516 213.059C346.438 212.085 347.28 210.964 348.283 209.916C349.265 208.855 350.457 208.003 351.702 207.438C352.947 206.861 354.206 206.478 355.397 206.116C356.588 205.753 357.719 205.417 358.729 205.001C359.738 204.584 360.627 204.061 361.353 203.49C362.841 202.362 363.649 201.019 363.918 200.018C364.194 199.011 364.086 198.42 364.14 198.42Z" fill="#FAFAFA"/>
<path d="M360.835 109.404L355.228 109.538C354.858 111.425 353.963 112.714 353.963 112.714C349.272 104.596 345.637 93.717 344.735 89.3454C344.87 88.9089 345.025 88.4254 345.22 87.8882C345.442 87.2637 345.254 86.0818 345.146 85.4304C344.991 84.4567 344.715 83.1473 344.634 82.5429C344.385 80.6962 344.089 80.4075 343.443 80.6156C342.561 80.8977 343.807 85.8065 343.086 85.9072C342.703 85.9676 342.225 84.2821 342.09 82.9055C341.956 81.5289 341.33 77.2849 340.872 77.0029C340.206 76.5865 339.62 77.2446 339.788 78.6145C339.957 80.0046 340.172 84.1478 339.445 84.2015C338.725 84.2553 338.119 77.2245 338.119 77.2245C338.119 77.2245 338.234 75.6934 337.385 75.7337C335.858 75.8008 337.049 83.2144 337.184 83.9128C337.278 84.403 336.484 84.4903 336.416 83.9598C336.342 83.4159 335.979 76.929 334.424 76.9827C333.233 77.023 335.346 83.0935 334.68 84.497C334.013 85.9005 333.549 79.7225 332.405 79.8031C331.981 79.8367 331.671 79.9172 332.445 83.4159C332.863 85.2961 334.094 88.7544 335.164 91.6151C336.968 101.319 344.883 132.363 357.288 126.675C364.227 123.499 367.047 109.404 367.047 109.404H360.835Z" fill="#FFBF9D"/>
<path d="M336.907 84.3826C336.907 84.3826 336.961 84.3893 337.069 84.3624C337.163 84.3356 337.352 84.2147 337.325 83.9729C337.311 83.5566 337.244 82.9522 337.15 82.1665C337.076 81.3742 336.84 80.4273 336.84 79.3059C336.833 78.7418 336.847 78.1374 336.88 77.4995C336.901 77.1772 336.907 76.8481 336.981 76.5325C337.035 76.2303 337.237 75.8811 337.473 75.9214L337.5 75.9281H337.513C337.755 75.9147 337.937 76.1027 338.018 76.3848C338.105 76.6534 338.126 76.9757 338.105 77.2846V77.298V77.3048C338.26 79.0238 338.435 80.9041 338.826 82.9119C338.879 83.1604 338.933 83.4156 339.014 83.6708C339.054 83.7983 339.095 83.9259 339.155 84.0535C339.189 84.1207 339.216 84.1811 339.27 84.255C339.317 84.3154 339.378 84.4161 339.553 84.4296C339.835 84.4094 339.916 84.1945 339.977 84.0737C340.037 83.9326 340.078 83.7983 340.104 83.664C340.165 83.3887 340.192 83.1201 340.212 82.8448C340.286 81.7502 340.246 80.6288 340.165 79.4872C340.138 78.9097 339.997 78.3322 340.098 77.8084C340.145 77.5532 340.253 77.2913 340.428 77.1839C340.515 77.1302 340.609 77.1234 340.717 77.1503C340.771 77.1637 340.825 77.1906 340.878 77.2175C340.926 77.2577 340.912 77.2376 340.952 77.3182C341.175 77.8017 341.296 78.4262 341.417 79.0037C341.538 79.6013 341.639 80.2057 341.733 80.8168C341.828 81.4279 341.915 82.0457 341.989 82.6702C342.05 83.2947 342.137 83.9461 342.299 84.5773C342.379 84.8929 342.467 85.2085 342.602 85.5241C342.669 85.6786 342.743 85.8398 342.877 86.0009C342.925 86.0681 343.086 86.1957 343.281 86.1487C343.47 86.0882 343.524 85.9338 343.557 85.8465C343.665 85.457 343.631 85.1414 343.631 84.7989C343.618 84.4632 343.591 84.1341 343.564 83.8051C343.517 83.241 343.463 82.6769 343.443 82.1263C343.436 81.8509 343.436 81.5756 343.463 81.3204C343.477 81.1928 343.503 81.0653 343.544 80.9712C343.564 80.9242 343.591 80.8907 343.611 80.8705C343.625 80.8571 343.631 80.8638 343.638 80.8504L343.726 80.8235C344.17 80.6422 344.318 81.26 344.439 81.7569C344.54 82.2807 344.607 82.8179 344.715 83.3484C344.89 84.4094 345.119 85.457 345.24 86.4643C345.287 86.9679 345.327 87.485 345.179 87.908C345.018 88.3915 344.863 88.875 344.708 89.3518L344.695 89.3921L344.708 89.4391C345.529 93.0519 346.667 96.2819 347.717 99.1493C348.78 102.017 349.85 104.488 350.786 106.516C351.722 108.544 352.563 110.102 353.148 111.169C353.445 111.673 353.673 112.076 353.848 112.371C354.01 112.64 354.097 112.781 354.111 112.774C354.118 112.768 354.05 112.62 353.902 112.338C353.741 112.036 353.525 111.626 353.256 111.109C352.711 110.028 351.903 108.457 350.995 106.422C350.086 104.387 349.049 101.909 348.006 99.0418C346.976 96.1744 345.859 92.9377 345.065 89.3652L345.058 89.4525C345.213 88.9825 345.368 88.5124 345.529 88.0289C345.711 87.4783 345.657 86.9478 345.61 86.424C345.489 85.3764 345.267 84.3557 345.092 83.288C344.991 82.7642 344.924 82.2203 344.816 81.6763C344.755 81.401 344.695 81.1257 344.54 80.8437C344.466 80.7093 344.351 80.5549 344.17 80.4676C343.981 80.387 343.793 80.4072 343.638 80.4475L343.524 80.481C343.47 80.5012 343.409 80.528 343.369 80.5683C343.281 80.6422 343.234 80.7295 343.201 80.8101C343.127 80.9712 343.106 81.119 343.086 81.2667C343.052 81.5622 343.052 81.8509 343.066 82.133C343.086 82.7038 343.14 83.2678 343.187 83.8319C343.214 84.161 343.241 84.4833 343.254 84.8056C343.268 85.1212 343.275 85.4637 343.207 85.7055C343.187 85.7726 343.16 85.7659 343.194 85.7995C343.194 85.7793 343.201 85.833 343.201 85.8263V85.8196C343.201 85.8129 343.201 85.7995 343.201 85.7995C343.207 85.7928 343.221 85.7726 343.207 85.7659C343.201 85.7659 343.187 85.7525 343.167 85.7256C343.093 85.6383 343.019 85.504 342.958 85.363C342.837 85.0809 342.75 84.7788 342.676 84.4699C342.521 83.8521 342.433 83.241 342.373 82.6098C342.299 81.9785 342.211 81.354 342.11 80.7362C342.016 80.1184 341.908 79.5073 341.787 78.9097C341.646 78.3053 341.558 77.7211 341.276 77.1167C341.255 77.0563 341.141 76.922 341.067 76.8817C340.993 76.8347 340.905 76.8011 340.818 76.7742C340.636 76.7272 340.414 76.7474 340.246 76.8548C339.909 77.0764 339.808 77.4256 339.748 77.7278C339.694 78.0434 339.701 78.3523 339.734 78.6478C339.768 78.9365 339.795 79.2186 339.815 79.5006C339.903 80.6288 339.943 81.7435 339.876 82.8112C339.855 83.0731 339.828 83.3417 339.781 83.5902C339.754 83.7178 339.721 83.8319 339.68 83.9394C339.66 83.9931 339.633 84.0401 339.606 84.0669C339.579 84.1207 339.559 84.0535 339.566 84.1475C339.6 84.0804 339.566 84.114 339.539 84.0602C339.512 84.0267 339.485 83.9662 339.458 83.9192C339.411 83.8118 339.371 83.6909 339.33 83.5767C339.256 83.3417 339.196 83.0932 339.142 82.8448C338.745 80.8705 338.556 78.9836 338.381 77.2846V77.3048C338.395 76.9623 338.375 76.6332 338.274 76.3042C338.22 76.143 338.146 75.9819 338.011 75.8543C337.877 75.7267 337.688 75.6662 337.513 75.673L337.554 75.6797C337.284 75.6327 337.082 75.7938 336.975 75.955C336.86 76.1229 336.806 76.3042 336.766 76.4788C336.692 76.8347 336.692 77.1637 336.679 77.4861C336.652 78.1307 336.652 78.7418 336.665 79.3059C336.685 80.4542 336.948 81.401 337.035 82.18C337.15 82.9589 337.237 83.5633 337.278 83.9729C337.318 84.1677 337.163 84.2953 337.082 84.3221C336.961 84.3691 336.901 84.3758 336.907 84.3826Z" fill="#B66955"/>
<path d="M293.071 118.65C293.071 118.65 291.207 118.563 289.174 119.094C285.701 120.007 279.697 123.633 279.448 128.119H283.803C283.803 128.119 281.36 133.303 282.08 132.819C283.938 131.577 287.646 127.817 287.646 127.817L293.071 118.65Z" fill="#FFBF9D"/>
<path d="M352.523 40.6267C352.429 40.6334 352.031 37.0408 351.641 32.5954C351.251 28.1499 351.008 24.5438 351.109 24.5371C351.204 24.5304 351.601 28.123 351.991 32.5685C352.381 37.0139 352.617 40.62 352.523 40.6267Z" fill="#667280"/>
<path d="M371.645 24.7583C371.726 24.812 368.778 29.0762 365.069 34.2805C361.36 39.4847 358.285 43.6549 358.204 43.6012C358.123 43.5474 361.071 39.2833 364.78 34.079C368.488 28.8747 371.564 24.7046 371.645 24.7583Z" fill="#667280"/>
<path d="M379.587 44.085C379.607 44.179 376.168 44.9647 371.914 45.8376C367.654 46.7106 364.187 47.3418 364.167 47.2478C364.147 47.1538 367.586 46.3681 371.84 45.4951C376.101 44.6222 379.567 43.9909 379.587 44.085Z" fill="#667280"/>
<path d="M150.672 136.318L126.872 258.4L123.756 274.383L282.639 273.604C289.767 273.57 296.087 267.251 298.382 257.87L326.557 142.61C328.3 135.485 324.477 128.079 319.065 128.079L158.257 128.246C154.703 128.253 151.6 131.557 150.672 136.318Z" fill="#375A64"/>
<path d="M267.401 250.134L250.581 114.884C249.894 109.344 245.466 105.207 240.243 105.227L203.352 105.348C200.619 105.355 198.001 106.516 196.063 108.571L178.55 127.146L75.9547 127.683C69.6885 127.716 64.8694 133.632 65.6972 140.287L81.319 265.29C82.0123 270.824 86.4276 274.954 91.6438 274.94L270.443 274.591C290.359 275.001 292.257 269.138 292.257 269.138C269.433 274.175 267.401 250.148 267.401 250.134Z" fill="#4B7986"/>
<g opacity="0.5">
<path d="M190.301 223.065L184.27 229.525L137.829 187.837L143.86 181.377L190.301 223.065Z" fill="white"/>
<path d="M181.746 179.947L188.41 185.93L146.384 230.955L139.72 224.979L181.746 179.947Z" fill="white"/>
</g>
<path d="M291.799 119.43C291.799 119.43 289.935 119.342 287.902 119.873C284.429 120.786 278.425 124.412 278.176 128.898H282.531C282.531 128.898 280.088 134.082 280.808 133.599C282.666 132.356 286.374 128.596 286.374 128.596L291.799 119.43Z" fill="#FFBF9D"/>
<path d="M292.93 48.5104C292.499 48.3291 292.189 47.906 292.169 47.4091L291.9 41.1774C291.88 40.7879 292.048 40.4051 292.351 40.1567C292.654 39.9082 293.058 39.8142 293.441 39.9015C294.444 40.1365 295.555 39.9217 296.477 39.3039C297.332 38.7331 297.904 37.9004 298.045 37.0073C298.193 36.1209 297.917 35.1337 297.291 34.3078C296.618 33.4213 295.629 32.8304 294.639 32.7163C292.613 32.4812 290.426 34.0324 289.861 36.1007C289.679 36.7655 288.992 37.1617 288.319 36.9804C287.639 36.7924 287.256 36.1074 287.438 35.4426C288.319 32.1925 291.685 29.8556 294.929 30.2249C296.611 30.4197 298.207 31.3531 299.297 32.7968C300.333 34.1667 300.784 35.8455 300.529 37.4102C300.273 38.9815 299.304 40.432 297.87 41.3856C296.834 42.0772 295.649 42.4533 294.464 42.4936L294.673 47.3017C294.7 47.9933 294.168 48.5775 293.475 48.6044C293.286 48.6178 293.098 48.5843 292.93 48.5104Z" fill="#FF4F5B"/>
<path d="M294.774 51.0621C294.814 51.6262 294.383 52.1164 293.818 52.1567C293.253 52.197 292.761 51.7672 292.721 51.2031C292.681 50.6391 293.111 50.1489 293.677 50.1086C294.242 50.0683 294.733 50.4981 294.774 51.0621Z" fill="#FF4F5B"/>
<path d="M271.304 39.7201C271.311 39.7201 271.331 39.5791 271.365 39.3105C271.398 39.0217 271.439 38.6188 271.499 38.1085C271.526 37.578 271.668 36.9333 271.823 36.1812C271.91 35.8051 271.957 35.3888 272.098 34.9657C272.233 34.5427 272.368 34.0861 272.516 33.6093C273.169 31.7223 274.172 29.4593 275.861 27.2097C277.537 24.9668 279.899 22.7441 282.928 21.0653C284.422 20.1789 286.125 19.5611 287.915 19.0104C289.733 18.5807 291.658 18.2113 293.67 18.2583C294.673 18.2046 295.689 18.3524 296.726 18.4397C297.244 18.4867 297.749 18.6277 298.267 18.715C298.785 18.809 299.31 18.9097 299.815 19.091C301.895 19.6215 303.914 20.6019 305.832 21.8107C309.696 24.2349 312.947 28.1767 314.73 32.9579C315.625 35.3485 316.049 37.9674 316.049 40.6199C316.103 43.2724 315.585 45.9652 314.643 48.5036L314.34 49.2691L314.3 49.3698L314.34 49.4638C316.029 53.3452 317.685 57.146 319.287 60.8327L319.57 60.5103C316.097 59.1807 312.725 57.8847 309.487 56.6491L309.359 56.6021L309.258 56.6961C306.458 59.4023 303.12 61.2289 299.741 62.1757C296.349 63.1293 292.93 63.1763 289.827 62.6256C286.711 62.075 283.911 60.8864 281.568 59.362C279.226 57.8377 277.342 55.9776 275.895 54.0906C274.454 52.1835 273.505 50.2227 272.792 48.4767C272.159 46.6905 271.775 45.1057 271.587 43.7895C271.506 43.1314 271.439 42.5539 271.378 42.0436C271.365 41.5399 271.351 41.1169 271.345 40.761C271.331 40.4319 271.324 40.17 271.318 39.9753C271.318 39.8141 271.311 39.7201 271.304 39.7201C271.298 39.7201 271.291 39.8074 271.291 39.9887C271.291 40.1834 271.284 40.4453 271.277 40.7744C271.277 41.1303 271.277 41.5601 271.277 42.0637C271.331 42.5741 271.392 43.165 271.452 43.8231C271.621 45.146 271.984 46.7509 272.603 48.564C273.303 50.3368 274.246 52.3245 275.686 54.2719C277.14 56.1925 279.031 58.0929 281.4 59.6575C283.763 61.2221 286.603 62.4443 289.766 63.0151C292.923 63.5859 296.396 63.5523 299.849 62.5921C303.295 61.6318 306.701 59.7851 309.561 57.0319L309.339 57.0789C312.57 58.3212 315.942 59.6172 319.415 60.9603L319.92 61.155L319.698 60.6379C318.096 56.9513 316.44 53.1438 314.757 49.2624V49.4571L315.067 48.6715C316.036 46.0794 316.561 43.3194 316.507 40.6132C316.507 37.907 316.07 35.2276 315.154 32.7833C313.33 27.9014 309.999 23.8857 306.061 21.4279C304.096 20.199 302.043 19.2119 299.923 18.6747C299.405 18.5001 298.873 18.3994 298.348 18.2986C297.823 18.2113 297.305 18.0703 296.78 18.0233C295.73 17.936 294.7 17.795 293.677 17.8554C291.631 17.8151 289.679 18.1979 287.835 18.6411C286.017 19.2052 284.294 19.8431 282.787 20.7497C279.724 22.4755 277.348 24.7385 275.666 27.0284C273.976 29.3183 272.98 31.6216 272.354 33.5287C272.213 34.0122 272.078 34.4688 271.95 34.9053C271.816 35.3351 271.775 35.7581 271.695 36.1342C271.547 36.8997 271.425 37.5444 271.412 38.0816C271.372 38.5987 271.345 38.9949 271.324 39.2903C271.298 39.5858 271.291 39.7201 271.304 39.7201Z" fill="#667280"/>
</svg>
