<svg width="60" height="60" viewBox="0 0 60 60" fill="none" xmlns="http://www.w3.org/2000/svg">
<circle cx="30" cy="30" r="30" fill="#E4E7EE"/>
<path d="M25.6055 31.625L28.7695 35.375L33.1055 29.75L38.7305 37.25H21.2695L25.6055 31.625ZM41.25 38.4805V21.0195C41.25 20.3164 40.9961 19.7305 40.4883 19.2617C40.0195 18.7539 39.4336 18.5 38.7305 18.5H21.2695C20.5664 18.5 19.9609 18.7539 19.4531 19.2617C18.9844 19.7305 18.75 20.3164 18.75 21.0195V38.4805C18.75 39.1836 18.9844 39.7891 19.4531 40.2969C19.9609 40.7656 20.5664 41 21.2695 41H38.7305C39.4336 41 40.0195 40.7656 40.4883 40.2969C40.9961 39.7891 41.25 39.1836 41.25 38.4805Z" fill="#D0D2D9"/>
</svg>
