<svg width="24" height="24" viewBox="0 0 24 24" fill="none" xmlns="http://www.w3.org/2000/svg">
<path d="M6 3.25024H12C12.1989 3.25024 12.3897 3.32926 12.5303 3.46991C12.671 3.61057 12.75 3.80133 12.75 4.00024C12.75 4.19916 12.671 4.38992 12.5303 4.53057C12.3897 4.67123 12.1989 4.75024 12 4.75024H6C5.66848 4.75024 5.35054 4.88194 5.11612 5.11636C4.88169 5.35078 4.75 5.66872 4.75 6.00024V18.0002C4.75 18.3318 4.88169 18.6497 5.11612 18.8841C5.35054 19.1185 5.66848 19.2502 6 19.2502H18C18.3315 19.2502 18.6495 19.1185 18.8839 18.8841C19.1183 18.6497 19.25 18.3318 19.25 18.0002V12.0002C19.25 11.8013 19.329 11.6106 19.4697 11.4699C19.6103 11.3293 19.8011 11.2502 20 11.2502C20.1989 11.2502 20.3897 11.3293 20.5303 11.4699C20.671 11.6106 20.75 11.8013 20.75 12.0002V18.0002C20.75 18.7296 20.4603 19.4291 19.9445 19.9448C19.4288 20.4605 18.7293 20.7502 18 20.7502H6C5.27065 20.7502 4.57118 20.4605 4.05546 19.9448C3.53973 19.4291 3.25 18.7296 3.25 18.0002V6.00024C3.25 5.2709 3.53973 4.57142 4.05546 4.0557C4.57118 3.53998 5.27065 3.25024 6 3.25024Z" fill="#3880FF"/>
<path d="M16.045 8.06201C16.1068 8.12549 16.1559 8.20125 16.1894 8.28484C16.2229 8.36843 16.24 8.45817 16.2399 8.54879L16.2624 13.7509C16.2571 13.9295 16.1858 14.099 16.0634 14.2237C15.941 14.3484 15.7771 14.4186 15.6062 14.4194C15.4353 14.4202 15.2708 14.3516 15.1473 14.2281C15.0239 14.1045 14.9511 13.9357 14.9443 13.7571L14.9248 9.24431L10.6099 9.26471C10.4391 9.25921 10.277 9.1846 10.1578 9.05658C10.0386 8.92857 9.97152 8.75715 9.97075 8.57844C9.96998 8.39973 10.0356 8.22768 10.1537 8.09855C10.2718 7.96941 10.4332 7.89326 10.604 7.88615L15.5778 7.86263C15.6645 7.86166 15.7504 7.87879 15.8307 7.91303C15.9109 7.94727 15.9838 7.99792 16.045 8.06201Z" fill="#3880FF"/>
<path d="M15.4001 8.91843C15.4999 9.03612 15.5518 9.18992 15.5448 9.34707C15.5377 9.50421 15.4723 9.65226 15.3624 9.75969L9.18761 15.6401C9.07595 15.7464 8.92848 15.802 8.77763 15.7946C8.62679 15.7872 8.48492 15.7175 8.38326 15.6007C8.28159 15.4839 8.22844 15.3297 8.2355 15.1719C8.24256 15.0141 8.30926 14.8658 8.42092 14.7594L14.5957 8.87904C14.7083 8.77465 14.8553 8.72036 15.0056 8.72771C15.1558 8.73507 15.2974 8.8035 15.4001 8.91843Z" fill="#3880FF"/>
</svg>
