<svg width="208" height="170" viewBox="0 0 208 170" fill="none" xmlns="http://www.w3.org/2000/svg">
  <g clip-path="url(#clip0_6859_95199)">
    <path d="M101.853 90.9047C102.303 88.11 104.671 86.0448 107.472 86.0071C119.625 85.8434 150.572 85.5609 152.232 86.8938C154.3 88.5548 155.381 89.4049 155.219 92.0405C155.07 94.4619 152.46 136.266 152.46 136.266H94.5454L101.853 90.9047Z" fill="#375A64"/>
    <path d="M145.864 136.287C145.861 136.288 145.856 136.246 145.848 136.164C145.84 136.073 145.83 135.954 145.817 135.802C145.793 135.472 145.76 135.004 145.717 134.408C145.672 133.803 145.625 133.061 145.598 132.199C145.568 131.338 145.514 130.357 145.513 129.271C145.507 128.728 145.501 128.159 145.494 127.567C145.489 126.974 145.508 126.358 145.515 125.72C145.521 124.443 145.59 123.08 145.649 121.646C145.81 118.779 146.079 115.633 146.513 112.348C146.963 109.064 147.534 105.957 148.137 103.151C148.459 101.753 148.752 100.42 149.085 99.1881C149.247 98.5711 149.391 97.9716 149.552 97.4019C149.715 96.8329 149.871 96.2864 150.02 95.7644C150.308 94.7179 150.62 93.787 150.876 92.9647C151.13 92.141 151.371 91.4393 151.574 90.8678C151.773 90.3045 151.929 89.8629 152.039 89.5512C152.092 89.4089 152.133 89.2961 152.164 89.2104C152.194 89.1339 152.21 89.0954 152.213 89.0965C152.216 89.0976 152.206 89.1381 152.182 89.2168C152.155 89.3039 152.119 89.4185 152.074 89.5637C151.972 89.8779 151.827 90.323 151.642 90.8909C151.448 91.4656 151.217 92.1701 150.974 92.996C150.727 93.8208 150.424 94.7534 150.145 95.801C149.999 96.3234 149.847 96.8699 149.688 97.4396C149.531 98.0096 149.39 98.6092 149.231 99.2262C148.906 100.458 148.618 101.79 148.302 103.188C147.709 105.992 147.143 109.094 146.694 112.373C146.261 115.653 145.987 118.794 145.818 121.655C145.753 123.087 145.679 124.448 145.667 125.723C145.657 126.36 145.634 126.976 145.635 127.568C145.638 128.159 145.64 128.727 145.642 129.269C145.635 130.354 145.68 131.334 145.7 132.196C145.717 133.058 145.753 133.798 145.788 134.404C145.816 135.002 145.838 135.47 145.854 135.8C145.859 135.952 145.863 136.072 145.867 136.163C145.868 136.245 145.867 136.287 145.864 136.287Z" fill="#1A2E35"/>
    <path d="M113.294 107.049C113.292 107.043 113.322 107.031 113.382 107.014C113.442 107.001 113.534 106.988 113.652 106.999C113.886 107.016 114.236 107.155 114.5 107.505C114.774 107.849 114.84 108.446 114.585 108.964C114.462 109.222 114.272 109.466 114.019 109.65C113.765 109.835 113.45 109.946 113.122 109.967C112.794 109.986 112.459 109.912 112.198 109.724C111.931 109.542 111.771 109.247 111.719 108.962C111.62 108.38 111.854 107.857 112.162 107.56C112.813 106.998 113.389 106.978 113.377 107.034C113.373 107.041 113.345 107.037 113.288 107.05C113.231 107.063 113.147 107.091 113.043 107.134C112.839 107.224 112.534 107.372 112.253 107.653C111.986 107.929 111.786 108.421 111.884 108.928C111.935 109.177 112.073 109.423 112.301 109.575C112.523 109.733 112.817 109.8 113.111 109.782C113.405 109.763 113.69 109.664 113.915 109.502C114.143 109.34 114.318 109.121 114.434 108.889C114.67 108.422 114.626 107.9 114.395 107.582C114.17 107.256 113.858 107.107 113.643 107.071C113.423 107.029 113.297 107.067 113.294 107.049Z" fill="#1A2E35"/>
    <path d="M122.378 101.739C122.375 101.776 121.779 101.665 120.823 101.756C119.875 101.839 118.553 102.184 117.354 103.033C116.155 103.883 115.382 105.021 114.981 105.894C114.571 106.772 114.47 107.376 114.434 107.366C114.423 107.364 114.439 107.213 114.498 106.945C114.557 106.676 114.67 106.293 114.863 105.84C115.241 104.938 116.016 103.755 117.249 102.881C118.481 102.009 119.845 101.677 120.813 101.625C121.3 101.596 121.695 101.62 121.965 101.656C122.234 101.691 122.38 101.727 122.378 101.739Z" fill="#1A2E35"/>
    <path d="M105.58 112.615C105.57 112.61 105.613 112.5 105.715 112.313C105.816 112.126 105.983 111.866 106.225 111.572C106.703 110.984 107.536 110.276 108.642 109.895C109.748 109.514 110.836 109.56 111.569 109.73C111.938 109.813 112.228 109.916 112.421 110.002C112.614 110.088 112.715 110.148 112.71 110.158C112.698 110.19 112.274 109.99 111.544 109.859C110.821 109.725 109.769 109.702 108.701 110.07C107.633 110.438 106.814 111.105 106.322 111.658C105.824 112.212 105.609 112.633 105.58 112.615Z" fill="#1A2E35"/>
    <path d="M116.788 114.07C116.775 114.088 116.533 113.94 116.192 113.635C115.851 113.332 115.419 112.861 115.042 112.268C114.666 111.675 114.422 111.082 114.291 110.641C114.159 110.2 114.126 109.917 114.147 109.913C114.204 109.895 114.452 111.009 115.196 112.168C115.928 113.335 116.827 114.026 116.788 114.07Z" fill="#1A2E35"/>
    <path d="M132.852 107.543C132.851 107.537 132.881 107.525 132.94 107.509C133 107.495 133.092 107.482 133.211 107.493C133.445 107.51 133.794 107.649 134.058 108C134.332 108.343 134.398 108.94 134.143 109.458C134.02 109.716 133.83 109.96 133.577 110.144C133.323 110.33 133.009 110.44 132.68 110.461C132.352 110.48 132.017 110.406 131.756 110.218C131.489 110.036 131.329 109.741 131.277 109.455C131.178 108.874 131.412 108.351 131.72 108.053C132.371 107.492 132.947 107.472 132.935 107.527C132.932 107.535 132.903 107.531 132.846 107.544C132.789 107.557 132.705 107.584 132.601 107.628C132.397 107.718 132.093 107.866 131.811 108.147C131.544 108.422 131.344 108.915 131.442 109.422C131.493 109.671 131.631 109.916 131.859 110.068C132.081 110.227 132.375 110.293 132.669 110.276C132.963 110.257 133.248 110.158 133.473 109.996C133.7 109.834 133.876 109.615 133.992 109.383C134.229 108.916 134.184 108.394 133.953 108.076C133.728 107.75 133.416 107.601 133.201 107.565C132.982 107.523 132.855 107.562 132.852 107.543Z" fill="#1A2E35"/>
    <path d="M141.937 102.233C141.934 102.27 141.337 102.16 140.381 102.25C139.433 102.334 138.111 102.679 136.912 103.528C135.713 104.377 134.94 105.516 134.538 106.388C134.128 107.266 134.027 107.87 133.991 107.861C133.981 107.859 133.997 107.707 134.056 107.439C134.114 107.17 134.227 106.787 134.421 106.334C134.799 105.432 135.574 104.249 136.806 103.376C138.039 102.503 139.403 102.171 140.37 102.12C140.857 102.09 141.253 102.114 141.522 102.15C141.792 102.186 141.938 102.222 141.937 102.233Z" fill="#1A2E35"/>
    <path d="M125.139 113.11C125.129 113.105 125.172 112.995 125.273 112.808C125.374 112.621 125.541 112.36 125.784 112.066C126.261 111.479 127.095 110.771 128.2 110.389C129.307 110.008 130.394 110.055 131.127 110.225C131.497 110.308 131.787 110.411 131.979 110.497C132.173 110.583 132.273 110.643 132.269 110.653C132.256 110.685 131.832 110.484 131.102 110.353C130.379 110.22 129.328 110.197 128.26 110.565C127.192 110.933 126.373 111.6 125.881 112.153C125.382 112.707 125.168 113.128 125.139 113.11Z" fill="#1A2E35"/>
    <path d="M136.346 114.565C136.333 114.583 136.092 114.434 135.75 114.13C135.409 113.827 134.978 113.355 134.6 112.763C134.224 112.169 133.98 111.576 133.849 111.136C133.718 110.695 133.684 110.412 133.706 110.407C133.763 110.39 134.01 111.504 134.754 112.663C135.486 113.829 136.386 114.52 136.346 114.565Z" fill="#1A2E35"/>
    <path d="M157.269 77.9498C141.678 62.3745 122.267 58.6593 122.267 58.6593C110.726 65.6171 102.938 77.2983 97.0093 91.3204C106.953 100.626 119.743 109.543 130.685 110.364C147.991 105.94 157.269 77.9498 157.269 77.9498Z" fill="#FF4F5B"/>
    <g opacity="0.4">
      <path opacity="0.4" d="M157.269 77.9498C141.678 62.3745 122.267 58.6593 122.267 58.6593C110.726 65.6171 102.938 77.2983 97.0093 91.3204C106.953 100.626 119.743 109.543 130.685 110.364C147.991 105.94 157.269 77.9498 157.269 77.9498Z" fill="black"/>
    </g>
    <path d="M151.712 90.3175C151.709 90.3182 151.696 90.2819 151.673 90.21C151.649 90.1307 151.616 90.025 151.574 89.8887C151.487 89.5963 151.362 89.1774 151.202 88.6377C150.881 87.5346 150.416 85.9383 149.831 83.9297L149.901 83.967C147.8 84.6556 145.205 85.5064 142.254 86.4742L142.303 86.4265C142.296 86.4408 142.296 86.4461 142.281 86.4671C142.26 86.4959 142.207 86.508 142.188 86.4934C142.16 86.4863 142.134 86.4386 142.139 86.4436C142.129 86.4173 142.128 86.4016 142.126 86.387L142.118 86.3038L142.11 86.1454L142.106 85.8309C142.106 85.6209 142.105 85.4096 142.105 85.1961C142.107 84.7701 142.109 84.3371 142.111 83.8973C142.115 83.0184 142.114 82.1135 142.101 81.1855C142.088 80.2575 142.063 79.3064 142.01 78.3371C141.954 77.3689 141.881 76.3779 141.708 75.3898L141.816 75.4617C139.591 75.9844 137.258 76.5327 134.864 77.0953C133.426 77.4326 132.01 77.7646 130.626 78.0891L130.534 78.1108L130.516 78.0169C129.889 74.6956 129.293 71.5394 128.744 68.6291L128.848 68.6942C124.584 69.8567 120.752 70.4061 117.743 70.6577L117.687 70.6623L117.68 70.6061C117.389 68.1875 117.157 66.2649 116.997 64.9384C116.922 64.2855 116.864 63.7795 116.823 63.4279C116.806 63.2625 116.792 63.1333 116.782 63.0383C116.774 62.9508 116.771 62.9059 116.774 62.9056C116.777 62.9052 116.785 62.9493 116.798 63.0362C116.812 63.1308 116.831 63.2589 116.855 63.4237C116.903 63.7742 116.971 64.2791 117.059 64.9302C117.232 66.2553 117.481 68.1754 117.796 70.5911L117.733 70.5395C120.735 70.2677 124.555 69.7026 128.804 68.5319L128.89 68.5081L128.907 68.597C129.461 71.5063 130.062 74.6614 130.694 77.9817L130.585 77.9094C131.968 77.5846 133.384 77.2519 134.822 76.9142C137.217 76.353 139.55 75.8061 141.775 75.2848L141.867 75.2631L141.883 75.3567C142.057 76.3598 142.129 77.3543 142.183 78.3268C142.235 79.3 142.258 80.2529 142.269 81.1827C142.28 82.1121 142.278 83.0184 142.272 83.8977C142.268 84.3371 142.265 84.7701 142.261 85.1961C142.261 85.4089 142.26 85.6199 142.26 85.8291L142.264 86.1401L142.27 86.2924L142.276 86.3635L142.278 86.3785C142.271 86.3863 142.297 86.3732 142.261 86.3902C142.231 86.4095 142.227 86.3927 142.218 86.4102C142.216 86.4297 142.216 86.3931 142.202 86.4013C142.145 86.365 142.158 86.3746 142.158 86.3746L142.118 86.3554L142.206 86.3269C145.163 85.3751 147.762 84.5381 149.866 83.8607L149.92 83.8432L149.936 83.8984C150.5 85.9131 150.948 87.5143 151.257 88.6206C151.406 89.1639 151.521 89.5856 151.602 89.8798C151.638 90.0179 151.666 90.125 151.687 90.2054C151.706 90.2791 151.714 90.3168 151.712 90.3175Z" fill="#FF4F5B"/>
    <path d="M148.73 95.2729C148.728 95.2736 148.716 95.2455 148.694 95.1896C148.671 95.1266 148.641 95.0444 148.602 94.9391C148.521 94.7089 148.405 94.3808 148.255 93.9566C147.954 93.0859 147.517 91.8224 146.961 90.2169L147.021 90.2489C144.682 90.8802 141.562 91.7224 137.906 92.7095L137.822 92.7322L137.811 92.6447C137.594 90.9499 137.352 89.1295 137.085 87.2112C136.814 85.294 136.532 83.275 136.166 81.1991L136.274 81.2714C134.127 81.7759 131.893 82.3011 129.603 82.8392C128.068 83.1989 126.558 83.5529 125.085 83.8984L124.993 83.9202L124.975 83.8266C124.348 80.5046 123.753 77.3491 123.203 74.4388L123.306 74.5039C119.043 75.6664 115.21 76.2158 112.201 76.467L112.145 76.4716L112.138 76.4154C111.847 73.9954 111.615 72.0732 111.455 70.747C111.38 70.0941 111.322 69.5885 111.281 69.2373C111.264 69.0718 111.251 68.9426 111.24 68.8476C111.232 68.7601 111.229 68.7153 111.232 68.7149C111.235 68.7146 111.243 68.7587 111.257 68.8455C111.27 68.9398 111.289 69.0682 111.313 69.233C111.361 69.5835 111.429 70.0877 111.517 70.7389C111.69 72.0636 111.939 73.9837 112.254 76.4004L112.191 76.3492C115.193 76.0773 119.013 75.5123 123.262 74.3416L123.348 74.3178L123.365 74.4067C123.919 77.316 124.52 80.4708 125.152 83.7913L125.043 83.7195C126.516 83.3736 128.026 83.0188 129.561 82.6584C131.851 82.1214 134.086 81.598 136.233 81.0945L136.325 81.0728L136.342 81.1664C136.707 83.2491 136.985 85.268 137.252 87.1874C137.514 89.1071 137.751 90.9286 137.962 92.6251L137.867 92.5604C141.529 91.5943 144.653 90.7699 146.995 90.1518L147.04 90.14L147.055 90.1842C147.592 91.7964 148.014 93.0649 148.305 93.9392C148.444 94.3669 148.552 94.6978 148.628 94.9298C148.661 95.0373 148.687 95.1209 148.707 95.185C148.724 95.2426 148.732 95.2721 148.73 95.2729Z" fill="#FAFAFA"/>
    <path d="M142.629 102.943C142.629 102.943 142.63 102.843 142.644 102.649C142.66 102.447 142.683 102.161 142.713 101.79C142.779 101.028 142.876 99.9222 142.999 98.5084L143.058 98.5558C140.74 99.3347 137.495 100.425 133.606 101.732L133.526 101.759L133.51 101.674C132.764 97.7616 131.881 93.133 130.926 88.1208L131.035 88.1933C129.174 88.6307 127.234 89.0861 125.254 89.5515C123.411 89.9839 121.602 90.4077 119.845 90.8197L119.753 90.8411L119.736 90.7478C119.108 87.4233 118.513 84.2682 117.964 81.36L118.066 81.4244C113.798 82.588 109.968 83.1363 106.961 83.3875L106.906 83.3922L106.899 83.3366C106.607 80.9135 106.375 78.9913 106.215 77.6658C106.14 77.0132 106.082 76.5079 106.041 76.1575C106.024 75.992 106.011 75.8632 106.001 75.7685C105.993 75.681 105.989 75.6365 105.992 75.6362C105.995 75.6358 106.003 75.6799 106.017 75.7668C106.031 75.8607 106.049 75.9888 106.073 76.1535C106.121 76.5033 106.189 77.0072 106.277 77.658C106.449 78.9817 106.699 80.9017 107.013 83.3221L106.951 83.2712C109.951 82.9997 113.769 82.4357 118.023 81.2636L118.108 81.2401L118.125 81.3283C118.679 84.2355 119.28 87.3895 119.913 90.713L119.804 90.6411C121.561 90.2283 123.369 89.8035 125.213 89.3704C127.193 88.9061 129.133 88.4513 130.994 88.0151L131.086 87.9937L131.103 88.0877C132.047 93.1013 132.919 97.731 133.656 101.645L133.56 101.588C137.457 100.305 140.707 99.2343 143.03 98.4693L143.096 98.4476L143.089 98.5166C142.947 99.9289 142.836 101.034 142.76 101.795C142.721 102.164 142.69 102.45 142.669 102.651C142.646 102.845 142.629 102.943 142.629 102.943Z" fill="#FF4F5B"/>
    <path d="M130.047 110.307C130.045 110.307 130.037 110.284 130.024 110.239C130.01 110.187 129.992 110.121 129.969 110.038C129.921 109.849 129.854 109.586 129.768 109.248C129.597 108.545 129.351 107.533 129.039 106.254C128.735 104.961 128.369 103.398 127.95 101.613C127.545 99.821 127.074 97.8091 126.654 95.5973L126.752 95.6628C123.412 96.4499 119.603 97.3473 115.564 98.2988L115.472 98.3205L115.454 98.2258C115.395 97.9162 115.332 97.5821 115.268 97.2469C114.713 94.311 114.179 91.4839 113.678 88.8387L113.787 88.907C109.583 90.0549 105.741 90.6164 102.681 90.8712L102.62 90.8762L102.613 90.8153C102.326 88.432 102.095 86.5098 101.934 85.173C101.86 84.5168 101.801 84.0048 101.76 83.6465C101.743 83.4792 101.73 83.3479 101.719 83.2497C101.711 83.1604 101.709 83.1145 101.712 83.1141C101.715 83.1138 101.723 83.159 101.738 83.2476C101.752 83.3451 101.772 83.4757 101.796 83.6418C101.845 83.9994 101.914 84.51 102.004 85.1641C102.178 86.4991 102.428 88.4185 102.739 90.799L102.671 90.7431C105.722 90.4673 109.552 89.8905 113.741 88.7366L113.832 88.7117L113.85 88.8053C114.353 91.4498 114.89 94.2765 115.449 97.2117C115.512 97.5469 115.576 97.881 115.634 98.1906L115.524 98.118C119.564 97.1736 123.374 96.283 126.716 95.5019L126.799 95.4827L126.814 95.5678C127.226 97.7732 127.687 99.7893 128.081 101.582C128.486 103.37 128.84 104.936 129.133 106.231C129.426 107.515 129.657 108.531 129.818 109.236C129.894 109.576 129.953 109.841 129.995 110.031C130.012 110.116 130.026 110.183 130.037 110.236C130.046 110.282 130.049 110.306 130.047 110.307Z" fill="#FAFAFA"/>
    <path d="M124.102 109.034C124.091 109.036 124.045 108.862 123.971 108.541C123.894 108.189 123.793 107.729 123.67 107.169C123.422 106.003 123.087 104.373 122.717 102.527L122.827 102.6C122.489 102.679 122.135 102.763 121.775 102.847C119.714 103.331 117.846 103.759 116.492 104.059C115.837 104.201 115.295 104.318 114.886 104.406C114.506 104.484 114.294 104.521 114.292 104.508C114.289 104.496 114.495 104.435 114.87 104.336C115.276 104.233 115.812 104.097 116.462 103.932C117.809 103.599 119.672 103.151 121.733 102.667C122.094 102.583 122.448 102.5 122.786 102.421L122.877 102.4L122.895 102.494C123.259 104.339 123.572 105.972 123.788 107.144C123.889 107.708 123.971 108.172 124.035 108.527C124.089 108.852 124.113 109.031 124.102 109.034Z" fill="#FF4F5B"/>
    <path d="M111.125 102.55C111.113 102.553 111.067 102.373 110.994 102.048C110.918 101.687 110.82 101.222 110.702 100.664C110.463 99.4948 110.146 97.8765 109.807 96.0871C109.786 95.9775 109.765 95.8689 109.746 95.7675L109.86 95.8394C108.187 96.2966 106.667 96.624 105.565 96.8258C105.014 96.9272 104.568 96.999 104.259 97.0428C103.95 97.0866 103.779 97.1033 103.777 97.0912C103.775 97.0788 103.942 97.0385 104.247 96.9738C104.585 96.9023 105.019 96.8108 105.541 96.7005C106.634 96.4667 108.145 96.1194 109.812 95.6611L109.907 95.6348L109.926 95.733C109.945 95.8341 109.966 95.9429 109.987 96.0525C110.326 97.842 110.623 99.4642 110.829 100.64C110.924 101.203 111.003 101.671 111.064 102.035C111.115 102.364 111.138 102.548 111.125 102.55Z" fill="#FF4F5B"/>
    <path d="M98.0667 92.2984C98.0164 92.3048 97.9126 91.8048 97.8345 91.1821C97.7564 90.5591 97.7338 90.0488 97.7842 90.0424C97.8345 90.036 97.9383 90.5356 98.0164 91.1587C98.0942 91.7817 98.117 92.292 98.0667 92.2984Z" fill="#FF4F5B"/>
    <path d="M154.34 85.1165C154.338 85.1168 154.331 85.0877 154.319 85.0293C154.306 84.9635 154.289 84.8785 154.268 84.7696C154.225 84.5308 154.163 84.1921 154.084 83.7551C153.927 82.857 153.7 81.5571 153.412 79.9118L153.471 79.9549C151.994 80.1943 150.193 80.4861 148.153 80.8167L148.085 80.8277L148.073 80.7576C147.539 77.526 146.896 73.6361 146.191 69.365L146.298 69.4362C144.01 69.9742 141.562 70.5496 139.039 71.1428C137.785 71.4367 136.549 71.7263 135.341 72.0099L135.253 72.0306L135.232 71.943C134.447 68.7121 133.716 65.6506 133.167 62.8285L133.26 62.895C128.929 63.5683 125.225 64.1436 122.461 64.5731L122.406 64.5817L122.4 64.5269C122.191 62.7769 122.026 61.3913 121.911 60.433C121.859 59.9655 121.818 59.6025 121.789 59.3471C121.778 59.23 121.769 59.1378 121.762 59.0674C121.756 59.0044 121.754 58.9724 121.757 58.972C121.759 58.9717 121.766 59.0033 121.776 59.0656C121.787 59.1357 121.801 59.2271 121.818 59.3435C121.853 59.5983 121.903 59.9598 121.968 60.4259C122.093 61.3828 122.275 62.7662 122.505 64.5133L122.444 64.4671C125.205 64.0226 128.906 63.4273 133.235 62.731L133.312 62.7185L133.328 62.7975C133.884 65.61 134.62 68.6712 135.408 71.8989L135.299 71.8316C136.508 71.5477 137.743 71.2577 138.997 70.9631C141.521 70.3717 143.969 69.7984 146.257 69.2622L146.35 69.2405L146.365 69.3334C147.057 73.6083 147.688 77.5014 148.211 80.7359L148.131 80.6768C150.173 80.3605 151.976 80.0808 153.455 79.8517L153.506 79.8438L153.514 79.8947C153.781 81.544 153.992 82.8463 154.137 83.7462C154.205 84.1849 154.258 84.5251 154.295 84.7649C154.311 84.8749 154.323 84.9606 154.332 85.0272C154.34 85.0859 154.343 85.1158 154.34 85.1165Z" fill="#FAFAFA"/>
    <path d="M155.529 77.6857C155.529 77.6889 155.496 77.7014 155.431 77.7227C155.356 77.7462 155.26 77.7761 155.14 77.8135C154.887 77.8992 154.501 77.9839 154.025 78.1625C153.061 78.4782 151.696 79.0357 150.111 79.9221C148.525 80.8035 146.75 82.066 144.98 83.696C143.21 85.3261 141.464 87.3383 139.883 89.6298C138.313 91.9324 137.033 94.2695 135.977 96.4454C134.921 98.6223 134.073 100.633 133.383 102.33C132.694 104.027 132.158 105.41 131.783 106.364C131.598 106.831 131.453 107.199 131.349 107.462C131.301 107.579 131.262 107.672 131.232 107.746C131.204 107.81 131.189 107.842 131.186 107.841C131.183 107.84 131.193 107.805 131.214 107.74C131.24 107.664 131.273 107.569 131.314 107.449C131.411 107.183 131.545 106.812 131.716 106.339C132.07 105.377 132.588 103.986 133.263 102.281C133.937 100.576 134.775 98.5575 135.825 96.371C136.875 94.1855 138.155 91.8374 139.732 89.5249C141.321 87.2223 143.08 85.2026 144.866 83.5704C146.652 81.9386 148.445 80.6793 150.048 79.8082C151.649 78.9318 153.029 78.3903 154.003 78.0949C154.483 77.9263 154.874 77.8526 155.131 77.7783C155.252 77.7484 155.349 77.7242 155.426 77.7053C155.493 77.6889 155.528 77.6825 155.529 77.6857Z" fill="#1A2E35"/>
    <path d="M26.1907 132.671C26.0746 132.694 25.5805 133.203 26.2875 134.012C26.9944 134.82 31.2572 137.029 32.0444 135.708C32.8316 134.388 30.9332 133.47 30.9332 133.47L26.1907 132.671Z" fill="#FFBF9D"/>
    <path d="M30.8738 131.247C30.8738 131.247 35.2728 130.755 37.0671 130.988C39.0155 131.241 41.079 130.245 42.3043 128.887C43.5296 127.529 43.8502 125.743 43.8502 125.743L46.6492 123.762C46.6492 123.762 46.9514 117.034 42.5155 118.121L37.3307 118.304C37.3307 118.304 27.1318 120.013 25.5521 121.298C25.5521 121.298 23.6308 123.185 23.0709 123.917C22.8601 124.193 22.6785 126.965 24.6273 127.911C24.6273 127.911 23.4788 129.397 24.4908 130.234L24.9673 130.599C24.9673 130.599 24.3089 132.081 24.9279 132.505C25.5468 132.93 30.4406 134.432 31.8316 133.453C33.223 132.475 31.6121 131.346 30.8738 131.247Z" fill="#FFBF9D"/>
    <path d="M25.3916 127.65C25.3941 127.637 25.5985 127.665 25.9677 127.713C26.3368 127.761 26.8713 127.827 27.534 127.875C27.8651 127.9 28.2286 127.918 28.6188 127.927C29.0084 127.94 29.4271 127.922 29.8737 127.958C30.3157 127.996 30.8044 128.084 31.2197 128.389C31.6145 128.685 31.9548 129.188 31.8774 129.761C31.8404 130.042 31.6807 130.288 31.4843 130.465C31.2837 130.64 31.0515 130.756 30.8189 130.839C30.3491 131.002 29.8825 131.05 29.4412 131.096C28.5544 131.172 27.7542 131.121 27.0902 131.05C26.4251 130.98 25.8924 130.89 25.5246 130.827C25.1573 130.763 24.9553 130.719 24.957 130.707C24.9588 130.694 25.1643 130.713 25.5345 130.756C25.9047 130.797 26.4396 130.867 27.1018 130.92C27.763 130.974 28.5555 131.01 29.4257 130.927C29.8575 130.877 30.3202 130.823 30.7587 130.668C30.9769 130.59 31.1887 130.481 31.3636 130.327C31.5336 130.172 31.6659 129.966 31.6961 129.733C31.7644 129.262 31.4709 128.804 31.1127 128.535C30.7474 128.261 30.2854 128.167 29.8589 128.128C29.4271 128.089 29.007 128.1 28.6139 128.081C28.2209 128.065 27.8556 128.039 27.5227 128.006C26.8573 127.94 26.3231 127.854 25.9561 127.784C25.5897 127.714 25.3895 127.662 25.3916 127.65Z" fill="#FF9A6C"/>
    <path d="M25.0349 124.435C25.0373 124.422 25.2411 124.45 25.6084 124.501C25.9762 124.55 26.5079 124.621 27.1673 124.678C27.8268 124.737 28.614 124.781 29.4888 124.781C29.9216 124.788 30.4125 124.758 30.878 124.992C31.1061 125.108 31.3066 125.311 31.4066 125.564C31.5093 125.814 31.5273 126.094 31.4791 126.361C31.3812 126.906 31.0044 127.331 30.5898 127.594C30.1707 127.863 29.6981 127.989 29.2548 128.033C28.3595 128.112 27.5741 127.971 26.914 127.924C26.2777 127.858 25.751 127.804 25.3498 127.763C24.9807 127.721 24.7773 127.691 24.7783 127.679C24.7794 127.666 24.9849 127.671 25.3558 127.691C25.758 127.717 26.2865 127.752 26.9245 127.793C27.5857 127.825 28.3785 127.949 29.2365 127.863C29.663 127.816 30.1046 127.693 30.4934 127.44C30.8777 127.194 31.2141 126.804 31.2986 126.327C31.3943 125.854 31.2053 125.347 30.7946 125.152C30.3945 124.945 29.9209 124.96 29.4877 124.951C28.6073 124.942 27.8155 124.883 27.1543 124.808C26.4927 124.733 25.9617 124.642 25.5968 124.571C25.2319 124.499 25.0327 124.447 25.0349 124.435Z" fill="#FF9A6C"/>
    <path d="M27.3046 124.828C27.2529 124.84 27.1301 124.45 26.9049 124.007C26.6828 123.563 26.4428 123.233 26.4829 123.198C26.5174 123.164 26.8334 123.454 27.0681 123.923C27.3053 124.39 27.3521 124.819 27.3046 124.828Z" fill="#FF9A6C"/>
    <path d="M40.7588 118.391L36.6002 117.832C36.6002 117.832 24.8459 115.408 24.7315 115.722C24.6171 116.035 24.0372 116.145 24.4718 117.418C24.9064 118.691 31.6895 119.823 31.9914 120.227C32.2933 120.632 32.5101 122.993 35.1732 124.076C37.836 125.159 39.4864 124.796 39.4864 124.796" fill="#FFBF9D"/>
    <path d="M39.4867 124.795C39.4874 124.798 39.4571 124.808 39.397 124.82C39.3368 124.832 39.2467 124.847 39.1274 124.858C38.8895 124.881 38.5352 124.894 38.0819 124.858C37.6287 124.823 37.0766 124.735 36.4527 124.566C35.8326 124.389 35.1239 124.172 34.4082 123.762C33.6931 123.36 33.0277 122.69 32.5766 121.827C32.3457 121.4 32.1849 120.914 32.0107 120.444C31.9886 120.385 31.9622 120.333 31.934 120.288C31.9132 120.257 31.8671 120.236 31.8098 120.209C31.6986 120.16 31.5754 120.121 31.4526 120.082C31.2059 120.006 30.9512 119.938 30.6929 119.869C29.659 119.597 28.5646 119.335 27.4446 119.002C26.8847 118.835 26.3174 118.652 25.7551 118.422C25.475 118.304 25.1949 118.176 24.9282 118.008C24.7941 117.926 24.6664 117.826 24.5499 117.707C24.4953 117.641 24.4404 117.576 24.4053 117.488C24.3658 117.407 24.3535 117.335 24.3264 117.257C24.2413 116.953 24.173 116.621 24.2687 116.288C24.3152 116.122 24.4243 115.979 24.5238 115.865C24.5738 115.808 24.6178 115.754 24.6396 115.703C24.6484 115.689 24.6315 115.709 24.6674 115.657C24.7089 115.614 24.7205 115.622 24.7364 115.615C24.7733 115.603 24.7864 115.607 24.8124 115.603C24.855 115.6 24.8954 115.6 24.9342 115.602C25.5489 115.641 26.1285 115.747 26.7063 115.838C27.8566 116.03 28.9612 116.237 30.013 116.438C32.1163 116.842 34.0056 117.228 35.5909 117.557C35.9868 117.636 36.3654 117.727 36.7205 117.787C37.0805 117.838 37.4207 117.887 37.7395 117.931C38.3719 118.023 38.9184 118.102 39.3713 118.167C39.8076 118.233 40.1521 118.285 40.4016 118.323C40.5104 118.341 40.5983 118.356 40.6691 118.368C40.7292 118.379 40.7598 118.387 40.7595 118.39C40.7591 118.393 40.7278 118.392 40.6666 118.387C40.5952 118.38 40.5065 118.371 40.3967 118.36C40.1458 118.33 39.7995 118.29 39.3611 118.238C38.9068 118.182 38.3582 118.113 37.7237 118.034C37.4038 117.993 37.0629 117.95 36.7015 117.904C36.3372 117.847 35.9639 117.761 35.5655 117.686C33.9718 117.378 32.0808 117.012 29.9821 116.607C28.9303 116.411 27.8253 116.207 26.6774 116.017C26.1049 115.928 25.5148 115.823 24.9289 115.786C24.8926 115.785 24.8578 115.785 24.8251 115.787C24.8142 115.789 24.7885 115.79 24.7895 115.791C24.786 115.786 24.793 115.805 24.7807 115.779C24.761 115.748 24.7762 115.749 24.7635 115.736C24.7596 115.732 24.7543 115.728 24.748 115.727C24.8873 115.78 24.7846 115.746 24.8145 115.76L24.8071 115.777C24.7688 115.865 24.711 115.929 24.6625 115.986C24.5633 116.101 24.4816 116.21 24.4436 116.343C24.3651 116.609 24.4193 116.917 24.5024 117.206C24.5488 117.361 24.5847 117.481 24.6847 117.582C24.7839 117.682 24.899 117.774 25.026 117.852C25.2772 118.01 25.5503 118.136 25.8248 118.252C26.3773 118.478 26.9396 118.661 27.4959 118.828C28.6093 119.162 29.7005 119.427 30.7365 119.704C30.9955 119.774 31.251 119.844 31.5022 119.923C31.6279 119.964 31.7521 120.003 31.8766 120.059C31.9337 120.087 32.0125 120.119 32.0667 120.193C32.1075 120.258 32.1378 120.321 32.1599 120.382C32.3387 120.872 32.4882 121.335 32.7117 121.756C33.1449 122.597 33.7814 123.249 34.4747 123.65C35.1651 124.055 35.8696 124.282 36.4805 124.466C37.0959 124.643 37.641 124.74 38.0893 124.786C38.5376 124.832 38.8888 124.831 39.1257 124.82C39.2442 124.815 39.3343 124.806 39.3952 124.801C39.455 124.795 39.486 124.792 39.4867 124.795Z" fill="#FF9A6C"/>
    <path d="M29.5928 131.036C29.5935 131.026 29.7483 131.019 30.0256 131.057C30.3018 131.096 30.7023 131.187 31.1604 131.398C31.3878 131.507 31.632 131.635 31.8706 131.823C32.0996 132.008 32.3509 132.272 32.3914 132.648C32.4325 133.026 32.1911 133.392 31.8695 133.589C31.5387 133.799 31.1351 133.836 30.7536 133.822C29.2335 133.73 27.8759 133.503 26.9113 133.25C26.4296 133.124 26.0464 132.999 25.786 132.9C25.5252 132.803 25.3855 132.737 25.3897 132.726C25.3943 132.713 25.5421 132.755 25.8081 132.832C26.0738 132.908 26.4598 133.014 26.9416 133.123C27.9033 133.341 29.2599 133.546 30.7596 133.637C31.1263 133.651 31.4937 133.612 31.7748 133.435C32.0574 133.263 32.2531 132.961 32.2232 132.664C32.1985 132.365 31.9877 132.121 31.7752 131.942C31.5577 131.762 31.3206 131.628 31.1048 131.516C30.2209 131.08 29.5836 131.075 29.5928 131.036Z" fill="#FF9A6C"/>
    <path d="M60.1895 106.743C60.1895 106.743 65.4014 98.0678 66.5729 92.3422C67.7443 86.6166 73.7972 77.5344 75.7499 75.1653C77.7026 72.7962 85.5125 70.0321 85.5125 70.0321L88.3924 68.4618L110.7 66.4785C110.7 66.4785 125.539 68.058 130.03 72.2041C134.521 76.3502 138.035 85.827 138.035 90.5655C138.035 95.3041 142.57 136.339 142.57 136.339L87.5992 136.266L88.8315 116.035C88.8315 116.035 82.1931 111.494 80.4357 107.545C78.6783 103.596 79.6549 105.57 79.6549 105.57C79.6549 105.57 73.4228 118.967 71.2752 120.547C69.1273 122.126 44.1636 129.873 44.1636 129.873L40.7446 116.625L60.1895 106.743Z" fill="#FF4F5B"/>
    <path d="M125.091 73.8585C124.488 74.0475 117.044 93.4935 116.519 95.2623C115.994 97.0311 116.519 108.175 116.519 108.175L118.968 112.774C118.968 112.774 118.269 116.135 118.793 117.728L107.772 119.85C107.772 119.85 104.973 117.904 102.349 119.85L89.3477 120.962C89.3477 120.962 93.165 121.006 92.028 126.926C90.9143 132.725 90.068 134 90.068 134L135.762 132.945C135.762 132.945 140.838 132.692 140.064 122.82C139.29 112.949 137.112 85.7226 137.112 85.7226C137.112 85.7226 133.78 71.1333 125.091 73.8585Z" fill="#FF4F5B"/>
    <path d="M116.416 106.62C116.41 106.623 116.373 106.54 116.308 106.381C116.238 106.204 116.145 105.971 116.03 105.681C115.909 105.377 115.766 105.002 115.625 104.559C115.482 104.117 115.299 103.619 115.149 103.053C114.987 102.49 114.81 101.873 114.662 101.2C114.491 100.532 114.36 99.8074 114.216 99.0456C113.958 97.5173 113.753 95.8218 113.68 94.0327C113.618 92.2425 113.689 90.5356 113.831 88.9916C113.922 88.2216 113.995 87.4879 114.119 86.8094C114.176 86.4695 114.221 86.1397 114.284 85.8258C114.349 85.5131 114.412 85.2128 114.472 84.9252C114.582 84.3495 114.729 83.8396 114.842 83.3888C114.952 82.9365 115.069 82.5533 115.171 82.2423C115.266 81.9445 115.343 81.7061 115.401 81.525C115.456 81.3616 115.487 81.2769 115.493 81.2787C115.499 81.2808 115.48 81.3694 115.436 81.536C115.387 81.7196 115.321 81.9608 115.239 82.2626C115.149 82.5764 115.042 82.9614 114.942 83.4147C114.838 83.867 114.701 84.3773 114.6 84.9526C114.544 85.2394 114.485 85.5398 114.424 85.8518C114.365 86.1649 114.324 86.4941 114.269 86.8332C114.153 87.51 114.086 88.2409 114 89.008C113.868 90.5459 113.802 92.2443 113.864 94.0255C113.937 95.8058 114.135 97.4934 114.383 99.0164C114.521 99.7754 114.647 100.498 114.811 101.165C114.951 101.837 115.121 102.453 115.274 103.017C115.416 103.583 115.59 104.082 115.723 104.526C115.854 104.972 115.987 105.348 116.098 105.655C116.2 105.951 116.281 106.187 116.342 106.367C116.396 106.531 116.421 106.618 116.416 106.62Z" fill="#1A2E35"/>
    <path d="M132.314 127.709C132.309 127.713 132.269 127.666 132.197 127.573C132.114 127.463 132.013 127.328 131.891 127.165C131.762 126.985 131.602 126.767 131.402 126.525C131.205 126.28 130.991 125.993 130.727 125.7C130.47 125.4 130.187 125.073 129.862 124.741C129.549 124.398 129.187 124.06 128.812 123.698C128.045 122.993 127.164 122.26 126.182 121.567C125.195 120.883 124.206 120.307 123.282 119.83C122.815 119.604 122.374 119.38 121.946 119.206C121.525 119.015 121.122 118.863 120.754 118.725C120.389 118.578 120.048 118.478 119.753 118.377C119.458 118.274 119.2 118.199 118.987 118.14C118.793 118.082 118.633 118.034 118.502 117.995C118.391 117.96 118.334 117.939 118.335 117.932C118.336 117.926 118.397 117.936 118.51 117.959C118.644 117.989 118.808 118.026 119.006 118.071C119.221 118.119 119.483 118.184 119.782 118.278C120.082 118.37 120.428 118.462 120.798 118.602C121.171 118.732 121.578 118.878 122.005 119.064C122.438 119.234 122.885 119.453 123.358 119.678C124.291 120.15 125.292 120.726 126.286 121.416C127.275 122.113 128.161 122.856 128.927 123.573C129.301 123.942 129.662 124.286 129.972 124.636C130.294 124.975 130.573 125.309 130.825 125.616C131.085 125.916 131.293 126.211 131.483 126.462C131.676 126.712 131.829 126.937 131.949 127.124C132.061 127.295 132.152 127.437 132.227 127.553C132.29 127.652 132.32 127.706 132.314 127.709Z" fill="#1A2E35"/>
    <path d="M136.162 125.116C136.135 125.141 135.731 124.674 134.968 124.047C134.59 123.73 134.111 123.39 133.556 123.05C132.996 122.72 132.358 122.396 131.661 122.124C130.959 121.859 130.269 121.674 129.633 121.546C128.996 121.429 128.414 121.362 127.923 121.344C126.941 121.303 126.332 121.38 126.329 121.344C126.328 121.331 126.478 121.306 126.754 121.271C126.891 121.251 127.06 121.233 127.257 121.227C127.454 121.22 127.679 121.201 127.927 121.213C128.424 121.214 129.015 121.268 129.664 121.378C130.31 121.499 131.013 121.682 131.725 121.951C132.434 122.227 133.081 122.561 133.644 122.904C134.201 123.257 134.679 123.613 135.051 123.946C135.245 124.104 135.401 124.268 135.543 124.406C135.687 124.542 135.801 124.669 135.891 124.776C136.075 124.987 136.171 125.107 136.162 125.116Z" fill="#1A2E35"/>
    <path d="M131.937 118.613C131.914 118.647 131.375 118.213 130.39 117.721C130.143 117.6 129.872 117.469 129.569 117.358C129.272 117.229 128.941 117.134 128.595 117.023C127.897 116.829 127.113 116.675 126.279 116.612C125.444 116.559 124.646 116.604 123.928 116.7C123.571 116.762 123.229 116.811 122.918 116.898C122.603 116.966 122.316 117.058 122.056 117.144C121.014 117.496 120.422 117.851 120.403 117.814C120.397 117.803 120.543 117.714 120.814 117.561C120.948 117.482 121.116 117.392 121.32 117.306C121.522 117.218 121.748 117.104 122.013 117.02C122.275 116.925 122.563 116.825 122.882 116.749C123.196 116.654 123.542 116.599 123.903 116.531C124.631 116.424 125.442 116.374 126.292 116.427C127.14 116.491 127.936 116.653 128.643 116.859C128.992 116.976 129.327 117.079 129.625 117.216C129.931 117.335 130.203 117.474 130.449 117.604C130.701 117.724 130.909 117.869 131.097 117.983C131.288 118.096 131.442 118.209 131.564 118.306C131.812 118.494 131.945 118.603 131.937 118.613Z" fill="#1A2E35"/>
    <path d="M105.212 133.197C105.172 133.185 105.441 132.455 105.537 131.217C105.597 130.601 105.582 129.861 105.52 129.045C105.445 128.229 105.29 127.34 105.06 126.423C104.819 125.508 104.507 124.663 104.184 123.912C103.834 123.174 103.494 122.518 103.138 122.013C102.452 120.984 101.868 120.476 101.899 120.445C101.907 120.436 102.05 120.564 102.301 120.805C102.432 120.92 102.573 121.08 102.73 121.272C102.811 121.368 102.897 121.469 102.986 121.576C103.071 121.688 103.154 121.811 103.245 121.938C103.618 122.44 103.974 123.098 104.338 123.841C104.673 124.597 104.994 125.451 105.237 126.376C105.47 127.303 105.621 128.204 105.688 129.03C105.741 129.857 105.743 130.607 105.666 131.23C105.649 131.385 105.633 131.533 105.617 131.674C105.591 131.812 105.565 131.942 105.541 132.066C105.494 132.31 105.452 132.52 105.393 132.686C105.288 133.02 105.224 133.201 105.212 133.197Z" fill="#1A2E35"/>
    <path d="M97.5517 119.843C97.5485 119.843 97.5412 119.808 97.5292 119.74C97.5169 119.661 97.501 119.561 97.4813 119.436C97.4416 119.155 97.386 118.763 97.3152 118.265C97.1727 117.247 96.9848 115.772 96.7684 113.947C96.3345 110.298 95.8179 105.247 95.4136 99.6534C95.0114 94.058 94.7982 88.9835 94.7042 85.3096C94.6567 83.4725 94.631 81.9858 94.6261 80.9582C94.6247 80.4547 94.6233 80.0587 94.6226 79.7747C94.624 79.648 94.6254 79.5466 94.6261 79.4669C94.6278 79.3975 94.6303 79.3619 94.6335 79.3619C94.6366 79.3619 94.6405 79.3975 94.6447 79.4666C94.6486 79.5463 94.6532 79.6473 94.6592 79.774C94.6683 80.0576 94.681 80.4533 94.6972 80.9564C94.7299 81.9968 94.7763 83.4789 94.8337 85.305C94.9611 88.9764 95.1947 94.0473 95.5966 99.6395C96.0009 105.23 96.4967 110.281 96.8975 113.932C97.1027 115.747 97.2695 117.221 97.3863 118.255C97.4426 118.755 97.4866 119.149 97.5183 119.431C97.5306 119.557 97.5404 119.658 97.5482 119.737C97.5535 119.807 97.5549 119.842 97.5517 119.843Z" fill="#1A2E35"/>
    <path d="M79.602 105.826C79.59 105.83 79.5056 105.636 79.363 105.282C79.223 104.926 79.0126 104.416 78.7479 103.787C78.219 102.53 77.4301 100.819 76.4895 98.9624C75.5457 97.1228 74.692 95.4586 74.0554 94.2175C73.7489 93.6072 73.5051 93.1116 73.3432 92.7653C73.1806 92.4195 73.0962 92.2259 73.1074 92.2199C73.1187 92.2142 73.2246 92.397 73.4066 92.7322C73.6019 93.0963 73.8591 93.5763 74.1698 94.1563C74.8106 95.3607 75.7086 97.0186 76.6524 98.8778C77.5948 100.737 78.3679 102.463 78.8676 103.737C79.1174 104.373 79.3096 104.892 79.4295 105.256C79.5517 105.619 79.6136 105.821 79.602 105.826Z" fill="#1A2E35"/>
    <path d="M76.7928 99.2508C76.7893 99.2633 76.676 99.2405 76.4744 99.1893C76.272 99.1391 75.9831 99.0534 75.6291 98.9367C74.9215 98.7039 73.9591 98.3285 72.9396 97.819C71.9205 97.3077 71.0419 96.7611 70.4299 96.3331C70.1238 96.1192 69.881 95.9388 69.7187 95.8064C69.5558 95.6751 69.4696 95.5979 69.477 95.5876C69.4935 95.5645 69.8732 95.8256 70.5007 96.2235C71.1277 96.6213 72.0096 97.1458 73.0206 97.6532C74.0322 98.1588 74.9788 98.5502 75.6721 98.8132C76.3653 99.0765 76.8009 99.2234 76.7928 99.2508Z" fill="#1A2E35"/>
    <path d="M72.0742 111.404C72.0664 111.414 71.932 111.33 71.6966 111.171C71.4626 111.009 71.1174 110.785 70.6849 110.519C69.8214 109.985 68.5823 109.321 67.1371 108.772C65.6901 108.226 64.3241 107.904 63.3268 107.733C62.8282 107.646 62.4217 107.586 62.1406 107.553C61.8594 107.517 61.7035 107.49 61.7046 107.477C61.7057 107.465 61.8629 107.466 62.1473 107.481C62.432 107.493 62.8426 107.533 63.3472 107.603C64.3565 107.743 65.7411 108.048 67.2019 108.599C68.6608 109.153 69.903 109.843 70.7542 110.408C71.1807 110.69 71.5164 110.933 71.7385 111.113C71.9619 111.291 72.0816 111.394 72.0742 111.404Z" fill="#1A2E35"/>
    <path d="M110.12 66.5097C110.126 66.5105 110.119 66.6101 110.1 66.799C110.077 67.0047 110.046 67.2794 110.007 67.6242C109.915 68.3394 109.788 69.3759 109.573 70.6484C109.358 71.9201 109.065 73.432 108.588 75.0735C108.099 76.7067 107.422 78.4805 106.375 80.1558C105.834 81.0389 105.191 81.8203 104.541 82.5327L104.469 82.6113L104.404 82.5234C103.459 81.2474 102.258 80.3088 101.064 79.722C100.472 79.4135 99.8685 79.2253 99.3059 79.0669C98.7354 78.9399 98.1974 78.8548 97.7047 78.8495C96.7191 78.8253 95.9354 78.9968 95.4231 79.1744C94.9111 79.3551 94.6426 79.49 94.6348 79.4729C94.6324 79.4679 94.6978 79.4327 94.8266 79.3694C94.9579 79.3131 95.1412 79.1993 95.4023 79.1142C95.9136 78.9164 96.7047 78.7232 97.7072 78.7321C98.2083 78.7296 98.7562 78.8086 99.3379 78.9313C99.9115 79.0854 100.527 79.2715 101.133 79.58C102.351 80.1671 103.58 81.1154 104.548 82.416L104.412 82.4067C105.052 81.7015 105.685 80.9297 106.22 80.0565C107.255 78.4008 107.931 76.6448 108.426 75.024C108.909 73.3954 109.215 71.8913 109.446 70.6252C109.677 69.3585 109.823 68.3255 109.936 67.6139C109.989 67.2709 110.032 66.9979 110.064 66.7933C110.094 66.6069 110.114 66.509 110.12 66.5097Z" fill="#1A2E35"/>
    <path d="M110.42 66.7333L107.03 62.1905L103.347 62.3075L91.376 68.7025L110.42 66.7333Z" fill="#FF4F5B"/>
    <path d="M94.6349 79.4732C94.6342 79.4792 94.5677 79.4778 94.4403 79.4686C94.3132 79.4565 94.1257 79.4337 93.8889 79.3771C93.4124 79.2743 92.7491 79.0035 91.9985 78.5601C91.6248 78.3338 91.2081 78.1239 90.713 78.0214C90.2243 77.9147 89.6767 77.8987 89.1256 78.0189C88.0263 78.2431 86.927 79.1099 86.4685 80.3553L86.2764 80.8766L86.2911 80.3197C86.2947 80.182 86.2989 80.0336 86.3028 79.8845C86.346 77.0827 86.3482 74.5393 86.4615 72.7021C86.5121 71.7834 86.585 71.0411 86.6596 70.5316C86.6927 70.2764 86.7314 70.0797 86.7595 69.947C86.787 69.8142 86.8042 69.7452 86.8105 69.7463C86.8281 69.7495 86.7785 70.0295 86.7307 70.5401C86.6782 71.0504 86.6251 71.7909 86.5913 72.7085C86.5114 74.5435 86.5297 77.0806 86.4864 79.8888C86.4826 80.0386 86.4784 80.1873 86.4748 80.3258L86.2975 80.2905C86.7817 78.9804 87.9369 78.0801 89.0919 77.8535C90.2556 77.6065 91.3468 77.9577 92.0625 78.4484C92.8019 78.9039 93.4416 79.185 93.9068 79.3084C94.3688 79.4394 94.6373 79.4547 94.6349 79.4732Z" fill="#1A2E35"/>
    <path d="M107.031 40.1856V67.4659C107.031 69.0248 106.486 70.5332 105.493 71.7252C103.97 73.5534 102.135 75.0903 100.075 76.2631L94.6334 79.362L90.132 75.2981C88.8078 74.1028 88.0231 72.4144 87.9527 70.6211C87.8746 68.6334 87.8753 66.6315 87.8753 66.6315C87.8753 66.6315 80.2484 66.0778 79.5323 58.4731C79.1952 54.8924 79.0885 47.5584 79.0699 40.7998C79.0488 33.089 84.8965 26.6578 92.496 26.0219L92.711 26.0037C100.581 25.8109 107.058 32.2247 107.031 40.1856Z" fill="#FFBF9D"/>
    <path d="M87.854 66.5228C87.854 66.5228 92.644 66.5161 97.4382 62.8806C97.4382 62.8806 95.5664 68.5535 87.9983 68.4966L87.854 66.5228Z" fill="#FF9A6C"/>
    <path d="M81.6041 45.9113C81.6309 46.487 82.1355 46.9386 82.7305 46.9215C83.3245 46.9041 83.7855 46.4244 83.7584 45.8483C83.7313 45.2726 83.2274 44.82 82.6331 44.8374C82.0384 44.8548 81.5774 45.3356 81.6041 45.9113Z" fill="#1A2E35"/>
    <path d="M80.9919 43.8687C81.1369 43.9993 81.9015 43.3215 83.0585 43.2279C84.2131 43.1176 85.1115 43.6485 85.2252 43.4944C85.2818 43.4257 85.1249 43.1813 84.7332 42.94C84.3472 42.6995 83.7046 42.4878 82.9843 42.5515C82.264 42.6159 81.6795 42.9347 81.3536 43.2386C81.0204 43.5442 80.9208 43.8107 80.9919 43.8687Z" fill="#1A2E35"/>
    <path d="M92.6124 45.4404C92.6395 46.0161 93.1438 46.4677 93.7388 46.4506C94.3328 46.4332 94.7938 45.9535 94.7671 45.3778C94.74 44.802 94.2357 44.3498 93.6414 44.3669C93.0463 44.3839 92.5857 44.8647 92.6124 45.4404Z" fill="#1A2E35"/>
    <path d="M92.3821 43.1351C92.5275 43.2657 93.2928 42.5882 94.4492 42.4946C95.6037 42.3843 96.5021 42.9148 96.6157 42.7611C96.672 42.6924 96.5169 42.448 96.1231 42.2071C95.7371 41.9662 95.0949 41.7548 94.3746 41.8182C93.6542 41.8826 93.0701 42.2014 92.7439 42.5053C92.4117 42.8106 92.3118 43.0771 92.3821 43.1351Z" fill="#1A2E35"/>
    <path d="M88.8933 52.1621C88.8933 52.0952 88.1638 52.0298 86.986 51.9768C86.688 51.9707 86.4036 51.9348 86.3371 51.7348C86.2499 51.5249 86.347 51.1925 86.4617 50.8328C86.6802 50.0866 86.9089 49.3045 87.1493 48.485C88.0976 45.1448 88.7578 42.4082 88.6244 42.3708C88.4911 42.3334 87.6141 45.0103 86.6661 48.3509C86.4395 49.1739 86.2224 49.9585 86.0165 50.7093C85.9328 51.058 85.7716 51.4594 85.9592 51.8946C86.057 52.1113 86.2872 52.255 86.4807 52.2906C86.6749 52.3333 86.8414 52.3226 86.9881 52.3191C88.1663 52.2845 88.8943 52.229 88.8933 52.1621Z" fill="#1A2E35"/>
    <path d="M92.3643 52.6871C92.1754 52.6918 92.2767 53.9617 91.2756 54.9531C90.2766 55.9473 88.9264 55.9167 88.9309 56.0949C88.92 56.176 89.2494 56.3166 89.8156 56.2849C90.3716 56.2579 91.1661 56.0099 91.7788 55.4035C92.3893 54.7958 92.6107 54.0347 92.611 53.5102C92.6156 52.9754 92.4495 52.6726 92.3643 52.6871Z" fill="#1A2E35"/>
    <path d="M91.7074 38.5753C91.8475 38.8838 92.9904 38.6365 94.3611 38.6885C95.7331 38.7123 96.8606 39.0226 97.0172 38.7223C97.0861 38.5789 96.8711 38.2956 96.4031 38.0249C95.9393 37.7541 95.2155 37.5207 94.3931 37.4968C93.5711 37.4751 92.8356 37.6683 92.3577 37.9131C91.8767 38.1576 91.6462 38.4284 91.7074 38.5753Z" fill="#1A2E35"/>
    <path d="M81.1398 40.4472C81.365 40.6959 82.1395 40.3533 83.0967 40.2604C84.0507 40.1334 84.8811 40.2906 85.0451 39.9971C85.1158 39.8555 84.9663 39.6 84.5912 39.3779C84.2213 39.1566 83.6199 39.0008 82.9633 39.0759C82.3067 39.152 81.7556 39.4406 81.4445 39.7409C81.1282 40.0419 81.0395 40.3248 81.1398 40.4472Z" fill="#1A2E35"/>
    <path d="M98.1733 32.5216C98.1881 32.5315 98.2025 32.5415 98.2173 32.5511C99.4943 33.4079 100.4 34.727 100.735 36.2393C100.747 36.2923 100.758 36.3432 100.769 36.3912C101.241 38.5379 101.369 40.7512 101.862 42.8933C102.354 45.035 102.263 46.6722 104.385 47.1547C105.724 47.4592 106.862 46.706 107.339 45.9409C107.524 45.6449 107.528 45.2734 107.526 44.9236C107.499 39.647 108.548 37.5978 108.089 32.1163C107.964 30.6243 107.155 29.2818 105.885 28.5132C104.682 27.7855 103.226 27.0486 102.015 27.7578C100.799 28.4691 99.3634 30.9922 98.4682 32.086" fill="#1A2E35"/>
    <path d="M104.774 43.8429C104.898 43.776 109.82 41.8627 110.082 47.0813C110.343 52.2995 105.109 51.4889 105.092 51.3395C105.076 51.19 104.774 43.8429 104.774 43.8429Z" fill="#FFBF9D"/>
    <path d="M106.569 49.2818C106.591 49.264 106.662 49.3408 106.818 49.4035C106.97 49.4643 107.226 49.4988 107.49 49.3828C108.026 49.1526 108.441 48.2538 108.419 47.3119C108.408 46.8362 108.287 46.3889 108.102 46.0231C107.925 45.6495 107.668 45.3951 107.391 45.3598C107.115 45.31 106.928 45.4861 106.873 45.6363C106.811 45.7858 106.849 45.8882 106.822 45.8986C106.808 45.9124 106.707 45.8167 106.738 45.5993C106.754 45.4947 106.808 45.3684 106.924 45.262C107.043 45.1538 107.223 45.0926 107.415 45.1036C107.814 45.1111 108.191 45.463 108.394 45.8647C108.62 46.2672 108.767 46.7689 108.779 47.3034C108.799 48.3566 108.316 49.3679 107.581 49.6241C107.222 49.7383 106.914 49.6433 106.751 49.528C106.585 49.4074 106.552 49.2921 106.569 49.2818Z" fill="#FF9A6C"/>
    <path d="M102.254 28.5491C103.351 26.3611 99.6339 23.6618 97.0274 23.0644C94.4209 22.4673 91.1772 23.9995 88.7185 25.0588C87.1674 25.7274 85.6388 26.6066 83.9539 26.6771C82.824 26.7244 81.7158 26.4003 80.6222 26.1096C79.5285 25.8185 78.3936 25.5562 77.2757 25.7278C76.1577 25.8993 75.0496 26.601 74.709 27.6916C74.3687 28.7818 75.0982 30.176 76.2274 30.2393C74.7382 29.5671 72.7626 30.7794 72.6645 32.4259C72.5663 34.0723 74.382 35.5159 75.9413 35.0323C75.1632 34.5327 74.1174 35.5532 74.2832 36.4698C74.4489 37.3865 75.3329 37.9896 76.2041 38.2924C78.4285 39.066 80.9061 38.5522 83.0661 37.6103C85.226 36.6684 87.1899 35.318 89.3259 34.3217C91.4619 33.3254 95.0315 31.5601 97.3068 32.1633C98.9818 32.6073 100.277 34.495 101.16 33.9805C102.014 33.483 102.5 32.4952 102.598 31.5039C102.695 30.5126 102.474 29.5205 102.254 28.5491Z" fill="#1A2E35"/>
    <path d="M75.5942 30.1477C75.635 30.1182 75.8908 30.5107 76.4936 31.0718C77.0961 31.6223 78.0937 32.3293 79.5058 32.6941C80.8933 33.057 82.7383 33.0577 84.3978 32.0827C86.0841 31.1441 87.4516 29.4315 89.0534 27.7918C90.6499 26.1397 92.5892 24.8534 94.6084 24.4979C96.6149 24.1339 98.5447 24.7274 99.6714 25.8095C100.806 26.9022 101.123 28.2298 101.115 29.076C101.112 29.5087 101.031 29.836 100.971 30.0513C100.895 30.2634 100.845 30.3691 100.829 30.3634C100.78 30.3509 100.96 29.9047 100.916 29.082C100.866 28.2807 100.506 27.0528 99.4286 26.0796C98.3641 25.1185 96.5649 24.6011 94.6928 24.9655C92.8109 25.3231 90.973 26.5436 89.4137 28.1569C87.8418 29.7603 86.4307 31.5188 84.6248 32.4991C82.8298 33.521 80.8494 33.4747 79.4105 33.0463C77.9392 32.6165 76.9328 31.8283 76.3546 31.2163C76.0671 30.9039 75.8641 30.6438 75.7518 30.4502C75.6336 30.2609 75.5794 30.1577 75.5942 30.1477Z" fill="#375A64"/>
    <path d="M106.066 43.5057C106.049 43.5249 105.833 43.3812 105.604 42.9844C105.375 42.5941 105.166 41.9369 105.193 41.1192C105.17 39.4329 106.489 37.5107 106.486 35.1783C106.506 34.0247 106.217 32.9255 105.662 32.1192C105.112 31.3151 104.313 30.8283 103.612 30.6087C102.903 30.3778 102.282 30.4276 101.875 30.5162C101.467 30.6173 101.252 30.7336 101.23 30.6938C101.216 30.6735 101.397 30.4945 101.817 30.3241C102.234 30.1671 102.917 30.0512 103.709 30.2575C104.493 30.4536 105.396 30.9475 106.046 31.8452C106.691 32.7337 107.019 33.9464 106.997 35.1847C106.993 36.4283 106.639 37.5823 106.272 38.548C105.908 39.518 105.609 40.3844 105.554 41.1398C105.407 42.6877 106.14 43.4744 106.066 43.5057Z" fill="#375A64"/>
    <path d="M104.9 51.1783L104.062 50.3927C103.757 50.1069 103.739 49.6255 104.021 49.3174L107.167 45.8847C107.449 45.5765 107.925 45.558 108.23 45.8438L109.069 46.6294C109.373 46.9152 109.392 47.3966 109.109 47.7047L105.964 51.1374C105.682 51.4456 105.205 51.4641 104.9 51.1783Z" fill="#1A2E35"/>
    <path d="M138.073 91.7367C138.073 91.7367 138.082 91.8065 138.093 91.9438C138.104 92.0851 138.119 92.289 138.139 92.5565C138.177 93.1013 138.232 93.9016 138.304 94.9427C138.444 97.0346 138.647 100.09 138.905 103.963C139.159 107.84 139.466 112.535 139.816 117.896C139.904 119.237 139.993 120.62 140.086 122.042C140.138 122.751 140.165 123.477 140.197 124.21C140.226 124.577 140.197 124.947 140.188 125.319C140.167 125.69 140.185 126.067 140.126 126.44C140.08 126.815 140.035 127.191 139.988 127.571C139.909 127.945 139.829 128.321 139.749 128.699C139.643 129.071 139.518 129.44 139.402 129.814C139.24 130.17 139.106 130.542 138.916 130.89C138.179 132.275 137.028 133.57 135.427 134.104L135.42 134.106H135.408C125.142 134.104 113.401 134.102 100.984 134.099C97.2771 134.097 93.6305 134.095 90.0672 134.092H89.9475L89.9799 133.976C90.3132 132.775 90.6436 131.583 90.9712 130.401C91.1352 129.81 91.2981 129.222 91.4607 128.636C91.6257 128.049 91.7908 127.474 91.8682 126.88C92.0431 125.701 91.9248 124.493 91.5652 123.385C91.3815 122.834 91.1183 122.31 90.7435 121.883C90.3783 121.458 89.8684 121.133 89.3409 121.049L88.6191 120.936L89.3398 120.874C93.8863 120.488 98.2343 120.119 102.342 119.77L102.302 119.785C103.122 119.187 104.123 118.861 105.103 118.915C106.081 118.96 107.012 119.28 107.815 119.787L107.758 119.775C111.729 119.014 115.417 118.308 118.781 117.663L118.732 117.748C118.592 117.313 118.558 116.869 118.542 116.438C118.529 116.006 118.543 115.581 118.577 115.165C118.642 114.332 118.759 113.533 118.911 112.762L118.917 112.802C118.032 111.134 117.222 109.607 116.475 108.199L116.469 108.189L116.469 108.177C116.296 104.075 116.235 100.842 116.264 98.6348C116.276 97.5314 116.318 96.6842 116.376 96.1159C116.404 95.8312 116.432 95.6167 116.47 95.4754C116.5 95.3334 116.519 95.2623 116.519 95.2623C116.519 95.2623 116.509 95.3359 116.483 95.4783C116.45 95.6195 116.426 95.8341 116.403 96.1184C116.354 96.6863 116.321 97.5325 116.317 98.6355C116.305 100.841 116.381 104.074 116.569 108.173L116.563 108.151C117.315 109.557 118.129 111.081 119.019 112.746L119.029 112.765L119.025 112.786C118.876 113.551 118.762 114.349 118.699 115.174C118.667 115.587 118.654 116.008 118.668 116.433C118.685 116.857 118.721 117.294 118.854 117.706L118.877 117.777L118.805 117.791C115.442 118.442 111.756 119.156 107.786 119.925L107.758 119.93L107.729 119.913C106.958 119.427 106.04 119.111 105.097 119.071C104.149 119.021 103.19 119.336 102.396 119.914L102.378 119.928L102.356 119.93C98.2487 120.283 93.9011 120.657 89.355 121.048L89.3539 120.873C89.9616 120.968 90.4817 121.315 90.8744 121.764C91.2703 122.214 91.5434 122.76 91.7327 123.326C92.1025 124.464 92.2229 125.697 92.0452 126.905C91.9663 127.509 91.7971 128.101 91.6338 128.684C91.4716 129.269 91.3087 129.858 91.145 130.449C90.8178 131.631 90.4877 132.823 90.1552 134.024L90.0679 133.908C93.6312 133.909 97.2778 133.911 100.985 133.913C113.402 133.922 125.143 133.931 135.409 133.939L135.389 133.941C136.139 133.705 136.821 133.238 137.386 132.696C137.948 132.142 138.417 131.504 138.776 130.814C138.963 130.474 139.096 130.107 139.256 129.757C139.37 129.389 139.495 129.025 139.6 128.659C139.68 128.285 139.759 127.914 139.838 127.544C139.884 127.169 139.929 126.796 139.975 126.425C140.035 126.056 140.017 125.682 140.038 125.313C140.048 124.944 140.077 124.578 140.049 124.213C140.018 123.484 139.993 122.765 139.942 122.053C139.852 120.631 139.765 119.248 139.681 117.907C139.345 112.543 139.05 107.848 138.807 103.97C138.569 100.095 138.381 97.0382 138.252 94.9456C138.191 93.9037 138.144 93.1027 138.112 92.5576C138.098 92.2897 138.087 92.0854 138.079 91.9442C138.073 91.8072 138.073 91.7367 138.073 91.7367Z" fill="#1A2E35"/>
    <path d="M128.108 72.3483C128.115 72.3625 127.885 72.4913 127.481 72.7418C127.076 72.9909 126.507 73.3802 125.852 73.9214C124.535 74.9932 122.949 76.7727 121.636 79.0244C120.32 81.2767 119.447 83.4875 118.82 85.0806C118.519 85.862 118.272 86.5032 118.09 86.9757C118.007 87.1828 117.94 87.3525 117.886 87.4892C117.837 87.6059 117.809 87.666 117.803 87.6639C117.797 87.6617 117.814 87.5973 117.851 87.4763C117.897 87.3365 117.954 87.1625 118.023 86.9508C118.176 86.4957 118.403 85.8395 118.7 85.0336C119.296 83.427 120.153 81.1992 121.479 78.9297C122.803 76.6602 124.422 74.8743 125.772 73.8193C126.443 73.2863 127.027 72.9109 127.446 72.6796C127.651 72.5572 127.821 72.4817 127.932 72.4241C128.044 72.3686 128.105 72.3426 128.108 72.3483Z" fill="#1A2E35"/>
    <g opacity="0.3">
      <g opacity="0.3">
        <path opacity="0.3" d="M114.334 85.9344C112.837 89.2226 112.235 92.9591 112.367 96.5768C112.499 100.194 112.928 103.821 112.578 107.424C112.228 111.026 110.989 114.703 108.332 117.128C108.013 117.42 107.666 117.703 107.475 118.092C107.283 118.481 107.3 119.018 107.639 119.284C107.941 119.521 108.368 119.466 108.744 119.4C111.291 118.952 113.865 118.634 116.412 118.186C116.957 118.091 118.792 117.728 118.792 117.728C118.792 117.728 118.55 116.315 118.638 115.611C118.718 114.967 118.967 112.774 118.967 112.774C118.894 112.437 118.65 112.178 118.48 111.859C116.804 108.712 116.369 106.382 116.369 106.382C115.5 104.583 115.11 102.776 114.707 101.097C113.59 96.4338 113.623 91.8397 114.334 85.9344Z" fill="black"/>
      </g>
    </g>
    <g opacity="0.3">
      <g opacity="0.3">
        <path opacity="0.3" d="M86.4382 80.6233C86.6472 81.1574 86.8559 81.6915 87.0649 82.2256C87.1283 82.3879 87.2081 82.5672 87.3693 82.6298C87.6821 82.7515 87.9323 82.3619 88.0812 82.058C88.6699 80.8564 89.8857 79.9924 91.2032 79.8391C92.2726 79.7145 93.3701 80.0284 94.4241 79.8067C93.4923 79.2456 92.5502 78.6798 91.5178 78.3442C90.4853 78.0087 89.3389 77.919 88.3268 78.3136C87.3148 78.7079 86.4762 79.6516 86.3984 80.7454" fill="black"/>
      </g>
    </g>
    <g opacity="0.3">
      <g opacity="0.3">
        <path opacity="0.3" d="M95.1384 79.2732C96.388 79.2949 97.6492 79.318 98.865 79.6112C100.081 79.9044 101.264 80.4933 102.056 81.4708C102.907 82.5201 103.225 83.8947 103.568 85.2063C103.634 85.4582 103.754 85.7581 104.01 85.7866C104.164 85.8037 104.307 85.7098 104.432 85.6169C106.535 84.0541 107.928 81.6576 108.688 79.1326C109.449 76.6077 109.624 73.9422 109.667 71.303C108.661 73.1202 108.224 75.1922 107.56 77.1638C106.897 79.1355 105.915 81.1217 104.191 82.2604C104.248 81.8152 104.074 81.3626 103.799 81.0107C103.523 80.6588 103.153 80.3947 102.773 80.1627C100.453 78.7466 97.5295 78.3847 94.9399 79.1931" fill="black"/>
      </g>
    </g>
    <path d="M89.6681 121.186H85.3591C85.3591 121.186 75.6363 117.634 73.6372 117.973C71.8366 118.279 65.2446 122.707 63.9531 123.584C63.8089 123.682 63.7005 123.822 63.6403 123.987C63.3767 124.707 63.724 125.509 64.4264 125.803L64.563 125.86L64.5038 126.059C64.4306 126.304 64.3905 126.582 64.405 126.854C64.4535 127.79 65.6975 128.075 66.1711 127.269L65.9223 127.716C65.821 127.897 65.7735 128.105 65.7847 128.313L65.8069 128.718C65.8315 129.168 66.1271 129.557 66.5515 129.698C66.9548 129.83 67.3982 129.714 67.6832 129.397C68.5193 128.467 70.3252 126.605 71.547 126.399C72.6333 126.216 74.4441 126.192 75.5375 126.197C76.0941 126.199 76.5896 126.546 76.792 127.071C76.0667 127.123 71.0153 129.787 69.2273 130.741C68.6745 131.036 68.2599 131.568 68.1878 132.196C68.1227 132.761 68.4053 133.354 69.512 133.093C71.8873 132.532 76.1621 130.545 76.1621 130.545C76.1621 130.545 78.367 129.908 79.7957 130.927C81.805 132.36 82.7256 132.886 84.4513 132.308C86.1769 131.729 87.449 130.899 87.449 130.899L90.8483 130.556C90.8487 130.555 94.0632 122.431 89.6681 121.186Z" fill="#FFBF9D"/>
    <path d="M76.829 122.847C76.8206 122.884 76.1393 122.663 75.0023 122.59C73.8742 122.513 72.2688 122.645 70.6716 123.334C69.074 124.023 67.8688 125.104 67.1435 125.982C66.4091 126.862 66.0952 127.512 66.0629 127.492C66.0534 127.487 66.1237 127.322 66.2793 127.038C66.4341 126.753 66.6847 126.354 67.0436 125.898C67.7523 124.987 68.9684 123.868 70.5995 123.164C72.2298 122.46 73.8707 122.347 75.0115 122.46C75.5854 122.513 76.0436 122.606 76.354 122.69C76.6654 122.773 76.8322 122.836 76.829 122.847Z" fill="#FF9A6C"/>
    <path d="M75.7998 120.459C75.7886 120.504 75.0971 120.161 73.8982 120.123C72.7099 120.071 71.0391 120.433 69.4763 121.389C67.9136 122.349 66.7439 123.567 65.9127 124.438C65.5182 124.862 65.1899 125.215 64.9362 125.487C64.705 125.735 64.573 125.868 64.5635 125.86C64.554 125.851 64.668 125.702 64.8831 125.439C65.0981 125.177 65.4141 124.801 65.818 124.348C66.6274 123.452 67.7922 122.208 69.382 121.23C70.9747 120.255 72.6916 119.905 73.9038 119.992C74.5112 120.029 74.9951 120.141 75.3149 120.253C75.4779 120.3 75.5961 120.362 75.6788 120.394C75.7608 120.431 75.8023 120.453 75.7998 120.459Z" fill="#FF9A6C"/>
    <path d="M163.733 132.771C162.828 132.899 161.947 133.344 161.397 134.082C160.847 134.821 160.676 135.864 161.069 136.699C161.462 137.533 162.456 138.066 163.337 137.821C163.365 138.476 163.952 139.056 164.601 139.067C165.248 139.078 165.856 138.519 165.905 137.866C166.326 138.35 167.061 138.522 167.649 138.273C168.236 138.025 168.632 137.375 168.587 136.732C168.558 136.325 168.372 135.945 168.323 135.54C168.27 135.097 168.383 134.651 168.373 134.206C168.362 133.76 168.171 133.261 167.753 133.119" fill="#1A2E35"/>
    <path d="M145.681 135.181C147.043 134.298 148.603 133.777 150.169 133.368C151.308 133.071 152.527 132.829 153.645 133.201C154.698 133.552 155.55 134.461 155.841 135.542C155.952 135.954 155.98 136.414 155.782 136.791C155.52 137.294 154.937 137.523 154.391 137.66C153.974 137.765 153.441 137.797 153.209 137.431C152.934 137.783 152.511 138.011 152.068 138.046C151.626 138.081 151.173 137.921 150.847 137.616C150.546 138.313 149.698 138.714 148.976 138.5C148.254 138.285 147.755 137.484 147.874 136.733C147.54 137.219 146.955 137.535 146.372 137.483C145.789 137.432 145.245 136.984 145.133 136.403C145.02 135.822 145.395 135.171 145.964 135.034" fill="#1A2E35"/>
    <path d="M132.514 134.955C132.156 133.416 132.745 131.813 134.012 130.888C135.422 129.859 136.418 128.666 138.255 127.556C139.563 126.765 141.761 125.937 142.748 125.606C146.355 124.395 148.795 124.087 150.275 123.303C151.899 122.443 154.064 121.094 154.064 121.094L172.477 122.536C172.477 122.536 174.692 136.288 171.339 137.631C171.339 137.631 155.738 137.796 154.513 137.247C153.184 136.651 132.883 136.662 132.943 136.8L132.514 134.955Z" fill="#1A2E35"/>
    <path d="M142.478 132.33C138.542 132.928 136.571 133.109 132.591 133.133C131.425 133.14 130.248 133.123 129.106 133.362C128.412 133.506 127.714 133.758 127.205 134.255C126.695 134.753 126.416 135.54 126.667 136.21C126.919 136.879 127.793 137.283 128.395 136.904C128.495 137.463 128.959 137.937 129.511 138.044C130.062 138.152 130.667 137.886 130.965 137.405C131.219 137.735 131.685 137.832 132.093 137.764C132.501 137.695 132.873 137.492 133.248 137.315C134.854 136.556 136.559 136.743 138.332 136.755C141.428 136.777 144.933 136.746 143.642 136.755" fill="#1A2E35"/>
    <path d="M143.642 136.756C143.642 136.751 143.731 136.745 143.903 136.738L143.911 136.738H143.915H143.917C143.92 136.802 143.914 136.756 143.916 136.771H143.915L143.898 136.771L143.863 136.772C143.839 136.773 143.813 136.774 143.787 136.775C143.733 136.776 143.675 136.778 143.613 136.779C143.485 136.782 143.34 136.785 143.177 136.789C142.505 136.796 141.551 136.807 140.361 136.82C139.759 136.821 139.098 136.823 138.383 136.824C137.667 136.825 136.898 136.787 136.087 136.809C135.278 136.834 134.416 136.929 133.588 137.26C133.176 137.418 132.78 137.676 132.307 137.806C132.073 137.872 131.815 137.895 131.565 137.847C131.316 137.801 131.064 137.677 130.896 137.46L131.041 137.453C130.731 137.949 130.118 138.238 129.523 138.138C128.929 138.035 128.42 137.539 128.305 136.921L128.443 136.983C127.999 137.265 127.385 137.145 126.986 136.802C126.723 136.589 126.549 136.264 126.503 135.934C126.449 135.601 126.508 135.264 126.627 134.963C126.863 134.349 127.382 133.907 127.93 133.648C128.485 133.383 129.073 133.261 129.644 133.178C130.218 133.098 130.783 133.07 131.332 133.059C133.527 133.049 135.497 133.036 137.148 132.912C138.8 132.797 140.13 132.62 141.049 132.504C141.497 132.445 141.851 132.4 142.107 132.366C142.22 132.353 142.31 132.343 142.383 132.334C142.445 132.328 142.477 132.327 142.478 132.33C142.478 132.333 142.447 132.341 142.386 132.353C142.314 132.366 142.224 132.383 142.113 132.403C141.858 132.445 141.506 132.502 141.059 132.575C140.142 132.714 138.813 132.91 137.158 133.043C135.504 133.184 133.524 133.21 131.336 133.23C130.79 133.244 130.232 133.273 129.668 133.354C129.107 133.437 128.534 133.559 128.007 133.812C127.484 134.062 127.011 134.471 126.796 135.032C126.567 135.573 126.625 136.279 127.103 136.66C127.456 136.963 127.988 137.057 128.346 136.826L128.46 136.753L128.484 136.888C128.581 137.425 129.038 137.871 129.552 137.958C130.069 138.048 130.622 137.79 130.89 137.358L130.956 137.251L131.035 137.35C131.314 137.704 131.841 137.76 132.262 137.637C132.702 137.52 133.095 137.268 133.526 137.103C134.383 136.765 135.265 136.674 136.082 136.655C136.902 136.638 137.67 136.683 138.384 136.688C139.098 136.695 139.759 136.701 140.36 136.706C141.55 136.715 142.504 136.722 143.176 136.727C143.338 136.729 143.484 136.731 143.612 136.732C143.675 136.734 143.732 136.734 143.786 136.735C143.813 136.736 143.838 136.736 143.862 136.737L143.897 136.737L143.914 136.738H143.915C143.917 136.752 143.912 136.706 143.916 136.77H143.915H143.911L143.903 136.769C143.731 136.766 143.642 136.761 143.642 136.756Z" fill="#375A64"/>
    <path d="M168.275 136.026C168.275 136.026 168.371 136.101 168.481 136.3C168.587 136.496 168.703 136.829 168.65 137.259C168.624 137.471 168.558 137.707 168.417 137.928C168.281 138.151 168.065 138.354 167.785 138.476C167.243 138.721 166.43 138.659 165.913 138.07L166.041 138.046C165.872 138.559 165.371 138.991 164.764 139.035C164.159 139.077 163.523 138.672 163.31 138.034L163.415 138.093C162.44 138.338 161.35 137.674 160.938 136.678C160.616 135.923 160.754 135.076 161.09 134.417C161.432 133.75 161.966 133.225 162.561 132.897C163.155 132.565 163.786 132.396 164.376 132.318C164.969 132.24 165.526 132.249 166.029 132.289C167.036 132.378 167.831 132.556 168.383 132.659C168.643 132.711 168.853 132.753 169.017 132.785C169.162 132.814 169.237 132.832 169.236 132.839C169.235 132.845 169.158 132.839 169.011 132.822C168.864 132.804 168.648 132.774 168.37 132.73C167.815 132.649 167.016 132.491 166.02 132.42C165.038 132.361 163.794 132.402 162.644 133.046C162.077 133.363 161.572 133.866 161.25 134.499C160.934 135.124 160.812 135.918 161.107 136.605C161.487 137.529 162.503 138.14 163.373 137.92L163.452 137.899L163.478 137.979C163.657 138.533 164.227 138.903 164.754 138.868C165.287 138.836 165.746 138.449 165.899 137.997L165.941 137.871L166.027 137.972C166.48 138.504 167.235 138.581 167.738 138.363C168.266 138.148 168.51 137.64 168.565 137.246C168.628 136.84 168.531 136.516 168.441 136.32C168.347 136.122 168.265 136.034 168.275 136.026Z" fill="#375A64"/>
    <path d="M171.031 132.46C171.009 132.483 170.819 132.293 170.452 132.091C170.089 131.887 169.527 131.689 168.894 131.721C168.261 131.754 167.721 132.009 167.381 132.248C167.035 132.488 166.865 132.695 166.842 132.675C166.825 132.664 166.962 132.422 167.304 132.143C167.639 131.865 168.206 131.571 168.885 131.536C169.563 131.502 170.157 131.736 170.518 131.978C170.885 132.22 171.045 132.448 171.031 132.46Z" fill="#375A64"/>
    <path d="M145.613 137.359C145.609 137.364 145.563 137.332 145.477 137.266C145.4 137.192 145.28 137.081 145.174 136.901C144.958 136.553 144.78 135.921 144.978 135.189C145.174 134.456 145.796 133.743 146.632 133.254C147.467 132.746 148.497 132.466 149.492 132.017C151.494 131.104 152.892 129.569 153.64 128.346C154.023 127.733 154.274 127.2 154.426 126.824C154.58 126.448 154.654 126.235 154.669 126.24C154.675 126.242 154.663 126.298 154.634 126.401C154.603 126.504 154.566 126.659 154.493 126.851C154.359 127.237 154.124 127.785 153.751 128.415C153.021 129.672 151.611 131.254 149.567 132.186C148.551 132.642 147.53 132.916 146.717 133.401C145.901 133.869 145.302 134.541 145.102 135.226C144.899 135.913 145.047 136.521 145.236 136.865C145.429 137.218 145.628 137.343 145.613 137.359Z" fill="#375A64"/>
    <path d="M152.948 137.248C152.965 137.232 153.057 137.41 153.347 137.564C153.624 137.717 154.134 137.822 154.664 137.583C155.192 137.356 155.6 136.675 155.577 135.903C155.574 135.519 155.46 135.121 155.254 134.758C155.042 134.398 154.743 134.072 154.378 133.819C153.645 133.307 152.782 133.098 152.012 133.099C151.235 133.096 150.54 133.256 149.971 133.415C149.401 133.577 148.947 133.741 148.631 133.849C148.316 133.959 148.14 134.015 148.136 134.003C148.131 133.992 148.298 133.912 148.606 133.782C148.914 133.652 149.363 133.469 149.935 133.289C150.505 133.112 151.209 132.934 152.012 132.928C152.81 132.917 153.712 133.128 154.483 133.666C154.867 133.933 155.186 134.28 155.41 134.667C155.629 135.055 155.748 135.487 155.746 135.901C155.762 136.729 155.307 137.467 154.717 137.703C154.134 137.946 153.595 137.807 153.312 137.626C153.164 137.538 153.074 137.436 153.018 137.366C152.966 137.292 152.943 137.252 152.948 137.248Z" fill="#375A64"/>
    <path d="M150.894 137.505C150.911 137.494 151.061 137.738 151.482 137.889C151.683 137.963 151.946 138.042 152.214 138.015C152.482 137.982 152.767 137.81 152.924 137.536C153.081 137.261 153.072 136.929 152.995 136.659C152.919 136.384 152.777 136.159 152.647 135.981C152.377 135.627 152.176 135.426 152.198 135.405C152.212 135.391 152.442 135.553 152.748 135.899C152.896 136.074 153.063 136.306 153.157 136.61C153.251 136.906 153.273 137.292 153.082 137.628C152.893 137.958 152.554 138.154 152.233 138.184C151.905 138.205 151.642 138.103 151.431 138.009C151.221 137.91 151.068 137.79 150.984 137.687C150.9 137.584 150.884 137.508 150.894 137.505Z" fill="#375A64"/>
    <path d="M147.939 136.839C147.954 136.843 147.927 136.942 147.925 137.121C147.923 137.297 147.961 137.56 148.118 137.831C148.271 138.101 148.559 138.371 148.959 138.453C149.35 138.541 149.832 138.455 150.197 138.162C150.562 137.866 150.757 137.42 150.8 137.012C150.847 136.6 150.737 136.224 150.595 135.944C150.298 135.376 149.93 135.162 149.956 135.134C149.961 135.125 150.055 135.168 150.2 135.282C150.345 135.397 150.541 135.588 150.709 135.881C150.875 136.171 151.009 136.574 150.968 137.029C150.93 137.476 150.723 137.972 150.311 138.307C149.896 138.639 149.359 138.727 148.921 138.619C148.472 138.517 148.153 138.196 148.004 137.894C147.848 137.589 147.829 137.301 147.854 137.116C147.879 136.928 147.931 136.836 147.939 136.839Z" fill="#375A64"/>
    <path d="M155.25 124.295C155.25 124.295 159.144 128.632 163.974 128.083C168.804 127.535 172.518 122.798 172.518 122.798C173.261 121.604 172.956 120.372 172.723 119.461C172.49 118.551 172.048 117.677 172.044 116.737C172.04 115.932 172.357 115.168 172.586 114.397C173.098 112.674 173.178 110.855 173.253 109.057C173.286 108.286 173.246 107.367 172.602 106.955C172.202 106.699 171.672 106.734 171.24 106.928C170.808 107.122 170.453 107.454 170.112 107.786C168.657 109.199 167.29 110.705 166.022 112.292C164.067 110.888 161.127 111.128 159.42 112.831C157.352 111.953 156.671 109.024 154.554 108.275C154.094 108.112 153.544 108.083 153.154 108.379C152.64 108.769 152.611 109.525 152.631 110.175C152.718 113.103 152.824 116.117 154.002 118.793C153.487 120.595 153.926 122.646 155.131 124.071" fill="#1A2E35"/>
    <path d="M162.317 124.912C162.572 124.535 162.96 124.253 163.394 124.128C163.829 124.003 164.305 124.037 164.718 124.222C164.821 124.268 164.923 124.326 164.989 124.417C165.055 124.509 165.076 124.643 165.012 124.736C164.939 124.619 164.75 124.633 164.655 124.732C164.558 124.831 164.535 124.98 164.53 125.119C164.525 125.257 164.534 125.401 164.485 125.53C164.427 125.685 164.285 125.805 164.124 125.836C163.962 125.867 163.787 125.808 163.676 125.686C163.577 125.578 163.531 125.434 163.467 125.303C163.401 125.172 163.301 125.043 163.158 125.017C163.045 124.996 162.932 125.046 162.825 125.089C162.718 125.131 162.596 125.167 162.49 125.12C162.384 125.073 162.335 124.905 162.43 124.84" fill="#375A64"/>
    <path d="M164.12 125.453C164.149 125.456 164.141 125.611 164.198 125.841C164.252 126.07 164.39 126.379 164.658 126.609C164.927 126.837 165.252 126.924 165.483 126.94C165.718 126.959 165.867 126.924 165.875 126.952C165.883 126.972 165.741 127.056 165.482 127.071C165.228 127.089 164.851 127.015 164.54 126.751C164.23 126.485 164.095 126.121 164.07 125.865C164.042 125.604 164.099 125.448 164.12 125.453Z" fill="#375A64"/>
    <path d="M164.146 125.222C164.164 125.214 164.267 125.386 164.278 125.704C164.292 126.013 164.18 126.477 163.821 126.819C163.46 127.157 162.994 127.239 162.69 127.204C162.378 127.172 162.215 127.056 162.225 127.039C162.235 127.01 162.41 127.077 162.696 127.073C162.977 127.073 163.382 126.978 163.696 126.683C164.008 126.387 164.129 125.984 164.148 125.701C164.172 125.412 164.117 125.231 164.146 125.222Z" fill="#375A64"/>
    <path d="M171.601 126.853C171.578 126.91 170.499 126.318 169.027 126.143C167.558 125.952 166.37 126.262 166.36 126.201C166.355 126.18 166.642 126.075 167.129 125.993C167.614 125.91 168.3 125.867 169.05 125.959C169.798 126.054 170.454 126.263 170.905 126.463C171.357 126.662 171.611 126.834 171.601 126.853Z" fill="#375A64"/>
    <path d="M173.841 125.888C173.833 125.917 173.4 125.808 172.692 125.681C171.986 125.553 171 125.425 169.906 125.405C168.811 125.387 167.822 125.481 167.112 125.585C166.401 125.688 165.965 125.782 165.958 125.753C165.955 125.741 166.061 125.704 166.255 125.648C166.45 125.591 166.735 125.524 167.091 125.455C167.801 125.318 168.802 125.201 169.909 125.219C171.017 125.239 172.012 125.39 172.718 125.552C173.071 125.632 173.354 125.709 173.546 125.773C173.739 125.836 173.844 125.876 173.841 125.888Z" fill="#375A64"/>
    <path d="M175.027 123.366C175.025 123.395 174.494 123.37 173.639 123.371C172.785 123.374 171.6 123.412 170.32 123.649C169.039 123.885 167.927 124.303 167.168 124.693C166.405 125.08 165.979 125.403 165.96 125.377C165.954 125.367 166.052 125.277 166.245 125.131C166.437 124.984 166.729 124.788 167.107 124.577C167.861 124.152 168.987 123.706 170.286 123.467C171.584 123.226 172.782 123.21 173.641 123.24C174.071 123.256 174.418 123.282 174.657 123.307C174.896 123.332 175.028 123.354 175.027 123.366Z" fill="#375A64"/>
    <path d="M154.852 129.018C154.844 129.008 154.917 128.936 155.058 128.813C155.196 128.688 155.41 128.523 155.684 128.333C156.231 127.953 157.044 127.501 158.007 127.171C158.972 126.843 159.889 126.703 160.552 126.67C160.883 126.652 161.152 126.653 161.337 126.667C161.523 126.678 161.625 126.691 161.624 126.704C161.624 126.735 161.215 126.733 160.562 126.8C159.91 126.867 159.014 127.024 158.066 127.346C157.119 127.672 156.313 128.096 155.754 128.443C155.195 128.791 154.871 129.043 154.852 129.018Z" fill="#375A64"/>
    <path d="M154.556 127.043C154.551 127.032 154.646 126.982 154.822 126.902C154.998 126.821 155.259 126.719 155.586 126.607C156.24 126.383 157.171 126.144 158.222 126.028C159.273 125.915 160.233 125.947 160.919 126.026C161.262 126.064 161.539 126.107 161.727 126.149C161.916 126.189 162.02 126.217 162.018 126.23C162.013 126.259 161.592 126.2 160.908 126.156C160.226 126.112 159.279 126.101 158.241 126.213C157.205 126.327 156.282 126.542 155.624 126.733C154.966 126.922 154.567 127.071 154.556 127.043Z" fill="#375A64"/>
    <path d="M152.102 126.21C152.098 126.198 152.228 126.139 152.468 126.042C152.707 125.943 153.061 125.821 153.505 125.691C154.392 125.429 155.654 125.177 157.068 125.125C158.482 125.077 159.759 125.24 160.661 125.439C161.113 125.538 161.475 125.634 161.72 125.717C161.966 125.796 162.099 125.846 162.096 125.858C162.087 125.89 161.539 125.731 160.636 125.568C159.735 125.403 158.471 125.263 157.074 125.31C155.677 125.361 154.426 125.59 153.538 125.817C152.649 126.044 152.113 126.241 152.102 126.21Z" fill="#375A64"/>
    <path d="M161.485 121.335C161.498 121.349 161.322 121.547 160.942 121.724C160.57 121.901 159.972 122.029 159.344 121.865C158.717 121.699 158.256 121.293 158.016 120.955C157.769 120.614 157.711 120.354 157.729 120.349C157.757 120.336 157.858 120.571 158.117 120.873C158.37 121.174 158.812 121.533 159.39 121.686C159.969 121.837 160.527 121.741 160.893 121.603C161.265 121.466 161.466 121.31 161.485 121.335Z" fill="#375A64"/>
    <path d="M169.321 119.625C169.339 119.621 169.397 119.881 169.261 120.269C169.137 120.654 168.758 121.135 168.187 121.38C167.622 121.632 167.062 121.659 166.675 121.662C166.284 121.66 166.045 121.633 166.044 121.609C166.044 121.582 166.285 121.563 166.669 121.531C167.051 121.495 167.587 121.447 168.112 121.211C168.642 120.982 168.993 120.566 169.141 120.22C169.297 119.874 169.289 119.624 169.321 119.625Z" fill="#375A64"/>
    <path d="M155.686 114.381C155.9 114.151 156.114 113.915 156.273 113.625C156.431 113.336 156.53 112.984 156.489 112.64C156.445 112.269 156.247 111.955 156.044 111.674C155.486 110.901 154.833 110.23 154.113 109.69C154.113 109.69 153.555 109.265 153.305 109.69C153.138 109.974 153.244 114.649 153.887 114.946C154.529 115.245 155.686 114.381 155.686 114.381Z" fill="#375A64"/>
    <path d="M171.653 107.702C170.625 108.516 170.23 109.917 169.462 110.986C169.324 111.179 169.183 111.373 169.091 111.593C169 111.812 168.96 112.063 169.032 112.29C169.107 112.525 169.289 112.706 169.475 112.865C169.883 113.212 170.345 113.495 170.837 113.701C170.837 113.701 171.905 114.034 172.185 113.053C172.466 112.072 172.343 107.155 171.653 107.702Z" fill="#375A64"/>
    <path d="M138.955 127.859C137.718 128.051 134.857 127.571 134.022 126.7C133.15 125.791 133.419 124.463 133.873 123.283C134.326 122.103 135.025 121.04 135.623 119.928C136.621 118.068 137.348 116.017 137.403 113.902C137.457 111.786 136.781 109.599 135.299 108.105C133.817 106.611 131.48 105.936 129.529 106.701C127.922 107.33 126.68 109.204 127.302 110.828C127.693 111.846 128.666 112.493 129.352 113.336C130.319 114.523 130.705 116.173 130.366 117.673C129.998 119.303 128.855 120.662 128.424 122.277C127.766 124.74 128.959 127.473 130.969 129.014C132.98 130.556 135.652 131.019 138.158 130.721" fill="#1A2E35"/>
    <path d="M164.985 127.005C164.985 127.005 165.137 127.958 164.813 128.346C164.667 128.521 164.467 128.659 164.243 128.683C163.911 128.718 163.594 128.491 163.427 128.199C163.262 127.906 163.219 127.559 163.201 127.223C163.201 127.223 164.04 126.917 164.16 126.423C164.16 126.423 164.495 126.954 164.985 127.005Z" fill="#FF4F5B"/>
    <path d="M169.249 127.392C169.256 127.399 169.164 127.515 168.976 127.705C168.788 127.895 168.497 128.152 168.104 128.426C167.328 128.975 166.089 129.557 164.624 129.676C163.159 129.795 161.844 129.42 160.991 129.004C160.56 128.797 160.232 128.59 160.016 128.433C159.801 128.276 159.691 128.176 159.698 128.168C159.718 128.137 160.182 128.507 161.044 128.884C161.896 129.263 163.183 129.607 164.609 129.491C166.035 129.375 167.251 128.828 168.032 128.316C168.824 127.805 169.224 127.365 169.249 127.392Z" fill="#375A64"/>
    <path d="M164.225 133.802C164.24 133.83 163.981 133.961 163.662 134.285C163.345 134.602 162.981 135.147 162.874 135.83C162.77 136.515 162.953 137.145 163.16 137.545C163.366 137.952 163.574 138.156 163.55 138.178C163.539 138.193 163.294 138.019 163.046 137.609C162.8 137.207 162.581 136.539 162.693 135.802C162.807 135.066 163.218 134.497 163.573 134.19C163.933 133.875 164.219 133.785 164.225 133.802Z" fill="#375A64"/>
    <path d="M167.654 134.215C167.655 134.25 167.366 134.221 166.967 134.407C166.575 134.584 166.09 135.018 165.876 135.655C165.666 136.296 165.748 136.932 165.852 137.363C165.958 137.798 166.075 138.057 166.048 138.069C166.03 138.079 165.87 137.84 165.727 137.398C165.588 136.964 165.476 136.29 165.703 135.596C165.936 134.899 166.482 134.445 166.917 134.286C167.362 134.119 167.661 134.2 167.654 134.215Z" fill="#375A64"/>
    <path d="M158.114 131.911C158.133 131.925 158.029 132.123 157.824 132.422C157.617 132.718 157.304 133.116 156.883 133.481C156.46 133.846 156.014 134.09 155.681 134.229C155.347 134.368 155.128 134.417 155.121 134.395C155.095 134.336 155.947 134.047 156.764 133.34C157.571 132.627 158.061 131.87 158.114 131.911Z" fill="#375A64"/>
    <path d="M153.857 121.222C153.86 121.227 153.791 121.28 153.657 121.377C153.523 121.477 153.32 121.613 153.054 121.783C152.521 122.122 151.725 122.572 150.703 123.048C149.68 123.523 148.432 124.021 147.019 124.489C145.605 124.957 144.033 125.398 142.41 125.942C140.787 126.483 139.269 127.092 137.97 127.806C136.67 128.517 135.593 129.323 134.783 130.1C133.971 130.878 133.419 131.61 133.078 132.139C132.737 132.67 132.587 132.987 132.568 132.978C132.563 132.975 132.598 132.895 132.67 132.744C132.739 132.591 132.858 132.375 133.018 132.101C133.342 131.556 133.885 130.804 134.692 130.006C135.5 129.208 136.581 128.383 137.889 127.656C139.196 126.927 140.723 126.309 142.352 125.766C143.98 125.22 145.556 124.784 146.966 124.326C148.377 123.869 149.624 123.386 150.649 122.929C151.673 122.471 152.474 122.04 153.016 121.721C153.287 121.561 153.496 121.435 153.636 121.346C153.777 121.259 153.853 121.216 153.857 121.222Z" fill="#375A64"/>
    <path d="M155.716 124.388C155.7 124.401 155.466 124.181 155.166 123.757C154.866 123.334 154.518 122.695 154.285 121.932C154.054 121.168 153.988 120.442 154.002 119.922C154.014 119.401 154.086 119.085 154.106 119.088C154.168 119.087 153.995 120.382 154.46 121.878C154.905 123.38 155.767 124.353 155.716 124.388Z" fill="#375A64"/>
    <path d="M28.8743 136.442L17.1985 106.804C16.165 104.255 18.0187 101.461 20.7431 101.461H57.119C58.7606 101.461 60.2195 102.518 60.747 104.09L70.7774 133.985L82.4905 134.041C83.442 134.046 84.2109 135.453 84.2109 136.416L71.3175 136.265L28.8743 136.442Z" fill="#1A2E35"/>
    <path d="M29.1559 108.31C28.3282 108.279 27.5027 108.493 26.8059 108.946C26.5783 109.094 26.3513 109.273 26.1662 109.483C25.543 110.189 24.4317 111.569 24.8737 113.718C25.316 115.867 26.6884 116.164 27.3271 116.235C27.9658 116.306 32.4362 115.022 32.4362 115.022C32.4362 115.022 34.057 113.628 33.481 111.801C32.9876 110.232 31.5505 108.398 29.1559 108.31Z" fill="#FF4F5B"/>
    <path d="M27.0264 115.594C27.0264 115.594 27.1875 116.742 27.7573 117.035C28.327 117.327 29.3907 117.274 30.2029 117.067C31.0151 116.861 32.2288 116.389 32.3723 115.752C32.5155 115.114 32.3938 114.338 32.3016 114.253C32.2098 114.169 30.969 113.461 29.3038 113.974C27.6387 114.487 27.0264 115.594 27.0264 115.594Z" fill="#F5F5F5"/>
    <g opacity="0.4">
      <g opacity="0.4">
        <path opacity="0.4" d="M30.647 110.105C30.9349 111.264 30.2392 112.439 29.0931 112.73C27.947 113.022 26.7843 112.318 26.4961 111.159C26.2083 110 26.904 108.825 28.0501 108.533C29.1965 108.242 30.3592 108.946 30.647 110.105Z" fill="white"/>
      </g>
    </g>
    <g opacity="0.4">
      <g opacity="0.4">
        <g opacity="0.4">
          <path opacity="0.4" d="M25.2451 114.813C25.6413 114.301 25.8954 113.625 25.8514 112.977C25.8078 112.329 25.5196 111.701 25.0589 111.248C25.0589 111.248 24.6525 112.471 24.8256 113.438C25.0093 114.466 25.2451 114.813 25.2451 114.813Z" fill="white"/>
        </g>
      </g>
    </g>
    <g opacity="0.4">
      <g opacity="0.4">
        <g opacity="0.4">
          <path opacity="0.4" d="M33.6099 112.687C33.0219 112.426 32.4821 111.952 32.2178 111.36C31.9532 110.768 31.887 110.167 32.0816 109.548C32.0816 109.548 32.9029 110.334 33.2971 111.275C33.7116 112.265 33.6099 112.687 33.6099 112.687Z" fill="white"/>
        </g>
      </g>
    </g>
    <path d="M45.6852 120.175C45.6852 121.494 44.6274 122.564 43.3226 122.564C42.0178 122.564 40.96 121.494 40.96 120.175C40.96 118.855 42.0178 117.786 43.3226 117.786C44.6274 117.786 45.6852 118.855 45.6852 120.175Z" fill="#F5F5F5"/>
  </g>
  <defs>
    <clipPath id="clip0_6859_95199">
      <rect width="158" height="116" fill="white" transform="translate(17 23)"/>
    </clipPath>
  </defs>
</svg>
