<svg width="32" height="32" viewBox="0 0 32 32" fill="none" xmlns="http://www.w3.org/2000/svg">
<rect width="32" height="32" rx="16" fill="#3880FF" fill-opacity="0.2"/>
<path d="M15.8594 14L18.25 16.3555V16.25C18.25 15.6172 18.0273 15.0898 17.582 14.668C17.1602 14.2227 16.6328 14 16 14H15.8594ZM12.6602 14.5977L13.8203 15.7578C13.7734 15.9219 13.75 16.0859 13.75 16.25C13.75 16.8828 13.9609 17.4219 14.3828 17.8672C14.8281 18.2891 15.3672 18.5 16 18.5C16.1641 18.5 16.3281 18.4766 16.4922 18.4297L17.6523 19.5898C17.1133 19.8711 16.5625 20.0117 16 20.0117C15.3203 20.0117 14.6875 19.8477 14.1016 19.5195C13.5391 19.168 13.082 18.7109 12.7305 18.1484C12.4023 17.5625 12.2383 16.9297 12.2383 16.25C12.2383 15.6875 12.3789 15.1367 12.6602 14.5977ZM8.51172 10.4492L10.1992 12.1719L10.5508 12.4883C9.26172 13.5195 8.32422 14.7734 7.73828 16.25C8.39453 17.9141 9.47266 19.2734 10.9727 20.3281C12.4727 21.3594 14.1484 21.875 16 21.875C17.1484 21.875 18.2383 21.6641 19.2695 21.2422L21.8008 23.7383L22.75 22.7891L9.46094 9.5L8.51172 10.4492ZM16 12.4883C16.6797 12.4883 17.3008 12.6641 17.8633 13.0156C18.4492 13.3438 18.9062 13.8008 19.2344 14.3867C19.5859 14.9492 19.7617 15.5703 19.7617 16.25C19.7617 16.7188 19.668 17.1758 19.4805 17.6211L21.6602 19.8008C22.832 18.8398 23.6992 17.6562 24.2617 16.25C23.6055 14.5859 22.5273 13.2383 21.0273 12.207C19.5273 11.1523 17.8516 10.625 16 10.625C14.9688 10.625 13.9727 10.8008 13.0117 11.1523L14.6289 12.7695C15.0742 12.582 15.5312 12.4883 16 12.4883Z" fill="#3880FF"/>
</svg>
