<svg width="0" height="0" class="hidden">
  <symbol viewBox="0 0 162 40" fill="none" xmlns="http://www.w3.org/2000/svg" id="icon-logo-wa">
    <path d="M24.9419 0.281685L20.2108 22.0669H14.9474L13.4922 14.1194C13.1281 12.0902 12.8205 9.86367 12.5405 7.24269H12.4842C12.0929 9.8355 11.7569 12.0339 11.3083 14.1478L9.65685 22.0669H4.45038L0 0.281685H5.23464L6.46627 8.79285C6.83052 11.3292 7.13763 14.0345 7.44592 16.4304H7.50188C7.83759 13.922 8.34108 11.3859 8.81765 8.73631L10.3848 0.281685H15.1437L16.5989 8.90553C17.0195 11.4143 17.3545 13.7536 17.6353 16.3738H17.7188C17.9996 13.7536 18.3347 11.301 18.7272 8.73631L20.015 0.281685H24.9419Z" fill="#54606A"/>
    <path d="M27.3461 0.281685H32.2725V22.0669H27.3461V0.281685Z" fill="#54606A"/>
    <path d="M47.1357 5.04521C46.3514 4.65032 45.0639 4.14295 43.3285 4.14295C41.4253 4.14295 40.5022 5.07277 40.5022 6.14399C40.5022 7.35643 41.3974 7.94785 44.0282 9.15946C47.4716 10.7093 48.8993 12.8517 48.8993 15.557C48.8993 19.5311 45.9039 22.3486 40.6694 22.3486C38.4861 22.3486 36.3306 21.7853 35.3219 21.2215L36.1627 17.0507C37.3102 17.6421 39.1299 18.1782 40.8652 18.1782C42.9373 18.1782 43.9444 17.276 43.9444 15.9797C43.9444 14.6552 42.9642 13.9223 40.7254 12.9082C37.3102 11.3295 35.5469 9.18763 35.5469 6.59518C35.5469 2.90296 38.3462 0.000127471 43.3565 0.000127471C45.4279 0.000127471 47.024 0.450947 48.059 0.958263L47.1357 5.04521Z" fill="#54606A"/>
    <path d="M64.0699 22.0669H51.7807V0.281685H63.6499V4.42513H56.7071V8.79285H63.2867V12.8514H56.7071V17.9241H64.0699V22.0669Z" fill="#54606A"/>
    <path d="M76.1324 13.2457L75.1815 8.87793C74.9017 7.58124 74.5375 5.63633 74.2572 4.31163H74.2024C73.9216 5.63633 73.5574 7.63737 73.3063 8.87793L72.3262 13.2457H76.1324ZM83.0757 22.0669H77.9805L76.7211 16.9943H71.7379L70.5625 22.0669H65.5803L71.2899 0.281685H77.5329L83.0757 22.0669Z" fill="#54606A"/>
    <path d="M90.6036 18.2624C90.9116 18.3192 91.3868 18.3192 91.7786 18.3192C94.9986 18.3471 97.2932 16.1771 97.2932 10.7945C97.2932 6.25653 95.2211 4.00248 92.1152 4.00248C91.4149 4.00248 90.9392 4.0584 90.6036 4.14307V18.2624ZM85.7043 0.592272C87.1888 0.338382 89.2318 0.141658 91.3868 0.141658C94.9694 0.141658 97.3214 0.845957 99.1403 2.2835C101.241 4.00248 102.444 6.76431 102.444 10.7663C102.444 15.4165 100.848 18.2624 99.0564 19.8126C97.1255 21.4749 94.1863 22.2646 90.4348 22.2646C88.3356 22.2646 86.7402 22.0953 85.7043 21.9546V0.592272Z" fill="#54606A"/>
    <path d="M121.477 0.281685L115.262 22.0669H109.58L103.561 0.309806H108.992L111.036 9.38447C111.596 11.8371 112.127 14.3451 112.548 16.9655H112.631C113.023 14.3731 113.555 11.8371 114.114 9.38447L116.159 0.281685H121.477Z" fill="#54606A"/>
    <path d="M162 22.0669H149.711V0.281685H161.581V4.42513H154.638V8.79285H161.216V12.8514H154.638V17.9241H162V22.0669Z" fill="#54606A"/>
    <path d="M126.248 0.281685H123.518V22.0669H126.248V0.281685Z" fill="#C11E25"/>
    <path d="M127.561 0.281685V22.0669H130.291V0.281685H127.561Z" fill="#C11E25"/>
    <path fill-rule="evenodd" clip-rule="evenodd" d="M147.041 18.8571L142.392 18.832L142.011 18.7897L141.635 18.7293L141.26 18.6564L140.887 18.5658L140.526 18.4618L140.16 18.3385L139.804 18.2007L139.453 18.0466L139.112 17.8806L138.783 17.6924L138.46 17.497L138.141 17.2836L137.836 17.0516L137.542 16.8116L137.266 16.5501L136.993 16.2771L136.74 15.9931L136.496 15.6931L136.268 15.3775L136.063 15.05L135.865 14.706L135.692 14.3506L135.531 13.9834L135.394 13.5998L135.272 13.2065L135.171 12.7949L135.094 12.3777L135.033 11.9446L134.996 11.4998L134.989 11.0408L134.996 10.5851L135.026 10.1387L135.082 9.71406L135.158 9.29161L135.254 8.88565L135.37 8.49415L135.505 8.11116L135.661 7.74603L135.834 7.38893L136.023 7.05059L136.229 6.72429L136.452 6.40886L136.691 6.10852L136.942 5.82486L137.206 5.55192L137.482 5.28835L137.776 5.04517L138.078 4.81584L138.391 4.60501L138.715 4.39943L139.049 4.21171L139.391 4.04537L139.745 3.89067L140.101 3.74781L140.465 3.61968L140.838 3.5155L141.215 3.42213L141.595 3.34426L141.98 3.27829L142.369 3.23447L147.036 3.2079H147.041V0.326997L146.857 0.33081L142.021 0.369433L141.465 0.434785L140.918 0.523311L140.382 0.63836L139.857 0.779209L139.341 0.937723L138.84 1.12579L138.351 1.32839L137.876 1.56076L137.411 1.80857L136.962 2.08218L136.53 2.37665L136.114 2.68384L135.712 3.0156L135.329 3.3644L134.965 3.73195L134.62 4.11515L134.288 4.51689L133.983 4.93393L133.698 5.36925L133.434 5.81745L133.19 6.27893L132.97 6.76312L132.771 7.25339L132.598 7.75952L132.453 8.28095L132.331 8.80902L132.23 9.35114L132.16 9.90172L132.117 10.4668L132.109 11.0408L132.121 11.6137L132.162 12.1796L132.24 12.7326L132.341 13.2709L132.471 13.801L132.624 14.319L132.807 14.8275L133.009 15.3178L133.24 15.7954L133.494 16.2615L133.765 16.7097L134.06 17.1401L134.376 17.5566L134.71 17.9555L135.071 18.3385L135.438 18.7062L135.829 19.0529L136.234 19.3821L136.654 19.6895L137.09 19.9812L137.54 20.2524L138.003 20.5018L138.48 20.7322L138.964 20.9346L139.461 21.1198L139.969 21.282L140.481 21.4172L141.006 21.5317L141.534 21.6205L142.071 21.688L146.885 21.7242L147.041 21.729V18.8571Z" fill="#C11E25"/>
    <path fill-rule="evenodd" clip-rule="evenodd" d="M146.87 14.3092H146.866L142.413 14.2856L142.234 14.2514L142.061 14.215L141.89 14.1662L141.721 14.1165L141.558 14.0531L141.398 13.9912L141.245 13.9157L141.1 13.835L140.952 13.751L140.815 13.6594L140.682 13.5635L140.553 13.4569L140.435 13.3504L140.316 13.2325L140.211 13.1151L140.109 12.9879L140.015 12.8521L139.926 12.7144L139.844 12.5703L139.767 12.4216L139.699 12.2658L139.644 12.109L139.596 11.9445L139.554 11.7729L139.522 11.5985L139.5 11.416L139.485 11.2279L139.482 11.0406L139.485 10.8499L139.5 10.6651L139.522 10.488L139.554 10.308L139.596 10.1386L139.644 9.97462L139.699 9.81791L139.767 9.6596L139.844 9.51298L139.926 9.37013L140.015 9.22933L140.109 9.09656L140.211 8.97322L140.316 8.84911L140.435 8.73123L140.553 8.61979L140.682 8.52302L140.815 8.42384L140.952 8.33212L141.1 8.24421L141.245 8.16336L141.398 8.09512L141.558 8.02714L141.721 7.96761L141.89 7.91508L142.061 7.87424L142.234 7.83263L142.413 7.80121L146.866 7.77269L146.87 7.77186V4.89055L146.752 4.89962L142.146 4.94061L141.817 4.99576L141.496 5.06637L141.185 5.15489L140.88 5.25707L140.581 5.36913L140.29 5.49345L140.007 5.63708L139.733 5.78874L139.463 5.95251L139.207 6.13255L138.964 6.31743L138.726 6.51333L138.501 6.72417L138.286 6.94082L138.078 7.16958L137.887 7.40694L137.706 7.64996L137.535 7.90524L137.379 8.16336L137.238 8.43372L137.108 8.70832L136.991 8.99171L136.888 9.27619L136.802 9.5683L136.729 9.86719L136.672 10.165L136.631 10.4723L136.608 10.7793L136.598 11.0931L136.608 11.416L136.631 11.7337L136.67 12.0497L136.729 12.3544L136.799 12.6566L136.883 12.9455L136.978 13.2325L137.095 13.5144L137.22 13.7878L137.358 14.0531L137.504 14.3092L137.671 14.5564L137.846 14.7988L138.029 15.0284L138.227 15.2527L138.431 15.4615L138.651 15.6625L138.873 15.8548L139.109 16.0322L139.353 16.2012L139.603 16.3573L139.865 16.5013L140.13 16.6337L140.401 16.754L140.682 16.8638L140.967 16.9571L141.26 17.0384L141.555 17.1008L141.853 17.1531L142.161 17.1897L146.747 17.2106L146.87 17.2139V14.3092Z" fill="#C11E25"/>
    <path d="M28.3346 39.0001L27.7907 37.2329H25.0559L24.5121 39.0001H22.7983L25.4459 31.5454H27.3905L30.0483 39.0001H28.3346ZM27.411 35.9126C26.9082 34.3113 26.6243 33.4057 26.5593 33.1958C26.4977 32.9859 26.4533 32.82 26.4259 32.6981C26.313 33.1315 25.9898 34.203 25.4562 35.9126H27.411Z" fill="#9FABB5"/>
    <path d="M37.4389 31.5759L35.1197 36.8267C34.829 37.4868 34.5553 37.9608 34.2988 38.2485C34.0456 38.5363 33.7446 38.7513 33.3957 38.8935C33.0468 39.0323 32.6227 39.1017 32.1233 39.1017C31.6957 39.1017 31.2972 39.0509 30.9278 38.9493V37.5985C31.2288 37.7204 31.6033 37.7813 32.0514 37.7813C32.3353 37.7813 32.5645 37.717 32.739 37.5884C32.9134 37.4563 33.0588 37.2295 33.1751 36.9079L30.5789 31.5759H32.2618L34.1089 35.7146H34.1602L34.2526 35.4606L35.8021 31.5759H37.4389Z" fill="#9FABB5"/>
    <path d="M41.8073 39.0001H40.2168V32.886H38.1798V31.5759H43.8443V32.886H41.8073V39.0001Z" fill="#9FABB5"/>
    <path d="M48.7105 32.7794C48.1119 32.7794 47.6484 33.0028 47.32 33.4497C46.9916 33.8932 46.8274 34.5127 46.8274 35.3083C46.8274 36.9638 47.4551 37.7915 48.7105 37.7915C49.2372 37.7915 49.8752 37.6612 50.6243 37.4005V38.7208C50.0086 38.9747 49.3211 39.1017 48.5617 39.1017C47.4705 39.1017 46.6359 38.775 46.0578 38.1216C45.4797 37.4648 45.1907 36.5237 45.1907 35.2981C45.1907 34.5263 45.3326 33.8509 45.6165 33.272C45.9004 32.6897 46.3075 32.2445 46.8377 31.9364C47.3713 31.625 47.9956 31.4692 48.7105 31.4692C49.4391 31.4692 50.1711 31.6436 50.9065 31.9923L50.3934 33.272C50.1129 33.1399 49.8307 33.0248 49.5468 32.9267C49.2629 32.8285 48.9841 32.7794 48.7105 32.7794Z" fill="#9FABB5"/>
    <path d="M59.5593 35.2778C59.5593 36.5067 59.2514 37.4513 58.6357 38.1114C58.02 38.7716 57.1375 39.1017 55.9882 39.1017C54.8388 39.1017 53.9563 38.7716 53.3406 38.1114C52.7249 37.4513 52.417 36.5034 52.417 35.2677C52.417 34.032 52.7249 33.0892 53.3406 32.4392C53.9597 31.7858 54.8457 31.4591 55.9984 31.4591C57.1512 31.4591 58.032 31.7875 58.6408 32.4442C59.2531 33.101 59.5593 34.0455 59.5593 35.2778ZM54.0846 35.2778C54.0846 36.1073 54.2437 36.7319 54.5618 37.1517C54.8799 37.5715 55.3553 37.7813 55.9882 37.7813C57.2572 37.7813 57.8917 36.9468 57.8917 35.2778C57.8917 33.6054 57.2606 32.7692 55.9984 32.7692C55.3656 32.7692 54.8884 32.9808 54.5669 33.404C54.2454 33.8238 54.0846 34.4484 54.0846 35.2778Z" fill="#9FABB5"/>
    <path d="M63.2299 35.0696H63.7533C64.2424 35.0696 64.6084 34.9748 64.8513 34.7853C65.0942 34.5923 65.2156 34.313 65.2156 33.9474C65.2156 33.5784 65.113 33.3058 64.9077 33.1298C64.7059 32.9537 64.3878 32.8657 63.9534 32.8657H63.2299V35.0696ZM66.8216 33.8915C66.8216 34.6905 66.5684 35.3015 66.0622 35.7247C65.5594 36.1479 64.8427 36.3595 63.9123 36.3595H63.2299V39.0001H61.6393V31.5759H64.0355C64.9454 31.5759 65.6363 31.7705 66.1084 32.1599C66.5838 32.5458 66.8216 33.123 66.8216 33.8915Z" fill="#9FABB5"/>
    <path d="M71.9494 32.7794C71.3508 32.7794 70.8873 33.0028 70.5589 33.4497C70.2305 33.8932 70.0664 34.5127 70.0664 35.3083C70.0664 36.9638 70.694 37.7915 71.9494 37.7915C72.4762 37.7915 73.1141 37.6612 73.8632 37.4005V38.7208C73.2475 38.9747 72.56 39.1017 71.8006 39.1017C70.7094 39.1017 69.8748 38.775 69.2967 38.1216C68.7186 37.4648 68.4296 36.5237 68.4296 35.2981C68.4296 34.5263 68.5715 33.8509 68.8555 33.272C69.1394 32.6897 69.5464 32.2445 70.0766 31.9364C70.6102 31.625 71.2345 31.4692 71.9494 31.4692C72.678 31.4692 73.41 31.6436 74.1454 31.9923L73.6323 33.272C73.3518 33.1399 73.0696 33.0248 72.7857 32.9267C72.5018 32.8285 72.223 32.7794 71.9494 32.7794Z" fill="#9FABB5"/>
    <path d="M75.9895 31.5759H77.421V35.161L77.4005 36.1208L77.3492 37.2126H77.38L80.8433 31.5759H82.7469V39.0001H81.3308V35.4353C81.3308 34.9579 81.3615 34.2504 81.4231 33.3126H81.3821L77.9033 39.0001H75.9895V31.5759Z" fill="#9FABB5"/>
    <path d="M91.3124 39.0001H89.727V35.7958H86.7562V39.0001H85.1656V31.5759H86.7562V34.4856H89.727V31.5759H91.3124V39.0001Z" fill="#9FABB5"/>
    <path d="M98.4772 31.5759V32.8759H95.3269V39.0001H93.7363V31.5759H98.4772Z" fill="#9FABB5"/>
    <path d="M109.333 31.5759L107.014 36.8267C106.723 37.4868 106.45 37.9608 106.193 38.2485C105.94 38.5363 105.639 38.7513 105.29 38.8935C104.941 39.0323 104.517 39.1017 104.018 39.1017C103.59 39.1017 103.192 39.0509 102.822 38.9493V37.5985C103.123 37.7204 103.498 37.7813 103.946 37.7813C104.23 37.7813 104.459 37.717 104.633 37.5884C104.808 37.4563 104.953 37.2295 105.069 36.9079L102.473 31.5759H104.156L106.003 35.7146H106.055L106.147 35.4606L107.696 31.5759H109.333Z" fill="#9FABB5"/>
    <path d="M116.57 39.0001H114.979V36.131C114.453 36.307 114.013 36.4272 113.661 36.4915C113.312 36.5558 112.978 36.588 112.66 36.588C111.945 36.588 111.393 36.4187 111.003 36.0802C110.616 35.7382 110.423 35.2592 110.423 34.6431V31.5759H112.008V34.1962C112.008 34.555 112.092 34.8259 112.26 35.0087C112.428 35.1881 112.711 35.2778 113.112 35.2778C113.392 35.2778 113.671 35.2507 113.948 35.1966C114.228 35.139 114.572 35.0409 114.979 34.9021V31.5759H116.57V39.0001Z" fill="#9FABB5"/>
    <path d="M123.309 39.0001H118.989V31.5759H123.309V32.8657H120.579V34.4958H123.119V35.7856H120.579V37.7001H123.309V39.0001ZM119.399 30.1489C119.399 29.9289 119.462 29.7596 119.589 29.6411C119.719 29.5226 119.893 29.4634 120.112 29.4634C120.338 29.4634 120.514 29.526 120.641 29.6513C120.771 29.7765 120.836 29.9424 120.836 30.1489C120.836 30.3521 120.771 30.5162 120.641 30.6415C120.511 30.7634 120.335 30.8243 120.112 30.8243C119.893 30.8243 119.719 30.7651 119.589 30.6466C119.462 30.5281 119.399 30.3622 119.399 30.1489ZM121.467 30.1489C121.467 29.9119 121.535 29.7393 121.672 29.631C121.812 29.5192 121.985 29.4634 122.19 29.4634C122.413 29.4634 122.589 29.5243 122.719 29.6462C122.852 29.7681 122.919 29.9356 122.919 30.1489C122.919 30.3554 122.852 30.5196 122.719 30.6415C122.585 30.7634 122.409 30.8243 122.19 30.8243C121.985 30.8243 121.812 30.7701 121.672 30.6618C121.535 30.5501 121.467 30.3791 121.467 30.1489Z" fill="#9FABB5"/>
    <path d="M128.298 39.0001H126.708V32.886H124.671V31.5759H130.335V32.886H128.298V39.0001Z" fill="#9FABB5"/>
    <path d="M136.607 39.0001L136.063 37.2329H133.328L132.785 39.0001H131.071L133.718 31.5454H135.663L138.321 39.0001H136.607ZM135.684 35.9126C135.181 34.3113 134.897 33.4057 134.832 33.1958C134.77 32.9859 134.726 32.82 134.698 32.6981C134.586 33.1315 134.262 34.203 133.729 35.9126H135.684Z" fill="#9FABB5"/>
  </symbol>
  <symbol viewBox="0 0 185 26" fill="none" xmlns="http://www.w3.org/2000/svg" id="icon-logo-wa-left">
    <path d="M28.4831 0.325133L23.0803 25.4619H17.0696L15.4078 16.2917C14.992 13.9503 14.6407 11.3813 14.321 8.35706H14.2566C13.8098 11.3488 13.4261 13.8854 12.9138 16.3244L11.0279 25.4619H5.08223L0 0.325133H5.97783L7.38432 10.1457C7.80029 13.0722 8.151 16.1937 8.50306 18.9583H8.56697C8.95034 16.064 9.5253 13.1377 10.0695 10.0805L11.8592 0.325133H17.2937L18.9555 10.2757C19.4358 13.1704 19.8185 15.8697 20.1391 18.893H20.2344C20.5551 15.8697 20.9377 13.0397 21.386 10.0805L22.8567 0.325133H28.4831" fill="#5C666D"/>
    <path d="M31.2285 0.325133H36.8543V25.4619H31.2285V0.325133Z" fill="#5C666D"/>
    <path d="M53.828 5.82114C52.9324 5.36549 51.462 4.78007 49.4803 4.78007C47.3068 4.78007 46.2527 5.85293 46.2527 7.08896C46.2527 8.48793 47.275 9.17033 50.2794 10.5683C54.2116 12.3566 55.8419 14.8286 55.8419 17.9501C55.8419 22.5356 52.4213 25.7866 46.4437 25.7866C43.9504 25.7866 41.4888 25.1367 40.3369 24.4861L41.2971 19.6736C42.6075 20.356 44.6855 20.9746 46.6673 20.9746C49.0335 20.9746 50.1836 19.9336 50.1836 18.4378C50.1836 16.9095 49.0643 16.064 46.5076 14.8938C42.6075 13.0722 40.5939 10.6008 40.5939 7.60955C40.5939 3.34931 43.7906 -0.00011645 49.5122 -0.00011645C51.8777 -0.00011645 53.7005 0.520061 54.8824 1.10542L53.828 5.82114" fill="#5C666D"/>
    <path d="M73.1657 25.4619H59.1318V0.325133H72.6862V5.10603H64.7577V10.1457H72.2714V14.8287H64.7577V20.6817H73.1657V25.4619" fill="#5C666D"/>
    <path d="M86.9418 15.2836L85.8559 10.2439C85.5364 8.7477 85.1204 6.50357 84.8003 4.97507H84.7378C84.4171 6.50357 84.0012 8.81247 83.7144 10.2439L82.5952 15.2836H86.9418ZM94.8709 25.4619H89.0523L87.6141 19.6089H81.9235L80.5811 25.4619H74.8916L81.4118 0.325133H88.5412L94.8709 25.4619" fill="#5C666D"/>
    <path d="M103.467 21.0715C103.819 21.137 104.361 21.137 104.809 21.137C108.486 21.1692 111.106 18.6654 111.106 12.4546C111.106 7.21855 108.74 4.61772 105.193 4.61772C104.393 4.61772 103.85 4.68225 103.467 4.77994V21.0715ZM97.8721 0.682866C99.5672 0.389916 101.9 0.162925 104.361 0.162925C108.453 0.162925 111.138 0.975579 113.216 2.63428C115.614 4.61772 116.989 7.80445 116.989 12.4222C116.989 17.7877 115.165 21.0715 113.12 22.8602C110.915 24.7782 107.558 25.6895 103.274 25.6895C100.877 25.6895 99.0549 25.494 97.8721 25.3317V0.682866" fill="#5C666D"/>
    <path d="M138.724 0.325133L131.627 25.4619H125.138L118.265 0.357578H124.466L126.801 10.8283C127.44 13.6583 128.047 16.5522 128.527 19.5757H128.621C129.07 16.5844 129.677 13.6583 130.316 10.8283L132.65 0.325133H138.724" fill="#5C666D"/>
    <path d="M185 25.4619H170.966V0.325133H184.521V5.10603H176.593V10.1457H184.104V14.8287H176.593V20.6817H185V25.4619" fill="#5C666D"/>
    <path d="M144.172 0.325133H141.054V25.4619H144.172V0.325133Z" fill="#C11E25"/>
    <path d="M145.671 0.325133V25.4619H148.789V0.325133H145.671Z" fill="#C11E25"/>
    <path fill-rule="evenodd" clip-rule="evenodd" d="M167.917 21.7581L162.607 21.7291L162.173 21.6803L161.744 21.6106L161.314 21.5264L160.889 21.422L160.476 21.3019L160.059 21.1597L159.653 21.0007L159.252 20.8229L158.862 20.6314L158.486 20.4141L158.117 20.1887L157.753 19.9424L157.405 19.6748L157.07 19.3979L156.754 19.0961L156.443 18.7812L156.153 18.4534L155.875 18.1073L155.614 17.7432L155.38 17.3652L155.154 16.9683L154.956 16.5582L154.773 16.1346L154.616 15.6919L154.477 15.2381L154.362 14.7632L154.273 14.2819L154.204 13.7821L154.161 13.2689L154.154 12.7392L154.161 12.2134L154.196 11.6984L154.26 11.2084L154.346 10.7209L154.457 10.2525L154.589 9.8008L154.743 9.35888L154.921 8.93758L155.119 8.52554L155.334 8.13514L155.57 7.75865L155.825 7.39469L156.098 7.04814L156.384 6.72085L156.686 6.40591L157.001 6.10179L157.337 5.8212L157.682 5.5566L158.039 5.31332L158.409 5.07611L158.79 4.85952L159.181 4.66759L159.585 4.48909L159.991 4.32425L160.407 4.17641L160.833 4.0562L161.263 3.94846L161.697 3.85862L162.137 3.7825L162.581 3.73193L167.911 3.70127H167.917V0.377156L167.706 0.381555L162.184 0.426122L161.549 0.501527L160.924 0.603672L160.313 0.736421L159.713 0.898939L159.124 1.08184L158.552 1.29885L157.992 1.53261L157.45 1.80073L156.92 2.08666L156.407 2.40237L155.914 2.74214L155.438 3.09659L154.98 3.47939L154.541 3.88185L154.126 4.30595L153.732 4.7481L153.353 5.21165L153.005 5.69285L152.679 6.19514L152.378 6.71229L152.1 7.24477L151.849 7.80345L151.621 8.36915L151.423 8.95315L151.257 9.55479L151.118 10.1641L151.003 10.7896L150.923 11.4249L150.874 12.0769L150.864 12.7392L150.879 13.4003L150.926 14.0532L151.014 14.6913L151.13 15.3124L151.278 15.924L151.452 16.5218L151.662 17.1085L151.893 17.6742L152.156 18.2253L152.447 18.7631L152.756 19.2802L153.093 19.7769L153.454 20.2574L153.835 20.7177L154.247 21.1597L154.666 21.584L155.113 21.9839L155.576 22.3639L156.055 22.7186L156.553 23.0551L157.067 23.368L157.595 23.6558L158.141 23.9216L158.693 24.1551L159.26 24.3689L159.841 24.556L160.425 24.712L161.025 24.8441L161.628 24.9466L162.241 25.0244L167.739 25.0662L167.917 25.0718V21.7581" fill="#C11E25"/>
    <path fill-rule="evenodd" clip-rule="evenodd" d="M167.722 16.5107H167.717L162.631 16.4836L162.427 16.4441L162.23 16.4021L162.035 16.3457L161.842 16.2884L161.656 16.2153L161.472 16.1438L161.298 16.0568L161.132 15.9636L160.963 15.8667L160.807 15.761L160.655 15.6503L160.508 15.5273L160.372 15.4045L160.237 15.2685L160.118 15.1329L160 14.9862L159.893 14.8295L159.792 14.6706L159.698 14.5044L159.61 14.3328L159.532 14.1529L159.47 13.9721L159.415 13.7822L159.367 13.5842L159.331 13.383L159.306 13.1725L159.287 12.9554L159.284 12.7394L159.287 12.5193L159.306 12.306L159.331 12.1017L159.367 11.894L159.415 11.6985L159.47 11.5093L159.532 11.3285L159.61 11.1458L159.698 10.9767L159.792 10.8118L159.893 10.6494L160 10.4962L160.118 10.3539L160.237 10.2107L160.372 10.0746L160.508 9.94606L160.655 9.83441L160.807 9.71996L160.963 9.61413L161.132 9.5127L161.298 9.41941L161.472 9.34067L161.656 9.26223L161.842 9.19354L162.035 9.13293L162.23 9.08581L162.427 9.0378L162.631 9.00155L167.717 8.96863L167.722 8.96768V5.64309L167.587 5.65355L162.327 5.70085L161.951 5.76449L161.585 5.84596L161.229 5.9481L160.881 6.066L160.54 6.1953L160.207 6.33874L159.884 6.50447L159.571 6.67947L159.263 6.86843L158.971 7.07617L158.693 7.28949L158.421 7.51553L158.165 7.7588L157.918 8.00879L157.682 8.27274L157.463 8.54662L157.256 8.82703L157.061 9.12158L156.883 9.41941L156.721 9.73137L156.573 10.0482L156.44 10.3752L156.322 10.7035L156.224 11.0405L156.141 11.3854L156.075 11.729L156.029 12.0836L156.002 12.4378L155.991 12.7999L156.002 13.1725L156.029 13.539L156.074 13.9036L156.141 14.2553L156.221 14.604L156.317 14.9373L156.425 15.2685L156.558 15.5937L156.701 15.9091L156.859 16.2153L157.026 16.5107L157.217 16.796L157.416 17.0757L157.625 17.3406L157.851 17.5994L158.085 17.8403L158.336 18.0722L158.589 18.2941L158.858 18.4988L159.137 18.6938L159.423 18.8739L159.722 19.0401L160.024 19.1929L160.334 19.3317L160.655 19.4584L160.98 19.5661L161.314 19.6599L161.652 19.7318L161.992 19.7922L162.344 19.8344L167.581 19.8586L167.722 19.8623V16.5107" fill="#C11E25"/>
  </symbol>
  <symbol viewBox="0 0 24 24" fill="none" xmlns="http://www.w3.org/2000/svg" id="icon-overtime">
    <path d="M21 11.1094V6.98438C21 6.45312 20.7969 6 20.3906 5.625C20.0156 5.21875 19.5469 5.01562 18.9844 5.01562H15V3C15 2.4375 14.7969 1.96875 14.3906 1.59375C14.0156 1.1875 13.5469 0.984375 12.9844 0.984375H9C8.4375 0.984375 7.95312 1.1875 7.54688 1.59375C7.17188 1.96875 6.98438 2.4375 6.98438 3V5.01562H3C2.4375 5.01562 1.95312 5.21875 1.54688 5.625C1.17188 6 0.984375 6.45312 0.984375 6.98438V18C0.984375 18.5625 1.17188 19.0469 1.54688 19.4531C1.95312 19.8281 2.4375 20.0156 3 20.0156H10.2656C11.0156 21.1094 12 21.9219 13.2188 22.4531C14.4375 22.9844 15.7031 23.1562 17.0156 22.9688C18.3281 22.7812 19.4844 22.2656 20.4844 21.4219C21.5156 20.5781 22.2344 19.5312 22.6406 18.2812C23.0781 17.0312 23.1406 15.7656 22.8281 14.4844C22.5469 13.1719 21.9375 12.0469 21 11.1094ZM9 3H12.9844V5.01562H9V3ZM18.9844 20.0156C18.1094 20.6719 17.1094 21 15.9844 21C14.8906 21 13.9062 20.6719 13.0312 20.0156C12.1562 19.3594 11.5469 18.5156 11.2031 17.4844C10.8906 16.4531 10.9062 15.4375 11.25 14.4375C11.5938 13.4062 12.2031 12.5781 13.0781 11.9531C13.9531 11.3281 14.9219 11.0156 15.9844 11.0156C17.0781 11.0156 18.0625 11.3281 18.9375 11.9531C19.8125 12.5781 20.4062 13.4062 20.7188 14.4375C21.0625 15.4375 21.0781 16.4531 20.7656 17.4844C20.4531 18.5156 19.8594 19.3594 18.9844 20.0156ZM15 12.9844H16.5V15.7969L18.9375 17.25L18.1875 18.5156L15 16.6875V12.9844Z" fill="white"/>
  </symbol>
  <symbol viewBox="0 0 18 20" fill="none" xmlns="http://www.w3.org/2000/svg" id="icon-tax-other">
    <path d="M3 0.015625C2.4375 0.015625 1.95312 0.21875 1.54688 0.625C1.17188 1 0.984375 1.45312 0.984375 1.98438V18.0156C0.984375 18.5469 1.17188 19 1.54688 19.375C1.95312 19.7812 2.4375 19.9844 3 19.9844H15C15.5625 19.9844 16.0312 19.7812 16.4062 19.375C16.8125 19 17.0156 18.5469 17.0156 18.0156V6.01562L11.0156 0.015625H3ZM9.98438 1.51562L15.5156 7H9.98438V1.51562ZM5.95312 10.2344H12.9844V17.3125L10.875 15.1562L8.0625 18.0156L5.20312 15.1562L8.0625 12.3438L5.95312 10.2344Z" fill="white"/>
  </symbol>
  <symbol viewBox="0 0 22 18" fill="none" xmlns="http://www.w3.org/2000/svg" id="icon-plane">
    <path d="M17.6121 7.125C17.4528 7.125 16.9184 7.12969 16.7684 7.13906L13.7262 7.21875C13.6934 7.21875 13.6606 7.20469 13.6465 7.17656L9.08557 0.346875C8.94964 0.13125 8.70589 0 8.45276 0H7.34182C7.07932 0 6.99026 0.2625 7.08401 0.50625L9.43245 7.2C9.45588 7.26094 9.4137 7.32656 9.34807 7.32656L3.61057 7.41094C3.4887 7.41563 3.3762 7.35938 3.3012 7.26562L1.56682 5.15625C1.4262 4.97344 1.20589 4.87031 0.976199 4.87031H0.188699C0.0574489 4.87031 -0.0316136 4.99687 0.0105739 5.11875L0.943386 8.33906C1.0137 8.51719 1.0137 8.71875 0.943386 8.89688L0.0105739 12.1172C-0.0316136 12.2391 0.0574489 12.3656 0.188699 12.3656H0.971511C1.2012 12.3656 1.42151 12.2578 1.56214 12.0797L3.32932 9.9375C3.40432 9.84375 3.52151 9.7875 3.6387 9.79219L9.34339 9.91875C9.40901 9.92344 9.4512 9.98438 9.42776 10.0453L7.07932 16.7438C6.98557 16.9875 7.07464 17.25 7.33714 17.25H8.44807C8.70589 17.25 8.94495 17.1187 9.08088 16.9031L13.6465 10.0781C13.6653 10.05 13.6934 10.0359 13.7262 10.0359L16.7684 10.1156C16.9231 10.125 17.4528 10.1297 17.6121 10.1297C19.6887 10.1297 21.0012 9.45938 21.0012 8.62969C21.0012 7.8 19.6934 7.125 17.6121 7.125Z" fill="white"/>
  </symbol>
  <symbol viewBox="0 0 18 20" fill="none" xmlns="http://www.w3.org/2000/svg" id="icon-reference">
    <path d="M9.98438 7H15.5156L9.98438 1.51562V7ZM3 0.015625H11.0156L17.0156 6.01562V18.0156C17.0156 18.5469 16.8125 19 16.4062 19.375C16.0312 19.7812 15.5625 19.9844 15 19.9844H3C2.4375 19.9844 1.95312 19.7812 1.54688 19.375C1.17188 19 0.984375 18.5469 0.984375 18.0156V1.98438C0.984375 1.45312 1.17188 1 1.54688 0.625C1.95312 0.21875 2.4375 0.015625 3 0.015625ZM11.0156 18.0156V16.9844C11.0156 16.3906 10.5156 15.8906 9.51562 15.4844C8.67188 15.1719 7.82812 15.0156 6.98438 15.0156C6.17188 15.0156 5.34375 15.1719 4.5 15.4844C3.5 15.8906 3 16.3906 3 16.9844V18.0156H11.0156ZM6.98438 10C6.45312 10 5.98438 10.2031 5.57812 10.6094C5.20312 10.9844 5.01562 11.4531 5.01562 12.0156C5.01562 12.5469 5.20312 13.0156 5.57812 13.4219C5.98438 13.7969 6.45312 13.9844 6.98438 13.9844C7.54688 13.9844 8.01562 13.7969 8.39062 13.4219C8.79688 13.0156 9 12.5469 9 12.0156C9 11.4531 8.79688 10.9844 8.39062 10.6094C8.01562 10.2031 7.54688 10 6.98438 10Z" fill="white"/>
  </symbol>
  <symbol viewBox="0 0 24 19" fill="none" xmlns="http://www.w3.org/2000/svg" id="icon-tax-mortgage">
    <path d="M0 19V7.98438L7.5 3.01562L15 7.98438V19H9.98438V12.0156H5.01562V19H0ZM24 0.015625V19H17.0156V6.95312L15.9844 6.25V4H14.0156V4.9375L9.98438 2.26562V0.015625H24ZM21 12.0156H18.9844V13.9844H21V12.0156ZM21 7.98438H18.9844V10H21V7.98438ZM21 4H18.9844V6.01562H21V4Z" fill="white"/>
  </symbol>
  <symbol viewBox="0 0 20 18" fill="none" xmlns="http://www.w3.org/2000/svg" id="icon-support">
    <path d="M18.0156 17.0156H4.98438C4.45312 17.0156 3.98438 16.8281 3.57812 16.4531C3.20312 16.0469 3.01562 15.5625 3.01562 15V5.95312L0.25 2.625C0.09375 2.4375 0.015625 2.21875 0.015625 1.96875C0.015625 1.71875 0.109375 1.5 0.296875 1.3125C0.484375 1.09375 0.71875 0.984375 1 0.984375H18.0156C18.5469 0.984375 19 1.1875 19.375 1.59375C19.7812 1.96875 19.9844 2.4375 19.9844 3V15C19.9844 15.5625 19.7812 16.0469 19.375 16.4531C19 16.8281 18.5469 17.0156 18.0156 17.0156ZM6.48438 3.98438C6.35938 3.98438 6.25 4.04687 6.15625 4.17188C6.0625 4.26562 6.01562 4.375 6.01562 4.5V5.48438C6.01562 5.64062 6.0625 5.76562 6.15625 5.85938C6.25 5.95312 6.35938 6 6.48438 6H16.5156C16.6406 6 16.75 5.95312 16.8438 5.85938C16.9375 5.76562 16.9844 5.64062 16.9844 5.48438V4.5C16.9844 4.375 16.9375 4.26562 16.8438 4.17188C16.75 4.04687 16.6406 3.98438 16.5156 3.98438H6.48438ZM6.48438 8.01562C6.35938 8.01562 6.25 8.0625 6.15625 8.15625C6.0625 8.25 6.01562 8.35938 6.01562 8.48438V9.51562C6.01562 9.64062 6.0625 9.75 6.15625 9.84375C6.25 9.9375 6.35938 9.98438 6.48438 9.98438H16.5156C16.6406 9.98438 16.75 9.9375 16.8438 9.84375C16.9375 9.75 16.9844 9.64062 16.9844 9.51562V8.48438C16.9844 8.35938 16.9375 8.25 16.8438 8.15625C16.75 8.0625 16.6406 8.01562 16.5156 8.01562H6.48438ZM6.48438 12C6.35938 12 6.25 12.0469 6.15625 12.1406C6.0625 12.2344 6.01562 12.3594 6.01562 12.5156V13.5C6.01562 13.625 6.0625 13.75 6.15625 13.875C6.25 13.9688 6.35938 14.0156 6.48438 14.0156H11.5C11.625 14.0156 11.7344 13.9688 11.8281 13.875C11.9531 13.75 12.0156 13.625 12.0156 13.5V12.5156C12.0156 12.3594 11.9531 12.2344 11.8281 12.1406C11.7344 12.0469 11.625 12 11.5 12H6.48438Z" fill="white"/>
  </symbol>
  <symbol viewBox="0 0 16 20" fill="none" xmlns="http://www.w3.org/2000/svg" id="icon-office">
    <path fill-rule="evenodd" clip-rule="evenodd" d="M13.1562 1.75H2.84375C2.37969 1.75 2 1.37031 2 0.90625C2 0.442188 2.37969 0.0625 2.84375 0.0625H13.1562C13.6203 0.0625 14 0.442188 14 0.90625C14 1.37031 13.6203 1.75 13.1562 1.75ZM1.34375 2.6875H14.6562C15.1203 2.6875 15.5 3.06719 15.5 3.53125C15.5 3.96719 15.1766 4.33281 14.75 4.375V18.4375C14.75 19.0562 14.2437 19.5625 13.625 19.5625H9.5C9.29375 19.5625 9.125 19.3937 9.125 19.1875V17.3125C9.125 17.1063 8.95625 16.9375 8.75 16.9375H7.25C7.04375 16.9375 6.875 17.1063 6.875 17.3125V19.1875C6.875 19.3937 6.70625 19.5625 6.5 19.5625H2.375C1.75625 19.5625 1.25 19.0562 1.25 18.4375V4.375C0.823437 4.33281 0.5 3.96719 0.5 3.53125C0.5 3.06719 0.879688 2.6875 1.34375 2.6875ZM5 15.0625C5 15.2688 4.83125 15.4375 4.625 15.4375H3.875C3.66875 15.4375 3.5 15.2688 3.5 15.0625V14.3125C3.5 14.1062 3.66875 13.9375 3.875 13.9375H4.625C4.83125 13.9375 5 14.1062 5 14.3125V15.0625ZM4.625 12.4375C4.83125 12.4375 5 12.2688 5 12.0625V11.3125C5 11.1062 4.83125 10.9375 4.625 10.9375H3.875C3.66875 10.9375 3.5 11.1062 3.5 11.3125V12.0625C3.5 12.2688 3.66875 12.4375 3.875 12.4375H4.625ZM5 9.0625C5 9.26875 4.83125 9.4375 4.625 9.4375H3.875C3.66875 9.4375 3.5 9.26875 3.5 9.0625V8.3125C3.5 8.10625 3.66875 7.9375 3.875 7.9375H4.625C4.83125 7.9375 5 8.10625 5 8.3125V9.0625ZM4.625 6.4375C4.83125 6.4375 5 6.26875 5 6.0625V5.3125C5 5.10625 4.83125 4.9375 4.625 4.9375H3.875C3.66875 4.9375 3.5 5.10625 3.5 5.3125V6.0625C3.5 6.26875 3.66875 6.4375 3.875 6.4375H4.625ZM8.75 15.0625C8.75 15.2688 8.58125 15.4375 8.375 15.4375H7.625C7.41875 15.4375 7.25 15.2688 7.25 15.0625V14.3125C7.25 14.1062 7.41875 13.9375 7.625 13.9375H8.375C8.58125 13.9375 8.75 14.1062 8.75 14.3125V15.0625ZM8.375 12.4375C8.58125 12.4375 8.75 12.2688 8.75 12.0625V11.3125C8.75 11.1062 8.58125 10.9375 8.375 10.9375H7.625C7.41875 10.9375 7.25 11.1062 7.25 11.3125V12.0625C7.25 12.2688 7.41875 12.4375 7.625 12.4375H8.375ZM8.75 9.0625C8.75 9.26875 8.58125 9.4375 8.375 9.4375H7.625C7.41875 9.4375 7.25 9.26875 7.25 9.0625V8.3125C7.25 8.10625 7.41875 7.9375 7.625 7.9375H8.375C8.58125 7.9375 8.75 8.10625 8.75 8.3125V9.0625ZM8.375 6.4375C8.58125 6.4375 8.75 6.26875 8.75 6.0625V5.3125C8.75 5.10625 8.58125 4.9375 8.375 4.9375H7.625C7.41875 4.9375 7.25 5.10625 7.25 5.3125V6.0625C7.25 6.26875 7.41875 6.4375 7.625 6.4375H8.375ZM12.5 15.0625C12.5 15.2688 12.3313 15.4375 12.125 15.4375H11.375C11.1687 15.4375 11 15.2688 11 15.0625V14.3125C11 14.1062 11.1687 13.9375 11.375 13.9375H12.125C12.3313 13.9375 12.5 14.1062 12.5 14.3125V15.0625ZM12.125 12.4375C12.3313 12.4375 12.5 12.2688 12.5 12.0625V11.3125C12.5 11.1062 12.3313 10.9375 12.125 10.9375H11.375C11.1687 10.9375 11 11.1062 11 11.3125V12.0625C11 12.2688 11.1687 12.4375 11.375 12.4375H12.125ZM12.5 9.0625C12.5 9.26875 12.3313 9.4375 12.125 9.4375H11.375C11.1687 9.4375 11 9.26875 11 9.0625V8.3125C11 8.10625 11.1687 7.9375 11.375 7.9375H12.125C12.3313 7.9375 12.5 8.10625 12.5 8.3125V9.0625ZM12.125 6.4375C12.3313 6.4375 12.5 6.26875 12.5 6.0625V5.3125C12.5 5.10625 12.3313 4.9375 12.125 4.9375H11.375C11.1687 4.9375 11 5.10625 11 5.3125V6.0625C11 6.26875 11.1687 6.4375 11.375 6.4375H12.125Z" fill="white"/>
  </symbol>
  <symbol viewBox="0 0 20 18" fill="none" id="icon-business-trip">
    <path d="M10 0.984375H3.01562C2.17188 0.984375 1.45312 1.28125 0.859375 1.875C0.296875 2.46875 0.015625 3.17188 0.015625 3.98438V12C0.015625 12.8438 0.296875 13.5625 0.859375 14.1562C1.45312 14.7188 2.17188 15 3.01562 15L1.98438 15.9844V17.0156H3.01562L4.98438 14.9531L7 15V9.98438H1.98438V3H10.9844V5.01562H13V3.98438C13 3.17188 12.7031 2.46875 12.1094 1.875C11.5469 1.28125 10.8438 0.984375 10 0.984375ZM3.01562 11.0156C3.29688 11.0156 3.53125 11.1094 3.71875 11.2969C3.90625 11.4844 4 11.7188 4 12C4 12.2812 3.90625 12.5156 3.71875 12.7031C3.53125 12.8906 3.29688 12.9844 3.01562 12.9844C2.73438 12.9844 2.48438 12.8906 2.26562 12.7031C2.07812 12.5156 1.98438 12.2812 1.98438 12C1.98438 11.7188 2.07812 11.4844 2.26562 11.2969C2.48438 11.1094 2.73438 11.0156 3.01562 11.0156ZM18.5781 6.65625C18.5156 6.46875 18.3906 6.3125 18.2031 6.1875C18.0156 6.0625 17.8125 6 17.5938 6H10.4219C10.1719 6 9.95312 6.0625 9.76562 6.1875C9.60938 6.3125 9.5 6.46875 9.4375 6.65625L7.98438 10.7812V16.2656C7.98438 16.4531 8.04688 16.625 8.17188 16.7812C8.32812 16.9375 8.5 17.0156 8.6875 17.0156H9.29688C9.48438 17.0156 9.64062 16.9375 9.76562 16.7812C9.92188 16.625 10 16.4375 10 16.2188V15H18.0156V16.2188C18.0156 16.4375 18.0781 16.625 18.2031 16.7812C18.3281 16.9375 18.4844 17.0156 18.6719 17.0156H19.2812C19.4688 17.0156 19.625 16.9375 19.75 16.7812C19.9062 16.625 19.9844 16.4531 19.9844 16.2656V10.7812L18.5781 6.65625ZM10.4219 6.98438H17.5938L18.625 9.98438H9.39062L10.4219 6.98438ZM10 12.9844C9.71875 12.9844 9.48438 12.8906 9.29688 12.7031C9.10938 12.5156 9.01562 12.2812 9.01562 12C9.01562 11.7188 9.10938 11.4844 9.29688 11.2969C9.48438 11.1094 9.71875 11.0156 10 11.0156C10.2812 11.0156 10.5156 11.1094 10.7031 11.2969C10.8906 11.4844 10.9844 11.7188 10.9844 12C10.9844 12.2812 10.8906 12.5156 10.7031 12.7031C10.5156 12.8906 10.2812 12.9844 10 12.9844ZM18.0156 12.9844C17.7344 12.9844 17.4844 12.8906 17.2656 12.7031C17.0781 12.5156 16.9844 12.2812 16.9844 12C16.9844 11.7188 17.0781 11.4844 17.2656 11.2969C17.4844 11.1094 17.7344 11.0156 18.0156 11.0156C18.2969 11.0156 18.5312 11.1094 18.7188 11.2969C18.9062 11.4844 19 11.7188 19 12C19 12.2812 18.9062 12.5156 18.7188 12.7031C18.5312 12.8906 18.2969 12.9844 18.0156 12.9844Z" fill="white"/>
  </symbol>
  <symbol viewBox="0 0 9 21" fill="none" id="icon-sick">
    <path fill-rule="evenodd" clip-rule="evenodd" d="M6.69844 12.1641C6.69844 12.4078 6.82031 12.6375 7.02188 12.7781C8.20312 13.5844 9 14.9531 9 16.4953C9 18.9797 6.98438 20.9953 4.5 20.9953C2.01562 20.9953 0 18.9797 0 16.4953C0 14.9531 0.7875 13.5891 1.96875 12.7781C2.17031 12.6422 2.29219 12.4078 2.29219 12.1641V2.17969C2.29219 0.975 3.27656 0 4.49531 0C5.71406 0 6.69844 0.975 6.69844 2.17969V12.1641ZM1.78125 16.6029C1.78125 18.1264 3.00469 19.3592 4.50469 19.3592C6.00937 19.3592 7.21875 18.1217 7.21875 16.5982C7.21875 15.4123 6.44531 14.3951 5.41875 14.0107C5.26875 13.9545 5.17031 13.8186 5.17031 13.6592V6.94669C5.17031 6.57169 4.86562 6.267 4.49062 6.267C4.11562 6.267 3.81094 6.57169 3.81094 6.94669V13.6592C3.81094 13.8186 3.70781 13.9545 3.55781 14.0107C2.50313 14.3951 1.78125 15.4123 1.78125 16.6029Z" fill="white"/>
  </symbol>
  <symbol viewBox="0 0 12 22" fill="none" id="icon-day-off">
    <path fill-rule="evenodd" clip-rule="evenodd" d="M7.15469 0.52236C8.10786 0.677063 8.75514 1.57517 8.60044 2.52833C8.44573 3.48149 7.54763 4.12877 6.59446 3.97407C5.6413 3.81937 4.99402 2.92126 5.14872 1.9681C5.30342 1.01494 6.20153 0.367657 7.15469 0.52236ZM0.248687 18.2233L3.42681 15.9311V11.6561L5.56899 13.8452L5.14243 16.3061C5.14243 16.5452 5.04399 16.7749 4.87524 16.9389L1.60806 19.3577C1.444 19.5217 1.069 19.7514 0.858061 19.7514C0.633061 19.7514 0.389311 19.6436 0.220562 19.4608C0.0564994 19.2874 -0.00443806 19.0999 0.000249433 18.8749C0.00493693 18.6499 0.0752493 18.3921 0.248687 18.2233ZM10.4393 20.5249L9.72676 15.0218C9.70333 14.8577 9.6377 14.703 9.52989 14.5765L6.85802 11.3515V5.7452C6.85802 5.21552 6.5627 4.99989 6.0002 4.99989H4.26583C4.13458 4.99989 4.02208 5.04677 3.90489 5.1077L0.717389 6.59364C0.248639 6.84208 0.000201702 7.31552 0.000201702 7.93895V10.9999C0.000201702 11.4827 0.384577 11.8765 0.858014 11.8765C1.33145 11.8765 1.71583 11.4827 1.71583 10.9999V8.27177C1.71583 8.13114 1.79551 7.99989 1.92208 7.93895L3.43145 7.1702V10.6999C3.43145 10.8968 3.50645 11.0843 3.64708 11.2249L7.97833 15.6499C8.03458 15.7061 8.07208 15.7811 8.08145 15.8608L8.74708 20.7686C8.80801 21.2046 9.17364 21.5046 9.59552 21.5046H9.68927C10.1533 21.4343 10.5049 21.003 10.4393 20.5249ZM7.28467 5.38408L11.7378 9.89346C11.9065 10.0669 12.0003 10.3341 12.0003 10.5591C12.0003 10.7794 11.9065 10.9622 11.7425 11.131C11.405 11.4732 10.8659 11.4778 10.5284 11.1357L7.28467 7.84971V5.38408Z" fill="white"/>
  </symbol>
  <symbol viewBox="0 0 18 21" fill="none" id="icon-weekend-work">
    <path d="M3.98438 9.98438H9V15H3.98438V9.98438ZM15.9844 18.9844H2.01562V8.01562H15.9844V18.9844ZM15.9844 3H15V0.984375H12.9844V3H5.01562V0.984375H3V3H2.01562C1.45312 3 0.96875 3.20312 0.5625 3.60938C0.1875 3.98438 0 4.45312 0 5.01562V18.9844C0 19.5469 0.1875 20.0312 0.5625 20.4375C0.96875 20.8125 1.45312 21 2.01562 21H15.9844C16.5469 21 17.0156 20.8125 17.3906 20.4375C17.7969 20.0312 18 19.5469 18 18.9844V5.01562C18 4.45312 17.7969 3.98438 17.3906 3.60938C17.0156 3.20312 16.5469 3 15.9844 3Z" fill="white"/>
  </symbol>
  <symbol viewBox="0 0 416 416" fill="none" id="icon-family-status">
    <path fill-rule="evenodd" clip-rule="evenodd" d="M0 208C0 93.1 93.1 0 208 0C322.9 0 416 93.1 416 208C416 322.9 322.9 416 208 416C93.1 416 0 322.9 0 208ZM342.831 261.907C346.001 262.549 348.963 263.15 351.3 263.9C360.2 266.8 368 272.1 373.6 279.1C383.1 256.9 388.1 232.9 388.1 208C388.1 159.4 368.9 113.6 334.1 79.5C300 46.1 253.9 27.6 206.3 28C159.1 28.4 114.7 47 81.2 80.3C47.2 114 28 160.1 28 208C28 241 36.8 272.6 53.3 300.1C63.8794 294.48 75.1418 292.343 87.0874 290.077C89.5949 289.602 92.1324 289.12 94.7 288.6C94.9384 288.55 95.1895 288.498 95.4522 288.444C102.57 286.967 118.171 283.73 120.1 276.4C121.857 269.723 121.916 262.428 121.972 255.464C121.98 254.502 121.988 253.547 122 252.6C122.079 250.54 121.531 249.986 120.404 248.85C120.108 248.553 119.774 248.215 119.4 247.8C115.8 243.7 112.7 239.2 111.2 233.9C109 226 108.1 217.7 107.3 209.6C99.9724 211.613 97.6374 200.139 96.1705 192.931C95.8157 191.187 95.5116 189.693 95.2 188.7C94.1 185.1 92.2 170.2 98.6 167.4C95.6 162 94.6 155.3 93.9 149.3C92.3 136.1 91.9 122.4 96.7 109.8C106.7 83.9 133.5 71.1 160.2 72C186.5 72.8 211.4 87.4 219.5 113.4C223.4 125.9 222.6 139.9 220.6 152.7C219.9 157.6 218.9 163 216.4 167.4C224 170.1 220.1 187.6 219 191C218.714 191.933 218.443 193.271 218.132 194.811C216.806 201.359 214.744 211.543 207.7 209.6C207.585 210.771 207.477 211.967 207.367 213.181C206.521 222.538 205.58 232.933 200.8 240.9C200.289 241.74 199.112 242.979 197.823 244.336C195.58 246.696 193 249.413 193 251C193 254.8 193.1 258.6 193.3 262.4C193.35 263.205 193.392 264.027 193.435 264.859C193.645 268.989 193.868 273.371 195.2 277.2C196.633 281.162 202.613 282.992 206.912 284.308C207.713 284.553 208.456 284.78 209.1 285C215.85 287.35 222.875 288.6 229.9 289.85C236.925 291.1 243.95 292.35 250.7 294.7C278.7 304.4 296.5 330.4 296.5 359.9C296.6 362.1 298.9 363.4 300.8 362.3L306.5 358.7C310.3 356.1 312.5 351.7 312 347.2C310.1 330.2 305.2 315.3 292 302.6C272.4 283.6 246 277.6 246 277.6C242.6 276.4 238.4 275.4 234.5 274.7C230.6 274 230 268.6 233.7 267.1C241.4 263.9 247.4 262.1 250.1 261.4C254.1 260.3 264.8 256.9 265.9 252C266.2 250.7 265.9 238.1 265.9 238.1C244.5 236.2 237 231.8 237 231.8C232.152 229.337 233.167 227.645 235.031 224.534C235.589 223.603 236.224 222.544 236.8 221.3C242.158 209.402 242.123 194.228 242.087 178.966C242.027 152.921 241.966 126.619 268.7 115.9C275.3 113.2 284.5 111.8 294 111.8C305.7 111.8 317.8 114 325.4 118.7C340.6 128.1 345 146.4 345.4 163.1C345.526 168.177 345.308 173.453 345.087 178.797C344.433 194.608 343.753 211.023 351.9 224.7C352.33 225.431 352.751 226.023 353.108 226.526C354.411 228.36 354.861 228.995 351.8 230.8C351.8 230.8 346 235.5 320.8 236.9C320.8 236.9 318.9 250 321.8 253.5C325.926 258.48 335.013 260.322 342.831 261.907Z" fill="white"/>
  </symbol>
  <symbol viewBox="0 0 18 20" fill="none" id="icon-vacation">
    <path d="M9 7C9.46875 9.25 9.53125 11.5 9.1875 13.75C8.9375 15.3438 8.5 16.875 7.875 18.3438C7.5625 19.0625 7.26562 19.6094 6.98438 19.9844H9.98438C10.8281 17.4844 11.2188 15.0312 11.1562 12.625C11.125 11.1875 10.9062 9.64062 10.5 7.98438L9 7ZM12.6562 5.17188C12.875 5.42187 13.0312 5.64062 13.125 5.82812C13.9688 7.17188 14.3281 8.625 14.2031 10.1875C14.0781 11.75 13.5156 13.1094 12.5156 14.2656C12.9219 13.2031 13.0781 12.1094 12.9844 10.9844C12.9219 9.82812 12.5781 8.75 11.9531 7.75L11.7188 7.42188C11.125 6.60938 10.4062 5.95313 9.5625 5.45312C8.09375 5.89062 6.89062 6.73438 5.95312 7.98438C5.04688 9.23438 4.59375 10.6406 4.59375 12.2031C4.59375 12.9531 4.6875 13.6562 4.875 14.3125C4 13.0938 3.5625 11.7188 3.5625 10.1875C3.5625 9.03125 3.8125 7.95312 4.3125 6.95312C4.84375 5.95313 5.5625 5.125 6.46875 4.46875C4.875 4.34375 3.42188 4.6875 2.10938 5.5C1.48438 5.90625 0.953125 6.375 0.515625 6.90625C1.07812 5.5 2 4.39062 3.28125 3.57812C4.78125 2.64062 6.40625 2.29688 8.15625 2.54688C7.71875 1.95312 7.20312 1.4375 6.60938 1C6.04688 0.5625 5.4375 0.234375 4.78125 0.015625C6.3125 0.046875 7.67188 0.515625 8.85938 1.42188C9.45312 1.85937 9.96875 2.40625 10.4062 3.0625H10.6875C12.2812 3.0625 13.7031 3.53125 14.9531 4.46875C16.2031 5.40625 17.0469 6.60938 17.4844 8.07812C16.9219 7.29688 16.2188 6.65625 15.375 6.15625C14.5625 5.625 13.6562 5.29688 12.6562 5.17188Z" fill="currentColor"/>
  </symbol>
  <symbol viewBox="0 0 20 18" fill="none" id="icon-home">
    <path d="M7.98438 17.0156V11.0156H12.0156V17.0156H16.9844V9H19.9844L10 0L0.015625 9H3.01562V17.0156H7.98438Z" fill="white"/>
  </symbol>
  <symbol viewBox="0 0 400 400" fill="none" id="icon-phone">
    <path d="M373.9 300.8C359.2 286.1 323.9 264 306.5 255.7C286.3 246 278.9 246.2 264.6 256.5C252.7 265.1 245 273.1 231.3 270.1C217.6 267.2 190.6 246.7 164.4 220.6C138.2 194.4 117.8 167.4 114.9 153.7C112 139.9 120 132.3 128.5 120.4C138.8 106.1 139.1 98.7 129.3 78.5C121 61 99 25.8 84.2 11.1C69.5 -3.60001 66.2 -0.400013 58.1 2.49999C58.1 2.49999 46.1 7.29999 34.2 15.2C19.5 25 11.3 33.2 5.49996 45.5C-0.200042 57.8 -6.80004 80.7 26.8 140.5C53.9 188.8 80.5 225.4 120 264.8L120.1 264.9L120.2 265C159.7 304.5 196.2 331.1 244.5 358.2C304.3 391.8 327.2 385.2 339.5 379.5C351.8 373.8 360 365.6 369.8 350.8C377.7 338.9 382.5 326.9 382.5 326.9C385.4 318.8 388.7 315.5 373.9 300.8Z" fill="white"/>
  </symbol>
  <symbol viewBox="0 0 288 416" fill="none" id="icon-place">
    <path fill-rule="evenodd" clip-rule="evenodd" d="M0 133.7C0 59.9 64.5 0 144 0C223.5 0 288 59.9 288 133.7C288 237.7 144 416 144 416C144 416 0 237.7 0 133.7ZM97.1 144C97.1 169.9 118.1 190.9 144 190.9C169.9 190.9 190.9 169.9 190.9 144C190.9 118.1 169.9 97.1 144 97.1C118.1 97.1 97.1 118.1 97.1 144Z" fill="white"/>
  </symbol>
  <symbol viewBox="0 0 416 288" fill="none" id="icon-email">
    <path fill-rule="evenodd" clip-rule="evenodd" d="M247.1 166.7C236.7 177.3 222.8 183.1 208 183.1C193.2 183.1 179.3 177.2 169 166.7L12.1 7C17.5 2.6 24.4 0 31.9 0H384.2C391.7 0 398.5 2.6 404 7L247.1 166.7ZM305 144.9L412.6 35.3C413.8 34.1 416 34.9 416 36.7V256C416 273.6 401.6 288 384 288H32C14.4 288 0 273.6 0 256V36.7C0 34.9 2.1 34 3.4 35.3L111.1 144.9C111.8 145.7 111.8 146.9 111.1 147.7L35.8 227.9C30.7 233 30.7 241.2 35.8 246.3C38.3 248.8 41.7 250.1 45 250.1C48.3 250.1 51.7 248.8 54.2 246.3L129.2 166.4C130 165.6 131.3 165.6 132.1 166.4L149.7 184.3C165.2 200 186.2 209.3 208.3 209.2C230.1 209.1 250.4 200.5 265.7 185L284 166.4C284.8 165.6 286.1 165.6 286.9 166.4L361.9 246.3C364.4 248.8 367.8 250.1 371.1 250.1C374.4 250.1 377.8 248.8 380.3 246.3C385.4 241.2 385.4 233 380.3 227.9L305 147.7C304.2 146.9 304.2 145.7 305 144.9Z" fill="white"/>
  </symbol>
  <symbol viewBox="0 0 450 292" fill="none" id="icon-child">
    <path fill-rule="evenodd" clip-rule="evenodd" d="M297.012 220.562C304.325 221.54 312.198 222.592 318.1 224.7C329.3 228.7 363.9 246.9 363.8 292H85.5C85.5 247 120.1 228.8 131.3 224.8C137.231 222.7 145.091 221.593 152.377 220.566C158.973 219.636 165.099 218.773 168.9 217.3C170.069 216.862 171.382 216.41 172.755 215.938C177.955 214.15 184.006 212.069 186.3 209.3C189.2 205.8 189.2 180.8 189.2 180.8C189.2 180.8 182.2 174.2 179.3 166.8C176.4 159.4 174.5 139.3 174.5 139.3C174.5 139.3 167.9 142.2 165.3 128.9C164.448 124.679 163.337 121.199 162.335 118.063C160.63 112.728 159.244 108.39 160 103.1C161.1 94.7 165.8 96.7 165.8 96.7C165.8 96.7 160.1 88.2 160.1 59.3C160.1 29.6 182.8 0.199997 224.8 0.199997C266.9 0.199997 289.4 29.5 289.4 59.3C289.4 88.2 283.6 96.7 283.6 96.7C283.6 96.7 288.2 94.7 289.4 103.1C290.082 108.311 288.725 112.598 287.071 117.823C286.059 121.021 284.935 124.571 284.1 128.9C281.5 142.1 274.9 139.3 274.9 139.3C274.9 139.3 273 159.5 270.1 166.8C267.2 174.2 260.2 180.8 260.2 180.8C260.2 180.8 260.2 205.8 263.1 209.3C265.331 211.993 271.113 214.034 276.211 215.834C277.741 216.374 279.208 216.892 280.5 217.4C284.332 218.867 290.446 219.684 297.012 220.562ZM109 176C109 176 132.9 175.2 142.4 166.7C131.965 150.88 132.362 133.292 132.76 115.676C132.953 107.124 133.146 98.5661 132.1 90.2C128.9 64.7 114.4 49.4 85.4 49.4H85C57 49.4 41.9 64.6 38.7 90.2C37.6509 98.5602 37.9023 107.458 38.154 116.364C38.6701 134.624 39.1872 152.921 28.5 166.7C38 175.3 62 175 62 175C62 175 63 189.4 61 191.8C59 194.2 53.1 196.5 49 197.3C40.2 199.2 30.9 201.8 23.1 204.5C15.3 207.2 0.5 221.7 0.5 241.7H80.8C83 233.7 98.1 219.4 112.8 211.9C119.815 208.314 126.77 207.706 132.717 207.186L132.717 207.186C134.399 207.039 136.001 206.898 137.5 206.7C137.5 206.7 141.3 200.7 128.8 198.4C128.8 198.4 111.6 194.1 109.6 191.7C107.7 189.5 109 176 109 176ZM341 176C341 176 317.1 175.2 307.6 166.7C318.035 150.88 317.638 133.292 317.24 115.676V115.675C317.047 107.124 316.854 98.5659 317.9 90.2C321.1 64.7 335.6 49.4 364.6 49.4H365C393 49.4 408.1 64.6 411.3 90.2C412.349 98.5602 412.098 107.458 411.846 116.364C411.33 134.624 410.813 152.921 421.5 166.7C412 175.3 388 175 388 175C388 175 387 189.4 389 191.8C391 194.2 396.9 196.5 401 197.3C409.8 199.2 419.1 201.8 426.9 204.5C434.7 207.2 449.5 221.7 449.5 241.7H369.2C367 233.7 351.9 219.4 337.2 211.9C330.185 208.314 323.23 207.706 317.283 207.186L317.283 207.186C315.601 207.039 313.999 206.898 312.5 206.7C312.5 206.7 308.7 200.7 321.2 198.4C321.2 198.4 338.4 194.1 340.4 191.7C342.3 189.5 341 176 341 176Z" fill="white"/>
  </symbol>
  <symbol viewBox="0 0 512 512" fill="none" id="icon-doc">
    <path fill-rule="evenodd" clip-rule="evenodd" d="M267 56V136C267 160.8 287.2 181 312 181H408V424C408 441.6 393.6 456 376 456H136C118.4 456 104 441.6 104 424V88C104 70.4 118.4 56 136 56H267ZM403 155H312C301.5 155 293 146.5 293 136V63.5C293 59.4 296.3 56.1 300.4 56.1C308 56.1 315.2 58.7 321 63.5L397.3 127.1C404.1 132.7 408 141.1 408 150C408 152.8 405.8 155 403 155Z" fill="white"/>
  </symbol>
  <symbol viewBox="0 0 18 21" fill="none" id="icon-contacts">
    <path d="M15.9844 3H11.8125C11.5938 2.40625 11.2188 1.92188 10.6875 1.54688C10.1875 1.17188 9.625 0.984375 9 0.984375C8.375 0.984375 7.79688 1.17188 7.26562 1.54688C6.76562 1.92188 6.40625 2.40625 6.1875 3H2.01562C1.45312 3 0.96875 3.20312 0.5625 3.60938C0.1875 3.98438 0 4.45312 0 5.01562V18.9844C0 19.5469 0.1875 20.0312 0.5625 20.4375C0.96875 20.8125 1.45312 21 2.01562 21H15.9844C16.5469 21 17.0156 20.8125 17.3906 20.4375C17.7969 20.0312 18 19.5469 18 18.9844V5.01562C18 4.45312 17.7969 3.98438 17.3906 3.60938C17.0156 3.20312 16.5469 3 15.9844 3ZM3.98438 8.01562H6V12H5.01562V9H3.98438V8.01562ZM6.98438 17.0156V18H3.98438V17.0625L6 15H3.98438V14.0156H6.23438C6.45312 14.0156 6.625 14.0938 6.75 14.25C6.90625 14.375 6.98438 14.5469 6.98438 14.7656C6.98438 14.9531 6.92188 15.125 6.79688 15.2812L5.10938 17.0156H6.98438ZM8.01562 3.98438C8.01562 3.73438 8.10938 3.51562 8.29688 3.32812C8.48438 3.10937 8.71875 3 9 3C9.28125 3 9.51562 3.10937 9.70312 3.32812C9.89062 3.51562 9.98438 3.75 9.98438 4.03125C9.98438 4.28125 9.89062 4.51562 9.70312 4.73438C9.51562 4.92188 9.28125 5.01562 9 5.01562C8.71875 5.01562 8.48438 4.92188 8.29688 4.73438C8.10938 4.51562 8.01562 4.26562 8.01562 3.98438ZM14.0156 17.0156H9V15H14.0156V17.0156ZM14.0156 11.0156H9V9H14.0156V11.0156Z" fill="white"/>
  </symbol>
  <symbol viewBox="0 0 512 512" fill="none" id="icon-school">
    <path fill-rule="evenodd" clip-rule="evenodd" d="M37.0002 188.9L249 65.1C253.9 62.3 260 62.3 264.9 65.1L477 194.5C479.5 196 481 198.6 481 201.5V373.3C481 380.1 475.4 383.3 471 383.3C463.9 383.3 460 380.1 460 373.3V219.9C460 213.7 458.3 209.8 453 212.9L264.9 320.6C260 323.4 253.9 323.4 249 320.6L37.0002 202.8C31.6002 199.7 31.6002 192 37.0002 188.9ZM280.9 445.9L413 370C415.5 368.6 417 365.9 417 363V269.3C417 263.1 410.4 259.3 405 262.3L273 338.2C270.5 339.6 269 342.3 269 345.2V439C268.9 445.1 275.6 449 280.9 445.9ZM96.9002 270.3V363C96.9002 365.9 98.4002 368.5 100.9 370L232.9 445.9C238.2 449 244.9 445.1 244.9 438.9V345.1C244.9 342.2 243.4 339.6 240.9 338.1L108.9 263.2C103.5 260.3 96.9002 264.2 96.9002 270.3Z" fill="white"/>
  </symbol>
  <symbol viewBox="0 0 417 384" fill="none" id="icon-attention">
    <path fill-rule="evenodd" clip-rule="evenodd" d="M180.9 15.9L3.80011 339.1C-7.39989 359.3 7.50011 384 30.9001 384H385.2C408.5 384 423.4 359.3 412.3 339.1L235.1 15.9C223.4 -5.3 192.6 -5.3 180.9 15.9ZM225.6 150L222 272H194L190.4 150H225.6ZM188.9 320C188.9 330.3 197.3 338.4 208 338.4C218.7 338.4 227.1 330.3 227.1 320C227.1 309.7 218.7 301.6 208 301.6C197.3 301.6 188.9 309.7 188.9 320Z" fill="white"/>
  </symbol>
  <symbol viewBox="0 0 22 22" fill="none" id="icon-support-menu">
    <rect x="2" y="4" width="18" height="2" fill="#3880FF"/>
    <rect x="5" y="10" width="15" height="2" fill="#3880FF"/>
    <rect x="8" y="16" width="12" height="2" fill="#3880FF"/>
  </symbol>
  <symbol viewBox="0 0 80 80" fill="none" id="icon-success">
    <circle cx="40" cy="40" r="40" fill="#A6CF00"/>
    <path d="M24 44L32 52L55 29" stroke="white" stroke-width="4" stroke-linecap="round" stroke-linejoin="round"/>
  </symbol>
  <symbol viewBox="0 0 80 80" fill="none" id="icon-failed">
    <circle cx="40" cy="40" r="40" fill="#ED4346"/>
    <rect x="27.8281" y="25" width="38" height="4" transform="rotate(45 27.8281 25)" fill="white"/>
    <rect x="25" y="51.8701" width="38" height="4" transform="rotate(-45 25 51.8701)" fill="white"/>
  </symbol>
  <symbol viewBox="0 0 162 40" fill="none" id="icon-logo-wa-text">
    <path d="M24.9419 0.282173L20.2108 22.0674H14.9474L13.4922 14.1199C13.1281 12.0907 12.8205 9.86416 12.5405 7.24318H12.4842C12.0929 9.83599 11.7569 12.0344 11.3083 14.1482L9.65685 22.0674H4.45038L0 0.282173H5.23464L6.46627 8.79334C6.83052 11.3297 7.13763 14.0349 7.44592 16.4309H7.50188C7.83759 13.9225 8.34108 11.3864 8.81765 8.7368L10.3848 0.282173H15.1437L16.5989 8.90602C17.0195 11.4147 17.3545 13.7541 17.6353 16.3743H17.7188C17.9996 13.7541 18.3347 11.3015 18.7272 8.7368L20.015 0.282173H24.9419Z" fill="#54606A"/>
    <path d="M27.3477 0.282173H32.274V22.0674H27.3477V0.282173Z" fill="#54606A"/>
    <path d="M47.1341 5.04521C46.3499 4.65032 45.0623 4.14295 43.327 4.14295C41.4237 4.14295 40.5006 5.07277 40.5006 6.14399C40.5006 7.35643 41.3958 7.94785 44.0267 9.15946C47.47 10.7093 48.8977 12.8517 48.8977 15.557C48.8977 19.5311 45.9023 22.3486 40.6678 22.3486C38.4845 22.3486 36.329 21.7853 35.3203 21.2215L36.1611 17.0507C37.3086 17.6421 39.1283 18.1782 40.8637 18.1782C42.9357 18.1782 43.9428 17.276 43.9428 15.9797C43.9428 14.6552 42.9627 13.9223 40.7238 12.9082C37.3086 11.3295 35.5453 9.18763 35.5453 6.59518C35.5453 2.90296 38.3446 0.000127471 43.3549 0.000127471C45.4263 0.000127471 47.0225 0.450947 48.0575 0.958263L47.1341 5.04521Z" fill="#54606A"/>
    <path d="M64.0704 22.0674H51.7812V0.282173H63.6504V4.42562H56.7077V8.79334H63.2873V12.8519H56.7077V17.9246H64.0704V22.0674Z" fill="#54606A"/>
    <path d="M76.1341 13.2462L75.1832 8.87842C74.9034 7.58173 74.5392 5.63682 74.2589 4.31211H74.2041C73.9233 5.63682 73.5591 7.63786 73.308 8.87842L72.3279 13.2462H76.1341ZM83.0774 22.0674H77.9822L76.7228 16.9947H71.7397L70.5642 22.0674H65.582L71.2916 0.282173H77.5346L83.0774 22.0674Z" fill="#54606A"/>
    <path d="M90.6024 18.2624C90.9104 18.3192 91.3855 18.3192 91.7774 18.3192C94.9974 18.3471 97.292 16.1771 97.292 10.7945C97.292 6.25653 95.2199 4.00248 92.1139 4.00248C91.4137 4.00248 90.938 4.0584 90.6024 4.14307V18.2624ZM85.7031 0.592272C87.1875 0.338382 89.2305 0.141658 91.3855 0.141658C94.9682 0.141658 97.3202 0.845957 99.1391 2.2835C101.239 4.00248 102.443 6.76431 102.443 10.7663C102.443 15.4165 100.847 18.2624 99.0552 19.8126C97.1242 21.4749 94.1851 22.2646 90.4336 22.2646C88.3344 22.2646 86.7389 22.0953 85.7031 21.9546V0.592272Z" fill="#54606A"/>
    <path d="M121.478 0.282173L115.263 22.0674H109.581L103.562 0.310294H108.993L111.037 9.38496C111.597 11.8376 112.128 14.3456 112.549 16.966H112.632C113.025 14.3736 113.556 11.8376 114.116 9.38496L116.16 0.282173H121.478Z" fill="#54606A"/>
    <path d="M162 22.0674H149.711V0.282173H161.581V4.42562H154.638V8.79334H161.216V12.8519H154.638V17.9246H162V22.0674Z" fill="#54606A"/>
    <path d="M126.25 0.282173H123.52V22.0674H126.25V0.282173Z" fill="#C11E25"/>
    <path d="M127.562 0.282173V22.0674H130.293V0.282173H127.562Z" fill="#C11E25"/>
    <path fill-rule="evenodd" clip-rule="evenodd" d="M147.042 18.8566L142.392 18.8315L142.012 18.7892L141.636 18.7289L141.26 18.6559L140.888 18.5654L140.526 18.4613L140.161 18.338L139.805 18.2002L139.454 18.0461L139.113 17.8802L138.784 17.6919L138.46 17.4965L138.142 17.2831L137.837 17.0511L137.543 16.8111L137.266 16.5496L136.994 16.2766L136.741 15.9926L136.497 15.6926L136.269 15.3771L136.063 15.0495L135.865 14.7055L135.693 14.3501L135.532 13.9829L135.395 13.5993L135.273 13.206L135.172 12.7944L135.095 12.3772L135.034 11.9441L134.996 11.4993L134.99 11.0403L134.996 10.5846L135.027 10.1382L135.083 9.71357L135.159 9.29113L135.255 8.88516L135.371 8.49366L135.506 8.11067L135.662 7.74554L135.835 7.38845L136.023 7.0501L136.23 6.7238L136.453 6.40837L136.692 6.10803L136.943 5.82438L137.207 5.55143L137.483 5.28786L137.777 5.04468L138.079 4.81536L138.392 4.60452L138.716 4.39894L139.05 4.21122L139.392 4.04488L139.746 3.89018L140.102 3.74732L140.466 3.61919L140.839 3.51501L141.215 3.42164L141.595 3.34378L141.981 3.2778L142.369 3.23398L147.037 3.20741H147.042V0.326509L146.857 0.330322L142.022 0.368945L141.466 0.434297L140.919 0.522822L140.383 0.637872L139.858 0.77872L139.342 0.937235L138.841 1.12531L138.351 1.3279L137.877 1.56027L137.412 1.80808L136.963 2.08169L136.531 2.37616L136.115 2.68335L135.713 3.01511L135.329 3.36391L134.966 3.73146L134.621 4.11466L134.289 4.51641L133.984 4.93345L133.699 5.36877L133.435 5.81696L133.191 6.27844L132.971 6.76263L132.772 7.2529L132.599 7.75903L132.454 8.28046L132.332 8.80853L132.231 9.35066L132.161 9.90123L132.118 10.4663L132.109 11.0403L132.122 11.6132L132.163 12.1791L132.241 12.7321L132.342 13.2704L132.472 13.8005L132.624 14.3185L132.808 14.827L133.01 15.3173L133.241 15.7949L133.495 16.261L133.766 16.7092L134.061 17.1397L134.377 17.5561L134.711 17.955L135.072 18.338L135.439 18.7057L135.83 19.0524L136.235 19.3817L136.655 19.6891L137.091 19.9807L137.541 20.2519L138.004 20.5013L138.481 20.7317L138.965 20.9341L139.461 21.1193L139.97 21.2815L140.481 21.4167L141.007 21.5312L141.535 21.6201L142.072 21.6875L146.886 21.7237L147.042 21.7285V18.8566Z" fill="#C11E25"/>
    <path fill-rule="evenodd" clip-rule="evenodd" d="M146.87 14.3092H146.866L142.412 14.2856L142.234 14.2514L142.061 14.215L141.89 14.1662L141.721 14.1165L141.558 14.0531L141.397 13.9912L141.244 13.9157L141.1 13.835L140.952 13.751L140.815 13.6594L140.682 13.5635L140.553 13.4569L140.434 13.3504L140.315 13.2325L140.211 13.1151L140.108 12.9879L140.015 12.8521L139.926 12.7144L139.844 12.5703L139.766 12.4216L139.698 12.2658L139.644 12.109L139.596 11.9445L139.554 11.7729L139.522 11.5985L139.5 11.416L139.484 11.2279L139.481 11.0406L139.484 10.8499L139.5 10.6651L139.522 10.488L139.554 10.308L139.596 10.1386L139.644 9.97462L139.698 9.81791L139.766 9.6596L139.844 9.51298L139.926 9.37013L140.015 9.22933L140.108 9.09656L140.211 8.97322L140.315 8.84911L140.434 8.73123L140.553 8.61979L140.682 8.52302L140.815 8.42384L140.952 8.33212L141.1 8.24421L141.244 8.16336L141.397 8.09512L141.558 8.02714L141.721 7.96761L141.89 7.91508L142.061 7.87424L142.234 7.83263L142.412 7.80121L146.866 7.77269L146.87 7.77186V4.89055L146.752 4.89962L142.146 4.94061L141.817 4.99576L141.496 5.06637L141.184 5.15489L140.88 5.25707L140.581 5.36913L140.289 5.49345L140.006 5.63708L139.733 5.78874L139.463 5.95251L139.207 6.13255L138.963 6.31743L138.726 6.51333L138.501 6.72417L138.285 6.94082L138.078 7.16958L137.886 7.40694L137.706 7.64996L137.535 7.90524L137.379 8.16336L137.237 8.43372L137.107 8.70832L136.991 8.99171L136.887 9.27619L136.801 9.5683L136.729 9.86719L136.671 10.165L136.63 10.4723L136.607 10.7793L136.598 11.0931L136.607 11.416L136.63 11.7337L136.67 12.0497L136.729 12.3544L136.799 12.6566L136.883 12.9455L136.977 13.2325L137.094 13.5144L137.219 13.7878L137.358 14.0531L137.504 14.3092L137.671 14.5564L137.845 14.7988L138.028 15.0284L138.226 15.2527L138.431 15.4615L138.651 15.6625L138.872 15.8548L139.108 16.0322L139.352 16.2012L139.603 16.3573L139.865 16.5013L140.129 16.6337L140.4 16.754L140.682 16.8638L140.967 16.9571L141.259 17.0384L141.555 17.1008L141.852 17.1531L142.16 17.1897L146.746 17.2106L146.87 17.2139V14.3092Z" fill="#C11E25"/>
    <path d="M28.3331 38.9996L27.7893 37.2324H25.0545L24.5106 38.9996H22.7969L25.4444 31.5449H27.389L30.0469 38.9996H28.3331ZM27.4096 35.9121C26.9067 34.3108 26.6228 33.4052 26.5578 33.1953C26.4963 32.9854 26.4518 32.8195 26.4244 32.6977C26.3115 33.131 25.9883 34.2025 25.4547 35.9121H27.4096Z" fill="#9FABB5"/>
    <path d="M37.4374 31.5754L35.1182 36.8262C34.8275 37.4863 34.5538 37.9603 34.2973 38.248C34.0442 38.5358 33.7432 38.7508 33.3943 38.893C33.0454 39.0318 32.6212 39.1012 32.1218 39.1012C31.6942 39.1012 31.2957 39.0504 30.9263 38.9488V37.598C31.2273 37.7199 31.6019 37.7809 32.05 37.7809C32.3339 37.7809 32.5631 37.7165 32.7375 37.5879C32.912 37.4559 33.0573 37.229 33.1736 36.9074L30.5774 31.5754H32.2603L34.1075 35.7141H34.1588L34.2511 35.4602L35.8007 31.5754H37.4374Z" fill="#9FABB5"/>
    <path d="M41.8059 38.9996H40.2153V32.8855H38.1783V31.5754H43.8429V32.8855H41.8059V38.9996Z" fill="#9FABB5"/>
    <path d="M48.709 32.7789C48.1104 32.7789 47.6469 33.0023 47.3185 33.4492C46.9902 33.8927 46.826 34.5122 46.826 35.3078C46.826 36.9633 47.4536 37.791 48.709 37.791C49.2358 37.791 49.8737 37.6607 50.6228 37.4V38.7203C50.0071 38.9742 49.3196 39.1012 48.5602 39.1012C47.469 39.1012 46.6344 38.7745 46.0563 38.1211C45.4782 37.4643 45.1892 36.5232 45.1892 35.2977C45.1892 34.5258 45.3312 33.8504 45.6151 33.2715C45.899 32.6892 46.306 32.244 46.8362 31.9359C47.3698 31.6245 47.9941 31.4688 48.709 31.4688C49.4376 31.4688 50.1696 31.6431 50.905 31.9918L50.3919 33.2715C50.1115 33.1395 49.8293 33.0243 49.5453 32.9262C49.2614 32.828 48.9827 32.7789 48.709 32.7789Z" fill="#9FABB5"/>
    <path d="M59.5578 35.2773C59.5578 36.5063 59.25 37.4508 58.6342 38.1109C58.0185 38.7711 57.136 39.1012 55.9867 39.1012C54.8374 39.1012 53.9549 38.7711 53.3391 38.1109C52.7234 37.4508 52.4156 36.5029 52.4156 35.2672C52.4156 34.0315 52.7234 33.0887 53.3391 32.4387C53.9583 31.7853 54.8442 31.4586 55.997 31.4586C57.1497 31.4586 58.0305 31.787 58.6394 32.4438C59.2517 33.1005 59.5578 34.0451 59.5578 35.2773ZM54.0831 35.2773C54.0831 36.1068 54.2422 36.7314 54.5603 37.1512C54.8784 37.571 55.3539 37.7809 55.9867 37.7809C57.2557 37.7809 57.8903 36.9464 57.8903 35.2773C57.8903 33.6049 57.2592 32.7688 55.997 32.7688C55.3641 32.7688 54.887 32.9803 54.5654 33.4035C54.2439 33.8233 54.0831 34.4479 54.0831 35.2773Z" fill="#9FABB5"/>
    <path d="M63.2285 35.0691H63.7518C64.241 35.0691 64.607 34.9743 64.8498 34.7848C65.0927 34.5918 65.2141 34.3125 65.2141 33.9469C65.2141 33.5779 65.1115 33.3053 64.9063 33.1293C64.7045 32.9533 64.3863 32.8652 63.9519 32.8652H63.2285V35.0691ZM66.8201 33.891C66.8201 34.69 66.567 35.301 66.0607 35.7242C65.5579 36.1474 64.8413 36.359 63.9109 36.359H63.2285V38.9996H61.6379V31.5754H64.034C64.9439 31.5754 65.6349 31.7701 66.1069 32.1594C66.5824 32.5453 66.8201 33.1225 66.8201 33.891Z" fill="#9FABB5"/>
    <path d="M71.9479 32.7789C71.3493 32.7789 70.8858 33.0023 70.5575 33.4492C70.2291 33.8927 70.0649 34.5122 70.0649 35.3078C70.0649 36.9633 70.6926 37.791 71.9479 37.791C72.4747 37.791 73.1127 37.6607 73.8618 37.4V38.7203C73.2461 38.9742 72.5585 39.1012 71.7991 39.1012C70.708 39.1012 69.8733 38.7745 69.2953 38.1211C68.7172 37.4643 68.4281 36.5232 68.4281 35.2977C68.4281 34.5258 68.5701 33.8504 68.854 33.2715C69.1379 32.6892 69.545 32.244 70.0751 31.9359C70.6088 31.6245 71.233 31.4688 71.9479 31.4688C72.6765 31.4688 73.4085 31.6431 74.144 31.9918L73.6309 33.2715C73.3504 33.1395 73.0682 33.0243 72.7843 32.9262C72.5004 32.828 72.2216 32.7789 71.9479 32.7789Z" fill="#9FABB5"/>
    <path d="M75.988 31.5754H77.4195V35.1605L77.399 36.1203L77.3477 37.2121H77.3785L80.8419 31.5754H82.7454V38.9996H81.3293V35.4348C81.3293 34.9574 81.3601 34.2499 81.4216 33.3121H81.3806L77.9018 38.9996H75.988V31.5754Z" fill="#9FABB5"/>
    <path d="M91.311 38.9996H89.7255V35.7953H86.7547V38.9996H85.1641V31.5754H86.7547V34.4852H89.7255V31.5754H91.311V38.9996Z" fill="#9FABB5"/>
    <path d="M98.4758 31.5754V32.8754H95.3254V38.9996H93.7348V31.5754H98.4758Z" fill="#9FABB5"/>
    <path d="M109.332 31.5754L107.013 36.8262C106.722 37.4863 106.448 37.9603 106.192 38.248C105.939 38.5358 105.638 38.7508 105.289 38.893C104.94 39.0318 104.516 39.1012 104.016 39.1012C103.589 39.1012 103.19 39.0504 102.821 38.9488V37.598C103.122 37.7199 103.496 37.7809 103.944 37.7809C104.228 37.7809 104.457 37.7165 104.632 37.5879C104.806 37.4559 104.952 37.229 105.068 36.9074L102.472 31.5754H104.155L106.002 35.7141H106.053L106.145 35.4602L107.695 31.5754H109.332Z" fill="#9FABB5"/>
    <path d="M116.568 38.9996H114.978V36.1305C114.451 36.3065 114.011 36.4267 113.659 36.491C113.31 36.5553 112.977 36.5875 112.659 36.5875C111.944 36.5875 111.391 36.4182 111.001 36.0797C110.615 35.7378 110.422 35.2587 110.422 34.6426V31.5754H112.007V34.1957C112.007 34.5546 112.091 34.8254 112.258 35.0082C112.426 35.1876 112.71 35.2773 113.11 35.2773C113.391 35.2773 113.669 35.2503 113.947 35.1961C114.227 35.1385 114.571 35.0404 114.978 34.9016V31.5754H116.568V38.9996Z" fill="#9FABB5"/>
    <path d="M123.307 38.9996H118.987V31.5754H123.307V32.8652H120.578V34.4953H123.118V35.7852H120.578V37.6996H123.307V38.9996ZM119.398 30.1484C119.398 29.9284 119.461 29.7591 119.587 29.6406C119.717 29.5221 119.892 29.4629 120.111 29.4629C120.337 29.4629 120.513 29.5255 120.639 29.6508C120.769 29.776 120.834 29.9419 120.834 30.1484C120.834 30.3516 120.769 30.5158 120.639 30.641C120.509 30.7629 120.333 30.8238 120.111 30.8238C119.892 30.8238 119.717 30.7646 119.587 30.6461C119.461 30.5276 119.398 30.3617 119.398 30.1484ZM121.465 30.1484C121.465 29.9115 121.534 29.7388 121.671 29.6305C121.811 29.5188 121.984 29.4629 122.189 29.4629C122.411 29.4629 122.587 29.5238 122.717 29.6457C122.851 29.7676 122.917 29.9352 122.917 30.1484C122.917 30.3549 122.851 30.5191 122.717 30.641C122.584 30.7629 122.408 30.8238 122.189 30.8238C121.984 30.8238 121.811 30.7697 121.671 30.6613C121.534 30.5496 121.465 30.3786 121.465 30.1484Z" fill="#9FABB5"/>
    <path d="M128.297 38.9996H126.706V32.8855H124.669V31.5754H130.334V32.8855H128.297V38.9996Z" fill="#9FABB5"/>
    <path d="M136.606 38.9996L136.062 37.2324H133.327L132.783 38.9996H131.069L133.717 31.5449H135.662L138.319 38.9996H136.606ZM135.682 35.9121C135.179 34.3108 134.895 33.4052 134.83 33.1953C134.769 32.9854 134.724 32.8195 134.697 32.6977C134.584 33.131 134.261 34.2025 133.727 35.9121H135.682Z" fill="#9FABB5"/>
  </symbol>
  <symbol viewBox="0 0 80 80" fill="none" id="icon-mark">
    <circle cx="40" cy="40" r="40" fill="#989AA2"/>
    <path d="M40 50L39.9462 46.9846L39.5 22" stroke="white" stroke-width="4" stroke-linecap="round" stroke-linejoin="round"/>
    <path d="M40.0018 59.001L39.9998 59.0007" stroke="white" stroke-width="4" stroke-linecap="round" stroke-linejoin="round"/>
  </symbol>
  <symbol viewBox="0 0 12 12" fill="none" id="icon-user">
    <path d="M6 0.65625C6.72917 0.65625 7.35417 0.916667 7.875 1.4375C8.39583 1.95833 8.65625 2.59375 8.65625 3.34375C8.65625 4.07292 8.39583 4.69792 7.875 5.21875C7.35417 5.73958 6.72917 6 6 6C5.27083 6 4.64583 5.73958 4.125 5.21875C3.60417 4.69792 3.34375 4.07292 3.34375 3.34375C3.34375 2.59375 3.60417 1.95833 4.125 1.4375C4.64583 0.916667 5.27083 0.65625 6 0.65625ZM6 7.34375C6.95833 7.34375 7.84375 7.46875 8.65625 7.71875C9.48958 7.94792 10.1458 8.27083 10.625 8.6875C11.1042 9.08333 11.3438 9.52083 11.3438 10V11.3438H0.65625V10C0.65625 9.52083 0.895833 9.08333 1.375 8.6875C1.85417 8.27083 2.5 7.94792 3.3125 7.71875C4.14583 7.46875 5.04167 7.34375 6 7.34375Z" fill="currentColor"/>
  </symbol>

  <symbol viewBox="0 0 18 21" fill="none" id="user-issues">
    <path d="M15.9844 3H11.8125C11.5938 2.40625 11.2188 1.92188 10.6875 1.54688C10.1875 1.17188 9.625 0.984375 9 0.984375C8.375 0.984375 7.79688 1.17188 7.26562 1.54688C6.76562 1.92188 6.40625 2.40625 6.1875 3H2.01562C1.45312 3 0.96875 3.20312 0.5625 3.60938C0.1875 3.98438 0 4.45312 0 5.01562V18.9844C0 19.5469 0.1875 20.0312 0.5625 20.4375C0.96875 20.8125 1.45312 21 2.01562 21H15.9844C16.5469 21 17.0156 20.8125 17.3906 20.4375C17.7969 20.0312 18 19.5469 18 18.9844V5.01562C18 4.45312 17.7969 3.98438 17.3906 3.60938C17.0156 3.20312 16.5469 3 15.9844 3ZM3.98438 8.01562H6V12H5.01562V9H3.98438V8.01562ZM6.98438 17.0156V18H3.98438V17.0625L6 15H3.98438V14.0156H6.23438C6.45312 14.0156 6.625 14.0938 6.75 14.25C6.90625 14.375 6.98438 14.5469 6.98438 14.7656C6.98438 14.9531 6.92188 15.125 6.79688 15.2812L5.10938 17.0156H6.98438ZM8.01562 3.98438C8.01562 3.73438 8.10938 3.51562 8.29688 3.32812C8.48438 3.10937 8.71875 3 9 3C9.28125 3 9.51562 3.10937 9.70312 3.32812C9.89062 3.51562 9.98438 3.75 9.98438 4.03125C9.98438 4.28125 9.89062 4.51562 9.70312 4.73438C9.51562 4.92188 9.28125 5.01562 9 5.01562C8.71875 5.01562 8.48438 4.92188 8.29688 4.73438C8.10938 4.51562 8.01562 4.26562 8.01562 3.98438ZM14.0156 17.0156H9V15H14.0156V17.0156ZM14.0156 11.0156H9V9H14.0156V11.0156Z" fill="currentColor"/>
  </symbol>

  <symbol viewBox="0 0 19 22" fill="none" id="icon-documents">
    <path d="M3 0.015625C2.4375 0.015625 1.95312 0.21875 1.54688 0.625C1.17188 1 0.984375 1.45313 0.984375 1.98438V18.0156C0.984375 18.5469 1.17188 19 1.54688 19.375C1.95312 19.7812 2.4375 19.9844 3 19.9844H6.98438V18.1094L9.09375 16H3V13.9844H11.1094L13.0781 12.0156H3V10H15.0938L17.0156 8.07812V6.01562L11.0156 0.015625H3ZM9.98438 1.51562L15.5156 7H9.98438V1.51562ZM17.1562 10.9844C17 10.9844 16.8594 11.0469 16.7344 11.1719L15.75 12.2031L17.8125 14.2656L18.8438 13.2344C18.9375 13.1406 18.9844 13.0156 18.9844 12.8594C18.9844 12.7031 18.9375 12.5625 18.8438 12.4375L17.5312 11.1719C17.4375 11.0469 17.3125 10.9844 17.1562 10.9844ZM15.1406 12.7656L9 18.9062V21.0156H11.0625L17.25 14.8281L15.1406 12.7656Z" fill="currentColor"/>
  </symbol>

  <symbol viewBox="0 0 24 24" fill="none" id="icon-salary">
    <path d="M5.0625 5.19799L16.0734 3.04642C16.8094 2.89174 17.5688 3.12142 18.0984 3.65111C18.5156 4.0683 18.75 4.82299 18.75 5.41362V6.37455H5.29688C3.70312 6.37455 3 7.26518 3 7.26518C3 6.23393 4.21875 5.38549 5.0625 5.19799ZM5.0625 7.49999H18.9375C20.4891 7.49999 21.75 8.76093 21.75 10.3125V18.1875C21.75 19.7391 20.4891 21 18.9375 21H5.0625C3.51094 21 2.25 19.7391 2.25 18.1875V10.3125C2.25 8.76093 3.51094 7.49999 5.0625 7.49999Z" fill="currentColor"/>
  </symbol>

  <symbol viewBox="0 0 17 16" fill="none" id="icon-back">
    <path d="M16.0156 7.01562V8.98438H4.01562L9.5 14.5156L8.09375 15.9219L0.171875 8L8.09375 0.078125L9.5 1.48438L4.01562 7.01562H16.0156Z" fill="currentColor"/>
  </symbol>

  <symbol width="18" height="12" viewBox="0 0 18 12" fill="none" id="icon-eye-hide">
    <path d="M9 3.5C8.36719 3.5 7.82812 3.72266 7.38281 4.16797C6.96094 4.58984 6.75 5.11719 6.75 5.75C6.75 6.38281 6.96094 6.92188 7.38281 7.36719C7.82812 7.78906 8.36719 8 9 8C9.63281 8 10.1602 7.78906 10.582 7.36719C11.0273 6.92188 11.25 6.38281 11.25 5.75C11.25 5.11719 11.0273 4.58984 10.582 4.16797C10.1602 3.72266 9.63281 3.5 9 3.5ZM9 9.51172C8.32031 9.51172 7.6875 9.34766 7.10156 9.01953C6.53906 8.66797 6.08203 8.21094 5.73047 7.64844C5.40234 7.0625 5.23828 6.42969 5.23828 5.75C5.23828 5.07031 5.40234 4.44922 5.73047 3.88672C6.08203 3.30078 6.53906 2.84375 7.10156 2.51562C7.6875 2.16406 8.32031 1.98828 9 1.98828C9.67969 1.98828 10.3008 2.16406 10.8633 2.51562C11.4492 2.84375 11.9062 3.30078 12.2344 3.88672C12.5859 4.44922 12.7617 5.07031 12.7617 5.75C12.7617 6.42969 12.5859 7.0625 12.2344 7.64844C11.9062 8.21094 11.4492 8.66797 10.8633 9.01953C10.3008 9.34766 9.67969 9.51172 9 9.51172ZM9 0.125C7.14844 0.125 5.47266 0.652344 3.97266 1.70703C2.47266 2.73828 1.39453 4.08594 0.738281 5.75C1.39453 7.41406 2.47266 8.77344 3.97266 9.82812C5.47266 10.8594 7.14844 11.375 9 11.375C10.8516 11.375 12.5273 10.8594 14.0273 9.82812C15.5273 8.77344 16.6055 7.41406 17.2617 5.75C16.6055 4.08594 15.5273 2.73828 14.0273 1.70703C12.5273 0.652344 10.8516 0.125 9 0.125Z" fill="#3880FF"/>
  </symbol>

  <symbol width="18" height="15" viewBox="0 0 18 15" fill="none" id="icon-eye-show">
    <path d="M8.85938 4.5L11.25 6.85547V6.75C11.25 6.11719 11.0273 5.58984 10.582 5.16797C10.1602 4.72266 9.63281 4.5 9 4.5H8.85938ZM5.66016 5.09766L6.82031 6.25781C6.77344 6.42188 6.75 6.58594 6.75 6.75C6.75 7.38281 6.96094 7.92188 7.38281 8.36719C7.82812 8.78906 8.36719 9 9 9C9.16406 9 9.32812 8.97656 9.49219 8.92969L10.6523 10.0898C10.1133 10.3711 9.5625 10.5117 9 10.5117C8.32031 10.5117 7.6875 10.3477 7.10156 10.0195C6.53906 9.66797 6.08203 9.21094 5.73047 8.64844C5.40234 8.0625 5.23828 7.42969 5.23828 6.75C5.23828 6.1875 5.37891 5.63672 5.66016 5.09766ZM1.51172 0.949219L3.19922 2.67188L3.55078 2.98828C2.26172 4.01953 1.32422 5.27344 0.738281 6.75C1.39453 8.41406 2.47266 9.77344 3.97266 10.8281C5.47266 11.8594 7.14844 12.375 9 12.375C10.1484 12.375 11.2383 12.1641 12.2695 11.7422L14.8008 14.2383L15.75 13.2891L2.46094 0L1.51172 0.949219ZM9 2.98828C9.67969 2.98828 10.3008 3.16406 10.8633 3.51562C11.4492 3.84375 11.9062 4.30078 12.2344 4.88672C12.5859 5.44922 12.7617 6.07031 12.7617 6.75C12.7617 7.21875 12.668 7.67578 12.4805 8.12109L14.6602 10.3008C15.832 9.33984 16.6992 8.15625 17.2617 6.75C16.6055 5.08594 15.5273 3.73828 14.0273 2.70703C12.5273 1.65234 10.8516 1.125 9 1.125C7.96875 1.125 6.97266 1.30078 6.01172 1.65234L7.62891 3.26953C8.07422 3.08203 8.53125 2.98828 9 2.98828Z" fill="#3880FF"/>
  </symbol>
  <symbol viewBox="0 0 22 20" fill="none" id="icon-issues">
    <path d="M0.015625 11.0156H6.01562V17.0156H0.015625V11.0156ZM13.9844 5.01562H7.98438V6.98438H13.9844V5.01562ZM0.015625 6.98438H6.01562V0.984375H0.015625V6.98438ZM7.98438 0.984375V3H19.9844V0.984375H7.98438ZM7.98438 17.0156H13.9844V15H7.98438V17.0156ZM7.98438 12.9844H19.9844V11.0156H7.98438V12.9844Z" fill="#A9B0BC"/>
  </symbol>

  <symbol viewBox="0 0 9 18" fill="none" id="icon-crunch">
    <path d="M7.375 4.75V13.3633C7.375 14.207 7.08203 14.9219 6.49609 15.5078C5.91016 16.0938 5.19531 16.3867 4.35156 16.3867C3.53125 16.3867 2.82812 16.0938 2.24219 15.5078C1.65625 14.9219 1.36328 14.207 1.36328 13.3633V4.01172C1.36328 3.49609 1.55078 3.05078 1.92578 2.67578C2.30078 2.30078 2.74609 2.11328 3.26172 2.11328C3.77734 2.11328 4.21094 2.30078 4.5625 2.67578C4.9375 3.05078 5.125 3.49609 5.125 4.01172V11.8867C5.125 12.0977 5.05469 12.2734 4.91406 12.4141C4.77344 12.5547 4.59766 12.625 4.38672 12.625C4.17578 12.625 3.98828 12.5547 3.82422 12.4141C3.68359 12.2734 3.61328 12.0977 3.61328 11.8867V4.75H2.48828V11.8867C2.48828 12.4023 2.67578 12.8477 3.05078 13.2227C3.42578 13.5742 3.87109 13.75 4.38672 13.75C4.90234 13.75 5.33594 13.5742 5.6875 13.2227C6.0625 12.8477 6.25 12.4023 6.25 11.8867V4.01172C6.25 3.16797 5.95703 2.45313 5.37109 1.86719C4.78516 1.28125 4.07031 0.988281 3.22656 0.988281C2.40625 0.988281 1.70312 1.28125 1.11719 1.86719C0.53125 2.45313 0.238281 3.16797 0.238281 4.01172V13.3633C0.238281 13.9258 0.34375 14.4648 0.554688 14.9805C0.765625 15.4727 1.05859 15.9062 1.43359 16.2812C1.83203 16.6797 2.27734 16.9844 2.76953 17.1953C3.28516 17.4062 3.82422 17.5117 4.38672 17.5117C5.13672 17.5117 5.81641 17.3242 6.42578 16.9492C7.05859 16.5742 7.5625 16.0703 7.9375 15.4375C8.3125 14.8047 8.5 14.1133 8.5 13.3633V4.75H7.375Z" fill="#252F3F"/>
  </symbol>

  <symbol width="20" height="19" viewBox="0 0 20 19" fill="none" id="icon-add">
    <path d="M14.5977 10.6523H10.9023V14.3477H9.09766V10.6523H5.40234V8.84766H9.09766V5.15234H10.9023V8.84766H14.5977V10.6523ZM10 0.597656C8.79688 0.597656 7.6224 0.826823 6.47656 1.28516C5.35938 1.74349 4.37109 2.40234 3.51172 3.26172C2.65234 4.12109 1.99349 5.1237 1.53516 6.26953C1.07682 7.38672 0.847656 8.54688 0.847656 9.75C0.847656 10.9531 1.07682 12.1276 1.53516 13.2734C1.99349 14.3906 2.65234 15.3789 3.51172 16.2383C4.37109 17.0977 5.35938 17.7565 6.47656 18.2148C7.6224 18.6732 8.79688 18.9023 10 18.9023C11.2031 18.9023 12.3633 18.6732 13.4805 18.2148C14.6263 17.7565 15.6289 17.0977 16.4883 16.2383C17.3477 15.3789 18.0065 14.3906 18.4648 13.2734C18.9232 12.1276 19.1523 10.9531 19.1523 9.75C19.1523 8.54688 18.9232 7.38672 18.4648 6.26953C18.0065 5.1237 17.3477 4.12109 16.4883 3.26172C15.6289 2.40234 14.6263 1.74349 13.4805 1.28516C12.3633 0.826823 11.2031 0.597656 10 0.597656Z" fill="white"/>
  </symbol>

  <symbol width="20" height="19" viewBox="0 0 20 19" fill="none" id="icon-grade">
    <path d="M0 0h24v24H0z" fill="none"/>
    <path d="M12 17.27L18.18 21l-1.64-7.03L22 9.24l-7.19-.61L12 2 9.19 8.63 2 9.24l5.46 4.73L5.82 21z" fill="rgb(152, 154, 162" />
  </symbol>

  <symbol width="24" height="24" viewBox="0 0 24 24" fill="none" xmlns="http://www.w3.org/2000/svg" id="icon-airplane">
    <path d="M19.111 10.5C18.9516 10.5 18.4172 10.5047 18.2672 10.5141L15.225 10.5938C15.1922 10.5938 15.1594 10.5797 15.1454 10.5516L10.5844 3.72188C10.4485 3.50625 10.2047 3.375 9.9516 3.375H8.84066C8.57816 3.375 8.4891 3.6375 8.58285 3.88125L10.9313 10.575C10.9547 10.6359 10.9125 10.7016 10.8469 10.7016L5.10941 10.7859C4.98754 10.7906 4.87504 10.7344 4.80004 10.6406L3.06566 8.53125C2.92504 8.34844 2.70473 8.24531 2.47504 8.24531H1.68754C1.55629 8.24531 1.46723 8.37187 1.50941 8.49375L2.44223 11.7141C2.51254 11.8922 2.51254 12.0938 2.44223 12.2719L1.50941 15.4922C1.46723 15.6141 1.55629 15.7406 1.68754 15.7406H2.47035C2.70004 15.7406 2.92035 15.6328 3.06098 15.4547L4.82816 13.3125C4.90316 13.2188 5.02035 13.1625 5.13754 13.1672L10.8422 13.2938C10.9079 13.2984 10.95 13.3594 10.9266 13.4203L8.57816 20.1188C8.48441 20.3625 8.57348 20.625 8.83598 20.625H9.94691C10.2047 20.625 10.4438 20.4937 10.5797 20.2781L15.1454 13.4531C15.1641 13.425 15.1922 13.4109 15.225 13.4109L18.2672 13.4906C18.4219 13.5 18.9516 13.5047 19.111 13.5047C21.1875 13.5047 22.5 12.8344 22.5 12.0047C22.5 11.175 21.1922 10.5 19.111 10.5Z" fill="#A9B0BC"/>
    <mask id="mask0" mask-type="alpha" maskUnits="userSpaceOnUse" x="1" y="3" width="22" height="18">
      <path d="M19.111 10.5C18.9516 10.5 18.4172 10.5047 18.2672 10.5141L15.225 10.5938C15.1922 10.5938 15.1594 10.5797 15.1454 10.5516L10.5844 3.72188C10.4485 3.50625 10.2047 3.375 9.9516 3.375H8.84066C8.57816 3.375 8.4891 3.6375 8.58285 3.88125L10.9313 10.575C10.9547 10.6359 10.9125 10.7016 10.8469 10.7016L5.10941 10.7859C4.98754 10.7906 4.87504 10.7344 4.80004 10.6406L3.06566 8.53125C2.92504 8.34844 2.70473 8.24531 2.47504 8.24531H1.68754C1.55629 8.24531 1.46723 8.37187 1.50941 8.49375L2.44223 11.7141C2.51254 11.8922 2.51254 12.0938 2.44223 12.2719L1.50941 15.4922C1.46723 15.6141 1.55629 15.7406 1.68754 15.7406H2.47035C2.70004 15.7406 2.92035 15.6328 3.06098 15.4547L4.82816 13.3125C4.90316 13.2188 5.02035 13.1625 5.13754 13.1672L10.8422 13.2938C10.9079 13.2984 10.95 13.3594 10.9266 13.4203L8.57816 20.1188C8.48441 20.3625 8.57348 20.625 8.83598 20.625H9.94691C10.2047 20.625 10.4438 20.4937 10.5797 20.2781L15.1454 13.4531C15.1641 13.425 15.1922 13.4109 15.225 13.4109L18.2672 13.4906C18.4219 13.5 18.9516 13.5047 19.111 13.5047C21.1875 13.5047 22.5 12.8344 22.5 12.0047C22.5 11.175 21.1922 10.5 19.111 10.5Z" fill="white"/>
    </mask>
    <g mask="url(#mask0)">
    </g>
  </symbol>

  <symbol width="9" height="21" viewBox="0 0 9 21" fill="none" xmlns="http://www.w3.org/2000/svg" id="icon-sick">
    <path fill-rule="evenodd" clip-rule="evenodd" d="M6.69844 12.1641C6.69844 12.4078 6.82031 12.6375 7.02188 12.7781C8.20312 13.5844 9 14.9531 9 16.4953C9 18.9797 6.98438 20.9953 4.5 20.9953C2.01562 20.9953 0 18.9797 0 16.4953C0 14.9531 0.7875 13.5891 1.96875 12.7781C2.17031 12.6422 2.29219 12.4078 2.29219 12.1641V2.17969C2.29219 0.975 3.27656 0 4.49531 0C5.71406 0 6.69844 0.975 6.69844 2.17969V12.1641ZM1.78125 16.6029C1.78125 18.1264 3.00469 19.3592 4.50469 19.3592C6.00937 19.3592 7.21875 18.1217 7.21875 16.5982C7.21875 15.4123 6.44531 14.3951 5.41875 14.0107C5.26875 13.9545 5.17031 13.8186 5.17031 13.6592V6.94669C5.17031 6.57169 4.86562 6.267 4.49062 6.267C4.11562 6.267 3.81094 6.57169 3.81094 6.94669V13.6592C3.81094 13.8186 3.70781 13.9545 3.55781 14.0107C2.50313 14.3951 1.78125 15.4123 1.78125 16.6029Z" fill="white"/>
  </symbol>

  <symbol width="18" height="20" viewBox="0 0 18 20" fill="none" xmlns="http://www.w3.org/2000/svg" id="icon-vacation">
    <path d="M9 7C9.46875 9.25 9.53125 11.5 9.1875 13.75C8.9375 15.3438 8.5 16.875 7.875 18.3438C7.5625 19.0625 7.26562 19.6094 6.98438 19.9844H9.98438C10.8281 17.4844 11.2188 15.0312 11.1562 12.625C11.125 11.1875 10.9062 9.64062 10.5 7.98438L9 7ZM12.6562 5.17188C12.875 5.42188 13.0312 5.64062 13.125 5.82812C13.9688 7.17188 14.3281 8.625 14.2031 10.1875C14.0781 11.75 13.5156 13.1094 12.5156 14.2656C12.9219 13.2031 13.0781 12.1094 12.9844 10.9844C12.9219 9.82812 12.5781 8.75 11.9531 7.75L11.7188 7.42188C11.125 6.60938 10.4062 5.95312 9.5625 5.45312C8.09375 5.89062 6.89062 6.73438 5.95312 7.98438C5.04688 9.23438 4.59375 10.6406 4.59375 12.2031C4.59375 12.9531 4.6875 13.6562 4.875 14.3125C4 13.0938 3.5625 11.7188 3.5625 10.1875C3.5625 9.03125 3.8125 7.95312 4.3125 6.95312C4.84375 5.95312 5.5625 5.125 6.46875 4.46875C4.875 4.34375 3.42188 4.6875 2.10938 5.5C1.48438 5.90625 0.953125 6.375 0.515625 6.90625C1.07812 5.5 2 4.39062 3.28125 3.57812C4.78125 2.64062 6.40625 2.29688 8.15625 2.54688C7.71875 1.95312 7.20312 1.4375 6.60938 1C6.04688 0.5625 5.4375 0.234375 4.78125 0.015625C6.3125 0.046875 7.67188 0.515625 8.85938 1.42188C9.45312 1.85938 9.96875 2.40625 10.4062 3.0625H10.6875C12.2812 3.0625 13.7031 3.53125 14.9531 4.46875C16.2031 5.40625 17.0469 6.60938 17.4844 8.07812C16.9219 7.29688 16.2188 6.65625 15.375 6.15625C14.5625 5.625 13.6562 5.29688 12.6562 5.17188Z" fill="white"/>
  </symbol>

  <symbol width="26" height="16" viewBox="0 0 26 16" fill="none" xmlns="http://www.w3.org/2000/svg" id="icon-money">
    <path d="M18 0C20.6762 1.70389 22.4492 4.65327 22.4492 8C22.4492 11.3467 20.6762 14.2961 18 16C22.4287 15.9004 26 12.3501 26 8C26 3.64991 22.4287 0.0996188 18 0Z" fill="white"/>
    <path d="M13 0C15.6762 1.70389 17.4492 4.65327 17.4492 8C17.4492 11.3467 15.6762 14.2961 13 16C17.4287 15.9004 21 12.3501 21 8C21 3.64991 17.4287 0.0996188 13 0Z" fill="white"/>
    <path fill-rule="evenodd" clip-rule="evenodd" d="M8 16C12.4183 16 16 12.4183 16 8C16 3.58172 12.4183 0 8 0C3.58172 0 0 3.58172 0 8C0 12.4183 3.58172 16 8 16ZM7.69625 11.7767H9.58751V10.1452H7.69625V9.81288H9.02558C10.089 9.81288 10.933 9.55708 11.5574 9.04548C12.1858 8.53389 12.5 7.837 12.5 6.95481C12.5 6.3828 12.357 5.87116 12.071 5.41998C11.785 4.96483 11.3801 4.61434 10.8565 4.36862C10.3368 4.12291 9.74061 4 9.06786 4H5.5753V8.17539H4.37286V9.81288H5.5753V10.1452H4.37286V11.7767H5.5753V12.7979H7.69625V11.7767ZM7.69625 8.17539H8.99534C9.89769 8.17539 10.3489 7.77255 10.3489 6.96686C10.3489 6.57212 10.2361 6.25389 10.0105 6.01216C9.78491 5.77047 9.47675 5.64761 9.086 5.64358H7.69625V8.17539Z" fill="white"/>
  </symbol>

  <symbol width="19" height="22" viewBox="0 0 19 22" fill="none" xmlns="http://www.w3.org/2000/svg" id="icon-sign">
    <path d="M3 0.015625C2.4375 0.015625 1.95312 0.21875 1.54688 0.625C1.17188 1 0.984375 1.45313 0.984375 1.98438V18.0156C0.984375 18.5469 1.17188 19 1.54688 19.375C1.95312 19.7812 2.4375 19.9844 3 19.9844H6.98438V18.1094L9.09375 16H3V13.9844H11.1094L13.0781 12.0156H3V10H15.0938L17.0156 8.07812V6.01562L11.0156 0.015625H3ZM9.98438 1.51562L15.5156 7H9.98438V1.51562ZM17.1562 10.9844C17 10.9844 16.8594 11.0469 16.7344 11.1719L15.75 12.2031L17.8125 14.2656L18.8438 13.2344C18.9375 13.1406 18.9844 13.0156 18.9844 12.8594C18.9844 12.7031 18.9375 12.5625 18.8438 12.4375L17.5312 11.1719C17.4375 11.0469 17.3125 10.9844 17.1562 10.9844ZM15.1406 12.7656L9 18.9062V21.0156H11.0625L17.25 14.8281L15.1406 12.7656Z" fill="white"/>
  </symbol>

  <symbol height="24px" viewBox="0 0 24 24" width="24px" fill="none" id="icon-text_snippet">
      <rect fill="none" height="24" width="24"/>
      <path fill="white" d="M20.41,8.41l-4.83-4.83C15.21,3.21,14.7,3,14.17,3H5C3.9,3,3,3.9,3,5v14c0,1.1,0.9,2,2,2h14c1.1,0,2-0.9,2-2V9.83 C21,9.3,20.79,8.79,20.41,8.41z M7,7h7v2H7V7z M17,17H7v-2h10V17z M17,13H7v-2h10V13z"/>
  </symbol>

</svg>

