<svg width="32" height="32" viewBox="0 0 32 32" fill="none" xmlns="http://www.w3.org/2000/svg">
<rect width="32" height="32" rx="16" fill="#3880FF" fill-opacity="0.2"/>
<mask id="mask0_9756_105341" style="mask-type:alpha" maskUnits="userSpaceOnUse" x="7" y="7" width="18" height="18">
<rect x="7" y="7" width="18" height="18" fill="#D9D9D9"/>
</mask>
<g mask="url(#mask0_9756_105341)">
<path d="M16 19C16.9375 19 17.7345 18.672 18.391 18.016C19.047 17.3595 19.375 16.5625 19.375 15.625C19.375 14.6875 19.047 13.8905 18.391 13.234C17.7345 12.578 16.9375 12.25 16 12.25C15.0625 12.25 14.2655 12.578 13.609 13.234C12.953 13.8905 12.625 14.6875 12.625 15.625C12.625 16.5625 12.953 17.3595 13.609 18.016C14.2655 18.672 15.0625 19 16 19ZM16 17.65C15.4375 17.65 14.9595 17.453 14.566 17.059C14.172 16.6655 13.975 16.1875 13.975 15.625C13.975 15.0625 14.172 14.5842 14.566 14.1902C14.9595 13.7967 15.4375 13.6 16 13.6C16.5625 13.6 17.0408 13.7967 17.4348 14.1902C17.8283 14.5842 18.025 15.0625 18.025 15.625C18.025 16.1875 17.8283 16.6655 17.4348 17.059C17.0408 17.453 16.5625 17.65 16 17.65ZM16 21.25C14.175 21.25 12.5125 20.7405 11.0125 19.7215C9.5125 18.703 8.425 17.3375 7.75 15.625C8.425 13.9125 9.5125 12.5468 11.0125 11.5278C12.5125 10.5093 14.175 10 16 10C17.825 10 19.4875 10.5093 20.9875 11.5278C22.4875 12.5468 23.575 13.9125 24.25 15.625C23.575 17.3375 22.4875 18.703 20.9875 19.7215C19.4875 20.7405 17.825 21.25 16 21.25Z" fill="#3880FF"/>
</g>
</svg>
