<svg viewBox="0 0 162 40" fill="none" id="icon-logo-wa-text">
  <path d="M24.9419 0.282173L20.2108 22.0674H14.9474L13.4922 14.1199C13.1281 12.0907 12.8205 9.86416 12.5405 7.24318H12.4842C12.0929 9.83599 11.7569 12.0344 11.3083 14.1482L9.65685 22.0674H4.45038L0 0.282173H5.23464L6.46627 8.79334C6.83052 11.3297 7.13763 14.0349 7.44592 16.4309H7.50188C7.83759 13.9225 8.34108 11.3864 8.81765 8.7368L10.3848 0.282173H15.1437L16.5989 8.90602C17.0195 11.4147 17.3545 13.7541 17.6353 16.3743H17.7188C17.9996 13.7541 18.3347 11.3015 18.7272 8.7368L20.015 0.282173H24.9419Z" fill="#54606A"/>
  <path d="M27.3477 0.282173H32.274V22.0674H27.3477V0.282173Z" fill="#54606A"/>
  <path d="M47.1341 5.04521C46.3499 4.65032 45.0623 4.14295 43.327 4.14295C41.4237 4.14295 40.5006 5.07277 40.5006 6.14399C40.5006 7.35643 41.3958 7.94785 44.0267 9.15946C47.47 10.7093 48.8977 12.8517 48.8977 15.557C48.8977 19.5311 45.9023 22.3486 40.6678 22.3486C38.4845 22.3486 36.329 21.7853 35.3203 21.2215L36.1611 17.0507C37.3086 17.6421 39.1283 18.1782 40.8637 18.1782C42.9357 18.1782 43.9428 17.276 43.9428 15.9797C43.9428 14.6552 42.9627 13.9223 40.7238 12.9082C37.3086 11.3295 35.5453 9.18763 35.5453 6.59518C35.5453 2.90296 38.3446 0.000127471 43.3549 0.000127471C45.4263 0.000127471 47.0225 0.450947 48.0575 0.958263L47.1341 5.04521Z" fill="#54606A"/>
  <path d="M64.0704 22.0674H51.7812V0.282173H63.6504V4.42562H56.7077V8.79334H63.2873V12.8519H56.7077V17.9246H64.0704V22.0674Z" fill="#54606A"/>
  <path d="M76.1341 13.2462L75.1832 8.87842C74.9034 7.58173 74.5392 5.63682 74.2589 4.31211H74.2041C73.9233 5.63682 73.5591 7.63786 73.308 8.87842L72.3279 13.2462H76.1341ZM83.0774 22.0674H77.9822L76.7228 16.9947H71.7397L70.5642 22.0674H65.582L71.2916 0.282173H77.5346L83.0774 22.0674Z" fill="#54606A"/>
  <path d="M90.6024 18.2624C90.9104 18.3192 91.3855 18.3192 91.7774 18.3192C94.9974 18.3471 97.292 16.1771 97.292 10.7945C97.292 6.25653 95.2199 4.00248 92.1139 4.00248C91.4137 4.00248 90.938 4.0584 90.6024 4.14307V18.2624ZM85.7031 0.592272C87.1875 0.338382 89.2305 0.141658 91.3855 0.141658C94.9682 0.141658 97.3202 0.845957 99.1391 2.2835C101.239 4.00248 102.443 6.76431 102.443 10.7663C102.443 15.4165 100.847 18.2624 99.0552 19.8126C97.1242 21.4749 94.1851 22.2646 90.4336 22.2646C88.3344 22.2646 86.7389 22.0953 85.7031 21.9546V0.592272Z" fill="#54606A"/>
  <path d="M121.478 0.282173L115.263 22.0674H109.581L103.562 0.310294H108.993L111.037 9.38496C111.597 11.8376 112.128 14.3456 112.549 16.966H112.632C113.025 14.3736 113.556 11.8376 114.116 9.38496L116.16 0.282173H121.478Z" fill="#54606A"/>
  <path d="M162 22.0674H149.711V0.282173H161.581V4.42562H154.638V8.79334H161.216V12.8519H154.638V17.9246H162V22.0674Z" fill="#54606A"/>
  <path d="M126.25 0.282173H123.52V22.0674H126.25V0.282173Z" fill="#C11E25"/>
  <path d="M127.562 0.282173V22.0674H130.293V0.282173H127.562Z" fill="#C11E25"/>
  <path fill-rule="evenodd" clip-rule="evenodd" d="M147.042 18.8566L142.392 18.8315L142.012 18.7892L141.636 18.7289L141.26 18.6559L140.888 18.5654L140.526 18.4613L140.161 18.338L139.805 18.2002L139.454 18.0461L139.113 17.8802L138.784 17.6919L138.46 17.4965L138.142 17.2831L137.837 17.0511L137.543 16.8111L137.266 16.5496L136.994 16.2766L136.741 15.9926L136.497 15.6926L136.269 15.3771L136.063 15.0495L135.865 14.7055L135.693 14.3501L135.532 13.9829L135.395 13.5993L135.273 13.206L135.172 12.7944L135.095 12.3772L135.034 11.9441L134.996 11.4993L134.99 11.0403L134.996 10.5846L135.027 10.1382L135.083 9.71357L135.159 9.29113L135.255 8.88516L135.371 8.49366L135.506 8.11067L135.662 7.74554L135.835 7.38845L136.023 7.0501L136.23 6.7238L136.453 6.40837L136.692 6.10803L136.943 5.82438L137.207 5.55143L137.483 5.28786L137.777 5.04468L138.079 4.81536L138.392 4.60452L138.716 4.39894L139.05 4.21122L139.392 4.04488L139.746 3.89018L140.102 3.74732L140.466 3.61919L140.839 3.51501L141.215 3.42164L141.595 3.34378L141.981 3.2778L142.369 3.23398L147.037 3.20741H147.042V0.326509L146.857 0.330322L142.022 0.368945L141.466 0.434297L140.919 0.522822L140.383 0.637872L139.858 0.77872L139.342 0.937235L138.841 1.12531L138.351 1.3279L137.877 1.56027L137.412 1.80808L136.963 2.08169L136.531 2.37616L136.115 2.68335L135.713 3.01511L135.329 3.36391L134.966 3.73146L134.621 4.11466L134.289 4.51641L133.984 4.93345L133.699 5.36877L133.435 5.81696L133.191 6.27844L132.971 6.76263L132.772 7.2529L132.599 7.75903L132.454 8.28046L132.332 8.80853L132.231 9.35066L132.161 9.90123L132.118 10.4663L132.109 11.0403L132.122 11.6132L132.163 12.1791L132.241 12.7321L132.342 13.2704L132.472 13.8005L132.624 14.3185L132.808 14.827L133.01 15.3173L133.241 15.7949L133.495 16.261L133.766 16.7092L134.061 17.1397L134.377 17.5561L134.711 17.955L135.072 18.338L135.439 18.7057L135.83 19.0524L136.235 19.3817L136.655 19.6891L137.091 19.9807L137.541 20.2519L138.004 20.5013L138.481 20.7317L138.965 20.9341L139.461 21.1193L139.97 21.2815L140.481 21.4167L141.007 21.5312L141.535 21.6201L142.072 21.6875L146.886 21.7237L147.042 21.7285V18.8566Z" fill="#C11E25"/>
  <path fill-rule="evenodd" clip-rule="evenodd" d="M146.87 14.3092H146.866L142.412 14.2856L142.234 14.2514L142.061 14.215L141.89 14.1662L141.721 14.1165L141.558 14.0531L141.397 13.9912L141.244 13.9157L141.1 13.835L140.952 13.751L140.815 13.6594L140.682 13.5635L140.553 13.4569L140.434 13.3504L140.315 13.2325L140.211 13.1151L140.108 12.9879L140.015 12.8521L139.926 12.7144L139.844 12.5703L139.766 12.4216L139.698 12.2658L139.644 12.109L139.596 11.9445L139.554 11.7729L139.522 11.5985L139.5 11.416L139.484 11.2279L139.481 11.0406L139.484 10.8499L139.5 10.6651L139.522 10.488L139.554 10.308L139.596 10.1386L139.644 9.97462L139.698 9.81791L139.766 9.6596L139.844 9.51298L139.926 9.37013L140.015 9.22933L140.108 9.09656L140.211 8.97322L140.315 8.84911L140.434 8.73123L140.553 8.61979L140.682 8.52302L140.815 8.42384L140.952 8.33212L141.1 8.24421L141.244 8.16336L141.397 8.09512L141.558 8.02714L141.721 7.96761L141.89 7.91508L142.061 7.87424L142.234 7.83263L142.412 7.80121L146.866 7.77269L146.87 7.77186V4.89055L146.752 4.89962L142.146 4.94061L141.817 4.99576L141.496 5.06637L141.184 5.15489L140.88 5.25707L140.581 5.36913L140.289 5.49345L140.006 5.63708L139.733 5.78874L139.463 5.95251L139.207 6.13255L138.963 6.31743L138.726 6.51333L138.501 6.72417L138.285 6.94082L138.078 7.16958L137.886 7.40694L137.706 7.64996L137.535 7.90524L137.379 8.16336L137.237 8.43372L137.107 8.70832L136.991 8.99171L136.887 9.27619L136.801 9.5683L136.729 9.86719L136.671 10.165L136.63 10.4723L136.607 10.7793L136.598 11.0931L136.607 11.416L136.63 11.7337L136.67 12.0497L136.729 12.3544L136.799 12.6566L136.883 12.9455L136.977 13.2325L137.094 13.5144L137.219 13.7878L137.358 14.0531L137.504 14.3092L137.671 14.5564L137.845 14.7988L138.028 15.0284L138.226 15.2527L138.431 15.4615L138.651 15.6625L138.872 15.8548L139.108 16.0322L139.352 16.2012L139.603 16.3573L139.865 16.5013L140.129 16.6337L140.4 16.754L140.682 16.8638L140.967 16.9571L141.259 17.0384L141.555 17.1008L141.852 17.1531L142.16 17.1897L146.746 17.2106L146.87 17.2139V14.3092Z" fill="#C11E25"/>
  <path d="M28.3331 38.9996L27.7893 37.2324H25.0545L24.5106 38.9996H22.7969L25.4444 31.5449H27.389L30.0469 38.9996H28.3331ZM27.4096 35.9121C26.9067 34.3108 26.6228 33.4052 26.5578 33.1953C26.4963 32.9854 26.4518 32.8195 26.4244 32.6977C26.3115 33.131 25.9883 34.2025 25.4547 35.9121H27.4096Z" fill="#9FABB5"/>
  <path d="M37.4374 31.5754L35.1182 36.8262C34.8275 37.4863 34.5538 37.9603 34.2973 38.248C34.0442 38.5358 33.7432 38.7508 33.3943 38.893C33.0454 39.0318 32.6212 39.1012 32.1218 39.1012C31.6942 39.1012 31.2957 39.0504 30.9263 38.9488V37.598C31.2273 37.7199 31.6019 37.7809 32.05 37.7809C32.3339 37.7809 32.5631 37.7165 32.7375 37.5879C32.912 37.4559 33.0573 37.229 33.1736 36.9074L30.5774 31.5754H32.2603L34.1075 35.7141H34.1588L34.2511 35.4602L35.8007 31.5754H37.4374Z" fill="#9FABB5"/>
  <path d="M41.8059 38.9996H40.2153V32.8855H38.1783V31.5754H43.8429V32.8855H41.8059V38.9996Z" fill="#9FABB5"/>
  <path d="M48.709 32.7789C48.1104 32.7789 47.6469 33.0023 47.3185 33.4492C46.9902 33.8927 46.826 34.5122 46.826 35.3078C46.826 36.9633 47.4536 37.791 48.709 37.791C49.2358 37.791 49.8737 37.6607 50.6228 37.4V38.7203C50.0071 38.9742 49.3196 39.1012 48.5602 39.1012C47.469 39.1012 46.6344 38.7745 46.0563 38.1211C45.4782 37.4643 45.1892 36.5232 45.1892 35.2977C45.1892 34.5258 45.3312 33.8504 45.6151 33.2715C45.899 32.6892 46.306 32.244 46.8362 31.9359C47.3698 31.6245 47.9941 31.4688 48.709 31.4688C49.4376 31.4688 50.1696 31.6431 50.905 31.9918L50.3919 33.2715C50.1115 33.1395 49.8293 33.0243 49.5453 32.9262C49.2614 32.828 48.9827 32.7789 48.709 32.7789Z" fill="#9FABB5"/>
  <path d="M59.5578 35.2773C59.5578 36.5063 59.25 37.4508 58.6342 38.1109C58.0185 38.7711 57.136 39.1012 55.9867 39.1012C54.8374 39.1012 53.9549 38.7711 53.3391 38.1109C52.7234 37.4508 52.4156 36.5029 52.4156 35.2672C52.4156 34.0315 52.7234 33.0887 53.3391 32.4387C53.9583 31.7853 54.8442 31.4586 55.997 31.4586C57.1497 31.4586 58.0305 31.787 58.6394 32.4438C59.2517 33.1005 59.5578 34.0451 59.5578 35.2773ZM54.0831 35.2773C54.0831 36.1068 54.2422 36.7314 54.5603 37.1512C54.8784 37.571 55.3539 37.7809 55.9867 37.7809C57.2557 37.7809 57.8903 36.9464 57.8903 35.2773C57.8903 33.6049 57.2592 32.7688 55.997 32.7688C55.3641 32.7688 54.887 32.9803 54.5654 33.4035C54.2439 33.8233 54.0831 34.4479 54.0831 35.2773Z" fill="#9FABB5"/>
  <path d="M63.2285 35.0691H63.7518C64.241 35.0691 64.607 34.9743 64.8498 34.7848C65.0927 34.5918 65.2141 34.3125 65.2141 33.9469C65.2141 33.5779 65.1115 33.3053 64.9063 33.1293C64.7045 32.9533 64.3863 32.8652 63.9519 32.8652H63.2285V35.0691ZM66.8201 33.891C66.8201 34.69 66.567 35.301 66.0607 35.7242C65.5579 36.1474 64.8413 36.359 63.9109 36.359H63.2285V38.9996H61.6379V31.5754H64.034C64.9439 31.5754 65.6349 31.7701 66.1069 32.1594C66.5824 32.5453 66.8201 33.1225 66.8201 33.891Z" fill="#9FABB5"/>
  <path d="M71.9479 32.7789C71.3493 32.7789 70.8858 33.0023 70.5575 33.4492C70.2291 33.8927 70.0649 34.5122 70.0649 35.3078C70.0649 36.9633 70.6926 37.791 71.9479 37.791C72.4747 37.791 73.1127 37.6607 73.8618 37.4V38.7203C73.2461 38.9742 72.5585 39.1012 71.7991 39.1012C70.708 39.1012 69.8733 38.7745 69.2953 38.1211C68.7172 37.4643 68.4281 36.5232 68.4281 35.2977C68.4281 34.5258 68.5701 33.8504 68.854 33.2715C69.1379 32.6892 69.545 32.244 70.0751 31.9359C70.6088 31.6245 71.233 31.4688 71.9479 31.4688C72.6765 31.4688 73.4085 31.6431 74.144 31.9918L73.6309 33.2715C73.3504 33.1395 73.0682 33.0243 72.7843 32.9262C72.5004 32.828 72.2216 32.7789 71.9479 32.7789Z" fill="#9FABB5"/>
  <path d="M75.988 31.5754H77.4195V35.1605L77.399 36.1203L77.3477 37.2121H77.3785L80.8419 31.5754H82.7454V38.9996H81.3293V35.4348C81.3293 34.9574 81.3601 34.2499 81.4216 33.3121H81.3806L77.9018 38.9996H75.988V31.5754Z" fill="#9FABB5"/>
  <path d="M91.311 38.9996H89.7255V35.7953H86.7547V38.9996H85.1641V31.5754H86.7547V34.4852H89.7255V31.5754H91.311V38.9996Z" fill="#9FABB5"/>
  <path d="M98.4758 31.5754V32.8754H95.3254V38.9996H93.7348V31.5754H98.4758Z" fill="#9FABB5"/>
  <path d="M109.332 31.5754L107.013 36.8262C106.722 37.4863 106.448 37.9603 106.192 38.248C105.939 38.5358 105.638 38.7508 105.289 38.893C104.94 39.0318 104.516 39.1012 104.016 39.1012C103.589 39.1012 103.19 39.0504 102.821 38.9488V37.598C103.122 37.7199 103.496 37.7809 103.944 37.7809C104.228 37.7809 104.457 37.7165 104.632 37.5879C104.806 37.4559 104.952 37.229 105.068 36.9074L102.472 31.5754H104.155L106.002 35.7141H106.053L106.145 35.4602L107.695 31.5754H109.332Z" fill="#9FABB5"/>
  <path d="M116.568 38.9996H114.978V36.1305C114.451 36.3065 114.011 36.4267 113.659 36.491C113.31 36.5553 112.977 36.5875 112.659 36.5875C111.944 36.5875 111.391 36.4182 111.001 36.0797C110.615 35.7378 110.422 35.2587 110.422 34.6426V31.5754H112.007V34.1957C112.007 34.5546 112.091 34.8254 112.258 35.0082C112.426 35.1876 112.71 35.2773 113.11 35.2773C113.391 35.2773 113.669 35.2503 113.947 35.1961C114.227 35.1385 114.571 35.0404 114.978 34.9016V31.5754H116.568V38.9996Z" fill="#9FABB5"/>
  <path d="M123.307 38.9996H118.987V31.5754H123.307V32.8652H120.578V34.4953H123.118V35.7852H120.578V37.6996H123.307V38.9996ZM119.398 30.1484C119.398 29.9284 119.461 29.7591 119.587 29.6406C119.717 29.5221 119.892 29.4629 120.111 29.4629C120.337 29.4629 120.513 29.5255 120.639 29.6508C120.769 29.776 120.834 29.9419 120.834 30.1484C120.834 30.3516 120.769 30.5158 120.639 30.641C120.509 30.7629 120.333 30.8238 120.111 30.8238C119.892 30.8238 119.717 30.7646 119.587 30.6461C119.461 30.5276 119.398 30.3617 119.398 30.1484ZM121.465 30.1484C121.465 29.9115 121.534 29.7388 121.671 29.6305C121.811 29.5188 121.984 29.4629 122.189 29.4629C122.411 29.4629 122.587 29.5238 122.717 29.6457C122.851 29.7676 122.917 29.9352 122.917 30.1484C122.917 30.3549 122.851 30.5191 122.717 30.641C122.584 30.7629 122.408 30.8238 122.189 30.8238C121.984 30.8238 121.811 30.7697 121.671 30.6613C121.534 30.5496 121.465 30.3786 121.465 30.1484Z" fill="#9FABB5"/>
  <path d="M128.297 38.9996H126.706V32.8855H124.669V31.5754H130.334V32.8855H128.297V38.9996Z" fill="#9FABB5"/>
  <path d="M136.606 38.9996L136.062 37.2324H133.327L132.783 38.9996H131.069L133.717 31.5449H135.662L138.319 38.9996H136.606ZM135.682 35.9121C135.179 34.3108 134.895 33.4052 134.83 33.1953C134.769 32.9854 134.724 32.8195 134.697 32.6977C134.584 33.131 134.261 34.2025 133.727 35.9121H135.682Z" fill="#9FABB5"/>
</svg>
