<svg width="38" height="38" viewBox="0 0 38 38" fill="none" xmlns="http://www.w3.org/2000/svg">
<mask id="mask0_15778_143410" style="mask-type:alpha" maskUnits="userSpaceOnUse" x="0" y="0" width="38" height="38">
<circle cx="19" cy="19" r="18.5" fill="#C4C4C4" stroke="#D5D5D5"/>
</mask>
<g mask="url(#mask0_15778_143410)">
<rect x="-0.449219" y="-0.449219" width="38.9" height="38.9" fill="#ED4346" stroke="#D5D5D5"/>
</g>
<path d="M19 28C17.22 28 15.4799 27.4722 13.9999 26.4832C12.5198 25.4943 11.3663 24.0887 10.6851 22.4442C10.0039 20.7996 9.82567 18.99 10.1729 17.2442C10.5202 15.4984 11.3774 13.8947 12.636 12.636C13.8947 11.3774 15.4984 10.5202 17.2442 10.1729C18.99 9.82567 20.7996 10.0039 22.4442 10.6851C24.0887 11.3663 25.4943 12.5198 26.4832 13.9999C27.4722 15.4799 28 17.22 28 19C28 21.387 27.0518 23.6761 25.364 25.364C23.6761 27.0518 21.387 28 19 28ZM19 11.5C17.5166 11.5 16.0666 11.9399 14.8332 12.764C13.5999 13.5881 12.6386 14.7594 12.0709 16.1299C11.5033 17.5003 11.3547 19.0083 11.6441 20.4632C11.9335 21.918 12.6478 23.2544 13.6967 24.3033C14.7456 25.3522 16.082 26.0665 17.5368 26.3559C18.9917 26.6453 20.4997 26.4968 21.8701 25.9291C23.2406 25.3614 24.4119 24.4001 25.236 23.1668C26.0601 21.9334 26.5 20.4834 26.5 19C26.5 17.0109 25.7098 15.1032 24.3033 13.6967C22.8968 12.2902 20.9891 11.5 19 11.5Z" fill="white"/>
<path d="M15.9993 22.7508C15.9008 22.7513 15.8032 22.7321 15.7121 22.6943C15.6211 22.6565 15.5386 22.6009 15.4693 22.5308C15.3289 22.3902 15.25 22.1996 15.25 22.0008C15.25 21.8021 15.3289 21.6114 15.4693 21.4708L21.4693 15.4708C21.6115 15.3383 21.7996 15.2662 21.9939 15.2696C22.1882 15.2731 22.3735 15.3518 22.511 15.4892C22.6484 15.6266 22.7271 15.812 22.7305 16.0063C22.7339 16.2006 22.6618 16.3886 22.5293 16.5308L16.5293 22.5308C16.4601 22.6009 16.3775 22.6565 16.2865 22.6943C16.1955 22.7321 16.0979 22.7513 15.9993 22.7508Z" fill="white"/>
<path d="M22.0008 22.7508C21.9023 22.7513 21.8046 22.7321 21.7136 22.6943C21.6226 22.6565 21.5401 22.6009 21.4708 22.5308L15.4708 16.5308C15.3383 16.3886 15.2662 16.2006 15.2696 16.0063C15.2731 15.812 15.3518 15.6266 15.4892 15.4892C15.6266 15.3518 15.812 15.2731 16.0063 15.2696C16.2006 15.2662 16.3886 15.3383 16.5308 15.4708L22.5308 21.4708C22.6713 21.6114 22.7502 21.8021 22.7502 22.0008C22.7502 22.1996 22.6713 22.3902 22.5308 22.5308C22.4616 22.6009 22.379 22.6565 22.288 22.6943C22.197 22.7321 22.0994 22.7513 22.0008 22.7508Z" fill="white"/>
</svg>
