<svg width="24" height="24" viewBox="0 0 24 24" fill="none" xmlns="http://www.w3.org/2000/svg">
<path fill-rule="evenodd" clip-rule="evenodd" d="M13 9H3C1.89543 9 1 9.89543 1 11V21C1 22.1046 1.89543 23 3 23H13C14.1046 23 15 22.1046 15 21V11C15 9.89543 14.1046 9 13 9ZM3 8C1.34315 8 0 9.34315 0 11V21C0 22.6569 1.34315 24 3 24H13C14.6569 24 16 22.6569 16 21V11C16 9.34315 14.6569 8 13 8H3Z" fill="#252F3F"/>
<path fill-rule="evenodd" clip-rule="evenodd" d="M21 1H11C9.89543 1 9 1.89543 9 3V13C9 14.1046 9.89543 15 11 15H21C22.1046 15 23 14.1046 23 13V3C23 1.89543 22.1046 1 21 1ZM11 0C9.34315 0 8 1.34315 8 3V13C8 14.6569 9.34315 16 11 16H21C22.6569 16 24 14.6569 24 13V3C24 1.34315 22.6569 0 21 0H11Z" fill="#252F3F"/>
<path fill-rule="evenodd" clip-rule="evenodd" d="M7.98751 13.0108L13.6742 8.12115L14.3262 8.87939L8.63948 13.7691L7.98751 13.0108Z" fill="#252F3F"/>
<path fill-rule="evenodd" clip-rule="evenodd" d="M10.0003 14.9999L15.0003 10.9999L15.625 11.7808L10.625 15.7808L10.0003 14.9999Z" fill="#252F3F"/>
</svg>
